<?xml version="1.0" encoding="utf-8" standalone="no"?>
<!DOCTYPE svg PUBLIC "-//W3C//DTD SVG 1.1//EN"
  "http://www.w3.org/Graphics/SVG/1.1/DTD/svg11.dtd">
<!-- Created with matplotlib (https://matplotlib.org/) -->
<svg height="667.490729pt" version="1.1" viewBox="0 0 1080 667.490729" width="1080pt" xmlns="http://www.w3.org/2000/svg" xmlns:xlink="http://www.w3.org/1999/xlink">
 <defs>
  <style type="text/css">
*{stroke-linecap:butt;stroke-linejoin:round;}
  </style>
 </defs>
 <g id="figure_1">
  <g id="patch_1">
   <path d="M 0 667.490729 
L 1080 667.490729 
L 1080 0 
L 0 0 
z
" style="fill:#ffffff;"/>
  </g>
  <g id="axes_1">
   <g id="patch_2">
    <path d="M 61.8 324.245365 
L 1065.7 324.245365 
L 1065.7 31.8 
L 61.8 31.8 
z
" style="fill:#ffffff;"/>
   </g>
   <g id="patch_3">
    <path clip-path="url(#pe85adc5069)" d="M 15.372989 324.245365 
L 15.372989 31.8 
L 330.942091 31.8 
L 330.942091 324.245365 
z
" style="opacity:0.2;stroke:#000000;stroke-linejoin:miter;"/>
   </g>
   <g id="patch_4">
    <path clip-path="url(#pe85adc5069)" d="M 330.942091 324.245365 
L 330.942091 31.8 
L 532.79866 31.8 
L 532.79866 324.245365 
z
" style="fill:#ff0000;opacity:0.2;stroke:#ff0000;stroke-linejoin:miter;"/>
   </g>
   <g id="patch_5">
    <path clip-path="url(#pe85adc5069)" d="M 532.79866 324.245365 
L 532.79866 31.8 
L 1058.971448 31.8 
L 1058.971448 324.245365 
z
" style="opacity:0.15;stroke:#000000;stroke-linejoin:miter;"/>
   </g>
   <g id="patch_6">
    <path clip-path="url(#pe85adc5069)" d="M 121.684115 324.245365 
L 121.684115 31.8 
L 134.468365 31.8 
L 134.468365 324.245365 
z
" style="opacity:0.15;stroke:#000000;stroke-linejoin:miter;"/>
   </g>
   <g id="patch_7">
    <path clip-path="url(#pe85adc5069)" d="M 728.599531 324.245365 
L 728.599531 31.8 
L 748.112332 31.8 
L 748.112332 324.245365 
z
" style="opacity:0.15;stroke:#000000;stroke-linejoin:miter;"/>
   </g>
   <g id="patch_8">
    <path clip-path="url(#pe85adc5069)" d="M 982.265952 324.245365 
L 982.265952 31.8 
L 999.760188 31.8 
L 999.760188 324.245365 
z
" style="opacity:0.15;stroke:#000000;stroke-linejoin:miter;"/>
   </g>
   <g id="matplotlib.axis_1">
    <g id="xtick_1">
     <g id="line2d_1">
      <defs>
       <path d="M 0 0 
L 0 3.5 
" id="m856fc4be1d" style="stroke:#000000;stroke-width:0.8;"/>
      </defs>
      <g>
       <use style="stroke:#000000;stroke-width:0.8;" x="129.085523" xlink:href="#m856fc4be1d" y="324.245365"/>
      </g>
     </g>
    </g>
    <g id="xtick_2">
     <g id="line2d_2">
      <g>
       <use style="stroke:#000000;stroke-width:0.8;" x="263.656568" xlink:href="#m856fc4be1d" y="324.245365"/>
      </g>
     </g>
    </g>
    <g id="xtick_3">
     <g id="line2d_3">
      <g>
       <use style="stroke:#000000;stroke-width:0.8;" x="398.227614" xlink:href="#m856fc4be1d" y="324.245365"/>
      </g>
     </g>
    </g>
    <g id="xtick_4">
     <g id="line2d_4">
      <g>
       <use style="stroke:#000000;stroke-width:0.8;" x="532.79866" xlink:href="#m856fc4be1d" y="324.245365"/>
      </g>
     </g>
    </g>
    <g id="xtick_5">
     <g id="line2d_5">
      <g>
       <use style="stroke:#000000;stroke-width:0.8;" x="667.369705" xlink:href="#m856fc4be1d" y="324.245365"/>
      </g>
     </g>
    </g>
    <g id="xtick_6">
     <g id="line2d_6">
      <g>
       <use style="stroke:#000000;stroke-width:0.8;" x="801.940751" xlink:href="#m856fc4be1d" y="324.245365"/>
      </g>
     </g>
    </g>
    <g id="xtick_7">
     <g id="line2d_7">
      <g>
       <use style="stroke:#000000;stroke-width:0.8;" x="936.511796" xlink:href="#m856fc4be1d" y="324.245365"/>
      </g>
     </g>
    </g>
    <g id="text_1">
     <!-- Time (ms) -->
     <defs>
      <path d="M -0.296875 72.90625 
L 61.375 72.90625 
L 61.375 64.59375 
L 35.5 64.59375 
L 35.5 0 
L 25.59375 0 
L 25.59375 64.59375 
L -0.296875 64.59375 
z
" id="DejaVuSans-84"/>
      <path d="M 9.421875 54.6875 
L 18.40625 54.6875 
L 18.40625 0 
L 9.421875 0 
z
M 9.421875 75.984375 
L 18.40625 75.984375 
L 18.40625 64.59375 
L 9.421875 64.59375 
z
" id="DejaVuSans-105"/>
      <path d="M 52 44.1875 
Q 55.375 50.25 60.0625 53.125 
Q 64.75 56 71.09375 56 
Q 79.640625 56 84.28125 50.015625 
Q 88.921875 44.046875 88.921875 33.015625 
L 88.921875 0 
L 79.890625 0 
L 79.890625 32.71875 
Q 79.890625 40.578125 77.09375 44.375 
Q 74.3125 48.1875 68.609375 48.1875 
Q 61.625 48.1875 57.5625 43.546875 
Q 53.515625 38.921875 53.515625 30.90625 
L 53.515625 0 
L 44.484375 0 
L 44.484375 32.71875 
Q 44.484375 40.625 41.703125 44.40625 
Q 38.921875 48.1875 33.109375 48.1875 
Q 26.21875 48.1875 22.15625 43.53125 
Q 18.109375 38.875 18.109375 30.90625 
L 18.109375 0 
L 9.078125 0 
L 9.078125 54.6875 
L 18.109375 54.6875 
L 18.109375 46.1875 
Q 21.1875 51.21875 25.484375 53.609375 
Q 29.78125 56 35.6875 56 
Q 41.65625 56 45.828125 52.96875 
Q 50 49.953125 52 44.1875 
z
" id="DejaVuSans-109"/>
      <path d="M 56.203125 29.59375 
L 56.203125 25.203125 
L 14.890625 25.203125 
Q 15.484375 15.921875 20.484375 11.0625 
Q 25.484375 6.203125 34.421875 6.203125 
Q 39.59375 6.203125 44.453125 7.46875 
Q 49.3125 8.734375 54.109375 11.28125 
L 54.109375 2.78125 
Q 49.265625 0.734375 44.1875 -0.34375 
Q 39.109375 -1.421875 33.890625 -1.421875 
Q 20.796875 -1.421875 13.15625 6.1875 
Q 5.515625 13.8125 5.515625 26.8125 
Q 5.515625 40.234375 12.765625 48.109375 
Q 20.015625 56 32.328125 56 
Q 43.359375 56 49.78125 48.890625 
Q 56.203125 41.796875 56.203125 29.59375 
z
M 47.21875 32.234375 
Q 47.125 39.59375 43.09375 43.984375 
Q 39.0625 48.390625 32.421875 48.390625 
Q 24.90625 48.390625 20.390625 44.140625 
Q 15.875 39.890625 15.1875 32.171875 
z
" id="DejaVuSans-101"/>
      <path id="DejaVuSans-32"/>
      <path d="M 31 75.875 
Q 24.46875 64.65625 21.28125 53.65625 
Q 18.109375 42.671875 18.109375 31.390625 
Q 18.109375 20.125 21.3125 9.0625 
Q 24.515625 -2 31 -13.1875 
L 23.1875 -13.1875 
Q 15.875 -1.703125 12.234375 9.375 
Q 8.59375 20.453125 8.59375 31.390625 
Q 8.59375 42.28125 12.203125 53.3125 
Q 15.828125 64.359375 23.1875 75.875 
z
" id="DejaVuSans-40"/>
      <path d="M 44.28125 53.078125 
L 44.28125 44.578125 
Q 40.484375 46.53125 36.375 47.5 
Q 32.28125 48.484375 27.875 48.484375 
Q 21.1875 48.484375 17.84375 46.4375 
Q 14.5 44.390625 14.5 40.28125 
Q 14.5 37.15625 16.890625 35.375 
Q 19.28125 33.59375 26.515625 31.984375 
L 29.59375 31.296875 
Q 39.15625 29.25 43.1875 25.515625 
Q 47.21875 21.78125 47.21875 15.09375 
Q 47.21875 7.46875 41.1875 3.015625 
Q 35.15625 -1.421875 24.609375 -1.421875 
Q 20.21875 -1.421875 15.453125 -0.5625 
Q 10.6875 0.296875 5.421875 2 
L 5.421875 11.28125 
Q 10.40625 8.6875 15.234375 7.390625 
Q 20.0625 6.109375 24.8125 6.109375 
Q 31.15625 6.109375 34.5625 8.28125 
Q 37.984375 10.453125 37.984375 14.40625 
Q 37.984375 18.0625 35.515625 20.015625 
Q 33.0625 21.96875 24.703125 23.78125 
L 21.578125 24.515625 
Q 13.234375 26.265625 9.515625 29.90625 
Q 5.8125 33.546875 5.8125 39.890625 
Q 5.8125 47.609375 11.28125 51.796875 
Q 16.75 56 26.8125 56 
Q 31.78125 56 36.171875 55.265625 
Q 40.578125 54.546875 44.28125 53.078125 
z
" id="DejaVuSans-115"/>
      <path d="M 8.015625 75.875 
L 15.828125 75.875 
Q 23.140625 64.359375 26.78125 53.3125 
Q 30.421875 42.28125 30.421875 31.390625 
Q 30.421875 20.453125 26.78125 9.375 
Q 23.140625 -1.703125 15.828125 -13.1875 
L 8.015625 -13.1875 
Q 14.5 -2 17.703125 9.0625 
Q 20.90625 20.125 20.90625 31.390625 
Q 20.90625 42.671875 17.703125 53.65625 
Q 14.5 64.65625 8.015625 75.875 
z
" id="DejaVuSans-41"/>
     </defs>
     <g transform="translate(513.04375 350.44224)scale(0.2 -0.2)">
      <use xlink:href="#DejaVuSans-84"/>
      <use x="61.037109" xlink:href="#DejaVuSans-105"/>
      <use x="88.820312" xlink:href="#DejaVuSans-109"/>
      <use x="186.232422" xlink:href="#DejaVuSans-101"/>
      <use x="247.755859" xlink:href="#DejaVuSans-32"/>
      <use x="279.542969" xlink:href="#DejaVuSans-40"/>
      <use x="318.556641" xlink:href="#DejaVuSans-109"/>
      <use x="415.96875" xlink:href="#DejaVuSans-115"/>
      <use x="468.068359" xlink:href="#DejaVuSans-41"/>
     </g>
    </g>
   </g>
   <g id="matplotlib.axis_2">
    <g id="ytick_1">
     <g id="line2d_8">
      <defs>
       <path d="M 0 0 
L -3.5 0 
" id="mdb553ed8e4" style="stroke:#000000;stroke-width:0.8;"/>
      </defs>
      <g>
       <use style="stroke:#000000;stroke-width:0.8;" x="61.8" xlink:href="#mdb553ed8e4" y="289.077884"/>
      </g>
     </g>
     <g id="text_2">
      <!-- −30 -->
      <defs>
       <path d="M 10.59375 35.5 
L 73.1875 35.5 
L 73.1875 27.203125 
L 10.59375 27.203125 
z
" id="DejaVuSans-8722"/>
       <path d="M 40.578125 39.3125 
Q 47.65625 37.796875 51.625 33 
Q 55.609375 28.21875 55.609375 21.1875 
Q 55.609375 10.40625 48.1875 4.484375 
Q 40.765625 -1.421875 27.09375 -1.421875 
Q 22.515625 -1.421875 17.65625 -0.515625 
Q 12.796875 0.390625 7.625 2.203125 
L 7.625 11.71875 
Q 11.71875 9.328125 16.59375 8.109375 
Q 21.484375 6.890625 26.8125 6.890625 
Q 36.078125 6.890625 40.9375 10.546875 
Q 45.796875 14.203125 45.796875 21.1875 
Q 45.796875 27.640625 41.28125 31.265625 
Q 36.765625 34.90625 28.71875 34.90625 
L 20.21875 34.90625 
L 20.21875 43.015625 
L 29.109375 43.015625 
Q 36.375 43.015625 40.234375 45.921875 
Q 44.09375 48.828125 44.09375 54.296875 
Q 44.09375 59.90625 40.109375 62.90625 
Q 36.140625 65.921875 28.71875 65.921875 
Q 24.65625 65.921875 20.015625 65.03125 
Q 15.375 64.15625 9.8125 62.3125 
L 9.8125 71.09375 
Q 15.4375 72.65625 20.34375 73.4375 
Q 25.25 74.21875 29.59375 74.21875 
Q 40.828125 74.21875 47.359375 69.109375 
Q 53.90625 64.015625 53.90625 55.328125 
Q 53.90625 49.265625 50.4375 45.09375 
Q 46.96875 40.921875 40.578125 39.3125 
z
" id="DejaVuSans-51"/>
       <path d="M 31.78125 66.40625 
Q 24.171875 66.40625 20.328125 58.90625 
Q 16.5 51.421875 16.5 36.375 
Q 16.5 21.390625 20.328125 13.890625 
Q 24.171875 6.390625 31.78125 6.390625 
Q 39.453125 6.390625 43.28125 13.890625 
Q 47.125 21.390625 47.125 36.375 
Q 47.125 51.421875 43.28125 58.90625 
Q 39.453125 66.40625 31.78125 66.40625 
z
M 31.78125 74.21875 
Q 44.046875 74.21875 50.515625 64.515625 
Q 56.984375 54.828125 56.984375 36.375 
Q 56.984375 17.96875 50.515625 8.265625 
Q 44.046875 -1.421875 31.78125 -1.421875 
Q 19.53125 -1.421875 13.0625 8.265625 
Q 6.59375 17.96875 6.59375 36.375 
Q 6.59375 54.828125 13.0625 64.515625 
Q 19.53125 74.21875 31.78125 74.21875 
z
" id="DejaVuSans-48"/>
      </defs>
      <g transform="translate(33.695312 292.877103)scale(0.1 -0.1)">
       <use xlink:href="#DejaVuSans-8722"/>
       <use x="83.789062" xlink:href="#DejaVuSans-51"/>
       <use x="147.412109" xlink:href="#DejaVuSans-48"/>
      </g>
     </g>
    </g>
    <g id="ytick_2">
     <g id="line2d_9">
      <g>
       <use style="stroke:#000000;stroke-width:0.8;" x="61.8" xlink:href="#mdb553ed8e4" y="252.059484"/>
      </g>
     </g>
     <g id="text_3">
      <!-- −20 -->
      <defs>
       <path d="M 19.1875 8.296875 
L 53.609375 8.296875 
L 53.609375 0 
L 7.328125 0 
L 7.328125 8.296875 
Q 12.9375 14.109375 22.625 23.890625 
Q 32.328125 33.6875 34.8125 36.53125 
Q 39.546875 41.84375 41.421875 45.53125 
Q 43.3125 49.21875 43.3125 52.78125 
Q 43.3125 58.59375 39.234375 62.25 
Q 35.15625 65.921875 28.609375 65.921875 
Q 23.96875 65.921875 18.8125 64.3125 
Q 13.671875 62.703125 7.8125 59.421875 
L 7.8125 69.390625 
Q 13.765625 71.78125 18.9375 73 
Q 24.125 74.21875 28.421875 74.21875 
Q 39.75 74.21875 46.484375 68.546875 
Q 53.21875 62.890625 53.21875 53.421875 
Q 53.21875 48.921875 51.53125 44.890625 
Q 49.859375 40.875 45.40625 35.40625 
Q 44.1875 33.984375 37.640625 27.21875 
Q 31.109375 20.453125 19.1875 8.296875 
z
" id="DejaVuSans-50"/>
      </defs>
      <g transform="translate(33.695312 255.858702)scale(0.1 -0.1)">
       <use xlink:href="#DejaVuSans-8722"/>
       <use x="83.789062" xlink:href="#DejaVuSans-50"/>
       <use x="147.412109" xlink:href="#DejaVuSans-48"/>
      </g>
     </g>
    </g>
    <g id="ytick_3">
     <g id="line2d_10">
      <g>
       <use style="stroke:#000000;stroke-width:0.8;" x="61.8" xlink:href="#mdb553ed8e4" y="215.041083"/>
      </g>
     </g>
     <g id="text_4">
      <!-- −10 -->
      <defs>
       <path d="M 12.40625 8.296875 
L 28.515625 8.296875 
L 28.515625 63.921875 
L 10.984375 60.40625 
L 10.984375 69.390625 
L 28.421875 72.90625 
L 38.28125 72.90625 
L 38.28125 8.296875 
L 54.390625 8.296875 
L 54.390625 0 
L 12.40625 0 
z
" id="DejaVuSans-49"/>
      </defs>
      <g transform="translate(33.695312 218.840302)scale(0.1 -0.1)">
       <use xlink:href="#DejaVuSans-8722"/>
       <use x="83.789062" xlink:href="#DejaVuSans-49"/>
       <use x="147.412109" xlink:href="#DejaVuSans-48"/>
      </g>
     </g>
    </g>
    <g id="ytick_4">
     <g id="line2d_11">
      <g>
       <use style="stroke:#000000;stroke-width:0.8;" x="61.8" xlink:href="#mdb553ed8e4" y="178.022682"/>
      </g>
     </g>
     <g id="text_5">
      <!-- 0 -->
      <g transform="translate(48.4375 181.821901)scale(0.1 -0.1)">
       <use xlink:href="#DejaVuSans-48"/>
      </g>
     </g>
    </g>
    <g id="ytick_5">
     <g id="line2d_12">
      <g>
       <use style="stroke:#000000;stroke-width:0.8;" x="61.8" xlink:href="#mdb553ed8e4" y="141.004282"/>
      </g>
     </g>
     <g id="text_6">
      <!-- 10 -->
      <g transform="translate(42.075 144.8035)scale(0.1 -0.1)">
       <use xlink:href="#DejaVuSans-49"/>
       <use x="63.623047" xlink:href="#DejaVuSans-48"/>
      </g>
     </g>
    </g>
    <g id="ytick_6">
     <g id="line2d_13">
      <g>
       <use style="stroke:#000000;stroke-width:0.8;" x="61.8" xlink:href="#mdb553ed8e4" y="103.985881"/>
      </g>
     </g>
     <g id="text_7">
      <!-- 20 -->
      <g transform="translate(42.075 107.7851)scale(0.1 -0.1)">
       <use xlink:href="#DejaVuSans-50"/>
       <use x="63.623047" xlink:href="#DejaVuSans-48"/>
      </g>
     </g>
    </g>
    <g id="ytick_7">
     <g id="line2d_14">
      <g>
       <use style="stroke:#000000;stroke-width:0.8;" x="61.8" xlink:href="#mdb553ed8e4" y="66.967481"/>
      </g>
     </g>
     <g id="text_8">
      <!-- 30 -->
      <g transform="translate(42.075 70.766699)scale(0.1 -0.1)">
       <use xlink:href="#DejaVuSans-51"/>
       <use x="63.623047" xlink:href="#DejaVuSans-48"/>
      </g>
     </g>
    </g>
    <g id="text_9">
     <!-- Velocity (°/s) -->
     <defs>
      <path d="M 28.609375 0 
L 0.78125 72.90625 
L 11.078125 72.90625 
L 34.1875 11.53125 
L 57.328125 72.90625 
L 67.578125 72.90625 
L 39.796875 0 
z
" id="DejaVuSans-86"/>
      <path d="M 9.421875 75.984375 
L 18.40625 75.984375 
L 18.40625 0 
L 9.421875 0 
z
" id="DejaVuSans-108"/>
      <path d="M 30.609375 48.390625 
Q 23.390625 48.390625 19.1875 42.75 
Q 14.984375 37.109375 14.984375 27.296875 
Q 14.984375 17.484375 19.15625 11.84375 
Q 23.34375 6.203125 30.609375 6.203125 
Q 37.796875 6.203125 41.984375 11.859375 
Q 46.1875 17.53125 46.1875 27.296875 
Q 46.1875 37.015625 41.984375 42.703125 
Q 37.796875 48.390625 30.609375 48.390625 
z
M 30.609375 56 
Q 42.328125 56 49.015625 48.375 
Q 55.71875 40.765625 55.71875 27.296875 
Q 55.71875 13.875 49.015625 6.21875 
Q 42.328125 -1.421875 30.609375 -1.421875 
Q 18.84375 -1.421875 12.171875 6.21875 
Q 5.515625 13.875 5.515625 27.296875 
Q 5.515625 40.765625 12.171875 48.375 
Q 18.84375 56 30.609375 56 
z
" id="DejaVuSans-111"/>
      <path d="M 48.78125 52.59375 
L 48.78125 44.1875 
Q 44.96875 46.296875 41.140625 47.34375 
Q 37.3125 48.390625 33.40625 48.390625 
Q 24.65625 48.390625 19.8125 42.84375 
Q 14.984375 37.3125 14.984375 27.296875 
Q 14.984375 17.28125 19.8125 11.734375 
Q 24.65625 6.203125 33.40625 6.203125 
Q 37.3125 6.203125 41.140625 7.25 
Q 44.96875 8.296875 48.78125 10.40625 
L 48.78125 2.09375 
Q 45.015625 0.34375 40.984375 -0.53125 
Q 36.96875 -1.421875 32.421875 -1.421875 
Q 20.0625 -1.421875 12.78125 6.34375 
Q 5.515625 14.109375 5.515625 27.296875 
Q 5.515625 40.671875 12.859375 48.328125 
Q 20.21875 56 33.015625 56 
Q 37.15625 56 41.109375 55.140625 
Q 45.0625 54.296875 48.78125 52.59375 
z
" id="DejaVuSans-99"/>
      <path d="M 18.3125 70.21875 
L 18.3125 54.6875 
L 36.8125 54.6875 
L 36.8125 47.703125 
L 18.3125 47.703125 
L 18.3125 18.015625 
Q 18.3125 11.328125 20.140625 9.421875 
Q 21.96875 7.515625 27.59375 7.515625 
L 36.8125 7.515625 
L 36.8125 0 
L 27.59375 0 
Q 17.1875 0 13.234375 3.875 
Q 9.28125 7.765625 9.28125 18.015625 
L 9.28125 47.703125 
L 2.6875 47.703125 
L 2.6875 54.6875 
L 9.28125 54.6875 
L 9.28125 70.21875 
z
" id="DejaVuSans-116"/>
      <path d="M 32.171875 -5.078125 
Q 28.375 -14.84375 24.75 -17.8125 
Q 21.140625 -20.796875 15.09375 -20.796875 
L 7.90625 -20.796875 
L 7.90625 -13.28125 
L 13.1875 -13.28125 
Q 16.890625 -13.28125 18.9375 -11.515625 
Q 21 -9.765625 23.484375 -3.21875 
L 25.09375 0.875 
L 2.984375 54.6875 
L 12.5 54.6875 
L 29.59375 11.921875 
L 46.6875 54.6875 
L 56.203125 54.6875 
z
" id="DejaVuSans-121"/>
      <path d="M 25 67.921875 
Q 21.09375 67.921875 18.40625 65.203125 
Q 15.71875 62.5 15.71875 58.59375 
Q 15.71875 54.734375 18.40625 52.078125 
Q 21.09375 49.421875 25 49.421875 
Q 28.90625 49.421875 31.59375 52.078125 
Q 34.28125 54.734375 34.28125 58.59375 
Q 34.28125 62.453125 31.5625 65.1875 
Q 28.859375 67.921875 25 67.921875 
z
M 25 74.21875 
Q 28.125 74.21875 31 73.015625 
Q 33.890625 71.828125 35.984375 69.578125 
Q 38.234375 67.390625 39.359375 64.59375 
Q 40.484375 61.8125 40.484375 58.59375 
Q 40.484375 52.15625 35.96875 47.6875 
Q 31.453125 43.21875 24.90625 43.21875 
Q 18.3125 43.21875 13.90625 47.609375 
Q 9.515625 52 9.515625 58.59375 
Q 9.515625 65.140625 14 69.671875 
Q 18.5 74.21875 25 74.21875 
z
" id="DejaVuSans-176"/>
      <path d="M 25.390625 72.90625 
L 33.6875 72.90625 
L 8.296875 -9.28125 
L 0 -9.28125 
z
" id="DejaVuSans-47"/>
     </defs>
     <g transform="translate(25.535937 242.57737)rotate(-90)scale(0.2 -0.2)">
      <use xlink:href="#DejaVuSans-86"/>
      <use x="68.298828" xlink:href="#DejaVuSans-101"/>
      <use x="129.822266" xlink:href="#DejaVuSans-108"/>
      <use x="157.605469" xlink:href="#DejaVuSans-111"/>
      <use x="218.787109" xlink:href="#DejaVuSans-99"/>
      <use x="273.767578" xlink:href="#DejaVuSans-105"/>
      <use x="301.550781" xlink:href="#DejaVuSans-116"/>
      <use x="340.759766" xlink:href="#DejaVuSans-121"/>
      <use x="399.939453" xlink:href="#DejaVuSans-32"/>
      <use x="431.726562" xlink:href="#DejaVuSans-40"/>
      <use x="470.740234" xlink:href="#DejaVuSans-176"/>
      <use x="520.740234" xlink:href="#DejaVuSans-47"/>
      <use x="554.431641" xlink:href="#DejaVuSans-115"/>
      <use x="606.53125" xlink:href="#DejaVuSans-41"/>
     </g>
    </g>
   </g>
   <g id="line2d_15">
    <path clip-path="url(#pe85adc5069)" d="M 61.127145 172.954178 
L 61.8 152.680162 
L 62.472855 142.543154 
L 63.14571 162.81717 
L 63.818566 188.15969 
L 64.491421 193.228194 
L 65.164276 203.365202 
L 66.509987 203.365202 
L 67.182842 208.433706 
L 67.855697 203.365202 
L 68.528552 172.954178 
L 69.201408 147.611658 
L 69.874263 147.611658 
L 70.547118 157.748666 
L 71.219973 162.81717 
L 71.892828 162.81717 
L 72.565684 172.954178 
L 74.584249 172.954178 
L 75.257105 178.022682 
L 75.92996 203.365202 
L 76.602815 218.570714 
L 77.27567 208.433706 
L 77.948525 183.091186 
L 78.621381 167.885674 
L 79.294236 167.885674 
L 79.967091 178.022682 
L 80.639946 183.091186 
L 82.658512 167.885674 
L 83.331367 178.022682 
L 84.004223 198.296698 
L 84.677078 203.365202 
L 85.349933 183.091186 
L 86.022788 172.954178 
L 89.387064 172.954178 
L 90.05992 162.81717 
L 90.732775 162.81717 
L 91.40563 172.954178 
L 92.75134 223.639218 
L 93.424196 223.639218 
L 94.097051 203.365202 
L 94.769906 172.954178 
L 95.442761 157.748666 
L 96.115617 157.748666 
L 96.788472 167.885674 
L 98.134182 178.022682 
L 98.807038 188.15969 
L 99.479893 188.15969 
L 100.152748 178.022682 
L 100.825603 172.954178 
L 101.498458 178.022682 
L 102.844169 178.022682 
L 103.517024 172.954178 
L 104.189879 162.81717 
L 104.862735 162.81717 
L 106.208445 193.228194 
L 106.8813 198.296698 
L 107.554155 183.091186 
L 108.227011 172.954178 
L 108.899866 147.611658 
L 109.572721 117.200634 
L 110.245576 117.200634 
L 110.918432 147.611658 
L 111.591287 183.091186 
L 112.264142 188.15969 
L 112.936997 188.15969 
L 113.609853 198.296698 
L 114.282708 203.365202 
L 114.955563 213.50221 
L 115.628418 208.433706 
L 116.301273 172.954178 
L 116.974129 147.611658 
L 117.646984 147.611658 
M 153.981166 213.50221 
L 154.654021 203.365202 
L 155.326877 188.15969 
L 156.672587 188.15969 
L 157.345442 193.228194 
L 158.691153 193.228194 
L 160.036863 172.954178 
L 160.709718 183.091186 
L 162.055429 193.228194 
L 162.728284 193.228194 
L 164.74685 162.81717 
L 165.419705 162.81717 
L 166.09256 172.954178 
L 166.765416 178.022682 
L 167.438271 178.022682 
L 168.111126 172.954178 
L 168.783981 172.954178 
L 169.456836 178.022682 
L 170.129692 178.022682 
L 170.802547 167.885674 
L 171.475402 152.680162 
L 172.148257 152.680162 
L 172.821113 178.022682 
L 173.493968 188.15969 
L 174.166823 167.885674 
L 174.839678 157.748666 
L 176.185389 178.022682 
L 178.87681 178.022682 
L 180.22252 157.748666 
L 180.895375 152.680162 
L 182.241086 183.091186 
L 182.913941 183.091186 
L 183.586796 178.022682 
L 184.259651 167.885674 
L 186.278217 183.091186 
L 186.951072 178.022682 
L 187.623928 167.885674 
L 188.296783 172.954178 
L 188.969638 172.954178 
L 189.642493 167.885674 
L 190.988204 178.022682 
L 192.333914 178.022682 
L 193.006769 183.091186 
L 193.679625 183.091186 
L 194.35248 172.954178 
L 195.025335 167.885674 
L 195.69819 172.954178 
L 196.371046 183.091186 
L 197.043901 183.091186 
L 197.716756 178.022682 
L 198.389611 183.091186 
L 199.735322 162.81717 
L 201.753887 178.022682 
L 202.426743 172.954178 
L 203.099598 172.954178 
L 203.772453 188.15969 
L 204.445308 193.228194 
L 205.791019 172.954178 
L 206.463874 167.885674 
L 207.136729 157.748666 
L 207.809584 152.680162 
L 208.48244 157.748666 
L 209.82815 198.296698 
L 210.501005 203.365202 
L 211.173861 193.228194 
L 211.846716 172.954178 
L 212.519571 162.81717 
L 213.192426 147.611658 
L 213.865282 142.543154 
L 215.210992 183.091186 
L 215.883847 178.022682 
L 216.556702 167.885674 
L 217.229558 162.81717 
L 217.902413 167.885674 
L 218.575268 183.091186 
L 220.593834 183.091186 
L 221.939544 193.228194 
L 223.285255 183.091186 
L 223.95811 172.954178 
L 224.630965 167.885674 
L 225.30382 167.885674 
L 226.649531 147.611658 
L 227.322386 152.680162 
L 227.995241 162.81717 
L 229.340952 172.954178 
L 231.359517 203.365202 
L 232.032373 198.296698 
L 232.705228 183.091186 
L 233.378083 178.022682 
L 234.050938 178.022682 
L 235.396649 157.748666 
L 236.069504 157.748666 
L 236.742359 167.885674 
L 237.415214 172.954178 
L 238.08807 172.954178 
L 238.760925 178.022682 
L 241.452346 178.022682 
L 242.125201 183.091186 
L 242.798056 183.091186 
L 243.470912 172.954178 
L 244.816622 162.81717 
L 246.162332 183.091186 
L 247.508043 162.81717 
L 248.180898 157.748666 
L 249.526609 157.748666 
L 250.199464 167.885674 
L 251.545174 198.296698 
L 252.218029 203.365202 
L 252.890885 193.228194 
L 253.56374 178.022682 
L 254.236595 167.885674 
L 254.90945 162.81717 
L 255.582306 162.81717 
L 256.255161 167.885674 
L 256.928016 167.885674 
L 257.600871 178.022682 
L 258.273727 183.091186 
L 258.946582 178.022682 
L 259.619437 178.022682 
L 260.965147 167.885674 
L 262.983713 167.885674 
L 263.656568 172.954178 
L 264.329424 183.091186 
L 265.002279 188.15969 
L 266.347989 188.15969 
L 267.6937 178.022682 
L 268.366555 178.022682 
L 269.03941 172.954178 
L 269.712265 172.954178 
L 270.385121 178.022682 
L 272.403686 178.022682 
L 273.076542 183.091186 
L 273.749397 183.091186 
L 274.422252 167.885674 
L 275.095107 157.748666 
L 275.767962 172.954178 
L 276.440818 198.296698 
L 277.113673 208.433706 
L 277.786528 193.228194 
L 278.459383 183.091186 
L 279.132239 188.15969 
L 280.477949 157.748666 
L 281.150804 157.748666 
L 281.82366 162.81717 
L 283.842225 193.228194 
L 284.51508 188.15969 
L 285.187936 178.022682 
L 286.533646 178.022682 
L 287.206501 183.091186 
L 287.879357 172.954178 
L 288.552212 157.748666 
L 289.225067 157.748666 
L 289.897922 172.954178 
L 290.570777 178.022682 
L 291.243633 162.81717 
L 291.916488 167.885674 
L 292.589343 183.091186 
L 293.262198 183.091186 
L 295.280764 167.885674 
L 295.953619 172.954178 
L 296.626475 183.091186 
L 297.29933 183.091186 
L 297.972185 172.954178 
L 298.64504 147.611658 
L 299.317895 127.337642 
L 299.990751 132.406146 
L 300.663606 157.748666 
L 301.336461 172.954178 
L 302.009316 167.885674 
L 302.682172 172.954178 
L 303.355027 183.091186 
L 304.027882 188.15969 
L 305.373592 188.15969 
L 306.719303 167.885674 
L 307.392158 167.885674 
L 308.065013 172.954178 
L 308.737869 183.091186 
L 309.410724 183.091186 
L 310.083579 178.022682 
L 310.756434 178.022682 
L 312.102145 167.885674 
L 312.775 172.954178 
L 314.12071 172.954178 
L 314.793566 178.022682 
L 315.466421 178.022682 
L 316.812131 188.15969 
L 318.157842 167.885674 
L 318.830697 162.81717 
L 319.503552 178.022682 
L 320.176408 198.296698 
L 322.867828 198.296698 
L 324.213539 147.611658 
L 324.886394 152.680162 
L 325.559249 178.022682 
L 326.232105 193.228194 
L 326.90496 183.091186 
L 327.577815 178.022682 
L 328.923525 178.022682 
L 329.596381 183.091186 
L 330.269236 198.296698 
L 330.942091 203.365202 
L 332.960657 188.15969 
L 333.633512 188.15969 
L 334.979223 167.885674 
L 335.652078 167.885674 
L 336.997788 178.022682 
L 338.343499 178.022682 
L 339.016354 183.091186 
L 339.689209 193.228194 
L 340.362064 198.296698 
L 341.03492 183.091186 
L 341.707775 162.81717 
L 342.38063 162.81717 
L 344.399196 178.022682 
L 345.072051 178.022682 
L 345.744906 183.091186 
L 346.417761 193.228194 
L 347.090617 193.228194 
L 347.763472 188.15969 
L 348.436327 193.228194 
L 349.109182 188.15969 
L 349.782038 188.15969 
L 350.454893 193.228194 
L 351.127748 183.091186 
L 351.800603 183.091186 
L 352.473458 188.15969 
L 353.146314 183.091186 
L 353.819169 167.885674 
L 354.492024 157.748666 
L 355.837735 157.748666 
L 356.51059 162.81717 
L 357.183445 178.022682 
L 357.8563 188.15969 
L 358.529155 188.15969 
L 359.874866 178.022682 
L 361.220576 178.022682 
L 362.566287 167.885674 
L 363.239142 178.022682 
L 363.911997 183.091186 
L 364.584853 183.091186 
L 365.257708 193.228194 
L 365.930563 198.296698 
L 366.603418 188.15969 
L 367.276273 167.885674 
L 367.949129 157.748666 
L 368.621984 162.81717 
L 369.967694 183.091186 
L 370.64055 183.091186 
L 371.313405 178.022682 
L 371.98626 178.022682 
L 373.331971 157.748666 
L 374.004826 157.748666 
L 375.350536 178.022682 
L 376.023391 183.091186 
L 376.696247 183.091186 
L 377.369102 172.954178 
L 378.041957 183.091186 
L 378.714812 203.365202 
L 379.387668 203.365202 
L 380.060523 178.022682 
L 380.733378 147.611658 
L 381.406233 137.47465 
L 382.079088 152.680162 
L 382.751944 172.954178 
L 384.097654 203.365202 
L 384.770509 208.433706 
L 385.443365 193.228194 
L 386.11622 183.091186 
L 386.789075 183.091186 
L 387.46193 167.885674 
L 388.134786 157.748666 
L 388.807641 167.885674 
L 389.480496 183.091186 
L 390.153351 193.228194 
L 390.826206 188.15969 
L 391.499062 178.022682 
L 392.844772 178.022682 
L 393.517627 167.885674 
L 394.190483 152.680162 
L 394.863338 157.748666 
L 395.536193 183.091186 
L 396.209048 198.296698 
L 396.881903 193.228194 
L 397.554759 183.091186 
L 398.227614 178.022682 
L 399.573324 157.748666 
L 400.24618 172.954178 
L 400.919035 193.228194 
L 401.59189 203.365202 
L 402.264745 188.15969 
L 402.937601 167.885674 
L 404.956166 183.091186 
L 405.629021 183.091186 
L 406.301877 178.022682 
L 407.647587 188.15969 
L 408.320442 183.091186 
L 408.993298 172.954178 
L 409.666153 172.954178 
L 410.339008 188.15969 
L 411.011863 198.296698 
L 411.684718 193.228194 
L 413.030429 152.680162 
L 413.703284 157.748666 
L 414.376139 172.954178 
L 415.048995 178.022682 
L 415.72185 178.022682 
L 416.394705 183.091186 
L 417.06756 183.091186 
L 418.413271 172.954178 
L 420.431836 172.954178 
L 421.777547 193.228194 
L 422.450402 198.296698 
L 423.123257 198.296698 
L 424.468968 178.022682 
L 425.141823 178.022682 
L 426.487534 147.611658 
L 427.160389 152.680162 
L 427.833244 183.091186 
L 428.506099 208.433706 
L 429.178954 203.365202 
L 429.85181 183.091186 
L 430.524665 172.954178 
L 431.19752 178.022682 
L 431.870375 167.885674 
L 432.543231 152.680162 
L 433.216086 147.611658 
L 433.888941 167.885674 
L 434.561796 193.228194 
L 435.234651 198.296698 
L 435.907507 183.091186 
L 436.580362 172.954178 
L 437.253217 178.022682 
L 439.271783 178.022682 
L 440.617493 188.15969 
L 441.963204 178.022682 
L 442.636059 178.022682 
L 443.981769 188.15969 
L 444.654625 188.15969 
L 446.67319 172.954178 
L 448.018901 172.954178 
L 449.364611 193.228194 
L 450.037466 198.296698 
L 450.710322 198.296698 
L 451.383177 188.15969 
L 452.728887 178.022682 
L 454.747453 178.022682 
L 455.420308 172.954178 
L 456.093164 172.954178 
L 456.766019 178.022682 
L 457.438874 172.954178 
L 458.111729 162.81717 
L 458.784584 162.81717 
L 459.45744 183.091186 
L 460.130295 193.228194 
L 460.80315 193.228194 
L 461.476005 188.15969 
L 462.148861 172.954178 
L 462.821716 172.954178 
L 463.494571 178.022682 
L 464.840282 198.296698 
L 465.513137 188.15969 
L 466.185992 172.954178 
L 466.858847 167.885674 
L 468.204558 178.022682 
L 468.877413 172.954178 
L 469.550268 178.022682 
L 470.223123 188.15969 
L 470.895979 188.15969 
L 471.568834 178.022682 
L 472.241689 172.954178 
L 472.914544 178.022682 
L 474.93311 178.022682 
L 475.605965 172.954178 
L 476.27882 178.022682 
L 476.951676 188.15969 
L 477.624531 193.228194 
L 478.297386 188.15969 
L 478.970241 172.954178 
L 479.643097 172.954178 
L 480.988807 162.81717 
L 481.661662 172.954178 
L 482.334517 188.15969 
L 483.007373 198.296698 
L 483.680228 193.228194 
L 484.353083 183.091186 
L 485.025938 178.022682 
L 485.698794 178.022682 
L 486.371649 183.091186 
L 487.717359 183.091186 
L 489.06307 172.954178 
L 490.40878 183.091186 
L 491.081635 183.091186 
L 491.754491 178.022682 
L 492.427346 178.022682 
L 493.100201 172.954178 
L 494.445912 183.091186 
L 495.791622 183.091186 
L 496.464477 178.022682 
L 497.137332 183.091186 
L 498.483043 172.954178 
L 499.155898 178.022682 
L 499.828753 167.885674 
L 500.501609 162.81717 
L 501.847319 172.954178 
L 503.193029 193.228194 
L 504.53874 203.365202 
L 505.211595 193.228194 
L 505.88445 172.954178 
L 507.230161 152.680162 
L 507.903016 147.611658 
L 509.921582 162.81717 
L 510.594437 183.091186 
L 511.267292 198.296698 
L 511.940147 198.296698 
L 513.285858 188.15969 
L 513.958713 193.228194 
L 514.631568 188.15969 
L 515.304424 178.022682 
L 516.650134 167.885674 
L 517.322989 172.954178 
L 517.995845 172.954178 
L 518.6687 167.885674 
L 519.341555 167.885674 
L 520.01441 172.954178 
L 521.360121 203.365202 
L 522.032976 203.365202 
L 522.705831 178.022682 
L 523.378686 157.748666 
L 524.051542 157.748666 
L 524.724397 162.81717 
L 525.397252 172.954178 
L 526.070107 167.885674 
L 526.742962 167.885674 
L 528.761528 183.091186 
L 529.434383 183.091186 
L 530.107239 193.228194 
L 530.780094 193.228194 
L 531.452949 183.091186 
L 532.125804 183.091186 
L 532.79866 193.228194 
L 533.471515 193.228194 
L 534.817225 172.954178 
L 535.49008 172.954178 
L 536.162936 178.022682 
L 539.527212 178.022682 
L 540.872922 157.748666 
L 541.545777 157.748666 
L 542.218633 167.885674 
L 542.891488 183.091186 
L 544.237198 183.091186 
L 544.910054 188.15969 
L 546.255764 178.022682 
L 546.928619 183.091186 
L 547.601475 183.091186 
L 548.27433 178.022682 
L 548.947185 178.022682 
L 550.292895 167.885674 
L 551.638606 178.022682 
L 552.984316 198.296698 
L 553.657172 198.296698 
L 554.330027 193.228194 
L 555.002882 183.091186 
L 555.675737 183.091186 
L 557.021448 172.954178 
L 557.694303 178.022682 
L 559.040013 178.022682 
L 559.712869 183.091186 
L 560.385724 183.091186 
L 561.058579 172.954178 
L 561.731434 178.022682 
L 562.40429 178.022682 
L 563.077145 172.954178 
L 564.422855 172.954178 
L 565.09571 198.296698 
L 565.768566 213.50221 
L 566.441421 213.50221 
L 567.114276 198.296698 
L 567.787131 178.022682 
L 569.132842 167.885674 
L 569.805697 167.885674 
L 570.478552 178.022682 
L 571.151408 183.091186 
L 571.824263 172.954178 
L 573.169973 162.81717 
L 573.842828 162.81717 
L 574.515684 172.954178 
L 575.188539 178.022682 
L 575.861394 188.15969 
L 576.534249 193.228194 
L 577.207105 188.15969 
L 577.87996 178.022682 
L 578.552815 178.022682 
L 579.22567 183.091186 
L 579.898525 183.091186 
L 580.571381 178.022682 
L 582.589946 147.611658 
L 583.262802 152.680162 
L 583.935657 172.954178 
L 584.608512 188.15969 
L 585.281367 183.091186 
L 589.318499 183.091186 
L 589.991354 172.954178 
L 591.337064 162.81717 
L 592.00992 167.885674 
L 592.682775 183.091186 
L 594.028485 183.091186 
L 594.70134 188.15969 
L 595.374196 178.022682 
L 596.047051 162.81717 
L 596.719906 152.680162 
L 597.392761 162.81717 
L 598.065617 167.885674 
L 598.738472 162.81717 
L 599.411327 167.885674 
L 600.757038 188.15969 
L 601.429893 188.15969 
L 602.102748 183.091186 
L 602.775603 183.091186 
L 604.121314 172.954178 
L 604.794169 178.022682 
L 606.812735 178.022682 
L 607.48559 183.091186 
L 608.158445 183.091186 
L 608.8313 167.885674 
L 609.504155 157.748666 
L 610.177011 167.885674 
L 610.849866 198.296698 
L 611.522721 218.570714 
L 612.195576 208.433706 
L 612.868432 178.022682 
L 613.541287 152.680162 
L 614.214142 137.47465 
L 614.886997 142.543154 
L 615.559853 157.748666 
L 616.905563 157.748666 
L 617.578418 167.885674 
L 618.251273 183.091186 
L 618.924129 208.433706 
L 619.596984 223.639218 
L 620.269839 218.570714 
L 622.288405 218.570714 
L 623.634115 208.433706 
L 624.306971 208.433706 
L 625.652681 188.15969 
L 626.325536 172.954178 
L 626.998391 162.81717 
L 627.671247 157.748666 
L 628.344102 157.748666 
L 629.016957 167.885674 
L 630.362668 178.022682 
L 631.708378 178.022682 
L 632.381233 183.091186 
L 633.054088 183.091186 
L 633.726944 178.022682 
L 636.418365 178.022682 
L 637.09122 198.296698 
L 637.764075 213.50221 
L 638.43693 193.228194 
L 639.109786 162.81717 
L 639.782641 152.680162 
L 641.801206 183.091186 
L 642.474062 188.15969 
L 644.492627 188.15969 
L 646.511193 172.954178 
L 647.184048 157.748666 
L 647.856903 152.680162 
L 648.529759 172.954178 
L 649.202614 203.365202 
L 649.875469 208.433706 
L 650.548324 178.022682 
L 651.22118 157.748666 
L 652.56689 178.022682 
L 653.239745 162.81717 
L 653.912601 152.680162 
L 654.585456 152.680162 
L 655.258311 162.81717 
L 655.931166 178.022682 
L 656.604021 188.15969 
L 657.276877 203.365202 
L 657.949732 203.365202 
L 659.295442 172.954178 
L 659.968298 183.091186 
L 660.641153 203.365202 
L 661.314008 203.365202 
L 662.659718 172.954178 
L 664.005429 172.954178 
L 664.678284 167.885674 
L 666.023995 167.885674 
L 666.69685 178.022682 
L 668.04256 188.15969 
L 668.715416 203.365202 
L 669.388271 203.365202 
L 670.061126 188.15969 
L 670.733981 183.091186 
L 671.406836 188.15969 
L 672.079692 183.091186 
L 672.752547 162.81717 
L 673.425402 152.680162 
L 674.771113 172.954178 
L 675.443968 188.15969 
L 676.116823 193.228194 
L 676.789678 193.228194 
L 677.462534 183.091186 
L 678.135389 167.885674 
L 678.808244 167.885674 
L 680.153954 188.15969 
L 680.82681 193.228194 
L 681.499665 193.228194 
L 682.17252 178.022682 
L 682.845375 188.15969 
L 683.518231 213.50221 
L 684.191086 213.50221 
L 684.863941 193.228194 
L 685.536796 178.022682 
L 686.209651 183.091186 
L 687.555362 213.50221 
L 688.228217 218.570714 
L 688.901072 213.50221 
L 689.573928 188.15969 
L 690.246783 167.885674 
L 692.265349 167.885674 
L 692.938204 183.091186 
L 693.611059 203.365202 
L 694.283914 208.433706 
L 694.956769 203.365202 
L 696.30248 183.091186 
L 696.975335 178.022682 
L 698.321046 188.15969 
L 698.993901 203.365202 
L 699.666756 213.50221 
L 701.012466 193.228194 
L 701.685322 198.296698 
L 702.358177 213.50221 
L 703.031032 213.50221 
L 704.376743 172.954178 
L 705.722453 183.091186 
L 706.395308 183.091186 
L 707.068164 193.228194 
L 707.741019 198.296698 
L 708.413874 193.228194 
L 709.086729 193.228194 
L 709.759584 198.296698 
L 710.43244 193.228194 
L 711.105295 183.091186 
L 712.451005 183.091186 
L 713.123861 178.022682 
L 713.796716 178.022682 
L 714.469571 183.091186 
L 715.815282 203.365202 
L 716.488137 203.365202 
L 717.833847 193.228194 
L 718.506702 183.091186 
L 719.179558 178.022682 
L 720.525268 178.022682 
L 721.870979 188.15969 
L 722.543834 183.091186 
L 723.889544 183.091186 
L 724.562399 198.296698 
M 758.205161 228.707722 
L 758.878016 248.981738 
L 759.550871 233.776226 
L 760.223727 198.296698 
L 760.896582 203.365202 
L 761.569437 218.570714 
L 762.242292 223.639218 
L 763.588003 223.639218 
L 764.260858 238.84473 
L 764.933713 228.707722 
L 765.606568 213.50221 
L 766.952279 213.50221 
L 768.297989 203.365202 
L 768.970845 213.50221 
L 769.6437 233.776226 
L 770.316555 248.981738 
L 770.98941 233.776226 
L 771.662265 228.707722 
L 772.335121 243.913234 
L 773.007976 248.981738 
L 773.680831 228.707722 
L 774.353686 193.228194 
L 775.026542 178.022682 
L 775.699397 198.296698 
L 776.372252 213.50221 
L 777.045107 208.433706 
L 778.390818 188.15969 
L 779.063673 198.296698 
L 779.736528 203.365202 
L 780.409383 198.296698 
L 781.082239 188.15969 
L 781.755094 183.091186 
L 782.427949 188.15969 
L 783.100804 198.296698 
L 783.77366 213.50221 
L 784.446515 218.570714 
L 785.11937 213.50221 
L 785.792225 213.50221 
L 786.46508 223.639218 
L 787.137936 228.707722 
L 788.483646 188.15969 
L 789.829357 238.84473 
L 790.502212 238.84473 
L 791.847922 208.433706 
L 792.520777 213.50221 
L 793.193633 223.639218 
L 793.866488 238.84473 
L 794.539343 238.84473 
L 795.212198 213.50221 
L 795.885054 198.296698 
L 797.230764 228.707722 
L 797.903619 228.707722 
L 798.576475 223.639218 
L 799.24933 208.433706 
L 799.922185 203.365202 
L 801.267895 223.639218 
L 801.940751 243.913234 
L 802.613606 248.981738 
L 803.286461 243.913234 
L 803.959316 233.776226 
L 804.632172 248.981738 
L 805.305027 259.118746 
L 805.977882 243.913234 
L 807.323592 178.022682 
L 807.996448 203.365202 
L 808.669303 223.639218 
L 810.015013 233.776226 
L 811.360724 223.639218 
L 812.033579 228.707722 
L 813.37929 259.118746 
L 814.052145 248.981738 
L 814.725 223.639218 
L 815.397855 213.50221 
L 816.743566 233.776226 
L 817.416421 223.639218 
L 818.762131 193.228194 
L 819.434987 203.365202 
L 820.107842 223.639218 
L 820.780697 223.639218 
L 822.126408 203.365202 
L 823.472118 223.639218 
L 824.144973 228.707722 
L 824.817828 238.84473 
L 825.490684 254.050242 
L 826.163539 248.981738 
L 826.836394 228.707722 
L 827.509249 218.570714 
L 830.20067 198.296698 
L 830.873525 188.15969 
L 831.546381 193.228194 
L 832.219236 218.570714 
L 833.564946 259.118746 
L 834.237802 259.118746 
L 834.910657 233.776226 
L 835.583512 218.570714 
L 836.256367 218.570714 
L 836.929223 228.707722 
L 837.602078 223.639218 
L 838.274933 208.433706 
L 838.947788 198.296698 
L 839.620643 193.228194 
L 840.293499 203.365202 
L 840.966354 223.639218 
L 841.639209 238.84473 
L 842.98492 238.84473 
L 843.657775 233.776226 
L 844.33063 238.84473 
L 845.003485 238.84473 
L 845.67634 218.570714 
L 846.349196 213.50221 
L 847.694906 223.639218 
L 849.040617 213.50221 
L 849.713472 218.570714 
L 850.386327 213.50221 
L 851.059182 213.50221 
L 851.732038 208.433706 
L 852.404893 208.433706 
L 853.077748 223.639218 
L 853.750603 223.639218 
L 855.769169 208.433706 
L 856.442024 218.570714 
L 857.114879 243.913234 
L 857.787735 254.050242 
L 858.46059 238.84473 
L 859.133445 218.570714 
L 859.8063 223.639218 
L 860.479155 233.776226 
L 861.152011 223.639218 
L 861.824866 203.365202 
L 862.497721 203.365202 
L 863.170576 218.570714 
L 863.843432 228.707722 
L 865.189142 208.433706 
L 865.861997 218.570714 
L 866.534853 218.570714 
L 867.207708 213.50221 
L 867.880563 198.296698 
L 868.553418 208.433706 
L 869.226273 238.84473 
L 869.899129 248.981738 
L 870.571984 243.913234 
L 871.917694 203.365202 
L 872.59055 198.296698 
L 873.93626 228.707722 
L 874.609115 238.84473 
L 875.281971 228.707722 
L 875.954826 208.433706 
L 876.627681 213.50221 
L 877.300536 213.50221 
L 877.973391 228.707722 
L 878.646247 228.707722 
L 879.319102 213.50221 
L 879.991957 223.639218 
L 881.337668 233.776226 
L 882.010523 223.639218 
L 882.683378 208.433706 
L 884.029088 238.84473 
L 884.701944 228.707722 
L 885.374799 208.433706 
L 886.047654 198.296698 
L 886.720509 213.50221 
L 887.393365 223.639218 
L 888.06622 218.570714 
L 888.739075 218.570714 
L 889.41193 213.50221 
L 890.757641 213.50221 
L 891.430496 208.433706 
L 892.103351 193.228194 
L 892.776206 183.091186 
L 894.121917 213.50221 
L 894.794772 218.570714 
L 895.467627 208.433706 
L 896.140483 203.365202 
L 897.486193 213.50221 
L 898.159048 223.639218 
L 898.831903 223.639218 
L 899.504759 203.365202 
L 900.177614 198.296698 
L 901.523324 228.707722 
L 902.19618 233.776226 
L 902.869035 223.639218 
L 904.214745 193.228194 
L 904.887601 183.091186 
L 905.560456 183.091186 
L 906.233311 213.50221 
L 906.906166 233.776226 
L 907.579021 223.639218 
L 908.251877 198.296698 
L 908.924732 188.15969 
L 909.597587 213.50221 
L 910.270442 223.639218 
L 910.943298 218.570714 
L 911.616153 218.570714 
L 912.961863 248.981738 
L 913.634718 238.84473 
L 914.307574 223.639218 
L 914.980429 238.84473 
L 915.653284 248.981738 
L 916.326139 228.707722 
L 916.998995 213.50221 
L 917.67185 208.433706 
L 918.344705 218.570714 
L 919.01756 218.570714 
L 919.690416 223.639218 
L 920.363271 233.776226 
L 921.708981 213.50221 
L 922.381836 213.50221 
L 923.054692 223.639218 
L 923.727547 228.707722 
L 924.400402 228.707722 
L 925.073257 213.50221 
L 925.746113 213.50221 
L 926.418968 228.707722 
L 927.091823 233.776226 
L 927.764678 218.570714 
L 928.437534 198.296698 
L 929.110389 193.228194 
L 929.783244 193.228194 
L 930.456099 188.15969 
L 931.128954 188.15969 
L 931.80181 213.50221 
L 932.474665 228.707722 
L 933.14752 218.570714 
L 933.820375 193.228194 
L 934.493231 183.091186 
L 935.166086 193.228194 
L 935.838941 213.50221 
L 936.511796 218.570714 
L 937.857507 188.15969 
L 938.530362 193.228194 
L 939.203217 213.50221 
L 940.548928 233.776226 
L 941.894638 233.776226 
L 942.567493 228.707722 
L 943.240349 228.707722 
L 943.913204 233.776226 
L 944.586059 223.639218 
L 945.258914 228.707722 
L 945.931769 228.707722 
L 946.604625 223.639218 
L 947.27748 208.433706 
L 947.950335 203.365202 
L 948.62319 228.707722 
L 949.296046 233.776226 
L 949.968901 218.570714 
L 950.641756 193.228194 
L 951.314611 183.091186 
L 951.987466 218.570714 
L 952.660322 243.913234 
L 953.333177 254.050242 
L 954.006032 238.84473 
L 954.678887 228.707722 
L 955.351743 233.776226 
L 956.024598 218.570714 
L 956.697453 223.639218 
L 957.370308 218.570714 
L 959.388874 218.570714 
L 960.061729 233.776226 
L 960.734584 233.776226 
L 962.080295 223.639218 
L 962.75315 223.639218 
L 963.426005 213.50221 
L 964.098861 193.228194 
L 964.771716 198.296698 
L 965.444571 208.433706 
L 966.117426 208.433706 
L 966.790282 198.296698 
L 967.463137 193.228194 
L 968.135992 213.50221 
L 968.808847 223.639218 
L 969.481702 218.570714 
L 970.154558 208.433706 
L 970.827413 193.228194 
L 971.500268 193.228194 
L 972.173123 203.365202 
L 972.845979 208.433706 
L 974.191689 208.433706 
L 974.864544 203.365202 
L 976.88311 203.365202 
L 977.555965 208.433706 
L 978.22882 203.365202 
M 1009.853016 198.296698 
L 1010.525871 213.50221 
L 1011.198727 218.570714 
L 1011.871582 208.433706 
L 1012.544437 203.365202 
L 1013.217292 213.50221 
L 1013.890147 218.570714 
L 1014.563003 208.433706 
L 1015.235858 188.15969 
L 1015.908713 172.954178 
L 1016.581568 167.885674 
L 1017.254424 167.885674 
L 1018.600134 198.296698 
L 1019.272989 208.433706 
L 1019.945845 208.433706 
L 1020.6187 203.365202 
L 1021.291555 208.433706 
L 1021.96441 223.639218 
L 1022.637265 243.913234 
L 1023.310121 243.913234 
L 1023.982976 223.639218 
L 1024.655831 198.296698 
L 1026.001542 208.433706 
L 1028.020107 178.022682 
L 1029.365818 188.15969 
L 1032.057239 188.15969 
L 1034.74866 208.433706 
L 1036.09437 208.433706 
L 1038.112936 178.022682 
L 1038.785791 178.022682 
L 1039.458646 193.228194 
L 1040.131501 203.365202 
L 1040.804357 208.433706 
L 1041.477212 203.365202 
L 1042.150067 193.228194 
L 1042.822922 193.228194 
L 1043.495777 203.365202 
L 1044.841488 193.228194 
L 1045.514343 198.296698 
L 1046.187198 193.228194 
L 1049.551475 193.228194 
L 1050.22433 198.296698 
L 1050.897185 208.433706 
L 1051.57004 213.50221 
L 1054.261461 213.50221 
L 1054.934316 208.433706 
L 1056.280027 188.15969 
L 1057.625737 178.022682 
L 1058.298592 178.022682 
L 1058.971448 188.15969 
L 1059.644303 203.365202 
L 1060.317158 208.433706 
L 1060.990013 208.433706 
L 1062.335724 198.296698 
L 1063.008579 208.433706 
L 1063.681434 213.50221 
L 1065.027145 193.228194 
L 1065.7 188.15969 
L 1066.372855 193.228194 
L 1066.372855 193.228194 
" style="fill:none;stroke:#000000;stroke-linecap:square;stroke-opacity:0.4;stroke-width:1.5;"/>
   </g>
   <g id="patch_9">
    <path d="M 61.8 324.245365 
L 61.8 31.8 
" style="fill:none;stroke:#000000;stroke-linecap:square;stroke-linejoin:miter;stroke-width:0.8;"/>
   </g>
   <g id="patch_10">
    <path d="M 1065.7 324.245365 
L 1065.7 31.8 
" style="fill:none;stroke:#000000;stroke-linecap:square;stroke-linejoin:miter;stroke-width:0.8;"/>
   </g>
   <g id="patch_11">
    <path d="M 61.8 324.245365 
L 1065.7 324.245365 
" style="fill:none;stroke:#000000;stroke-linecap:square;stroke-linejoin:miter;stroke-width:0.8;"/>
   </g>
   <g id="patch_12">
    <path d="M 61.8 31.8 
L 1065.7 31.8 
" style="fill:none;stroke:#000000;stroke-linecap:square;stroke-linejoin:miter;stroke-width:0.8;"/>
   </g>
   <g id="text_10">
    <!-- GAP -->
    <defs>
     <path d="M 59.515625 10.40625 
L 59.515625 29.984375 
L 43.40625 29.984375 
L 43.40625 38.09375 
L 69.28125 38.09375 
L 69.28125 6.78125 
Q 63.578125 2.734375 56.6875 0.65625 
Q 49.8125 -1.421875 42 -1.421875 
Q 24.90625 -1.421875 15.25 8.5625 
Q 5.609375 18.5625 5.609375 36.375 
Q 5.609375 54.25 15.25 64.234375 
Q 24.90625 74.21875 42 74.21875 
Q 49.125 74.21875 55.546875 72.453125 
Q 61.96875 70.703125 67.390625 67.28125 
L 67.390625 56.78125 
Q 61.921875 61.421875 55.765625 63.765625 
Q 49.609375 66.109375 42.828125 66.109375 
Q 29.4375 66.109375 22.71875 58.640625 
Q 16.015625 51.171875 16.015625 36.375 
Q 16.015625 21.625 22.71875 14.15625 
Q 29.4375 6.6875 42.828125 6.6875 
Q 48.046875 6.6875 52.140625 7.59375 
Q 56.25 8.5 59.515625 10.40625 
z
" id="DejaVuSans-71"/>
     <path d="M 34.1875 63.1875 
L 20.796875 26.90625 
L 47.609375 26.90625 
z
M 28.609375 72.90625 
L 39.796875 72.90625 
L 67.578125 0 
L 57.328125 0 
L 50.6875 18.703125 
L 17.828125 18.703125 
L 11.1875 0 
L 0.78125 0 
z
" id="DejaVuSans-65"/>
     <path d="M 19.671875 64.796875 
L 19.671875 37.40625 
L 32.078125 37.40625 
Q 38.96875 37.40625 42.71875 40.96875 
Q 46.484375 44.53125 46.484375 51.125 
Q 46.484375 57.671875 42.71875 61.234375 
Q 38.96875 64.796875 32.078125 64.796875 
z
M 9.8125 72.90625 
L 32.078125 72.90625 
Q 44.34375 72.90625 50.609375 67.359375 
Q 56.890625 61.8125 56.890625 51.125 
Q 56.890625 40.328125 50.609375 34.8125 
Q 44.34375 29.296875 32.078125 29.296875 
L 19.671875 29.296875 
L 19.671875 0 
L 9.8125 0 
z
" id="DejaVuSans-80"/>
    </defs>
    <g style="opacity:0.5;" transform="translate(416.406313 67.404703)scale(0.15 -0.15)">
     <use xlink:href="#DejaVuSans-71"/>
     <use x="77.490234" xlink:href="#DejaVuSans-65"/>
     <use x="145.898438" xlink:href="#DejaVuSans-80"/>
    </g>
   </g>
   <g id="text_11">
    <!-- FIXATION -->
    <defs>
     <path d="M 9.8125 72.90625 
L 51.703125 72.90625 
L 51.703125 64.59375 
L 19.671875 64.59375 
L 19.671875 43.109375 
L 48.578125 43.109375 
L 48.578125 34.8125 
L 19.671875 34.8125 
L 19.671875 0 
L 9.8125 0 
z
" id="DejaVuSans-70"/>
     <path d="M 9.8125 72.90625 
L 19.671875 72.90625 
L 19.671875 0 
L 9.8125 0 
z
" id="DejaVuSans-73"/>
     <path d="M 6.296875 72.90625 
L 16.890625 72.90625 
L 35.015625 45.796875 
L 53.21875 72.90625 
L 63.8125 72.90625 
L 40.375 37.890625 
L 65.375 0 
L 54.78125 0 
L 34.28125 31 
L 13.625 0 
L 2.984375 0 
L 29 38.921875 
z
" id="DejaVuSans-88"/>
     <path d="M 39.40625 66.21875 
Q 28.65625 66.21875 22.328125 58.203125 
Q 16.015625 50.203125 16.015625 36.375 
Q 16.015625 22.609375 22.328125 14.59375 
Q 28.65625 6.59375 39.40625 6.59375 
Q 50.140625 6.59375 56.421875 14.59375 
Q 62.703125 22.609375 62.703125 36.375 
Q 62.703125 50.203125 56.421875 58.203125 
Q 50.140625 66.21875 39.40625 66.21875 
z
M 39.40625 74.21875 
Q 54.734375 74.21875 63.90625 63.9375 
Q 73.09375 53.65625 73.09375 36.375 
Q 73.09375 19.140625 63.90625 8.859375 
Q 54.734375 -1.421875 39.40625 -1.421875 
Q 24.03125 -1.421875 14.8125 8.828125 
Q 5.609375 19.09375 5.609375 36.375 
Q 5.609375 53.65625 14.8125 63.9375 
Q 24.03125 74.21875 39.40625 74.21875 
z
" id="DejaVuSans-79"/>
     <path d="M 9.8125 72.90625 
L 23.09375 72.90625 
L 55.421875 11.921875 
L 55.421875 72.90625 
L 64.984375 72.90625 
L 64.984375 0 
L 51.703125 0 
L 19.390625 60.984375 
L 19.390625 0 
L 9.8125 0 
z
" id="DejaVuSans-78"/>
    </defs>
    <g style="opacity:0.5;" transform="translate(161.276905 67.404703)scale(0.15 -0.15)">
     <use xlink:href="#DejaVuSans-70"/>
     <use x="57.519531" xlink:href="#DejaVuSans-73"/>
     <use x="87.011719" xlink:href="#DejaVuSans-88"/>
     <use x="155.517578" xlink:href="#DejaVuSans-65"/>
     <use x="223.816406" xlink:href="#DejaVuSans-84"/>
     <use x="284.900391" xlink:href="#DejaVuSans-73"/>
     <use x="314.392578" xlink:href="#DejaVuSans-79"/>
     <use x="393.103516" xlink:href="#DejaVuSans-78"/>
    </g>
   </g>
   <g id="text_12">
    <!-- PURSUIT -->
    <defs>
     <path d="M 8.6875 72.90625 
L 18.609375 72.90625 
L 18.609375 28.609375 
Q 18.609375 16.890625 22.84375 11.734375 
Q 27.09375 6.59375 36.625 6.59375 
Q 46.09375 6.59375 50.34375 11.734375 
Q 54.59375 16.890625 54.59375 28.609375 
L 54.59375 72.90625 
L 64.5 72.90625 
L 64.5 27.390625 
Q 64.5 13.140625 57.4375 5.859375 
Q 50.390625 -1.421875 36.625 -1.421875 
Q 22.796875 -1.421875 15.734375 5.859375 
Q 8.6875 13.140625 8.6875 27.390625 
z
" id="DejaVuSans-85"/>
     <path d="M 44.390625 34.1875 
Q 47.5625 33.109375 50.5625 29.59375 
Q 53.5625 26.078125 56.59375 19.921875 
L 66.609375 0 
L 56 0 
L 46.6875 18.703125 
Q 43.0625 26.03125 39.671875 28.421875 
Q 36.28125 30.8125 30.421875 30.8125 
L 19.671875 30.8125 
L 19.671875 0 
L 9.8125 0 
L 9.8125 72.90625 
L 32.078125 72.90625 
Q 44.578125 72.90625 50.734375 67.671875 
Q 56.890625 62.453125 56.890625 51.90625 
Q 56.890625 45.015625 53.6875 40.46875 
Q 50.484375 35.9375 44.390625 34.1875 
z
M 19.671875 64.796875 
L 19.671875 38.921875 
L 32.078125 38.921875 
Q 39.203125 38.921875 42.84375 42.21875 
Q 46.484375 45.515625 46.484375 51.90625 
Q 46.484375 58.296875 42.84375 61.546875 
Q 39.203125 64.796875 32.078125 64.796875 
z
" id="DejaVuSans-82"/>
     <path d="M 53.515625 70.515625 
L 53.515625 60.890625 
Q 47.90625 63.578125 42.921875 64.890625 
Q 37.9375 66.21875 33.296875 66.21875 
Q 25.25 66.21875 20.875 63.09375 
Q 16.5 59.96875 16.5 54.203125 
Q 16.5 49.359375 19.40625 46.890625 
Q 22.3125 44.4375 30.421875 42.921875 
L 36.375 41.703125 
Q 47.40625 39.59375 52.65625 34.296875 
Q 57.90625 29 57.90625 20.125 
Q 57.90625 9.515625 50.796875 4.046875 
Q 43.703125 -1.421875 29.984375 -1.421875 
Q 24.8125 -1.421875 18.96875 -0.25 
Q 13.140625 0.921875 6.890625 3.21875 
L 6.890625 13.375 
Q 12.890625 10.015625 18.65625 8.296875 
Q 24.421875 6.59375 29.984375 6.59375 
Q 38.421875 6.59375 43.015625 9.90625 
Q 47.609375 13.234375 47.609375 19.390625 
Q 47.609375 24.75 44.3125 27.78125 
Q 41.015625 30.8125 33.5 32.328125 
L 27.484375 33.5 
Q 16.453125 35.6875 11.515625 40.375 
Q 6.59375 45.0625 6.59375 53.421875 
Q 6.59375 63.09375 13.40625 68.65625 
Q 20.21875 74.21875 32.171875 74.21875 
Q 37.3125 74.21875 42.625 73.28125 
Q 47.953125 72.359375 53.515625 70.515625 
z
" id="DejaVuSans-83"/>
    </defs>
    <g style="opacity:0.5;" transform="translate(763.618647 67.404703)scale(0.15 -0.15)">
     <use xlink:href="#DejaVuSans-80"/>
     <use x="60.302734" xlink:href="#DejaVuSans-85"/>
     <use x="133.496094" xlink:href="#DejaVuSans-82"/>
     <use x="202.978516" xlink:href="#DejaVuSans-83"/>
     <use x="266.455078" xlink:href="#DejaVuSans-85"/>
     <use x="339.648438" xlink:href="#DejaVuSans-73"/>
     <use x="369.140625" xlink:href="#DejaVuSans-84"/>
    </g>
   </g>
   <g id="text_13">
    <!-- Eye Movement -->
    <defs>
     <path d="M 9.8125 72.90625 
L 55.90625 72.90625 
L 55.90625 64.59375 
L 19.671875 64.59375 
L 19.671875 43.015625 
L 54.390625 43.015625 
L 54.390625 34.71875 
L 19.671875 34.71875 
L 19.671875 8.296875 
L 56.78125 8.296875 
L 56.78125 0 
L 9.8125 0 
z
" id="DejaVuSans-69"/>
     <path d="M 9.8125 72.90625 
L 24.515625 72.90625 
L 43.109375 23.296875 
L 61.8125 72.90625 
L 76.515625 72.90625 
L 76.515625 0 
L 66.890625 0 
L 66.890625 64.015625 
L 48.09375 14.015625 
L 38.1875 14.015625 
L 19.390625 64.015625 
L 19.390625 0 
L 9.8125 0 
z
" id="DejaVuSans-77"/>
     <path d="M 2.984375 54.6875 
L 12.5 54.6875 
L 29.59375 8.796875 
L 46.6875 54.6875 
L 56.203125 54.6875 
L 35.6875 0 
L 23.484375 0 
z
" id="DejaVuSans-118"/>
     <path d="M 54.890625 33.015625 
L 54.890625 0 
L 45.90625 0 
L 45.90625 32.71875 
Q 45.90625 40.484375 42.875 44.328125 
Q 39.84375 48.1875 33.796875 48.1875 
Q 26.515625 48.1875 22.3125 43.546875 
Q 18.109375 38.921875 18.109375 30.90625 
L 18.109375 0 
L 9.078125 0 
L 9.078125 54.6875 
L 18.109375 54.6875 
L 18.109375 46.1875 
Q 21.34375 51.125 25.703125 53.5625 
Q 30.078125 56 35.796875 56 
Q 45.21875 56 50.046875 50.171875 
Q 54.890625 44.34375 54.890625 33.015625 
z
" id="DejaVuSans-110"/>
    </defs>
    <g transform="translate(489.210938 25.8)scale(0.2 -0.2)">
     <use xlink:href="#DejaVuSans-69"/>
     <use x="63.183594" xlink:href="#DejaVuSans-121"/>
     <use x="122.363281" xlink:href="#DejaVuSans-101"/>
     <use x="183.886719" xlink:href="#DejaVuSans-32"/>
     <use x="215.673828" xlink:href="#DejaVuSans-77"/>
     <use x="301.953125" xlink:href="#DejaVuSans-111"/>
     <use x="363.134766" xlink:href="#DejaVuSans-118"/>
     <use x="422.314453" xlink:href="#DejaVuSans-101"/>
     <use x="483.837891" xlink:href="#DejaVuSans-109"/>
     <use x="581.25" xlink:href="#DejaVuSans-101"/>
     <use x="642.773438" xlink:href="#DejaVuSans-110"/>
     <use x="706.152344" xlink:href="#DejaVuSans-116"/>
    </g>
   </g>
  </g>
  <g id="axes_2">
   <g id="patch_13">
    <path d="M 61.8 616.690729 
L 1065.7 616.690729 
L 1065.7 324.245365 
L 61.8 324.245365 
z
" style="fill:#ffffff;"/>
   </g>
   <g id="patch_14">
    <path clip-path="url(#p995a8bb32f)" d="M -231.564879 616.690729 
L -231.564879 324.245365 
L 330.942091 324.245365 
L 330.942091 616.690729 
z
" style="opacity:0.2;stroke:#000000;stroke-linejoin:miter;"/>
   </g>
   <g id="patch_15">
    <path clip-path="url(#p995a8bb32f)" d="M 330.942091 616.690729 
L 330.942091 324.245365 
L 532.79866 324.245365 
L 532.79866 616.690729 
z
" style="fill:#ff0000;opacity:0.2;stroke:#ff0000;stroke-linejoin:miter;"/>
   </g>
   <g id="patch_16">
    <path clip-path="url(#p995a8bb32f)" d="M 532.79866 616.690729 
L 532.79866 324.245365 
L 1058.971448 324.245365 
L 1058.971448 616.690729 
z
" style="opacity:0.15;stroke:#000000;stroke-linejoin:miter;"/>
   </g>
   <g id="patch_17">
    <path clip-path="url(#p995a8bb32f)" d="M -208.687802 616.690729 
L -208.687802 324.245365 
L -198.594973 324.245365 
L -198.594973 616.690729 
z
" style="opacity:0.15;stroke:#000000;stroke-linejoin:miter;"/>
   </g>
   <g id="patch_18">
    <path clip-path="url(#p995a8bb32f)" d="M -86.901005 616.690729 
L -86.901005 324.245365 
L -62.678217 324.245365 
L -62.678217 616.690729 
z
" style="opacity:0.15;stroke:#000000;stroke-linejoin:miter;"/>
   </g>
   <g id="patch_19">
    <path clip-path="url(#p995a8bb32f)" d="M 217.229558 616.690729 
L 217.229558 324.245365 
L 242.798056 324.245365 
L 242.798056 616.690729 
z
" style="opacity:0.15;stroke:#000000;stroke-linejoin:miter;"/>
   </g>
   <g id="patch_20">
    <path clip-path="url(#p995a8bb32f)" d="M 369.967694 616.690729 
L 369.967694 324.245365 
L 380.060523 324.245365 
L 380.060523 616.690729 
z
" style="opacity:0.15;stroke:#000000;stroke-linejoin:miter;"/>
   </g>
   <g id="patch_21">
    <path clip-path="url(#p995a8bb32f)" d="M 602.102748 616.690729 
L 602.102748 324.245365 
L 628.344102 324.245365 
L 628.344102 616.690729 
z
" style="opacity:0.15;stroke:#000000;stroke-linejoin:miter;"/>
   </g>
   <g id="patch_22">
    <path clip-path="url(#p995a8bb32f)" d="M 803.959316 616.690729 
L 803.959316 324.245365 
L 818.762131 324.245365 
L 818.762131 616.690729 
z
" style="opacity:0.15;stroke:#000000;stroke-linejoin:miter;"/>
   </g>
   <g id="patch_23">
    <path clip-path="url(#p995a8bb32f)" d="M 980.920241 616.690729 
L 980.920241 324.245365 
L 996.395912 324.245365 
L 996.395912 616.690729 
z
" style="opacity:0.15;stroke:#000000;stroke-linejoin:miter;"/>
   </g>
   <g id="matplotlib.axis_3">
    <g id="xtick_8">
     <g id="line2d_16">
      <g>
       <use style="stroke:#000000;stroke-width:0.8;" x="129.085523" xlink:href="#m856fc4be1d" y="616.690729"/>
      </g>
     </g>
     <g id="text_14">
      <!-- −600 -->
      <defs>
       <path d="M 33.015625 40.375 
Q 26.375 40.375 22.484375 35.828125 
Q 18.609375 31.296875 18.609375 23.390625 
Q 18.609375 15.53125 22.484375 10.953125 
Q 26.375 6.390625 33.015625 6.390625 
Q 39.65625 6.390625 43.53125 10.953125 
Q 47.40625 15.53125 47.40625 23.390625 
Q 47.40625 31.296875 43.53125 35.828125 
Q 39.65625 40.375 33.015625 40.375 
z
M 52.59375 71.296875 
L 52.59375 62.3125 
Q 48.875 64.0625 45.09375 64.984375 
Q 41.3125 65.921875 37.59375 65.921875 
Q 27.828125 65.921875 22.671875 59.328125 
Q 17.53125 52.734375 16.796875 39.40625 
Q 19.671875 43.65625 24.015625 45.921875 
Q 28.375 48.1875 33.59375 48.1875 
Q 44.578125 48.1875 50.953125 41.515625 
Q 57.328125 34.859375 57.328125 23.390625 
Q 57.328125 12.15625 50.6875 5.359375 
Q 44.046875 -1.421875 33.015625 -1.421875 
Q 20.359375 -1.421875 13.671875 8.265625 
Q 6.984375 17.96875 6.984375 36.375 
Q 6.984375 53.65625 15.1875 63.9375 
Q 23.390625 74.21875 37.203125 74.21875 
Q 40.921875 74.21875 44.703125 73.484375 
Q 48.484375 72.75 52.59375 71.296875 
z
" id="DejaVuSans-54"/>
      </defs>
      <g transform="translate(115.351929 631.289167)scale(0.1 -0.1)">
       <use xlink:href="#DejaVuSans-8722"/>
       <use x="83.789062" xlink:href="#DejaVuSans-54"/>
       <use x="147.412109" xlink:href="#DejaVuSans-48"/>
       <use x="211.035156" xlink:href="#DejaVuSans-48"/>
      </g>
     </g>
    </g>
    <g id="xtick_9">
     <g id="line2d_17">
      <g>
       <use style="stroke:#000000;stroke-width:0.8;" x="263.656568" xlink:href="#m856fc4be1d" y="616.690729"/>
      </g>
     </g>
     <g id="text_15">
      <!-- −400 -->
      <defs>
       <path d="M 37.796875 64.3125 
L 12.890625 25.390625 
L 37.796875 25.390625 
z
M 35.203125 72.90625 
L 47.609375 72.90625 
L 47.609375 25.390625 
L 58.015625 25.390625 
L 58.015625 17.1875 
L 47.609375 17.1875 
L 47.609375 0 
L 37.796875 0 
L 37.796875 17.1875 
L 4.890625 17.1875 
L 4.890625 26.703125 
z
" id="DejaVuSans-52"/>
      </defs>
      <g transform="translate(249.922975 631.289167)scale(0.1 -0.1)">
       <use xlink:href="#DejaVuSans-8722"/>
       <use x="83.789062" xlink:href="#DejaVuSans-52"/>
       <use x="147.412109" xlink:href="#DejaVuSans-48"/>
       <use x="211.035156" xlink:href="#DejaVuSans-48"/>
      </g>
     </g>
    </g>
    <g id="xtick_10">
     <g id="line2d_18">
      <g>
       <use style="stroke:#000000;stroke-width:0.8;" x="398.227614" xlink:href="#m856fc4be1d" y="616.690729"/>
      </g>
     </g>
     <g id="text_16">
      <!-- −200 -->
      <g transform="translate(384.49402 631.289167)scale(0.1 -0.1)">
       <use xlink:href="#DejaVuSans-8722"/>
       <use x="83.789062" xlink:href="#DejaVuSans-50"/>
       <use x="147.412109" xlink:href="#DejaVuSans-48"/>
       <use x="211.035156" xlink:href="#DejaVuSans-48"/>
      </g>
     </g>
    </g>
    <g id="xtick_11">
     <g id="line2d_19">
      <g>
       <use style="stroke:#000000;stroke-width:0.8;" x="532.79866" xlink:href="#m856fc4be1d" y="616.690729"/>
      </g>
     </g>
     <g id="text_17">
      <!-- 0 -->
      <g transform="translate(529.61741 631.289167)scale(0.1 -0.1)">
       <use xlink:href="#DejaVuSans-48"/>
      </g>
     </g>
    </g>
    <g id="xtick_12">
     <g id="line2d_20">
      <g>
       <use style="stroke:#000000;stroke-width:0.8;" x="667.369705" xlink:href="#m856fc4be1d" y="616.690729"/>
      </g>
     </g>
     <g id="text_18">
      <!-- 200 -->
      <g transform="translate(657.825955 631.289167)scale(0.1 -0.1)">
       <use xlink:href="#DejaVuSans-50"/>
       <use x="63.623047" xlink:href="#DejaVuSans-48"/>
       <use x="127.246094" xlink:href="#DejaVuSans-48"/>
      </g>
     </g>
    </g>
    <g id="xtick_13">
     <g id="line2d_21">
      <g>
       <use style="stroke:#000000;stroke-width:0.8;" x="801.940751" xlink:href="#m856fc4be1d" y="616.690729"/>
      </g>
     </g>
     <g id="text_19">
      <!-- 400 -->
      <g transform="translate(792.397001 631.289167)scale(0.1 -0.1)">
       <use xlink:href="#DejaVuSans-52"/>
       <use x="63.623047" xlink:href="#DejaVuSans-48"/>
       <use x="127.246094" xlink:href="#DejaVuSans-48"/>
      </g>
     </g>
    </g>
    <g id="xtick_14">
     <g id="line2d_22">
      <g>
       <use style="stroke:#000000;stroke-width:0.8;" x="936.511796" xlink:href="#m856fc4be1d" y="616.690729"/>
      </g>
     </g>
     <g id="text_20">
      <!-- 600 -->
      <g transform="translate(926.968046 631.289167)scale(0.1 -0.1)">
       <use xlink:href="#DejaVuSans-54"/>
       <use x="63.623047" xlink:href="#DejaVuSans-48"/>
       <use x="127.246094" xlink:href="#DejaVuSans-48"/>
      </g>
     </g>
    </g>
    <g id="text_21">
     <!-- Time (ms) -->
     <g transform="translate(513.04375 652.565729)scale(0.2 -0.2)">
      <use xlink:href="#DejaVuSans-84"/>
      <use x="61.037109" xlink:href="#DejaVuSans-105"/>
      <use x="88.820312" xlink:href="#DejaVuSans-109"/>
      <use x="186.232422" xlink:href="#DejaVuSans-101"/>
      <use x="247.755859" xlink:href="#DejaVuSans-32"/>
      <use x="279.542969" xlink:href="#DejaVuSans-40"/>
      <use x="318.556641" xlink:href="#DejaVuSans-109"/>
      <use x="415.96875" xlink:href="#DejaVuSans-115"/>
      <use x="468.068359" xlink:href="#DejaVuSans-41"/>
     </g>
    </g>
   </g>
   <g id="matplotlib.axis_4">
    <g id="ytick_8">
     <g id="line2d_23">
      <g>
       <use style="stroke:#000000;stroke-width:0.8;" x="61.8" xlink:href="#mdb553ed8e4" y="581.523249"/>
      </g>
     </g>
     <g id="text_22">
      <!-- −30 -->
      <g transform="translate(33.695312 585.322467)scale(0.1 -0.1)">
       <use xlink:href="#DejaVuSans-8722"/>
       <use x="83.789062" xlink:href="#DejaVuSans-51"/>
       <use x="147.412109" xlink:href="#DejaVuSans-48"/>
      </g>
     </g>
    </g>
    <g id="ytick_9">
     <g id="line2d_24">
      <g>
       <use style="stroke:#000000;stroke-width:0.8;" x="61.8" xlink:href="#mdb553ed8e4" y="544.504848"/>
      </g>
     </g>
     <g id="text_23">
      <!-- −20 -->
      <g transform="translate(33.695312 548.304067)scale(0.1 -0.1)">
       <use xlink:href="#DejaVuSans-8722"/>
       <use x="83.789062" xlink:href="#DejaVuSans-50"/>
       <use x="147.412109" xlink:href="#DejaVuSans-48"/>
      </g>
     </g>
    </g>
    <g id="ytick_10">
     <g id="line2d_25">
      <g>
       <use style="stroke:#000000;stroke-width:0.8;" x="61.8" xlink:href="#mdb553ed8e4" y="507.486448"/>
      </g>
     </g>
     <g id="text_24">
      <!-- −10 -->
      <g transform="translate(33.695312 511.285666)scale(0.1 -0.1)">
       <use xlink:href="#DejaVuSans-8722"/>
       <use x="83.789062" xlink:href="#DejaVuSans-49"/>
       <use x="147.412109" xlink:href="#DejaVuSans-48"/>
      </g>
     </g>
    </g>
    <g id="ytick_11">
     <g id="line2d_26">
      <g>
       <use style="stroke:#000000;stroke-width:0.8;" x="61.8" xlink:href="#mdb553ed8e4" y="470.468047"/>
      </g>
     </g>
     <g id="text_25">
      <!-- 0 -->
      <g transform="translate(48.4375 474.267266)scale(0.1 -0.1)">
       <use xlink:href="#DejaVuSans-48"/>
      </g>
     </g>
    </g>
    <g id="ytick_12">
     <g id="line2d_27">
      <g>
       <use style="stroke:#000000;stroke-width:0.8;" x="61.8" xlink:href="#mdb553ed8e4" y="433.449646"/>
      </g>
     </g>
     <g id="text_26">
      <!-- 10 -->
      <g transform="translate(42.075 437.248865)scale(0.1 -0.1)">
       <use xlink:href="#DejaVuSans-49"/>
       <use x="63.623047" xlink:href="#DejaVuSans-48"/>
      </g>
     </g>
    </g>
    <g id="ytick_13">
     <g id="line2d_28">
      <g>
       <use style="stroke:#000000;stroke-width:0.8;" x="61.8" xlink:href="#mdb553ed8e4" y="396.431246"/>
      </g>
     </g>
     <g id="text_27">
      <!-- 20 -->
      <g transform="translate(42.075 400.230465)scale(0.1 -0.1)">
       <use xlink:href="#DejaVuSans-50"/>
       <use x="63.623047" xlink:href="#DejaVuSans-48"/>
      </g>
     </g>
    </g>
    <g id="ytick_14">
     <g id="line2d_29">
      <g>
       <use style="stroke:#000000;stroke-width:0.8;" x="61.8" xlink:href="#mdb553ed8e4" y="359.412845"/>
      </g>
     </g>
     <g id="text_28">
      <!-- 30 -->
      <g transform="translate(42.075 363.212064)scale(0.1 -0.1)">
       <use xlink:href="#DejaVuSans-51"/>
       <use x="63.623047" xlink:href="#DejaVuSans-48"/>
      </g>
     </g>
    </g>
    <g id="text_29">
     <!-- Velocity (°/s) -->
     <g transform="translate(25.535937 535.022734)rotate(-90)scale(0.2 -0.2)">
      <use xlink:href="#DejaVuSans-86"/>
      <use x="68.298828" xlink:href="#DejaVuSans-101"/>
      <use x="129.822266" xlink:href="#DejaVuSans-108"/>
      <use x="157.605469" xlink:href="#DejaVuSans-111"/>
      <use x="218.787109" xlink:href="#DejaVuSans-99"/>
      <use x="273.767578" xlink:href="#DejaVuSans-105"/>
      <use x="301.550781" xlink:href="#DejaVuSans-116"/>
      <use x="340.759766" xlink:href="#DejaVuSans-121"/>
      <use x="399.939453" xlink:href="#DejaVuSans-32"/>
      <use x="431.726562" xlink:href="#DejaVuSans-40"/>
      <use x="470.740234" xlink:href="#DejaVuSans-176"/>
      <use x="520.740234" xlink:href="#DejaVuSans-47"/>
      <use x="554.431641" xlink:href="#DejaVuSans-115"/>
      <use x="606.53125" xlink:href="#DejaVuSans-41"/>
     </g>
    </g>
   </g>
   <g id="line2d_30">
    <path clip-path="url(#p995a8bb32f)" d="M 61.127145 480.605055 
L 61.8 480.605055 
L 62.472855 475.536551 
L 63.818566 475.536551 
L 64.491421 470.468047 
L 65.837131 470.468047 
L 66.509987 475.536551 
L 67.182842 475.536551 
L 67.855697 470.468047 
L 68.528552 470.468047 
L 69.201408 465.399543 
L 71.892828 465.399543 
L 72.565684 460.331039 
L 73.911394 440.057023 
L 74.584249 450.194031 
L 75.257105 465.399543 
L 76.602815 465.399543 
L 77.27567 470.468047 
L 77.948525 480.605055 
L 78.621381 485.673559 
L 79.294236 485.673559 
L 79.967091 480.605055 
L 80.639946 470.468047 
L 81.985657 440.057023 
L 82.658512 460.331039 
L 83.331367 485.673559 
L 84.004223 495.810567 
L 84.677078 485.673559 
L 85.349933 465.399543 
L 86.022788 460.331039 
L 86.695643 470.468047 
L 87.368499 485.673559 
L 88.041354 475.536551 
L 88.714209 455.262535 
L 89.387064 450.194031 
L 90.732775 480.605055 
L 91.40563 475.536551 
L 92.078485 465.399543 
L 92.75134 460.331039 
L 93.424196 470.468047 
L 94.097051 475.536551 
L 94.769906 475.536551 
L 95.442761 480.605055 
L 96.115617 475.536551 
L 98.134182 475.536551 
L 98.807038 480.605055 
L 99.479893 475.536551 
L 100.825603 475.536551 
L 103.517024 455.262535 
L 104.189879 455.262535 
L 106.208445 485.673559 
L 106.8813 485.673559 
L 110.245576 460.331039 
L 110.918432 465.399543 
L 111.591287 475.536551 
L 112.264142 475.536551 
L 113.609853 495.810567 
L 114.282708 480.605055 
L 114.955563 455.262535 
L 115.628418 440.057023 
L 116.301273 455.262535 
L 116.974129 480.605055 
L 117.646984 490.742063 
L 118.992694 470.468047 
L 120.338405 470.468047 
L 121.01126 475.536551 
L 122.356971 475.536551 
L 123.702681 445.125527 
L 124.375536 450.194031 
L 125.048391 460.331039 
L 125.721247 465.399543 
L 126.394102 465.399543 
L 127.739812 485.673559 
L 128.412668 490.742063 
L 129.758378 480.605055 
L 131.104088 490.742063 
L 131.776944 485.673559 
L 132.449799 475.536551 
L 133.122654 475.536551 
L 133.795509 485.673559 
L 134.468365 490.742063 
L 135.14122 490.742063 
L 135.814075 485.673559 
L 137.159786 465.399543 
L 137.832641 465.399543 
L 138.505496 470.468047 
L 139.178351 470.468047 
L 140.524062 450.194031 
L 141.196917 465.399543 
L 141.869772 485.673559 
L 142.542627 490.742063 
L 143.215483 480.605055 
L 143.888338 475.536551 
L 144.561193 475.536551 
L 145.234048 470.468047 
L 145.906903 470.468047 
L 146.579759 475.536551 
L 147.252614 475.536551 
L 147.925469 465.399543 
L 149.944035 450.194031 
L 151.289745 450.194031 
L 152.635456 460.331039 
L 153.308311 470.468047 
L 153.981166 485.673559 
L 154.654021 485.673559 
L 155.326877 475.536551 
L 155.999732 470.468047 
L 156.672587 470.468047 
L 159.364008 450.194031 
L 161.382574 465.399543 
L 162.728284 465.399543 
L 164.073995 485.673559 
L 164.74685 490.742063 
L 165.419705 485.673559 
L 166.09256 475.536551 
L 166.765416 470.468047 
L 167.438271 470.468047 
L 168.783981 460.331039 
L 170.129692 470.468047 
L 171.475402 450.194031 
L 172.148257 450.194031 
L 173.493968 480.605055 
L 174.839678 480.605055 
L 175.512534 485.673559 
L 176.185389 485.673559 
L 176.858244 480.605055 
L 177.531099 485.673559 
L 178.203954 480.605055 
L 178.87681 470.468047 
L 180.22252 460.331039 
L 181.568231 460.331039 
L 182.241086 465.399543 
L 183.586796 455.262535 
L 184.259651 460.331039 
L 184.932507 470.468047 
L 185.605362 485.673559 
L 186.278217 480.605055 
L 186.951072 470.468047 
L 187.623928 470.468047 
L 188.296783 475.536551 
L 188.969638 490.742063 
L 189.642493 495.810567 
L 190.315349 485.673559 
L 190.988204 470.468047 
L 191.661059 465.399543 
L 193.006769 475.536551 
L 193.679625 465.399543 
L 194.35248 450.194031 
L 195.025335 445.125527 
L 195.69819 460.331039 
L 196.371046 485.673559 
L 197.043901 485.673559 
L 199.062466 470.468047 
L 200.408177 480.605055 
L 201.081032 475.536551 
L 203.099598 475.536551 
L 204.445308 455.262535 
L 205.118164 455.262535 
L 205.791019 460.331039 
L 206.463874 475.536551 
L 207.809584 475.536551 
L 209.82815 490.742063 
L 210.501005 485.673559 
L 211.846716 485.673559 
L 213.192426 465.399543 
M 265.675134 445.125527 
L 266.347989 440.057023 
L 267.020845 445.125527 
L 267.6937 465.399543 
L 268.366555 480.605055 
L 269.712265 480.605055 
L 270.385121 485.673559 
L 271.730831 485.673559 
L 272.403686 480.605055 
L 273.076542 465.399543 
L 273.749397 465.399543 
L 274.422252 470.468047 
L 275.767962 460.331039 
L 276.440818 460.331039 
L 277.113673 465.399543 
L 277.786528 475.536551 
L 279.132239 475.536551 
L 279.805094 480.605055 
L 280.477949 480.605055 
L 281.82366 470.468047 
L 282.496515 470.468047 
L 283.16937 465.399543 
L 283.842225 465.399543 
L 284.51508 470.468047 
L 285.860791 470.468047 
L 286.533646 475.536551 
L 287.206501 475.536551 
L 287.879357 460.331039 
L 288.552212 455.262535 
L 289.897922 475.536551 
L 290.570777 475.536551 
L 291.243633 465.399543 
L 291.916488 460.331039 
L 293.262198 470.468047 
L 293.935054 470.468047 
L 296.626475 490.742063 
L 297.29933 485.673559 
L 297.972185 465.399543 
L 298.64504 450.194031 
L 299.317895 450.194031 
L 300.663606 470.468047 
L 301.336461 470.468047 
L 302.009316 465.399543 
L 302.682172 465.399543 
L 303.355027 475.536551 
L 304.027882 480.605055 
L 305.373592 450.194031 
L 306.046448 455.262535 
L 306.719303 475.536551 
L 307.392158 490.742063 
L 308.737869 480.605055 
L 309.410724 480.605055 
L 310.083579 475.536551 
L 310.756434 475.536551 
L 312.102145 485.673559 
L 312.775 485.673559 
L 313.447855 475.536551 
L 314.793566 465.399543 
L 316.139276 475.536551 
L 316.812131 470.468047 
L 317.484987 475.536551 
L 318.830697 475.536551 
L 319.503552 480.605055 
L 320.176408 495.810567 
L 320.849263 505.947575 
L 321.522118 500.879071 
L 322.194973 470.468047 
L 322.867828 434.988519 
L 323.540684 440.057023 
L 324.213539 475.536551 
L 324.886394 500.879071 
L 326.232105 470.468047 
L 330.269236 470.468047 
L 330.942091 465.399543 
L 331.614946 475.536551 
L 332.287802 490.742063 
L 332.960657 490.742063 
L 333.633512 475.536551 
L 334.306367 465.399543 
L 335.652078 475.536551 
L 336.997788 475.536551 
L 337.670643 470.468047 
L 338.343499 460.331039 
L 339.016354 455.262535 
L 339.689209 460.331039 
L 340.362064 460.331039 
L 341.03492 455.262535 
L 342.38063 505.947575 
L 343.053485 505.947575 
L 343.72634 475.536551 
L 344.399196 455.262535 
L 345.072051 460.331039 
L 345.744906 470.468047 
L 347.090617 470.468047 
L 347.763472 480.605055 
L 348.436327 475.536551 
L 349.109182 475.536551 
L 349.782038 480.605055 
L 351.127748 470.468047 
L 353.146314 485.673559 
L 353.819169 485.673559 
L 354.492024 475.536551 
L 355.164879 470.468047 
L 355.837735 460.331039 
L 356.51059 455.262535 
L 357.183445 465.399543 
L 357.8563 465.399543 
L 358.529155 470.468047 
L 359.202011 480.605055 
L 359.874866 480.605055 
L 360.547721 475.536551 
L 361.220576 465.399543 
L 361.893432 460.331039 
L 362.566287 465.399543 
L 363.911997 465.399543 
L 364.584853 485.673559 
L 365.257708 500.879071 
L 365.930563 500.879071 
M 406.974732 450.194031 
L 407.647587 465.399543 
L 408.320442 475.536551 
L 408.993298 470.468047 
L 411.011863 470.468047 
L 411.684718 475.536551 
L 413.030429 495.810567 
L 414.376139 495.810567 
L 415.048995 500.879071 
L 415.72185 500.879071 
L 417.06756 470.468047 
L 418.413271 450.194031 
L 419.086126 455.262535 
L 419.758981 480.605055 
L 420.431836 495.810567 
L 421.777547 475.536551 
L 423.123257 475.536551 
L 423.796113 470.468047 
L 425.141823 480.605055 
L 425.814678 480.605055 
L 426.487534 470.468047 
L 427.160389 465.399543 
L 427.833244 470.468047 
L 428.506099 480.605055 
L 429.178954 485.673559 
L 429.85181 475.536551 
L 430.524665 475.536551 
L 431.870375 485.673559 
L 432.543231 485.673559 
L 433.216086 480.605055 
L 434.561796 480.605055 
L 435.234651 475.536551 
L 435.907507 465.399543 
L 437.926072 465.399543 
L 438.598928 470.468047 
L 439.271783 470.468047 
L 439.944638 465.399543 
L 441.963204 465.399543 
L 443.308914 475.536551 
L 443.981769 475.536551 
L 446.000335 460.331039 
L 447.346046 460.331039 
L 448.018901 465.399543 
L 449.364611 465.399543 
L 450.037466 475.536551 
L 450.710322 475.536551 
L 451.383177 470.468047 
L 452.728887 480.605055 
L 453.401743 475.536551 
L 454.074598 485.673559 
L 454.747453 505.947575 
L 455.420308 511.016079 
L 456.093164 495.810567 
L 456.766019 470.468047 
L 457.438874 455.262535 
L 458.111729 455.262535 
L 458.784584 460.331039 
L 459.45744 460.331039 
L 460.130295 465.399543 
L 461.476005 455.262535 
L 462.148861 455.262535 
L 462.821716 465.399543 
L 463.494571 485.673559 
L 464.167426 490.742063 
L 464.840282 490.742063 
L 465.513137 500.879071 
L 466.185992 505.947575 
L 466.858847 505.947575 
L 468.204558 485.673559 
L 470.223123 485.673559 
L 470.895979 480.605055 
L 472.241689 460.331039 
L 472.914544 465.399543 
L 473.587399 500.879071 
L 474.260255 526.221591 
L 474.93311 526.221591 
L 475.605965 500.879071 
L 476.27882 470.468047 
L 476.951676 475.536551 
L 477.624531 475.536551 
L 478.297386 480.605055 
L 478.970241 490.742063 
L 480.315952 470.468047 
L 480.988807 475.536551 
L 481.661662 475.536551 
L 482.334517 470.468047 
L 483.007373 475.536551 
L 483.680228 475.536551 
L 485.025938 445.125527 
L 485.698794 455.262535 
L 486.371649 475.536551 
L 487.044504 480.605055 
L 488.390214 470.468047 
L 489.06307 480.605055 
L 491.081635 495.810567 
L 493.773056 455.262535 
L 494.445912 450.194031 
L 495.118767 465.399543 
L 495.791622 475.536551 
L 496.464477 470.468047 
L 497.137332 470.468047 
L 498.483043 490.742063 
L 499.155898 495.810567 
L 499.828753 490.742063 
L 500.501609 475.536551 
L 501.174464 470.468047 
L 501.847319 475.536551 
L 502.520174 475.536551 
L 503.193029 470.468047 
L 503.865885 475.536551 
L 504.53874 475.536551 
L 505.88445 465.399543 
L 506.557306 465.399543 
L 507.230161 470.468047 
L 507.903016 470.468047 
L 508.575871 465.399543 
L 509.921582 465.399543 
L 510.594437 470.468047 
L 511.267292 485.673559 
L 511.940147 485.673559 
L 513.285858 465.399543 
L 513.958713 465.399543 
L 514.631568 470.468047 
L 515.977279 470.468047 
L 517.322989 480.605055 
L 517.995845 470.468047 
L 518.6687 455.262535 
L 519.341555 450.194031 
L 520.687265 470.468047 
L 521.360121 470.468047 
L 522.705831 450.194031 
L 524.051542 460.331039 
L 524.724397 460.331039 
L 526.070107 450.194031 
L 526.742962 450.194031 
L 527.415818 455.262535 
L 528.088673 465.399543 
L 528.761528 465.399543 
L 530.107239 475.536551 
L 530.780094 475.536551 
L 531.452949 485.673559 
L 532.125804 485.673559 
L 532.79866 475.536551 
L 533.471515 470.468047 
L 534.14437 470.468047 
L 534.817225 465.399543 
L 535.49008 465.399543 
L 536.162936 470.468047 
L 536.835791 470.468047 
L 537.508646 465.399543 
L 538.181501 465.399543 
L 538.854357 470.468047 
L 539.527212 470.468047 
L 540.200067 475.536551 
L 540.872922 470.468047 
L 541.545777 460.331039 
L 542.218633 460.331039 
L 542.891488 475.536551 
L 544.237198 495.810567 
L 544.910054 500.879071 
L 545.582909 480.605055 
L 546.928619 450.194031 
L 547.601475 445.125527 
L 548.27433 455.262535 
L 548.947185 475.536551 
L 549.62004 490.742063 
L 550.292895 475.536551 
L 550.965751 455.262535 
L 551.638606 455.262535 
L 553.657172 470.468047 
L 554.330027 480.605055 
L 555.002882 500.879071 
L 555.675737 505.947575 
L 557.021448 455.262535 
L 557.694303 445.125527 
L 558.367158 455.262535 
L 559.040013 485.673559 
L 559.712869 495.810567 
L 560.385724 485.673559 
L 561.058579 470.468047 
L 561.731434 460.331039 
L 562.40429 470.468047 
L 563.077145 470.468047 
L 563.75 455.262535 
L 564.422855 455.262535 
L 565.09571 465.399543 
L 566.441421 475.536551 
L 567.114276 485.673559 
L 567.787131 475.536551 
L 568.459987 455.262535 
L 569.132842 460.331039 
L 569.805697 480.605055 
L 570.478552 490.742063 
L 571.824263 470.468047 
L 573.169973 480.605055 
L 573.842828 480.605055 
L 575.188539 460.331039 
L 576.534249 460.331039 
L 577.207105 455.262535 
L 577.87996 460.331039 
L 578.552815 480.605055 
L 579.22567 490.742063 
L 580.571381 470.468047 
L 581.244236 475.536551 
L 582.589946 495.810567 
L 583.262802 490.742063 
L 583.935657 465.399543 
L 584.608512 455.262535 
L 585.281367 465.399543 
L 585.954223 490.742063 
L 586.627078 505.947575 
L 587.299933 500.879071 
L 588.645643 470.468047 
L 589.991354 470.468047 
L 590.664209 465.399543 
L 592.682775 465.399543 
L 593.35563 475.536551 
L 594.028485 475.536551 
L 595.374196 485.673559 
L 596.047051 485.673559 
L 596.719906 480.605055 
L 597.392761 470.468047 
L 598.065617 465.399543 
M 638.43693 490.742063 
L 639.109786 485.673559 
L 639.782641 485.673559 
L 640.455496 480.605055 
L 641.128351 470.468047 
L 642.474062 460.331039 
L 643.146917 465.399543 
L 643.819772 475.536551 
L 644.492627 480.605055 
L 647.184048 521.153087 
L 647.856903 536.358599 
L 648.529759 541.427103 
L 649.202614 521.153087 
L 649.875469 505.947575 
L 650.548324 495.810567 
L 651.22118 490.742063 
L 651.894035 490.742063 
L 652.56689 480.605055 
L 653.239745 490.742063 
L 653.912601 511.016079 
L 654.585456 521.153087 
L 655.258311 511.016079 
L 655.931166 495.810567 
L 656.604021 490.742063 
L 657.276877 495.810567 
L 657.949732 505.947575 
L 658.622587 495.810567 
L 659.968298 465.399543 
L 661.314008 485.673559 
L 661.986863 485.673559 
L 662.659718 480.605055 
L 663.332574 470.468047 
L 664.005429 480.605055 
L 664.678284 495.810567 
L 665.351139 516.084583 
L 666.023995 526.221591 
L 666.69685 511.016079 
L 667.369705 485.673559 
L 668.04256 470.468047 
L 669.388271 490.742063 
L 670.061126 490.742063 
L 670.733981 495.810567 
L 671.406836 495.810567 
L 672.079692 490.742063 
L 673.425402 490.742063 
L 674.098257 485.673559 
L 675.443968 516.084583 
L 676.116823 516.084583 
L 676.789678 511.016079 
L 677.462534 500.879071 
L 680.153954 521.153087 
L 681.499665 490.742063 
L 682.17252 505.947575 
L 682.845375 505.947575 
L 683.518231 500.879071 
L 684.191086 505.947575 
L 684.863941 495.810567 
L 686.209651 495.810567 
L 687.555362 505.947575 
L 688.228217 505.947575 
L 689.573928 516.084583 
L 690.246783 526.221591 
L 690.919638 521.153087 
L 691.592493 505.947575 
L 692.265349 500.879071 
L 692.938204 505.947575 
L 693.611059 500.879071 
L 694.283914 505.947575 
L 694.956769 526.221591 
L 695.629625 536.358599 
L 696.975335 526.221591 
L 697.64819 516.084583 
L 698.321046 511.016079 
L 698.993901 511.016079 
L 699.666756 505.947575 
L 700.339611 505.947575 
L 701.012466 500.879071 
L 701.685322 490.742063 
L 702.358177 495.810567 
L 703.031032 531.290095 
L 703.703887 551.564111 
L 704.376743 546.495607 
L 705.722453 505.947575 
L 706.395308 500.879071 
L 707.068164 516.084583 
L 707.741019 521.153087 
L 709.086729 480.605055 
L 709.759584 480.605055 
L 710.43244 511.016079 
L 711.105295 531.290095 
L 712.451005 490.742063 
L 713.123861 495.810567 
L 713.796716 511.016079 
L 715.815282 511.016079 
L 716.488137 505.947575 
L 717.160992 505.947575 
L 717.833847 511.016079 
L 719.179558 531.290095 
L 719.852413 516.084583 
L 720.525268 495.810567 
L 721.198123 495.810567 
L 721.870979 511.016079 
L 722.543834 521.153087 
L 723.216689 521.153087 
L 723.889544 531.290095 
L 724.562399 531.290095 
L 725.235255 526.221591 
L 725.90811 516.084583 
L 726.580965 511.016079 
L 727.25382 516.084583 
L 727.926676 526.221591 
L 728.599531 531.290095 
L 729.272386 516.084583 
L 729.945241 490.742063 
L 730.618097 485.673559 
L 731.290952 500.879071 
L 731.963807 511.016079 
L 732.636662 500.879071 
L 733.309517 495.810567 
L 733.982373 500.879071 
L 734.655228 516.084583 
L 735.328083 521.153087 
L 736.673794 500.879071 
L 737.346649 505.947575 
L 738.019504 531.290095 
L 738.692359 541.427103 
L 739.365214 521.153087 
L 740.03807 505.947575 
L 740.710925 531.290095 
L 741.38378 561.701119 
L 742.056635 551.564111 
L 742.729491 521.153087 
L 743.402346 500.879071 
L 744.075201 495.810567 
L 745.420912 505.947575 
L 746.093767 521.153087 
L 746.766622 526.221591 
L 747.439477 526.221591 
L 748.112332 536.358599 
L 748.785188 541.427103 
L 749.458043 531.290095 
L 750.130898 516.084583 
L 750.803753 516.084583 
L 752.149464 536.358599 
L 752.822319 521.153087 
L 753.495174 511.016079 
L 754.168029 505.947575 
L 754.840885 495.810567 
L 756.186595 526.221591 
L 756.85945 536.358599 
L 757.532306 531.290095 
L 758.205161 505.947575 
L 758.878016 490.742063 
L 759.550871 500.879071 
L 760.896582 531.290095 
L 762.242292 541.427103 
L 764.933713 521.153087 
L 766.279424 531.290095 
L 766.952279 531.290095 
L 767.625134 500.879071 
L 768.297989 490.742063 
L 768.970845 495.810567 
L 769.6437 511.016079 
L 770.316555 531.290095 
L 770.98941 536.358599 
L 771.662265 531.290095 
L 772.335121 521.153087 
L 773.007976 521.153087 
L 773.680831 531.290095 
L 774.353686 536.358599 
L 775.699397 526.221591 
L 776.372252 511.016079 
L 777.045107 500.879071 
L 777.717962 500.879071 
L 778.390818 505.947575 
L 779.063673 516.084583 
L 780.409383 505.947575 
L 781.082239 516.084583 
L 781.755094 521.153087 
L 782.427949 511.016079 
L 783.100804 505.947575 
L 785.11937 505.947575 
L 786.46508 485.673559 
L 787.137936 485.673559 
L 788.483646 505.947575 
L 790.502212 521.153087 
L 791.175067 521.153087 
L 791.847922 500.879071 
L 792.520777 500.879071 
L 793.193633 516.084583 
L 793.866488 521.153087 
L 795.212198 500.879071 
L 795.885054 500.879071 
L 796.557909 505.947575 
L 797.230764 531.290095 
L 797.903619 531.290095 
L 798.576475 516.084583 
L 799.24933 505.947575 
L 799.922185 500.879071 
M 828.85496 384.303479 
L 830.20067 424.851511 
L 831.546381 490.742063 
L 832.219236 516.084583 
L 832.892091 531.290095 
L 833.564946 521.153087 
L 834.237802 500.879071 
L 834.910657 516.084583 
L 835.583512 536.358599 
L 836.256367 546.495607 
L 836.929223 531.290095 
L 837.602078 505.947575 
L 838.947788 495.810567 
L 839.620643 505.947575 
L 840.293499 500.879071 
L 840.966354 516.084583 
L 841.639209 541.427103 
L 842.312064 541.427103 
L 842.98492 536.358599 
L 843.657775 536.358599 
L 844.33063 551.564111 
L 845.003485 551.564111 
L 845.67634 526.221591 
L 846.349196 511.016079 
L 847.022051 500.879071 
L 848.367761 541.427103 
L 849.040617 541.427103 
L 849.713472 536.358599 
L 850.386327 526.221591 
L 851.059182 536.358599 
L 851.732038 521.153087 
L 852.404893 500.879071 
L 853.077748 516.084583 
L 853.750603 541.427103 
L 854.423458 551.564111 
L 855.769169 521.153087 
L 856.442024 516.084583 
L 857.114879 516.084583 
L 858.46059 505.947575 
L 859.133445 526.221591 
L 859.8063 536.358599 
L 860.479155 531.290095 
L 861.152011 521.153087 
L 861.824866 521.153087 
L 862.497721 541.427103 
L 863.170576 541.427103 
L 864.516287 511.016079 
L 865.189142 516.084583 
L 867.207708 516.084583 
L 867.880563 500.879071 
L 868.553418 495.810567 
L 869.226273 505.947575 
L 869.899129 521.153087 
L 870.571984 521.153087 
L 871.244839 505.947575 
L 871.917694 505.947575 
L 872.59055 511.016079 
L 873.263405 505.947575 
L 873.93626 505.947575 
L 874.609115 511.016079 
L 875.281971 521.153087 
L 875.954826 526.221591 
L 876.627681 521.153087 
L 877.300536 511.016079 
L 877.973391 511.016079 
L 878.646247 500.879071 
L 879.319102 505.947575 
L 879.991957 516.084583 
L 880.664812 500.879071 
L 881.337668 480.605055 
L 882.010523 490.742063 
L 882.683378 521.153087 
L 883.356233 526.221591 
L 884.029088 500.879071 
L 884.701944 480.605055 
L 885.374799 495.810567 
L 886.047654 526.221591 
L 886.720509 536.358599 
L 887.393365 531.290095 
L 888.06622 521.153087 
L 890.757641 500.879071 
L 891.430496 490.742063 
L 892.776206 500.879071 
L 893.449062 500.879071 
L 894.794772 470.468047 
L 895.467627 495.810567 
L 896.140483 516.084583 
L 896.813338 516.084583 
L 898.159048 475.536551 
L 898.831903 500.879071 
L 899.504759 516.084583 
L 900.177614 516.084583 
L 900.850469 505.947575 
L 901.523324 485.673559 
L 902.19618 490.742063 
L 902.869035 511.016079 
L 903.54189 521.153087 
L 904.214745 516.084583 
L 904.887601 500.879071 
L 905.560456 505.947575 
L 906.233311 526.221591 
L 906.906166 536.358599 
L 907.579021 526.221591 
L 908.251877 505.947575 
L 908.924732 500.879071 
L 909.597587 505.947575 
L 910.943298 526.221591 
L 911.616153 531.290095 
L 912.289008 531.290095 
L 912.961863 505.947575 
L 913.634718 475.536551 
L 914.980429 505.947575 
L 916.326139 516.084583 
L 916.998995 516.084583 
L 917.67185 541.427103 
L 918.344705 546.495607 
L 919.01756 531.290095 
L 920.363271 511.016079 
L 921.708981 500.879071 
L 922.381836 500.879071 
L 923.054692 495.810567 
L 923.727547 500.879071 
L 924.400402 521.153087 
L 925.073257 536.358599 
L 925.746113 536.358599 
L 926.418968 511.016079 
L 927.091823 505.947575 
L 927.764678 516.084583 
L 928.437534 516.084583 
L 929.110389 511.016079 
L 929.783244 516.084583 
L 930.456099 526.221591 
L 932.474665 495.810567 
L 933.14752 516.084583 
L 933.820375 526.221591 
L 934.493231 505.947575 
L 935.166086 490.742063 
L 935.838941 480.605055 
L 937.184651 511.016079 
L 937.857507 516.084583 
L 938.530362 526.221591 
L 939.203217 521.153087 
L 939.876072 521.153087 
L 940.548928 526.221591 
L 941.894638 526.221591 
L 942.567493 505.947575 
L 943.240349 505.947575 
L 943.913204 516.084583 
L 944.586059 516.084583 
L 945.258914 505.947575 
L 945.931769 485.673559 
L 947.27748 485.673559 
L 947.950335 480.605055 
L 948.62319 485.673559 
L 949.296046 480.605055 
L 949.968901 485.673559 
L 950.641756 500.879071 
L 951.314611 500.879071 
L 952.660322 521.153087 
L 953.333177 521.153087 
L 954.006032 516.084583 
L 954.678887 505.947575 
L 955.351743 500.879071 
L 956.024598 500.879071 
L 957.370308 521.153087 
L 958.043164 521.153087 
L 958.716019 511.016079 
L 959.388874 505.947575 
L 960.734584 505.947575 
L 961.40744 521.153087 
L 962.75315 521.153087 
L 963.426005 516.084583 
L 964.098861 495.810567 
L 965.444571 475.536551 
L 966.117426 490.742063 
L 966.790282 526.221591 
L 967.463137 551.564111 
L 968.135992 546.495607 
L 968.808847 521.153087 
L 969.481702 500.879071 
L 970.154558 495.810567 
L 970.827413 495.810567 
L 971.500268 521.153087 
L 972.173123 541.427103 
L 972.845979 536.358599 
L 974.191689 495.810567 
L 974.864544 505.947575 
L 976.88311 505.947575 
M 1006.48874 303.207415 
L 1007.161595 318.412927 
L 1008.507306 389.371983 
L 1009.180161 414.714503 
L 1009.853016 450.194031 
L 1011.198727 500.879071 
L 1011.871582 531.290095 
L 1012.544437 556.632615 
L 1013.217292 556.632615 
L 1013.890147 541.427103 
L 1014.563003 536.358599 
L 1016.581568 475.536551 
L 1017.254424 460.331039 
L 1018.600134 470.468047 
L 1019.272989 480.605055 
L 1019.945845 500.879071 
L 1020.6187 500.879071 
L 1021.291555 495.810567 
L 1022.637265 546.495607 
L 1023.310121 541.427103 
L 1023.982976 511.016079 
L 1024.655831 505.947575 
L 1025.328686 516.084583 
L 1026.001542 505.947575 
L 1026.674397 485.673559 
L 1027.347252 470.468047 
L 1028.692962 470.468047 
L 1029.365818 485.673559 
L 1030.038673 505.947575 
L 1030.711528 505.947575 
L 1032.057239 485.673559 
L 1033.402949 475.536551 
L 1034.075804 480.605055 
L 1034.74866 500.879071 
L 1035.421515 511.016079 
L 1036.09437 505.947575 
L 1036.767225 495.810567 
L 1037.44008 480.605055 
L 1038.112936 470.468047 
L 1038.785791 485.673559 
L 1039.458646 495.810567 
L 1040.131501 495.810567 
L 1041.477212 465.399543 
L 1042.150067 470.468047 
L 1043.495777 511.016079 
L 1044.168633 500.879071 
L 1044.841488 465.399543 
L 1045.514343 450.194031 
L 1046.187198 475.536551 
L 1046.860054 490.742063 
L 1047.532909 500.879071 
L 1048.205764 505.947575 
L 1048.878619 505.947575 
L 1049.551475 500.879071 
L 1050.22433 490.742063 
L 1050.897185 485.673559 
L 1052.242895 485.673559 
L 1052.915751 490.742063 
L 1053.588606 500.879071 
L 1054.261461 500.879071 
L 1054.934316 495.810567 
L 1055.607172 480.605055 
L 1056.280027 475.536551 
L 1056.952882 480.605055 
L 1057.625737 475.536551 
L 1058.298592 475.536551 
L 1058.971448 490.742063 
L 1059.644303 500.879071 
L 1060.317158 500.879071 
L 1061.662869 490.742063 
L 1062.335724 480.605055 
L 1063.008579 465.399543 
L 1063.681434 475.536551 
L 1064.35429 490.742063 
L 1065.027145 490.742063 
L 1065.7 485.673559 
L 1066.372855 495.810567 
L 1066.372855 495.810567 
" style="fill:none;stroke:#000000;stroke-linecap:square;stroke-opacity:0.4;stroke-width:1.5;"/>
   </g>
   <g id="patch_24">
    <path d="M 61.8 616.690729 
L 61.8 324.245365 
" style="fill:none;stroke:#000000;stroke-linecap:square;stroke-linejoin:miter;stroke-width:0.8;"/>
   </g>
   <g id="patch_25">
    <path d="M 1065.7 616.690729 
L 1065.7 324.245365 
" style="fill:none;stroke:#000000;stroke-linecap:square;stroke-linejoin:miter;stroke-width:0.8;"/>
   </g>
   <g id="patch_26">
    <path d="M 61.8 616.690729 
L 1065.7 616.690729 
" style="fill:none;stroke:#000000;stroke-linecap:square;stroke-linejoin:miter;stroke-width:0.8;"/>
   </g>
   <g id="patch_27">
    <path d="M 61.8 324.245365 
L 1065.7 324.245365 
" style="fill:none;stroke:#000000;stroke-linecap:square;stroke-linejoin:miter;stroke-width:0.8;"/>
   </g>
  </g>
 </g>
 <defs>
  <clipPath id="pe85adc5069">
   <rect height="292.445365" width="1003.9" x="61.8" y="31.8"/>
  </clipPath>
  <clipPath id="p995a8bb32f">
   <rect height="292.445365" width="1003.9" x="61.8" y="324.245365"/>
  </clipPath>
 </defs>
</svg>
