<?xml version="1.0" encoding="utf-8" standalone="no"?>
<!DOCTYPE svg PUBLIC "-//W3C//DTD SVG 1.1//EN"
  "http://www.w3.org/Graphics/SVG/1.1/DTD/svg11.dtd">
<!-- Created with matplotlib (https://matplotlib.org/) -->
<svg height="360pt" version="1.1" viewBox="0 0 360 360" width="360pt" xmlns="http://www.w3.org/2000/svg" xmlns:xlink="http://www.w3.org/1999/xlink">
 <defs>
  <style type="text/css">
*{stroke-linecap:butt;stroke-linejoin:round;}
  </style>
 </defs>
 <g id="figure_1">
  <g id="patch_1">
   <path d="M 0 360 
L 360 360 
L 360 0 
L 0 0 
z
" style="fill:#ffffff;"/>
  </g>
  <g id="axes_1">
   <g id="patch_2">
    <path d="M 45 315 
L 324 315 
L 324 43.2 
L 45 43.2 
z
" style="fill:#ffffff;"/>
   </g>
   <g id="PatchCollection_1">
    <path clip-path="url(#pa53bfe4a64)" d="M 57.275607 301.901205 
C 57.275607 301.363668 57.200004 300.831358 57.053125 300.334739 
C 56.906246 299.838119 56.690947 299.386849 56.41955 299.006753 
C 56.148152 298.626657 55.825934 298.325127 55.471337 298.119421 
C 55.116739 297.913714 54.736657 297.807831 54.352844 297.807831 
C 53.96903 297.807831 53.588948 297.913714 53.23435 298.119421 
C 52.879753 298.325127 52.557535 298.626657 52.286138 299.006753 
C 52.01474 299.386849 51.799441 299.838119 51.652562 300.334739 
C 51.505683 300.831358 51.43008 301.363668 51.43008 301.901205 
C 51.43008 302.438742 51.505683 302.971052 51.652562 303.467671 
C 51.799441 303.96429 52.01474 304.415561 52.286138 304.795657 
C 52.557535 305.175753 52.879753 305.477282 53.23435 305.682989 
C 53.588948 305.888695 53.96903 305.994578 54.352844 305.994578 
C 54.736657 305.994578 55.116739 305.888695 55.471337 305.682989 
C 55.825934 305.477282 56.148152 305.175753 56.41955 304.795657 
C 56.690947 304.415561 56.906246 303.96429 57.053125 303.467671 
C 57.200004 302.971052 57.275607 302.438742 57.275607 301.901205 
M 56.983331 301.901205 
C 56.983331 302.384988 56.915288 302.864067 56.783097 303.311024 
C 56.650906 303.757982 56.457137 304.164125 56.212879 304.506212 
C 55.968621 304.848298 55.678625 305.119675 55.359487 305.30481 
C 55.04035 305.489946 54.698276 305.585241 54.352844 305.585241 
C 54.007411 305.585241 53.665338 305.489946 53.3462 305.30481 
C 53.027062 305.119675 52.737066 304.848298 52.492808 304.506212 
C 52.248551 304.164125 52.054781 303.757982 51.92259 303.311024 
C 51.790399 302.864067 51.722356 302.384988 51.722356 301.901205 
C 51.722356 301.417422 51.790399 300.938343 51.92259 300.491385 
C 52.054781 300.044428 52.248551 299.638284 52.492808 299.296198 
C 52.737066 298.954112 53.027062 298.682735 53.3462 298.497599 
C 53.665338 298.312463 54.007411 298.217169 54.352844 298.217169 
C 54.698276 298.217169 55.04035 298.312463 55.359487 298.497599 
C 55.678625 298.682735 55.968621 298.954112 56.212879 299.296198 
C 56.457137 299.638284 56.650906 300.044428 56.783097 300.491385 
C 56.915288 300.938343 56.983331 301.417422 56.983331 301.901205 
M 57.275607 301.901205 
z
" style="stroke:#000000;"/>
    <path clip-path="url(#pa53bfe4a64)" d="M 86.503243 301.901205 
C 86.503243 301.363668 86.42764 300.831358 86.280761 300.334739 
C 86.133882 299.838119 85.918583 299.386849 85.647186 299.006753 
C 85.375788 298.626657 85.053571 298.325127 84.698973 298.119421 
C 84.344375 297.913714 83.964294 297.807831 83.58048 297.807831 
C 83.196666 297.807831 82.816584 297.913714 82.461986 298.119421 
C 82.107389 298.325127 81.785171 298.626657 81.513774 299.006753 
C 81.242376 299.386849 81.027077 299.838119 80.880198 300.334739 
C 80.733319 300.831358 80.657716 301.363668 80.657716 301.901205 
C 80.657716 302.438742 80.733319 302.971052 80.880198 303.467671 
C 81.027077 303.96429 81.242376 304.415561 81.513774 304.795657 
C 81.785171 305.175753 82.107389 305.477282 82.461986 305.682989 
C 82.816584 305.888695 83.196666 305.994578 83.58048 305.994578 
C 83.964294 305.994578 84.344375 305.888695 84.698973 305.682989 
C 85.053571 305.477282 85.375788 305.175753 85.647186 304.795657 
C 85.918583 304.415561 86.133882 303.96429 86.280761 303.467671 
C 86.42764 302.971052 86.503243 302.438742 86.503243 301.901205 
M 86.210967 301.901205 
C 86.210967 302.384988 86.142924 302.864067 86.010733 303.311024 
C 85.878542 303.757982 85.684773 304.164125 85.440515 304.506212 
C 85.196257 304.848298 84.906262 305.119675 84.587124 305.30481 
C 84.267986 305.489946 83.925912 305.585241 83.58048 305.585241 
C 83.235047 305.585241 82.892974 305.489946 82.573836 305.30481 
C 82.254698 305.119675 81.964702 304.848298 81.720444 304.506212 
C 81.476187 304.164125 81.282418 303.757982 81.150226 303.311024 
C 81.018035 302.864067 80.949992 302.384988 80.949992 301.901205 
C 80.949992 301.417422 81.018035 300.938343 81.150226 300.491385 
C 81.282418 300.044428 81.476187 299.638284 81.720444 299.296198 
C 81.964702 298.954112 82.254698 298.682735 82.573836 298.497599 
C 82.892974 298.312463 83.235047 298.217169 83.58048 298.217169 
C 83.925912 298.217169 84.267986 298.312463 84.587124 298.497599 
C 84.906262 298.682735 85.196257 298.954112 85.440515 299.296198 
C 85.684773 299.638284 85.878542 300.044428 86.010733 300.491385 
C 86.142924 300.938343 86.210967 301.417422 86.210967 301.901205 
M 86.503243 301.901205 
z
" style="stroke:#000000;"/>
    <path clip-path="url(#pa53bfe4a64)" d="M 86.503243 260.96747 
C 86.503243 260.429933 86.42764 259.897623 86.280761 259.401004 
C 86.133882 258.904384 85.918583 258.453114 85.647186 258.073018 
C 85.375788 257.692922 85.053571 257.391392 84.698973 257.185686 
C 84.344375 256.979979 83.964294 256.874096 83.58048 256.874096 
C 83.196666 256.874096 82.816584 256.979979 82.461986 257.185686 
C 82.107389 257.391392 81.785171 257.692922 81.513774 258.073018 
C 81.242376 258.453114 81.027077 258.904384 80.880198 259.401004 
C 80.733319 259.897623 80.657716 260.429933 80.657716 260.96747 
C 80.657716 261.505007 80.733319 262.037317 80.880198 262.533936 
C 81.027077 263.030555 81.242376 263.481826 81.513774 263.861922 
C 81.785171 264.242018 82.107389 264.543547 82.461986 264.749254 
C 82.816584 264.95496 83.196666 265.060843 83.58048 265.060843 
C 83.964294 265.060843 84.344375 264.95496 84.698973 264.749254 
C 85.053571 264.543547 85.375788 264.242018 85.647186 263.861922 
C 85.918583 263.481826 86.133882 263.030555 86.280761 262.533936 
C 86.42764 262.037317 86.503243 261.505007 86.503243 260.96747 
M 86.210967 260.96747 
C 86.210967 261.451253 86.142924 261.930332 86.010733 262.377289 
C 85.878542 262.824247 85.684773 263.23039 85.440515 263.572477 
C 85.196257 263.914563 84.906262 264.18594 84.587124 264.371075 
C 84.267986 264.556211 83.925912 264.651506 83.58048 264.651506 
C 83.235047 264.651506 82.892974 264.556211 82.573836 264.371075 
C 82.254698 264.18594 81.964702 263.914563 81.720444 263.572477 
C 81.476187 263.23039 81.282418 262.824247 81.150226 262.377289 
C 81.018035 261.930332 80.949992 261.451253 80.949992 260.96747 
C 80.949992 260.483687 81.018035 260.004608 81.150226 259.55765 
C 81.282418 259.110693 81.476187 258.704549 81.720444 258.362463 
C 81.964702 258.020377 82.254698 257.749 82.573836 257.563864 
C 82.892974 257.378728 83.235047 257.283434 83.58048 257.283434 
C 83.925912 257.283434 84.267986 257.378728 84.587124 257.563864 
C 84.906262 257.749 85.196257 258.020377 85.440515 258.362463 
C 85.684773 258.704549 85.878542 259.110693 86.010733 259.55765 
C 86.142924 260.004608 86.210967 260.483687 86.210967 260.96747 
M 86.503243 260.96747 
z
" style="stroke:#000000;"/>
    <path clip-path="url(#pa53bfe4a64)" d="M 115.730879 301.901205 
C 115.730879 301.363668 115.655277 300.831358 115.508397 300.334739 
C 115.361518 299.838119 115.146219 299.386849 114.874822 299.006753 
C 114.603424 298.626657 114.281207 298.325127 113.926609 298.119421 
C 113.572011 297.913714 113.19193 297.807831 112.808116 297.807831 
C 112.424302 297.807831 112.04422 297.913714 111.689623 298.119421 
C 111.335025 298.325127 111.012807 298.626657 110.74141 299.006753 
C 110.470013 299.386849 110.254714 299.838119 110.107834 300.334739 
C 109.960955 300.831358 109.885352 301.363668 109.885352 301.901205 
C 109.885352 302.438742 109.960955 302.971052 110.107834 303.467671 
C 110.254714 303.96429 110.470013 304.415561 110.74141 304.795657 
C 111.012807 305.175753 111.335025 305.477282 111.689623 305.682989 
C 112.04422 305.888695 112.424302 305.994578 112.808116 305.994578 
C 113.19193 305.994578 113.572011 305.888695 113.926609 305.682989 
C 114.281207 305.477282 114.603424 305.175753 114.874822 304.795657 
C 115.146219 304.415561 115.361518 303.96429 115.508397 303.467671 
C 115.655277 302.971052 115.730879 302.438742 115.730879 301.901205 
M 115.438603 301.901205 
C 115.438603 302.384988 115.37056 302.864067 115.238369 303.311024 
C 115.106178 303.757982 114.912409 304.164125 114.668151 304.506212 
C 114.423894 304.848298 114.133898 305.119675 113.81476 305.30481 
C 113.495622 305.489946 113.153548 305.585241 112.808116 305.585241 
C 112.462683 305.585241 112.12061 305.489946 111.801472 305.30481 
C 111.482334 305.119675 111.192338 304.848298 110.94808 304.506212 
C 110.703823 304.164125 110.510054 303.757982 110.377863 303.311024 
C 110.245671 302.864067 110.177629 302.384988 110.177629 301.901205 
C 110.177629 301.417422 110.245671 300.938343 110.377863 300.491385 
C 110.510054 300.044428 110.703823 299.638284 110.94808 299.296198 
C 111.192338 298.954112 111.482334 298.682735 111.801472 298.497599 
C 112.12061 298.312463 112.462683 298.217169 112.808116 298.217169 
C 113.153548 298.217169 113.495622 298.312463 113.81476 298.497599 
C 114.133898 298.682735 114.423894 298.954112 114.668151 299.296198 
C 114.912409 299.638284 115.106178 300.044428 115.238369 300.491385 
C 115.37056 300.938343 115.438603 301.417422 115.438603 301.901205 
M 115.730879 301.901205 
z
" style="stroke:#000000;"/>
    <path clip-path="url(#pa53bfe4a64)" d="M 115.730879 260.96747 
C 115.730879 260.429933 115.655277 259.897623 115.508397 259.401004 
C 115.361518 258.904384 115.146219 258.453114 114.874822 258.073018 
C 114.603424 257.692922 114.281207 257.391392 113.926609 257.185686 
C 113.572011 256.979979 113.19193 256.874096 112.808116 256.874096 
C 112.424302 256.874096 112.04422 256.979979 111.689623 257.185686 
C 111.335025 257.391392 111.012807 257.692922 110.74141 258.073018 
C 110.470013 258.453114 110.254714 258.904384 110.107834 259.401004 
C 109.960955 259.897623 109.885352 260.429933 109.885352 260.96747 
C 109.885352 261.505007 109.960955 262.037317 110.107834 262.533936 
C 110.254714 263.030555 110.470013 263.481826 110.74141 263.861922 
C 111.012807 264.242018 111.335025 264.543547 111.689623 264.749254 
C 112.04422 264.95496 112.424302 265.060843 112.808116 265.060843 
C 113.19193 265.060843 113.572011 264.95496 113.926609 264.749254 
C 114.281207 264.543547 114.603424 264.242018 114.874822 263.861922 
C 115.146219 263.481826 115.361518 263.030555 115.508397 262.533936 
C 115.655277 262.037317 115.730879 261.505007 115.730879 260.96747 
M 115.438603 260.96747 
C 115.438603 261.451253 115.37056 261.930332 115.238369 262.377289 
C 115.106178 262.824247 114.912409 263.23039 114.668151 263.572477 
C 114.423894 263.914563 114.133898 264.18594 113.81476 264.371075 
C 113.495622 264.556211 113.153548 264.651506 112.808116 264.651506 
C 112.462683 264.651506 112.12061 264.556211 111.801472 264.371075 
C 111.482334 264.18594 111.192338 263.914563 110.94808 263.572477 
C 110.703823 263.23039 110.510054 262.824247 110.377863 262.377289 
C 110.245671 261.930332 110.177629 261.451253 110.177629 260.96747 
C 110.177629 260.483687 110.245671 260.004608 110.377863 259.55765 
C 110.510054 259.110693 110.703823 258.704549 110.94808 258.362463 
C 111.192338 258.020377 111.482334 257.749 111.801472 257.563864 
C 112.12061 257.378728 112.462683 257.283434 112.808116 257.283434 
C 113.153548 257.283434 113.495622 257.378728 113.81476 257.563864 
C 114.133898 257.749 114.423894 258.020377 114.668151 258.362463 
C 114.912409 258.704549 115.106178 259.110693 115.238369 259.55765 
C 115.37056 260.004608 115.438603 260.483687 115.438603 260.96747 
M 115.730879 260.96747 
z
" style="stroke:#000000;"/>
    <path clip-path="url(#pa53bfe4a64)" d="M 115.730879 220.033735 
C 115.730879 219.496198 115.655277 218.963888 115.508397 218.467269 
C 115.361518 217.970649 115.146219 217.519379 114.874822 217.139283 
C 114.603424 216.759187 114.281207 216.457657 113.926609 216.251951 
C 113.572011 216.046244 113.19193 215.940361 112.808116 215.940361 
C 112.424302 215.940361 112.04422 216.046244 111.689623 216.251951 
C 111.335025 216.457657 111.012807 216.759187 110.74141 217.139283 
C 110.470013 217.519379 110.254714 217.970649 110.107834 218.467269 
C 109.960955 218.963888 109.885352 219.496198 109.885352 220.033735 
C 109.885352 220.571272 109.960955 221.103582 110.107834 221.600201 
C 110.254714 222.09682 110.470013 222.548091 110.74141 222.928187 
C 111.012807 223.308283 111.335025 223.609812 111.689623 223.815519 
C 112.04422 224.021225 112.424302 224.127108 112.808116 224.127108 
C 113.19193 224.127108 113.572011 224.021225 113.926609 223.815519 
C 114.281207 223.609812 114.603424 223.308283 114.874822 222.928187 
C 115.146219 222.548091 115.361518 222.09682 115.508397 221.600201 
C 115.655277 221.103582 115.730879 220.571272 115.730879 220.033735 
M 115.438603 220.033735 
C 115.438603 220.517518 115.37056 220.996597 115.238369 221.443555 
C 115.106178 221.890512 114.912409 222.296656 114.668151 222.638742 
C 114.423894 222.980828 114.133898 223.252205 113.81476 223.437341 
C 113.495622 223.622476 113.153548 223.717771 112.808116 223.717771 
C 112.462683 223.717771 112.12061 223.622476 111.801472 223.437341 
C 111.482334 223.252205 111.192338 222.980828 110.94808 222.638742 
C 110.703823 222.296656 110.510054 221.890512 110.377863 221.443555 
C 110.245671 220.996597 110.177629 220.517518 110.177629 220.033735 
C 110.177629 219.549952 110.245671 219.070873 110.377863 218.623915 
C 110.510054 218.176958 110.703823 217.770814 110.94808 217.428728 
C 111.192338 217.086642 111.482334 216.815265 111.801472 216.630129 
C 112.12061 216.444994 112.462683 216.349699 112.808116 216.349699 
C 113.153548 216.349699 113.495622 216.444994 113.81476 216.630129 
C 114.133898 216.815265 114.423894 217.086642 114.668151 217.428728 
C 114.912409 217.770814 115.106178 218.176958 115.238369 218.623915 
C 115.37056 219.070873 115.438603 219.549952 115.438603 220.033735 
M 115.730879 220.033735 
z
" style="stroke:#000000;"/>
    <path clip-path="url(#pa53bfe4a64)" d="M 144.958516 301.901205 
C 144.958516 301.363668 144.882913 300.831358 144.736033 300.334739 
C 144.589154 299.838119 144.373855 299.386849 144.102458 299.006753 
C 143.831061 298.626657 143.508843 298.325127 143.154245 298.119421 
C 142.799647 297.913714 142.419566 297.807831 142.035752 297.807831 
C 141.651938 297.807831 141.271857 297.913714 140.917259 298.119421 
C 140.562661 298.325127 140.240443 298.626657 139.969046 299.006753 
C 139.697649 299.386849 139.48235 299.838119 139.335471 300.334739 
C 139.188591 300.831358 139.112988 301.363668 139.112988 301.901205 
C 139.112988 302.438742 139.188591 302.971052 139.335471 303.467671 
C 139.48235 303.96429 139.697649 304.415561 139.969046 304.795657 
C 140.240443 305.175753 140.562661 305.477282 140.917259 305.682989 
C 141.271857 305.888695 141.651938 305.994578 142.035752 305.994578 
C 142.419566 305.994578 142.799647 305.888695 143.154245 305.682989 
C 143.508843 305.477282 143.831061 305.175753 144.102458 304.795657 
C 144.373855 304.415561 144.589154 303.96429 144.736033 303.467671 
C 144.882913 302.971052 144.958516 302.438742 144.958516 301.901205 
M 144.666239 301.901205 
C 144.666239 302.384988 144.598197 302.864067 144.466005 303.311024 
C 144.333814 303.757982 144.140045 304.164125 143.895787 304.506212 
C 143.65153 304.848298 143.361534 305.119675 143.042396 305.30481 
C 142.723258 305.489946 142.381184 305.585241 142.035752 305.585241 
C 141.69032 305.585241 141.348246 305.489946 141.029108 305.30481 
C 140.70997 305.119675 140.419974 304.848298 140.175717 304.506212 
C 139.931459 304.164125 139.73769 303.757982 139.605499 303.311024 
C 139.473307 302.864067 139.405265 302.384988 139.405265 301.901205 
C 139.405265 301.417422 139.473307 300.938343 139.605499 300.491385 
C 139.73769 300.044428 139.931459 299.638284 140.175717 299.296198 
C 140.419974 298.954112 140.70997 298.682735 141.029108 298.497599 
C 141.348246 298.312463 141.69032 298.217169 142.035752 298.217169 
C 142.381184 298.217169 142.723258 298.312463 143.042396 298.497599 
C 143.361534 298.682735 143.65153 298.954112 143.895787 299.296198 
C 144.140045 299.638284 144.333814 300.044428 144.466005 300.491385 
C 144.598197 300.938343 144.666239 301.417422 144.666239 301.901205 
M 144.958516 301.901205 
z
" style="stroke:#000000;"/>
    <path clip-path="url(#pa53bfe4a64)" d="M 144.958516 260.96747 
C 144.958516 260.429933 144.882913 259.897623 144.736033 259.401004 
C 144.589154 258.904384 144.373855 258.453114 144.102458 258.073018 
C 143.831061 257.692922 143.508843 257.391392 143.154245 257.185686 
C 142.799647 256.979979 142.419566 256.874096 142.035752 256.874096 
C 141.651938 256.874096 141.271857 256.979979 140.917259 257.185686 
C 140.562661 257.391392 140.240443 257.692922 139.969046 258.073018 
C 139.697649 258.453114 139.48235 258.904384 139.335471 259.401004 
C 139.188591 259.897623 139.112988 260.429933 139.112988 260.96747 
C 139.112988 261.505007 139.188591 262.037317 139.335471 262.533936 
C 139.48235 263.030555 139.697649 263.481826 139.969046 263.861922 
C 140.240443 264.242018 140.562661 264.543547 140.917259 264.749254 
C 141.271857 264.95496 141.651938 265.060843 142.035752 265.060843 
C 142.419566 265.060843 142.799647 264.95496 143.154245 264.749254 
C 143.508843 264.543547 143.831061 264.242018 144.102458 263.861922 
C 144.373855 263.481826 144.589154 263.030555 144.736033 262.533936 
C 144.882913 262.037317 144.958516 261.505007 144.958516 260.96747 
M 144.666239 260.96747 
C 144.666239 261.451253 144.598197 261.930332 144.466005 262.377289 
C 144.333814 262.824247 144.140045 263.23039 143.895787 263.572477 
C 143.65153 263.914563 143.361534 264.18594 143.042396 264.371075 
C 142.723258 264.556211 142.381184 264.651506 142.035752 264.651506 
C 141.69032 264.651506 141.348246 264.556211 141.029108 264.371075 
C 140.70997 264.18594 140.419974 263.914563 140.175717 263.572477 
C 139.931459 263.23039 139.73769 262.824247 139.605499 262.377289 
C 139.473307 261.930332 139.405265 261.451253 139.405265 260.96747 
C 139.405265 260.483687 139.473307 260.004608 139.605499 259.55765 
C 139.73769 259.110693 139.931459 258.704549 140.175717 258.362463 
C 140.419974 258.020377 140.70997 257.749 141.029108 257.563864 
C 141.348246 257.378728 141.69032 257.283434 142.035752 257.283434 
C 142.381184 257.283434 142.723258 257.378728 143.042396 257.563864 
C 143.361534 257.749 143.65153 258.020377 143.895787 258.362463 
C 144.140045 258.704549 144.333814 259.110693 144.466005 259.55765 
C 144.598197 260.004608 144.666239 260.483687 144.666239 260.96747 
M 144.958516 260.96747 
z
" style="stroke:#000000;"/>
    <path clip-path="url(#pa53bfe4a64)" d="M 144.958516 220.033735 
C 144.958516 219.496198 144.882913 218.963888 144.736033 218.467269 
C 144.589154 217.970649 144.373855 217.519379 144.102458 217.139283 
C 143.831061 216.759187 143.508843 216.457657 143.154245 216.251951 
C 142.799647 216.046244 142.419566 215.940361 142.035752 215.940361 
C 141.651938 215.940361 141.271857 216.046244 140.917259 216.251951 
C 140.562661 216.457657 140.240443 216.759187 139.969046 217.139283 
C 139.697649 217.519379 139.48235 217.970649 139.335471 218.467269 
C 139.188591 218.963888 139.112988 219.496198 139.112988 220.033735 
C 139.112988 220.571272 139.188591 221.103582 139.335471 221.600201 
C 139.48235 222.09682 139.697649 222.548091 139.969046 222.928187 
C 140.240443 223.308283 140.562661 223.609812 140.917259 223.815519 
C 141.271857 224.021225 141.651938 224.127108 142.035752 224.127108 
C 142.419566 224.127108 142.799647 224.021225 143.154245 223.815519 
C 143.508843 223.609812 143.831061 223.308283 144.102458 222.928187 
C 144.373855 222.548091 144.589154 222.09682 144.736033 221.600201 
C 144.882913 221.103582 144.958516 220.571272 144.958516 220.033735 
M 144.666239 220.033735 
C 144.666239 220.517518 144.598197 220.996597 144.466005 221.443555 
C 144.333814 221.890512 144.140045 222.296656 143.895787 222.638742 
C 143.65153 222.980828 143.361534 223.252205 143.042396 223.437341 
C 142.723258 223.622476 142.381184 223.717771 142.035752 223.717771 
C 141.69032 223.717771 141.348246 223.622476 141.029108 223.437341 
C 140.70997 223.252205 140.419974 222.980828 140.175717 222.638742 
C 139.931459 222.296656 139.73769 221.890512 139.605499 221.443555 
C 139.473307 220.996597 139.405265 220.517518 139.405265 220.033735 
C 139.405265 219.549952 139.473307 219.070873 139.605499 218.623915 
C 139.73769 218.176958 139.931459 217.770814 140.175717 217.428728 
C 140.419974 217.086642 140.70997 216.815265 141.029108 216.630129 
C 141.348246 216.444994 141.69032 216.349699 142.035752 216.349699 
C 142.381184 216.349699 142.723258 216.444994 143.042396 216.630129 
C 143.361534 216.815265 143.65153 217.086642 143.895787 217.428728 
C 144.140045 217.770814 144.333814 218.176958 144.466005 218.623915 
C 144.598197 219.070873 144.666239 219.549952 144.666239 220.033735 
M 144.958516 220.033735 
z
" style="stroke:#000000;"/>
    <path clip-path="url(#pa53bfe4a64)" d="M 144.958516 179.1 
C 144.958516 178.562463 144.882913 178.030153 144.736033 177.533534 
C 144.589154 177.036914 144.373855 176.585644 144.102458 176.205548 
C 143.831061 175.825452 143.508843 175.523922 143.154245 175.318216 
C 142.799647 175.11251 142.419566 175.006627 142.035752 175.006627 
C 141.651938 175.006627 141.271857 175.11251 140.917259 175.318216 
C 140.562661 175.523922 140.240443 175.825452 139.969046 176.205548 
C 139.697649 176.585644 139.48235 177.036914 139.335471 177.533534 
C 139.188591 178.030153 139.112988 178.562463 139.112988 179.1 
C 139.112988 179.637537 139.188591 180.169847 139.335471 180.666466 
C 139.48235 181.163086 139.697649 181.614356 139.969046 181.994452 
C 140.240443 182.374548 140.562661 182.676078 140.917259 182.881784 
C 141.271857 183.08749 141.651938 183.193373 142.035752 183.193373 
C 142.419566 183.193373 142.799647 183.08749 143.154245 182.881784 
C 143.508843 182.676078 143.831061 182.374548 144.102458 181.994452 
C 144.373855 181.614356 144.589154 181.163086 144.736033 180.666466 
C 144.882913 180.169847 144.958516 179.637537 144.958516 179.1 
M 144.666239 179.1 
C 144.666239 179.583783 144.598197 180.062862 144.466005 180.50982 
C 144.333814 180.956777 144.140045 181.362921 143.895787 181.705007 
C 143.65153 182.047093 143.361534 182.31847 143.042396 182.503606 
C 142.723258 182.688741 142.381184 182.784036 142.035752 182.784036 
C 141.69032 182.784036 141.348246 182.688741 141.029108 182.503606 
C 140.70997 182.31847 140.419974 182.047093 140.175717 181.705007 
C 139.931459 181.362921 139.73769 180.956777 139.605499 180.50982 
C 139.473307 180.062862 139.405265 179.583783 139.405265 179.1 
C 139.405265 178.616217 139.473307 178.137138 139.605499 177.69018 
C 139.73769 177.243223 139.931459 176.837079 140.175717 176.494993 
C 140.419974 176.152907 140.70997 175.88153 141.029108 175.696394 
C 141.348246 175.511259 141.69032 175.415964 142.035752 175.415964 
C 142.381184 175.415964 142.723258 175.511259 143.042396 175.696394 
C 143.361534 175.88153 143.65153 176.152907 143.895787 176.494993 
C 144.140045 176.837079 144.333814 177.243223 144.466005 177.69018 
C 144.598197 178.137138 144.666239 178.616217 144.666239 179.1 
M 144.958516 179.1 
z
" style="stroke:#000000;"/>
   </g>
   <g id="PatchCollection_2"/>
   <g id="patch_3">
    <path clip-path="url(#pa53bfe4a64)" d="M 81.020911 264.552184 
L 80.400899 267.157191 
L 79.791221 266.303328 
L 57.285941 297.822304 
L 57.265274 297.793359 
L 79.770553 266.274383 
L 79.160875 265.42052 
z
" style="stroke:#000000;stroke-linejoin:miter;"/>
   </g>
   <g id="patch_4">
    <path clip-path="url(#pa53bfe4a64)" d="M 80.657716 301.901205 
L 80.657716 301.901205 
L 80.657716 301.921672 
L 57.275607 301.921672 
L 57.275607 301.880738 
L 80.657716 301.880738 
L 80.657716 301.901205 
z
" style="fill:#1f77b4;stroke:#ff0000;stroke-linejoin:miter;"/>
   </g>
   <g id="patch_5">
    <path clip-path="url(#pa53bfe4a64)" d="M 110.248547 264.552184 
L 109.628535 267.157191 
L 109.018857 266.303328 
L 86.513577 297.822304 
L 86.49291 297.793359 
L 108.99819 266.274383 
L 108.388511 265.42052 
z
" style="stroke:#000000;stroke-linejoin:miter;"/>
   </g>
   <g id="patch_6">
    <path clip-path="url(#pa53bfe4a64)" d="M 109.885352 301.901205 
L 109.885352 301.901205 
L 109.885352 301.921672 
L 86.503243 301.921672 
L 86.503243 301.880738 
L 109.885352 301.880738 
L 109.885352 301.901205 
z
" style="fill:#1f77b4;stroke:#ff0000;stroke-linejoin:miter;"/>
   </g>
   <g id="patch_7">
    <path clip-path="url(#pa53bfe4a64)" d="M 110.248547 223.618449 
L 109.628535 226.223456 
L 109.018857 225.369593 
L 86.513577 256.888569 
L 86.49291 256.859624 
L 108.99819 225.340648 
L 108.388511 224.486785 
z
" style="stroke:#000000;stroke-linejoin:miter;"/>
   </g>
   <g id="patch_8">
    <path clip-path="url(#pa53bfe4a64)" d="M 109.885352 301.901205 
L 109.885352 301.901205 
L 109.87443 301.914802 
L 86.492321 265.074441 
L 86.514166 265.047246 
L 109.896275 301.887607 
L 109.885352 301.901205 
z
" style="fill:#1f77b4;stroke:#ff0000;stroke-linejoin:miter;"/>
   </g>
   <g id="patch_9">
    <path clip-path="url(#pa53bfe4a64)" d="M 139.476183 264.552184 
L 138.856171 267.157191 
L 138.246493 266.303328 
L 115.741213 297.822304 
L 115.720546 297.793359 
L 138.225826 266.274383 
L 137.616148 265.42052 
z
" style="stroke:#000000;stroke-linejoin:miter;"/>
   </g>
   <g id="patch_10">
    <path clip-path="url(#pa53bfe4a64)" d="M 139.112988 301.901205 
L 139.112988 301.901205 
L 139.112988 301.921672 
L 115.730879 301.921672 
L 115.730879 301.880738 
L 139.112988 301.880738 
L 139.112988 301.901205 
z
" style="fill:#1f77b4;stroke:#ff0000;stroke-linejoin:miter;"/>
   </g>
   <g id="patch_11">
    <path clip-path="url(#pa53bfe4a64)" d="M 139.476183 223.618449 
L 138.856171 226.223456 
L 138.246493 225.369593 
L 115.741213 256.888569 
L 115.720546 256.859624 
L 138.225826 225.340648 
L 137.616148 224.486785 
z
" style="stroke:#000000;stroke-linejoin:miter;"/>
   </g>
   <g id="patch_12">
    <path clip-path="url(#pa53bfe4a64)" d="M 139.112988 301.901205 
L 139.112988 301.901205 
L 139.102066 301.914802 
L 115.719957 265.074441 
L 115.741802 265.047246 
L 139.123911 301.887607 
L 139.112988 301.901205 
z
" style="fill:#1f77b4;stroke:#ff0000;stroke-linejoin:miter;"/>
   </g>
   <g id="patch_13">
    <path clip-path="url(#pa53bfe4a64)" d="M 139.476183 182.684714 
L 138.856171 185.289721 
L 138.246493 184.435858 
L 115.741213 215.954834 
L 115.720546 215.925889 
L 138.225826 184.406913 
L 137.616148 183.55305 
z
" style="stroke:#000000;stroke-linejoin:miter;"/>
   </g>
   <g id="patch_14">
    <path clip-path="url(#pa53bfe4a64)" d="M 139.112988 301.901205 
L 139.112988 301.901205 
L 139.09952 301.909147 
L 115.717411 224.135051 
L 115.744348 224.119166 
L 139.126457 301.893263 
L 139.112988 301.901205 
z
" style="fill:#1f77b4;stroke:#ff0000;stroke-linejoin:miter;"/>
   </g>
   <g id="matplotlib.axis_1">
    <g id="xtick_1">
     <g id="line2d_1">
      <defs>
       <path d="M 0 0 
L 0 3.5 
" id="meaf83f2361" style="stroke:#000000;stroke-width:0.8;"/>
      </defs>
      <g>
       <use style="stroke:#000000;stroke-width:0.8;" x="54.352844" xlink:href="#meaf83f2361" y="315"/>
      </g>
     </g>
     <g id="text_1">
      <!-- 1 -->
      <defs>
       <path d="M 12.40625 8.296875 
L 28.515625 8.296875 
L 28.515625 63.921875 
L 10.984375 60.40625 
L 10.984375 69.390625 
L 28.421875 72.90625 
L 38.28125 72.90625 
L 38.28125 8.296875 
L 54.390625 8.296875 
L 54.390625 0 
L 12.40625 0 
z
" id="DejaVuSans-49"/>
      </defs>
      <g transform="translate(51.171594 329.598437)scale(0.1 -0.1)">
       <use xlink:href="#DejaVuSans-49"/>
      </g>
     </g>
    </g>
    <g id="xtick_2">
     <g id="line2d_2">
      <g>
       <use style="stroke:#000000;stroke-width:0.8;" x="83.58048" xlink:href="#meaf83f2361" y="315"/>
      </g>
     </g>
     <g id="text_2">
      <!-- 2 -->
      <defs>
       <path d="M 19.1875 8.296875 
L 53.609375 8.296875 
L 53.609375 0 
L 7.328125 0 
L 7.328125 8.296875 
Q 12.9375 14.109375 22.625 23.890625 
Q 32.328125 33.6875 34.8125 36.53125 
Q 39.546875 41.84375 41.421875 45.53125 
Q 43.3125 49.21875 43.3125 52.78125 
Q 43.3125 58.59375 39.234375 62.25 
Q 35.15625 65.921875 28.609375 65.921875 
Q 23.96875 65.921875 18.8125 64.3125 
Q 13.671875 62.703125 7.8125 59.421875 
L 7.8125 69.390625 
Q 13.765625 71.78125 18.9375 73 
Q 24.125 74.21875 28.421875 74.21875 
Q 39.75 74.21875 46.484375 68.546875 
Q 53.21875 62.890625 53.21875 53.421875 
Q 53.21875 48.921875 51.53125 44.890625 
Q 49.859375 40.875 45.40625 35.40625 
Q 44.1875 33.984375 37.640625 27.21875 
Q 31.109375 20.453125 19.1875 8.296875 
z
" id="DejaVuSans-50"/>
      </defs>
      <g transform="translate(80.39923 329.598437)scale(0.1 -0.1)">
       <use xlink:href="#DejaVuSans-50"/>
      </g>
     </g>
    </g>
    <g id="xtick_3">
     <g id="line2d_3">
      <g>
       <use style="stroke:#000000;stroke-width:0.8;" x="112.808116" xlink:href="#meaf83f2361" y="315"/>
      </g>
     </g>
     <g id="text_3">
      <!-- 3 -->
      <defs>
       <path d="M 40.578125 39.3125 
Q 47.65625 37.796875 51.625 33 
Q 55.609375 28.21875 55.609375 21.1875 
Q 55.609375 10.40625 48.1875 4.484375 
Q 40.765625 -1.421875 27.09375 -1.421875 
Q 22.515625 -1.421875 17.65625 -0.515625 
Q 12.796875 0.390625 7.625 2.203125 
L 7.625 11.71875 
Q 11.71875 9.328125 16.59375 8.109375 
Q 21.484375 6.890625 26.8125 6.890625 
Q 36.078125 6.890625 40.9375 10.546875 
Q 45.796875 14.203125 45.796875 21.1875 
Q 45.796875 27.640625 41.28125 31.265625 
Q 36.765625 34.90625 28.71875 34.90625 
L 20.21875 34.90625 
L 20.21875 43.015625 
L 29.109375 43.015625 
Q 36.375 43.015625 40.234375 45.921875 
Q 44.09375 48.828125 44.09375 54.296875 
Q 44.09375 59.90625 40.109375 62.90625 
Q 36.140625 65.921875 28.71875 65.921875 
Q 24.65625 65.921875 20.015625 65.03125 
Q 15.375 64.15625 9.8125 62.3125 
L 9.8125 71.09375 
Q 15.4375 72.65625 20.34375 73.4375 
Q 25.25 74.21875 29.59375 74.21875 
Q 40.828125 74.21875 47.359375 69.109375 
Q 53.90625 64.015625 53.90625 55.328125 
Q 53.90625 49.265625 50.4375 45.09375 
Q 46.96875 40.921875 40.578125 39.3125 
z
" id="DejaVuSans-51"/>
      </defs>
      <g transform="translate(109.626866 329.598437)scale(0.1 -0.1)">
       <use xlink:href="#DejaVuSans-51"/>
      </g>
     </g>
    </g>
    <g id="xtick_4">
     <g id="line2d_4">
      <g>
       <use style="stroke:#000000;stroke-width:0.8;" x="142.035752" xlink:href="#meaf83f2361" y="315"/>
      </g>
     </g>
     <g id="text_4">
      <!-- 4 -->
      <defs>
       <path d="M 37.796875 64.3125 
L 12.890625 25.390625 
L 37.796875 25.390625 
z
M 35.203125 72.90625 
L 47.609375 72.90625 
L 47.609375 25.390625 
L 58.015625 25.390625 
L 58.015625 17.1875 
L 47.609375 17.1875 
L 47.609375 0 
L 37.796875 0 
L 37.796875 17.1875 
L 4.890625 17.1875 
L 4.890625 26.703125 
z
" id="DejaVuSans-52"/>
      </defs>
      <g transform="translate(138.854502 329.598437)scale(0.1 -0.1)">
       <use xlink:href="#DejaVuSans-52"/>
      </g>
     </g>
    </g>
    <g id="xtick_5">
     <g id="line2d_5">
      <g>
       <use style="stroke:#000000;stroke-width:0.8;" x="171.263388" xlink:href="#meaf83f2361" y="315"/>
      </g>
     </g>
     <g id="text_5">
      <!-- 5 -->
      <defs>
       <path d="M 10.796875 72.90625 
L 49.515625 72.90625 
L 49.515625 64.59375 
L 19.828125 64.59375 
L 19.828125 46.734375 
Q 21.96875 47.46875 24.109375 47.828125 
Q 26.265625 48.1875 28.421875 48.1875 
Q 40.625 48.1875 47.75 41.5 
Q 54.890625 34.8125 54.890625 23.390625 
Q 54.890625 11.625 47.5625 5.09375 
Q 40.234375 -1.421875 26.90625 -1.421875 
Q 22.3125 -1.421875 17.546875 -0.640625 
Q 12.796875 0.140625 7.71875 1.703125 
L 7.71875 11.625 
Q 12.109375 9.234375 16.796875 8.0625 
Q 21.484375 6.890625 26.703125 6.890625 
Q 35.15625 6.890625 40.078125 11.328125 
Q 45.015625 15.765625 45.015625 23.390625 
Q 45.015625 31 40.078125 35.4375 
Q 35.15625 39.890625 26.703125 39.890625 
Q 22.75 39.890625 18.8125 39.015625 
Q 14.890625 38.140625 10.796875 36.28125 
z
" id="DejaVuSans-53"/>
      </defs>
      <g transform="translate(168.082138 329.598437)scale(0.1 -0.1)">
       <use xlink:href="#DejaVuSans-53"/>
      </g>
     </g>
    </g>
    <g id="xtick_6">
     <g id="line2d_6">
      <g>
       <use style="stroke:#000000;stroke-width:0.8;" x="200.491024" xlink:href="#meaf83f2361" y="315"/>
      </g>
     </g>
     <g id="text_6">
      <!-- 6 -->
      <defs>
       <path d="M 33.015625 40.375 
Q 26.375 40.375 22.484375 35.828125 
Q 18.609375 31.296875 18.609375 23.390625 
Q 18.609375 15.53125 22.484375 10.953125 
Q 26.375 6.390625 33.015625 6.390625 
Q 39.65625 6.390625 43.53125 10.953125 
Q 47.40625 15.53125 47.40625 23.390625 
Q 47.40625 31.296875 43.53125 35.828125 
Q 39.65625 40.375 33.015625 40.375 
z
M 52.59375 71.296875 
L 52.59375 62.3125 
Q 48.875 64.0625 45.09375 64.984375 
Q 41.3125 65.921875 37.59375 65.921875 
Q 27.828125 65.921875 22.671875 59.328125 
Q 17.53125 52.734375 16.796875 39.40625 
Q 19.671875 43.65625 24.015625 45.921875 
Q 28.375 48.1875 33.59375 48.1875 
Q 44.578125 48.1875 50.953125 41.515625 
Q 57.328125 34.859375 57.328125 23.390625 
Q 57.328125 12.15625 50.6875 5.359375 
Q 44.046875 -1.421875 33.015625 -1.421875 
Q 20.359375 -1.421875 13.671875 8.265625 
Q 6.984375 17.96875 6.984375 36.375 
Q 6.984375 53.65625 15.1875 63.9375 
Q 23.390625 74.21875 37.203125 74.21875 
Q 40.921875 74.21875 44.703125 73.484375 
Q 48.484375 72.75 52.59375 71.296875 
z
" id="DejaVuSans-54"/>
      </defs>
      <g transform="translate(197.309774 329.598437)scale(0.1 -0.1)">
       <use xlink:href="#DejaVuSans-54"/>
      </g>
     </g>
    </g>
    <g id="xtick_7">
     <g id="line2d_7">
      <g>
       <use style="stroke:#000000;stroke-width:0.8;" x="229.71866" xlink:href="#meaf83f2361" y="315"/>
      </g>
     </g>
     <g id="text_7">
      <!-- 7 -->
      <defs>
       <path d="M 8.203125 72.90625 
L 55.078125 72.90625 
L 55.078125 68.703125 
L 28.609375 0 
L 18.3125 0 
L 43.21875 64.59375 
L 8.203125 64.59375 
z
" id="DejaVuSans-55"/>
      </defs>
      <g transform="translate(226.53741 329.598437)scale(0.1 -0.1)">
       <use xlink:href="#DejaVuSans-55"/>
      </g>
     </g>
    </g>
    <g id="xtick_8">
     <g id="line2d_8">
      <g>
       <use style="stroke:#000000;stroke-width:0.8;" x="258.946297" xlink:href="#meaf83f2361" y="315"/>
      </g>
     </g>
     <g id="text_8">
      <!-- 8 -->
      <defs>
       <path d="M 31.78125 34.625 
Q 24.75 34.625 20.71875 30.859375 
Q 16.703125 27.09375 16.703125 20.515625 
Q 16.703125 13.921875 20.71875 10.15625 
Q 24.75 6.390625 31.78125 6.390625 
Q 38.8125 6.390625 42.859375 10.171875 
Q 46.921875 13.96875 46.921875 20.515625 
Q 46.921875 27.09375 42.890625 30.859375 
Q 38.875 34.625 31.78125 34.625 
z
M 21.921875 38.8125 
Q 15.578125 40.375 12.03125 44.71875 
Q 8.5 49.078125 8.5 55.328125 
Q 8.5 64.0625 14.71875 69.140625 
Q 20.953125 74.21875 31.78125 74.21875 
Q 42.671875 74.21875 48.875 69.140625 
Q 55.078125 64.0625 55.078125 55.328125 
Q 55.078125 49.078125 51.53125 44.71875 
Q 48 40.375 41.703125 38.8125 
Q 48.828125 37.15625 52.796875 32.3125 
Q 56.78125 27.484375 56.78125 20.515625 
Q 56.78125 9.90625 50.3125 4.234375 
Q 43.84375 -1.421875 31.78125 -1.421875 
Q 19.734375 -1.421875 13.25 4.234375 
Q 6.78125 9.90625 6.78125 20.515625 
Q 6.78125 27.484375 10.78125 32.3125 
Q 14.796875 37.15625 21.921875 38.8125 
z
M 18.3125 54.390625 
Q 18.3125 48.734375 21.84375 45.5625 
Q 25.390625 42.390625 31.78125 42.390625 
Q 38.140625 42.390625 41.71875 45.5625 
Q 45.3125 48.734375 45.3125 54.390625 
Q 45.3125 60.0625 41.71875 63.234375 
Q 38.140625 66.40625 31.78125 66.40625 
Q 25.390625 66.40625 21.84375 63.234375 
Q 18.3125 60.0625 18.3125 54.390625 
z
" id="DejaVuSans-56"/>
      </defs>
      <g transform="translate(255.765047 329.598437)scale(0.1 -0.1)">
       <use xlink:href="#DejaVuSans-56"/>
      </g>
     </g>
    </g>
    <g id="xtick_9">
     <g id="line2d_9">
      <g>
       <use style="stroke:#000000;stroke-width:0.8;" x="288.173933" xlink:href="#meaf83f2361" y="315"/>
      </g>
     </g>
     <g id="text_9">
      <!-- 9 -->
      <defs>
       <path d="M 10.984375 1.515625 
L 10.984375 10.5 
Q 14.703125 8.734375 18.5 7.8125 
Q 22.3125 6.890625 25.984375 6.890625 
Q 35.75 6.890625 40.890625 13.453125 
Q 46.046875 20.015625 46.78125 33.40625 
Q 43.953125 29.203125 39.59375 26.953125 
Q 35.25 24.703125 29.984375 24.703125 
Q 19.046875 24.703125 12.671875 31.3125 
Q 6.296875 37.9375 6.296875 49.421875 
Q 6.296875 60.640625 12.9375 67.421875 
Q 19.578125 74.21875 30.609375 74.21875 
Q 43.265625 74.21875 49.921875 64.515625 
Q 56.59375 54.828125 56.59375 36.375 
Q 56.59375 19.140625 48.40625 8.859375 
Q 40.234375 -1.421875 26.421875 -1.421875 
Q 22.703125 -1.421875 18.890625 -0.6875 
Q 15.09375 0.046875 10.984375 1.515625 
z
M 30.609375 32.421875 
Q 37.25 32.421875 41.125 36.953125 
Q 45.015625 41.5 45.015625 49.421875 
Q 45.015625 57.28125 41.125 61.84375 
Q 37.25 66.40625 30.609375 66.40625 
Q 23.96875 66.40625 20.09375 61.84375 
Q 16.21875 57.28125 16.21875 49.421875 
Q 16.21875 41.5 20.09375 36.953125 
Q 23.96875 32.421875 30.609375 32.421875 
z
" id="DejaVuSans-57"/>
      </defs>
      <g transform="translate(284.992683 329.598437)scale(0.1 -0.1)">
       <use xlink:href="#DejaVuSans-57"/>
      </g>
     </g>
    </g>
    <g id="xtick_10">
     <g id="line2d_10">
      <g>
       <use style="stroke:#000000;stroke-width:0.8;" x="317.401569" xlink:href="#meaf83f2361" y="315"/>
      </g>
     </g>
     <g id="text_10">
      <!-- 10 -->
      <defs>
       <path d="M 31.78125 66.40625 
Q 24.171875 66.40625 20.328125 58.90625 
Q 16.5 51.421875 16.5 36.375 
Q 16.5 21.390625 20.328125 13.890625 
Q 24.171875 6.390625 31.78125 6.390625 
Q 39.453125 6.390625 43.28125 13.890625 
Q 47.125 21.390625 47.125 36.375 
Q 47.125 51.421875 43.28125 58.90625 
Q 39.453125 66.40625 31.78125 66.40625 
z
M 31.78125 74.21875 
Q 44.046875 74.21875 50.515625 64.515625 
Q 56.984375 54.828125 56.984375 36.375 
Q 56.984375 17.96875 50.515625 8.265625 
Q 44.046875 -1.421875 31.78125 -1.421875 
Q 19.53125 -1.421875 13.0625 8.265625 
Q 6.59375 17.96875 6.59375 36.375 
Q 6.59375 54.828125 13.0625 64.515625 
Q 19.53125 74.21875 31.78125 74.21875 
z
" id="DejaVuSans-48"/>
      </defs>
      <g transform="translate(311.039069 329.598437)scale(0.1 -0.1)">
       <use xlink:href="#DejaVuSans-49"/>
       <use x="63.623047" xlink:href="#DejaVuSans-48"/>
      </g>
     </g>
    </g>
    <g id="text_11">
     <!-- Trials -->
     <defs>
      <path d="M -0.296875 72.90625 
L 61.375 72.90625 
L 61.375 64.59375 
L 35.5 64.59375 
L 35.5 0 
L 25.59375 0 
L 25.59375 64.59375 
L -0.296875 64.59375 
z
" id="DejaVuSans-84"/>
      <path d="M 41.109375 46.296875 
Q 39.59375 47.171875 37.8125 47.578125 
Q 36.03125 48 33.890625 48 
Q 26.265625 48 22.1875 43.046875 
Q 18.109375 38.09375 18.109375 28.8125 
L 18.109375 0 
L 9.078125 0 
L 9.078125 54.6875 
L 18.109375 54.6875 
L 18.109375 46.1875 
Q 20.953125 51.171875 25.484375 53.578125 
Q 30.03125 56 36.53125 56 
Q 37.453125 56 38.578125 55.875 
Q 39.703125 55.765625 41.0625 55.515625 
z
" id="DejaVuSans-114"/>
      <path d="M 9.421875 54.6875 
L 18.40625 54.6875 
L 18.40625 0 
L 9.421875 0 
z
M 9.421875 75.984375 
L 18.40625 75.984375 
L 18.40625 64.59375 
L 9.421875 64.59375 
z
" id="DejaVuSans-105"/>
      <path d="M 34.28125 27.484375 
Q 23.390625 27.484375 19.1875 25 
Q 14.984375 22.515625 14.984375 16.5 
Q 14.984375 11.71875 18.140625 8.90625 
Q 21.296875 6.109375 26.703125 6.109375 
Q 34.1875 6.109375 38.703125 11.40625 
Q 43.21875 16.703125 43.21875 25.484375 
L 43.21875 27.484375 
z
M 52.203125 31.203125 
L 52.203125 0 
L 43.21875 0 
L 43.21875 8.296875 
Q 40.140625 3.328125 35.546875 0.953125 
Q 30.953125 -1.421875 24.3125 -1.421875 
Q 15.921875 -1.421875 10.953125 3.296875 
Q 6 8.015625 6 15.921875 
Q 6 25.140625 12.171875 29.828125 
Q 18.359375 34.515625 30.609375 34.515625 
L 43.21875 34.515625 
L 43.21875 35.40625 
Q 43.21875 41.609375 39.140625 45 
Q 35.0625 48.390625 27.6875 48.390625 
Q 23 48.390625 18.546875 47.265625 
Q 14.109375 46.140625 10.015625 43.890625 
L 10.015625 52.203125 
Q 14.9375 54.109375 19.578125 55.046875 
Q 24.21875 56 28.609375 56 
Q 40.484375 56 46.34375 49.84375 
Q 52.203125 43.703125 52.203125 31.203125 
z
" id="DejaVuSans-97"/>
      <path d="M 9.421875 75.984375 
L 18.40625 75.984375 
L 18.40625 0 
L 9.421875 0 
z
" id="DejaVuSans-108"/>
      <path d="M 44.28125 53.078125 
L 44.28125 44.578125 
Q 40.484375 46.53125 36.375 47.5 
Q 32.28125 48.484375 27.875 48.484375 
Q 21.1875 48.484375 17.84375 46.4375 
Q 14.5 44.390625 14.5 40.28125 
Q 14.5 37.15625 16.890625 35.375 
Q 19.28125 33.59375 26.515625 31.984375 
L 29.59375 31.296875 
Q 39.15625 29.25 43.1875 25.515625 
Q 47.21875 21.78125 47.21875 15.09375 
Q 47.21875 7.46875 41.1875 3.015625 
Q 35.15625 -1.421875 24.609375 -1.421875 
Q 20.21875 -1.421875 15.453125 -0.5625 
Q 10.6875 0.296875 5.421875 2 
L 5.421875 11.28125 
Q 10.40625 8.6875 15.234375 7.390625 
Q 20.0625 6.109375 24.8125 6.109375 
Q 31.15625 6.109375 34.5625 8.28125 
Q 37.984375 10.453125 37.984375 14.40625 
Q 37.984375 18.0625 35.515625 20.015625 
Q 33.0625 21.96875 24.703125 23.78125 
L 21.578125 24.515625 
Q 13.234375 26.265625 9.515625 29.90625 
Q 5.8125 33.546875 5.8125 39.890625 
Q 5.8125 47.609375 11.28125 51.796875 
Q 16.75 56 26.8125 56 
Q 31.78125 56 36.171875 55.265625 
Q 40.578125 54.546875 44.28125 53.078125 
z
" id="DejaVuSans-115"/>
     </defs>
     <g transform="translate(160.118437 349.355313)scale(0.18 -0.18)">
      <use xlink:href="#DejaVuSans-84"/>
      <use x="60.865234" xlink:href="#DejaVuSans-114"/>
      <use x="101.978516" xlink:href="#DejaVuSans-105"/>
      <use x="129.761719" xlink:href="#DejaVuSans-97"/>
      <use x="191.041016" xlink:href="#DejaVuSans-108"/>
      <use x="218.824219" xlink:href="#DejaVuSans-115"/>
     </g>
    </g>
   </g>
   <g id="matplotlib.axis_2">
    <g id="ytick_1">
     <g id="line2d_11">
      <defs>
       <path d="M 0 0 
L -3.5 0 
" id="me04295a44d" style="stroke:#000000;stroke-width:0.8;"/>
      </defs>
      <g>
       <use style="stroke:#000000;stroke-width:0.8;" x="45" xlink:href="#me04295a44d" y="301.901205"/>
      </g>
     </g>
     <g id="text_12">
      <!-- 0 -->
      <g transform="translate(31.6375 305.700424)scale(0.1 -0.1)">
       <use xlink:href="#DejaVuSans-48"/>
      </g>
     </g>
    </g>
    <g id="ytick_2">
     <g id="line2d_12">
      <g>
       <use style="stroke:#000000;stroke-width:0.8;" x="45" xlink:href="#me04295a44d" y="260.96747"/>
      </g>
     </g>
     <g id="text_13">
      <!-- 1 -->
      <g transform="translate(31.6375 264.766689)scale(0.1 -0.1)">
       <use xlink:href="#DejaVuSans-49"/>
      </g>
     </g>
    </g>
    <g id="ytick_3">
     <g id="line2d_13">
      <g>
       <use style="stroke:#000000;stroke-width:0.8;" x="45" xlink:href="#me04295a44d" y="220.033735"/>
      </g>
     </g>
     <g id="text_14">
      <!-- 2 -->
      <g transform="translate(31.6375 223.832954)scale(0.1 -0.1)">
       <use xlink:href="#DejaVuSans-50"/>
      </g>
     </g>
    </g>
    <g id="ytick_4">
     <g id="line2d_14">
      <g>
       <use style="stroke:#000000;stroke-width:0.8;" x="45" xlink:href="#me04295a44d" y="179.1"/>
      </g>
     </g>
     <g id="text_15">
      <!-- 3 -->
      <g transform="translate(31.6375 182.899219)scale(0.1 -0.1)">
       <use xlink:href="#DejaVuSans-51"/>
      </g>
     </g>
    </g>
    <g id="ytick_5">
     <g id="line2d_15">
      <g>
       <use style="stroke:#000000;stroke-width:0.8;" x="45" xlink:href="#me04295a44d" y="138.166265"/>
      </g>
     </g>
     <g id="text_16">
      <!-- 4 -->
      <g transform="translate(31.6375 141.965484)scale(0.1 -0.1)">
       <use xlink:href="#DejaVuSans-52"/>
      </g>
     </g>
    </g>
    <g id="ytick_6">
     <g id="line2d_16">
      <g>
       <use style="stroke:#000000;stroke-width:0.8;" x="45" xlink:href="#me04295a44d" y="97.23253"/>
      </g>
     </g>
     <g id="text_17">
      <!-- 5 -->
      <g transform="translate(31.6375 101.031749)scale(0.1 -0.1)">
       <use xlink:href="#DejaVuSans-53"/>
      </g>
     </g>
    </g>
    <g id="ytick_7">
     <g id="line2d_17">
      <g>
       <use style="stroke:#000000;stroke-width:0.8;" x="45" xlink:href="#me04295a44d" y="56.298795"/>
      </g>
     </g>
     <g id="text_18">
      <!-- 6 -->
      <g transform="translate(31.6375 60.098014)scale(0.1 -0.1)">
       <use xlink:href="#DejaVuSans-54"/>
      </g>
     </g>
    </g>
    <g id="text_19">
     <!-- Run lengths -->
     <defs>
      <path d="M 44.390625 34.1875 
Q 47.5625 33.109375 50.5625 29.59375 
Q 53.5625 26.078125 56.59375 19.921875 
L 66.609375 0 
L 56 0 
L 46.6875 18.703125 
Q 43.0625 26.03125 39.671875 28.421875 
Q 36.28125 30.8125 30.421875 30.8125 
L 19.671875 30.8125 
L 19.671875 0 
L 9.8125 0 
L 9.8125 72.90625 
L 32.078125 72.90625 
Q 44.578125 72.90625 50.734375 67.671875 
Q 56.890625 62.453125 56.890625 51.90625 
Q 56.890625 45.015625 53.6875 40.46875 
Q 50.484375 35.9375 44.390625 34.1875 
z
M 19.671875 64.796875 
L 19.671875 38.921875 
L 32.078125 38.921875 
Q 39.203125 38.921875 42.84375 42.21875 
Q 46.484375 45.515625 46.484375 51.90625 
Q 46.484375 58.296875 42.84375 61.546875 
Q 39.203125 64.796875 32.078125 64.796875 
z
" id="DejaVuSans-82"/>
      <path d="M 8.5 21.578125 
L 8.5 54.6875 
L 17.484375 54.6875 
L 17.484375 21.921875 
Q 17.484375 14.15625 20.5 10.265625 
Q 23.53125 6.390625 29.59375 6.390625 
Q 36.859375 6.390625 41.078125 11.03125 
Q 45.3125 15.671875 45.3125 23.6875 
L 45.3125 54.6875 
L 54.296875 54.6875 
L 54.296875 0 
L 45.3125 0 
L 45.3125 8.40625 
Q 42.046875 3.421875 37.71875 1 
Q 33.40625 -1.421875 27.6875 -1.421875 
Q 18.265625 -1.421875 13.375 4.4375 
Q 8.5 10.296875 8.5 21.578125 
z
M 31.109375 56 
z
" id="DejaVuSans-117"/>
      <path d="M 54.890625 33.015625 
L 54.890625 0 
L 45.90625 0 
L 45.90625 32.71875 
Q 45.90625 40.484375 42.875 44.328125 
Q 39.84375 48.1875 33.796875 48.1875 
Q 26.515625 48.1875 22.3125 43.546875 
Q 18.109375 38.921875 18.109375 30.90625 
L 18.109375 0 
L 9.078125 0 
L 9.078125 54.6875 
L 18.109375 54.6875 
L 18.109375 46.1875 
Q 21.34375 51.125 25.703125 53.5625 
Q 30.078125 56 35.796875 56 
Q 45.21875 56 50.046875 50.171875 
Q 54.890625 44.34375 54.890625 33.015625 
z
" id="DejaVuSans-110"/>
      <path id="DejaVuSans-32"/>
      <path d="M 56.203125 29.59375 
L 56.203125 25.203125 
L 14.890625 25.203125 
Q 15.484375 15.921875 20.484375 11.0625 
Q 25.484375 6.203125 34.421875 6.203125 
Q 39.59375 6.203125 44.453125 7.46875 
Q 49.3125 8.734375 54.109375 11.28125 
L 54.109375 2.78125 
Q 49.265625 0.734375 44.1875 -0.34375 
Q 39.109375 -1.421875 33.890625 -1.421875 
Q 20.796875 -1.421875 13.15625 6.1875 
Q 5.515625 13.8125 5.515625 26.8125 
Q 5.515625 40.234375 12.765625 48.109375 
Q 20.015625 56 32.328125 56 
Q 43.359375 56 49.78125 48.890625 
Q 56.203125 41.796875 56.203125 29.59375 
z
M 47.21875 32.234375 
Q 47.125 39.59375 43.09375 43.984375 
Q 39.0625 48.390625 32.421875 48.390625 
Q 24.90625 48.390625 20.390625 44.140625 
Q 15.875 39.890625 15.1875 32.171875 
z
" id="DejaVuSans-101"/>
      <path d="M 45.40625 27.984375 
Q 45.40625 37.75 41.375 43.109375 
Q 37.359375 48.484375 30.078125 48.484375 
Q 22.859375 48.484375 18.828125 43.109375 
Q 14.796875 37.75 14.796875 27.984375 
Q 14.796875 18.265625 18.828125 12.890625 
Q 22.859375 7.515625 30.078125 7.515625 
Q 37.359375 7.515625 41.375 12.890625 
Q 45.40625 18.265625 45.40625 27.984375 
z
M 54.390625 6.78125 
Q 54.390625 -7.171875 48.1875 -13.984375 
Q 42 -20.796875 29.203125 -20.796875 
Q 24.46875 -20.796875 20.265625 -20.09375 
Q 16.0625 -19.390625 12.109375 -17.921875 
L 12.109375 -9.1875 
Q 16.0625 -11.328125 19.921875 -12.34375 
Q 23.78125 -13.375 27.78125 -13.375 
Q 36.625 -13.375 41.015625 -8.765625 
Q 45.40625 -4.15625 45.40625 5.171875 
L 45.40625 9.625 
Q 42.625 4.78125 38.28125 2.390625 
Q 33.9375 0 27.875 0 
Q 17.828125 0 11.671875 7.65625 
Q 5.515625 15.328125 5.515625 27.984375 
Q 5.515625 40.671875 11.671875 48.328125 
Q 17.828125 56 27.875 56 
Q 33.9375 56 38.28125 53.609375 
Q 42.625 51.21875 45.40625 46.390625 
L 45.40625 54.6875 
L 54.390625 54.6875 
z
" id="DejaVuSans-103"/>
      <path d="M 18.3125 70.21875 
L 18.3125 54.6875 
L 36.8125 54.6875 
L 36.8125 47.703125 
L 18.3125 47.703125 
L 18.3125 18.015625 
Q 18.3125 11.328125 20.140625 9.421875 
Q 21.96875 7.515625 27.59375 7.515625 
L 36.8125 7.515625 
L 36.8125 0 
L 27.59375 0 
Q 17.1875 0 13.234375 3.875 
Q 9.28125 7.765625 9.28125 18.015625 
L 9.28125 47.703125 
L 2.6875 47.703125 
L 2.6875 54.6875 
L 9.28125 54.6875 
L 9.28125 70.21875 
z
" id="DejaVuSans-116"/>
      <path d="M 54.890625 33.015625 
L 54.890625 0 
L 45.90625 0 
L 45.90625 32.71875 
Q 45.90625 40.484375 42.875 44.328125 
Q 39.84375 48.1875 33.796875 48.1875 
Q 26.515625 48.1875 22.3125 43.546875 
Q 18.109375 38.921875 18.109375 30.90625 
L 18.109375 0 
L 9.078125 0 
L 9.078125 75.984375 
L 18.109375 75.984375 
L 18.109375 46.1875 
Q 21.34375 51.125 25.703125 53.5625 
Q 30.078125 56 35.796875 56 
Q 45.21875 56 50.046875 50.171875 
Q 54.890625 44.34375 54.890625 33.015625 
z
" id="DejaVuSans-104"/>
     </defs>
     <g transform="translate(23.894062 232.991719)rotate(-90)scale(0.18 -0.18)">
      <use xlink:href="#DejaVuSans-82"/>
      <use x="69.419922" xlink:href="#DejaVuSans-117"/>
      <use x="132.798828" xlink:href="#DejaVuSans-110"/>
      <use x="196.177734" xlink:href="#DejaVuSans-32"/>
      <use x="227.964844" xlink:href="#DejaVuSans-108"/>
      <use x="255.748047" xlink:href="#DejaVuSans-101"/>
      <use x="317.271484" xlink:href="#DejaVuSans-110"/>
      <use x="380.650391" xlink:href="#DejaVuSans-103"/>
      <use x="444.126953" xlink:href="#DejaVuSans-116"/>
      <use x="483.335938" xlink:href="#DejaVuSans-104"/>
      <use x="546.714844" xlink:href="#DejaVuSans-115"/>
     </g>
    </g>
   </g>
   <g id="patch_15">
    <path d="M 45 315 
L 45 43.2 
" style="fill:none;stroke:#000000;stroke-linecap:square;stroke-linejoin:miter;stroke-width:0.8;"/>
   </g>
   <g id="patch_16">
    <path d="M 324 315 
L 324 43.2 
" style="fill:none;stroke:#000000;stroke-linecap:square;stroke-linejoin:miter;stroke-width:0.8;"/>
   </g>
   <g id="patch_17">
    <path d="M 45 315 
L 324 315 
" style="fill:none;stroke:#000000;stroke-linecap:square;stroke-linejoin:miter;stroke-width:0.8;"/>
   </g>
   <g id="patch_18">
    <path d="M 45 43.2 
L 324 43.2 
" style="fill:none;stroke:#000000;stroke-linecap:square;stroke-linejoin:miter;stroke-width:0.8;"/>
   </g>
  </g>
 </g>
 <defs>
  <clipPath id="pa53bfe4a64">
   <rect height="271.8" width="279" x="45" y="43.2"/>
  </clipPath>
 </defs>
</svg>
