<?xml version="1.0" encoding="utf-8" standalone="no"?>
<!DOCTYPE svg PUBLIC "-//W3C//DTD SVG 1.1//EN"
  "http://www.w3.org/Graphics/SVG/1.1/DTD/svg11.dtd">
<!-- Created with matplotlib (https://matplotlib.org/) -->
<svg height="1080pt" version="1.1" viewBox="0 0 1080 1080" width="1080pt" xmlns="http://www.w3.org/2000/svg" xmlns:xlink="http://www.w3.org/1999/xlink">
 <defs>
  <style type="text/css">
*{stroke-linecap:butt;stroke-linejoin:round;}
  </style>
 </defs>
 <g id="figure_1">
  <g id="patch_1">
   <path d="M 0 1080 
L 1080 1080 
L 1080 0 
L 0 0 
z
" style="fill:#ffffff;"/>
  </g>
  <g id="axes_1">
   <g id="patch_2">
    <path d="M 115.401282 967.739343 
L 1073.49976 967.739343 
L 1073.49976 6.50024 
L 115.401282 6.50024 
z
" style="fill:#ffffff;"/>
   </g>
   <g id="PathCollection_1">
    <path clip-path="url(#p4add180250)" d="M 115.401282 870.644484 
L 115.401282 860.934999 
L 115.401282 851.225513 
L 115.401282 841.516027 
L 115.401282 831.806541 
L 115.401282 822.097055 
L 115.401282 812.387569 
L 115.401282 802.678083 
L 115.401282 792.968597 
L 115.401282 783.259111 
L 115.401282 773.549625 
L 115.401282 763.84014 
L 115.401282 754.130654 
L 115.401282 744.421168 
L 115.401282 734.711682 
L 115.401282 725.002196 
L 115.401282 715.29271 
L 115.401282 705.583224 
L 115.401282 695.873738 
L 115.401282 686.164252 
L 115.401282 676.454767 
L 115.401282 666.745281 
L 115.401282 657.035795 
L 115.401282 647.326309 
L 115.401282 637.616823 
L 115.401282 627.907337 
L 115.401282 618.197851 
L 115.401282 608.488365 
L 115.401282 598.778879 
L 115.401282 589.069394 
L 115.401282 579.359908 
L 115.401282 569.650422 
L 115.401282 559.940936 
L 115.401282 550.23145 
L 115.401282 540.521964 
L 115.401282 530.812478 
L 115.401282 521.102992 
L 115.401282 511.393506 
L 115.401282 501.684021 
L 115.401282 491.974535 
L 115.401282 482.265049 
L 115.401282 472.555563 
L 115.401282 462.846077 
L 115.401282 453.136591 
L 115.401282 443.427105 
L 115.401282 433.717619 
L 115.401282 424.008133 
L 115.401282 414.298647 
L 115.401282 404.589162 
L 115.401282 394.879676 
L 115.401282 385.17019 
L 115.401282 375.460704 
L 115.401282 365.751218 
L 115.401282 356.041732 
L 115.401282 346.332246 
L 115.401282 336.62276 
L 115.401282 326.913274 
L 115.401282 317.203789 
L 115.401282 307.494303 
L 115.401282 297.784817 
L 115.401282 288.075331 
L 115.401282 278.365845 
L 115.401282 268.656359 
L 115.401282 258.946873 
L 115.401282 249.237387 
L 115.401282 239.527901 
L 115.401282 229.818416 
L 115.401282 220.10893 
L 115.401282 210.399444 
L 115.401282 200.689958 
L 115.401282 190.980472 
L 115.401282 181.270986 
L 115.401282 171.5615 
L 115.401282 161.852014 
L 115.401282 152.142528 
L 115.401282 142.433042 
L 115.401282 132.723557 
L 115.401282 123.014071 
L 115.401282 113.304585 
L 115.401282 103.595099 
L 115.401282 93.885613 
L 115.401282 84.176127 
L 115.401282 74.466641 
L 115.401282 64.757155 
L 115.401282 55.047669 
L 115.401282 45.338184 
L 115.401282 35.628698 
L 115.401282 25.919212 
L 115.401282 16.209726 
L 115.401282 6.50024 
L 125.079044 6.50024 
L 134.756806 6.50024 
L 144.434569 6.50024 
L 154.112331 6.50024 
L 163.790094 6.50024 
L 173.467856 6.50024 
L 183.145619 6.50024 
L 192.823381 6.50024 
L 202.501143 6.50024 
L 212.178906 6.50024 
L 221.856668 6.50024 
L 231.534431 6.50024 
L 241.212193 6.50024 
L 250.889955 6.50024 
L 260.567718 6.50024 
L 270.24548 6.50024 
L 279.923243 6.50024 
L 289.601005 6.50024 
L 299.278767 6.50024 
L 308.95653 6.50024 
L 318.634292 6.50024 
L 328.312055 6.50024 
L 337.989817 6.50024 
L 347.667579 6.50024 
L 357.345342 6.50024 
L 367.023104 6.50024 
L 376.700867 6.50024 
L 386.378629 6.50024 
L 396.056391 6.50024 
L 405.734154 6.50024 
L 415.411916 6.50024 
L 425.089679 6.50024 
L 434.767441 6.50024 
L 444.445204 6.50024 
L 454.122966 6.50024 
L 463.800728 6.50024 
L 473.478491 6.50024 
L 483.156253 6.50024 
L 492.834016 6.50024 
L 502.511778 6.50024 
L 512.18954 6.50024 
L 521.867303 6.50024 
L 531.545065 6.50024 
L 541.222828 6.50024 
L 550.90059 6.50024 
L 560.578352 6.50024 
L 570.256115 6.50024 
L 579.933877 6.50024 
L 589.61164 6.50024 
L 599.289402 6.50024 
L 608.967164 6.50024 
L 618.644927 6.50024 
L 628.322689 6.50024 
L 638.000452 6.50024 
L 647.678214 6.50024 
L 657.355976 6.50024 
L 667.033739 6.50024 
L 676.711501 6.50024 
L 686.389264 6.50024 
L 696.067026 6.50024 
L 705.744789 6.50024 
L 715.422551 6.50024 
L 725.100313 6.50024 
L 734.778076 6.50024 
L 744.455838 6.50024 
L 754.133601 6.50024 
L 763.811363 6.50024 
L 773.489125 6.50024 
L 783.166888 6.50024 
L 792.84465 6.50024 
L 802.522413 6.50024 
L 812.200175 6.50024 
L 821.877937 6.50024 
L 831.5557 6.50024 
L 841.233462 6.50024 
L 850.911225 6.50024 
L 860.588987 6.50024 
L 870.266749 6.50024 
L 870.475939 6.50024 
L 870.266749 6.673828 
L 860.588987 13.916024 
L 857.252058 16.209726 
L 850.911225 21.14413 
L 844.245433 25.919212 
L 841.233462 28.468273 
L 832.100355 35.628698 
L 831.5557 36.162962 
L 821.877937 45.001092 
L 821.486706 45.338184 
L 813.354966 55.047669 
L 812.200175 57.152628 
L 807.831165 64.757155 
L 804.680413 74.466641 
L 803.153562 84.176127 
L 802.720654 93.885613 
L 803.13926 103.595099 
L 804.347055 113.304585 
L 806.417951 123.014071 
L 809.556342 132.723557 
L 812.200175 138.567411 
L 814.193766 142.433042 
L 821.313771 152.142528 
L 821.877937 152.747624 
L 831.5557 160.130473 
L 835.338726 161.852014 
L 841.233462 164.236165 
L 850.911225 166.401236 
L 860.588987 167.34713 
L 870.266749 167.501298 
L 879.944512 167.092882 
L 889.622274 166.221261 
L 899.300037 164.908124 
L 908.977799 163.137008 
L 914.411837 161.852014 
L 918.655561 160.970257 
L 928.333324 158.472783 
L 938.011086 155.513503 
L 947.476309 152.142528 
L 947.688849 152.076128 
L 957.366611 148.581671 
L 967.044374 144.677025 
L 972.0535 142.433042 
L 976.722136 140.600473 
L 986.399898 136.478961 
L 994.550357 132.723557 
L 996.077661 132.108827 
L 1005.755423 128.039519 
L 1015.433186 123.736438 
L 1017.031461 123.014071 
L 1025.110948 119.862739 
L 1034.78871 116.008264 
L 1041.513845 113.304585 
L 1044.466473 112.294135 
L 1054.144235 109.093881 
L 1063.821998 105.935685 
L 1071.274115 103.595099 
L 1073.49976 103.01443 
L 1073.49976 103.595099 
L 1073.49976 113.304585 
L 1073.49976 123.014071 
L 1073.49976 132.723557 
L 1073.49976 142.433042 
L 1073.49976 152.142528 
L 1073.49976 161.852014 
L 1073.49976 171.5615 
L 1073.49976 181.270986 
L 1073.49976 190.980472 
L 1073.49976 200.689958 
L 1073.49976 210.399444 
L 1073.49976 220.10893 
L 1073.49976 229.818416 
L 1073.49976 239.527901 
L 1073.49976 249.237387 
L 1073.49976 258.946873 
L 1073.49976 268.656359 
L 1073.49976 278.365845 
L 1073.49976 288.075331 
L 1073.49976 297.784817 
L 1073.49976 307.494303 
L 1073.49976 317.203789 
L 1073.49976 326.913274 
L 1073.49976 336.62276 
L 1073.49976 346.332246 
L 1073.49976 356.041732 
L 1073.49976 365.751218 
L 1073.49976 375.460704 
L 1073.49976 385.17019 
L 1073.49976 394.879676 
L 1073.49976 404.589162 
L 1073.49976 414.298647 
L 1073.49976 424.008133 
L 1073.49976 433.717619 
L 1073.49976 443.427105 
L 1073.49976 453.136591 
L 1073.49976 462.846077 
L 1073.49976 472.555563 
L 1073.49976 482.265049 
L 1073.49976 491.974535 
L 1073.49976 501.684021 
L 1073.49976 511.393506 
L 1073.49976 521.102992 
L 1073.49976 530.812478 
L 1073.49976 540.521964 
L 1073.49976 550.23145 
L 1073.49976 559.940936 
L 1073.49976 569.650422 
L 1073.49976 579.359908 
L 1073.49976 589.069394 
L 1073.49976 598.778879 
L 1073.49976 608.488365 
L 1073.49976 618.197851 
L 1073.49976 627.907337 
L 1073.49976 637.616823 
L 1073.49976 647.326309 
L 1073.49976 657.035795 
L 1073.49976 666.745281 
L 1073.49976 676.454767 
L 1073.49976 686.164252 
L 1073.49976 695.873738 
L 1073.49976 705.583224 
L 1073.49976 715.29271 
L 1073.49976 725.002196 
L 1073.49976 734.711682 
L 1073.49976 744.421168 
L 1073.49976 754.130654 
L 1073.49976 763.84014 
L 1073.49976 773.549625 
L 1073.49976 783.259111 
L 1073.49976 792.968597 
L 1073.49976 802.678083 
L 1073.49976 812.387569 
L 1073.49976 822.097055 
L 1073.49976 831.806541 
L 1073.49976 841.516027 
L 1073.49976 851.225513 
L 1073.49976 860.934999 
L 1073.49976 870.644484 
L 1073.49976 880.35397 
L 1073.49976 890.063456 
L 1073.49976 899.772942 
L 1073.49976 909.482428 
L 1073.49976 919.191914 
L 1073.49976 928.9014 
L 1073.49976 938.610886 
L 1073.49976 948.320372 
L 1073.49976 958.029857 
L 1073.49976 967.739343 
L 1063.821998 967.739343 
L 1054.144235 967.739343 
L 1044.466473 967.739343 
L 1034.78871 967.739343 
L 1025.110948 967.739343 
L 1015.433186 967.739343 
L 1005.755423 967.739343 
L 996.077661 967.739343 
L 986.399898 967.739343 
L 976.722136 967.739343 
L 967.044374 967.739343 
L 957.366611 967.739343 
L 947.688849 967.739343 
L 938.011086 967.739343 
L 928.333324 967.739343 
L 918.655561 967.739343 
L 908.977799 967.739343 
L 899.300037 967.739343 
L 889.622274 967.739343 
L 879.944512 967.739343 
L 870.266749 967.739343 
L 860.588987 967.739343 
L 850.911225 967.739343 
L 841.233462 967.739343 
L 831.5557 967.739343 
L 821.877937 967.739343 
L 812.200175 967.739343 
L 802.522413 967.739343 
L 792.84465 967.739343 
L 783.166888 967.739343 
L 773.489125 967.739343 
L 763.811363 967.739343 
L 754.133601 967.739343 
L 744.455838 967.739343 
L 734.778076 967.739343 
L 725.100313 967.739343 
L 715.422551 967.739343 
L 705.744789 967.739343 
L 696.067026 967.739343 
L 686.389264 967.739343 
L 676.711501 967.739343 
L 667.033739 967.739343 
L 657.355976 967.739343 
L 647.678214 967.739343 
L 638.000452 967.739343 
L 628.322689 967.739343 
L 618.644927 967.739343 
L 608.967164 967.739343 
L 599.289402 967.739343 
L 589.61164 967.739343 
L 579.933877 967.739343 
L 570.256115 967.739343 
L 560.578352 967.739343 
L 550.90059 967.739343 
L 541.222828 967.739343 
L 531.545065 967.739343 
L 521.867303 967.739343 
L 512.18954 967.739343 
L 502.511778 967.739343 
L 492.834016 967.739343 
L 483.156253 967.739343 
L 473.478491 967.739343 
L 463.800728 967.739343 
L 454.122966 967.739343 
L 444.445204 967.739343 
L 434.767441 967.739343 
L 425.089679 967.739343 
L 415.411916 967.739343 
L 405.734154 967.739343 
L 396.056391 967.739343 
L 386.378629 967.739343 
L 376.700867 967.739343 
L 367.023104 967.739343 
L 357.345342 967.739343 
L 347.667579 967.739343 
L 337.989817 967.739343 
L 328.312055 967.739343 
L 318.634292 967.739343 
L 308.95653 967.739343 
L 299.278767 967.739343 
L 289.601005 967.739343 
L 280.387622 967.739343 
L 289.601005 960.747162 
L 293.176023 958.029857 
L 299.278767 952.777988 
L 304.468126 948.320372 
L 308.95653 943.841098 
L 314.240898 938.610886 
L 318.634292 933.414109 
L 322.510227 928.9014 
L 328.312055 920.568803 
L 329.293047 919.191914 
L 334.63967 909.482428 
L 337.989817 900.937022 
L 338.466748 899.772942 
L 340.788143 890.063456 
L 341.513578 880.35397 
L 340.586739 870.644484 
L 338.000029 860.934999 
L 337.989817 860.909824 
L 334.231087 851.225513 
L 329.30157 841.516027 
L 328.312055 839.832248 
L 323.966349 831.806541 
L 318.634292 823.26293 
L 317.918778 822.097055 
L 311.083954 812.387569 
L 308.95653 809.775526 
L 301.64532 802.678083 
L 299.278767 800.783339 
L 289.601005 796.23184 
L 279.923243 795.047814 
L 270.24548 796.152069 
L 260.567718 798.823834 
L 250.889955 802.6757 
L 250.885441 802.678083 
L 241.212193 807.089657 
L 231.534431 812.229232 
L 231.275673 812.387569 
L 221.856668 817.477013 
L 214.142637 822.097055 
L 212.178906 823.142958 
L 202.501143 828.73012 
L 197.527373 831.806541 
L 192.823381 834.408427 
L 183.145619 840.041127 
L 180.694922 841.516027 
L 173.467856 845.389217 
L 163.790094 850.799331 
L 163.028529 851.225513 
L 154.112331 855.614679 
L 144.434569 860.5571 
L 143.680932 860.934999 
L 134.756806 864.800924 
L 125.079044 869.080681 
L 121.491584 870.644484 
L 115.401282 872.889716 
z
" style="fill:none;"/>
   </g>
   <g id="PathCollection_2">
    <path clip-path="url(#p4add180250)" d="M 115.401282 899.772942 
L 115.401282 890.063456 
L 115.401282 880.35397 
L 115.401282 872.889716 
L 121.491584 870.644484 
L 125.079044 869.080681 
L 134.756806 864.800924 
L 143.680932 860.934999 
L 144.434569 860.5571 
L 154.112331 855.614679 
L 163.028529 851.225513 
L 163.790094 850.799331 
L 173.467856 845.389217 
L 180.694922 841.516027 
L 183.145619 840.041127 
L 192.823381 834.408427 
L 197.527373 831.806541 
L 202.501143 828.73012 
L 212.178906 823.142958 
L 214.142637 822.097055 
L 221.856668 817.477013 
L 231.275673 812.387569 
L 231.534431 812.229232 
L 241.212193 807.089657 
L 250.885441 802.678083 
L 250.889955 802.6757 
L 260.567718 798.823834 
L 270.24548 796.152069 
L 279.923243 795.047814 
L 289.601005 796.23184 
L 299.278767 800.783339 
L 301.64532 802.678083 
L 308.95653 809.775526 
L 311.083954 812.387569 
L 317.918778 822.097055 
L 318.634292 823.26293 
L 323.966349 831.806541 
L 328.312055 839.832248 
L 329.30157 841.516027 
L 334.231087 851.225513 
L 337.989817 860.909824 
L 338.000029 860.934999 
L 340.586739 870.644484 
L 341.513578 880.35397 
L 340.788143 890.063456 
L 338.466748 899.772942 
L 337.989817 900.937022 
L 334.63967 909.482428 
L 329.293047 919.191914 
L 328.312055 920.568803 
L 322.510227 928.9014 
L 318.634292 933.414109 
L 314.240898 938.610886 
L 308.95653 943.841098 
L 304.468126 948.320372 
L 299.278767 952.777988 
L 293.176023 958.029857 
L 289.601005 960.747162 
L 280.387622 967.739343 
L 279.923243 967.739343 
L 270.24548 967.739343 
L 260.567718 967.739343 
L 250.889955 967.739343 
L 241.212193 967.739343 
L 231.534431 967.739343 
L 221.856668 967.739343 
L 215.182133 967.739343 
L 221.856668 958.534637 
L 222.268553 958.029857 
L 229.054324 948.320372 
L 231.534431 944.021729 
L 235.038946 938.610886 
L 240.014158 928.9014 
L 241.212193 925.732957 
L 243.975026 919.191914 
L 246.55664 909.482428 
L 247.515309 899.772942 
L 246.3404 890.063456 
L 241.739481 880.35397 
L 241.212193 879.755913 
L 231.534431 873.452012 
L 221.856668 871.674782 
L 212.178906 872.223349 
L 202.501143 874.011121 
L 192.823381 876.506537 
L 183.145619 879.457166 
L 180.615205 880.35397 
L 173.467856 882.632586 
L 163.790094 885.863489 
L 154.112331 889.176535 
L 151.634762 890.063456 
L 144.434569 892.323745 
L 134.756806 895.346843 
L 125.079044 898.370984 
L 120.646881 899.772942 
L 115.401282 901.180436 
z
" style="fill:url(#h466363299f);"/>
    <path clip-path="url(#p4add180250)" d="M 809.556342 132.723557 
L 806.417951 123.014071 
L 804.347055 113.304585 
L 803.13926 103.595099 
L 802.720654 93.885613 
L 803.153562 84.176127 
L 804.680413 74.466641 
L 807.831165 64.757155 
L 812.200175 57.152628 
L 813.354966 55.047669 
L 821.486706 45.338184 
L 821.877937 45.001092 
L 831.5557 36.162962 
L 832.100355 35.628698 
L 841.233462 28.468273 
L 844.245433 25.919212 
L 850.911225 21.14413 
L 857.252058 16.209726 
L 860.588987 13.916024 
L 870.266749 6.673828 
L 870.475939 6.50024 
L 879.944512 6.50024 
L 889.622274 6.50024 
L 899.300037 6.50024 
L 908.977799 6.50024 
L 918.655561 6.50024 
L 928.333324 6.50024 
L 932.923824 6.50024 
L 928.333324 12.747989 
L 925.524335 16.209726 
L 918.777573 25.919212 
L 918.655561 26.143233 
L 912.855883 35.628698 
L 908.977799 43.783308 
L 908.149767 45.338184 
L 905.161073 55.047669 
L 904.70034 64.757155 
L 908.499028 74.466641 
L 908.977799 74.988497 
L 918.655561 82.391675 
L 922.22767 84.176127 
L 928.333324 86.294374 
L 938.011086 88.682607 
L 947.688849 90.188203 
L 957.366611 90.931007 
L 967.044374 90.989328 
L 976.722136 90.446704 
L 986.399898 89.397161 
L 996.077661 87.933691 
L 1005.755423 86.136855 
L 1014.913052 84.176127 
L 1015.433186 84.078804 
L 1025.110948 82.037214 
L 1034.78871 79.923321 
L 1044.466473 77.757591 
L 1054.144235 75.552232 
L 1058.844308 74.466641 
L 1063.821998 73.5062 
L 1073.49976 71.67687 
L 1073.49976 74.466641 
L 1073.49976 84.176127 
L 1073.49976 93.885613 
L 1073.49976 103.01443 
L 1071.274115 103.595099 
L 1063.821998 105.935685 
L 1054.144235 109.093881 
L 1044.466473 112.294135 
L 1041.513845 113.304585 
L 1034.78871 116.008264 
L 1025.110948 119.862739 
L 1017.031461 123.014071 
L 1015.433186 123.736438 
L 1005.755423 128.039519 
L 996.077661 132.108827 
L 994.550357 132.723557 
L 986.399898 136.478961 
L 976.722136 140.600473 
L 972.0535 142.433042 
L 967.044374 144.677025 
L 957.366611 148.581671 
L 947.688849 152.076128 
L 947.476309 152.142528 
L 938.011086 155.513503 
L 928.333324 158.472783 
L 918.655561 160.970257 
L 914.411837 161.852014 
L 908.977799 163.137008 
L 899.300037 164.908124 
L 889.622274 166.221261 
L 879.944512 167.092882 
L 870.266749 167.501298 
L 860.588987 167.34713 
L 850.911225 166.401236 
L 841.233462 164.236165 
L 835.338726 161.852014 
L 831.5557 160.130473 
L 821.877937 152.747624 
L 821.313771 152.142528 
L 814.193766 142.433042 
L 812.200175 138.567411 
z
" style="fill:url(#h466363299f);"/>
   </g>
   <g id="PathCollection_3">
    <path clip-path="url(#p4add180250)" d="M 115.401282 919.191914 
L 115.401282 909.482428 
L 115.401282 901.180436 
L 120.646881 899.772942 
L 125.079044 898.370984 
L 134.756806 895.346843 
L 144.434569 892.323745 
L 151.634762 890.063456 
L 154.112331 889.176535 
L 163.790094 885.863489 
L 173.467856 882.632586 
L 180.615205 880.35397 
L 183.145619 879.457166 
L 192.823381 876.506537 
L 202.501143 874.011121 
L 212.178906 872.223349 
L 221.856668 871.674782 
L 231.534431 873.452012 
L 241.212193 879.755913 
L 241.739481 880.35397 
L 246.3404 890.063456 
L 247.515309 899.772942 
L 246.55664 909.482428 
L 243.975026 919.191914 
L 241.212193 925.732957 
L 240.014158 928.9014 
L 235.038946 938.610886 
L 231.534431 944.021729 
L 229.054324 948.320372 
L 222.268553 958.029857 
L 221.856668 958.534637 
L 215.182133 967.739343 
L 212.178906 967.739343 
L 202.501143 967.739343 
L 192.823381 967.739343 
L 184.722709 967.739343 
L 188.853964 958.029857 
L 191.949027 948.320372 
L 192.823381 942.87399 
L 193.638794 938.610886 
L 192.856159 928.9014 
L 192.823381 928.825226 
L 185.741832 919.191914 
L 183.145619 917.714267 
L 173.467856 915.025526 
L 163.790094 914.359173 
L 154.112331 914.710002 
L 144.434569 915.619462 
L 134.756806 916.86476 
L 125.079044 918.336394 
L 120.179321 919.191914 
L 115.401282 919.902392 
z
" style="fill:url(#h85ad0b6d0e);"/>
    <path clip-path="url(#p4add180250)" d="M 908.499028 74.466641 
L 904.70034 64.757155 
L 905.161073 55.047669 
L 908.149767 45.338184 
L 908.977799 43.783308 
L 912.855883 35.628698 
L 918.655561 26.143233 
L 918.777573 25.919212 
L 925.524335 16.209726 
L 928.333324 12.747989 
L 932.923824 6.50024 
L 938.011086 6.50024 
L 947.688849 6.50024 
L 957.366611 6.50024 
L 967.044374 6.50024 
L 975.053152 6.50024 
L 972.651729 16.209726 
L 972.242884 25.919212 
L 974.849654 35.628698 
L 976.722136 38.422786 
L 982.857009 45.338184 
L 986.399898 47.622717 
L 996.077661 51.918537 
L 1005.755423 54.295865 
L 1011.787628 55.047669 
L 1015.433186 55.425458 
L 1025.110948 55.781095 
L 1034.78871 55.621999 
L 1044.466473 55.099696 
L 1045.075207 55.047669 
L 1054.144235 54.390878 
L 1063.821998 53.55474 
L 1073.49976 52.632815 
L 1073.49976 55.047669 
L 1073.49976 64.757155 
L 1073.49976 71.67687 
L 1063.821998 73.5062 
L 1058.844308 74.466641 
L 1054.144235 75.552232 
L 1044.466473 77.757591 
L 1034.78871 79.923321 
L 1025.110948 82.037214 
L 1015.433186 84.078804 
L 1014.913052 84.176127 
L 1005.755423 86.136855 
L 996.077661 87.933691 
L 986.399898 89.397161 
L 976.722136 90.446704 
L 967.044374 90.989328 
L 957.366611 90.931007 
L 947.688849 90.188203 
L 938.011086 88.682607 
L 928.333324 86.294374 
L 922.22767 84.176127 
L 918.655561 82.391675 
L 908.977799 74.988497 
z
" style="fill:url(#h85ad0b6d0e);"/>
   </g>
   <g id="PathCollection_4">
    <path clip-path="url(#p4add180250)" d="M 115.401282 958.029857 
L 115.401282 948.320372 
L 115.401282 938.610886 
L 115.401282 928.9014 
L 115.401282 919.902392 
L 120.179321 919.191914 
L 125.079044 918.336394 
L 134.756806 916.86476 
L 144.434569 915.619462 
L 154.112331 914.710002 
L 163.790094 914.359173 
L 173.467856 915.025526 
L 183.145619 917.714267 
L 185.741832 919.191914 
L 192.823381 928.825226 
L 192.856159 928.9014 
L 193.638794 938.610886 
L 192.823381 942.87399 
L 191.949027 948.320372 
L 188.853964 958.029857 
L 184.722709 967.739343 
L 183.145619 967.739343 
L 173.467856 967.739343 
L 163.790094 967.739343 
L 154.112331 967.739343 
L 144.434569 967.739343 
L 134.756806 967.739343 
L 125.079044 967.739343 
L 115.401282 967.739343 
z
" style="fill:url(#h6cb9fafc0f);"/>
    <path clip-path="url(#p4add180250)" d="M 974.849654 35.628698 
L 972.242884 25.919212 
L 972.651729 16.209726 
L 975.053152 6.50024 
L 976.722136 6.50024 
L 986.399898 6.50024 
L 996.077661 6.50024 
L 1005.755423 6.50024 
L 1015.433186 6.50024 
L 1025.110948 6.50024 
L 1034.78871 6.50024 
L 1044.466473 6.50024 
L 1054.144235 6.50024 
L 1063.821998 6.50024 
L 1073.460925 6.50024 
L 1073.49976 6.516985 
L 1073.49976 16.209726 
L 1073.49976 25.919212 
L 1073.49976 35.628698 
L 1073.49976 45.338184 
L 1073.49976 52.632815 
L 1063.821998 53.55474 
L 1054.144235 54.390878 
L 1045.075207 55.047669 
L 1044.466473 55.099696 
L 1034.78871 55.621999 
L 1025.110948 55.781095 
L 1015.433186 55.425458 
L 1011.787628 55.047669 
L 1005.755423 54.295865 
L 996.077661 51.918537 
L 986.399898 47.622717 
L 982.857009 45.338184 
L 976.722136 38.422786 
z
" style="fill:url(#h6cb9fafc0f);"/>
   </g>
   <g id="matplotlib.axis_1">
    <g id="xtick_1">
     <g id="line2d_1">
      <defs>
       <path d="M 0 0 
L 0 3.5 
" id="m88faafc24a" style="stroke:#000000;stroke-width:0.8;"/>
      </defs>
      <g>
       <use style="stroke:#000000;stroke-width:0.8;" x="144.216273" xlink:href="#m88faafc24a" y="967.739343"/>
      </g>
     </g>
     <g id="text_1">
      <!-- 0.0 -->
      <defs>
       <path d="M 31.78125 66.40625 
Q 24.171875 66.40625 20.328125 58.90625 
Q 16.5 51.421875 16.5 36.375 
Q 16.5 21.390625 20.328125 13.890625 
Q 24.171875 6.390625 31.78125 6.390625 
Q 39.453125 6.390625 43.28125 13.890625 
Q 47.125 21.390625 47.125 36.375 
Q 47.125 51.421875 43.28125 58.90625 
Q 39.453125 66.40625 31.78125 66.40625 
z
M 31.78125 74.21875 
Q 44.046875 74.21875 50.515625 64.515625 
Q 56.984375 54.828125 56.984375 36.375 
Q 56.984375 17.96875 50.515625 8.265625 
Q 44.046875 -1.421875 31.78125 -1.421875 
Q 19.53125 -1.421875 13.0625 8.265625 
Q 6.59375 17.96875 6.59375 36.375 
Q 6.59375 54.828125 13.0625 64.515625 
Q 19.53125 74.21875 31.78125 74.21875 
z
" id="DejaVuSans-48"/>
       <path d="M 10.6875 12.40625 
L 21 12.40625 
L 21 0 
L 10.6875 0 
z
" id="DejaVuSans-46"/>
      </defs>
      <g transform="translate(117.711065 1000.067468)scale(0.333333 -0.333333)">
       <use xlink:href="#DejaVuSans-48"/>
       <use x="63.623047" xlink:href="#DejaVuSans-46"/>
       <use x="95.410156" xlink:href="#DejaVuSans-48"/>
      </g>
     </g>
    </g>
    <g id="xtick_2">
     <g id="line2d_2">
      <g>
       <use style="stroke:#000000;stroke-width:0.8;" x="324.309972" xlink:href="#m88faafc24a" y="967.739343"/>
      </g>
     </g>
     <g id="text_2">
      <!-- 0.2 -->
      <defs>
       <path d="M 19.1875 8.296875 
L 53.609375 8.296875 
L 53.609375 0 
L 7.328125 0 
L 7.328125 8.296875 
Q 12.9375 14.109375 22.625 23.890625 
Q 32.328125 33.6875 34.8125 36.53125 
Q 39.546875 41.84375 41.421875 45.53125 
Q 43.3125 49.21875 43.3125 52.78125 
Q 43.3125 58.59375 39.234375 62.25 
Q 35.15625 65.921875 28.609375 65.921875 
Q 23.96875 65.921875 18.8125 64.3125 
Q 13.671875 62.703125 7.8125 59.421875 
L 7.8125 69.390625 
Q 13.765625 71.78125 18.9375 73 
Q 24.125 74.21875 28.421875 74.21875 
Q 39.75 74.21875 46.484375 68.546875 
Q 53.21875 62.890625 53.21875 53.421875 
Q 53.21875 48.921875 51.53125 44.890625 
Q 49.859375 40.875 45.40625 35.40625 
Q 44.1875 33.984375 37.640625 27.21875 
Q 31.109375 20.453125 19.1875 8.296875 
z
" id="DejaVuSans-50"/>
      </defs>
      <g transform="translate(297.804764 1000.067468)scale(0.333333 -0.333333)">
       <use xlink:href="#DejaVuSans-48"/>
       <use x="63.623047" xlink:href="#DejaVuSans-46"/>
       <use x="95.410156" xlink:href="#DejaVuSans-50"/>
      </g>
     </g>
    </g>
    <g id="xtick_3">
     <g id="line2d_3">
      <g>
       <use style="stroke:#000000;stroke-width:0.8;" x="504.403671" xlink:href="#m88faafc24a" y="967.739343"/>
      </g>
     </g>
     <g id="text_3">
      <!-- 0.4 -->
      <defs>
       <path d="M 37.796875 64.3125 
L 12.890625 25.390625 
L 37.796875 25.390625 
z
M 35.203125 72.90625 
L 47.609375 72.90625 
L 47.609375 25.390625 
L 58.015625 25.390625 
L 58.015625 17.1875 
L 47.609375 17.1875 
L 47.609375 0 
L 37.796875 0 
L 37.796875 17.1875 
L 4.890625 17.1875 
L 4.890625 26.703125 
z
" id="DejaVuSans-52"/>
      </defs>
      <g transform="translate(477.898463 1000.067468)scale(0.333333 -0.333333)">
       <use xlink:href="#DejaVuSans-48"/>
       <use x="63.623047" xlink:href="#DejaVuSans-46"/>
       <use x="95.410156" xlink:href="#DejaVuSans-52"/>
      </g>
     </g>
    </g>
    <g id="xtick_4">
     <g id="line2d_4">
      <g>
       <use style="stroke:#000000;stroke-width:0.8;" x="684.49737" xlink:href="#m88faafc24a" y="967.739343"/>
      </g>
     </g>
     <g id="text_4">
      <!-- 0.6 -->
      <defs>
       <path d="M 33.015625 40.375 
Q 26.375 40.375 22.484375 35.828125 
Q 18.609375 31.296875 18.609375 23.390625 
Q 18.609375 15.53125 22.484375 10.953125 
Q 26.375 6.390625 33.015625 6.390625 
Q 39.65625 6.390625 43.53125 10.953125 
Q 47.40625 15.53125 47.40625 23.390625 
Q 47.40625 31.296875 43.53125 35.828125 
Q 39.65625 40.375 33.015625 40.375 
z
M 52.59375 71.296875 
L 52.59375 62.3125 
Q 48.875 64.0625 45.09375 64.984375 
Q 41.3125 65.921875 37.59375 65.921875 
Q 27.828125 65.921875 22.671875 59.328125 
Q 17.53125 52.734375 16.796875 39.40625 
Q 19.671875 43.65625 24.015625 45.921875 
Q 28.375 48.1875 33.59375 48.1875 
Q 44.578125 48.1875 50.953125 41.515625 
Q 57.328125 34.859375 57.328125 23.390625 
Q 57.328125 12.15625 50.6875 5.359375 
Q 44.046875 -1.421875 33.015625 -1.421875 
Q 20.359375 -1.421875 13.671875 8.265625 
Q 6.984375 17.96875 6.984375 36.375 
Q 6.984375 53.65625 15.1875 63.9375 
Q 23.390625 74.21875 37.203125 74.21875 
Q 40.921875 74.21875 44.703125 73.484375 
Q 48.484375 72.75 52.59375 71.296875 
z
" id="DejaVuSans-54"/>
      </defs>
      <g transform="translate(657.992162 1000.067468)scale(0.333333 -0.333333)">
       <use xlink:href="#DejaVuSans-48"/>
       <use x="63.623047" xlink:href="#DejaVuSans-46"/>
       <use x="95.410156" xlink:href="#DejaVuSans-54"/>
      </g>
     </g>
    </g>
    <g id="xtick_5">
     <g id="line2d_5">
      <g>
       <use style="stroke:#000000;stroke-width:0.8;" x="864.591069" xlink:href="#m88faafc24a" y="967.739343"/>
      </g>
     </g>
     <g id="text_5">
      <!-- 0.8 -->
      <defs>
       <path d="M 31.78125 34.625 
Q 24.75 34.625 20.71875 30.859375 
Q 16.703125 27.09375 16.703125 20.515625 
Q 16.703125 13.921875 20.71875 10.15625 
Q 24.75 6.390625 31.78125 6.390625 
Q 38.8125 6.390625 42.859375 10.171875 
Q 46.921875 13.96875 46.921875 20.515625 
Q 46.921875 27.09375 42.890625 30.859375 
Q 38.875 34.625 31.78125 34.625 
z
M 21.921875 38.8125 
Q 15.578125 40.375 12.03125 44.71875 
Q 8.5 49.078125 8.5 55.328125 
Q 8.5 64.0625 14.71875 69.140625 
Q 20.953125 74.21875 31.78125 74.21875 
Q 42.671875 74.21875 48.875 69.140625 
Q 55.078125 64.0625 55.078125 55.328125 
Q 55.078125 49.078125 51.53125 44.71875 
Q 48 40.375 41.703125 38.8125 
Q 48.828125 37.15625 52.796875 32.3125 
Q 56.78125 27.484375 56.78125 20.515625 
Q 56.78125 9.90625 50.3125 4.234375 
Q 43.84375 -1.421875 31.78125 -1.421875 
Q 19.734375 -1.421875 13.25 4.234375 
Q 6.78125 9.90625 6.78125 20.515625 
Q 6.78125 27.484375 10.78125 32.3125 
Q 14.796875 37.15625 21.921875 38.8125 
z
M 18.3125 54.390625 
Q 18.3125 48.734375 21.84375 45.5625 
Q 25.390625 42.390625 31.78125 42.390625 
Q 38.140625 42.390625 41.71875 45.5625 
Q 45.3125 48.734375 45.3125 54.390625 
Q 45.3125 60.0625 41.71875 63.234375 
Q 38.140625 66.40625 31.78125 66.40625 
Q 25.390625 66.40625 21.84375 63.234375 
Q 18.3125 60.0625 18.3125 54.390625 
z
" id="DejaVuSans-56"/>
      </defs>
      <g transform="translate(838.085861 1000.067468)scale(0.333333 -0.333333)">
       <use xlink:href="#DejaVuSans-48"/>
       <use x="63.623047" xlink:href="#DejaVuSans-46"/>
       <use x="95.410156" xlink:href="#DejaVuSans-56"/>
      </g>
     </g>
    </g>
    <g id="xtick_6">
     <g id="line2d_6">
      <g>
       <use style="stroke:#000000;stroke-width:0.8;" x="1044.684768" xlink:href="#m88faafc24a" y="967.739343"/>
      </g>
     </g>
     <g id="text_6">
      <!-- 1.0 -->
      <defs>
       <path d="M 12.40625 8.296875 
L 28.515625 8.296875 
L 28.515625 63.921875 
L 10.984375 60.40625 
L 10.984375 69.390625 
L 28.421875 72.90625 
L 38.28125 72.90625 
L 38.28125 8.296875 
L 54.390625 8.296875 
L 54.390625 0 
L 12.40625 0 
z
" id="DejaVuSans-49"/>
      </defs>
      <g transform="translate(1018.17956 1000.067468)scale(0.333333 -0.333333)">
       <use xlink:href="#DejaVuSans-49"/>
       <use x="63.623047" xlink:href="#DejaVuSans-46"/>
       <use x="95.410156" xlink:href="#DejaVuSans-48"/>
      </g>
     </g>
    </g>
    <g id="text_7">
     <!-- $\hat{P}$ -->
     <defs>
      <path d="M -28.609375 79.984375 
L -21.390625 79.984375 
L -9.421875 61.625 
L -16.21875 61.625 
L -25 73.578125 
L -33.796875 61.625 
L -40.578125 61.625 
z
M -25 56 
z
" id="DejaVuSans-770"/>
      <path d="M 16.890625 72.90625 
L 39.703125 72.90625 
Q 49.65625 72.90625 54.875 68.265625 
Q 60.109375 63.625 60.109375 54.6875 
Q 60.109375 42.671875 52.390625 35.984375 
Q 44.671875 29.296875 30.71875 29.296875 
L 18.3125 29.296875 
L 12.59375 0 
L 2.6875 0 
z
M 25.203125 64.796875 
L 19.921875 37.40625 
L 32.328125 37.40625 
Q 40.71875 37.40625 45.203125 41.703125 
Q 49.703125 46 49.703125 54 
Q 49.703125 59.125 46.65625 61.953125 
Q 43.609375 64.796875 38.09375 64.796875 
z
" id="DejaVuSans-Oblique-80"/>
     </defs>
     <g transform="translate(576.150521 1064.521635)scale(0.6 -0.6)">
      <use transform="translate(62.653809 30.015625)" xlink:href="#DejaVuSans-770"/>
      <use transform="translate(0 0.609375)" xlink:href="#DejaVuSans-Oblique-80"/>
     </g>
    </g>
   </g>
   <g id="matplotlib.axis_2">
    <g id="ytick_1">
     <g id="line2d_7">
      <defs>
       <path d="M 0 0 
L -3.5 0 
" id="m93069b5282" style="stroke:#000000;stroke-width:0.8;"/>
      </defs>
      <g>
       <use style="stroke:#000000;stroke-width:0.8;" x="115.401282" xlink:href="#m93069b5282" y="938.829897"/>
      </g>
     </g>
     <g id="text_8">
      <!-- 0.0 -->
      <g transform="translate(55.390865 951.493959)scale(0.333333 -0.333333)">
       <use xlink:href="#DejaVuSans-48"/>
       <use x="63.623047" xlink:href="#DejaVuSans-46"/>
       <use x="95.410156" xlink:href="#DejaVuSans-48"/>
      </g>
     </g>
    </g>
    <g id="ytick_2">
     <g id="line2d_8">
      <g>
       <use style="stroke:#000000;stroke-width:0.8;" x="115.401282" xlink:href="#m93069b5282" y="758.145855"/>
      </g>
     </g>
     <g id="text_9">
      <!-- 0.2 -->
      <g transform="translate(55.390865 770.809917)scale(0.333333 -0.333333)">
       <use xlink:href="#DejaVuSans-48"/>
       <use x="63.623047" xlink:href="#DejaVuSans-46"/>
       <use x="95.410156" xlink:href="#DejaVuSans-50"/>
      </g>
     </g>
    </g>
    <g id="ytick_3">
     <g id="line2d_9">
      <g>
       <use style="stroke:#000000;stroke-width:0.8;" x="115.401282" xlink:href="#m93069b5282" y="577.461813"/>
      </g>
     </g>
     <g id="text_10">
      <!-- 0.4 -->
      <g transform="translate(55.390865 590.125875)scale(0.333333 -0.333333)">
       <use xlink:href="#DejaVuSans-48"/>
       <use x="63.623047" xlink:href="#DejaVuSans-46"/>
       <use x="95.410156" xlink:href="#DejaVuSans-52"/>
      </g>
     </g>
    </g>
    <g id="ytick_4">
     <g id="line2d_10">
      <g>
       <use style="stroke:#000000;stroke-width:0.8;" x="115.401282" xlink:href="#m93069b5282" y="396.777771"/>
      </g>
     </g>
     <g id="text_11">
      <!-- 0.6 -->
      <g transform="translate(55.390865 409.441833)scale(0.333333 -0.333333)">
       <use xlink:href="#DejaVuSans-48"/>
       <use x="63.623047" xlink:href="#DejaVuSans-46"/>
       <use x="95.410156" xlink:href="#DejaVuSans-54"/>
      </g>
     </g>
    </g>
    <g id="ytick_5">
     <g id="line2d_11">
      <g>
       <use style="stroke:#000000;stroke-width:0.8;" x="115.401282" xlink:href="#m93069b5282" y="216.093729"/>
      </g>
     </g>
     <g id="text_12">
      <!-- 0.8 -->
      <g transform="translate(55.390865 228.757791)scale(0.333333 -0.333333)">
       <use xlink:href="#DejaVuSans-48"/>
       <use x="63.623047" xlink:href="#DejaVuSans-46"/>
       <use x="95.410156" xlink:href="#DejaVuSans-56"/>
      </g>
     </g>
    </g>
    <g id="ytick_6">
     <g id="line2d_12">
      <g>
       <use style="stroke:#000000;stroke-width:0.8;" x="115.401282" xlink:href="#m93069b5282" y="35.409687"/>
      </g>
     </g>
     <g id="text_13">
      <!-- 1.0 -->
      <g transform="translate(55.390865 48.073749)scale(0.333333 -0.333333)">
       <use xlink:href="#DejaVuSans-49"/>
       <use x="63.623047" xlink:href="#DejaVuSans-46"/>
       <use x="95.410156" xlink:href="#DejaVuSans-48"/>
      </g>
     </g>
    </g>
    <g id="text_14">
     <!-- Probability Bet -->
     <defs>
      <path d="M 19.671875 64.796875 
L 19.671875 37.40625 
L 32.078125 37.40625 
Q 38.96875 37.40625 42.71875 40.96875 
Q 46.484375 44.53125 46.484375 51.125 
Q 46.484375 57.671875 42.71875 61.234375 
Q 38.96875 64.796875 32.078125 64.796875 
z
M 9.8125 72.90625 
L 32.078125 72.90625 
Q 44.34375 72.90625 50.609375 67.359375 
Q 56.890625 61.8125 56.890625 51.125 
Q 56.890625 40.328125 50.609375 34.8125 
Q 44.34375 29.296875 32.078125 29.296875 
L 19.671875 29.296875 
L 19.671875 0 
L 9.8125 0 
z
" id="DejaVuSans-80"/>
      <path d="M 41.109375 46.296875 
Q 39.59375 47.171875 37.8125 47.578125 
Q 36.03125 48 33.890625 48 
Q 26.265625 48 22.1875 43.046875 
Q 18.109375 38.09375 18.109375 28.8125 
L 18.109375 0 
L 9.078125 0 
L 9.078125 54.6875 
L 18.109375 54.6875 
L 18.109375 46.1875 
Q 20.953125 51.171875 25.484375 53.578125 
Q 30.03125 56 36.53125 56 
Q 37.453125 56 38.578125 55.875 
Q 39.703125 55.765625 41.0625 55.515625 
z
" id="DejaVuSans-114"/>
      <path d="M 30.609375 48.390625 
Q 23.390625 48.390625 19.1875 42.75 
Q 14.984375 37.109375 14.984375 27.296875 
Q 14.984375 17.484375 19.15625 11.84375 
Q 23.34375 6.203125 30.609375 6.203125 
Q 37.796875 6.203125 41.984375 11.859375 
Q 46.1875 17.53125 46.1875 27.296875 
Q 46.1875 37.015625 41.984375 42.703125 
Q 37.796875 48.390625 30.609375 48.390625 
z
M 30.609375 56 
Q 42.328125 56 49.015625 48.375 
Q 55.71875 40.765625 55.71875 27.296875 
Q 55.71875 13.875 49.015625 6.21875 
Q 42.328125 -1.421875 30.609375 -1.421875 
Q 18.84375 -1.421875 12.171875 6.21875 
Q 5.515625 13.875 5.515625 27.296875 
Q 5.515625 40.765625 12.171875 48.375 
Q 18.84375 56 30.609375 56 
z
" id="DejaVuSans-111"/>
      <path d="M 48.6875 27.296875 
Q 48.6875 37.203125 44.609375 42.84375 
Q 40.53125 48.484375 33.40625 48.484375 
Q 26.265625 48.484375 22.1875 42.84375 
Q 18.109375 37.203125 18.109375 27.296875 
Q 18.109375 17.390625 22.1875 11.75 
Q 26.265625 6.109375 33.40625 6.109375 
Q 40.53125 6.109375 44.609375 11.75 
Q 48.6875 17.390625 48.6875 27.296875 
z
M 18.109375 46.390625 
Q 20.953125 51.265625 25.265625 53.625 
Q 29.59375 56 35.59375 56 
Q 45.5625 56 51.78125 48.09375 
Q 58.015625 40.1875 58.015625 27.296875 
Q 58.015625 14.40625 51.78125 6.484375 
Q 45.5625 -1.421875 35.59375 -1.421875 
Q 29.59375 -1.421875 25.265625 0.953125 
Q 20.953125 3.328125 18.109375 8.203125 
L 18.109375 0 
L 9.078125 0 
L 9.078125 75.984375 
L 18.109375 75.984375 
z
" id="DejaVuSans-98"/>
      <path d="M 34.28125 27.484375 
Q 23.390625 27.484375 19.1875 25 
Q 14.984375 22.515625 14.984375 16.5 
Q 14.984375 11.71875 18.140625 8.90625 
Q 21.296875 6.109375 26.703125 6.109375 
Q 34.1875 6.109375 38.703125 11.40625 
Q 43.21875 16.703125 43.21875 25.484375 
L 43.21875 27.484375 
z
M 52.203125 31.203125 
L 52.203125 0 
L 43.21875 0 
L 43.21875 8.296875 
Q 40.140625 3.328125 35.546875 0.953125 
Q 30.953125 -1.421875 24.3125 -1.421875 
Q 15.921875 -1.421875 10.953125 3.296875 
Q 6 8.015625 6 15.921875 
Q 6 25.140625 12.171875 29.828125 
Q 18.359375 34.515625 30.609375 34.515625 
L 43.21875 34.515625 
L 43.21875 35.40625 
Q 43.21875 41.609375 39.140625 45 
Q 35.0625 48.390625 27.6875 48.390625 
Q 23 48.390625 18.546875 47.265625 
Q 14.109375 46.140625 10.015625 43.890625 
L 10.015625 52.203125 
Q 14.9375 54.109375 19.578125 55.046875 
Q 24.21875 56 28.609375 56 
Q 40.484375 56 46.34375 49.84375 
Q 52.203125 43.703125 52.203125 31.203125 
z
" id="DejaVuSans-97"/>
      <path d="M 9.421875 54.6875 
L 18.40625 54.6875 
L 18.40625 0 
L 9.421875 0 
z
M 9.421875 75.984375 
L 18.40625 75.984375 
L 18.40625 64.59375 
L 9.421875 64.59375 
z
" id="DejaVuSans-105"/>
      <path d="M 9.421875 75.984375 
L 18.40625 75.984375 
L 18.40625 0 
L 9.421875 0 
z
" id="DejaVuSans-108"/>
      <path d="M 18.3125 70.21875 
L 18.3125 54.6875 
L 36.8125 54.6875 
L 36.8125 47.703125 
L 18.3125 47.703125 
L 18.3125 18.015625 
Q 18.3125 11.328125 20.140625 9.421875 
Q 21.96875 7.515625 27.59375 7.515625 
L 36.8125 7.515625 
L 36.8125 0 
L 27.59375 0 
Q 17.1875 0 13.234375 3.875 
Q 9.28125 7.765625 9.28125 18.015625 
L 9.28125 47.703125 
L 2.6875 47.703125 
L 2.6875 54.6875 
L 9.28125 54.6875 
L 9.28125 70.21875 
z
" id="DejaVuSans-116"/>
      <path d="M 32.171875 -5.078125 
Q 28.375 -14.84375 24.75 -17.8125 
Q 21.140625 -20.796875 15.09375 -20.796875 
L 7.90625 -20.796875 
L 7.90625 -13.28125 
L 13.1875 -13.28125 
Q 16.890625 -13.28125 18.9375 -11.515625 
Q 21 -9.765625 23.484375 -3.21875 
L 25.09375 0.875 
L 2.984375 54.6875 
L 12.5 54.6875 
L 29.59375 11.921875 
L 46.6875 54.6875 
L 56.203125 54.6875 
z
" id="DejaVuSans-121"/>
      <path id="DejaVuSans-32"/>
      <path d="M 19.671875 34.8125 
L 19.671875 8.109375 
L 35.5 8.109375 
Q 43.453125 8.109375 47.28125 11.40625 
Q 51.125 14.703125 51.125 21.484375 
Q 51.125 28.328125 47.28125 31.5625 
Q 43.453125 34.8125 35.5 34.8125 
z
M 19.671875 64.796875 
L 19.671875 42.828125 
L 34.28125 42.828125 
Q 41.5 42.828125 45.03125 45.53125 
Q 48.578125 48.25 48.578125 53.8125 
Q 48.578125 59.328125 45.03125 62.0625 
Q 41.5 64.796875 34.28125 64.796875 
z
M 9.8125 72.90625 
L 35.015625 72.90625 
Q 46.296875 72.90625 52.390625 68.21875 
Q 58.5 63.53125 58.5 54.890625 
Q 58.5 48.1875 55.375 44.234375 
Q 52.25 40.28125 46.1875 39.3125 
Q 53.46875 37.75 57.5 32.78125 
Q 61.53125 27.828125 61.53125 20.40625 
Q 61.53125 10.640625 54.890625 5.3125 
Q 48.25 0 35.984375 0 
L 9.8125 0 
z
" id="DejaVuSans-66"/>
      <path d="M 56.203125 29.59375 
L 56.203125 25.203125 
L 14.890625 25.203125 
Q 15.484375 15.921875 20.484375 11.0625 
Q 25.484375 6.203125 34.421875 6.203125 
Q 39.59375 6.203125 44.453125 7.46875 
Q 49.3125 8.734375 54.109375 11.28125 
L 54.109375 2.78125 
Q 49.265625 0.734375 44.1875 -0.34375 
Q 39.109375 -1.421875 33.890625 -1.421875 
Q 20.796875 -1.421875 13.15625 6.1875 
Q 5.515625 13.8125 5.515625 26.8125 
Q 5.515625 40.234375 12.765625 48.109375 
Q 20.015625 56 32.328125 56 
Q 43.359375 56 49.78125 48.890625 
Q 56.203125 41.796875 56.203125 29.59375 
z
M 47.21875 32.234375 
Q 47.125 39.59375 43.09375 43.984375 
Q 39.0625 48.390625 32.421875 48.390625 
Q 24.90625 48.390625 20.390625 44.140625 
Q 15.875 39.890625 15.1875 32.171875 
z
" id="DejaVuSans-101"/>
     </defs>
     <g transform="translate(40.992428 670.533854)rotate(-90)scale(0.5 -0.5)">
      <use xlink:href="#DejaVuSans-80"/>
      <use x="60.287109" xlink:href="#DejaVuSans-114"/>
      <use x="101.369141" xlink:href="#DejaVuSans-111"/>
      <use x="162.550781" xlink:href="#DejaVuSans-98"/>
      <use x="226.027344" xlink:href="#DejaVuSans-97"/>
      <use x="287.306641" xlink:href="#DejaVuSans-98"/>
      <use x="350.783203" xlink:href="#DejaVuSans-105"/>
      <use x="378.566406" xlink:href="#DejaVuSans-108"/>
      <use x="406.349609" xlink:href="#DejaVuSans-105"/>
      <use x="434.132812" xlink:href="#DejaVuSans-116"/>
      <use x="473.341797" xlink:href="#DejaVuSans-121"/>
      <use x="532.521484" xlink:href="#DejaVuSans-32"/>
      <use x="564.308594" xlink:href="#DejaVuSans-66"/>
      <use x="632.912109" xlink:href="#DejaVuSans-101"/>
      <use x="694.435547" xlink:href="#DejaVuSans-116"/>
     </g>
    </g>
   </g>
   <g id="LineCollection_1"/>
   <g id="LineCollection_2">
    <path clip-path="url(#p4add180250)" d="M 115.401282 872.889716 
L 121.491584 870.644484 
L 125.079044 869.080681 
L 134.756806 864.800924 
L 143.680932 860.934999 
L 144.434569 860.5571 
L 154.112331 855.614679 
L 163.028529 851.225513 
L 163.790094 850.799331 
L 173.467856 845.389217 
L 180.694922 841.516027 
L 183.145619 840.041127 
L 192.823381 834.408427 
L 197.527373 831.806541 
L 202.501143 828.73012 
L 212.178906 823.142958 
L 214.142637 822.097055 
L 221.856668 817.477013 
L 231.275673 812.387569 
L 231.534431 812.229232 
L 241.212193 807.089657 
L 250.885441 802.678083 
L 250.889955 802.6757 
L 260.567718 798.823834 
L 270.24548 796.152069 
L 279.923243 795.047814 
L 289.601005 796.23184 
L 299.278767 800.783339 
L 301.64532 802.678083 
L 308.95653 809.775526 
L 311.083954 812.387569 
L 317.918778 822.097055 
L 318.634292 823.26293 
L 323.966349 831.806541 
L 328.312055 839.832248 
L 329.30157 841.516027 
L 334.231087 851.225513 
L 337.989817 860.909824 
L 338.000029 860.934999 
L 340.586739 870.644484 
L 341.513578 880.35397 
L 340.788143 890.063456 
L 338.466748 899.772942 
L 337.989817 900.937022 
L 334.63967 909.482428 
L 329.293047 919.191914 
L 328.312055 920.568803 
L 322.510227 928.9014 
L 318.634292 933.414109 
L 314.240898 938.610886 
L 308.95653 943.841098 
L 304.468126 948.320372 
L 299.278767 952.777988 
L 293.176023 958.029857 
L 289.601005 960.747162 
L 280.387622 967.739343 
" style="fill:none;stroke:#ff0000;stroke-width:1.5;"/>
    <path clip-path="url(#p4add180250)" d="M 1073.49976 103.01443 
L 1071.274115 103.595099 
L 1063.821998 105.935685 
L 1054.144235 109.093881 
L 1044.466473 112.294135 
L 1041.513845 113.304585 
L 1034.78871 116.008264 
L 1025.110948 119.862739 
L 1017.031461 123.014071 
L 1015.433186 123.736438 
L 1005.755423 128.039519 
L 996.077661 132.108827 
L 994.550357 132.723557 
L 986.399898 136.478961 
L 976.722136 140.600473 
L 972.0535 142.433042 
L 967.044374 144.677025 
L 957.366611 148.581671 
L 947.688849 152.076128 
L 947.476309 152.142528 
L 938.011086 155.513503 
L 928.333324 158.472783 
L 918.655561 160.970257 
L 914.411837 161.852014 
L 908.977799 163.137008 
L 899.300037 164.908124 
L 889.622274 166.221261 
L 879.944512 167.092882 
L 870.266749 167.501298 
L 860.588987 167.34713 
L 850.911225 166.401236 
L 841.233462 164.236165 
L 835.338726 161.852014 
L 831.5557 160.130473 
L 821.877937 152.747624 
L 821.313771 152.142528 
L 814.193766 142.433042 
L 812.200175 138.567411 
L 809.556342 132.723557 
L 806.417951 123.014071 
L 804.347055 113.304585 
L 803.13926 103.595099 
L 802.720654 93.885613 
L 803.153562 84.176127 
L 804.680413 74.466641 
L 807.831165 64.757155 
L 812.200175 57.152628 
L 813.354966 55.047669 
L 821.486706 45.338184 
L 821.877937 45.001092 
L 831.5557 36.162962 
L 832.100355 35.628698 
L 841.233462 28.468273 
L 844.245433 25.919212 
L 850.911225 21.14413 
L 857.252058 16.209726 
L 860.588987 13.916024 
L 870.266749 6.673828 
L 870.475939 6.50024 
" style="fill:none;stroke:#ff0000;stroke-width:1.5;"/>
   </g>
   <g id="LineCollection_3">
    <path clip-path="url(#p4add180250)" d="M 115.401282 901.180436 
L 120.646881 899.772942 
L 125.079044 898.370984 
L 134.756806 895.346843 
L 144.434569 892.323745 
L 151.634762 890.063456 
L 154.112331 889.176535 
L 163.790094 885.863489 
L 173.467856 882.632586 
L 180.615205 880.35397 
L 183.145619 879.457166 
L 192.823381 876.506537 
L 202.501143 874.011121 
L 212.178906 872.223349 
L 221.856668 871.674782 
L 231.534431 873.452012 
L 241.212193 879.755913 
L 241.739481 880.35397 
L 246.3404 890.063456 
L 247.515309 899.772942 
L 246.55664 909.482428 
L 243.975026 919.191914 
L 241.212193 925.732957 
L 240.014158 928.9014 
L 235.038946 938.610886 
L 231.534431 944.021729 
L 229.054324 948.320372 
L 222.268553 958.029857 
L 221.856668 958.534637 
L 215.182133 967.739343 
" style="fill:none;stroke:#ff0000;stroke-width:1.5;"/>
    <path clip-path="url(#p4add180250)" d="M 1073.49976 71.67687 
L 1063.821998 73.5062 
L 1058.844308 74.466641 
L 1054.144235 75.552232 
L 1044.466473 77.757591 
L 1034.78871 79.923321 
L 1025.110948 82.037214 
L 1015.433186 84.078804 
L 1014.913052 84.176127 
L 1005.755423 86.136855 
L 996.077661 87.933691 
L 986.399898 89.397161 
L 976.722136 90.446704 
L 967.044374 90.989328 
L 957.366611 90.931007 
L 947.688849 90.188203 
L 938.011086 88.682607 
L 928.333324 86.294374 
L 922.22767 84.176127 
L 918.655561 82.391675 
L 908.977799 74.988497 
L 908.499028 74.466641 
L 904.70034 64.757155 
L 905.161073 55.047669 
L 908.149767 45.338184 
L 908.977799 43.783308 
L 912.855883 35.628698 
L 918.655561 26.143233 
L 918.777573 25.919212 
L 925.524335 16.209726 
L 928.333324 12.747989 
L 932.923824 6.50024 
" style="fill:none;stroke:#ff0000;stroke-width:1.5;"/>
   </g>
   <g id="LineCollection_4">
    <path clip-path="url(#p4add180250)" d="M 115.401282 919.902392 
L 120.179321 919.191914 
L 125.079044 918.336394 
L 134.756806 916.86476 
L 144.434569 915.619462 
L 154.112331 914.710002 
L 163.790094 914.359173 
L 173.467856 915.025526 
L 183.145619 917.714267 
L 185.741832 919.191914 
L 192.823381 928.825226 
L 192.856159 928.9014 
L 193.638794 938.610886 
L 192.823381 942.87399 
L 191.949027 948.320372 
L 188.853964 958.029857 
L 184.722709 967.739343 
" style="fill:none;stroke:#ff0000;stroke-width:1.5;"/>
    <path clip-path="url(#p4add180250)" d="M 1073.49976 52.632815 
L 1063.821998 53.55474 
L 1054.144235 54.390878 
L 1045.075207 55.047669 
L 1044.466473 55.099696 
L 1034.78871 55.621999 
L 1025.110948 55.781095 
L 1015.433186 55.425458 
L 1011.787628 55.047669 
L 1005.755423 54.295865 
L 996.077661 51.918537 
L 986.399898 47.622717 
L 982.857009 45.338184 
L 976.722136 38.422786 
L 974.849654 35.628698 
L 972.242884 25.919212 
L 972.651729 16.209726 
L 975.053152 6.50024 
" style="fill:none;stroke:#ff0000;stroke-width:1.5;"/>
   </g>
   <g id="LineCollection_5">
    <path clip-path="url(#p4add180250)" d="M 1073.49976 6.516985 
L 1073.460925 6.50024 
" style="fill:none;stroke:#ff0000;stroke-width:1.5;"/>
   </g>
   <g id="patch_3">
    <path d="M 115.401282 967.739343 
L 115.401282 6.50024 
" style="fill:none;stroke:#000000;stroke-linecap:square;stroke-linejoin:miter;stroke-width:0.8;"/>
   </g>
   <g id="patch_4">
    <path d="M 1073.49976 967.739343 
L 1073.49976 6.50024 
" style="fill:none;stroke:#000000;stroke-linecap:square;stroke-linejoin:miter;stroke-width:0.8;"/>
   </g>
   <g id="patch_5">
    <path d="M 115.401282 967.739343 
L 1073.49976 967.739343 
" style="fill:none;stroke:#000000;stroke-linecap:square;stroke-linejoin:miter;stroke-width:0.8;"/>
   </g>
   <g id="patch_6">
    <path d="M 115.401282 6.50024 
L 1073.49976 6.50024 
" style="fill:none;stroke:#000000;stroke-linecap:square;stroke-linejoin:miter;stroke-width:0.8;"/>
   </g>
   <g id="legend_1">
    <g id="patch_7">
     <path d="M 601.833093 951.072677 
L 1050.166427 951.072677 
Q 1056.833093 951.072677 1056.833093 944.40601 
L 1056.833093 688.364343 
Q 1056.833093 681.697677 1050.166427 681.697677 
L 601.833093 681.697677 
Q 595.166427 681.697677 595.166427 688.364343 
L 595.166427 944.40601 
Q 595.166427 951.072677 601.833093 951.072677 
z
" style="fill:#ffffff;opacity:0.5;stroke:#cccccc;stroke-linejoin:miter;"/>
    </g>
    <g id="text_15">
     <!-- $\hat{P}_{leaky}$, MI = 0.436 -->
     <defs>
      <path d="M 18.3125 75.984375 
L 27.296875 75.984375 
L 12.5 0 
L 3.515625 0 
z
" id="DejaVuSans-Oblique-108"/>
      <path d="M 48.09375 32.234375 
Q 48.25 33.015625 48.3125 33.84375 
Q 48.390625 34.671875 48.390625 35.5 
Q 48.390625 41.453125 44.890625 44.921875 
Q 41.40625 48.390625 35.40625 48.390625 
Q 28.71875 48.390625 23.578125 44.15625 
Q 18.453125 39.9375 15.828125 32.171875 
z
M 55.90625 25.203125 
L 14.109375 25.203125 
Q 13.8125 23.34375 13.71875 22.265625 
Q 13.625 21.1875 13.625 20.40625 
Q 13.625 13.625 17.796875 9.90625 
Q 21.96875 6.203125 29.59375 6.203125 
Q 35.453125 6.203125 40.671875 7.515625 
Q 45.90625 8.84375 50.390625 11.375 
L 48.6875 2.484375 
Q 43.84375 0.53125 38.6875 -0.4375 
Q 33.546875 -1.421875 28.21875 -1.421875 
Q 16.84375 -1.421875 10.71875 4.015625 
Q 4.59375 9.46875 4.59375 19.484375 
Q 4.59375 28.03125 7.640625 35.375 
Q 10.6875 42.71875 16.609375 48.484375 
Q 20.40625 52.09375 25.65625 54.046875 
Q 30.90625 56 36.8125 56 
Q 46.09375 56 51.578125 50.4375 
Q 57.078125 44.875 57.078125 35.5 
Q 57.078125 33.25 56.78125 30.6875 
Q 56.5 28.125 55.90625 25.203125 
z
" id="DejaVuSans-Oblique-101"/>
      <path d="M 53.71875 31.203125 
L 47.609375 0 
L 38.625 0 
L 40.28125 8.296875 
Q 36.328125 3.421875 31.265625 1 
Q 26.21875 -1.421875 20.015625 -1.421875 
Q 13.03125 -1.421875 8.5625 2.84375 
Q 4.109375 7.125 4.109375 13.8125 
Q 4.109375 23.390625 11.75 28.953125 
Q 19.390625 34.515625 32.8125 34.515625 
L 45.3125 34.515625 
L 45.796875 36.921875 
Q 45.90625 37.3125 45.953125 37.765625 
Q 46 38.234375 46 39.203125 
Q 46 43.5625 42.453125 45.96875 
Q 38.921875 48.390625 32.515625 48.390625 
Q 28.125 48.390625 23.5 47.265625 
Q 18.890625 46.140625 14.015625 43.890625 
L 15.578125 52.203125 
Q 20.65625 54.109375 25.515625 55.046875 
Q 30.375 56 34.90625 56 
Q 44.578125 56 49.625 51.796875 
Q 54.6875 47.609375 54.6875 39.59375 
Q 54.6875 37.984375 54.4375 35.8125 
Q 54.203125 33.640625 53.71875 31.203125 
z
M 44 27.484375 
L 35.015625 27.484375 
Q 23.96875 27.484375 18.671875 24.53125 
Q 13.375 21.578125 13.375 15.375 
Q 13.375 11.078125 16.078125 8.640625 
Q 18.796875 6.203125 23.578125 6.203125 
Q 30.90625 6.203125 36.375 11.453125 
Q 41.84375 16.703125 43.609375 25.484375 
z
" id="DejaVuSans-Oblique-97"/>
      <path d="M 18.3125 75.984375 
L 27.296875 75.984375 
L 18.703125 31.6875 
L 49.515625 54.6875 
L 61.1875 54.6875 
L 26.8125 28.515625 
L 51.90625 0 
L 41.015625 0 
L 17.671875 26.703125 
L 12.5 0 
L 3.515625 0 
z
" id="DejaVuSans-Oblique-107"/>
      <path d="M 24.8125 -5.078125 
Q 18.5625 -15.578125 14.625 -18.1875 
Q 10.6875 -20.796875 4.59375 -20.796875 
L -2.484375 -20.796875 
L -0.984375 -13.28125 
L 4.203125 -13.28125 
Q 7.953125 -13.28125 10.59375 -11.234375 
Q 13.234375 -9.1875 16.5 -3.21875 
L 19.28125 2 
L 7.171875 54.6875 
L 16.703125 54.6875 
L 25.78125 12.796875 
L 50.875 54.6875 
L 60.296875 54.6875 
z
" id="DejaVuSans-Oblique-121"/>
      <path d="M 11.71875 12.40625 
L 22.015625 12.40625 
L 22.015625 4 
L 14.015625 -11.625 
L 7.71875 -11.625 
L 11.71875 4 
z
" id="DejaVuSans-44"/>
      <path d="M 9.8125 72.90625 
L 24.515625 72.90625 
L 43.109375 23.296875 
L 61.8125 72.90625 
L 76.515625 72.90625 
L 76.515625 0 
L 66.890625 0 
L 66.890625 64.015625 
L 48.09375 14.015625 
L 38.1875 14.015625 
L 19.390625 64.015625 
L 19.390625 0 
L 9.8125 0 
z
" id="DejaVuSans-77"/>
      <path d="M 9.8125 72.90625 
L 19.671875 72.90625 
L 19.671875 0 
L 9.8125 0 
z
" id="DejaVuSans-73"/>
      <path d="M 10.59375 45.40625 
L 73.1875 45.40625 
L 73.1875 37.203125 
L 10.59375 37.203125 
z
M 10.59375 25.484375 
L 73.1875 25.484375 
L 73.1875 17.1875 
L 10.59375 17.1875 
z
" id="DejaVuSans-61"/>
      <path d="M 40.578125 39.3125 
Q 47.65625 37.796875 51.625 33 
Q 55.609375 28.21875 55.609375 21.1875 
Q 55.609375 10.40625 48.1875 4.484375 
Q 40.765625 -1.421875 27.09375 -1.421875 
Q 22.515625 -1.421875 17.65625 -0.515625 
Q 12.796875 0.390625 7.625 2.203125 
L 7.625 11.71875 
Q 11.71875 9.328125 16.59375 8.109375 
Q 21.484375 6.890625 26.8125 6.890625 
Q 36.078125 6.890625 40.9375 10.546875 
Q 45.796875 14.203125 45.796875 21.1875 
Q 45.796875 27.640625 41.28125 31.265625 
Q 36.765625 34.90625 28.71875 34.90625 
L 20.21875 34.90625 
L 20.21875 43.015625 
L 29.109375 43.015625 
Q 36.375 43.015625 40.234375 45.921875 
Q 44.09375 48.828125 44.09375 54.296875 
Q 44.09375 59.90625 40.109375 62.90625 
Q 36.140625 65.921875 28.71875 65.921875 
Q 24.65625 65.921875 20.015625 65.03125 
Q 15.375 64.15625 9.8125 62.3125 
L 9.8125 71.09375 
Q 15.4375 72.65625 20.34375 73.4375 
Q 25.25 74.21875 29.59375 74.21875 
Q 40.828125 74.21875 47.359375 69.109375 
Q 53.90625 64.015625 53.90625 55.328125 
Q 53.90625 49.265625 50.4375 45.09375 
Q 46.96875 40.921875 40.578125 39.3125 
z
" id="DejaVuSans-51"/>
     </defs>
     <g transform="translate(681.833093 731.697677)scale(0.333333 -0.333333)">
      <use transform="translate(62.653809 30.015625)" xlink:href="#DejaVuSans-770"/>
      <use transform="translate(0 0.609375)" xlink:href="#DejaVuSans-Oblique-80"/>
      <use transform="translate(61.259766 -15.796875)scale(0.7)" xlink:href="#DejaVuSans-Oblique-108"/>
      <use transform="translate(80.708008 -15.796875)scale(0.7)" xlink:href="#DejaVuSans-Oblique-101"/>
      <use transform="translate(123.774414 -15.796875)scale(0.7)" xlink:href="#DejaVuSans-Oblique-97"/>
      <use transform="translate(166.669922 -15.796875)scale(0.7)" xlink:href="#DejaVuSans-Oblique-107"/>
      <use transform="translate(207.207031 -15.796875)scale(0.7)" xlink:href="#DejaVuSans-Oblique-121"/>
      <use transform="translate(251.367188 0.609375)" xlink:href="#DejaVuSans-44"/>
      <use transform="translate(283.154297 0.609375)" xlink:href="#DejaVuSans-32"/>
      <use transform="translate(314.941406 0.609375)" xlink:href="#DejaVuSans-77"/>
      <use transform="translate(401.220703 0.609375)" xlink:href="#DejaVuSans-73"/>
      <use transform="translate(430.712891 0.609375)" xlink:href="#DejaVuSans-32"/>
      <use transform="translate(462.5 0.609375)" xlink:href="#DejaVuSans-61"/>
      <use transform="translate(546.289062 0.609375)" xlink:href="#DejaVuSans-32"/>
      <use transform="translate(578.076172 0.609375)" xlink:href="#DejaVuSans-48"/>
      <use transform="translate(641.699219 0.609375)" xlink:href="#DejaVuSans-46"/>
      <use transform="translate(673.486328 0.609375)" xlink:href="#DejaVuSans-52"/>
      <use transform="translate(737.109375 0.609375)" xlink:href="#DejaVuSans-51"/>
      <use transform="translate(800.732422 0.609375)" xlink:href="#DejaVuSans-54"/>
     </g>
    </g>
    <g id="patch_8">
     <path d="M 608.49976 784.025802 
L 675.166427 784.025802 
L 675.166427 760.692468 
L 608.49976 760.692468 
z
" style="fill:none;"/>
    </g>
    <g id="text_16">
     <!-- 0% &lt; kde $\leq$ 15% -->
     <defs>
      <path d="M 72.703125 32.078125 
Q 68.453125 32.078125 66.03125 28.46875 
Q 63.625 24.859375 63.625 18.40625 
Q 63.625 12.0625 66.03125 8.421875 
Q 68.453125 4.78125 72.703125 4.78125 
Q 76.859375 4.78125 79.265625 8.421875 
Q 81.6875 12.0625 81.6875 18.40625 
Q 81.6875 24.8125 79.265625 28.4375 
Q 76.859375 32.078125 72.703125 32.078125 
z
M 72.703125 38.28125 
Q 80.421875 38.28125 84.953125 32.90625 
Q 89.5 27.546875 89.5 18.40625 
Q 89.5 9.28125 84.9375 3.921875 
Q 80.375 -1.421875 72.703125 -1.421875 
Q 64.890625 -1.421875 60.34375 3.921875 
Q 55.8125 9.28125 55.8125 18.40625 
Q 55.8125 27.59375 60.375 32.9375 
Q 64.9375 38.28125 72.703125 38.28125 
z
M 22.3125 68.015625 
Q 18.109375 68.015625 15.6875 64.375 
Q 13.28125 60.75 13.28125 54.390625 
Q 13.28125 47.953125 15.671875 44.328125 
Q 18.0625 40.71875 22.3125 40.71875 
Q 26.5625 40.71875 28.96875 44.328125 
Q 31.390625 47.953125 31.390625 54.390625 
Q 31.390625 60.6875 28.953125 64.34375 
Q 26.515625 68.015625 22.3125 68.015625 
z
M 66.40625 74.21875 
L 74.21875 74.21875 
L 28.609375 -1.421875 
L 20.796875 -1.421875 
z
M 22.3125 74.21875 
Q 30.03125 74.21875 34.609375 68.875 
Q 39.203125 63.53125 39.203125 54.390625 
Q 39.203125 45.171875 34.640625 39.84375 
Q 30.078125 34.515625 22.3125 34.515625 
Q 14.546875 34.515625 10.03125 39.859375 
Q 5.515625 45.21875 5.515625 54.390625 
Q 5.515625 63.484375 10.046875 68.84375 
Q 14.59375 74.21875 22.3125 74.21875 
z
" id="DejaVuSans-37"/>
      <path d="M 73.1875 49.21875 
L 22.796875 31.296875 
L 73.1875 13.484375 
L 73.1875 4.59375 
L 10.59375 27.296875 
L 10.59375 35.40625 
L 73.1875 58.109375 
z
" id="DejaVuSans-60"/>
      <path d="M 9.078125 75.984375 
L 18.109375 75.984375 
L 18.109375 31.109375 
L 44.921875 54.6875 
L 56.390625 54.6875 
L 27.390625 29.109375 
L 57.625 0 
L 45.90625 0 
L 18.109375 26.703125 
L 18.109375 0 
L 9.078125 0 
z
" id="DejaVuSans-107"/>
      <path d="M 45.40625 46.390625 
L 45.40625 75.984375 
L 54.390625 75.984375 
L 54.390625 0 
L 45.40625 0 
L 45.40625 8.203125 
Q 42.578125 3.328125 38.25 0.953125 
Q 33.9375 -1.421875 27.875 -1.421875 
Q 17.96875 -1.421875 11.734375 6.484375 
Q 5.515625 14.40625 5.515625 27.296875 
Q 5.515625 40.1875 11.734375 48.09375 
Q 17.96875 56 27.875 56 
Q 33.9375 56 38.25 53.625 
Q 42.578125 51.265625 45.40625 46.390625 
z
M 14.796875 27.296875 
Q 14.796875 17.390625 18.875 11.75 
Q 22.953125 6.109375 30.078125 6.109375 
Q 37.203125 6.109375 41.296875 11.75 
Q 45.40625 17.390625 45.40625 27.296875 
Q 45.40625 37.203125 41.296875 42.84375 
Q 37.203125 48.484375 30.078125 48.484375 
Q 22.953125 48.484375 18.875 42.84375 
Q 14.796875 37.203125 14.796875 27.296875 
z
" id="DejaVuSans-100"/>
      <path d="M 73.1875 49.609375 
L 26.3125 36.078125 
L 73.1875 22.703125 
L 73.1875 14.015625 
L 10.59375 31.984375 
L 10.59375 40.28125 
L 73.1875 58.203125 
z
M 10.59375 8.296875 
L 73.1875 8.296875 
L 73.1875 0 
L 10.59375 0 
z
" id="DejaVuSans-8804"/>
      <path d="M 10.796875 72.90625 
L 49.515625 72.90625 
L 49.515625 64.59375 
L 19.828125 64.59375 
L 19.828125 46.734375 
Q 21.96875 47.46875 24.109375 47.828125 
Q 26.265625 48.1875 28.421875 48.1875 
Q 40.625 48.1875 47.75 41.5 
Q 54.890625 34.8125 54.890625 23.390625 
Q 54.890625 11.625 47.5625 5.09375 
Q 40.234375 -1.421875 26.90625 -1.421875 
Q 22.3125 -1.421875 17.546875 -0.640625 
Q 12.796875 0.140625 7.71875 1.703125 
L 7.71875 11.625 
Q 12.109375 9.234375 16.796875 8.0625 
Q 21.484375 6.890625 26.703125 6.890625 
Q 35.15625 6.890625 40.078125 11.328125 
Q 45.015625 15.765625 45.015625 23.390625 
Q 45.015625 31 40.078125 35.4375 
Q 35.15625 39.890625 26.703125 39.890625 
Q 22.75 39.890625 18.8125 39.015625 
Q 14.890625 38.140625 10.796875 36.28125 
z
" id="DejaVuSans-53"/>
     </defs>
     <g transform="translate(701.833093 784.025802)scale(0.333333 -0.333333)">
      <use transform="translate(0 0.015625)" xlink:href="#DejaVuSans-48"/>
      <use transform="translate(63.623047 0.015625)" xlink:href="#DejaVuSans-37"/>
      <use transform="translate(158.642578 0.015625)" xlink:href="#DejaVuSans-32"/>
      <use transform="translate(190.429688 0.015625)" xlink:href="#DejaVuSans-60"/>
      <use transform="translate(274.21875 0.015625)" xlink:href="#DejaVuSans-32"/>
      <use transform="translate(306.005859 0.015625)" xlink:href="#DejaVuSans-107"/>
      <use transform="translate(363.916016 0.015625)" xlink:href="#DejaVuSans-100"/>
      <use transform="translate(427.392578 0.015625)" xlink:href="#DejaVuSans-101"/>
      <use transform="translate(488.916016 0.015625)" xlink:href="#DejaVuSans-32"/>
      <use transform="translate(540.185547 0.015625)" xlink:href="#DejaVuSans-8804"/>
      <use transform="translate(643.457031 0.015625)" xlink:href="#DejaVuSans-32"/>
      <use transform="translate(675.244141 0.015625)" xlink:href="#DejaVuSans-49"/>
      <use transform="translate(738.867188 0.015625)" xlink:href="#DejaVuSans-53"/>
      <use transform="translate(802.490234 0.015625)" xlink:href="#DejaVuSans-37"/>
     </g>
    </g>
    <g id="patch_9">
     <path d="M 608.49976 832.952885 
L 675.166427 832.952885 
L 675.166427 809.619552 
L 608.49976 809.619552 
z
" style="fill:url(#h466363299f);"/>
    </g>
    <g id="text_17">
     <!-- 15% &lt; kde $\leq$ 30% -->
     <g transform="translate(701.833093 832.952885)scale(0.333333 -0.333333)">
      <use transform="translate(0 0.015625)" xlink:href="#DejaVuSans-49"/>
      <use transform="translate(63.623047 0.015625)" xlink:href="#DejaVuSans-53"/>
      <use transform="translate(127.246094 0.015625)" xlink:href="#DejaVuSans-37"/>
      <use transform="translate(222.265625 0.015625)" xlink:href="#DejaVuSans-32"/>
      <use transform="translate(254.052734 0.015625)" xlink:href="#DejaVuSans-60"/>
      <use transform="translate(337.841797 0.015625)" xlink:href="#DejaVuSans-32"/>
      <use transform="translate(369.628906 0.015625)" xlink:href="#DejaVuSans-107"/>
      <use transform="translate(427.539062 0.015625)" xlink:href="#DejaVuSans-100"/>
      <use transform="translate(491.015625 0.015625)" xlink:href="#DejaVuSans-101"/>
      <use transform="translate(552.539062 0.015625)" xlink:href="#DejaVuSans-32"/>
      <use transform="translate(603.808594 0.015625)" xlink:href="#DejaVuSans-8804"/>
      <use transform="translate(707.080078 0.015625)" xlink:href="#DejaVuSans-32"/>
      <use transform="translate(738.867188 0.015625)" xlink:href="#DejaVuSans-51"/>
      <use transform="translate(802.490234 0.015625)" xlink:href="#DejaVuSans-48"/>
      <use transform="translate(866.113281 0.015625)" xlink:href="#DejaVuSans-37"/>
     </g>
    </g>
    <g id="patch_10">
     <path d="M 608.49976 881.879968 
L 675.166427 881.879968 
L 675.166427 858.546635 
L 608.49976 858.546635 
z
" style="fill:url(#h85ad0b6d0e);"/>
    </g>
    <g id="text_18">
     <!-- 30% &lt; kde $\leq$ 45% -->
     <g transform="translate(701.833093 881.879968)scale(0.333333 -0.333333)">
      <use transform="translate(0 0.015625)" xlink:href="#DejaVuSans-51"/>
      <use transform="translate(63.623047 0.015625)" xlink:href="#DejaVuSans-48"/>
      <use transform="translate(127.246094 0.015625)" xlink:href="#DejaVuSans-37"/>
      <use transform="translate(222.265625 0.015625)" xlink:href="#DejaVuSans-32"/>
      <use transform="translate(254.052734 0.015625)" xlink:href="#DejaVuSans-60"/>
      <use transform="translate(337.841797 0.015625)" xlink:href="#DejaVuSans-32"/>
      <use transform="translate(369.628906 0.015625)" xlink:href="#DejaVuSans-107"/>
      <use transform="translate(427.539062 0.015625)" xlink:href="#DejaVuSans-100"/>
      <use transform="translate(491.015625 0.015625)" xlink:href="#DejaVuSans-101"/>
      <use transform="translate(552.539062 0.015625)" xlink:href="#DejaVuSans-32"/>
      <use transform="translate(603.808594 0.015625)" xlink:href="#DejaVuSans-8804"/>
      <use transform="translate(707.080078 0.015625)" xlink:href="#DejaVuSans-32"/>
      <use transform="translate(738.867188 0.015625)" xlink:href="#DejaVuSans-52"/>
      <use transform="translate(802.490234 0.015625)" xlink:href="#DejaVuSans-53"/>
      <use transform="translate(866.113281 0.015625)" xlink:href="#DejaVuSans-37"/>
     </g>
    </g>
    <g id="patch_11">
     <path d="M 608.49976 930.807052 
L 675.166427 930.807052 
L 675.166427 907.473718 
L 608.49976 907.473718 
z
" style="fill:url(#h6cb9fafc0f);"/>
    </g>
    <g id="text_19">
     <!-- 45% &lt; kde $\leq$ 100% -->
     <g transform="translate(701.833093 930.807052)scale(0.333333 -0.333333)">
      <use transform="translate(0 0.015625)" xlink:href="#DejaVuSans-52"/>
      <use transform="translate(63.623047 0.015625)" xlink:href="#DejaVuSans-53"/>
      <use transform="translate(127.246094 0.015625)" xlink:href="#DejaVuSans-37"/>
      <use transform="translate(222.265625 0.015625)" xlink:href="#DejaVuSans-32"/>
      <use transform="translate(254.052734 0.015625)" xlink:href="#DejaVuSans-60"/>
      <use transform="translate(337.841797 0.015625)" xlink:href="#DejaVuSans-32"/>
      <use transform="translate(369.628906 0.015625)" xlink:href="#DejaVuSans-107"/>
      <use transform="translate(427.539062 0.015625)" xlink:href="#DejaVuSans-100"/>
      <use transform="translate(491.015625 0.015625)" xlink:href="#DejaVuSans-101"/>
      <use transform="translate(552.539062 0.015625)" xlink:href="#DejaVuSans-32"/>
      <use transform="translate(603.808594 0.015625)" xlink:href="#DejaVuSans-8804"/>
      <use transform="translate(707.080078 0.015625)" xlink:href="#DejaVuSans-32"/>
      <use transform="translate(738.867188 0.015625)" xlink:href="#DejaVuSans-49"/>
      <use transform="translate(802.490234 0.015625)" xlink:href="#DejaVuSans-48"/>
      <use transform="translate(866.113281 0.015625)" xlink:href="#DejaVuSans-48"/>
      <use transform="translate(929.736328 0.015625)" xlink:href="#DejaVuSans-37"/>
     </g>
    </g>
   </g>
   <g id="legend_2">
    <g id="patch_12">
     <path d="M 601.833093 951.072677 
L 1050.166427 951.072677 
Q 1056.833093 951.072677 1056.833093 944.40601 
L 1056.833093 688.364343 
Q 1056.833093 681.697677 1050.166427 681.697677 
L 601.833093 681.697677 
Q 595.166427 681.697677 595.166427 688.364343 
L 595.166427 944.40601 
Q 595.166427 951.072677 601.833093 951.072677 
z
" style="fill:#ffffff;opacity:0.5;stroke:#cccccc;stroke-linejoin:miter;"/>
    </g>
    <g id="text_20">
     <!-- $\hat{P}_{leaky}$, MI = 0.436 -->
     <g transform="translate(681.833093 731.697677)scale(0.333333 -0.333333)">
      <use transform="translate(62.653809 30.015625)" xlink:href="#DejaVuSans-770"/>
      <use transform="translate(0 0.609375)" xlink:href="#DejaVuSans-Oblique-80"/>
      <use transform="translate(61.259766 -15.796875)scale(0.7)" xlink:href="#DejaVuSans-Oblique-108"/>
      <use transform="translate(80.708008 -15.796875)scale(0.7)" xlink:href="#DejaVuSans-Oblique-101"/>
      <use transform="translate(123.774414 -15.796875)scale(0.7)" xlink:href="#DejaVuSans-Oblique-97"/>
      <use transform="translate(166.669922 -15.796875)scale(0.7)" xlink:href="#DejaVuSans-Oblique-107"/>
      <use transform="translate(207.207031 -15.796875)scale(0.7)" xlink:href="#DejaVuSans-Oblique-121"/>
      <use transform="translate(251.367188 0.609375)" xlink:href="#DejaVuSans-44"/>
      <use transform="translate(283.154297 0.609375)" xlink:href="#DejaVuSans-32"/>
      <use transform="translate(314.941406 0.609375)" xlink:href="#DejaVuSans-77"/>
      <use transform="translate(401.220703 0.609375)" xlink:href="#DejaVuSans-73"/>
      <use transform="translate(430.712891 0.609375)" xlink:href="#DejaVuSans-32"/>
      <use transform="translate(462.5 0.609375)" xlink:href="#DejaVuSans-61"/>
      <use transform="translate(546.289062 0.609375)" xlink:href="#DejaVuSans-32"/>
      <use transform="translate(578.076172 0.609375)" xlink:href="#DejaVuSans-48"/>
      <use transform="translate(641.699219 0.609375)" xlink:href="#DejaVuSans-46"/>
      <use transform="translate(673.486328 0.609375)" xlink:href="#DejaVuSans-52"/>
      <use transform="translate(737.109375 0.609375)" xlink:href="#DejaVuSans-51"/>
      <use transform="translate(800.732422 0.609375)" xlink:href="#DejaVuSans-54"/>
     </g>
    </g>
    <g id="patch_13">
     <path d="M 608.49976 784.025802 
L 675.166427 784.025802 
L 675.166427 760.692468 
L 608.49976 760.692468 
z
" style="fill:none;"/>
    </g>
    <g id="text_21">
     <!-- 0% &lt; kde $\leq$ 15% -->
     <g transform="translate(701.833093 784.025802)scale(0.333333 -0.333333)">
      <use transform="translate(0 0.015625)" xlink:href="#DejaVuSans-48"/>
      <use transform="translate(63.623047 0.015625)" xlink:href="#DejaVuSans-37"/>
      <use transform="translate(158.642578 0.015625)" xlink:href="#DejaVuSans-32"/>
      <use transform="translate(190.429688 0.015625)" xlink:href="#DejaVuSans-60"/>
      <use transform="translate(274.21875 0.015625)" xlink:href="#DejaVuSans-32"/>
      <use transform="translate(306.005859 0.015625)" xlink:href="#DejaVuSans-107"/>
      <use transform="translate(363.916016 0.015625)" xlink:href="#DejaVuSans-100"/>
      <use transform="translate(427.392578 0.015625)" xlink:href="#DejaVuSans-101"/>
      <use transform="translate(488.916016 0.015625)" xlink:href="#DejaVuSans-32"/>
      <use transform="translate(540.185547 0.015625)" xlink:href="#DejaVuSans-8804"/>
      <use transform="translate(643.457031 0.015625)" xlink:href="#DejaVuSans-32"/>
      <use transform="translate(675.244141 0.015625)" xlink:href="#DejaVuSans-49"/>
      <use transform="translate(738.867188 0.015625)" xlink:href="#DejaVuSans-53"/>
      <use transform="translate(802.490234 0.015625)" xlink:href="#DejaVuSans-37"/>
     </g>
    </g>
    <g id="patch_14">
     <path d="M 608.49976 832.952885 
L 675.166427 832.952885 
L 675.166427 809.619552 
L 608.49976 809.619552 
z
" style="fill:url(#h466363299f);"/>
    </g>
    <g id="text_22">
     <!-- 15% &lt; kde $\leq$ 30% -->
     <g transform="translate(701.833093 832.952885)scale(0.333333 -0.333333)">
      <use transform="translate(0 0.015625)" xlink:href="#DejaVuSans-49"/>
      <use transform="translate(63.623047 0.015625)" xlink:href="#DejaVuSans-53"/>
      <use transform="translate(127.246094 0.015625)" xlink:href="#DejaVuSans-37"/>
      <use transform="translate(222.265625 0.015625)" xlink:href="#DejaVuSans-32"/>
      <use transform="translate(254.052734 0.015625)" xlink:href="#DejaVuSans-60"/>
      <use transform="translate(337.841797 0.015625)" xlink:href="#DejaVuSans-32"/>
      <use transform="translate(369.628906 0.015625)" xlink:href="#DejaVuSans-107"/>
      <use transform="translate(427.539062 0.015625)" xlink:href="#DejaVuSans-100"/>
      <use transform="translate(491.015625 0.015625)" xlink:href="#DejaVuSans-101"/>
      <use transform="translate(552.539062 0.015625)" xlink:href="#DejaVuSans-32"/>
      <use transform="translate(603.808594 0.015625)" xlink:href="#DejaVuSans-8804"/>
      <use transform="translate(707.080078 0.015625)" xlink:href="#DejaVuSans-32"/>
      <use transform="translate(738.867188 0.015625)" xlink:href="#DejaVuSans-51"/>
      <use transform="translate(802.490234 0.015625)" xlink:href="#DejaVuSans-48"/>
      <use transform="translate(866.113281 0.015625)" xlink:href="#DejaVuSans-37"/>
     </g>
    </g>
    <g id="patch_15">
     <path d="M 608.49976 881.879968 
L 675.166427 881.879968 
L 675.166427 858.546635 
L 608.49976 858.546635 
z
" style="fill:url(#h85ad0b6d0e);"/>
    </g>
    <g id="text_23">
     <!-- 30% &lt; kde $\leq$ 45% -->
     <g transform="translate(701.833093 881.879968)scale(0.333333 -0.333333)">
      <use transform="translate(0 0.015625)" xlink:href="#DejaVuSans-51"/>
      <use transform="translate(63.623047 0.015625)" xlink:href="#DejaVuSans-48"/>
      <use transform="translate(127.246094 0.015625)" xlink:href="#DejaVuSans-37"/>
      <use transform="translate(222.265625 0.015625)" xlink:href="#DejaVuSans-32"/>
      <use transform="translate(254.052734 0.015625)" xlink:href="#DejaVuSans-60"/>
      <use transform="translate(337.841797 0.015625)" xlink:href="#DejaVuSans-32"/>
      <use transform="translate(369.628906 0.015625)" xlink:href="#DejaVuSans-107"/>
      <use transform="translate(427.539062 0.015625)" xlink:href="#DejaVuSans-100"/>
      <use transform="translate(491.015625 0.015625)" xlink:href="#DejaVuSans-101"/>
      <use transform="translate(552.539062 0.015625)" xlink:href="#DejaVuSans-32"/>
      <use transform="translate(603.808594 0.015625)" xlink:href="#DejaVuSans-8804"/>
      <use transform="translate(707.080078 0.015625)" xlink:href="#DejaVuSans-32"/>
      <use transform="translate(738.867188 0.015625)" xlink:href="#DejaVuSans-52"/>
      <use transform="translate(802.490234 0.015625)" xlink:href="#DejaVuSans-53"/>
      <use transform="translate(866.113281 0.015625)" xlink:href="#DejaVuSans-37"/>
     </g>
    </g>
    <g id="patch_16">
     <path d="M 608.49976 930.807052 
L 675.166427 930.807052 
L 675.166427 907.473718 
L 608.49976 907.473718 
z
" style="fill:url(#h6cb9fafc0f);"/>
    </g>
    <g id="text_24">
     <!-- 45% &lt; kde $\leq$ 100% -->
     <g transform="translate(701.833093 930.807052)scale(0.333333 -0.333333)">
      <use transform="translate(0 0.015625)" xlink:href="#DejaVuSans-52"/>
      <use transform="translate(63.623047 0.015625)" xlink:href="#DejaVuSans-53"/>
      <use transform="translate(127.246094 0.015625)" xlink:href="#DejaVuSans-37"/>
      <use transform="translate(222.265625 0.015625)" xlink:href="#DejaVuSans-32"/>
      <use transform="translate(254.052734 0.015625)" xlink:href="#DejaVuSans-60"/>
      <use transform="translate(337.841797 0.015625)" xlink:href="#DejaVuSans-32"/>
      <use transform="translate(369.628906 0.015625)" xlink:href="#DejaVuSans-107"/>
      <use transform="translate(427.539062 0.015625)" xlink:href="#DejaVuSans-100"/>
      <use transform="translate(491.015625 0.015625)" xlink:href="#DejaVuSans-101"/>
      <use transform="translate(552.539062 0.015625)" xlink:href="#DejaVuSans-32"/>
      <use transform="translate(603.808594 0.015625)" xlink:href="#DejaVuSans-8804"/>
      <use transform="translate(707.080078 0.015625)" xlink:href="#DejaVuSans-32"/>
      <use transform="translate(738.867188 0.015625)" xlink:href="#DejaVuSans-49"/>
      <use transform="translate(802.490234 0.015625)" xlink:href="#DejaVuSans-48"/>
      <use transform="translate(866.113281 0.015625)" xlink:href="#DejaVuSans-48"/>
      <use transform="translate(929.736328 0.015625)" xlink:href="#DejaVuSans-37"/>
     </g>
    </g>
   </g>
  </g>
 </g>
 <defs>
  <clipPath id="p4add180250">
   <rect height="961.239103" width="958.098478" x="115.401282" y="6.50024"/>
  </clipPath>
 </defs>
 <defs>
  <pattern height="72" id="h466363299f" patternUnits="userSpaceOnUse" width="72" x="0" y="0">
   <rect fill="none" height="73" width="73" x="0" y="0"/>
   <path d="M -36 36 
L 36 -36 
M -24 48 
L 48 -24 
M -12 60 
L 60 -12 
M 0 72 
L 72 0 
M 12 84 
L 84 12 
M 24 96 
L 96 24 
M 36 108 
L 108 36 
" style="fill:#ff0000;stroke:#ff0000;stroke-linecap:butt;stroke-linejoin:miter;stroke-width:1.5;"/>
  </pattern>
  <pattern height="72" id="h85ad0b6d0e" patternUnits="userSpaceOnUse" width="72" x="0" y="0">
   <rect fill="none" height="73" width="73" x="0" y="0"/>
   <path d="M -36 36 
L 36 -36 
M -32 40 
L 40 -32 
M -28 44 
L 44 -28 
M -24 48 
L 48 -24 
M -20 52 
L 52 -20 
M -16 56 
L 56 -16 
M -12 60 
L 60 -12 
M -8 64 
L 64 -8 
M -4 68 
L 68 -4 
M 0 72 
L 72 0 
M 4 76 
L 76 4 
M 8 80 
L 80 8 
M 12 84 
L 84 12 
M 16 88 
L 88 16 
M 20 92 
L 92 20 
M 24 96 
L 96 24 
M 28 100 
L 100 28 
M 32 104 
L 104 32 
M 36 108 
L 108 36 
" style="fill:#ff0000;stroke:#ff0000;stroke-linecap:butt;stroke-linejoin:miter;stroke-width:1.5;"/>
  </pattern>
  <pattern height="72" id="h6cb9fafc0f" patternUnits="userSpaceOnUse" width="72" x="0" y="0">
   <rect fill="none" height="73" width="73" x="0" y="0"/>
   <path d="M -36 36 
L 36 -36 
M -35.88 36.12 
L 36.12 -35.88 
M -35.76 36.24 
L 36.24 -35.76 
M -35.64 36.36 
L 36.36 -35.64 
M -35.52 36.48 
L 36.48 -35.52 
M -35.4 36.6 
L 36.6 -35.4 
M -35.28 36.72 
L 36.72 -35.28 
M -35.16 36.84 
L 36.84 -35.16 
M -35.04 36.96 
L 36.96 -35.04 
M -34.92 37.08 
L 37.08 -34.92 
M -34.8 37.2 
L 37.2 -34.8 
M -34.68 37.32 
L 37.32 -34.68 
M -34.56 37.44 
L 37.44 -34.56 
M -34.44 37.56 
L 37.56 -34.44 
M -34.32 37.68 
L 37.68 -34.32 
M -34.2 37.8 
L 37.8 -34.2 
M -34.08 37.92 
L 37.92 -34.08 
M -33.96 38.04 
L 38.04 -33.96 
M -33.84 38.16 
L 38.16 -33.84 
M -33.72 38.28 
L 38.28 -33.72 
M -33.6 38.4 
L 38.4 -33.6 
M -33.48 38.52 
L 38.52 -33.48 
M -33.36 38.64 
L 38.64 -33.36 
M -33.24 38.76 
L 38.76 -33.24 
M -33.12 38.88 
L 38.88 -33.12 
M -33 39 
L 39 -33 
M -32.88 39.12 
L 39.12 -32.88 
M -32.76 39.24 
L 39.24 -32.76 
M -32.64 39.36 
L 39.36 -32.64 
M -32.52 39.48 
L 39.48 -32.52 
M -32.4 39.6 
L 39.6 -32.4 
M -32.28 39.72 
L 39.72 -32.28 
M -32.16 39.84 
L 39.84 -32.16 
M -32.04 39.96 
L 39.96 -32.04 
M -31.92 40.08 
L 40.08 -31.92 
M -31.8 40.2 
L 40.2 -31.8 
M -31.68 40.32 
L 40.32 -31.68 
M -31.56 40.44 
L 40.44 -31.56 
M -31.44 40.56 
L 40.56 -31.44 
M -31.32 40.68 
L 40.68 -31.32 
M -31.2 40.8 
L 40.8 -31.2 
M -31.08 40.92 
L 40.92 -31.08 
M -30.96 41.04 
L 41.04 -30.96 
M -30.84 41.16 
L 41.16 -30.84 
M -30.72 41.28 
L 41.28 -30.72 
M -30.6 41.4 
L 41.4 -30.6 
M -30.48 41.52 
L 41.52 -30.48 
M -30.36 41.64 
L 41.64 -30.36 
M -30.24 41.76 
L 41.76 -30.24 
M -30.12 41.88 
L 41.88 -30.12 
M -30 42 
L 42 -30 
M -29.88 42.12 
L 42.12 -29.88 
M -29.76 42.24 
L 42.24 -29.76 
M -29.64 42.36 
L 42.36 -29.64 
M -29.52 42.48 
L 42.48 -29.52 
M -29.4 42.6 
L 42.6 -29.4 
M -29.28 42.72 
L 42.72 -29.28 
M -29.16 42.84 
L 42.84 -29.16 
M -29.04 42.96 
L 42.96 -29.04 
M -28.92 43.08 
L 43.08 -28.92 
M -28.8 43.2 
L 43.2 -28.8 
M -28.68 43.32 
L 43.32 -28.68 
M -28.56 43.44 
L 43.44 -28.56 
M -28.44 43.56 
L 43.56 -28.44 
M -28.32 43.68 
L 43.68 -28.32 
M -28.2 43.8 
L 43.8 -28.2 
M -28.08 43.92 
L 43.92 -28.08 
M -27.96 44.04 
L 44.04 -27.96 
M -27.84 44.16 
L 44.16 -27.84 
M -27.72 44.28 
L 44.28 -27.72 
M -27.6 44.4 
L 44.4 -27.6 
M -27.48 44.52 
L 44.52 -27.48 
M -27.36 44.64 
L 44.64 -27.36 
M -27.24 44.76 
L 44.76 -27.24 
M -27.12 44.88 
L 44.88 -27.12 
M -27 45 
L 45 -27 
M -26.88 45.12 
L 45.12 -26.88 
M -26.76 45.24 
L 45.24 -26.76 
M -26.64 45.36 
L 45.36 -26.64 
M -26.52 45.48 
L 45.48 -26.52 
M -26.4 45.6 
L 45.6 -26.4 
M -26.28 45.72 
L 45.72 -26.28 
M -26.16 45.84 
L 45.84 -26.16 
M -26.04 45.96 
L 45.96 -26.04 
M -25.92 46.08 
L 46.08 -25.92 
M -25.8 46.2 
L 46.2 -25.8 
M -25.68 46.32 
L 46.32 -25.68 
M -25.56 46.44 
L 46.44 -25.56 
M -25.44 46.56 
L 46.56 -25.44 
M -25.32 46.68 
L 46.68 -25.32 
M -25.2 46.8 
L 46.8 -25.2 
M -25.08 46.92 
L 46.92 -25.08 
M -24.96 47.04 
L 47.04 -24.96 
M -24.84 47.16 
L 47.16 -24.84 
M -24.72 47.28 
L 47.28 -24.72 
M -24.6 47.4 
L 47.4 -24.6 
M -24.48 47.52 
L 47.52 -24.48 
M -24.36 47.64 
L 47.64 -24.36 
M -24.24 47.76 
L 47.76 -24.24 
M -24.12 47.88 
L 47.88 -24.12 
M -24 48 
L 48 -24 
M -23.88 48.12 
L 48.12 -23.88 
M -23.76 48.24 
L 48.24 -23.76 
M -23.64 48.36 
L 48.36 -23.64 
M -23.52 48.48 
L 48.48 -23.52 
M -23.4 48.6 
L 48.6 -23.4 
M -23.28 48.72 
L 48.72 -23.28 
M -23.16 48.84 
L 48.84 -23.16 
M -23.04 48.96 
L 48.96 -23.04 
M -22.92 49.08 
L 49.08 -22.92 
M -22.8 49.2 
L 49.2 -22.8 
M -22.68 49.32 
L 49.32 -22.68 
M -22.56 49.44 
L 49.44 -22.56 
M -22.44 49.56 
L 49.56 -22.44 
M -22.32 49.68 
L 49.68 -22.32 
M -22.2 49.8 
L 49.8 -22.2 
M -22.08 49.92 
L 49.92 -22.08 
M -21.96 50.04 
L 50.04 -21.96 
M -21.84 50.16 
L 50.16 -21.84 
M -21.72 50.28 
L 50.28 -21.72 
M -21.6 50.4 
L 50.4 -21.6 
M -21.48 50.52 
L 50.52 -21.48 
M -21.36 50.64 
L 50.64 -21.36 
M -21.24 50.76 
L 50.76 -21.24 
M -21.12 50.88 
L 50.88 -21.12 
M -21 51 
L 51 -21 
M -20.88 51.12 
L 51.12 -20.88 
M -20.76 51.24 
L 51.24 -20.76 
M -20.64 51.36 
L 51.36 -20.64 
M -20.52 51.48 
L 51.48 -20.52 
M -20.4 51.6 
L 51.6 -20.4 
M -20.28 51.72 
L 51.72 -20.28 
M -20.16 51.84 
L 51.84 -20.16 
M -20.04 51.96 
L 51.96 -20.04 
M -19.92 52.08 
L 52.08 -19.92 
M -19.8 52.2 
L 52.2 -19.8 
M -19.68 52.32 
L 52.32 -19.68 
M -19.56 52.44 
L 52.44 -19.56 
M -19.44 52.56 
L 52.56 -19.44 
M -19.32 52.68 
L 52.68 -19.32 
M -19.2 52.8 
L 52.8 -19.2 
M -19.08 52.92 
L 52.92 -19.08 
M -18.96 53.04 
L 53.04 -18.96 
M -18.84 53.16 
L 53.16 -18.84 
M -18.72 53.28 
L 53.28 -18.72 
M -18.6 53.4 
L 53.4 -18.6 
M -18.48 53.52 
L 53.52 -18.48 
M -18.36 53.64 
L 53.64 -18.36 
M -18.24 53.76 
L 53.76 -18.24 
M -18.12 53.88 
L 53.88 -18.12 
M -18 54 
L 54 -18 
M -17.88 54.12 
L 54.12 -17.88 
M -17.76 54.24 
L 54.24 -17.76 
M -17.64 54.36 
L 54.36 -17.64 
M -17.52 54.48 
L 54.48 -17.52 
M -17.4 54.6 
L 54.6 -17.4 
M -17.28 54.72 
L 54.72 -17.28 
M -17.16 54.84 
L 54.84 -17.16 
M -17.04 54.96 
L 54.96 -17.04 
M -16.92 55.08 
L 55.08 -16.92 
M -16.8 55.2 
L 55.2 -16.8 
M -16.68 55.32 
L 55.32 -16.68 
M -16.56 55.44 
L 55.44 -16.56 
M -16.44 55.56 
L 55.56 -16.44 
M -16.32 55.68 
L 55.68 -16.32 
M -16.2 55.8 
L 55.8 -16.2 
M -16.08 55.92 
L 55.92 -16.08 
M -15.96 56.04 
L 56.04 -15.96 
M -15.84 56.16 
L 56.16 -15.84 
M -15.72 56.28 
L 56.28 -15.72 
M -15.6 56.4 
L 56.4 -15.6 
M -15.48 56.52 
L 56.52 -15.48 
M -15.36 56.64 
L 56.64 -15.36 
M -15.24 56.76 
L 56.76 -15.24 
M -15.12 56.88 
L 56.88 -15.12 
M -15 57 
L 57 -15 
M -14.88 57.12 
L 57.12 -14.88 
M -14.76 57.24 
L 57.24 -14.76 
M -14.64 57.36 
L 57.36 -14.64 
M -14.52 57.48 
L 57.48 -14.52 
M -14.4 57.6 
L 57.6 -14.4 
M -14.28 57.72 
L 57.72 -14.28 
M -14.16 57.84 
L 57.84 -14.16 
M -14.04 57.96 
L 57.96 -14.04 
M -13.92 58.08 
L 58.08 -13.92 
M -13.8 58.2 
L 58.2 -13.8 
M -13.68 58.32 
L 58.32 -13.68 
M -13.56 58.44 
L 58.44 -13.56 
M -13.44 58.56 
L 58.56 -13.44 
M -13.32 58.68 
L 58.68 -13.32 
M -13.2 58.8 
L 58.8 -13.2 
M -13.08 58.92 
L 58.92 -13.08 
M -12.96 59.04 
L 59.04 -12.96 
M -12.84 59.16 
L 59.16 -12.84 
M -12.72 59.28 
L 59.28 -12.72 
M -12.6 59.4 
L 59.4 -12.6 
M -12.48 59.52 
L 59.52 -12.48 
M -12.36 59.64 
L 59.64 -12.36 
M -12.24 59.76 
L 59.76 -12.24 
M -12.12 59.88 
L 59.88 -12.12 
M -12 60 
L 60 -12 
M -11.88 60.12 
L 60.12 -11.88 
M -11.76 60.24 
L 60.24 -11.76 
M -11.64 60.36 
L 60.36 -11.64 
M -11.52 60.48 
L 60.48 -11.52 
M -11.4 60.6 
L 60.6 -11.4 
M -11.28 60.72 
L 60.72 -11.28 
M -11.16 60.84 
L 60.84 -11.16 
M -11.04 60.96 
L 60.96 -11.04 
M -10.92 61.08 
L 61.08 -10.92 
M -10.8 61.2 
L 61.2 -10.8 
M -10.68 61.32 
L 61.32 -10.68 
M -10.56 61.44 
L 61.44 -10.56 
M -10.44 61.56 
L 61.56 -10.44 
M -10.32 61.68 
L 61.68 -10.32 
M -10.2 61.8 
L 61.8 -10.2 
M -10.08 61.92 
L 61.92 -10.08 
M -9.96 62.04 
L 62.04 -9.96 
M -9.84 62.16 
L 62.16 -9.84 
M -9.72 62.28 
L 62.28 -9.72 
M -9.6 62.4 
L 62.4 -9.6 
M -9.48 62.52 
L 62.52 -9.48 
M -9.36 62.64 
L 62.64 -9.36 
M -9.24 62.76 
L 62.76 -9.24 
M -9.12 62.88 
L 62.88 -9.12 
M -9 63 
L 63 -9 
M -8.88 63.12 
L 63.12 -8.88 
M -8.76 63.24 
L 63.24 -8.76 
M -8.64 63.36 
L 63.36 -8.64 
M -8.52 63.48 
L 63.48 -8.52 
M -8.4 63.6 
L 63.6 -8.4 
M -8.28 63.72 
L 63.72 -8.28 
M -8.16 63.84 
L 63.84 -8.16 
M -8.04 63.96 
L 63.96 -8.04 
M -7.92 64.08 
L 64.08 -7.92 
M -7.8 64.2 
L 64.2 -7.8 
M -7.68 64.32 
L 64.32 -7.68 
M -7.56 64.44 
L 64.44 -7.56 
M -7.44 64.56 
L 64.56 -7.44 
M -7.32 64.68 
L 64.68 -7.32 
M -7.2 64.8 
L 64.8 -7.2 
M -7.08 64.92 
L 64.92 -7.08 
M -6.96 65.04 
L 65.04 -6.96 
M -6.84 65.16 
L 65.16 -6.84 
M -6.72 65.28 
L 65.28 -6.72 
M -6.6 65.4 
L 65.4 -6.6 
M -6.48 65.52 
L 65.52 -6.48 
M -6.36 65.64 
L 65.64 -6.36 
M -6.24 65.76 
L 65.76 -6.24 
M -6.12 65.88 
L 65.88 -6.12 
M -6 66 
L 66 -6 
M -5.88 66.12 
L 66.12 -5.88 
M -5.76 66.24 
L 66.24 -5.76 
M -5.64 66.36 
L 66.36 -5.64 
M -5.52 66.48 
L 66.48 -5.52 
M -5.4 66.6 
L 66.6 -5.4 
M -5.28 66.72 
L 66.72 -5.28 
M -5.16 66.84 
L 66.84 -5.16 
M -5.04 66.96 
L 66.96 -5.04 
M -4.92 67.08 
L 67.08 -4.92 
M -4.8 67.2 
L 67.2 -4.8 
M -4.68 67.32 
L 67.32 -4.68 
M -4.56 67.44 
L 67.44 -4.56 
M -4.44 67.56 
L 67.56 -4.44 
M -4.32 67.68 
L 67.68 -4.32 
M -4.2 67.8 
L 67.8 -4.2 
M -4.08 67.92 
L 67.92 -4.08 
M -3.96 68.04 
L 68.04 -3.96 
M -3.84 68.16 
L 68.16 -3.84 
M -3.72 68.28 
L 68.28 -3.72 
M -3.6 68.4 
L 68.4 -3.6 
M -3.48 68.52 
L 68.52 -3.48 
M -3.36 68.64 
L 68.64 -3.36 
M -3.24 68.76 
L 68.76 -3.24 
M -3.12 68.88 
L 68.88 -3.12 
M -3 69 
L 69 -3 
M -2.88 69.12 
L 69.12 -2.88 
M -2.76 69.24 
L 69.24 -2.76 
M -2.64 69.36 
L 69.36 -2.64 
M -2.52 69.48 
L 69.48 -2.52 
M -2.4 69.6 
L 69.6 -2.4 
M -2.28 69.72 
L 69.72 -2.28 
M -2.16 69.84 
L 69.84 -2.16 
M -2.04 69.96 
L 69.96 -2.04 
M -1.92 70.08 
L 70.08 -1.92 
M -1.8 70.2 
L 70.2 -1.8 
M -1.68 70.32 
L 70.32 -1.68 
M -1.56 70.44 
L 70.44 -1.56 
M -1.44 70.56 
L 70.56 -1.44 
M -1.32 70.68 
L 70.68 -1.32 
M -1.2 70.8 
L 70.8 -1.2 
M -1.08 70.92 
L 70.92 -1.08 
M -0.96 71.04 
L 71.04 -0.96 
M -0.84 71.16 
L 71.16 -0.84 
M -0.72 71.28 
L 71.28 -0.72 
M -0.6 71.4 
L 71.4 -0.6 
M -0.48 71.52 
L 71.52 -0.48 
M -0.36 71.64 
L 71.64 -0.36 
M -0.24 71.76 
L 71.76 -0.24 
M -0.12 71.88 
L 71.88 -0.12 
M 0 72 
L 72 0 
M 0.12 72.12 
L 72.12 0.12 
M 0.24 72.24 
L 72.24 0.24 
M 0.36 72.36 
L 72.36 0.36 
M 0.48 72.48 
L 72.48 0.48 
M 0.6 72.6 
L 72.6 0.6 
M 0.72 72.72 
L 72.72 0.72 
M 0.84 72.84 
L 72.84 0.84 
M 0.96 72.96 
L 72.96 0.96 
M 1.08 73.08 
L 73.08 1.08 
M 1.2 73.2 
L 73.2 1.2 
M 1.32 73.32 
L 73.32 1.32 
M 1.44 73.44 
L 73.44 1.44 
M 1.56 73.56 
L 73.56 1.56 
M 1.68 73.68 
L 73.68 1.68 
M 1.8 73.8 
L 73.8 1.8 
M 1.92 73.92 
L 73.92 1.92 
M 2.04 74.04 
L 74.04 2.04 
M 2.16 74.16 
L 74.16 2.16 
M 2.28 74.28 
L 74.28 2.28 
M 2.4 74.4 
L 74.4 2.4 
M 2.52 74.52 
L 74.52 2.52 
M 2.64 74.64 
L 74.64 2.64 
M 2.76 74.76 
L 74.76 2.76 
M 2.88 74.88 
L 74.88 2.88 
M 3 75 
L 75 3 
M 3.12 75.12 
L 75.12 3.12 
M 3.24 75.24 
L 75.24 3.24 
M 3.36 75.36 
L 75.36 3.36 
M 3.48 75.48 
L 75.48 3.48 
M 3.6 75.6 
L 75.6 3.6 
M 3.72 75.72 
L 75.72 3.72 
M 3.84 75.84 
L 75.84 3.84 
M 3.96 75.96 
L 75.96 3.96 
M 4.08 76.08 
L 76.08 4.08 
M 4.2 76.2 
L 76.2 4.2 
M 4.32 76.32 
L 76.32 4.32 
M 4.44 76.44 
L 76.44 4.44 
M 4.56 76.56 
L 76.56 4.56 
M 4.68 76.68 
L 76.68 4.68 
M 4.8 76.8 
L 76.8 4.8 
M 4.92 76.92 
L 76.92 4.92 
M 5.04 77.04 
L 77.04 5.04 
M 5.16 77.16 
L 77.16 5.16 
M 5.28 77.28 
L 77.28 5.28 
M 5.4 77.4 
L 77.4 5.4 
M 5.52 77.52 
L 77.52 5.52 
M 5.64 77.64 
L 77.64 5.64 
M 5.76 77.76 
L 77.76 5.76 
M 5.88 77.88 
L 77.88 5.88 
M 6 78 
L 78 6 
M 6.12 78.12 
L 78.12 6.12 
M 6.24 78.24 
L 78.24 6.24 
M 6.36 78.36 
L 78.36 6.36 
M 6.48 78.48 
L 78.48 6.48 
M 6.6 78.6 
L 78.6 6.6 
M 6.72 78.72 
L 78.72 6.72 
M 6.84 78.84 
L 78.84 6.84 
M 6.96 78.96 
L 78.96 6.96 
M 7.08 79.08 
L 79.08 7.08 
M 7.2 79.2 
L 79.2 7.2 
M 7.32 79.32 
L 79.32 7.32 
M 7.44 79.44 
L 79.44 7.44 
M 7.56 79.56 
L 79.56 7.56 
M 7.68 79.68 
L 79.68 7.68 
M 7.8 79.8 
L 79.8 7.8 
M 7.92 79.92 
L 79.92 7.92 
M 8.04 80.04 
L 80.04 8.04 
M 8.16 80.16 
L 80.16 8.16 
M 8.28 80.28 
L 80.28 8.28 
M 8.4 80.4 
L 80.4 8.4 
M 8.52 80.52 
L 80.52 8.52 
M 8.64 80.64 
L 80.64 8.64 
M 8.76 80.76 
L 80.76 8.76 
M 8.88 80.88 
L 80.88 8.88 
M 9 81 
L 81 9 
M 9.12 81.12 
L 81.12 9.12 
M 9.24 81.24 
L 81.24 9.24 
M 9.36 81.36 
L 81.36 9.36 
M 9.48 81.48 
L 81.48 9.48 
M 9.6 81.6 
L 81.6 9.6 
M 9.72 81.72 
L 81.72 9.72 
M 9.84 81.84 
L 81.84 9.84 
M 9.96 81.96 
L 81.96 9.96 
M 10.08 82.08 
L 82.08 10.08 
M 10.2 82.2 
L 82.2 10.2 
M 10.32 82.32 
L 82.32 10.32 
M 10.44 82.44 
L 82.44 10.44 
M 10.56 82.56 
L 82.56 10.56 
M 10.68 82.68 
L 82.68 10.68 
M 10.8 82.8 
L 82.8 10.8 
M 10.92 82.92 
L 82.92 10.92 
M 11.04 83.04 
L 83.04 11.04 
M 11.16 83.16 
L 83.16 11.16 
M 11.28 83.28 
L 83.28 11.28 
M 11.4 83.4 
L 83.4 11.4 
M 11.52 83.52 
L 83.52 11.52 
M 11.64 83.64 
L 83.64 11.64 
M 11.76 83.76 
L 83.76 11.76 
M 11.88 83.88 
L 83.88 11.88 
M 12 84 
L 84 12 
M 12.12 84.12 
L 84.12 12.12 
M 12.24 84.24 
L 84.24 12.24 
M 12.36 84.36 
L 84.36 12.36 
M 12.48 84.48 
L 84.48 12.48 
M 12.6 84.6 
L 84.6 12.6 
M 12.72 84.72 
L 84.72 12.72 
M 12.84 84.84 
L 84.84 12.84 
M 12.96 84.96 
L 84.96 12.96 
M 13.08 85.08 
L 85.08 13.08 
M 13.2 85.2 
L 85.2 13.2 
M 13.32 85.32 
L 85.32 13.32 
M 13.44 85.44 
L 85.44 13.44 
M 13.56 85.56 
L 85.56 13.56 
M 13.68 85.68 
L 85.68 13.68 
M 13.8 85.8 
L 85.8 13.8 
M 13.92 85.92 
L 85.92 13.92 
M 14.04 86.04 
L 86.04 14.04 
M 14.16 86.16 
L 86.16 14.16 
M 14.28 86.28 
L 86.28 14.28 
M 14.4 86.4 
L 86.4 14.4 
M 14.52 86.52 
L 86.52 14.52 
M 14.64 86.64 
L 86.64 14.64 
M 14.76 86.76 
L 86.76 14.76 
M 14.88 86.88 
L 86.88 14.88 
M 15 87 
L 87 15 
M 15.12 87.12 
L 87.12 15.12 
M 15.24 87.24 
L 87.24 15.24 
M 15.36 87.36 
L 87.36 15.36 
M 15.48 87.48 
L 87.48 15.48 
M 15.6 87.6 
L 87.6 15.6 
M 15.72 87.72 
L 87.72 15.72 
M 15.84 87.84 
L 87.84 15.84 
M 15.96 87.96 
L 87.96 15.96 
M 16.08 88.08 
L 88.08 16.08 
M 16.2 88.2 
L 88.2 16.2 
M 16.32 88.32 
L 88.32 16.32 
M 16.44 88.44 
L 88.44 16.44 
M 16.56 88.56 
L 88.56 16.56 
M 16.68 88.68 
L 88.68 16.68 
M 16.8 88.8 
L 88.8 16.8 
M 16.92 88.92 
L 88.92 16.92 
M 17.04 89.04 
L 89.04 17.04 
M 17.16 89.16 
L 89.16 17.16 
M 17.28 89.28 
L 89.28 17.28 
M 17.4 89.4 
L 89.4 17.4 
M 17.52 89.52 
L 89.52 17.52 
M 17.64 89.64 
L 89.64 17.64 
M 17.76 89.76 
L 89.76 17.76 
M 17.88 89.88 
L 89.88 17.88 
M 18 90 
L 90 18 
M 18.12 90.12 
L 90.12 18.12 
M 18.24 90.24 
L 90.24 18.24 
M 18.36 90.36 
L 90.36 18.36 
M 18.48 90.48 
L 90.48 18.48 
M 18.6 90.6 
L 90.6 18.6 
M 18.72 90.72 
L 90.72 18.72 
M 18.84 90.84 
L 90.84 18.84 
M 18.96 90.96 
L 90.96 18.96 
M 19.08 91.08 
L 91.08 19.08 
M 19.2 91.2 
L 91.2 19.2 
M 19.32 91.32 
L 91.32 19.32 
M 19.44 91.44 
L 91.44 19.44 
M 19.56 91.56 
L 91.56 19.56 
M 19.68 91.68 
L 91.68 19.68 
M 19.8 91.8 
L 91.8 19.8 
M 19.92 91.92 
L 91.92 19.92 
M 20.04 92.04 
L 92.04 20.04 
M 20.16 92.16 
L 92.16 20.16 
M 20.28 92.28 
L 92.28 20.28 
M 20.4 92.4 
L 92.4 20.4 
M 20.52 92.52 
L 92.52 20.52 
M 20.64 92.64 
L 92.64 20.64 
M 20.76 92.76 
L 92.76 20.76 
M 20.88 92.88 
L 92.88 20.88 
M 21 93 
L 93 21 
M 21.12 93.12 
L 93.12 21.12 
M 21.24 93.24 
L 93.24 21.24 
M 21.36 93.36 
L 93.36 21.36 
M 21.48 93.48 
L 93.48 21.48 
M 21.6 93.6 
L 93.6 21.6 
M 21.72 93.72 
L 93.72 21.72 
M 21.84 93.84 
L 93.84 21.84 
M 21.96 93.96 
L 93.96 21.96 
M 22.08 94.08 
L 94.08 22.08 
M 22.2 94.2 
L 94.2 22.2 
M 22.32 94.32 
L 94.32 22.32 
M 22.44 94.44 
L 94.44 22.44 
M 22.56 94.56 
L 94.56 22.56 
M 22.68 94.68 
L 94.68 22.68 
M 22.8 94.8 
L 94.8 22.8 
M 22.92 94.92 
L 94.92 22.92 
M 23.04 95.04 
L 95.04 23.04 
M 23.16 95.16 
L 95.16 23.16 
M 23.28 95.28 
L 95.28 23.28 
M 23.4 95.4 
L 95.4 23.4 
M 23.52 95.52 
L 95.52 23.52 
M 23.64 95.64 
L 95.64 23.64 
M 23.76 95.76 
L 95.76 23.76 
M 23.88 95.88 
L 95.88 23.88 
M 24 96 
L 96 24 
M 24.12 96.12 
L 96.12 24.12 
M 24.24 96.24 
L 96.24 24.24 
M 24.36 96.36 
L 96.36 24.36 
M 24.48 96.48 
L 96.48 24.48 
M 24.6 96.6 
L 96.6 24.6 
M 24.72 96.72 
L 96.72 24.72 
M 24.84 96.84 
L 96.84 24.84 
M 24.96 96.96 
L 96.96 24.96 
M 25.08 97.08 
L 97.08 25.08 
M 25.2 97.2 
L 97.2 25.2 
M 25.32 97.32 
L 97.32 25.32 
M 25.44 97.44 
L 97.44 25.44 
M 25.56 97.56 
L 97.56 25.56 
M 25.68 97.68 
L 97.68 25.68 
M 25.8 97.8 
L 97.8 25.8 
M 25.92 97.92 
L 97.92 25.92 
M 26.04 98.04 
L 98.04 26.04 
M 26.16 98.16 
L 98.16 26.16 
M 26.28 98.28 
L 98.28 26.28 
M 26.4 98.4 
L 98.4 26.4 
M 26.52 98.52 
L 98.52 26.52 
M 26.64 98.64 
L 98.64 26.64 
M 26.76 98.76 
L 98.76 26.76 
M 26.88 98.88 
L 98.88 26.88 
M 27 99 
L 99 27 
M 27.12 99.12 
L 99.12 27.12 
M 27.24 99.24 
L 99.24 27.24 
M 27.36 99.36 
L 99.36 27.36 
M 27.48 99.48 
L 99.48 27.48 
M 27.6 99.6 
L 99.6 27.6 
M 27.72 99.72 
L 99.72 27.72 
M 27.84 99.84 
L 99.84 27.84 
M 27.96 99.96 
L 99.96 27.96 
M 28.08 100.08 
L 100.08 28.08 
M 28.2 100.2 
L 100.2 28.2 
M 28.32 100.32 
L 100.32 28.32 
M 28.44 100.44 
L 100.44 28.44 
M 28.56 100.56 
L 100.56 28.56 
M 28.68 100.68 
L 100.68 28.68 
M 28.8 100.8 
L 100.8 28.8 
M 28.92 100.92 
L 100.92 28.92 
M 29.04 101.04 
L 101.04 29.04 
M 29.16 101.16 
L 101.16 29.16 
M 29.28 101.28 
L 101.28 29.28 
M 29.4 101.4 
L 101.4 29.4 
M 29.52 101.52 
L 101.52 29.52 
M 29.64 101.64 
L 101.64 29.64 
M 29.76 101.76 
L 101.76 29.76 
M 29.88 101.88 
L 101.88 29.88 
M 30 102 
L 102 30 
M 30.12 102.12 
L 102.12 30.12 
M 30.24 102.24 
L 102.24 30.24 
M 30.36 102.36 
L 102.36 30.36 
M 30.48 102.48 
L 102.48 30.48 
M 30.6 102.6 
L 102.6 30.6 
M 30.72 102.72 
L 102.72 30.72 
M 30.84 102.84 
L 102.84 30.84 
M 30.96 102.96 
L 102.96 30.96 
M 31.08 103.08 
L 103.08 31.08 
M 31.2 103.2 
L 103.2 31.2 
M 31.32 103.32 
L 103.32 31.32 
M 31.44 103.44 
L 103.44 31.44 
M 31.56 103.56 
L 103.56 31.56 
M 31.68 103.68 
L 103.68 31.68 
M 31.8 103.8 
L 103.8 31.8 
M 31.92 103.92 
L 103.92 31.92 
M 32.04 104.04 
L 104.04 32.04 
M 32.16 104.16 
L 104.16 32.16 
M 32.28 104.28 
L 104.28 32.28 
M 32.4 104.4 
L 104.4 32.4 
M 32.52 104.52 
L 104.52 32.52 
M 32.64 104.64 
L 104.64 32.64 
M 32.76 104.76 
L 104.76 32.76 
M 32.88 104.88 
L 104.88 32.88 
M 33 105 
L 105 33 
M 33.12 105.12 
L 105.12 33.12 
M 33.24 105.24 
L 105.24 33.24 
M 33.36 105.36 
L 105.36 33.36 
M 33.48 105.48 
L 105.48 33.48 
M 33.6 105.6 
L 105.6 33.6 
M 33.72 105.72 
L 105.72 33.72 
M 33.84 105.84 
L 105.84 33.84 
M 33.96 105.96 
L 105.96 33.96 
M 34.08 106.08 
L 106.08 34.08 
M 34.2 106.2 
L 106.2 34.2 
M 34.32 106.32 
L 106.32 34.32 
M 34.44 106.44 
L 106.44 34.44 
M 34.56 106.56 
L 106.56 34.56 
M 34.68 106.68 
L 106.68 34.68 
M 34.8 106.8 
L 106.8 34.8 
M 34.92 106.92 
L 106.92 34.92 
M 35.04 107.04 
L 107.04 35.04 
M 35.16 107.16 
L 107.16 35.16 
M 35.28 107.28 
L 107.28 35.28 
M 35.4 107.4 
L 107.4 35.4 
M 35.52 107.52 
L 107.52 35.52 
M 35.64 107.64 
L 107.64 35.64 
M 35.76 107.76 
L 107.76 35.76 
M 35.88 107.88 
L 107.88 35.88 
M 36 108 
L 108 36 
" style="fill:#ff0000;stroke:#ff0000;stroke-linecap:butt;stroke-linejoin:miter;stroke-width:1.5;"/>
  </pattern>
 </defs>
</svg>
