<?xml version="1.0" encoding="utf-8" standalone="no"?>
<!DOCTYPE svg PUBLIC "-//W3C//DTD SVG 1.1//EN"
  "http://www.w3.org/Graphics/SVG/1.1/DTD/svg11.dtd">
<!-- Created with matplotlib (https://matplotlib.org/) -->
<svg height="1080pt" version="1.1" viewBox="0 0 1080 1080" width="1080pt" xmlns="http://www.w3.org/2000/svg" xmlns:xlink="http://www.w3.org/1999/xlink">
 <defs>
  <style type="text/css">
*{stroke-linecap:butt;stroke-linejoin:round;}
  </style>
 </defs>
 <g id="figure_1">
  <g id="patch_1">
   <path d="M 0 1080 
L 1080 1080 
L 1080 0 
L 0 0 
z
" style="fill:#ffffff;"/>
  </g>
  <g id="axes_1">
   <g id="patch_2">
    <path d="M 115.401282 967.739343 
L 1073.49976 967.739343 
L 1073.49976 6.50024 
L 115.401282 6.50024 
z
" style="fill:#ffffff;"/>
   </g>
   <g id="PathCollection_1">
    <path clip-path="url(#pa20988f6bb)" d="M 115.401282 870.644484 
L 115.401282 860.934999 
L 115.401282 851.225513 
L 115.401282 841.516027 
L 115.401282 831.806541 
L 115.401282 822.097055 
L 115.401282 812.387569 
L 115.401282 802.678083 
L 115.401282 792.968597 
L 115.401282 783.259111 
L 115.401282 773.549625 
L 115.401282 763.84014 
L 115.401282 754.130654 
L 115.401282 744.421168 
L 115.401282 734.711682 
L 115.401282 725.002196 
L 115.401282 715.29271 
L 115.401282 705.583224 
L 115.401282 695.873738 
L 115.401282 686.164252 
L 115.401282 676.454767 
L 115.401282 666.745281 
L 115.401282 657.035795 
L 115.401282 647.326309 
L 115.401282 637.616823 
L 115.401282 627.907337 
L 115.401282 618.197851 
L 115.401282 608.488365 
L 115.401282 598.778879 
L 115.401282 589.069394 
L 115.401282 579.359908 
L 115.401282 569.650422 
L 115.401282 559.940936 
L 115.401282 550.23145 
L 115.401282 540.521964 
L 115.401282 530.812478 
L 115.401282 521.102992 
L 115.401282 511.393506 
L 115.401282 501.684021 
L 115.401282 491.974535 
L 115.401282 482.265049 
L 115.401282 472.555563 
L 115.401282 462.846077 
L 115.401282 453.136591 
L 115.401282 443.427105 
L 115.401282 433.717619 
L 115.401282 424.008133 
L 115.401282 414.298647 
L 115.401282 404.589162 
L 115.401282 394.879676 
L 115.401282 385.17019 
L 115.401282 375.460704 
L 115.401282 365.751218 
L 115.401282 356.041732 
L 115.401282 346.332246 
L 115.401282 336.62276 
L 115.401282 326.913274 
L 115.401282 317.203789 
L 115.401282 307.494303 
L 115.401282 297.784817 
L 115.401282 288.075331 
L 115.401282 278.365845 
L 115.401282 268.656359 
L 115.401282 258.946873 
L 115.401282 249.237387 
L 115.401282 239.527901 
L 115.401282 229.818416 
L 115.401282 220.10893 
L 115.401282 210.399444 
L 115.401282 200.689958 
L 115.401282 190.980472 
L 115.401282 181.270986 
L 115.401282 171.5615 
L 115.401282 161.852014 
L 115.401282 152.142528 
L 115.401282 142.433042 
L 115.401282 132.723557 
L 115.401282 123.014071 
L 115.401282 113.304585 
L 115.401282 103.595099 
L 115.401282 93.885613 
L 115.401282 84.176127 
L 115.401282 74.466641 
L 115.401282 64.757155 
L 115.401282 55.047669 
L 115.401282 45.338184 
L 115.401282 35.628698 
L 115.401282 25.919212 
L 115.401282 16.209726 
L 115.401282 6.50024 
L 125.079044 6.50024 
L 134.756806 6.50024 
L 144.434569 6.50024 
L 154.112331 6.50024 
L 163.790094 6.50024 
L 173.467856 6.50024 
L 183.145619 6.50024 
L 192.823381 6.50024 
L 202.501143 6.50024 
L 212.178906 6.50024 
L 221.856668 6.50024 
L 231.534431 6.50024 
L 241.212193 6.50024 
L 250.889955 6.50024 
L 260.567718 6.50024 
L 270.24548 6.50024 
L 279.923243 6.50024 
L 289.601005 6.50024 
L 299.278767 6.50024 
L 308.95653 6.50024 
L 318.634292 6.50024 
L 328.312055 6.50024 
L 337.989817 6.50024 
L 347.667579 6.50024 
L 357.345342 6.50024 
L 367.023104 6.50024 
L 376.700867 6.50024 
L 386.378629 6.50024 
L 396.056391 6.50024 
L 405.734154 6.50024 
L 415.411916 6.50024 
L 425.089679 6.50024 
L 434.767441 6.50024 
L 444.445204 6.50024 
L 454.122966 6.50024 
L 463.800728 6.50024 
L 473.478491 6.50024 
L 483.156253 6.50024 
L 492.834016 6.50024 
L 502.511778 6.50024 
L 512.18954 6.50024 
L 521.867303 6.50024 
L 531.545065 6.50024 
L 541.222828 6.50024 
L 550.90059 6.50024 
L 560.578352 6.50024 
L 570.256115 6.50024 
L 579.933877 6.50024 
L 589.61164 6.50024 
L 599.289402 6.50024 
L 608.967164 6.50024 
L 618.644927 6.50024 
L 628.322689 6.50024 
L 638.000452 6.50024 
L 647.678214 6.50024 
L 657.355976 6.50024 
L 667.033739 6.50024 
L 676.711501 6.50024 
L 686.389264 6.50024 
L 696.067026 6.50024 
L 705.744789 6.50024 
L 715.422551 6.50024 
L 725.100313 6.50024 
L 734.778076 6.50024 
L 744.455838 6.50024 
L 754.133601 6.50024 
L 763.811363 6.50024 
L 773.489125 6.50024 
L 783.166888 6.50024 
L 792.84465 6.50024 
L 802.522413 6.50024 
L 812.200175 6.50024 
L 821.877937 6.50024 
L 831.5557 6.50024 
L 841.233462 6.50024 
L 850.911225 6.50024 
L 860.588987 6.50024 
L 870.266749 6.50024 
L 879.944512 6.50024 
L 889.622274 6.50024 
L 889.874469 6.50024 
L 889.622274 6.702549 
L 879.944512 13.881297 
L 876.67097 16.209726 
L 870.266749 21.244212 
L 864.100889 25.919212 
L 860.588987 28.944886 
L 852.576739 35.628698 
L 850.911225 37.259824 
L 842.424761 45.338184 
L 841.233462 46.722098 
L 833.88056 55.047669 
L 831.5557 58.414472 
L 827.066182 64.757155 
L 821.995302 74.466641 
L 821.877937 74.790912 
L 818.320375 84.176127 
L 816.147173 93.885613 
L 815.333623 103.595099 
L 815.788797 113.304585 
L 817.522993 123.014071 
L 820.699706 132.723557 
L 821.877937 135.193407 
L 825.767904 142.433042 
L 831.5557 149.750891 
L 834.042764 152.142528 
L 841.233462 157.507374 
L 850.477974 161.852014 
L 850.911225 162.032486 
L 860.588987 164.660625 
L 870.266749 165.949427 
L 879.944512 166.226802 
L 889.622274 165.682055 
L 899.300037 164.424881 
L 908.977799 162.517416 
L 911.481761 161.852014 
L 918.655561 160.19049 
L 928.333324 157.426389 
L 938.011086 154.146067 
L 943.072254 152.142528 
L 947.688849 150.542782 
L 957.366611 146.738894 
L 967.044374 142.44086 
L 967.0606 142.433042 
L 976.722136 138.34893 
L 986.399898 133.865439 
L 988.752426 132.723557 
L 996.077661 129.60756 
L 1005.755423 125.301015 
L 1010.823401 123.014071 
L 1015.433186 121.203001 
L 1025.110948 117.507923 
L 1034.78871 113.885019 
L 1036.567489 113.304585 
L 1044.466473 111.102533 
L 1054.144235 108.830034 
L 1063.821998 107.117724 
L 1073.49976 106.144983 
L 1073.49976 113.304585 
L 1073.49976 123.014071 
L 1073.49976 132.723557 
L 1073.49976 142.433042 
L 1073.49976 152.142528 
L 1073.49976 161.852014 
L 1073.49976 171.5615 
L 1073.49976 181.270986 
L 1073.49976 190.980472 
L 1073.49976 200.689958 
L 1073.49976 210.399444 
L 1073.49976 220.10893 
L 1073.49976 229.818416 
L 1073.49976 239.527901 
L 1073.49976 249.237387 
L 1073.49976 258.946873 
L 1073.49976 268.656359 
L 1073.49976 278.365845 
L 1073.49976 288.075331 
L 1073.49976 297.784817 
L 1073.49976 307.494303 
L 1073.49976 317.203789 
L 1073.49976 326.913274 
L 1073.49976 336.62276 
L 1073.49976 346.332246 
L 1073.49976 356.041732 
L 1073.49976 365.751218 
L 1073.49976 375.460704 
L 1073.49976 385.17019 
L 1073.49976 394.879676 
L 1073.49976 404.589162 
L 1073.49976 414.298647 
L 1073.49976 424.008133 
L 1073.49976 433.717619 
L 1073.49976 443.427105 
L 1073.49976 453.136591 
L 1073.49976 462.846077 
L 1073.49976 472.555563 
L 1073.49976 482.265049 
L 1073.49976 491.974535 
L 1073.49976 501.684021 
L 1073.49976 511.393506 
L 1073.49976 521.102992 
L 1073.49976 530.812478 
L 1073.49976 540.521964 
L 1073.49976 550.23145 
L 1073.49976 559.940936 
L 1073.49976 569.650422 
L 1073.49976 579.359908 
L 1073.49976 589.069394 
L 1073.49976 598.778879 
L 1073.49976 608.488365 
L 1073.49976 618.197851 
L 1073.49976 627.907337 
L 1073.49976 637.616823 
L 1073.49976 647.326309 
L 1073.49976 657.035795 
L 1073.49976 666.745281 
L 1073.49976 676.454767 
L 1073.49976 686.164252 
L 1073.49976 695.873738 
L 1073.49976 705.583224 
L 1073.49976 715.29271 
L 1073.49976 725.002196 
L 1073.49976 734.711682 
L 1073.49976 744.421168 
L 1073.49976 754.130654 
L 1073.49976 763.84014 
L 1073.49976 773.549625 
L 1073.49976 783.259111 
L 1073.49976 792.968597 
L 1073.49976 802.678083 
L 1073.49976 812.387569 
L 1073.49976 822.097055 
L 1073.49976 831.806541 
L 1073.49976 841.516027 
L 1073.49976 851.225513 
L 1073.49976 860.934999 
L 1073.49976 870.644484 
L 1073.49976 880.35397 
L 1073.49976 890.063456 
L 1073.49976 899.772942 
L 1073.49976 909.482428 
L 1073.49976 919.191914 
L 1073.49976 928.9014 
L 1073.49976 938.610886 
L 1073.49976 948.320372 
L 1073.49976 958.029857 
L 1073.49976 967.739343 
L 1063.821998 967.739343 
L 1054.144235 967.739343 
L 1044.466473 967.739343 
L 1034.78871 967.739343 
L 1025.110948 967.739343 
L 1015.433186 967.739343 
L 1005.755423 967.739343 
L 996.077661 967.739343 
L 986.399898 967.739343 
L 976.722136 967.739343 
L 967.044374 967.739343 
L 957.366611 967.739343 
L 947.688849 967.739343 
L 938.011086 967.739343 
L 928.333324 967.739343 
L 918.655561 967.739343 
L 908.977799 967.739343 
L 899.300037 967.739343 
L 889.622274 967.739343 
L 879.944512 967.739343 
L 870.266749 967.739343 
L 860.588987 967.739343 
L 850.911225 967.739343 
L 841.233462 967.739343 
L 831.5557 967.739343 
L 821.877937 967.739343 
L 812.200175 967.739343 
L 802.522413 967.739343 
L 792.84465 967.739343 
L 783.166888 967.739343 
L 773.489125 967.739343 
L 763.811363 967.739343 
L 754.133601 967.739343 
L 744.455838 967.739343 
L 734.778076 967.739343 
L 725.100313 967.739343 
L 715.422551 967.739343 
L 705.744789 967.739343 
L 696.067026 967.739343 
L 686.389264 967.739343 
L 676.711501 967.739343 
L 667.033739 967.739343 
L 657.355976 967.739343 
L 647.678214 967.739343 
L 638.000452 967.739343 
L 628.322689 967.739343 
L 618.644927 967.739343 
L 608.967164 967.739343 
L 599.289402 967.739343 
L 589.61164 967.739343 
L 579.933877 967.739343 
L 570.256115 967.739343 
L 560.578352 967.739343 
L 550.90059 967.739343 
L 541.222828 967.739343 
L 531.545065 967.739343 
L 521.867303 967.739343 
L 512.18954 967.739343 
L 502.511778 967.739343 
L 492.834016 967.739343 
L 483.156253 967.739343 
L 473.478491 967.739343 
L 463.800728 967.739343 
L 454.122966 967.739343 
L 444.445204 967.739343 
L 434.767441 967.739343 
L 425.089679 967.739343 
L 415.411916 967.739343 
L 405.734154 967.739343 
L 396.056391 967.739343 
L 386.378629 967.739343 
L 376.700867 967.739343 
L 367.023104 967.739343 
L 357.345342 967.739343 
L 347.667579 967.739343 
L 337.989817 967.739343 
L 328.312055 967.739343 
L 318.634292 967.739343 
L 308.95653 967.739343 
L 299.278767 967.739343 
L 289.601005 967.739343 
L 279.923243 967.739343 
L 270.24548 967.739343 
L 261.013162 967.739343 
L 270.24548 961.345876 
L 275.241169 958.029857 
L 279.923243 954.599703 
L 288.826508 948.320372 
L 289.601005 947.698759 
L 299.278767 940.436595 
L 301.803719 938.610886 
L 308.95653 932.473921 
L 313.259441 928.9014 
L 318.634292 923.360109 
L 322.872476 919.191914 
L 328.312055 912.163946 
L 330.530139 909.482428 
L 336.359101 899.772942 
L 337.989817 895.619829 
L 340.434387 890.063456 
L 342.925416 880.35397 
L 343.965502 870.644484 
L 343.968466 860.934999 
L 343.244682 851.225513 
L 342.000751 841.516027 
L 340.360802 831.806541 
L 338.386436 822.097055 
L 337.989817 820.380851 
L 336.241748 812.387569 
L 333.616275 802.678083 
L 330.202206 792.968597 
L 328.312055 788.708194 
L 324.932117 783.259111 
L 318.634292 776.552568 
L 310.477968 773.549625 
L 308.95653 773.139736 
L 303.510302 773.549625 
L 299.278767 773.796715 
L 289.601005 776.617693 
L 279.923243 780.831751 
L 275.743269 783.259111 
L 270.24548 785.959395 
L 260.567718 791.763887 
L 258.865941 792.968597 
L 250.889955 797.918432 
L 244.150523 802.678083 
L 241.212193 804.519607 
L 231.534431 811.30917 
L 230.119966 812.387569 
L 221.856668 818.08385 
L 216.473167 822.097055 
L 212.178906 825.003883 
L 202.782688 831.806541 
L 202.501143 831.99195 
L 192.823381 838.529603 
L 188.585854 841.516027 
L 183.145619 844.98967 
L 173.73503 851.225513 
L 173.467856 851.384898 
L 163.790094 857.015157 
L 157.224764 860.934999 
L 154.112331 862.576932 
L 144.434569 867.541267 
L 138.365857 870.644484 
L 134.756806 872.234933 
L 125.079044 876.275103 
L 115.401282 880.320947 
z
M 531.545065 554.543471 
L 541.222828 555.37957 
L 550.90059 552.739761 
L 556.12795 550.23145 
L 560.578352 548.015129 
L 570.256115 542.029864 
L 572.376876 540.521964 
L 579.933877 534.836671 
L 585.032955 530.812478 
L 589.61164 526.887332 
L 596.260061 521.102992 
L 599.289402 518.155458 
L 606.339486 511.393506 
L 608.967164 508.477057 
L 615.341576 501.684021 
L 618.644927 497.432016 
L 623.170324 491.974535 
L 628.322689 484.016337 
L 629.561852 482.265049 
L 633.759003 472.555563 
L 634.660998 462.846077 
L 628.322689 455.161552 
L 618.644927 454.286808 
L 608.967164 457.013174 
L 599.289402 461.064032 
L 596.080379 462.846077 
L 589.61164 466.551691 
L 579.990542 472.555563 
L 579.933877 472.592965 
L 570.256115 479.858233 
L 567.167251 482.265049 
L 560.578352 487.857892 
L 555.825899 491.974535 
L 550.90059 496.806424 
L 545.932032 501.684021 
L 541.222828 507.188412 
L 537.53568 511.393506 
L 531.545065 520.101124 
L 530.814575 521.102992 
L 526.138109 530.812478 
L 523.916454 540.521964 
L 526.13385 550.23145 
z
" style="fill:none;"/>
   </g>
   <g id="PathCollection_2">
    <path clip-path="url(#pa20988f6bb)" d="M 115.401282 899.772942 
L 115.401282 890.063456 
L 115.401282 880.35397 
L 115.401282 880.320947 
L 125.079044 876.275103 
L 134.756806 872.234933 
L 138.365857 870.644484 
L 144.434569 867.541267 
L 154.112331 862.576932 
L 157.224764 860.934999 
L 163.790094 857.015157 
L 173.467856 851.384898 
L 173.73503 851.225513 
L 183.145619 844.98967 
L 188.585854 841.516027 
L 192.823381 838.529603 
L 202.501143 831.99195 
L 202.782688 831.806541 
L 212.178906 825.003883 
L 216.473167 822.097055 
L 221.856668 818.08385 
L 230.119966 812.387569 
L 231.534431 811.30917 
L 241.212193 804.519607 
L 244.150523 802.678083 
L 250.889955 797.918432 
L 258.865941 792.968597 
L 260.567718 791.763887 
L 270.24548 785.959395 
L 275.743269 783.259111 
L 279.923243 780.831751 
L 289.601005 776.617693 
L 299.278767 773.796715 
L 303.510302 773.549625 
L 308.95653 773.139736 
L 310.477968 773.549625 
L 318.634292 776.552568 
L 324.932117 783.259111 
L 328.312055 788.708194 
L 330.202206 792.968597 
L 333.616275 802.678083 
L 336.241748 812.387569 
L 337.989817 820.380851 
L 338.386436 822.097055 
L 340.360802 831.806541 
L 342.000751 841.516027 
L 343.244682 851.225513 
L 343.968466 860.934999 
L 343.965502 870.644484 
L 342.925416 880.35397 
L 340.434387 890.063456 
L 337.989817 895.619829 
L 336.359101 899.772942 
L 330.530139 909.482428 
L 328.312055 912.163946 
L 322.872476 919.191914 
L 318.634292 923.360109 
L 313.259441 928.9014 
L 308.95653 932.473921 
L 301.803719 938.610886 
L 299.278767 940.436595 
L 289.601005 947.698759 
L 288.826508 948.320372 
L 279.923243 954.599703 
L 275.241169 958.029857 
L 270.24548 961.345876 
L 261.013162 967.739343 
L 260.567718 967.739343 
L 250.889955 967.739343 
L 241.212193 967.739343 
L 231.534431 967.739343 
L 221.856668 967.739343 
L 212.178906 967.739343 
L 210.332523 967.739343 
L 212.178906 965.347013 
L 218.553649 958.029857 
L 221.856668 953.755356 
L 226.562197 948.320372 
L 231.534431 941.756921 
L 234.185294 938.610886 
L 241.209126 928.9014 
L 241.212193 928.896321 
L 247.703303 919.191914 
L 250.889955 913.286415 
L 253.145462 909.482428 
L 257.448343 899.772942 
L 260.403495 890.063456 
L 260.567718 888.714962 
L 261.67141 880.35397 
L 260.567718 870.785832 
L 260.544586 870.644484 
L 253.099837 860.934999 
L 250.889955 859.67591 
L 241.212193 858.199648 
L 231.534431 859.505374 
L 226.998879 860.934999 
L 221.856668 862.427477 
L 212.178906 866.220316 
L 202.501143 870.481007 
L 202.181304 870.644484 
L 192.823381 875.014961 
L 183.145619 879.632078 
L 181.719268 880.35397 
L 173.467856 884.123201 
L 163.790094 888.516657 
L 160.428059 890.063456 
L 154.112331 892.633204 
L 144.434569 896.478744 
L 136.073953 899.772942 
L 134.756806 900.220203 
L 125.079044 903.391177 
L 115.401282 906.488465 
z
" style="fill:url(#h1ff6825b01);"/>
    <path clip-path="url(#pa20988f6bb)" d="M 526.13385 550.23145 
L 523.916454 540.521964 
L 526.138109 530.812478 
L 530.814575 521.102992 
L 531.545065 520.101124 
L 537.53568 511.393506 
L 541.222828 507.188412 
L 545.932032 501.684021 
L 550.90059 496.806424 
L 555.825899 491.974535 
L 560.578352 487.857892 
L 567.167251 482.265049 
L 570.256115 479.858233 
L 579.933877 472.592965 
L 579.990542 472.555563 
L 589.61164 466.551691 
L 596.080379 462.846077 
L 599.289402 461.064032 
L 608.967164 457.013174 
L 618.644927 454.286808 
L 628.322689 455.161552 
L 634.660998 462.846077 
L 633.759003 472.555563 
L 629.561852 482.265049 
L 628.322689 484.016337 
L 623.170324 491.974535 
L 618.644927 497.432016 
L 615.341576 501.684021 
L 608.967164 508.477057 
L 606.339486 511.393506 
L 599.289402 518.155458 
L 596.260061 521.102992 
L 589.61164 526.887332 
L 585.032955 530.812478 
L 579.933877 534.836671 
L 572.376876 540.521964 
L 570.256115 542.029864 
L 560.578352 548.015129 
L 556.12795 550.23145 
L 550.90059 552.739761 
L 541.222828 555.37957 
L 531.545065 554.543471 
z
" style="fill:url(#h1ff6825b01);"/>
    <path clip-path="url(#pa20988f6bb)" d="M 820.699706 132.723557 
L 817.522993 123.014071 
L 815.788797 113.304585 
L 815.333623 103.595099 
L 816.147173 93.885613 
L 818.320375 84.176127 
L 821.877937 74.790912 
L 821.995302 74.466641 
L 827.066182 64.757155 
L 831.5557 58.414472 
L 833.88056 55.047669 
L 841.233462 46.722098 
L 842.424761 45.338184 
L 850.911225 37.259824 
L 852.576739 35.628698 
L 860.588987 28.944886 
L 864.100889 25.919212 
L 870.266749 21.244212 
L 876.67097 16.209726 
L 879.944512 13.881297 
L 889.622274 6.702549 
L 889.874469 6.50024 
L 899.300037 6.50024 
L 908.977799 6.50024 
L 918.655561 6.50024 
L 928.333324 6.50024 
L 938.011086 6.50024 
L 947.688849 6.50024 
L 950.580378 6.50024 
L 947.688849 10.343203 
L 942.745297 16.209726 
L 938.011086 22.802036 
L 935.509544 25.919212 
L 929.083118 35.628698 
L 928.333324 37.153582 
L 923.767219 45.338184 
L 920.061691 55.047669 
L 918.678847 64.757155 
L 921.281677 74.466641 
L 928.333324 81.573794 
L 932.573952 84.176127 
L 938.011086 86.219156 
L 947.688849 88.337373 
L 957.366611 89.147782 
L 967.044374 88.975097 
L 976.722136 88.048848 
L 986.399898 86.538288 
L 996.077661 84.564407 
L 997.614259 84.176127 
L 1005.755423 82.353768 
L 1015.433186 80.009602 
L 1025.110948 77.555726 
L 1034.78871 75.018758 
L 1036.864059 74.466641 
L 1044.466473 72.741628 
L 1054.144235 70.636593 
L 1063.821998 68.650564 
L 1073.49976 66.817605 
L 1073.49976 74.466641 
L 1073.49976 84.176127 
L 1073.49976 93.885613 
L 1073.49976 103.595099 
L 1073.49976 106.144983 
L 1063.821998 107.117724 
L 1054.144235 108.830034 
L 1044.466473 111.102533 
L 1036.567489 113.304585 
L 1034.78871 113.885019 
L 1025.110948 117.507923 
L 1015.433186 121.203001 
L 1010.823401 123.014071 
L 1005.755423 125.301015 
L 996.077661 129.60756 
L 988.752426 132.723557 
L 986.399898 133.865439 
L 976.722136 138.34893 
L 967.0606 142.433042 
L 967.044374 142.44086 
L 957.366611 146.738894 
L 947.688849 150.542782 
L 943.072254 152.142528 
L 938.011086 154.146067 
L 928.333324 157.426389 
L 918.655561 160.19049 
L 911.481761 161.852014 
L 908.977799 162.517416 
L 899.300037 164.424881 
L 889.622274 165.682055 
L 879.944512 166.226802 
L 870.266749 165.949427 
L 860.588987 164.660625 
L 850.911225 162.032486 
L 850.477974 161.852014 
L 841.233462 157.507374 
L 834.042764 152.142528 
L 831.5557 149.750891 
L 825.767904 142.433042 
L 821.877937 135.193407 
z
" style="fill:url(#h1ff6825b01);"/>
   </g>
   <g id="PathCollection_3">
    <path clip-path="url(#pa20988f6bb)" d="M 115.401282 919.191914 
L 115.401282 909.482428 
L 115.401282 906.488465 
L 125.079044 903.391177 
L 134.756806 900.220203 
L 136.073953 899.772942 
L 144.434569 896.478744 
L 154.112331 892.633204 
L 160.428059 890.063456 
L 163.790094 888.516657 
L 173.467856 884.123201 
L 181.719268 880.35397 
L 183.145619 879.632078 
L 192.823381 875.014961 
L 202.181304 870.644484 
L 202.501143 870.481007 
L 212.178906 866.220316 
L 221.856668 862.427477 
L 226.998879 860.934999 
L 231.534431 859.505374 
L 241.212193 858.199648 
L 250.889955 859.67591 
L 253.099837 860.934999 
L 260.544586 870.644484 
L 260.567718 870.785832 
L 261.67141 880.35397 
L 260.567718 888.714962 
L 260.403495 890.063456 
L 257.448343 899.772942 
L 253.145462 909.482428 
L 250.889955 913.286415 
L 247.703303 919.191914 
L 241.212193 928.896321 
L 241.209126 928.9014 
L 234.185294 938.610886 
L 231.534431 941.756921 
L 226.562197 948.320372 
L 221.856668 953.755356 
L 218.553649 958.029857 
L 212.178906 965.347013 
L 210.332523 967.739343 
L 202.501143 967.739343 
L 192.823381 967.739343 
L 184.823225 967.739343 
L 190.207848 958.029857 
L 192.823381 952.362685 
L 195.027944 948.320372 
L 198.973704 938.610886 
L 201.559415 928.9014 
L 201.27227 919.191914 
L 192.823381 911.242717 
L 183.145619 909.988768 
L 173.467856 910.909198 
L 163.790094 912.572017 
L 154.112331 914.544046 
L 144.434569 916.679141 
L 134.756806 918.934645 
L 133.742784 919.191914 
L 125.079044 921.062948 
L 115.401282 923.134961 
z
" style="fill:url(#h2549859fa2);"/>
    <path clip-path="url(#pa20988f6bb)" d="M 921.281677 74.466641 
L 918.678847 64.757155 
L 920.061691 55.047669 
L 923.767219 45.338184 
L 928.333324 37.153582 
L 929.083118 35.628698 
L 935.509544 25.919212 
L 938.011086 22.802036 
L 942.745297 16.209726 
L 947.688849 10.343203 
L 950.580378 6.50024 
L 957.366611 6.50024 
L 967.044374 6.50024 
L 976.722136 6.50024 
L 986.399898 6.50024 
L 988.136172 6.50024 
L 986.399898 12.533421 
L 985.108395 16.209726 
L 983.848675 25.919212 
L 985.631368 35.628698 
L 986.399898 36.895497 
L 994.277961 45.338184 
L 996.077661 46.304285 
L 1005.755423 49.49316 
L 1015.433186 50.82995 
L 1025.110948 51.107695 
L 1034.78871 50.75962 
L 1044.466473 50.030578 
L 1054.144235 49.062338 
L 1063.821998 47.939126 
L 1073.49976 46.713304 
L 1073.49976 55.047669 
L 1073.49976 64.757155 
L 1073.49976 66.817605 
L 1063.821998 68.650564 
L 1054.144235 70.636593 
L 1044.466473 72.741628 
L 1036.864059 74.466641 
L 1034.78871 75.018758 
L 1025.110948 77.555726 
L 1015.433186 80.009602 
L 1005.755423 82.353768 
L 997.614259 84.176127 
L 996.077661 84.564407 
L 986.399898 86.538288 
L 976.722136 88.048848 
L 967.044374 88.975097 
L 957.366611 89.147782 
L 947.688849 88.337373 
L 938.011086 86.219156 
L 932.573952 84.176127 
L 928.333324 81.573794 
z
" style="fill:url(#h2549859fa2);"/>
   </g>
   <g id="PathCollection_4">
    <path clip-path="url(#pa20988f6bb)" d="M 115.401282 958.029857 
L 115.401282 948.320372 
L 115.401282 938.610886 
L 115.401282 928.9014 
L 115.401282 923.134961 
L 125.079044 921.062948 
L 133.742784 919.191914 
L 134.756806 918.934645 
L 144.434569 916.679141 
L 154.112331 914.544046 
L 163.790094 912.572017 
L 173.467856 910.909198 
L 183.145619 909.988768 
L 192.823381 911.242717 
L 201.27227 919.191914 
L 201.559415 928.9014 
L 198.973704 938.610886 
L 195.027944 948.320372 
L 192.823381 952.362685 
L 190.207848 958.029857 
L 184.823225 967.739343 
L 183.145619 967.739343 
L 173.467856 967.739343 
L 163.790094 967.739343 
L 154.112331 967.739343 
L 144.434569 967.739343 
L 134.756806 967.739343 
L 125.079044 967.739343 
L 115.441487 967.739343 
L 115.401282 967.716868 
z
" style="fill:url(#hb019f44dfe);"/>
    <path clip-path="url(#pa20988f6bb)" d="M 985.631368 35.628698 
L 983.848675 25.919212 
L 985.108395 16.209726 
L 986.399898 12.533421 
L 988.136172 6.50024 
L 996.077661 6.50024 
L 1005.755423 6.50024 
L 1015.433186 6.50024 
L 1025.110948 6.50024 
L 1034.78871 6.50024 
L 1044.466473 6.50024 
L 1054.144235 6.50024 
L 1063.821998 6.50024 
L 1073.49976 6.50024 
L 1073.49976 16.209726 
L 1073.49976 25.919212 
L 1073.49976 35.628698 
L 1073.49976 45.338184 
L 1073.49976 46.713304 
L 1063.821998 47.939126 
L 1054.144235 49.062338 
L 1044.466473 50.030578 
L 1034.78871 50.75962 
L 1025.110948 51.107695 
L 1015.433186 50.82995 
L 1005.755423 49.49316 
L 996.077661 46.304285 
L 994.277961 45.338184 
L 986.399898 36.895497 
z
" style="fill:url(#hb019f44dfe);"/>
   </g>
   <g id="matplotlib.axis_1">
    <g id="xtick_1">
     <g id="line2d_1">
      <defs>
       <path d="M 0 0 
L 0 3.5 
" id="m28e4c87aee" style="stroke:#000000;stroke-width:0.8;"/>
      </defs>
      <g>
       <use style="stroke:#000000;stroke-width:0.8;" x="144.216273" xlink:href="#m28e4c87aee" y="967.739343"/>
      </g>
     </g>
     <g id="text_1">
      <!-- 0.0 -->
      <defs>
       <path d="M 31.78125 66.40625 
Q 24.171875 66.40625 20.328125 58.90625 
Q 16.5 51.421875 16.5 36.375 
Q 16.5 21.390625 20.328125 13.890625 
Q 24.171875 6.390625 31.78125 6.390625 
Q 39.453125 6.390625 43.28125 13.890625 
Q 47.125 21.390625 47.125 36.375 
Q 47.125 51.421875 43.28125 58.90625 
Q 39.453125 66.40625 31.78125 66.40625 
z
M 31.78125 74.21875 
Q 44.046875 74.21875 50.515625 64.515625 
Q 56.984375 54.828125 56.984375 36.375 
Q 56.984375 17.96875 50.515625 8.265625 
Q 44.046875 -1.421875 31.78125 -1.421875 
Q 19.53125 -1.421875 13.0625 8.265625 
Q 6.59375 17.96875 6.59375 36.375 
Q 6.59375 54.828125 13.0625 64.515625 
Q 19.53125 74.21875 31.78125 74.21875 
z
" id="DejaVuSans-48"/>
       <path d="M 10.6875 12.40625 
L 21 12.40625 
L 21 0 
L 10.6875 0 
z
" id="DejaVuSans-46"/>
      </defs>
      <g transform="translate(117.711065 1000.067468)scale(0.333333 -0.333333)">
       <use xlink:href="#DejaVuSans-48"/>
       <use x="63.623047" xlink:href="#DejaVuSans-46"/>
       <use x="95.410156" xlink:href="#DejaVuSans-48"/>
      </g>
     </g>
    </g>
    <g id="xtick_2">
     <g id="line2d_2">
      <g>
       <use style="stroke:#000000;stroke-width:0.8;" x="324.309972" xlink:href="#m28e4c87aee" y="967.739343"/>
      </g>
     </g>
     <g id="text_2">
      <!-- 0.2 -->
      <defs>
       <path d="M 19.1875 8.296875 
L 53.609375 8.296875 
L 53.609375 0 
L 7.328125 0 
L 7.328125 8.296875 
Q 12.9375 14.109375 22.625 23.890625 
Q 32.328125 33.6875 34.8125 36.53125 
Q 39.546875 41.84375 41.421875 45.53125 
Q 43.3125 49.21875 43.3125 52.78125 
Q 43.3125 58.59375 39.234375 62.25 
Q 35.15625 65.921875 28.609375 65.921875 
Q 23.96875 65.921875 18.8125 64.3125 
Q 13.671875 62.703125 7.8125 59.421875 
L 7.8125 69.390625 
Q 13.765625 71.78125 18.9375 73 
Q 24.125 74.21875 28.421875 74.21875 
Q 39.75 74.21875 46.484375 68.546875 
Q 53.21875 62.890625 53.21875 53.421875 
Q 53.21875 48.921875 51.53125 44.890625 
Q 49.859375 40.875 45.40625 35.40625 
Q 44.1875 33.984375 37.640625 27.21875 
Q 31.109375 20.453125 19.1875 8.296875 
z
" id="DejaVuSans-50"/>
      </defs>
      <g transform="translate(297.804764 1000.067468)scale(0.333333 -0.333333)">
       <use xlink:href="#DejaVuSans-48"/>
       <use x="63.623047" xlink:href="#DejaVuSans-46"/>
       <use x="95.410156" xlink:href="#DejaVuSans-50"/>
      </g>
     </g>
    </g>
    <g id="xtick_3">
     <g id="line2d_3">
      <g>
       <use style="stroke:#000000;stroke-width:0.8;" x="504.403671" xlink:href="#m28e4c87aee" y="967.739343"/>
      </g>
     </g>
     <g id="text_3">
      <!-- 0.4 -->
      <defs>
       <path d="M 37.796875 64.3125 
L 12.890625 25.390625 
L 37.796875 25.390625 
z
M 35.203125 72.90625 
L 47.609375 72.90625 
L 47.609375 25.390625 
L 58.015625 25.390625 
L 58.015625 17.1875 
L 47.609375 17.1875 
L 47.609375 0 
L 37.796875 0 
L 37.796875 17.1875 
L 4.890625 17.1875 
L 4.890625 26.703125 
z
" id="DejaVuSans-52"/>
      </defs>
      <g transform="translate(477.898463 1000.067468)scale(0.333333 -0.333333)">
       <use xlink:href="#DejaVuSans-48"/>
       <use x="63.623047" xlink:href="#DejaVuSans-46"/>
       <use x="95.410156" xlink:href="#DejaVuSans-52"/>
      </g>
     </g>
    </g>
    <g id="xtick_4">
     <g id="line2d_4">
      <g>
       <use style="stroke:#000000;stroke-width:0.8;" x="684.49737" xlink:href="#m28e4c87aee" y="967.739343"/>
      </g>
     </g>
     <g id="text_4">
      <!-- 0.6 -->
      <defs>
       <path d="M 33.015625 40.375 
Q 26.375 40.375 22.484375 35.828125 
Q 18.609375 31.296875 18.609375 23.390625 
Q 18.609375 15.53125 22.484375 10.953125 
Q 26.375 6.390625 33.015625 6.390625 
Q 39.65625 6.390625 43.53125 10.953125 
Q 47.40625 15.53125 47.40625 23.390625 
Q 47.40625 31.296875 43.53125 35.828125 
Q 39.65625 40.375 33.015625 40.375 
z
M 52.59375 71.296875 
L 52.59375 62.3125 
Q 48.875 64.0625 45.09375 64.984375 
Q 41.3125 65.921875 37.59375 65.921875 
Q 27.828125 65.921875 22.671875 59.328125 
Q 17.53125 52.734375 16.796875 39.40625 
Q 19.671875 43.65625 24.015625 45.921875 
Q 28.375 48.1875 33.59375 48.1875 
Q 44.578125 48.1875 50.953125 41.515625 
Q 57.328125 34.859375 57.328125 23.390625 
Q 57.328125 12.15625 50.6875 5.359375 
Q 44.046875 -1.421875 33.015625 -1.421875 
Q 20.359375 -1.421875 13.671875 8.265625 
Q 6.984375 17.96875 6.984375 36.375 
Q 6.984375 53.65625 15.1875 63.9375 
Q 23.390625 74.21875 37.203125 74.21875 
Q 40.921875 74.21875 44.703125 73.484375 
Q 48.484375 72.75 52.59375 71.296875 
z
" id="DejaVuSans-54"/>
      </defs>
      <g transform="translate(657.992162 1000.067468)scale(0.333333 -0.333333)">
       <use xlink:href="#DejaVuSans-48"/>
       <use x="63.623047" xlink:href="#DejaVuSans-46"/>
       <use x="95.410156" xlink:href="#DejaVuSans-54"/>
      </g>
     </g>
    </g>
    <g id="xtick_5">
     <g id="line2d_5">
      <g>
       <use style="stroke:#000000;stroke-width:0.8;" x="864.591069" xlink:href="#m28e4c87aee" y="967.739343"/>
      </g>
     </g>
     <g id="text_5">
      <!-- 0.8 -->
      <defs>
       <path d="M 31.78125 34.625 
Q 24.75 34.625 20.71875 30.859375 
Q 16.703125 27.09375 16.703125 20.515625 
Q 16.703125 13.921875 20.71875 10.15625 
Q 24.75 6.390625 31.78125 6.390625 
Q 38.8125 6.390625 42.859375 10.171875 
Q 46.921875 13.96875 46.921875 20.515625 
Q 46.921875 27.09375 42.890625 30.859375 
Q 38.875 34.625 31.78125 34.625 
z
M 21.921875 38.8125 
Q 15.578125 40.375 12.03125 44.71875 
Q 8.5 49.078125 8.5 55.328125 
Q 8.5 64.0625 14.71875 69.140625 
Q 20.953125 74.21875 31.78125 74.21875 
Q 42.671875 74.21875 48.875 69.140625 
Q 55.078125 64.0625 55.078125 55.328125 
Q 55.078125 49.078125 51.53125 44.71875 
Q 48 40.375 41.703125 38.8125 
Q 48.828125 37.15625 52.796875 32.3125 
Q 56.78125 27.484375 56.78125 20.515625 
Q 56.78125 9.90625 50.3125 4.234375 
Q 43.84375 -1.421875 31.78125 -1.421875 
Q 19.734375 -1.421875 13.25 4.234375 
Q 6.78125 9.90625 6.78125 20.515625 
Q 6.78125 27.484375 10.78125 32.3125 
Q 14.796875 37.15625 21.921875 38.8125 
z
M 18.3125 54.390625 
Q 18.3125 48.734375 21.84375 45.5625 
Q 25.390625 42.390625 31.78125 42.390625 
Q 38.140625 42.390625 41.71875 45.5625 
Q 45.3125 48.734375 45.3125 54.390625 
Q 45.3125 60.0625 41.71875 63.234375 
Q 38.140625 66.40625 31.78125 66.40625 
Q 25.390625 66.40625 21.84375 63.234375 
Q 18.3125 60.0625 18.3125 54.390625 
z
" id="DejaVuSans-56"/>
      </defs>
      <g transform="translate(838.085861 1000.067468)scale(0.333333 -0.333333)">
       <use xlink:href="#DejaVuSans-48"/>
       <use x="63.623047" xlink:href="#DejaVuSans-46"/>
       <use x="95.410156" xlink:href="#DejaVuSans-56"/>
      </g>
     </g>
    </g>
    <g id="xtick_6">
     <g id="line2d_6">
      <g>
       <use style="stroke:#000000;stroke-width:0.8;" x="1044.684768" xlink:href="#m28e4c87aee" y="967.739343"/>
      </g>
     </g>
     <g id="text_6">
      <!-- 1.0 -->
      <defs>
       <path d="M 12.40625 8.296875 
L 28.515625 8.296875 
L 28.515625 63.921875 
L 10.984375 60.40625 
L 10.984375 69.390625 
L 28.421875 72.90625 
L 38.28125 72.90625 
L 38.28125 8.296875 
L 54.390625 8.296875 
L 54.390625 0 
L 12.40625 0 
z
" id="DejaVuSans-49"/>
      </defs>
      <g transform="translate(1018.17956 1000.067468)scale(0.333333 -0.333333)">
       <use xlink:href="#DejaVuSans-49"/>
       <use x="63.623047" xlink:href="#DejaVuSans-46"/>
       <use x="95.410156" xlink:href="#DejaVuSans-48"/>
      </g>
     </g>
    </g>
    <g id="text_7">
     <!-- $\hat{P}$ -->
     <defs>
      <path d="M -28.609375 79.984375 
L -21.390625 79.984375 
L -9.421875 61.625 
L -16.21875 61.625 
L -25 73.578125 
L -33.796875 61.625 
L -40.578125 61.625 
z
M -25 56 
z
" id="DejaVuSans-770"/>
      <path d="M 16.890625 72.90625 
L 39.703125 72.90625 
Q 49.65625 72.90625 54.875 68.265625 
Q 60.109375 63.625 60.109375 54.6875 
Q 60.109375 42.671875 52.390625 35.984375 
Q 44.671875 29.296875 30.71875 29.296875 
L 18.3125 29.296875 
L 12.59375 0 
L 2.6875 0 
z
M 25.203125 64.796875 
L 19.921875 37.40625 
L 32.328125 37.40625 
Q 40.71875 37.40625 45.203125 41.703125 
Q 49.703125 46 49.703125 54 
Q 49.703125 59.125 46.65625 61.953125 
Q 43.609375 64.796875 38.09375 64.796875 
z
" id="DejaVuSans-Oblique-80"/>
     </defs>
     <g transform="translate(576.150521 1064.521635)scale(0.6 -0.6)">
      <use transform="translate(62.653809 30.015625)" xlink:href="#DejaVuSans-770"/>
      <use transform="translate(0 0.609375)" xlink:href="#DejaVuSans-Oblique-80"/>
     </g>
    </g>
   </g>
   <g id="matplotlib.axis_2">
    <g id="ytick_1">
     <g id="line2d_7">
      <defs>
       <path d="M 0 0 
L -3.5 0 
" id="mf09603a8f4" style="stroke:#000000;stroke-width:0.8;"/>
      </defs>
      <g>
       <use style="stroke:#000000;stroke-width:0.8;" x="115.401282" xlink:href="#mf09603a8f4" y="938.829897"/>
      </g>
     </g>
     <g id="text_8">
      <!-- 0.0 -->
      <g transform="translate(55.390865 951.493959)scale(0.333333 -0.333333)">
       <use xlink:href="#DejaVuSans-48"/>
       <use x="63.623047" xlink:href="#DejaVuSans-46"/>
       <use x="95.410156" xlink:href="#DejaVuSans-48"/>
      </g>
     </g>
    </g>
    <g id="ytick_2">
     <g id="line2d_8">
      <g>
       <use style="stroke:#000000;stroke-width:0.8;" x="115.401282" xlink:href="#mf09603a8f4" y="758.145855"/>
      </g>
     </g>
     <g id="text_9">
      <!-- 0.2 -->
      <g transform="translate(55.390865 770.809917)scale(0.333333 -0.333333)">
       <use xlink:href="#DejaVuSans-48"/>
       <use x="63.623047" xlink:href="#DejaVuSans-46"/>
       <use x="95.410156" xlink:href="#DejaVuSans-50"/>
      </g>
     </g>
    </g>
    <g id="ytick_3">
     <g id="line2d_9">
      <g>
       <use style="stroke:#000000;stroke-width:0.8;" x="115.401282" xlink:href="#mf09603a8f4" y="577.461813"/>
      </g>
     </g>
     <g id="text_10">
      <!-- 0.4 -->
      <g transform="translate(55.390865 590.125875)scale(0.333333 -0.333333)">
       <use xlink:href="#DejaVuSans-48"/>
       <use x="63.623047" xlink:href="#DejaVuSans-46"/>
       <use x="95.410156" xlink:href="#DejaVuSans-52"/>
      </g>
     </g>
    </g>
    <g id="ytick_4">
     <g id="line2d_10">
      <g>
       <use style="stroke:#000000;stroke-width:0.8;" x="115.401282" xlink:href="#mf09603a8f4" y="396.777771"/>
      </g>
     </g>
     <g id="text_11">
      <!-- 0.6 -->
      <g transform="translate(55.390865 409.441833)scale(0.333333 -0.333333)">
       <use xlink:href="#DejaVuSans-48"/>
       <use x="63.623047" xlink:href="#DejaVuSans-46"/>
       <use x="95.410156" xlink:href="#DejaVuSans-54"/>
      </g>
     </g>
    </g>
    <g id="ytick_5">
     <g id="line2d_11">
      <g>
       <use style="stroke:#000000;stroke-width:0.8;" x="115.401282" xlink:href="#mf09603a8f4" y="216.093729"/>
      </g>
     </g>
     <g id="text_12">
      <!-- 0.8 -->
      <g transform="translate(55.390865 228.757791)scale(0.333333 -0.333333)">
       <use xlink:href="#DejaVuSans-48"/>
       <use x="63.623047" xlink:href="#DejaVuSans-46"/>
       <use x="95.410156" xlink:href="#DejaVuSans-56"/>
      </g>
     </g>
    </g>
    <g id="ytick_6">
     <g id="line2d_12">
      <g>
       <use style="stroke:#000000;stroke-width:0.8;" x="115.401282" xlink:href="#mf09603a8f4" y="35.409687"/>
      </g>
     </g>
     <g id="text_13">
      <!-- 1.0 -->
      <g transform="translate(55.390865 48.073749)scale(0.333333 -0.333333)">
       <use xlink:href="#DejaVuSans-49"/>
       <use x="63.623047" xlink:href="#DejaVuSans-46"/>
       <use x="95.410156" xlink:href="#DejaVuSans-48"/>
      </g>
     </g>
    </g>
    <g id="text_14">
     <!-- Probability Bet -->
     <defs>
      <path d="M 19.671875 64.796875 
L 19.671875 37.40625 
L 32.078125 37.40625 
Q 38.96875 37.40625 42.71875 40.96875 
Q 46.484375 44.53125 46.484375 51.125 
Q 46.484375 57.671875 42.71875 61.234375 
Q 38.96875 64.796875 32.078125 64.796875 
z
M 9.8125 72.90625 
L 32.078125 72.90625 
Q 44.34375 72.90625 50.609375 67.359375 
Q 56.890625 61.8125 56.890625 51.125 
Q 56.890625 40.328125 50.609375 34.8125 
Q 44.34375 29.296875 32.078125 29.296875 
L 19.671875 29.296875 
L 19.671875 0 
L 9.8125 0 
z
" id="DejaVuSans-80"/>
      <path d="M 41.109375 46.296875 
Q 39.59375 47.171875 37.8125 47.578125 
Q 36.03125 48 33.890625 48 
Q 26.265625 48 22.1875 43.046875 
Q 18.109375 38.09375 18.109375 28.8125 
L 18.109375 0 
L 9.078125 0 
L 9.078125 54.6875 
L 18.109375 54.6875 
L 18.109375 46.1875 
Q 20.953125 51.171875 25.484375 53.578125 
Q 30.03125 56 36.53125 56 
Q 37.453125 56 38.578125 55.875 
Q 39.703125 55.765625 41.0625 55.515625 
z
" id="DejaVuSans-114"/>
      <path d="M 30.609375 48.390625 
Q 23.390625 48.390625 19.1875 42.75 
Q 14.984375 37.109375 14.984375 27.296875 
Q 14.984375 17.484375 19.15625 11.84375 
Q 23.34375 6.203125 30.609375 6.203125 
Q 37.796875 6.203125 41.984375 11.859375 
Q 46.1875 17.53125 46.1875 27.296875 
Q 46.1875 37.015625 41.984375 42.703125 
Q 37.796875 48.390625 30.609375 48.390625 
z
M 30.609375 56 
Q 42.328125 56 49.015625 48.375 
Q 55.71875 40.765625 55.71875 27.296875 
Q 55.71875 13.875 49.015625 6.21875 
Q 42.328125 -1.421875 30.609375 -1.421875 
Q 18.84375 -1.421875 12.171875 6.21875 
Q 5.515625 13.875 5.515625 27.296875 
Q 5.515625 40.765625 12.171875 48.375 
Q 18.84375 56 30.609375 56 
z
" id="DejaVuSans-111"/>
      <path d="M 48.6875 27.296875 
Q 48.6875 37.203125 44.609375 42.84375 
Q 40.53125 48.484375 33.40625 48.484375 
Q 26.265625 48.484375 22.1875 42.84375 
Q 18.109375 37.203125 18.109375 27.296875 
Q 18.109375 17.390625 22.1875 11.75 
Q 26.265625 6.109375 33.40625 6.109375 
Q 40.53125 6.109375 44.609375 11.75 
Q 48.6875 17.390625 48.6875 27.296875 
z
M 18.109375 46.390625 
Q 20.953125 51.265625 25.265625 53.625 
Q 29.59375 56 35.59375 56 
Q 45.5625 56 51.78125 48.09375 
Q 58.015625 40.1875 58.015625 27.296875 
Q 58.015625 14.40625 51.78125 6.484375 
Q 45.5625 -1.421875 35.59375 -1.421875 
Q 29.59375 -1.421875 25.265625 0.953125 
Q 20.953125 3.328125 18.109375 8.203125 
L 18.109375 0 
L 9.078125 0 
L 9.078125 75.984375 
L 18.109375 75.984375 
z
" id="DejaVuSans-98"/>
      <path d="M 34.28125 27.484375 
Q 23.390625 27.484375 19.1875 25 
Q 14.984375 22.515625 14.984375 16.5 
Q 14.984375 11.71875 18.140625 8.90625 
Q 21.296875 6.109375 26.703125 6.109375 
Q 34.1875 6.109375 38.703125 11.40625 
Q 43.21875 16.703125 43.21875 25.484375 
L 43.21875 27.484375 
z
M 52.203125 31.203125 
L 52.203125 0 
L 43.21875 0 
L 43.21875 8.296875 
Q 40.140625 3.328125 35.546875 0.953125 
Q 30.953125 -1.421875 24.3125 -1.421875 
Q 15.921875 -1.421875 10.953125 3.296875 
Q 6 8.015625 6 15.921875 
Q 6 25.140625 12.171875 29.828125 
Q 18.359375 34.515625 30.609375 34.515625 
L 43.21875 34.515625 
L 43.21875 35.40625 
Q 43.21875 41.609375 39.140625 45 
Q 35.0625 48.390625 27.6875 48.390625 
Q 23 48.390625 18.546875 47.265625 
Q 14.109375 46.140625 10.015625 43.890625 
L 10.015625 52.203125 
Q 14.9375 54.109375 19.578125 55.046875 
Q 24.21875 56 28.609375 56 
Q 40.484375 56 46.34375 49.84375 
Q 52.203125 43.703125 52.203125 31.203125 
z
" id="DejaVuSans-97"/>
      <path d="M 9.421875 54.6875 
L 18.40625 54.6875 
L 18.40625 0 
L 9.421875 0 
z
M 9.421875 75.984375 
L 18.40625 75.984375 
L 18.40625 64.59375 
L 9.421875 64.59375 
z
" id="DejaVuSans-105"/>
      <path d="M 9.421875 75.984375 
L 18.40625 75.984375 
L 18.40625 0 
L 9.421875 0 
z
" id="DejaVuSans-108"/>
      <path d="M 18.3125 70.21875 
L 18.3125 54.6875 
L 36.8125 54.6875 
L 36.8125 47.703125 
L 18.3125 47.703125 
L 18.3125 18.015625 
Q 18.3125 11.328125 20.140625 9.421875 
Q 21.96875 7.515625 27.59375 7.515625 
L 36.8125 7.515625 
L 36.8125 0 
L 27.59375 0 
Q 17.1875 0 13.234375 3.875 
Q 9.28125 7.765625 9.28125 18.015625 
L 9.28125 47.703125 
L 2.6875 47.703125 
L 2.6875 54.6875 
L 9.28125 54.6875 
L 9.28125 70.21875 
z
" id="DejaVuSans-116"/>
      <path d="M 32.171875 -5.078125 
Q 28.375 -14.84375 24.75 -17.8125 
Q 21.140625 -20.796875 15.09375 -20.796875 
L 7.90625 -20.796875 
L 7.90625 -13.28125 
L 13.1875 -13.28125 
Q 16.890625 -13.28125 18.9375 -11.515625 
Q 21 -9.765625 23.484375 -3.21875 
L 25.09375 0.875 
L 2.984375 54.6875 
L 12.5 54.6875 
L 29.59375 11.921875 
L 46.6875 54.6875 
L 56.203125 54.6875 
z
" id="DejaVuSans-121"/>
      <path id="DejaVuSans-32"/>
      <path d="M 19.671875 34.8125 
L 19.671875 8.109375 
L 35.5 8.109375 
Q 43.453125 8.109375 47.28125 11.40625 
Q 51.125 14.703125 51.125 21.484375 
Q 51.125 28.328125 47.28125 31.5625 
Q 43.453125 34.8125 35.5 34.8125 
z
M 19.671875 64.796875 
L 19.671875 42.828125 
L 34.28125 42.828125 
Q 41.5 42.828125 45.03125 45.53125 
Q 48.578125 48.25 48.578125 53.8125 
Q 48.578125 59.328125 45.03125 62.0625 
Q 41.5 64.796875 34.28125 64.796875 
z
M 9.8125 72.90625 
L 35.015625 72.90625 
Q 46.296875 72.90625 52.390625 68.21875 
Q 58.5 63.53125 58.5 54.890625 
Q 58.5 48.1875 55.375 44.234375 
Q 52.25 40.28125 46.1875 39.3125 
Q 53.46875 37.75 57.5 32.78125 
Q 61.53125 27.828125 61.53125 20.40625 
Q 61.53125 10.640625 54.890625 5.3125 
Q 48.25 0 35.984375 0 
L 9.8125 0 
z
" id="DejaVuSans-66"/>
      <path d="M 56.203125 29.59375 
L 56.203125 25.203125 
L 14.890625 25.203125 
Q 15.484375 15.921875 20.484375 11.0625 
Q 25.484375 6.203125 34.421875 6.203125 
Q 39.59375 6.203125 44.453125 7.46875 
Q 49.3125 8.734375 54.109375 11.28125 
L 54.109375 2.78125 
Q 49.265625 0.734375 44.1875 -0.34375 
Q 39.109375 -1.421875 33.890625 -1.421875 
Q 20.796875 -1.421875 13.15625 6.1875 
Q 5.515625 13.8125 5.515625 26.8125 
Q 5.515625 40.234375 12.765625 48.109375 
Q 20.015625 56 32.328125 56 
Q 43.359375 56 49.78125 48.890625 
Q 56.203125 41.796875 56.203125 29.59375 
z
M 47.21875 32.234375 
Q 47.125 39.59375 43.09375 43.984375 
Q 39.0625 48.390625 32.421875 48.390625 
Q 24.90625 48.390625 20.390625 44.140625 
Q 15.875 39.890625 15.1875 32.171875 
z
" id="DejaVuSans-101"/>
     </defs>
     <g transform="translate(40.992428 670.533854)rotate(-90)scale(0.5 -0.5)">
      <use xlink:href="#DejaVuSans-80"/>
      <use x="60.287109" xlink:href="#DejaVuSans-114"/>
      <use x="101.369141" xlink:href="#DejaVuSans-111"/>
      <use x="162.550781" xlink:href="#DejaVuSans-98"/>
      <use x="226.027344" xlink:href="#DejaVuSans-97"/>
      <use x="287.306641" xlink:href="#DejaVuSans-98"/>
      <use x="350.783203" xlink:href="#DejaVuSans-105"/>
      <use x="378.566406" xlink:href="#DejaVuSans-108"/>
      <use x="406.349609" xlink:href="#DejaVuSans-105"/>
      <use x="434.132812" xlink:href="#DejaVuSans-116"/>
      <use x="473.341797" xlink:href="#DejaVuSans-121"/>
      <use x="532.521484" xlink:href="#DejaVuSans-32"/>
      <use x="564.308594" xlink:href="#DejaVuSans-66"/>
      <use x="632.912109" xlink:href="#DejaVuSans-101"/>
      <use x="694.435547" xlink:href="#DejaVuSans-116"/>
     </g>
    </g>
   </g>
   <g id="LineCollection_1"/>
   <g id="LineCollection_2">
    <path clip-path="url(#pa20988f6bb)" d="M 115.401282 880.320947 
L 125.079044 876.275103 
L 134.756806 872.234933 
L 138.365857 870.644484 
L 144.434569 867.541267 
L 154.112331 862.576932 
L 157.224764 860.934999 
L 163.790094 857.015157 
L 173.467856 851.384898 
L 173.73503 851.225513 
L 183.145619 844.98967 
L 188.585854 841.516027 
L 192.823381 838.529603 
L 202.501143 831.99195 
L 202.782688 831.806541 
L 212.178906 825.003883 
L 216.473167 822.097055 
L 221.856668 818.08385 
L 230.119966 812.387569 
L 231.534431 811.30917 
L 241.212193 804.519607 
L 244.150523 802.678083 
L 250.889955 797.918432 
L 258.865941 792.968597 
L 260.567718 791.763887 
L 270.24548 785.959395 
L 275.743269 783.259111 
L 279.923243 780.831751 
L 289.601005 776.617693 
L 299.278767 773.796715 
L 303.510302 773.549625 
L 308.95653 773.139736 
L 310.477968 773.549625 
L 318.634292 776.552568 
L 324.932117 783.259111 
L 328.312055 788.708194 
L 330.202206 792.968597 
L 333.616275 802.678083 
L 336.241748 812.387569 
L 337.989817 820.380851 
L 338.386436 822.097055 
L 340.360802 831.806541 
L 342.000751 841.516027 
L 343.244682 851.225513 
L 343.968466 860.934999 
L 343.965502 870.644484 
L 342.925416 880.35397 
L 340.434387 890.063456 
L 337.989817 895.619829 
L 336.359101 899.772942 
L 330.530139 909.482428 
L 328.312055 912.163946 
L 322.872476 919.191914 
L 318.634292 923.360109 
L 313.259441 928.9014 
L 308.95653 932.473921 
L 301.803719 938.610886 
L 299.278767 940.436595 
L 289.601005 947.698759 
L 288.826508 948.320372 
L 279.923243 954.599703 
L 275.241169 958.029857 
L 270.24548 961.345876 
L 261.013162 967.739343 
" style="fill:none;stroke:#008000;stroke-width:1.5;"/>
    <path clip-path="url(#pa20988f6bb)" d="M 1073.49976 106.144983 
L 1063.821998 107.117724 
L 1054.144235 108.830034 
L 1044.466473 111.102533 
L 1036.567489 113.304585 
L 1034.78871 113.885019 
L 1025.110948 117.507923 
L 1015.433186 121.203001 
L 1010.823401 123.014071 
L 1005.755423 125.301015 
L 996.077661 129.60756 
L 988.752426 132.723557 
L 986.399898 133.865439 
L 976.722136 138.34893 
L 967.0606 142.433042 
L 967.044374 142.44086 
L 957.366611 146.738894 
L 947.688849 150.542782 
L 943.072254 152.142528 
L 938.011086 154.146067 
L 928.333324 157.426389 
L 918.655561 160.19049 
L 911.481761 161.852014 
L 908.977799 162.517416 
L 899.300037 164.424881 
L 889.622274 165.682055 
L 879.944512 166.226802 
L 870.266749 165.949427 
L 860.588987 164.660625 
L 850.911225 162.032486 
L 850.477974 161.852014 
L 841.233462 157.507374 
L 834.042764 152.142528 
L 831.5557 149.750891 
L 825.767904 142.433042 
L 821.877937 135.193407 
L 820.699706 132.723557 
L 817.522993 123.014071 
L 815.788797 113.304585 
L 815.333623 103.595099 
L 816.147173 93.885613 
L 818.320375 84.176127 
L 821.877937 74.790912 
L 821.995302 74.466641 
L 827.066182 64.757155 
L 831.5557 58.414472 
L 833.88056 55.047669 
L 841.233462 46.722098 
L 842.424761 45.338184 
L 850.911225 37.259824 
L 852.576739 35.628698 
L 860.588987 28.944886 
L 864.100889 25.919212 
L 870.266749 21.244212 
L 876.67097 16.209726 
L 879.944512 13.881297 
L 889.622274 6.702549 
L 889.874469 6.50024 
" style="fill:none;stroke:#008000;stroke-width:1.5;"/>
    <path clip-path="url(#pa20988f6bb)" d="M 526.13385 550.23145 
L 523.916454 540.521964 
L 526.138109 530.812478 
L 530.814575 521.102992 
L 531.545065 520.101124 
L 537.53568 511.393506 
L 541.222828 507.188412 
L 545.932032 501.684021 
L 550.90059 496.806424 
L 555.825899 491.974535 
L 560.578352 487.857892 
L 567.167251 482.265049 
L 570.256115 479.858233 
L 579.933877 472.592965 
L 579.990542 472.555563 
L 589.61164 466.551691 
L 596.080379 462.846077 
L 599.289402 461.064032 
L 608.967164 457.013174 
L 618.644927 454.286808 
L 628.322689 455.161552 
L 634.660998 462.846077 
L 633.759003 472.555563 
L 629.561852 482.265049 
L 628.322689 484.016337 
L 623.170324 491.974535 
L 618.644927 497.432016 
L 615.341576 501.684021 
L 608.967164 508.477057 
L 606.339486 511.393506 
L 599.289402 518.155458 
L 596.260061 521.102992 
L 589.61164 526.887332 
L 585.032955 530.812478 
L 579.933877 534.836671 
L 572.376876 540.521964 
L 570.256115 542.029864 
L 560.578352 548.015129 
L 556.12795 550.23145 
L 550.90059 552.739761 
L 541.222828 555.37957 
L 531.545065 554.543471 
L 526.13385 550.23145 
" style="fill:none;stroke:#008000;stroke-width:1.5;"/>
   </g>
   <g id="LineCollection_3">
    <path clip-path="url(#pa20988f6bb)" d="M 115.401282 906.488465 
L 125.079044 903.391177 
L 134.756806 900.220203 
L 136.073953 899.772942 
L 144.434569 896.478744 
L 154.112331 892.633204 
L 160.428059 890.063456 
L 163.790094 888.516657 
L 173.467856 884.123201 
L 181.719268 880.35397 
L 183.145619 879.632078 
L 192.823381 875.014961 
L 202.181304 870.644484 
L 202.501143 870.481007 
L 212.178906 866.220316 
L 221.856668 862.427477 
L 226.998879 860.934999 
L 231.534431 859.505374 
L 241.212193 858.199648 
L 250.889955 859.67591 
L 253.099837 860.934999 
L 260.544586 870.644484 
L 260.567718 870.785832 
L 261.67141 880.35397 
L 260.567718 888.714962 
L 260.403495 890.063456 
L 257.448343 899.772942 
L 253.145462 909.482428 
L 250.889955 913.286415 
L 247.703303 919.191914 
L 241.212193 928.896321 
L 241.209126 928.9014 
L 234.185294 938.610886 
L 231.534431 941.756921 
L 226.562197 948.320372 
L 221.856668 953.755356 
L 218.553649 958.029857 
L 212.178906 965.347013 
L 210.332523 967.739343 
" style="fill:none;stroke:#008000;stroke-width:1.5;"/>
    <path clip-path="url(#pa20988f6bb)" d="M 1073.49976 66.817605 
L 1063.821998 68.650564 
L 1054.144235 70.636593 
L 1044.466473 72.741628 
L 1036.864059 74.466641 
L 1034.78871 75.018758 
L 1025.110948 77.555726 
L 1015.433186 80.009602 
L 1005.755423 82.353768 
L 997.614259 84.176127 
L 996.077661 84.564407 
L 986.399898 86.538288 
L 976.722136 88.048848 
L 967.044374 88.975097 
L 957.366611 89.147782 
L 947.688849 88.337373 
L 938.011086 86.219156 
L 932.573952 84.176127 
L 928.333324 81.573794 
L 921.281677 74.466641 
L 918.678847 64.757155 
L 920.061691 55.047669 
L 923.767219 45.338184 
L 928.333324 37.153582 
L 929.083118 35.628698 
L 935.509544 25.919212 
L 938.011086 22.802036 
L 942.745297 16.209726 
L 947.688849 10.343203 
L 950.580378 6.50024 
" style="fill:none;stroke:#008000;stroke-width:1.5;"/>
   </g>
   <g id="LineCollection_4">
    <path clip-path="url(#pa20988f6bb)" d="M 115.401282 923.134961 
L 125.079044 921.062948 
L 133.742784 919.191914 
L 134.756806 918.934645 
L 144.434569 916.679141 
L 154.112331 914.544046 
L 163.790094 912.572017 
L 173.467856 910.909198 
L 183.145619 909.988768 
L 192.823381 911.242717 
L 201.27227 919.191914 
L 201.559415 928.9014 
L 198.973704 938.610886 
L 195.027944 948.320372 
L 192.823381 952.362685 
L 190.207848 958.029857 
L 184.823225 967.739343 
" style="fill:none;stroke:#008000;stroke-width:1.5;"/>
    <path clip-path="url(#pa20988f6bb)" d="M 1073.49976 46.713304 
L 1063.821998 47.939126 
L 1054.144235 49.062338 
L 1044.466473 50.030578 
L 1034.78871 50.75962 
L 1025.110948 51.107695 
L 1015.433186 50.82995 
L 1005.755423 49.49316 
L 996.077661 46.304285 
L 994.277961 45.338184 
L 986.399898 36.895497 
L 985.631368 35.628698 
L 983.848675 25.919212 
L 985.108395 16.209726 
L 986.399898 12.533421 
L 988.136172 6.50024 
" style="fill:none;stroke:#008000;stroke-width:1.5;"/>
   </g>
   <g id="LineCollection_5">
    <path clip-path="url(#pa20988f6bb)" d="M 115.401282 967.716868 
L 115.441487 967.739343 
" style="fill:none;stroke:#008000;stroke-width:1.5;"/>
   </g>
   <g id="patch_3">
    <path d="M 115.401282 967.739343 
L 115.401282 6.50024 
" style="fill:none;stroke:#000000;stroke-linecap:square;stroke-linejoin:miter;stroke-width:0.8;"/>
   </g>
   <g id="patch_4">
    <path d="M 1073.49976 967.739343 
L 1073.49976 6.50024 
" style="fill:none;stroke:#000000;stroke-linecap:square;stroke-linejoin:miter;stroke-width:0.8;"/>
   </g>
   <g id="patch_5">
    <path d="M 115.401282 967.739343 
L 1073.49976 967.739343 
" style="fill:none;stroke:#000000;stroke-linecap:square;stroke-linejoin:miter;stroke-width:0.8;"/>
   </g>
   <g id="patch_6">
    <path d="M 115.401282 6.50024 
L 1073.49976 6.50024 
" style="fill:none;stroke:#000000;stroke-linecap:square;stroke-linejoin:miter;stroke-width:0.8;"/>
   </g>
   <g id="legend_1">
    <g id="patch_7">
     <path d="M 138.734615 288.208573 
L 587.067948 288.208573 
Q 593.734615 288.208573 593.734615 281.541907 
L 593.734615 29.833573 
Q 593.734615 23.166907 587.067948 23.166907 
L 138.734615 23.166907 
Q 132.067948 23.166907 132.067948 29.833573 
L 132.067948 281.541907 
Q 132.067948 288.208573 138.734615 288.208573 
z
" style="fill:#ffffff;opacity:0.5;stroke:#cccccc;stroke-linejoin:miter;"/>
    </g>
    <g id="text_15">
     <!-- $\hat{P}_{mean}$, MI = 0.553 -->
     <defs>
      <path d="M 89.796875 33.015625 
L 83.40625 0 
L 74.421875 0 
L 80.71875 32.71875 
Q 81.109375 34.8125 81.296875 36.328125 
Q 81.5 37.84375 81.5 38.921875 
Q 81.5 43.3125 79.046875 45.75 
Q 76.609375 48.1875 72.21875 48.1875 
Q 65.671875 48.1875 60.546875 43.28125 
Q 55.421875 38.375 53.90625 30.515625 
L 47.90625 0 
L 38.921875 0 
L 45.3125 32.71875 
Q 45.703125 34.515625 45.890625 36.046875 
Q 46.09375 37.59375 46.09375 38.8125 
Q 46.09375 43.265625 43.65625 45.71875 
Q 41.21875 48.1875 36.921875 48.1875 
Q 30.28125 48.1875 25.140625 43.28125 
Q 20.015625 38.375 18.5 30.515625 
L 12.5 0 
L 3.515625 0 
L 14.203125 54.6875 
L 23.1875 54.6875 
L 21.484375 46.1875 
Q 25.140625 50.984375 30.046875 53.484375 
Q 34.96875 56 40.578125 56 
Q 46.53125 56 50.359375 52.875 
Q 54.203125 49.75 54.984375 44.1875 
Q 59.078125 49.953125 64.46875 52.96875 
Q 69.875 56 75.875 56 
Q 82.90625 56 86.734375 51.953125 
Q 90.578125 47.90625 90.578125 40.484375 
Q 90.578125 38.875 90.375 36.9375 
Q 90.1875 35.015625 89.796875 33.015625 
z
" id="DejaVuSans-Oblique-109"/>
      <path d="M 48.09375 32.234375 
Q 48.25 33.015625 48.3125 33.84375 
Q 48.390625 34.671875 48.390625 35.5 
Q 48.390625 41.453125 44.890625 44.921875 
Q 41.40625 48.390625 35.40625 48.390625 
Q 28.71875 48.390625 23.578125 44.15625 
Q 18.453125 39.9375 15.828125 32.171875 
z
M 55.90625 25.203125 
L 14.109375 25.203125 
Q 13.8125 23.34375 13.71875 22.265625 
Q 13.625 21.1875 13.625 20.40625 
Q 13.625 13.625 17.796875 9.90625 
Q 21.96875 6.203125 29.59375 6.203125 
Q 35.453125 6.203125 40.671875 7.515625 
Q 45.90625 8.84375 50.390625 11.375 
L 48.6875 2.484375 
Q 43.84375 0.53125 38.6875 -0.4375 
Q 33.546875 -1.421875 28.21875 -1.421875 
Q 16.84375 -1.421875 10.71875 4.015625 
Q 4.59375 9.46875 4.59375 19.484375 
Q 4.59375 28.03125 7.640625 35.375 
Q 10.6875 42.71875 16.609375 48.484375 
Q 20.40625 52.09375 25.65625 54.046875 
Q 30.90625 56 36.8125 56 
Q 46.09375 56 51.578125 50.4375 
Q 57.078125 44.875 57.078125 35.5 
Q 57.078125 33.25 56.78125 30.6875 
Q 56.5 28.125 55.90625 25.203125 
z
" id="DejaVuSans-Oblique-101"/>
      <path d="M 53.71875 31.203125 
L 47.609375 0 
L 38.625 0 
L 40.28125 8.296875 
Q 36.328125 3.421875 31.265625 1 
Q 26.21875 -1.421875 20.015625 -1.421875 
Q 13.03125 -1.421875 8.5625 2.84375 
Q 4.109375 7.125 4.109375 13.8125 
Q 4.109375 23.390625 11.75 28.953125 
Q 19.390625 34.515625 32.8125 34.515625 
L 45.3125 34.515625 
L 45.796875 36.921875 
Q 45.90625 37.3125 45.953125 37.765625 
Q 46 38.234375 46 39.203125 
Q 46 43.5625 42.453125 45.96875 
Q 38.921875 48.390625 32.515625 48.390625 
Q 28.125 48.390625 23.5 47.265625 
Q 18.890625 46.140625 14.015625 43.890625 
L 15.578125 52.203125 
Q 20.65625 54.109375 25.515625 55.046875 
Q 30.375 56 34.90625 56 
Q 44.578125 56 49.625 51.796875 
Q 54.6875 47.609375 54.6875 39.59375 
Q 54.6875 37.984375 54.4375 35.8125 
Q 54.203125 33.640625 53.71875 31.203125 
z
M 44 27.484375 
L 35.015625 27.484375 
Q 23.96875 27.484375 18.671875 24.53125 
Q 13.375 21.578125 13.375 15.375 
Q 13.375 11.078125 16.078125 8.640625 
Q 18.796875 6.203125 23.578125 6.203125 
Q 30.90625 6.203125 36.375 11.453125 
Q 41.84375 16.703125 43.609375 25.484375 
z
" id="DejaVuSans-Oblique-97"/>
      <path d="M 55.71875 33.015625 
L 49.3125 0 
L 40.28125 0 
L 46.6875 32.671875 
Q 47.125 34.96875 47.359375 36.71875 
Q 47.609375 38.484375 47.609375 39.5 
Q 47.609375 43.609375 45.015625 45.890625 
Q 42.4375 48.1875 37.796875 48.1875 
Q 30.5625 48.1875 25.34375 43.375 
Q 20.125 38.578125 18.5 30.328125 
L 12.5 0 
L 3.515625 0 
L 14.109375 54.6875 
L 23.09375 54.6875 
L 21.296875 46.09375 
Q 25.046875 50.828125 30.3125 53.40625 
Q 35.59375 56 41.40625 56 
Q 48.640625 56 52.609375 52.09375 
Q 56.59375 48.1875 56.59375 41.109375 
Q 56.59375 39.359375 56.375 37.359375 
Q 56.15625 35.359375 55.71875 33.015625 
z
" id="DejaVuSans-Oblique-110"/>
      <path d="M 11.71875 12.40625 
L 22.015625 12.40625 
L 22.015625 4 
L 14.015625 -11.625 
L 7.71875 -11.625 
L 11.71875 4 
z
" id="DejaVuSans-44"/>
      <path d="M 9.8125 72.90625 
L 24.515625 72.90625 
L 43.109375 23.296875 
L 61.8125 72.90625 
L 76.515625 72.90625 
L 76.515625 0 
L 66.890625 0 
L 66.890625 64.015625 
L 48.09375 14.015625 
L 38.1875 14.015625 
L 19.390625 64.015625 
L 19.390625 0 
L 9.8125 0 
z
" id="DejaVuSans-77"/>
      <path d="M 9.8125 72.90625 
L 19.671875 72.90625 
L 19.671875 0 
L 9.8125 0 
z
" id="DejaVuSans-73"/>
      <path d="M 10.59375 45.40625 
L 73.1875 45.40625 
L 73.1875 37.203125 
L 10.59375 37.203125 
z
M 10.59375 25.484375 
L 73.1875 25.484375 
L 73.1875 17.1875 
L 10.59375 17.1875 
z
" id="DejaVuSans-61"/>
      <path d="M 10.796875 72.90625 
L 49.515625 72.90625 
L 49.515625 64.59375 
L 19.828125 64.59375 
L 19.828125 46.734375 
Q 21.96875 47.46875 24.109375 47.828125 
Q 26.265625 48.1875 28.421875 48.1875 
Q 40.625 48.1875 47.75 41.5 
Q 54.890625 34.8125 54.890625 23.390625 
Q 54.890625 11.625 47.5625 5.09375 
Q 40.234375 -1.421875 26.90625 -1.421875 
Q 22.3125 -1.421875 17.546875 -0.640625 
Q 12.796875 0.140625 7.71875 1.703125 
L 7.71875 11.625 
Q 12.109375 9.234375 16.796875 8.0625 
Q 21.484375 6.890625 26.703125 6.890625 
Q 35.15625 6.890625 40.078125 11.328125 
Q 45.015625 15.765625 45.015625 23.390625 
Q 45.015625 31 40.078125 35.4375 
Q 35.15625 39.890625 26.703125 39.890625 
Q 22.75 39.890625 18.8125 39.015625 
Q 14.890625 38.140625 10.796875 36.28125 
z
" id="DejaVuSans-53"/>
      <path d="M 40.578125 39.3125 
Q 47.65625 37.796875 51.625 33 
Q 55.609375 28.21875 55.609375 21.1875 
Q 55.609375 10.40625 48.1875 4.484375 
Q 40.765625 -1.421875 27.09375 -1.421875 
Q 22.515625 -1.421875 17.65625 -0.515625 
Q 12.796875 0.390625 7.625 2.203125 
L 7.625 11.71875 
Q 11.71875 9.328125 16.59375 8.109375 
Q 21.484375 6.890625 26.8125 6.890625 
Q 36.078125 6.890625 40.9375 10.546875 
Q 45.796875 14.203125 45.796875 21.1875 
Q 45.796875 27.640625 41.28125 31.265625 
Q 36.765625 34.90625 28.71875 34.90625 
L 20.21875 34.90625 
L 20.21875 43.015625 
L 29.109375 43.015625 
Q 36.375 43.015625 40.234375 45.921875 
Q 44.09375 48.828125 44.09375 54.296875 
Q 44.09375 59.90625 40.109375 62.90625 
Q 36.140625 65.921875 28.71875 65.921875 
Q 24.65625 65.921875 20.015625 65.03125 
Q 15.375 64.15625 9.8125 62.3125 
L 9.8125 71.09375 
Q 15.4375 72.65625 20.34375 73.4375 
Q 25.25 74.21875 29.59375 74.21875 
Q 40.828125 74.21875 47.359375 69.109375 
Q 53.90625 64.015625 53.90625 55.328125 
Q 53.90625 49.265625 50.4375 45.09375 
Q 46.96875 40.921875 40.578125 39.3125 
z
" id="DejaVuSans-51"/>
     </defs>
     <g transform="translate(216.901282 72.234615)scale(0.333333 -0.333333)">
      <use transform="translate(62.653809 30.015625)" xlink:href="#DejaVuSans-770"/>
      <use transform="translate(0 0.609375)" xlink:href="#DejaVuSans-Oblique-80"/>
      <use transform="translate(61.259766 -15.796875)scale(0.7)" xlink:href="#DejaVuSans-Oblique-109"/>
      <use transform="translate(129.448242 -15.796875)scale(0.7)" xlink:href="#DejaVuSans-Oblique-101"/>
      <use transform="translate(172.514648 -15.796875)scale(0.7)" xlink:href="#DejaVuSans-Oblique-97"/>
      <use transform="translate(215.410156 -15.796875)scale(0.7)" xlink:href="#DejaVuSans-Oblique-110"/>
      <use transform="translate(262.509766 0.609375)" xlink:href="#DejaVuSans-44"/>
      <use transform="translate(294.296875 0.609375)" xlink:href="#DejaVuSans-32"/>
      <use transform="translate(326.083984 0.609375)" xlink:href="#DejaVuSans-77"/>
      <use transform="translate(412.363281 0.609375)" xlink:href="#DejaVuSans-73"/>
      <use transform="translate(441.855469 0.609375)" xlink:href="#DejaVuSans-32"/>
      <use transform="translate(473.642578 0.609375)" xlink:href="#DejaVuSans-61"/>
      <use transform="translate(557.431641 0.609375)" xlink:href="#DejaVuSans-32"/>
      <use transform="translate(589.21875 0.609375)" xlink:href="#DejaVuSans-48"/>
      <use transform="translate(652.841797 0.609375)" xlink:href="#DejaVuSans-46"/>
      <use transform="translate(684.628906 0.609375)" xlink:href="#DejaVuSans-53"/>
      <use transform="translate(748.251953 0.609375)" xlink:href="#DejaVuSans-53"/>
      <use transform="translate(811.875 0.609375)" xlink:href="#DejaVuSans-51"/>
     </g>
    </g>
    <g id="patch_8">
     <path d="M 145.401282 121.161698 
L 212.067948 121.161698 
L 212.067948 97.828365 
L 145.401282 97.828365 
z
" style="fill:none;"/>
    </g>
    <g id="text_16">
     <!-- 0% &lt; kde $\leq$ 15% -->
     <defs>
      <path d="M 72.703125 32.078125 
Q 68.453125 32.078125 66.03125 28.46875 
Q 63.625 24.859375 63.625 18.40625 
Q 63.625 12.0625 66.03125 8.421875 
Q 68.453125 4.78125 72.703125 4.78125 
Q 76.859375 4.78125 79.265625 8.421875 
Q 81.6875 12.0625 81.6875 18.40625 
Q 81.6875 24.8125 79.265625 28.4375 
Q 76.859375 32.078125 72.703125 32.078125 
z
M 72.703125 38.28125 
Q 80.421875 38.28125 84.953125 32.90625 
Q 89.5 27.546875 89.5 18.40625 
Q 89.5 9.28125 84.9375 3.921875 
Q 80.375 -1.421875 72.703125 -1.421875 
Q 64.890625 -1.421875 60.34375 3.921875 
Q 55.8125 9.28125 55.8125 18.40625 
Q 55.8125 27.59375 60.375 32.9375 
Q 64.9375 38.28125 72.703125 38.28125 
z
M 22.3125 68.015625 
Q 18.109375 68.015625 15.6875 64.375 
Q 13.28125 60.75 13.28125 54.390625 
Q 13.28125 47.953125 15.671875 44.328125 
Q 18.0625 40.71875 22.3125 40.71875 
Q 26.5625 40.71875 28.96875 44.328125 
Q 31.390625 47.953125 31.390625 54.390625 
Q 31.390625 60.6875 28.953125 64.34375 
Q 26.515625 68.015625 22.3125 68.015625 
z
M 66.40625 74.21875 
L 74.21875 74.21875 
L 28.609375 -1.421875 
L 20.796875 -1.421875 
z
M 22.3125 74.21875 
Q 30.03125 74.21875 34.609375 68.875 
Q 39.203125 63.53125 39.203125 54.390625 
Q 39.203125 45.171875 34.640625 39.84375 
Q 30.078125 34.515625 22.3125 34.515625 
Q 14.546875 34.515625 10.03125 39.859375 
Q 5.515625 45.21875 5.515625 54.390625 
Q 5.515625 63.484375 10.046875 68.84375 
Q 14.59375 74.21875 22.3125 74.21875 
z
" id="DejaVuSans-37"/>
      <path d="M 73.1875 49.21875 
L 22.796875 31.296875 
L 73.1875 13.484375 
L 73.1875 4.59375 
L 10.59375 27.296875 
L 10.59375 35.40625 
L 73.1875 58.109375 
z
" id="DejaVuSans-60"/>
      <path d="M 9.078125 75.984375 
L 18.109375 75.984375 
L 18.109375 31.109375 
L 44.921875 54.6875 
L 56.390625 54.6875 
L 27.390625 29.109375 
L 57.625 0 
L 45.90625 0 
L 18.109375 26.703125 
L 18.109375 0 
L 9.078125 0 
z
" id="DejaVuSans-107"/>
      <path d="M 45.40625 46.390625 
L 45.40625 75.984375 
L 54.390625 75.984375 
L 54.390625 0 
L 45.40625 0 
L 45.40625 8.203125 
Q 42.578125 3.328125 38.25 0.953125 
Q 33.9375 -1.421875 27.875 -1.421875 
Q 17.96875 -1.421875 11.734375 6.484375 
Q 5.515625 14.40625 5.515625 27.296875 
Q 5.515625 40.1875 11.734375 48.09375 
Q 17.96875 56 27.875 56 
Q 33.9375 56 38.25 53.625 
Q 42.578125 51.265625 45.40625 46.390625 
z
M 14.796875 27.296875 
Q 14.796875 17.390625 18.875 11.75 
Q 22.953125 6.109375 30.078125 6.109375 
Q 37.203125 6.109375 41.296875 11.75 
Q 45.40625 17.390625 45.40625 27.296875 
Q 45.40625 37.203125 41.296875 42.84375 
Q 37.203125 48.484375 30.078125 48.484375 
Q 22.953125 48.484375 18.875 42.84375 
Q 14.796875 37.203125 14.796875 27.296875 
z
" id="DejaVuSans-100"/>
      <path d="M 73.1875 49.609375 
L 26.3125 36.078125 
L 73.1875 22.703125 
L 73.1875 14.015625 
L 10.59375 31.984375 
L 10.59375 40.28125 
L 73.1875 58.203125 
z
M 10.59375 8.296875 
L 73.1875 8.296875 
L 73.1875 0 
L 10.59375 0 
z
" id="DejaVuSans-8804"/>
     </defs>
     <g transform="translate(238.734615 121.161698)scale(0.333333 -0.333333)">
      <use transform="translate(0 0.015625)" xlink:href="#DejaVuSans-48"/>
      <use transform="translate(63.623047 0.015625)" xlink:href="#DejaVuSans-37"/>
      <use transform="translate(158.642578 0.015625)" xlink:href="#DejaVuSans-32"/>
      <use transform="translate(190.429688 0.015625)" xlink:href="#DejaVuSans-60"/>
      <use transform="translate(274.21875 0.015625)" xlink:href="#DejaVuSans-32"/>
      <use transform="translate(306.005859 0.015625)" xlink:href="#DejaVuSans-107"/>
      <use transform="translate(363.916016 0.015625)" xlink:href="#DejaVuSans-100"/>
      <use transform="translate(427.392578 0.015625)" xlink:href="#DejaVuSans-101"/>
      <use transform="translate(488.916016 0.015625)" xlink:href="#DejaVuSans-32"/>
      <use transform="translate(540.185547 0.015625)" xlink:href="#DejaVuSans-8804"/>
      <use transform="translate(643.457031 0.015625)" xlink:href="#DejaVuSans-32"/>
      <use transform="translate(675.244141 0.015625)" xlink:href="#DejaVuSans-49"/>
      <use transform="translate(738.867188 0.015625)" xlink:href="#DejaVuSans-53"/>
      <use transform="translate(802.490234 0.015625)" xlink:href="#DejaVuSans-37"/>
     </g>
    </g>
    <g id="patch_9">
     <path d="M 145.401282 170.088782 
L 212.067948 170.088782 
L 212.067948 146.755448 
L 145.401282 146.755448 
z
" style="fill:url(#h1ff6825b01);"/>
    </g>
    <g id="text_17">
     <!-- 15% &lt; kde $\leq$ 30% -->
     <g transform="translate(238.734615 170.088782)scale(0.333333 -0.333333)">
      <use transform="translate(0 0.015625)" xlink:href="#DejaVuSans-49"/>
      <use transform="translate(63.623047 0.015625)" xlink:href="#DejaVuSans-53"/>
      <use transform="translate(127.246094 0.015625)" xlink:href="#DejaVuSans-37"/>
      <use transform="translate(222.265625 0.015625)" xlink:href="#DejaVuSans-32"/>
      <use transform="translate(254.052734 0.015625)" xlink:href="#DejaVuSans-60"/>
      <use transform="translate(337.841797 0.015625)" xlink:href="#DejaVuSans-32"/>
      <use transform="translate(369.628906 0.015625)" xlink:href="#DejaVuSans-107"/>
      <use transform="translate(427.539062 0.015625)" xlink:href="#DejaVuSans-100"/>
      <use transform="translate(491.015625 0.015625)" xlink:href="#DejaVuSans-101"/>
      <use transform="translate(552.539062 0.015625)" xlink:href="#DejaVuSans-32"/>
      <use transform="translate(603.808594 0.015625)" xlink:href="#DejaVuSans-8804"/>
      <use transform="translate(707.080078 0.015625)" xlink:href="#DejaVuSans-32"/>
      <use transform="translate(738.867188 0.015625)" xlink:href="#DejaVuSans-51"/>
      <use transform="translate(802.490234 0.015625)" xlink:href="#DejaVuSans-48"/>
      <use transform="translate(866.113281 0.015625)" xlink:href="#DejaVuSans-37"/>
     </g>
    </g>
    <g id="patch_10">
     <path d="M 145.401282 219.015865 
L 212.067948 219.015865 
L 212.067948 195.682532 
L 145.401282 195.682532 
z
" style="fill:url(#h2549859fa2);"/>
    </g>
    <g id="text_18">
     <!-- 30% &lt; kde $\leq$ 45% -->
     <g transform="translate(238.734615 219.015865)scale(0.333333 -0.333333)">
      <use transform="translate(0 0.015625)" xlink:href="#DejaVuSans-51"/>
      <use transform="translate(63.623047 0.015625)" xlink:href="#DejaVuSans-48"/>
      <use transform="translate(127.246094 0.015625)" xlink:href="#DejaVuSans-37"/>
      <use transform="translate(222.265625 0.015625)" xlink:href="#DejaVuSans-32"/>
      <use transform="translate(254.052734 0.015625)" xlink:href="#DejaVuSans-60"/>
      <use transform="translate(337.841797 0.015625)" xlink:href="#DejaVuSans-32"/>
      <use transform="translate(369.628906 0.015625)" xlink:href="#DejaVuSans-107"/>
      <use transform="translate(427.539062 0.015625)" xlink:href="#DejaVuSans-100"/>
      <use transform="translate(491.015625 0.015625)" xlink:href="#DejaVuSans-101"/>
      <use transform="translate(552.539062 0.015625)" xlink:href="#DejaVuSans-32"/>
      <use transform="translate(603.808594 0.015625)" xlink:href="#DejaVuSans-8804"/>
      <use transform="translate(707.080078 0.015625)" xlink:href="#DejaVuSans-32"/>
      <use transform="translate(738.867188 0.015625)" xlink:href="#DejaVuSans-52"/>
      <use transform="translate(802.490234 0.015625)" xlink:href="#DejaVuSans-53"/>
      <use transform="translate(866.113281 0.015625)" xlink:href="#DejaVuSans-37"/>
     </g>
    </g>
    <g id="patch_11">
     <path d="M 145.401282 267.942948 
L 212.067948 267.942948 
L 212.067948 244.609615 
L 145.401282 244.609615 
z
" style="fill:url(#hb019f44dfe);"/>
    </g>
    <g id="text_19">
     <!-- 45% &lt; kde $\leq$ 100% -->
     <g transform="translate(238.734615 267.942948)scale(0.333333 -0.333333)">
      <use transform="translate(0 0.015625)" xlink:href="#DejaVuSans-52"/>
      <use transform="translate(63.623047 0.015625)" xlink:href="#DejaVuSans-53"/>
      <use transform="translate(127.246094 0.015625)" xlink:href="#DejaVuSans-37"/>
      <use transform="translate(222.265625 0.015625)" xlink:href="#DejaVuSans-32"/>
      <use transform="translate(254.052734 0.015625)" xlink:href="#DejaVuSans-60"/>
      <use transform="translate(337.841797 0.015625)" xlink:href="#DejaVuSans-32"/>
      <use transform="translate(369.628906 0.015625)" xlink:href="#DejaVuSans-107"/>
      <use transform="translate(427.539062 0.015625)" xlink:href="#DejaVuSans-100"/>
      <use transform="translate(491.015625 0.015625)" xlink:href="#DejaVuSans-101"/>
      <use transform="translate(552.539062 0.015625)" xlink:href="#DejaVuSans-32"/>
      <use transform="translate(603.808594 0.015625)" xlink:href="#DejaVuSans-8804"/>
      <use transform="translate(707.080078 0.015625)" xlink:href="#DejaVuSans-32"/>
      <use transform="translate(738.867188 0.015625)" xlink:href="#DejaVuSans-49"/>
      <use transform="translate(802.490234 0.015625)" xlink:href="#DejaVuSans-48"/>
      <use transform="translate(866.113281 0.015625)" xlink:href="#DejaVuSans-48"/>
      <use transform="translate(929.736328 0.015625)" xlink:href="#DejaVuSans-37"/>
     </g>
    </g>
   </g>
   <g id="legend_2">
    <g id="patch_12">
     <path d="M 138.734615 288.208573 
L 587.067948 288.208573 
Q 593.734615 288.208573 593.734615 281.541907 
L 593.734615 29.833573 
Q 593.734615 23.166907 587.067948 23.166907 
L 138.734615 23.166907 
Q 132.067948 23.166907 132.067948 29.833573 
L 132.067948 281.541907 
Q 132.067948 288.208573 138.734615 288.208573 
z
" style="fill:#ffffff;opacity:0.5;stroke:#cccccc;stroke-linejoin:miter;"/>
    </g>
    <g id="text_20">
     <!-- $\hat{P}_{mean}$, MI = 0.553 -->
     <g transform="translate(216.901282 72.234615)scale(0.333333 -0.333333)">
      <use transform="translate(62.653809 30.015625)" xlink:href="#DejaVuSans-770"/>
      <use transform="translate(0 0.609375)" xlink:href="#DejaVuSans-Oblique-80"/>
      <use transform="translate(61.259766 -15.796875)scale(0.7)" xlink:href="#DejaVuSans-Oblique-109"/>
      <use transform="translate(129.448242 -15.796875)scale(0.7)" xlink:href="#DejaVuSans-Oblique-101"/>
      <use transform="translate(172.514648 -15.796875)scale(0.7)" xlink:href="#DejaVuSans-Oblique-97"/>
      <use transform="translate(215.410156 -15.796875)scale(0.7)" xlink:href="#DejaVuSans-Oblique-110"/>
      <use transform="translate(262.509766 0.609375)" xlink:href="#DejaVuSans-44"/>
      <use transform="translate(294.296875 0.609375)" xlink:href="#DejaVuSans-32"/>
      <use transform="translate(326.083984 0.609375)" xlink:href="#DejaVuSans-77"/>
      <use transform="translate(412.363281 0.609375)" xlink:href="#DejaVuSans-73"/>
      <use transform="translate(441.855469 0.609375)" xlink:href="#DejaVuSans-32"/>
      <use transform="translate(473.642578 0.609375)" xlink:href="#DejaVuSans-61"/>
      <use transform="translate(557.431641 0.609375)" xlink:href="#DejaVuSans-32"/>
      <use transform="translate(589.21875 0.609375)" xlink:href="#DejaVuSans-48"/>
      <use transform="translate(652.841797 0.609375)" xlink:href="#DejaVuSans-46"/>
      <use transform="translate(684.628906 0.609375)" xlink:href="#DejaVuSans-53"/>
      <use transform="translate(748.251953 0.609375)" xlink:href="#DejaVuSans-53"/>
      <use transform="translate(811.875 0.609375)" xlink:href="#DejaVuSans-51"/>
     </g>
    </g>
    <g id="patch_13">
     <path d="M 145.401282 121.161698 
L 212.067948 121.161698 
L 212.067948 97.828365 
L 145.401282 97.828365 
z
" style="fill:none;"/>
    </g>
    <g id="text_21">
     <!-- 0% &lt; kde $\leq$ 15% -->
     <g transform="translate(238.734615 121.161698)scale(0.333333 -0.333333)">
      <use transform="translate(0 0.015625)" xlink:href="#DejaVuSans-48"/>
      <use transform="translate(63.623047 0.015625)" xlink:href="#DejaVuSans-37"/>
      <use transform="translate(158.642578 0.015625)" xlink:href="#DejaVuSans-32"/>
      <use transform="translate(190.429688 0.015625)" xlink:href="#DejaVuSans-60"/>
      <use transform="translate(274.21875 0.015625)" xlink:href="#DejaVuSans-32"/>
      <use transform="translate(306.005859 0.015625)" xlink:href="#DejaVuSans-107"/>
      <use transform="translate(363.916016 0.015625)" xlink:href="#DejaVuSans-100"/>
      <use transform="translate(427.392578 0.015625)" xlink:href="#DejaVuSans-101"/>
      <use transform="translate(488.916016 0.015625)" xlink:href="#DejaVuSans-32"/>
      <use transform="translate(540.185547 0.015625)" xlink:href="#DejaVuSans-8804"/>
      <use transform="translate(643.457031 0.015625)" xlink:href="#DejaVuSans-32"/>
      <use transform="translate(675.244141 0.015625)" xlink:href="#DejaVuSans-49"/>
      <use transform="translate(738.867188 0.015625)" xlink:href="#DejaVuSans-53"/>
      <use transform="translate(802.490234 0.015625)" xlink:href="#DejaVuSans-37"/>
     </g>
    </g>
    <g id="patch_14">
     <path d="M 145.401282 170.088782 
L 212.067948 170.088782 
L 212.067948 146.755448 
L 145.401282 146.755448 
z
" style="fill:url(#h1ff6825b01);"/>
    </g>
    <g id="text_22">
     <!-- 15% &lt; kde $\leq$ 30% -->
     <g transform="translate(238.734615 170.088782)scale(0.333333 -0.333333)">
      <use transform="translate(0 0.015625)" xlink:href="#DejaVuSans-49"/>
      <use transform="translate(63.623047 0.015625)" xlink:href="#DejaVuSans-53"/>
      <use transform="translate(127.246094 0.015625)" xlink:href="#DejaVuSans-37"/>
      <use transform="translate(222.265625 0.015625)" xlink:href="#DejaVuSans-32"/>
      <use transform="translate(254.052734 0.015625)" xlink:href="#DejaVuSans-60"/>
      <use transform="translate(337.841797 0.015625)" xlink:href="#DejaVuSans-32"/>
      <use transform="translate(369.628906 0.015625)" xlink:href="#DejaVuSans-107"/>
      <use transform="translate(427.539062 0.015625)" xlink:href="#DejaVuSans-100"/>
      <use transform="translate(491.015625 0.015625)" xlink:href="#DejaVuSans-101"/>
      <use transform="translate(552.539062 0.015625)" xlink:href="#DejaVuSans-32"/>
      <use transform="translate(603.808594 0.015625)" xlink:href="#DejaVuSans-8804"/>
      <use transform="translate(707.080078 0.015625)" xlink:href="#DejaVuSans-32"/>
      <use transform="translate(738.867188 0.015625)" xlink:href="#DejaVuSans-51"/>
      <use transform="translate(802.490234 0.015625)" xlink:href="#DejaVuSans-48"/>
      <use transform="translate(866.113281 0.015625)" xlink:href="#DejaVuSans-37"/>
     </g>
    </g>
    <g id="patch_15">
     <path d="M 145.401282 219.015865 
L 212.067948 219.015865 
L 212.067948 195.682532 
L 145.401282 195.682532 
z
" style="fill:url(#h2549859fa2);"/>
    </g>
    <g id="text_23">
     <!-- 30% &lt; kde $\leq$ 45% -->
     <g transform="translate(238.734615 219.015865)scale(0.333333 -0.333333)">
      <use transform="translate(0 0.015625)" xlink:href="#DejaVuSans-51"/>
      <use transform="translate(63.623047 0.015625)" xlink:href="#DejaVuSans-48"/>
      <use transform="translate(127.246094 0.015625)" xlink:href="#DejaVuSans-37"/>
      <use transform="translate(222.265625 0.015625)" xlink:href="#DejaVuSans-32"/>
      <use transform="translate(254.052734 0.015625)" xlink:href="#DejaVuSans-60"/>
      <use transform="translate(337.841797 0.015625)" xlink:href="#DejaVuSans-32"/>
      <use transform="translate(369.628906 0.015625)" xlink:href="#DejaVuSans-107"/>
      <use transform="translate(427.539062 0.015625)" xlink:href="#DejaVuSans-100"/>
      <use transform="translate(491.015625 0.015625)" xlink:href="#DejaVuSans-101"/>
      <use transform="translate(552.539062 0.015625)" xlink:href="#DejaVuSans-32"/>
      <use transform="translate(603.808594 0.015625)" xlink:href="#DejaVuSans-8804"/>
      <use transform="translate(707.080078 0.015625)" xlink:href="#DejaVuSans-32"/>
      <use transform="translate(738.867188 0.015625)" xlink:href="#DejaVuSans-52"/>
      <use transform="translate(802.490234 0.015625)" xlink:href="#DejaVuSans-53"/>
      <use transform="translate(866.113281 0.015625)" xlink:href="#DejaVuSans-37"/>
     </g>
    </g>
    <g id="patch_16">
     <path d="M 145.401282 267.942948 
L 212.067948 267.942948 
L 212.067948 244.609615 
L 145.401282 244.609615 
z
" style="fill:url(#hb019f44dfe);"/>
    </g>
    <g id="text_24">
     <!-- 45% &lt; kde $\leq$ 100% -->
     <g transform="translate(238.734615 267.942948)scale(0.333333 -0.333333)">
      <use transform="translate(0 0.015625)" xlink:href="#DejaVuSans-52"/>
      <use transform="translate(63.623047 0.015625)" xlink:href="#DejaVuSans-53"/>
      <use transform="translate(127.246094 0.015625)" xlink:href="#DejaVuSans-37"/>
      <use transform="translate(222.265625 0.015625)" xlink:href="#DejaVuSans-32"/>
      <use transform="translate(254.052734 0.015625)" xlink:href="#DejaVuSans-60"/>
      <use transform="translate(337.841797 0.015625)" xlink:href="#DejaVuSans-32"/>
      <use transform="translate(369.628906 0.015625)" xlink:href="#DejaVuSans-107"/>
      <use transform="translate(427.539062 0.015625)" xlink:href="#DejaVuSans-100"/>
      <use transform="translate(491.015625 0.015625)" xlink:href="#DejaVuSans-101"/>
      <use transform="translate(552.539062 0.015625)" xlink:href="#DejaVuSans-32"/>
      <use transform="translate(603.808594 0.015625)" xlink:href="#DejaVuSans-8804"/>
      <use transform="translate(707.080078 0.015625)" xlink:href="#DejaVuSans-32"/>
      <use transform="translate(738.867188 0.015625)" xlink:href="#DejaVuSans-49"/>
      <use transform="translate(802.490234 0.015625)" xlink:href="#DejaVuSans-48"/>
      <use transform="translate(866.113281 0.015625)" xlink:href="#DejaVuSans-48"/>
      <use transform="translate(929.736328 0.015625)" xlink:href="#DejaVuSans-37"/>
     </g>
    </g>
   </g>
  </g>
 </g>
 <defs>
  <clipPath id="pa20988f6bb">
   <rect height="961.239103" width="958.098478" x="115.401282" y="6.50024"/>
  </clipPath>
 </defs>
 <defs>
  <pattern height="72" id="h1ff6825b01" patternUnits="userSpaceOnUse" width="72" x="0" y="0">
   <rect fill="none" height="73" width="73" x="0" y="0"/>
   <path d="M -36 36 
L 36 108 
M -24 24 
L 48 96 
M -12 12 
L 60 84 
M 0 0 
L 72 72 
M 12 -12 
L 84 60 
M 24 -24 
L 96 48 
M 36 -36 
L 108 36 
" style="fill:#008000;stroke:#008000;stroke-linecap:butt;stroke-linejoin:miter;stroke-width:1.5;"/>
  </pattern>
  <pattern height="72" id="h2549859fa2" patternUnits="userSpaceOnUse" width="72" x="0" y="0">
   <rect fill="none" height="73" width="73" x="0" y="0"/>
   <path d="M -36 36 
L 36 108 
M -32 32 
L 40 104 
M -28 28 
L 44 100 
M -24 24 
L 48 96 
M -20 20 
L 52 92 
M -16 16 
L 56 88 
M -12 12 
L 60 84 
M -8 8 
L 64 80 
M -4 4 
L 68 76 
M 0 0 
L 72 72 
M 4 -4 
L 76 68 
M 8 -8 
L 80 64 
M 12 -12 
L 84 60 
M 16 -16 
L 88 56 
M 20 -20 
L 92 52 
M 24 -24 
L 96 48 
M 28 -28 
L 100 44 
M 32 -32 
L 104 40 
M 36 -36 
L 108 36 
" style="fill:#008000;stroke:#008000;stroke-linecap:butt;stroke-linejoin:miter;stroke-width:1.5;"/>
  </pattern>
  <pattern height="72" id="hb019f44dfe" patternUnits="userSpaceOnUse" width="72" x="0" y="0">
   <rect fill="none" height="73" width="73" x="0" y="0"/>
   <path d="M -36 36 
L 36 108 
M -35.88 35.88 
L 36.12 107.88 
M -35.76 35.76 
L 36.24 107.76 
M -35.64 35.64 
L 36.36 107.64 
M -35.52 35.52 
L 36.48 107.52 
M -35.4 35.4 
L 36.6 107.4 
M -35.28 35.28 
L 36.72 107.28 
M -35.16 35.16 
L 36.84 107.16 
M -35.04 35.04 
L 36.96 107.04 
M -34.92 34.92 
L 37.08 106.92 
M -34.8 34.8 
L 37.2 106.8 
M -34.68 34.68 
L 37.32 106.68 
M -34.56 34.56 
L 37.44 106.56 
M -34.44 34.44 
L 37.56 106.44 
M -34.32 34.32 
L 37.68 106.32 
M -34.2 34.2 
L 37.8 106.2 
M -34.08 34.08 
L 37.92 106.08 
M -33.96 33.96 
L 38.04 105.96 
M -33.84 33.84 
L 38.16 105.84 
M -33.72 33.72 
L 38.28 105.72 
M -33.6 33.6 
L 38.4 105.6 
M -33.48 33.48 
L 38.52 105.48 
M -33.36 33.36 
L 38.64 105.36 
M -33.24 33.24 
L 38.76 105.24 
M -33.12 33.12 
L 38.88 105.12 
M -33 33 
L 39 105 
M -32.88 32.88 
L 39.12 104.88 
M -32.76 32.76 
L 39.24 104.76 
M -32.64 32.64 
L 39.36 104.64 
M -32.52 32.52 
L 39.48 104.52 
M -32.4 32.4 
L 39.6 104.4 
M -32.28 32.28 
L 39.72 104.28 
M -32.16 32.16 
L 39.84 104.16 
M -32.04 32.04 
L 39.96 104.04 
M -31.92 31.92 
L 40.08 103.92 
M -31.8 31.8 
L 40.2 103.8 
M -31.68 31.68 
L 40.32 103.68 
M -31.56 31.56 
L 40.44 103.56 
M -31.44 31.44 
L 40.56 103.44 
M -31.32 31.32 
L 40.68 103.32 
M -31.2 31.2 
L 40.8 103.2 
M -31.08 31.08 
L 40.92 103.08 
M -30.96 30.96 
L 41.04 102.96 
M -30.84 30.84 
L 41.16 102.84 
M -30.72 30.72 
L 41.28 102.72 
M -30.6 30.6 
L 41.4 102.6 
M -30.48 30.48 
L 41.52 102.48 
M -30.36 30.36 
L 41.64 102.36 
M -30.24 30.24 
L 41.76 102.24 
M -30.12 30.12 
L 41.88 102.12 
M -30 30 
L 42 102 
M -29.88 29.88 
L 42.12 101.88 
M -29.76 29.76 
L 42.24 101.76 
M -29.64 29.64 
L 42.36 101.64 
M -29.52 29.52 
L 42.48 101.52 
M -29.4 29.4 
L 42.6 101.4 
M -29.28 29.28 
L 42.72 101.28 
M -29.16 29.16 
L 42.84 101.16 
M -29.04 29.04 
L 42.96 101.04 
M -28.92 28.92 
L 43.08 100.92 
M -28.8 28.8 
L 43.2 100.8 
M -28.68 28.68 
L 43.32 100.68 
M -28.56 28.56 
L 43.44 100.56 
M -28.44 28.44 
L 43.56 100.44 
M -28.32 28.32 
L 43.68 100.32 
M -28.2 28.2 
L 43.8 100.2 
M -28.08 28.08 
L 43.92 100.08 
M -27.96 27.96 
L 44.04 99.96 
M -27.84 27.84 
L 44.16 99.84 
M -27.72 27.72 
L 44.28 99.72 
M -27.6 27.6 
L 44.4 99.6 
M -27.48 27.48 
L 44.52 99.48 
M -27.36 27.36 
L 44.64 99.36 
M -27.24 27.24 
L 44.76 99.24 
M -27.12 27.12 
L 44.88 99.12 
M -27 27 
L 45 99 
M -26.88 26.88 
L 45.12 98.88 
M -26.76 26.76 
L 45.24 98.76 
M -26.64 26.64 
L 45.36 98.64 
M -26.52 26.52 
L 45.48 98.52 
M -26.4 26.4 
L 45.6 98.4 
M -26.28 26.28 
L 45.72 98.28 
M -26.16 26.16 
L 45.84 98.16 
M -26.04 26.04 
L 45.96 98.04 
M -25.92 25.92 
L 46.08 97.92 
M -25.8 25.8 
L 46.2 97.8 
M -25.68 25.68 
L 46.32 97.68 
M -25.56 25.56 
L 46.44 97.56 
M -25.44 25.44 
L 46.56 97.44 
M -25.32 25.32 
L 46.68 97.32 
M -25.2 25.2 
L 46.8 97.2 
M -25.08 25.08 
L 46.92 97.08 
M -24.96 24.96 
L 47.04 96.96 
M -24.84 24.84 
L 47.16 96.84 
M -24.72 24.72 
L 47.28 96.72 
M -24.6 24.6 
L 47.4 96.6 
M -24.48 24.48 
L 47.52 96.48 
M -24.36 24.36 
L 47.64 96.36 
M -24.24 24.24 
L 47.76 96.24 
M -24.12 24.12 
L 47.88 96.12 
M -24 24 
L 48 96 
M -23.88 23.88 
L 48.12 95.88 
M -23.76 23.76 
L 48.24 95.76 
M -23.64 23.64 
L 48.36 95.64 
M -23.52 23.52 
L 48.48 95.52 
M -23.4 23.4 
L 48.6 95.4 
M -23.28 23.28 
L 48.72 95.28 
M -23.16 23.16 
L 48.84 95.16 
M -23.04 23.04 
L 48.96 95.04 
M -22.92 22.92 
L 49.08 94.92 
M -22.8 22.8 
L 49.2 94.8 
M -22.68 22.68 
L 49.32 94.68 
M -22.56 22.56 
L 49.44 94.56 
M -22.44 22.44 
L 49.56 94.44 
M -22.32 22.32 
L 49.68 94.32 
M -22.2 22.2 
L 49.8 94.2 
M -22.08 22.08 
L 49.92 94.08 
M -21.96 21.96 
L 50.04 93.96 
M -21.84 21.84 
L 50.16 93.84 
M -21.72 21.72 
L 50.28 93.72 
M -21.6 21.6 
L 50.4 93.6 
M -21.48 21.48 
L 50.52 93.48 
M -21.36 21.36 
L 50.64 93.36 
M -21.24 21.24 
L 50.76 93.24 
M -21.12 21.12 
L 50.88 93.12 
M -21 21 
L 51 93 
M -20.88 20.88 
L 51.12 92.88 
M -20.76 20.76 
L 51.24 92.76 
M -20.64 20.64 
L 51.36 92.64 
M -20.52 20.52 
L 51.48 92.52 
M -20.4 20.4 
L 51.6 92.4 
M -20.28 20.28 
L 51.72 92.28 
M -20.16 20.16 
L 51.84 92.16 
M -20.04 20.04 
L 51.96 92.04 
M -19.92 19.92 
L 52.08 91.92 
M -19.8 19.8 
L 52.2 91.8 
M -19.68 19.68 
L 52.32 91.68 
M -19.56 19.56 
L 52.44 91.56 
M -19.44 19.44 
L 52.56 91.44 
M -19.32 19.32 
L 52.68 91.32 
M -19.2 19.2 
L 52.8 91.2 
M -19.08 19.08 
L 52.92 91.08 
M -18.96 18.96 
L 53.04 90.96 
M -18.84 18.84 
L 53.16 90.84 
M -18.72 18.72 
L 53.28 90.72 
M -18.6 18.6 
L 53.4 90.6 
M -18.48 18.48 
L 53.52 90.48 
M -18.36 18.36 
L 53.64 90.36 
M -18.24 18.24 
L 53.76 90.24 
M -18.12 18.12 
L 53.88 90.12 
M -18 18 
L 54 90 
M -17.88 17.88 
L 54.12 89.88 
M -17.76 17.76 
L 54.24 89.76 
M -17.64 17.64 
L 54.36 89.64 
M -17.52 17.52 
L 54.48 89.52 
M -17.4 17.4 
L 54.6 89.4 
M -17.28 17.28 
L 54.72 89.28 
M -17.16 17.16 
L 54.84 89.16 
M -17.04 17.04 
L 54.96 89.04 
M -16.92 16.92 
L 55.08 88.92 
M -16.8 16.8 
L 55.2 88.8 
M -16.68 16.68 
L 55.32 88.68 
M -16.56 16.56 
L 55.44 88.56 
M -16.44 16.44 
L 55.56 88.44 
M -16.32 16.32 
L 55.68 88.32 
M -16.2 16.2 
L 55.8 88.2 
M -16.08 16.08 
L 55.92 88.08 
M -15.96 15.96 
L 56.04 87.96 
M -15.84 15.84 
L 56.16 87.84 
M -15.72 15.72 
L 56.28 87.72 
M -15.6 15.6 
L 56.4 87.6 
M -15.48 15.48 
L 56.52 87.48 
M -15.36 15.36 
L 56.64 87.36 
M -15.24 15.24 
L 56.76 87.24 
M -15.12 15.12 
L 56.88 87.12 
M -15 15 
L 57 87 
M -14.88 14.88 
L 57.12 86.88 
M -14.76 14.76 
L 57.24 86.76 
M -14.64 14.64 
L 57.36 86.64 
M -14.52 14.52 
L 57.48 86.52 
M -14.4 14.4 
L 57.6 86.4 
M -14.28 14.28 
L 57.72 86.28 
M -14.16 14.16 
L 57.84 86.16 
M -14.04 14.04 
L 57.96 86.04 
M -13.92 13.92 
L 58.08 85.92 
M -13.8 13.8 
L 58.2 85.8 
M -13.68 13.68 
L 58.32 85.68 
M -13.56 13.56 
L 58.44 85.56 
M -13.44 13.44 
L 58.56 85.44 
M -13.32 13.32 
L 58.68 85.32 
M -13.2 13.2 
L 58.8 85.2 
M -13.08 13.08 
L 58.92 85.08 
M -12.96 12.96 
L 59.04 84.96 
M -12.84 12.84 
L 59.16 84.84 
M -12.72 12.72 
L 59.28 84.72 
M -12.6 12.6 
L 59.4 84.6 
M -12.48 12.48 
L 59.52 84.48 
M -12.36 12.36 
L 59.64 84.36 
M -12.24 12.24 
L 59.76 84.24 
M -12.12 12.12 
L 59.88 84.12 
M -12 12 
L 60 84 
M -11.88 11.88 
L 60.12 83.88 
M -11.76 11.76 
L 60.24 83.76 
M -11.64 11.64 
L 60.36 83.64 
M -11.52 11.52 
L 60.48 83.52 
M -11.4 11.4 
L 60.6 83.4 
M -11.28 11.28 
L 60.72 83.28 
M -11.16 11.16 
L 60.84 83.16 
M -11.04 11.04 
L 60.96 83.04 
M -10.92 10.92 
L 61.08 82.92 
M -10.8 10.8 
L 61.2 82.8 
M -10.68 10.68 
L 61.32 82.68 
M -10.56 10.56 
L 61.44 82.56 
M -10.44 10.44 
L 61.56 82.44 
M -10.32 10.32 
L 61.68 82.32 
M -10.2 10.2 
L 61.8 82.2 
M -10.08 10.08 
L 61.92 82.08 
M -9.96 9.96 
L 62.04 81.96 
M -9.84 9.84 
L 62.16 81.84 
M -9.72 9.72 
L 62.28 81.72 
M -9.6 9.6 
L 62.4 81.6 
M -9.48 9.48 
L 62.52 81.48 
M -9.36 9.36 
L 62.64 81.36 
M -9.24 9.24 
L 62.76 81.24 
M -9.12 9.12 
L 62.88 81.12 
M -9 9 
L 63 81 
M -8.88 8.88 
L 63.12 80.88 
M -8.76 8.76 
L 63.24 80.76 
M -8.64 8.64 
L 63.36 80.64 
M -8.52 8.52 
L 63.48 80.52 
M -8.4 8.4 
L 63.6 80.4 
M -8.28 8.28 
L 63.72 80.28 
M -8.16 8.16 
L 63.84 80.16 
M -8.04 8.04 
L 63.96 80.04 
M -7.92 7.92 
L 64.08 79.92 
M -7.8 7.8 
L 64.2 79.8 
M -7.68 7.68 
L 64.32 79.68 
M -7.56 7.56 
L 64.44 79.56 
M -7.44 7.44 
L 64.56 79.44 
M -7.32 7.32 
L 64.68 79.32 
M -7.2 7.2 
L 64.8 79.2 
M -7.08 7.08 
L 64.92 79.08 
M -6.96 6.96 
L 65.04 78.96 
M -6.84 6.84 
L 65.16 78.84 
M -6.72 6.72 
L 65.28 78.72 
M -6.6 6.6 
L 65.4 78.6 
M -6.48 6.48 
L 65.52 78.48 
M -6.36 6.36 
L 65.64 78.36 
M -6.24 6.24 
L 65.76 78.24 
M -6.12 6.12 
L 65.88 78.12 
M -6 6 
L 66 78 
M -5.88 5.88 
L 66.12 77.88 
M -5.76 5.76 
L 66.24 77.76 
M -5.64 5.64 
L 66.36 77.64 
M -5.52 5.52 
L 66.48 77.52 
M -5.4 5.4 
L 66.6 77.4 
M -5.28 5.28 
L 66.72 77.28 
M -5.16 5.16 
L 66.84 77.16 
M -5.04 5.04 
L 66.96 77.04 
M -4.92 4.92 
L 67.08 76.92 
M -4.8 4.8 
L 67.2 76.8 
M -4.68 4.68 
L 67.32 76.68 
M -4.56 4.56 
L 67.44 76.56 
M -4.44 4.44 
L 67.56 76.44 
M -4.32 4.32 
L 67.68 76.32 
M -4.2 4.2 
L 67.8 76.2 
M -4.08 4.08 
L 67.92 76.08 
M -3.96 3.96 
L 68.04 75.96 
M -3.84 3.84 
L 68.16 75.84 
M -3.72 3.72 
L 68.28 75.72 
M -3.6 3.6 
L 68.4 75.6 
M -3.48 3.48 
L 68.52 75.48 
M -3.36 3.36 
L 68.64 75.36 
M -3.24 3.24 
L 68.76 75.24 
M -3.12 3.12 
L 68.88 75.12 
M -3 3 
L 69 75 
M -2.88 2.88 
L 69.12 74.88 
M -2.76 2.76 
L 69.24 74.76 
M -2.64 2.64 
L 69.36 74.64 
M -2.52 2.52 
L 69.48 74.52 
M -2.4 2.4 
L 69.6 74.4 
M -2.28 2.28 
L 69.72 74.28 
M -2.16 2.16 
L 69.84 74.16 
M -2.04 2.04 
L 69.96 74.04 
M -1.92 1.92 
L 70.08 73.92 
M -1.8 1.8 
L 70.2 73.8 
M -1.68 1.68 
L 70.32 73.68 
M -1.56 1.56 
L 70.44 73.56 
M -1.44 1.44 
L 70.56 73.44 
M -1.32 1.32 
L 70.68 73.32 
M -1.2 1.2 
L 70.8 73.2 
M -1.08 1.08 
L 70.92 73.08 
M -0.96 0.96 
L 71.04 72.96 
M -0.84 0.84 
L 71.16 72.84 
M -0.72 0.72 
L 71.28 72.72 
M -0.6 0.6 
L 71.4 72.6 
M -0.48 0.48 
L 71.52 72.48 
M -0.36 0.36 
L 71.64 72.36 
M -0.24 0.24 
L 71.76 72.24 
M -0.12 0.12 
L 71.88 72.12 
M 0 0 
L 72 72 
M 0.12 -0.12 
L 72.12 71.88 
M 0.24 -0.24 
L 72.24 71.76 
M 0.36 -0.36 
L 72.36 71.64 
M 0.48 -0.48 
L 72.48 71.52 
M 0.6 -0.6 
L 72.6 71.4 
M 0.72 -0.72 
L 72.72 71.28 
M 0.84 -0.84 
L 72.84 71.16 
M 0.96 -0.96 
L 72.96 71.04 
M 1.08 -1.08 
L 73.08 70.92 
M 1.2 -1.2 
L 73.2 70.8 
M 1.32 -1.32 
L 73.32 70.68 
M 1.44 -1.44 
L 73.44 70.56 
M 1.56 -1.56 
L 73.56 70.44 
M 1.68 -1.68 
L 73.68 70.32 
M 1.8 -1.8 
L 73.8 70.2 
M 1.92 -1.92 
L 73.92 70.08 
M 2.04 -2.04 
L 74.04 69.96 
M 2.16 -2.16 
L 74.16 69.84 
M 2.28 -2.28 
L 74.28 69.72 
M 2.4 -2.4 
L 74.4 69.6 
M 2.52 -2.52 
L 74.52 69.48 
M 2.64 -2.64 
L 74.64 69.36 
M 2.76 -2.76 
L 74.76 69.24 
M 2.88 -2.88 
L 74.88 69.12 
M 3 -3 
L 75 69 
M 3.12 -3.12 
L 75.12 68.88 
M 3.24 -3.24 
L 75.24 68.76 
M 3.36 -3.36 
L 75.36 68.64 
M 3.48 -3.48 
L 75.48 68.52 
M 3.6 -3.6 
L 75.6 68.4 
M 3.72 -3.72 
L 75.72 68.28 
M 3.84 -3.84 
L 75.84 68.16 
M 3.96 -3.96 
L 75.96 68.04 
M 4.08 -4.08 
L 76.08 67.92 
M 4.2 -4.2 
L 76.2 67.8 
M 4.32 -4.32 
L 76.32 67.68 
M 4.44 -4.44 
L 76.44 67.56 
M 4.56 -4.56 
L 76.56 67.44 
M 4.68 -4.68 
L 76.68 67.32 
M 4.8 -4.8 
L 76.8 67.2 
M 4.92 -4.92 
L 76.92 67.08 
M 5.04 -5.04 
L 77.04 66.96 
M 5.16 -5.16 
L 77.16 66.84 
M 5.28 -5.28 
L 77.28 66.72 
M 5.4 -5.4 
L 77.4 66.6 
M 5.52 -5.52 
L 77.52 66.48 
M 5.64 -5.64 
L 77.64 66.36 
M 5.76 -5.76 
L 77.76 66.24 
M 5.88 -5.88 
L 77.88 66.12 
M 6 -6 
L 78 66 
M 6.12 -6.12 
L 78.12 65.88 
M 6.24 -6.24 
L 78.24 65.76 
M 6.36 -6.36 
L 78.36 65.64 
M 6.48 -6.48 
L 78.48 65.52 
M 6.6 -6.6 
L 78.6 65.4 
M 6.72 -6.72 
L 78.72 65.28 
M 6.84 -6.84 
L 78.84 65.16 
M 6.96 -6.96 
L 78.96 65.04 
M 7.08 -7.08 
L 79.08 64.92 
M 7.2 -7.2 
L 79.2 64.8 
M 7.32 -7.32 
L 79.32 64.68 
M 7.44 -7.44 
L 79.44 64.56 
M 7.56 -7.56 
L 79.56 64.44 
M 7.68 -7.68 
L 79.68 64.32 
M 7.8 -7.8 
L 79.8 64.2 
M 7.92 -7.92 
L 79.92 64.08 
M 8.04 -8.04 
L 80.04 63.96 
M 8.16 -8.16 
L 80.16 63.84 
M 8.28 -8.28 
L 80.28 63.72 
M 8.4 -8.4 
L 80.4 63.6 
M 8.52 -8.52 
L 80.52 63.48 
M 8.64 -8.64 
L 80.64 63.36 
M 8.76 -8.76 
L 80.76 63.24 
M 8.88 -8.88 
L 80.88 63.12 
M 9 -9 
L 81 63 
M 9.12 -9.12 
L 81.12 62.88 
M 9.24 -9.24 
L 81.24 62.76 
M 9.36 -9.36 
L 81.36 62.64 
M 9.48 -9.48 
L 81.48 62.52 
M 9.6 -9.6 
L 81.6 62.4 
M 9.72 -9.72 
L 81.72 62.28 
M 9.84 -9.84 
L 81.84 62.16 
M 9.96 -9.96 
L 81.96 62.04 
M 10.08 -10.08 
L 82.08 61.92 
M 10.2 -10.2 
L 82.2 61.8 
M 10.32 -10.32 
L 82.32 61.68 
M 10.44 -10.44 
L 82.44 61.56 
M 10.56 -10.56 
L 82.56 61.44 
M 10.68 -10.68 
L 82.68 61.32 
M 10.8 -10.8 
L 82.8 61.2 
M 10.92 -10.92 
L 82.92 61.08 
M 11.04 -11.04 
L 83.04 60.96 
M 11.16 -11.16 
L 83.16 60.84 
M 11.28 -11.28 
L 83.28 60.72 
M 11.4 -11.4 
L 83.4 60.6 
M 11.52 -11.52 
L 83.52 60.48 
M 11.64 -11.64 
L 83.64 60.36 
M 11.76 -11.76 
L 83.76 60.24 
M 11.88 -11.88 
L 83.88 60.12 
M 12 -12 
L 84 60 
M 12.12 -12.12 
L 84.12 59.88 
M 12.24 -12.24 
L 84.24 59.76 
M 12.36 -12.36 
L 84.36 59.64 
M 12.48 -12.48 
L 84.48 59.52 
M 12.6 -12.6 
L 84.6 59.4 
M 12.72 -12.72 
L 84.72 59.28 
M 12.84 -12.84 
L 84.84 59.16 
M 12.96 -12.96 
L 84.96 59.04 
M 13.08 -13.08 
L 85.08 58.92 
M 13.2 -13.2 
L 85.2 58.8 
M 13.32 -13.32 
L 85.32 58.68 
M 13.44 -13.44 
L 85.44 58.56 
M 13.56 -13.56 
L 85.56 58.44 
M 13.68 -13.68 
L 85.68 58.32 
M 13.8 -13.8 
L 85.8 58.2 
M 13.92 -13.92 
L 85.92 58.08 
M 14.04 -14.04 
L 86.04 57.96 
M 14.16 -14.16 
L 86.16 57.84 
M 14.28 -14.28 
L 86.28 57.72 
M 14.4 -14.4 
L 86.4 57.6 
M 14.52 -14.52 
L 86.52 57.48 
M 14.64 -14.64 
L 86.64 57.36 
M 14.76 -14.76 
L 86.76 57.24 
M 14.88 -14.88 
L 86.88 57.12 
M 15 -15 
L 87 57 
M 15.12 -15.12 
L 87.12 56.88 
M 15.24 -15.24 
L 87.24 56.76 
M 15.36 -15.36 
L 87.36 56.64 
M 15.48 -15.48 
L 87.48 56.52 
M 15.6 -15.6 
L 87.6 56.4 
M 15.72 -15.72 
L 87.72 56.28 
M 15.84 -15.84 
L 87.84 56.16 
M 15.96 -15.96 
L 87.96 56.04 
M 16.08 -16.08 
L 88.08 55.92 
M 16.2 -16.2 
L 88.2 55.8 
M 16.32 -16.32 
L 88.32 55.68 
M 16.44 -16.44 
L 88.44 55.56 
M 16.56 -16.56 
L 88.56 55.44 
M 16.68 -16.68 
L 88.68 55.32 
M 16.8 -16.8 
L 88.8 55.2 
M 16.92 -16.92 
L 88.92 55.08 
M 17.04 -17.04 
L 89.04 54.96 
M 17.16 -17.16 
L 89.16 54.84 
M 17.28 -17.28 
L 89.28 54.72 
M 17.4 -17.4 
L 89.4 54.6 
M 17.52 -17.52 
L 89.52 54.48 
M 17.64 -17.64 
L 89.64 54.36 
M 17.76 -17.76 
L 89.76 54.24 
M 17.88 -17.88 
L 89.88 54.12 
M 18 -18 
L 90 54 
M 18.12 -18.12 
L 90.12 53.88 
M 18.24 -18.24 
L 90.24 53.76 
M 18.36 -18.36 
L 90.36 53.64 
M 18.48 -18.48 
L 90.48 53.52 
M 18.6 -18.6 
L 90.6 53.4 
M 18.72 -18.72 
L 90.72 53.28 
M 18.84 -18.84 
L 90.84 53.16 
M 18.96 -18.96 
L 90.96 53.04 
M 19.08 -19.08 
L 91.08 52.92 
M 19.2 -19.2 
L 91.2 52.8 
M 19.32 -19.32 
L 91.32 52.68 
M 19.44 -19.44 
L 91.44 52.56 
M 19.56 -19.56 
L 91.56 52.44 
M 19.68 -19.68 
L 91.68 52.32 
M 19.8 -19.8 
L 91.8 52.2 
M 19.92 -19.92 
L 91.92 52.08 
M 20.04 -20.04 
L 92.04 51.96 
M 20.16 -20.16 
L 92.16 51.84 
M 20.28 -20.28 
L 92.28 51.72 
M 20.4 -20.4 
L 92.4 51.6 
M 20.52 -20.52 
L 92.52 51.48 
M 20.64 -20.64 
L 92.64 51.36 
M 20.76 -20.76 
L 92.76 51.24 
M 20.88 -20.88 
L 92.88 51.12 
M 21 -21 
L 93 51 
M 21.12 -21.12 
L 93.12 50.88 
M 21.24 -21.24 
L 93.24 50.76 
M 21.36 -21.36 
L 93.36 50.64 
M 21.48 -21.48 
L 93.48 50.52 
M 21.6 -21.6 
L 93.6 50.4 
M 21.72 -21.72 
L 93.72 50.28 
M 21.84 -21.84 
L 93.84 50.16 
M 21.96 -21.96 
L 93.96 50.04 
M 22.08 -22.08 
L 94.08 49.92 
M 22.2 -22.2 
L 94.2 49.8 
M 22.32 -22.32 
L 94.32 49.68 
M 22.44 -22.44 
L 94.44 49.56 
M 22.56 -22.56 
L 94.56 49.44 
M 22.68 -22.68 
L 94.68 49.32 
M 22.8 -22.8 
L 94.8 49.2 
M 22.92 -22.92 
L 94.92 49.08 
M 23.04 -23.04 
L 95.04 48.96 
M 23.16 -23.16 
L 95.16 48.84 
M 23.28 -23.28 
L 95.28 48.72 
M 23.4 -23.4 
L 95.4 48.6 
M 23.52 -23.52 
L 95.52 48.48 
M 23.64 -23.64 
L 95.64 48.36 
M 23.76 -23.76 
L 95.76 48.24 
M 23.88 -23.88 
L 95.88 48.12 
M 24 -24 
L 96 48 
M 24.12 -24.12 
L 96.12 47.88 
M 24.24 -24.24 
L 96.24 47.76 
M 24.36 -24.36 
L 96.36 47.64 
M 24.48 -24.48 
L 96.48 47.52 
M 24.6 -24.6 
L 96.6 47.4 
M 24.72 -24.72 
L 96.72 47.28 
M 24.84 -24.84 
L 96.84 47.16 
M 24.96 -24.96 
L 96.96 47.04 
M 25.08 -25.08 
L 97.08 46.92 
M 25.2 -25.2 
L 97.2 46.8 
M 25.32 -25.32 
L 97.32 46.68 
M 25.44 -25.44 
L 97.44 46.56 
M 25.56 -25.56 
L 97.56 46.44 
M 25.68 -25.68 
L 97.68 46.32 
M 25.8 -25.8 
L 97.8 46.2 
M 25.92 -25.92 
L 97.92 46.08 
M 26.04 -26.04 
L 98.04 45.96 
M 26.16 -26.16 
L 98.16 45.84 
M 26.28 -26.28 
L 98.28 45.72 
M 26.4 -26.4 
L 98.4 45.6 
M 26.52 -26.52 
L 98.52 45.48 
M 26.64 -26.64 
L 98.64 45.36 
M 26.76 -26.76 
L 98.76 45.24 
M 26.88 -26.88 
L 98.88 45.12 
M 27 -27 
L 99 45 
M 27.12 -27.12 
L 99.12 44.88 
M 27.24 -27.24 
L 99.24 44.76 
M 27.36 -27.36 
L 99.36 44.64 
M 27.48 -27.48 
L 99.48 44.52 
M 27.6 -27.6 
L 99.6 44.4 
M 27.72 -27.72 
L 99.72 44.28 
M 27.84 -27.84 
L 99.84 44.16 
M 27.96 -27.96 
L 99.96 44.04 
M 28.08 -28.08 
L 100.08 43.92 
M 28.2 -28.2 
L 100.2 43.8 
M 28.32 -28.32 
L 100.32 43.68 
M 28.44 -28.44 
L 100.44 43.56 
M 28.56 -28.56 
L 100.56 43.44 
M 28.68 -28.68 
L 100.68 43.32 
M 28.8 -28.8 
L 100.8 43.2 
M 28.92 -28.92 
L 100.92 43.08 
M 29.04 -29.04 
L 101.04 42.96 
M 29.16 -29.16 
L 101.16 42.84 
M 29.28 -29.28 
L 101.28 42.72 
M 29.4 -29.4 
L 101.4 42.6 
M 29.52 -29.52 
L 101.52 42.48 
M 29.64 -29.64 
L 101.64 42.36 
M 29.76 -29.76 
L 101.76 42.24 
M 29.88 -29.88 
L 101.88 42.12 
M 30 -30 
L 102 42 
M 30.12 -30.12 
L 102.12 41.88 
M 30.24 -30.24 
L 102.24 41.76 
M 30.36 -30.36 
L 102.36 41.64 
M 30.48 -30.48 
L 102.48 41.52 
M 30.6 -30.6 
L 102.6 41.4 
M 30.72 -30.72 
L 102.72 41.28 
M 30.84 -30.84 
L 102.84 41.16 
M 30.96 -30.96 
L 102.96 41.04 
M 31.08 -31.08 
L 103.08 40.92 
M 31.2 -31.2 
L 103.2 40.8 
M 31.32 -31.32 
L 103.32 40.68 
M 31.44 -31.44 
L 103.44 40.56 
M 31.56 -31.56 
L 103.56 40.44 
M 31.68 -31.68 
L 103.68 40.32 
M 31.8 -31.8 
L 103.8 40.2 
M 31.92 -31.92 
L 103.92 40.08 
M 32.04 -32.04 
L 104.04 39.96 
M 32.16 -32.16 
L 104.16 39.84 
M 32.28 -32.28 
L 104.28 39.72 
M 32.4 -32.4 
L 104.4 39.6 
M 32.52 -32.52 
L 104.52 39.48 
M 32.64 -32.64 
L 104.64 39.36 
M 32.76 -32.76 
L 104.76 39.24 
M 32.88 -32.88 
L 104.88 39.12 
M 33 -33 
L 105 39 
M 33.12 -33.12 
L 105.12 38.88 
M 33.24 -33.24 
L 105.24 38.76 
M 33.36 -33.36 
L 105.36 38.64 
M 33.48 -33.48 
L 105.48 38.52 
M 33.6 -33.6 
L 105.6 38.4 
M 33.72 -33.72 
L 105.72 38.28 
M 33.84 -33.84 
L 105.84 38.16 
M 33.96 -33.96 
L 105.96 38.04 
M 34.08 -34.08 
L 106.08 37.92 
M 34.2 -34.2 
L 106.2 37.8 
M 34.32 -34.32 
L 106.32 37.68 
M 34.44 -34.44 
L 106.44 37.56 
M 34.56 -34.56 
L 106.56 37.44 
M 34.68 -34.68 
L 106.68 37.32 
M 34.8 -34.8 
L 106.8 37.2 
M 34.92 -34.92 
L 106.92 37.08 
M 35.04 -35.04 
L 107.04 36.96 
M 35.16 -35.16 
L 107.16 36.84 
M 35.28 -35.28 
L 107.28 36.72 
M 35.4 -35.4 
L 107.4 36.6 
M 35.52 -35.52 
L 107.52 36.48 
M 35.64 -35.64 
L 107.64 36.36 
M 35.76 -35.76 
L 107.76 36.24 
M 35.88 -35.88 
L 107.88 36.12 
M 36 -36 
L 108 36 
" style="fill:#008000;stroke:#008000;stroke-linecap:butt;stroke-linejoin:miter;stroke-width:1.5;"/>
  </pattern>
 </defs>
</svg>
