<?xml version="1.0" encoding="utf-8" standalone="no"?>
<!DOCTYPE svg PUBLIC "-//W3C//DTD SVG 1.1//EN"
  "http://www.w3.org/Graphics/SVG/1.1/DTD/svg11.dtd">
<!-- Created with matplotlib (http://matplotlib.org/) -->
<svg height="667.490729pt" version="1.1" viewBox="0 0 1080 667.490729" width="1080pt" xmlns="http://www.w3.org/2000/svg" xmlns:xlink="http://www.w3.org/1999/xlink">
 <defs>
  <style type="text/css">
*{stroke-linecap:butt;stroke-linejoin:round;}
  </style>
 </defs>
 <g id="figure_1">
  <g id="patch_1">
   <path d="M 0 667.490729 
L 1080 667.490729 
L 1080 0 
L 0 0 
z
" style="fill:#ffffff;"/>
  </g>
  <g id="axes_1">
   <g id="patch_2">
    <path d="M 135 584.054388 
L 972 584.054388 
L 972 80.098888 
L 135 80.098888 
z
" style="fill:#ffffff;"/>
   </g>
   <g id="PatchCollection_1">
    <path clip-path="url(#p027a9025df)" d="M 168.334724 559.767376 
C 168.334724 558.770707 168.129422 557.783729 167.730568 556.862927 
C 167.331714 555.942125 166.747064 555.105405 166.010078 554.400654 
C 165.273091 553.695902 164.398101 553.136824 163.435182 552.755416 
C 162.472263 552.374007 161.440141 552.177685 160.397885 552.177685 
C 159.355629 552.177685 158.323507 552.374007 157.360588 552.755416 
C 156.397669 553.136824 155.522679 553.695902 154.785692 554.400654 
C 154.048706 555.105405 153.464056 555.942125 153.065202 556.862927 
C 152.666348 557.783729 152.461046 558.770707 152.461046 559.767376 
C 152.461046 560.764045 152.666348 561.751023 153.065202 562.671825 
C 153.464056 563.592627 154.048706 564.429347 154.785692 565.134098 
C 155.522679 565.83885 156.397669 566.397928 157.360588 566.779336 
C 158.323507 567.160745 159.355629 567.357067 160.397885 567.357067 
C 161.440141 567.357067 162.472263 567.160745 163.435182 566.779336 
C 164.398101 566.397928 165.273091 565.83885 166.010078 565.134098 
C 166.747064 564.429347 167.331714 563.592627 167.730568 562.671825 
C 168.129422 561.751023 168.334724 560.764045 168.334724 559.767376 
M 167.54104 559.767376 
C 167.54104 560.664378 167.356269 561.552658 166.9973 562.38138 
C 166.638331 563.210102 166.112146 563.96315 165.448858 564.597426 
C 164.785571 565.231702 163.998079 565.734873 163.131452 566.07814 
C 162.264825 566.421408 161.335916 566.598098 160.397885 566.598098 
C 159.459854 566.598098 158.530945 566.421408 157.664318 566.07814 
C 156.797691 565.734873 156.010199 565.231702 155.346912 564.597426 
C 154.683624 563.96315 154.157439 563.210102 153.79847 562.38138 
C 153.439501 561.552658 153.25473 560.664378 153.25473 559.767376 
C 153.25473 558.870374 153.439501 557.982094 153.79847 557.153372 
C 154.157439 556.32465 154.683624 555.571602 155.346912 554.937326 
C 156.010199 554.30305 156.797691 553.79988 157.664318 553.456612 
C 158.530945 553.113344 159.459854 552.936654 160.397885 552.936654 
C 161.335916 552.936654 162.264825 553.113344 163.131452 553.456612 
C 163.998079 553.79988 164.785571 554.30305 165.448858 554.937326 
C 166.112146 555.571602 166.638331 556.32465 166.9973 557.153372 
C 167.356269 557.982094 167.54104 558.870374 167.54104 559.767376 
M 168.334724 559.767376 
z
" style="stroke:#000000;"/>
    <path clip-path="url(#p027a9025df)" d="M 247.703115 559.767376 
C 247.703115 558.770707 247.497813 557.783729 247.098959 556.862927 
C 246.700105 555.942125 246.115455 555.105405 245.378468 554.400654 
C 244.641482 553.695902 243.766492 553.136824 242.803573 552.755416 
C 241.840653 552.374007 240.808532 552.177685 239.766276 552.177685 
C 238.72402 552.177685 237.691898 552.374007 236.728979 552.755416 
C 235.76606 553.136824 234.891069 553.695902 234.154083 554.400654 
C 233.417097 555.105405 232.832447 555.942125 232.433593 556.862927 
C 232.034738 557.783729 231.829437 558.770707 231.829437 559.767376 
C 231.829437 560.764045 232.034738 561.751023 232.433593 562.671825 
C 232.832447 563.592627 233.417097 564.429347 234.154083 565.134098 
C 234.891069 565.83885 235.76606 566.397928 236.728979 566.779336 
C 237.691898 567.160745 238.72402 567.357067 239.766276 567.357067 
C 240.808532 567.357067 241.840653 567.160745 242.803573 566.779336 
C 243.766492 566.397928 244.641482 565.83885 245.378468 565.134098 
C 246.115455 564.429347 246.700105 563.592627 247.098959 562.671825 
C 247.497813 561.751023 247.703115 560.764045 247.703115 559.767376 
M 246.909431 559.767376 
C 246.909431 560.664378 246.724659 561.552658 246.365691 562.38138 
C 246.006722 563.210102 245.480537 563.96315 244.817249 564.597426 
C 244.153961 565.231702 243.36647 565.734873 242.499843 566.07814 
C 241.633216 566.421408 240.704306 566.598098 239.766276 566.598098 
C 238.828245 566.598098 237.899336 566.421408 237.032709 566.07814 
C 236.166081 565.734873 235.37859 565.231702 234.715302 564.597426 
C 234.052015 563.96315 233.52583 563.210102 233.166861 562.38138 
C 232.807892 561.552658 232.623121 560.664378 232.623121 559.767376 
C 232.623121 558.870374 232.807892 557.982094 233.166861 557.153372 
C 233.52583 556.32465 234.052015 555.571602 234.715302 554.937326 
C 235.37859 554.30305 236.166081 553.79988 237.032709 553.456612 
C 237.899336 553.113344 238.828245 552.936654 239.766276 552.936654 
C 240.704306 552.936654 241.633216 553.113344 242.499843 553.456612 
C 243.36647 553.79988 244.153961 554.30305 244.817249 554.937326 
C 245.480537 555.571602 246.006722 556.32465 246.365691 557.153372 
C 246.724659 557.982094 246.909431 558.870374 246.909431 559.767376 
M 247.703115 559.767376 
z
" style="stroke:#000000;"/>
    <path clip-path="url(#p027a9025df)" d="M 247.703115 483.870463 
C 247.703115 482.873794 247.497813 481.886816 247.098959 480.966014 
C 246.700105 480.045212 246.115455 479.208493 245.378468 478.503741 
C 244.641482 477.79899 243.766492 477.239912 242.803573 476.858503 
C 241.840653 476.477094 240.808532 476.280772 239.766276 476.280772 
C 238.72402 476.280772 237.691898 476.477094 236.728979 476.858503 
C 235.76606 477.239912 234.891069 477.79899 234.154083 478.503741 
C 233.417097 479.208493 232.832447 480.045212 232.433593 480.966014 
C 232.034738 481.886816 231.829437 482.873794 231.829437 483.870463 
C 231.829437 484.867132 232.034738 485.85411 232.433593 486.774912 
C 232.832447 487.695715 233.417097 488.532434 234.154083 489.237185 
C 234.891069 489.941937 235.76606 490.501015 236.728979 490.882424 
C 237.691898 491.263833 238.72402 491.460155 239.766276 491.460155 
C 240.808532 491.460155 241.840653 491.263833 242.803573 490.882424 
C 243.766492 490.501015 244.641482 489.941937 245.378468 489.237185 
C 246.115455 488.532434 246.700105 487.695715 247.098959 486.774912 
C 247.497813 485.85411 247.703115 484.867132 247.703115 483.870463 
M 246.909431 483.870463 
C 246.909431 484.767466 246.724659 485.655746 246.365691 486.484468 
C 246.006722 487.313189 245.480537 488.066237 244.817249 488.700513 
C 244.153961 489.33479 243.36647 489.83796 242.499843 490.181228 
C 241.633216 490.524496 240.704306 490.701185 239.766276 490.701185 
C 238.828245 490.701185 237.899336 490.524496 237.032709 490.181228 
C 236.166081 489.83796 235.37859 489.33479 234.715302 488.700513 
C 234.052015 488.066237 233.52583 487.313189 233.166861 486.484468 
C 232.807892 485.655746 232.623121 484.767466 232.623121 483.870463 
C 232.623121 482.973461 232.807892 482.085181 233.166861 481.256459 
C 233.52583 480.427737 234.052015 479.67469 234.715302 479.040413 
C 235.37859 478.406137 236.166081 477.902967 237.032709 477.559699 
C 237.899336 477.216431 238.828245 477.039741 239.766276 477.039741 
C 240.704306 477.039741 241.633216 477.216431 242.499843 477.559699 
C 243.36647 477.902967 244.153961 478.406137 244.817249 479.040413 
C 245.480537 479.67469 246.006722 480.427737 246.365691 481.256459 
C 246.724659 482.085181 246.909431 482.973461 246.909431 483.870463 
M 247.703115 483.870463 
z
" style="stroke:#000000;"/>
    <path clip-path="url(#p027a9025df)" d="M 327.071506 559.767376 
C 327.071506 558.770707 326.866204 557.783729 326.46735 556.862927 
C 326.068495 555.942125 325.483846 555.105405 324.746859 554.400654 
C 324.009873 553.695902 323.134882 553.136824 322.171963 552.755416 
C 321.209044 552.374007 320.176923 552.177685 319.134666 552.177685 
C 318.09241 552.177685 317.060289 552.374007 316.09737 552.755416 
C 315.13445 553.136824 314.25946 553.695902 313.522474 554.400654 
C 312.785487 555.105405 312.200837 555.942125 311.801983 556.862927 
C 311.403129 557.783729 311.197827 558.770707 311.197827 559.767376 
C 311.197827 560.764045 311.403129 561.751023 311.801983 562.671825 
C 312.200837 563.592627 312.785487 564.429347 313.522474 565.134098 
C 314.25946 565.83885 315.13445 566.397928 316.09737 566.779336 
C 317.060289 567.160745 318.09241 567.357067 319.134666 567.357067 
C 320.176923 567.357067 321.209044 567.160745 322.171963 566.779336 
C 323.134882 566.397928 324.009873 565.83885 324.746859 565.134098 
C 325.483846 564.429347 326.068495 563.592627 326.46735 562.671825 
C 326.866204 561.751023 327.071506 560.764045 327.071506 559.767376 
M 326.277822 559.767376 
C 326.277822 560.664378 326.09305 561.552658 325.734081 562.38138 
C 325.375113 563.210102 324.848928 563.96315 324.18564 564.597426 
C 323.522352 565.231702 322.734861 565.734873 321.868234 566.07814 
C 321.001606 566.421408 320.072697 566.598098 319.134666 566.598098 
C 318.196636 566.598098 317.267727 566.421408 316.401099 566.07814 
C 315.534472 565.734873 314.746981 565.231702 314.083693 564.597426 
C 313.420405 563.96315 312.89422 563.210102 312.535252 562.38138 
C 312.176283 561.552658 311.991511 560.664378 311.991511 559.767376 
C 311.991511 558.870374 312.176283 557.982094 312.535252 557.153372 
C 312.89422 556.32465 313.420405 555.571602 314.083693 554.937326 
C 314.746981 554.30305 315.534472 553.79988 316.401099 553.456612 
C 317.267727 553.113344 318.196636 552.936654 319.134666 552.936654 
C 320.072697 552.936654 321.001606 553.113344 321.868234 553.456612 
C 322.734861 553.79988 323.522352 554.30305 324.18564 554.937326 
C 324.848928 555.571602 325.375113 556.32465 325.734081 557.153372 
C 326.09305 557.982094 326.277822 558.870374 326.277822 559.767376 
M 327.071506 559.767376 
z
" style="stroke:#000000;"/>
    <path clip-path="url(#p027a9025df)" d="M 327.071506 483.870463 
C 327.071506 482.873794 326.866204 481.886816 326.46735 480.966014 
C 326.068495 480.045212 325.483846 479.208493 324.746859 478.503741 
C 324.009873 477.79899 323.134882 477.239912 322.171963 476.858503 
C 321.209044 476.477094 320.176923 476.280772 319.134666 476.280772 
C 318.09241 476.280772 317.060289 476.477094 316.09737 476.858503 
C 315.13445 477.239912 314.25946 477.79899 313.522474 478.503741 
C 312.785487 479.208493 312.200837 480.045212 311.801983 480.966014 
C 311.403129 481.886816 311.197827 482.873794 311.197827 483.870463 
C 311.197827 484.867132 311.403129 485.85411 311.801983 486.774912 
C 312.200837 487.695715 312.785487 488.532434 313.522474 489.237185 
C 314.25946 489.941937 315.13445 490.501015 316.09737 490.882424 
C 317.060289 491.263833 318.09241 491.460155 319.134666 491.460155 
C 320.176923 491.460155 321.209044 491.263833 322.171963 490.882424 
C 323.134882 490.501015 324.009873 489.941937 324.746859 489.237185 
C 325.483846 488.532434 326.068495 487.695715 326.46735 486.774912 
C 326.866204 485.85411 327.071506 484.867132 327.071506 483.870463 
M 326.277822 483.870463 
C 326.277822 484.767466 326.09305 485.655746 325.734081 486.484468 
C 325.375113 487.313189 324.848928 488.066237 324.18564 488.700513 
C 323.522352 489.33479 322.734861 489.83796 321.868234 490.181228 
C 321.001606 490.524496 320.072697 490.701185 319.134666 490.701185 
C 318.196636 490.701185 317.267727 490.524496 316.401099 490.181228 
C 315.534472 489.83796 314.746981 489.33479 314.083693 488.700513 
C 313.420405 488.066237 312.89422 487.313189 312.535252 486.484468 
C 312.176283 485.655746 311.991511 484.767466 311.991511 483.870463 
C 311.991511 482.973461 312.176283 482.085181 312.535252 481.256459 
C 312.89422 480.427737 313.420405 479.67469 314.083693 479.040413 
C 314.746981 478.406137 315.534472 477.902967 316.401099 477.559699 
C 317.267727 477.216431 318.196636 477.039741 319.134666 477.039741 
C 320.072697 477.039741 321.001606 477.216431 321.868234 477.559699 
C 322.734861 477.902967 323.522352 478.406137 324.18564 479.040413 
C 324.848928 479.67469 325.375113 480.427737 325.734081 481.256459 
C 326.09305 482.085181 326.277822 482.973461 326.277822 483.870463 
M 327.071506 483.870463 
z
" style="stroke:#000000;"/>
    <path clip-path="url(#p027a9025df)" d="M 327.071506 407.973551 
C 327.071506 406.976881 326.866204 405.989904 326.46735 405.069101 
C 326.068495 404.148299 325.483846 403.31158 324.746859 402.606828 
C 324.009873 401.902077 323.134882 401.342999 322.171963 400.96159 
C 321.209044 400.580181 320.176923 400.383859 319.134666 400.383859 
C 318.09241 400.383859 317.060289 400.580181 316.09737 400.96159 
C 315.13445 401.342999 314.25946 401.902077 313.522474 402.606828 
C 312.785487 403.31158 312.200837 404.148299 311.801983 405.069101 
C 311.403129 405.989904 311.197827 406.976881 311.197827 407.973551 
C 311.197827 408.97022 311.403129 409.957197 311.801983 410.878 
C 312.200837 411.798802 312.785487 412.635521 313.522474 413.340273 
C 314.25946 414.045024 315.13445 414.604102 316.09737 414.985511 
C 317.060289 415.36692 318.09241 415.563242 319.134666 415.563242 
C 320.176923 415.563242 321.209044 415.36692 322.171963 414.985511 
C 323.134882 414.604102 324.009873 414.045024 324.746859 413.340273 
C 325.483846 412.635521 326.068495 411.798802 326.46735 410.878 
C 326.866204 409.957197 327.071506 408.97022 327.071506 407.973551 
M 326.277822 407.973551 
C 326.277822 408.870553 326.09305 409.758833 325.734081 410.587555 
C 325.375113 411.416277 324.848928 412.169324 324.18564 412.803601 
C 323.522352 413.437877 322.734861 413.941047 321.868234 414.284315 
C 321.001606 414.627583 320.072697 414.804273 319.134666 414.804273 
C 318.196636 414.804273 317.267727 414.627583 316.401099 414.284315 
C 315.534472 413.941047 314.746981 413.437877 314.083693 412.803601 
C 313.420405 412.169324 312.89422 411.416277 312.535252 410.587555 
C 312.176283 409.758833 311.991511 408.870553 311.991511 407.973551 
C 311.991511 407.076548 312.176283 406.188268 312.535252 405.359546 
C 312.89422 404.530824 313.420405 403.777777 314.083693 403.143501 
C 314.746981 402.509224 315.534472 402.006054 316.401099 401.662786 
C 317.267727 401.319518 318.196636 401.142828 319.134666 401.142828 
C 320.072697 401.142828 321.001606 401.319518 321.868234 401.662786 
C 322.734861 402.006054 323.522352 402.509224 324.18564 403.143501 
C 324.848928 403.777777 325.375113 404.530824 325.734081 405.359546 
C 326.09305 406.188268 326.277822 407.076548 326.277822 407.973551 
M 327.071506 407.973551 
z
" style="stroke:#000000;"/>
    <path clip-path="url(#p027a9025df)" d="M 406.439896 559.767376 
C 406.439896 558.770707 406.234594 557.783729 405.83574 556.862927 
C 405.436886 555.942125 404.852236 555.105405 404.11525 554.400654 
C 403.378263 553.695902 402.503273 553.136824 401.540354 552.755416 
C 400.577435 552.374007 399.545313 552.177685 398.503057 552.177685 
C 397.460801 552.177685 396.428679 552.374007 395.46576 552.755416 
C 394.502841 553.136824 393.627851 553.695902 392.890864 554.400654 
C 392.153878 555.105405 391.569228 555.942125 391.170374 556.862927 
C 390.77152 557.783729 390.566218 558.770707 390.566218 559.767376 
C 390.566218 560.764045 390.77152 561.751023 391.170374 562.671825 
C 391.569228 563.592627 392.153878 564.429347 392.890864 565.134098 
C 393.627851 565.83885 394.502841 566.397928 395.46576 566.779336 
C 396.428679 567.160745 397.460801 567.357067 398.503057 567.357067 
C 399.545313 567.357067 400.577435 567.160745 401.540354 566.779336 
C 402.503273 566.397928 403.378263 565.83885 404.11525 565.134098 
C 404.852236 564.429347 405.436886 563.592627 405.83574 562.671825 
C 406.234594 561.751023 406.439896 560.764045 406.439896 559.767376 
M 405.646212 559.767376 
C 405.646212 560.664378 405.461441 561.552658 405.102472 562.38138 
C 404.743503 563.210102 404.217318 563.96315 403.554031 564.597426 
C 402.890743 565.231702 402.103252 565.734873 401.236624 566.07814 
C 400.369997 566.421408 399.441088 566.598098 398.503057 566.598098 
C 397.565027 566.598098 396.636117 566.421408 395.76949 566.07814 
C 394.902863 565.734873 394.115371 565.231702 393.452084 564.597426 
C 392.788796 563.96315 392.262611 563.210102 391.903642 562.38138 
C 391.544674 561.552658 391.359902 560.664378 391.359902 559.767376 
C 391.359902 558.870374 391.544674 557.982094 391.903642 557.153372 
C 392.262611 556.32465 392.788796 555.571602 393.452084 554.937326 
C 394.115371 554.30305 394.902863 553.79988 395.76949 553.456612 
C 396.636117 553.113344 397.565027 552.936654 398.503057 552.936654 
C 399.441088 552.936654 400.369997 553.113344 401.236624 553.456612 
C 402.103252 553.79988 402.890743 554.30305 403.554031 554.937326 
C 404.217318 555.571602 404.743503 556.32465 405.102472 557.153372 
C 405.461441 557.982094 405.646212 558.870374 405.646212 559.767376 
M 406.439896 559.767376 
z
" style="stroke:#000000;"/>
    <path clip-path="url(#p027a9025df)" d="M 406.439896 483.870463 
C 406.439896 482.873794 406.234594 481.886816 405.83574 480.966014 
C 405.436886 480.045212 404.852236 479.208493 404.11525 478.503741 
C 403.378263 477.79899 402.503273 477.239912 401.540354 476.858503 
C 400.577435 476.477094 399.545313 476.280772 398.503057 476.280772 
C 397.460801 476.280772 396.428679 476.477094 395.46576 476.858503 
C 394.502841 477.239912 393.627851 477.79899 392.890864 478.503741 
C 392.153878 479.208493 391.569228 480.045212 391.170374 480.966014 
C 390.77152 481.886816 390.566218 482.873794 390.566218 483.870463 
C 390.566218 484.867132 390.77152 485.85411 391.170374 486.774912 
C 391.569228 487.695715 392.153878 488.532434 392.890864 489.237185 
C 393.627851 489.941937 394.502841 490.501015 395.46576 490.882424 
C 396.428679 491.263833 397.460801 491.460155 398.503057 491.460155 
C 399.545313 491.460155 400.577435 491.263833 401.540354 490.882424 
C 402.503273 490.501015 403.378263 489.941937 404.11525 489.237185 
C 404.852236 488.532434 405.436886 487.695715 405.83574 486.774912 
C 406.234594 485.85411 406.439896 484.867132 406.439896 483.870463 
M 405.646212 483.870463 
C 405.646212 484.767466 405.461441 485.655746 405.102472 486.484468 
C 404.743503 487.313189 404.217318 488.066237 403.554031 488.700513 
C 402.890743 489.33479 402.103252 489.83796 401.236624 490.181228 
C 400.369997 490.524496 399.441088 490.701185 398.503057 490.701185 
C 397.565027 490.701185 396.636117 490.524496 395.76949 490.181228 
C 394.902863 489.83796 394.115371 489.33479 393.452084 488.700513 
C 392.788796 488.066237 392.262611 487.313189 391.903642 486.484468 
C 391.544674 485.655746 391.359902 484.767466 391.359902 483.870463 
C 391.359902 482.973461 391.544674 482.085181 391.903642 481.256459 
C 392.262611 480.427737 392.788796 479.67469 393.452084 479.040413 
C 394.115371 478.406137 394.902863 477.902967 395.76949 477.559699 
C 396.636117 477.216431 397.565027 477.039741 398.503057 477.039741 
C 399.441088 477.039741 400.369997 477.216431 401.236624 477.559699 
C 402.103252 477.902967 402.890743 478.406137 403.554031 479.040413 
C 404.217318 479.67469 404.743503 480.427737 405.102472 481.256459 
C 405.461441 482.085181 405.646212 482.973461 405.646212 483.870463 
M 406.439896 483.870463 
z
" style="stroke:#000000;"/>
    <path clip-path="url(#p027a9025df)" d="M 406.439896 407.973551 
C 406.439896 406.976881 406.234594 405.989904 405.83574 405.069101 
C 405.436886 404.148299 404.852236 403.31158 404.11525 402.606828 
C 403.378263 401.902077 402.503273 401.342999 401.540354 400.96159 
C 400.577435 400.580181 399.545313 400.383859 398.503057 400.383859 
C 397.460801 400.383859 396.428679 400.580181 395.46576 400.96159 
C 394.502841 401.342999 393.627851 401.902077 392.890864 402.606828 
C 392.153878 403.31158 391.569228 404.148299 391.170374 405.069101 
C 390.77152 405.989904 390.566218 406.976881 390.566218 407.973551 
C 390.566218 408.97022 390.77152 409.957197 391.170374 410.878 
C 391.569228 411.798802 392.153878 412.635521 392.890864 413.340273 
C 393.627851 414.045024 394.502841 414.604102 395.46576 414.985511 
C 396.428679 415.36692 397.460801 415.563242 398.503057 415.563242 
C 399.545313 415.563242 400.577435 415.36692 401.540354 414.985511 
C 402.503273 414.604102 403.378263 414.045024 404.11525 413.340273 
C 404.852236 412.635521 405.436886 411.798802 405.83574 410.878 
C 406.234594 409.957197 406.439896 408.97022 406.439896 407.973551 
M 405.646212 407.973551 
C 405.646212 408.870553 405.461441 409.758833 405.102472 410.587555 
C 404.743503 411.416277 404.217318 412.169324 403.554031 412.803601 
C 402.890743 413.437877 402.103252 413.941047 401.236624 414.284315 
C 400.369997 414.627583 399.441088 414.804273 398.503057 414.804273 
C 397.565027 414.804273 396.636117 414.627583 395.76949 414.284315 
C 394.902863 413.941047 394.115371 413.437877 393.452084 412.803601 
C 392.788796 412.169324 392.262611 411.416277 391.903642 410.587555 
C 391.544674 409.758833 391.359902 408.870553 391.359902 407.973551 
C 391.359902 407.076548 391.544674 406.188268 391.903642 405.359546 
C 392.262611 404.530824 392.788796 403.777777 393.452084 403.143501 
C 394.115371 402.509224 394.902863 402.006054 395.76949 401.662786 
C 396.636117 401.319518 397.565027 401.142828 398.503057 401.142828 
C 399.441088 401.142828 400.369997 401.319518 401.236624 401.662786 
C 402.103252 402.006054 402.890743 402.509224 403.554031 403.143501 
C 404.217318 403.777777 404.743503 404.530824 405.102472 405.359546 
C 405.461441 406.188268 405.646212 407.076548 405.646212 407.973551 
M 406.439896 407.973551 
z
" style="stroke:#000000;"/>
    <path clip-path="url(#p027a9025df)" d="M 406.439896 332.076638 
C 406.439896 331.079969 406.234594 330.092991 405.83574 329.172189 
C 405.436886 328.251387 404.852236 327.414667 404.11525 326.709916 
C 403.378263 326.005164 402.503273 325.446086 401.540354 325.064677 
C 400.577435 324.683269 399.545313 324.486947 398.503057 324.486947 
C 397.460801 324.486947 396.428679 324.683269 395.46576 325.064677 
C 394.502841 325.446086 393.627851 326.005164 392.890864 326.709916 
C 392.153878 327.414667 391.569228 328.251387 391.170374 329.172189 
C 390.77152 330.092991 390.566218 331.079969 390.566218 332.076638 
C 390.566218 333.073307 390.77152 334.060285 391.170374 334.981087 
C 391.569228 335.901889 392.153878 336.738608 392.890864 337.44336 
C 393.627851 338.148111 394.502841 338.707189 395.46576 339.088598 
C 396.428679 339.470007 397.460801 339.666329 398.503057 339.666329 
C 399.545313 339.666329 400.577435 339.470007 401.540354 339.088598 
C 402.503273 338.707189 403.378263 338.148111 404.11525 337.44336 
C 404.852236 336.738608 405.436886 335.901889 405.83574 334.981087 
C 406.234594 334.060285 406.439896 333.073307 406.439896 332.076638 
M 405.646212 332.076638 
C 405.646212 332.97364 405.461441 333.86192 405.102472 334.690642 
C 404.743503 335.519364 404.217318 336.272411 403.554031 336.906688 
C 402.890743 337.540964 402.103252 338.044134 401.236624 338.387402 
C 400.369997 338.73067 399.441088 338.90736 398.503057 338.90736 
C 397.565027 338.90736 396.636117 338.73067 395.76949 338.387402 
C 394.902863 338.044134 394.115371 337.540964 393.452084 336.906688 
C 392.788796 336.272411 392.262611 335.519364 391.903642 334.690642 
C 391.544674 333.86192 391.359902 332.97364 391.359902 332.076638 
C 391.359902 331.179636 391.544674 330.291356 391.903642 329.462634 
C 392.262611 328.633912 392.788796 327.880864 393.452084 327.246588 
C 394.115371 326.612312 394.902863 326.109141 395.76949 325.765873 
C 396.636117 325.422606 397.565027 325.245916 398.503057 325.245916 
C 399.441088 325.245916 400.369997 325.422606 401.236624 325.765873 
C 402.103252 326.109141 402.890743 326.612312 403.554031 327.246588 
C 404.217318 327.880864 404.743503 328.633912 405.102472 329.462634 
C 405.461441 330.291356 405.646212 331.179636 405.646212 332.076638 
M 406.439896 332.076638 
z
" style="stroke:#000000;"/>
   </g>
   <g id="PatchCollection_2"/>
   <g id="patch_3">
    <path clip-path="url(#p027a9025df)" d="M 232.815701 490.517029 
L 231.132043 495.347079 
L 229.476446 493.763896 
L 168.362785 552.204518 
L 168.306663 552.150851 
L 229.420324 493.710228 
L 227.764727 492.127045 
z
" style="stroke:#000000;stroke-linejoin:miter;"/>
   </g>
   <g id="patch_4">
    <path clip-path="url(#p027a9025df)" d="M 231.829437 559.767376 
L 231.829437 559.767376 
L 231.829437 559.805325 
L 168.334724 559.805325 
L 168.334724 559.729428 
L 231.829437 559.729428 
L 231.829437 559.767376 
z
" style="fill:#1f77b4;stroke:#ff0000;stroke-linejoin:miter;"/>
   </g>
   <g id="patch_5">
    <path clip-path="url(#p027a9025df)" d="M 312.184091 490.517029 
L 310.500433 495.347079 
L 308.844837 493.763896 
L 247.731176 552.204518 
L 247.675054 552.150851 
L 308.788715 493.710228 
L 307.133118 492.127045 
z
" style="stroke:#000000;stroke-linejoin:miter;"/>
   </g>
   <g id="patch_6">
    <path clip-path="url(#p027a9025df)" d="M 311.197827 559.767376 
L 311.197827 559.767376 
L 311.197827 559.805325 
L 247.703115 559.805325 
L 247.703115 559.729428 
L 311.197827 559.729428 
L 311.197827 559.767376 
z
" style="fill:#1f77b4;stroke:#ff0000;stroke-linejoin:miter;"/>
   </g>
   <g id="patch_7">
    <path clip-path="url(#p027a9025df)" d="M 312.184091 414.620116 
L 310.500433 419.450166 
L 308.844837 417.866983 
L 247.731176 476.307606 
L 247.675054 476.253938 
L 308.788715 417.813316 
L 307.133118 416.230133 
z
" style="stroke:#000000;stroke-linejoin:miter;"/>
   </g>
   <g id="patch_8">
    <path clip-path="url(#p027a9025df)" d="M 311.197827 559.767376 
L 311.197827 559.767376 
L 311.168167 559.792588 
L 247.673454 491.485366 
L 247.732775 491.434943 
L 311.227488 559.742164 
L 311.197827 559.767376 
z
" style="fill:#1f77b4;stroke:#ff0000;stroke-linejoin:miter;"/>
   </g>
   <g id="patch_9">
    <path clip-path="url(#p027a9025df)" d="M 391.552482 490.517029 
L 389.868824 495.347079 
L 388.213227 493.763896 
L 327.099566 552.204518 
L 327.043445 552.150851 
L 388.157105 493.710228 
L 386.501509 492.127045 
z
" style="stroke:#000000;stroke-linejoin:miter;"/>
   </g>
   <g id="patch_10">
    <path clip-path="url(#p027a9025df)" d="M 390.566218 559.767376 
L 390.566218 559.767376 
L 390.566218 559.805325 
L 327.071506 559.805325 
L 327.071506 559.729428 
L 390.566218 559.729428 
L 390.566218 559.767376 
z
" style="fill:#1f77b4;stroke:#ff0000;stroke-linejoin:miter;"/>
   </g>
   <g id="patch_11">
    <path clip-path="url(#p027a9025df)" d="M 391.552482 414.620116 
L 389.868824 419.450166 
L 388.213227 417.866983 
L 327.099566 476.307606 
L 327.043445 476.253938 
L 388.157105 417.813316 
L 386.501509 416.230133 
z
" style="stroke:#000000;stroke-linejoin:miter;"/>
   </g>
   <g id="patch_12">
    <path clip-path="url(#p027a9025df)" d="M 390.566218 559.767376 
L 390.566218 559.767376 
L 390.536558 559.792588 
L 327.041845 491.485366 
L 327.101166 491.434943 
L 390.595878 559.742164 
L 390.566218 559.767376 
z
" style="fill:#1f77b4;stroke:#ff0000;stroke-linejoin:miter;"/>
   </g>
   <g id="patch_13">
    <path clip-path="url(#p027a9025df)" d="M 391.552482 338.723203 
L 389.868824 343.553253 
L 388.213227 341.97007 
L 327.099566 400.410693 
L 327.043445 400.357026 
L 388.157105 341.916403 
L 386.501509 340.33322 
z
" style="stroke:#000000;stroke-linejoin:miter;"/>
   </g>
   <g id="patch_14">
    <path clip-path="url(#p027a9025df)" d="M 390.566218 559.767376 
L 390.566218 559.767376 
L 390.529644 559.782102 
L 327.034931 415.577968 
L 327.10808 415.548516 
L 390.602792 559.75265 
L 390.566218 559.767376 
z
" style="fill:#1f77b4;stroke:#ff0000;stroke-linejoin:miter;"/>
   </g>
   <g id="matplotlib.axis_1">
    <g id="xtick_1">
     <g id="line2d_1">
      <defs>
       <path d="M 0 0 
L 0 3.5 
" id="m0fd384ad91" style="stroke:#000000;stroke-width:0.8;"/>
      </defs>
      <g>
       <use style="stroke:#000000;stroke-width:0.8;" x="160.397885" xlink:href="#m0fd384ad91" y="584.054388"/>
      </g>
     </g>
     <g id="text_1">
      <!-- 0 -->
      <defs>
       <path d="M 31.78125 66.40625 
Q 24.171875 66.40625 20.328125 58.90625 
Q 16.5 51.421875 16.5 36.375 
Q 16.5 21.390625 20.328125 13.890625 
Q 24.171875 6.390625 31.78125 6.390625 
Q 39.453125 6.390625 43.28125 13.890625 
Q 47.125 21.390625 47.125 36.375 
Q 47.125 51.421875 43.28125 58.90625 
Q 39.453125 66.40625 31.78125 66.40625 
z
M 31.78125 74.21875 
Q 44.046875 74.21875 50.515625 64.515625 
Q 56.984375 54.828125 56.984375 36.375 
Q 56.984375 17.96875 50.515625 8.265625 
Q 44.046875 -1.421875 31.78125 -1.421875 
Q 19.53125 -1.421875 13.0625 8.265625 
Q 6.59375 17.96875 6.59375 36.375 
Q 6.59375 54.828125 13.0625 64.515625 
Q 19.53125 74.21875 31.78125 74.21875 
z
" id="DejaVuSans-30"/>
      </defs>
      <g transform="translate(157.216635 598.652826)scale(0.1 -0.1)">
       <use xlink:href="#DejaVuSans-30"/>
      </g>
     </g>
    </g>
    <g id="xtick_2">
     <g id="line2d_2">
      <g>
       <use style="stroke:#000000;stroke-width:0.8;" x="239.766276" xlink:href="#m0fd384ad91" y="584.054388"/>
      </g>
     </g>
     <g id="text_2">
      <!-- 1 -->
      <defs>
       <path d="M 12.40625 8.296875 
L 28.515625 8.296875 
L 28.515625 63.921875 
L 10.984375 60.40625 
L 10.984375 69.390625 
L 28.421875 72.90625 
L 38.28125 72.90625 
L 38.28125 8.296875 
L 54.390625 8.296875 
L 54.390625 0 
L 12.40625 0 
z
" id="DejaVuSans-31"/>
      </defs>
      <g transform="translate(236.585026 598.652826)scale(0.1 -0.1)">
       <use xlink:href="#DejaVuSans-31"/>
      </g>
     </g>
    </g>
    <g id="xtick_3">
     <g id="line2d_3">
      <g>
       <use style="stroke:#000000;stroke-width:0.8;" x="319.134666" xlink:href="#m0fd384ad91" y="584.054388"/>
      </g>
     </g>
     <g id="text_3">
      <!-- 2 -->
      <defs>
       <path d="M 19.1875 8.296875 
L 53.609375 8.296875 
L 53.609375 0 
L 7.328125 0 
L 7.328125 8.296875 
Q 12.9375 14.109375 22.625 23.890625 
Q 32.328125 33.6875 34.8125 36.53125 
Q 39.546875 41.84375 41.421875 45.53125 
Q 43.3125 49.21875 43.3125 52.78125 
Q 43.3125 58.59375 39.234375 62.25 
Q 35.15625 65.921875 28.609375 65.921875 
Q 23.96875 65.921875 18.8125 64.3125 
Q 13.671875 62.703125 7.8125 59.421875 
L 7.8125 69.390625 
Q 13.765625 71.78125 18.9375 73 
Q 24.125 74.21875 28.421875 74.21875 
Q 39.75 74.21875 46.484375 68.546875 
Q 53.21875 62.890625 53.21875 53.421875 
Q 53.21875 48.921875 51.53125 44.890625 
Q 49.859375 40.875 45.40625 35.40625 
Q 44.1875 33.984375 37.640625 27.21875 
Q 31.109375 20.453125 19.1875 8.296875 
z
" id="DejaVuSans-32"/>
      </defs>
      <g transform="translate(315.953416 598.652826)scale(0.1 -0.1)">
       <use xlink:href="#DejaVuSans-32"/>
      </g>
     </g>
    </g>
    <g id="xtick_4">
     <g id="line2d_4">
      <g>
       <use style="stroke:#000000;stroke-width:0.8;" x="398.503057" xlink:href="#m0fd384ad91" y="584.054388"/>
      </g>
     </g>
     <g id="text_4">
      <!-- 3 -->
      <defs>
       <path d="M 40.578125 39.3125 
Q 47.65625 37.796875 51.625 33 
Q 55.609375 28.21875 55.609375 21.1875 
Q 55.609375 10.40625 48.1875 4.484375 
Q 40.765625 -1.421875 27.09375 -1.421875 
Q 22.515625 -1.421875 17.65625 -0.515625 
Q 12.796875 0.390625 7.625 2.203125 
L 7.625 11.71875 
Q 11.71875 9.328125 16.59375 8.109375 
Q 21.484375 6.890625 26.8125 6.890625 
Q 36.078125 6.890625 40.9375 10.546875 
Q 45.796875 14.203125 45.796875 21.1875 
Q 45.796875 27.640625 41.28125 31.265625 
Q 36.765625 34.90625 28.71875 34.90625 
L 20.21875 34.90625 
L 20.21875 43.015625 
L 29.109375 43.015625 
Q 36.375 43.015625 40.234375 45.921875 
Q 44.09375 48.828125 44.09375 54.296875 
Q 44.09375 59.90625 40.109375 62.90625 
Q 36.140625 65.921875 28.71875 65.921875 
Q 24.65625 65.921875 20.015625 65.03125 
Q 15.375 64.15625 9.8125 62.3125 
L 9.8125 71.09375 
Q 15.4375 72.65625 20.34375 73.4375 
Q 25.25 74.21875 29.59375 74.21875 
Q 40.828125 74.21875 47.359375 69.109375 
Q 53.90625 64.015625 53.90625 55.328125 
Q 53.90625 49.265625 50.4375 45.09375 
Q 46.96875 40.921875 40.578125 39.3125 
z
" id="DejaVuSans-33"/>
      </defs>
      <g transform="translate(395.321807 598.652826)scale(0.1 -0.1)">
       <use xlink:href="#DejaVuSans-33"/>
      </g>
     </g>
    </g>
    <g id="xtick_5">
     <g id="line2d_5">
      <g>
       <use style="stroke:#000000;stroke-width:0.8;" x="477.871448" xlink:href="#m0fd384ad91" y="584.054388"/>
      </g>
     </g>
     <g id="text_5">
      <!-- 4 -->
      <defs>
       <path d="M 37.796875 64.3125 
L 12.890625 25.390625 
L 37.796875 25.390625 
z
M 35.203125 72.90625 
L 47.609375 72.90625 
L 47.609375 25.390625 
L 58.015625 25.390625 
L 58.015625 17.1875 
L 47.609375 17.1875 
L 47.609375 0 
L 37.796875 0 
L 37.796875 17.1875 
L 4.890625 17.1875 
L 4.890625 26.703125 
z
" id="DejaVuSans-34"/>
      </defs>
      <g transform="translate(474.690198 598.652826)scale(0.1 -0.1)">
       <use xlink:href="#DejaVuSans-34"/>
      </g>
     </g>
    </g>
    <g id="xtick_6">
     <g id="line2d_6">
      <g>
       <use style="stroke:#000000;stroke-width:0.8;" x="557.239839" xlink:href="#m0fd384ad91" y="584.054388"/>
      </g>
     </g>
     <g id="text_6">
      <!-- 5 -->
      <defs>
       <path d="M 10.796875 72.90625 
L 49.515625 72.90625 
L 49.515625 64.59375 
L 19.828125 64.59375 
L 19.828125 46.734375 
Q 21.96875 47.46875 24.109375 47.828125 
Q 26.265625 48.1875 28.421875 48.1875 
Q 40.625 48.1875 47.75 41.5 
Q 54.890625 34.8125 54.890625 23.390625 
Q 54.890625 11.625 47.5625 5.09375 
Q 40.234375 -1.421875 26.90625 -1.421875 
Q 22.3125 -1.421875 17.546875 -0.640625 
Q 12.796875 0.140625 7.71875 1.703125 
L 7.71875 11.625 
Q 12.109375 9.234375 16.796875 8.0625 
Q 21.484375 6.890625 26.703125 6.890625 
Q 35.15625 6.890625 40.078125 11.328125 
Q 45.015625 15.765625 45.015625 23.390625 
Q 45.015625 31 40.078125 35.4375 
Q 35.15625 39.890625 26.703125 39.890625 
Q 22.75 39.890625 18.8125 39.015625 
Q 14.890625 38.140625 10.796875 36.28125 
z
" id="DejaVuSans-35"/>
      </defs>
      <g transform="translate(554.058589 598.652826)scale(0.1 -0.1)">
       <use xlink:href="#DejaVuSans-35"/>
      </g>
     </g>
    </g>
    <g id="xtick_7">
     <g id="line2d_7">
      <g>
       <use style="stroke:#000000;stroke-width:0.8;" x="636.608229" xlink:href="#m0fd384ad91" y="584.054388"/>
      </g>
     </g>
     <g id="text_7">
      <!-- 6 -->
      <defs>
       <path d="M 33.015625 40.375 
Q 26.375 40.375 22.484375 35.828125 
Q 18.609375 31.296875 18.609375 23.390625 
Q 18.609375 15.53125 22.484375 10.953125 
Q 26.375 6.390625 33.015625 6.390625 
Q 39.65625 6.390625 43.53125 10.953125 
Q 47.40625 15.53125 47.40625 23.390625 
Q 47.40625 31.296875 43.53125 35.828125 
Q 39.65625 40.375 33.015625 40.375 
z
M 52.59375 71.296875 
L 52.59375 62.3125 
Q 48.875 64.0625 45.09375 64.984375 
Q 41.3125 65.921875 37.59375 65.921875 
Q 27.828125 65.921875 22.671875 59.328125 
Q 17.53125 52.734375 16.796875 39.40625 
Q 19.671875 43.65625 24.015625 45.921875 
Q 28.375 48.1875 33.59375 48.1875 
Q 44.578125 48.1875 50.953125 41.515625 
Q 57.328125 34.859375 57.328125 23.390625 
Q 57.328125 12.15625 50.6875 5.359375 
Q 44.046875 -1.421875 33.015625 -1.421875 
Q 20.359375 -1.421875 13.671875 8.265625 
Q 6.984375 17.96875 6.984375 36.375 
Q 6.984375 53.65625 15.1875 63.9375 
Q 23.390625 74.21875 37.203125 74.21875 
Q 40.921875 74.21875 44.703125 73.484375 
Q 48.484375 72.75 52.59375 71.296875 
z
" id="DejaVuSans-36"/>
      </defs>
      <g transform="translate(633.426979 598.652826)scale(0.1 -0.1)">
       <use xlink:href="#DejaVuSans-36"/>
      </g>
     </g>
    </g>
    <g id="xtick_8">
     <g id="line2d_8">
      <g>
       <use style="stroke:#000000;stroke-width:0.8;" x="715.97662" xlink:href="#m0fd384ad91" y="584.054388"/>
      </g>
     </g>
     <g id="text_8">
      <!-- 7 -->
      <defs>
       <path d="M 8.203125 72.90625 
L 55.078125 72.90625 
L 55.078125 68.703125 
L 28.609375 0 
L 18.3125 0 
L 43.21875 64.59375 
L 8.203125 64.59375 
z
" id="DejaVuSans-37"/>
      </defs>
      <g transform="translate(712.79537 598.652826)scale(0.1 -0.1)">
       <use xlink:href="#DejaVuSans-37"/>
      </g>
     </g>
    </g>
    <g id="xtick_9">
     <g id="line2d_9">
      <g>
       <use style="stroke:#000000;stroke-width:0.8;" x="795.345011" xlink:href="#m0fd384ad91" y="584.054388"/>
      </g>
     </g>
     <g id="text_9">
      <!-- 8 -->
      <defs>
       <path d="M 31.78125 34.625 
Q 24.75 34.625 20.71875 30.859375 
Q 16.703125 27.09375 16.703125 20.515625 
Q 16.703125 13.921875 20.71875 10.15625 
Q 24.75 6.390625 31.78125 6.390625 
Q 38.8125 6.390625 42.859375 10.171875 
Q 46.921875 13.96875 46.921875 20.515625 
Q 46.921875 27.09375 42.890625 30.859375 
Q 38.875 34.625 31.78125 34.625 
z
M 21.921875 38.8125 
Q 15.578125 40.375 12.03125 44.71875 
Q 8.5 49.078125 8.5 55.328125 
Q 8.5 64.0625 14.71875 69.140625 
Q 20.953125 74.21875 31.78125 74.21875 
Q 42.671875 74.21875 48.875 69.140625 
Q 55.078125 64.0625 55.078125 55.328125 
Q 55.078125 49.078125 51.53125 44.71875 
Q 48 40.375 41.703125 38.8125 
Q 48.828125 37.15625 52.796875 32.3125 
Q 56.78125 27.484375 56.78125 20.515625 
Q 56.78125 9.90625 50.3125 4.234375 
Q 43.84375 -1.421875 31.78125 -1.421875 
Q 19.734375 -1.421875 13.25 4.234375 
Q 6.78125 9.90625 6.78125 20.515625 
Q 6.78125 27.484375 10.78125 32.3125 
Q 14.796875 37.15625 21.921875 38.8125 
z
M 18.3125 54.390625 
Q 18.3125 48.734375 21.84375 45.5625 
Q 25.390625 42.390625 31.78125 42.390625 
Q 38.140625 42.390625 41.71875 45.5625 
Q 45.3125 48.734375 45.3125 54.390625 
Q 45.3125 60.0625 41.71875 63.234375 
Q 38.140625 66.40625 31.78125 66.40625 
Q 25.390625 66.40625 21.84375 63.234375 
Q 18.3125 60.0625 18.3125 54.390625 
z
" id="DejaVuSans-38"/>
      </defs>
      <g transform="translate(792.163761 598.652826)scale(0.1 -0.1)">
       <use xlink:href="#DejaVuSans-38"/>
      </g>
     </g>
    </g>
    <g id="xtick_10">
     <g id="line2d_10">
      <g>
       <use style="stroke:#000000;stroke-width:0.8;" x="874.713401" xlink:href="#m0fd384ad91" y="584.054388"/>
      </g>
     </g>
     <g id="text_10">
      <!-- 9 -->
      <defs>
       <path d="M 10.984375 1.515625 
L 10.984375 10.5 
Q 14.703125 8.734375 18.5 7.8125 
Q 22.3125 6.890625 25.984375 6.890625 
Q 35.75 6.890625 40.890625 13.453125 
Q 46.046875 20.015625 46.78125 33.40625 
Q 43.953125 29.203125 39.59375 26.953125 
Q 35.25 24.703125 29.984375 24.703125 
Q 19.046875 24.703125 12.671875 31.3125 
Q 6.296875 37.9375 6.296875 49.421875 
Q 6.296875 60.640625 12.9375 67.421875 
Q 19.578125 74.21875 30.609375 74.21875 
Q 43.265625 74.21875 49.921875 64.515625 
Q 56.59375 54.828125 56.59375 36.375 
Q 56.59375 19.140625 48.40625 8.859375 
Q 40.234375 -1.421875 26.421875 -1.421875 
Q 22.703125 -1.421875 18.890625 -0.6875 
Q 15.09375 0.046875 10.984375 1.515625 
z
M 30.609375 32.421875 
Q 37.25 32.421875 41.125 36.953125 
Q 45.015625 41.5 45.015625 49.421875 
Q 45.015625 57.28125 41.125 61.84375 
Q 37.25 66.40625 30.609375 66.40625 
Q 23.96875 66.40625 20.09375 61.84375 
Q 16.21875 57.28125 16.21875 49.421875 
Q 16.21875 41.5 20.09375 36.953125 
Q 23.96875 32.421875 30.609375 32.421875 
z
" id="DejaVuSans-39"/>
      </defs>
      <g transform="translate(871.532151 598.652826)scale(0.1 -0.1)">
       <use xlink:href="#DejaVuSans-39"/>
      </g>
     </g>
    </g>
    <g id="xtick_11">
     <g id="line2d_11">
      <g>
       <use style="stroke:#000000;stroke-width:0.8;" x="954.081792" xlink:href="#m0fd384ad91" y="584.054388"/>
      </g>
     </g>
     <g id="text_11">
      <!-- 10 -->
      <g transform="translate(947.719292 598.652826)scale(0.1 -0.1)">
       <use xlink:href="#DejaVuSans-31"/>
       <use x="63.623047" xlink:href="#DejaVuSans-30"/>
      </g>
     </g>
    </g>
    <g id="text_12">
     <!-- Trials -->
     <defs>
      <path d="M -0.296875 72.90625 
L 61.375 72.90625 
L 61.375 64.59375 
L 35.5 64.59375 
L 35.5 0 
L 25.59375 0 
L 25.59375 64.59375 
L -0.296875 64.59375 
z
" id="DejaVuSans-54"/>
      <path d="M 41.109375 46.296875 
Q 39.59375 47.171875 37.8125 47.578125 
Q 36.03125 48 33.890625 48 
Q 26.265625 48 22.1875 43.046875 
Q 18.109375 38.09375 18.109375 28.8125 
L 18.109375 0 
L 9.078125 0 
L 9.078125 54.6875 
L 18.109375 54.6875 
L 18.109375 46.1875 
Q 20.953125 51.171875 25.484375 53.578125 
Q 30.03125 56 36.53125 56 
Q 37.453125 56 38.578125 55.875 
Q 39.703125 55.765625 41.0625 55.515625 
z
" id="DejaVuSans-72"/>
      <path d="M 9.421875 54.6875 
L 18.40625 54.6875 
L 18.40625 0 
L 9.421875 0 
z
M 9.421875 75.984375 
L 18.40625 75.984375 
L 18.40625 64.59375 
L 9.421875 64.59375 
z
" id="DejaVuSans-69"/>
      <path d="M 34.28125 27.484375 
Q 23.390625 27.484375 19.1875 25 
Q 14.984375 22.515625 14.984375 16.5 
Q 14.984375 11.71875 18.140625 8.90625 
Q 21.296875 6.109375 26.703125 6.109375 
Q 34.1875 6.109375 38.703125 11.40625 
Q 43.21875 16.703125 43.21875 25.484375 
L 43.21875 27.484375 
z
M 52.203125 31.203125 
L 52.203125 0 
L 43.21875 0 
L 43.21875 8.296875 
Q 40.140625 3.328125 35.546875 0.953125 
Q 30.953125 -1.421875 24.3125 -1.421875 
Q 15.921875 -1.421875 10.953125 3.296875 
Q 6 8.015625 6 15.921875 
Q 6 25.140625 12.171875 29.828125 
Q 18.359375 34.515625 30.609375 34.515625 
L 43.21875 34.515625 
L 43.21875 35.40625 
Q 43.21875 41.609375 39.140625 45 
Q 35.0625 48.390625 27.6875 48.390625 
Q 23 48.390625 18.546875 47.265625 
Q 14.109375 46.140625 10.015625 43.890625 
L 10.015625 52.203125 
Q 14.9375 54.109375 19.578125 55.046875 
Q 24.21875 56 28.609375 56 
Q 40.484375 56 46.34375 49.84375 
Q 52.203125 43.703125 52.203125 31.203125 
z
" id="DejaVuSans-61"/>
      <path d="M 9.421875 75.984375 
L 18.40625 75.984375 
L 18.40625 0 
L 9.421875 0 
z
" id="DejaVuSans-6c"/>
      <path d="M 44.28125 53.078125 
L 44.28125 44.578125 
Q 40.484375 46.53125 36.375 47.5 
Q 32.28125 48.484375 27.875 48.484375 
Q 21.1875 48.484375 17.84375 46.4375 
Q 14.5 44.390625 14.5 40.28125 
Q 14.5 37.15625 16.890625 35.375 
Q 19.28125 33.59375 26.515625 31.984375 
L 29.59375 31.296875 
Q 39.15625 29.25 43.1875 25.515625 
Q 47.21875 21.78125 47.21875 15.09375 
Q 47.21875 7.46875 41.1875 3.015625 
Q 35.15625 -1.421875 24.609375 -1.421875 
Q 20.21875 -1.421875 15.453125 -0.5625 
Q 10.6875 0.296875 5.421875 2 
L 5.421875 11.28125 
Q 10.40625 8.6875 15.234375 7.390625 
Q 20.0625 6.109375 24.8125 6.109375 
Q 31.15625 6.109375 34.5625 8.28125 
Q 37.984375 10.453125 37.984375 14.40625 
Q 37.984375 18.0625 35.515625 20.015625 
Q 33.0625 21.96875 24.703125 23.78125 
L 21.578125 24.515625 
Q 13.234375 26.265625 9.515625 29.90625 
Q 5.8125 33.546875 5.8125 39.890625 
Q 5.8125 47.609375 11.28125 51.796875 
Q 16.75 56 26.8125 56 
Q 31.78125 56 36.171875 55.265625 
Q 40.578125 54.546875 44.28125 53.078125 
z
" id="DejaVuSans-73"/>
     </defs>
     <g transform="translate(529.118438 618.409701)scale(0.18 -0.18)">
      <use xlink:href="#DejaVuSans-54"/>
      <use x="60.865234" xlink:href="#DejaVuSans-72"/>
      <use x="101.978516" xlink:href="#DejaVuSans-69"/>
      <use x="129.761719" xlink:href="#DejaVuSans-61"/>
      <use x="191.041016" xlink:href="#DejaVuSans-6c"/>
      <use x="218.824219" xlink:href="#DejaVuSans-73"/>
     </g>
    </g>
   </g>
   <g id="matplotlib.axis_2">
    <g id="ytick_1">
     <g id="line2d_12">
      <defs>
       <path d="M 0 0 
L -3.5 0 
" id="m3b79f54a87" style="stroke:#000000;stroke-width:0.8;"/>
      </defs>
      <g>
       <use style="stroke:#000000;stroke-width:0.8;" x="135" xlink:href="#m3b79f54a87" y="559.767376"/>
      </g>
     </g>
     <g id="text_13">
      <!-- 0 -->
      <g transform="translate(121.6375 563.566595)scale(0.1 -0.1)">
       <use xlink:href="#DejaVuSans-30"/>
      </g>
     </g>
    </g>
    <g id="ytick_2">
     <g id="line2d_13">
      <g>
       <use style="stroke:#000000;stroke-width:0.8;" x="135" xlink:href="#m3b79f54a87" y="483.870463"/>
      </g>
     </g>
     <g id="text_14">
      <!-- 1 -->
      <g transform="translate(121.6375 487.669682)scale(0.1 -0.1)">
       <use xlink:href="#DejaVuSans-31"/>
      </g>
     </g>
    </g>
    <g id="ytick_3">
     <g id="line2d_14">
      <g>
       <use style="stroke:#000000;stroke-width:0.8;" x="135" xlink:href="#m3b79f54a87" y="407.973551"/>
      </g>
     </g>
     <g id="text_15">
      <!-- 2 -->
      <g transform="translate(121.6375 411.772769)scale(0.1 -0.1)">
       <use xlink:href="#DejaVuSans-32"/>
      </g>
     </g>
    </g>
    <g id="ytick_4">
     <g id="line2d_15">
      <g>
       <use style="stroke:#000000;stroke-width:0.8;" x="135" xlink:href="#m3b79f54a87" y="332.076638"/>
      </g>
     </g>
     <g id="text_16">
      <!-- 3 -->
      <g transform="translate(121.6375 335.875857)scale(0.1 -0.1)">
       <use xlink:href="#DejaVuSans-33"/>
      </g>
     </g>
    </g>
    <g id="ytick_5">
     <g id="line2d_16">
      <g>
       <use style="stroke:#000000;stroke-width:0.8;" x="135" xlink:href="#m3b79f54a87" y="256.179725"/>
      </g>
     </g>
     <g id="text_17">
      <!-- 4 -->
      <g transform="translate(121.6375 259.978944)scale(0.1 -0.1)">
       <use xlink:href="#DejaVuSans-34"/>
      </g>
     </g>
    </g>
    <g id="ytick_6">
     <g id="line2d_17">
      <g>
       <use style="stroke:#000000;stroke-width:0.8;" x="135" xlink:href="#m3b79f54a87" y="180.282812"/>
      </g>
     </g>
     <g id="text_18">
      <!-- 5 -->
      <g transform="translate(121.6375 184.082031)scale(0.1 -0.1)">
       <use xlink:href="#DejaVuSans-35"/>
      </g>
     </g>
    </g>
    <g id="ytick_7">
     <g id="line2d_18">
      <g>
       <use style="stroke:#000000;stroke-width:0.8;" x="135" xlink:href="#m3b79f54a87" y="104.3859"/>
      </g>
     </g>
     <g id="text_19">
      <!-- 6 -->
      <g transform="translate(121.6375 108.185118)scale(0.1 -0.1)">
       <use xlink:href="#DejaVuSans-36"/>
      </g>
     </g>
    </g>
    <g id="text_20">
     <!-- Run lengths -->
     <defs>
      <path d="M 44.390625 34.1875 
Q 47.5625 33.109375 50.5625 29.59375 
Q 53.5625 26.078125 56.59375 19.921875 
L 66.609375 0 
L 56 0 
L 46.6875 18.703125 
Q 43.0625 26.03125 39.671875 28.421875 
Q 36.28125 30.8125 30.421875 30.8125 
L 19.671875 30.8125 
L 19.671875 0 
L 9.8125 0 
L 9.8125 72.90625 
L 32.078125 72.90625 
Q 44.578125 72.90625 50.734375 67.671875 
Q 56.890625 62.453125 56.890625 51.90625 
Q 56.890625 45.015625 53.6875 40.46875 
Q 50.484375 35.9375 44.390625 34.1875 
z
M 19.671875 64.796875 
L 19.671875 38.921875 
L 32.078125 38.921875 
Q 39.203125 38.921875 42.84375 42.21875 
Q 46.484375 45.515625 46.484375 51.90625 
Q 46.484375 58.296875 42.84375 61.546875 
Q 39.203125 64.796875 32.078125 64.796875 
z
" id="DejaVuSans-52"/>
      <path d="M 8.5 21.578125 
L 8.5 54.6875 
L 17.484375 54.6875 
L 17.484375 21.921875 
Q 17.484375 14.15625 20.5 10.265625 
Q 23.53125 6.390625 29.59375 6.390625 
Q 36.859375 6.390625 41.078125 11.03125 
Q 45.3125 15.671875 45.3125 23.6875 
L 45.3125 54.6875 
L 54.296875 54.6875 
L 54.296875 0 
L 45.3125 0 
L 45.3125 8.40625 
Q 42.046875 3.421875 37.71875 1 
Q 33.40625 -1.421875 27.6875 -1.421875 
Q 18.265625 -1.421875 13.375 4.4375 
Q 8.5 10.296875 8.5 21.578125 
z
M 31.109375 56 
z
" id="DejaVuSans-75"/>
      <path d="M 54.890625 33.015625 
L 54.890625 0 
L 45.90625 0 
L 45.90625 32.71875 
Q 45.90625 40.484375 42.875 44.328125 
Q 39.84375 48.1875 33.796875 48.1875 
Q 26.515625 48.1875 22.3125 43.546875 
Q 18.109375 38.921875 18.109375 30.90625 
L 18.109375 0 
L 9.078125 0 
L 9.078125 54.6875 
L 18.109375 54.6875 
L 18.109375 46.1875 
Q 21.34375 51.125 25.703125 53.5625 
Q 30.078125 56 35.796875 56 
Q 45.21875 56 50.046875 50.171875 
Q 54.890625 44.34375 54.890625 33.015625 
z
" id="DejaVuSans-6e"/>
      <path id="DejaVuSans-20"/>
      <path d="M 56.203125 29.59375 
L 56.203125 25.203125 
L 14.890625 25.203125 
Q 15.484375 15.921875 20.484375 11.0625 
Q 25.484375 6.203125 34.421875 6.203125 
Q 39.59375 6.203125 44.453125 7.46875 
Q 49.3125 8.734375 54.109375 11.28125 
L 54.109375 2.78125 
Q 49.265625 0.734375 44.1875 -0.34375 
Q 39.109375 -1.421875 33.890625 -1.421875 
Q 20.796875 -1.421875 13.15625 6.1875 
Q 5.515625 13.8125 5.515625 26.8125 
Q 5.515625 40.234375 12.765625 48.109375 
Q 20.015625 56 32.328125 56 
Q 43.359375 56 49.78125 48.890625 
Q 56.203125 41.796875 56.203125 29.59375 
z
M 47.21875 32.234375 
Q 47.125 39.59375 43.09375 43.984375 
Q 39.0625 48.390625 32.421875 48.390625 
Q 24.90625 48.390625 20.390625 44.140625 
Q 15.875 39.890625 15.1875 32.171875 
z
" id="DejaVuSans-65"/>
      <path d="M 45.40625 27.984375 
Q 45.40625 37.75 41.375 43.109375 
Q 37.359375 48.484375 30.078125 48.484375 
Q 22.859375 48.484375 18.828125 43.109375 
Q 14.796875 37.75 14.796875 27.984375 
Q 14.796875 18.265625 18.828125 12.890625 
Q 22.859375 7.515625 30.078125 7.515625 
Q 37.359375 7.515625 41.375 12.890625 
Q 45.40625 18.265625 45.40625 27.984375 
z
M 54.390625 6.78125 
Q 54.390625 -7.171875 48.1875 -13.984375 
Q 42 -20.796875 29.203125 -20.796875 
Q 24.46875 -20.796875 20.265625 -20.09375 
Q 16.0625 -19.390625 12.109375 -17.921875 
L 12.109375 -9.1875 
Q 16.0625 -11.328125 19.921875 -12.34375 
Q 23.78125 -13.375 27.78125 -13.375 
Q 36.625 -13.375 41.015625 -8.765625 
Q 45.40625 -4.15625 45.40625 5.171875 
L 45.40625 9.625 
Q 42.625 4.78125 38.28125 2.390625 
Q 33.9375 0 27.875 0 
Q 17.828125 0 11.671875 7.65625 
Q 5.515625 15.328125 5.515625 27.984375 
Q 5.515625 40.671875 11.671875 48.328125 
Q 17.828125 56 27.875 56 
Q 33.9375 56 38.28125 53.609375 
Q 42.625 51.21875 45.40625 46.390625 
L 45.40625 54.6875 
L 54.390625 54.6875 
z
" id="DejaVuSans-67"/>
      <path d="M 18.3125 70.21875 
L 18.3125 54.6875 
L 36.8125 54.6875 
L 36.8125 47.703125 
L 18.3125 47.703125 
L 18.3125 18.015625 
Q 18.3125 11.328125 20.140625 9.421875 
Q 21.96875 7.515625 27.59375 7.515625 
L 36.8125 7.515625 
L 36.8125 0 
L 27.59375 0 
Q 17.1875 0 13.234375 3.875 
Q 9.28125 7.765625 9.28125 18.015625 
L 9.28125 47.703125 
L 2.6875 47.703125 
L 2.6875 54.6875 
L 9.28125 54.6875 
L 9.28125 70.21875 
z
" id="DejaVuSans-74"/>
      <path d="M 54.890625 33.015625 
L 54.890625 0 
L 45.90625 0 
L 45.90625 32.71875 
Q 45.90625 40.484375 42.875 44.328125 
Q 39.84375 48.1875 33.796875 48.1875 
Q 26.515625 48.1875 22.3125 43.546875 
Q 18.109375 38.921875 18.109375 30.90625 
L 18.109375 0 
L 9.078125 0 
L 9.078125 75.984375 
L 18.109375 75.984375 
L 18.109375 46.1875 
Q 21.34375 51.125 25.703125 53.5625 
Q 30.078125 56 35.796875 56 
Q 45.21875 56 50.046875 50.171875 
Q 54.890625 44.34375 54.890625 33.015625 
z
" id="DejaVuSans-68"/>
     </defs>
     <g transform="translate(113.894063 385.968357)rotate(-90)scale(0.18 -0.18)">
      <use xlink:href="#DejaVuSans-52"/>
      <use x="69.419922" xlink:href="#DejaVuSans-75"/>
      <use x="132.798828" xlink:href="#DejaVuSans-6e"/>
      <use x="196.177734" xlink:href="#DejaVuSans-20"/>
      <use x="227.964844" xlink:href="#DejaVuSans-6c"/>
      <use x="255.748047" xlink:href="#DejaVuSans-65"/>
      <use x="317.271484" xlink:href="#DejaVuSans-6e"/>
      <use x="380.650391" xlink:href="#DejaVuSans-67"/>
      <use x="444.126953" xlink:href="#DejaVuSans-74"/>
      <use x="483.335938" xlink:href="#DejaVuSans-68"/>
      <use x="546.714844" xlink:href="#DejaVuSans-73"/>
     </g>
    </g>
   </g>
   <g id="patch_15">
    <path d="M 135 584.054388 
L 135 80.098888 
" style="fill:none;stroke:#000000;stroke-linecap:square;stroke-linejoin:miter;stroke-width:0.8;"/>
   </g>
   <g id="patch_16">
    <path d="M 972 584.054388 
L 972 80.098888 
" style="fill:none;stroke:#000000;stroke-linecap:square;stroke-linejoin:miter;stroke-width:0.8;"/>
   </g>
   <g id="patch_17">
    <path d="M 135 584.054388 
L 972 584.054388 
" style="fill:none;stroke:#000000;stroke-linecap:square;stroke-linejoin:miter;stroke-width:0.8;"/>
   </g>
   <g id="patch_18">
    <path d="M 135 80.098888 
L 972 80.098888 
" style="fill:none;stroke:#000000;stroke-linecap:square;stroke-linejoin:miter;stroke-width:0.8;"/>
   </g>
  </g>
 </g>
 <defs>
  <clipPath id="p027a9025df">
   <rect height="503.955501" width="837" x="135" y="80.098888"/>
  </clipPath>
 </defs>
</svg>
