<?xml version="1.0" encoding="utf-8" standalone="no"?>
<!DOCTYPE svg PUBLIC "-//W3C//DTD SVG 1.1//EN"
  "http://www.w3.org/Graphics/SVG/1.1/DTD/svg11.dtd">
<!-- Created with matplotlib (http://matplotlib.org/) -->
<svg height="667.490729pt" version="1.1" viewBox="0 0 1080 667.490729" width="1080pt" xmlns="http://www.w3.org/2000/svg" xmlns:xlink="http://www.w3.org/1999/xlink">
 <defs>
  <style type="text/css">
*{stroke-linecap:butt;stroke-linejoin:round;}
  </style>
 </defs>
 <g id="figure_1">
  <g id="patch_1">
   <path d="M 0 667.490729 
L 1080 667.490729 
L 1080 0 
L 0 0 
z
" style="fill:#ffffff;"/>
  </g>
  <g id="axes_1">
   <g id="patch_2">
    <path d="M 61.8 335.972132 
L 1065.7 335.972132 
L 1065.7 55.253534 
L 61.8 55.253534 
z
" style="fill:#ffffff;"/>
   </g>
   <g id="patch_3">
    <path clip-path="url(#p115887b87f)" d="M 39.044933 335.972132 
L 39.044933 55.253534 
L 362.300733 55.253534 
L 362.300733 335.972132 
z
" style="opacity:0.2;stroke:#000000;stroke-linejoin:miter;"/>
   </g>
   <g id="patch_4">
    <path clip-path="url(#p115887b87f)" d="M 362.300733 335.972132 
L 362.300733 55.253534 
L 563.75 55.253534 
L 563.75 335.972132 
z
" style="fill:#ff0000;opacity:0.2;stroke:#ff0000;stroke-linejoin:miter;"/>
   </g>
   <g id="patch_5">
    <path clip-path="url(#p115887b87f)" d="M 563.75 335.972132 
L 563.75 55.253534 
L 1087.116533 55.253534 
L 1087.116533 335.972132 
z
" style="opacity:0.15;stroke:#000000;stroke-linejoin:miter;"/>
   </g>
   <g id="patch_6">
    <path clip-path="url(#p115887b87f)" d="M 692.918467 335.972132 
L 692.918467 55.253534 
L 715.673533 55.253534 
L 715.673533 335.972132 
z
" style="opacity:0.15;stroke:#000000;stroke-linejoin:miter;"/>
   </g>
   <g id="patch_7">
    <path clip-path="url(#p115887b87f)" d="M 786.6158 335.972132 
L 786.6158 55.253534 
L 801.339667 55.253534 
L 801.339667 335.972132 
z
" style="opacity:0.15;stroke:#000000;stroke-linejoin:miter;"/>
   </g>
   <g id="patch_8">
    <path clip-path="url(#p115887b87f)" d="M 898.383333 335.972132 
L 898.383333 55.253534 
L 911.768667 55.253534 
L 911.768667 335.972132 
z
" style="opacity:0.15;stroke:#000000;stroke-linejoin:miter;"/>
   </g>
   <g id="matplotlib.axis_1">
    <g id="xtick_1">
     <g id="line2d_1">
      <defs>
       <path d="M 0 0 
L 0 3.5 
" id="m6176e40aab" style="stroke:#000000;stroke-width:0.8;"/>
      </defs>
      <g>
       <use style="stroke:#000000;stroke-width:0.8;" x="162.19" xlink:href="#m6176e40aab" y="335.972132"/>
      </g>
     </g>
    </g>
    <g id="xtick_2">
     <g id="line2d_2">
      <g>
       <use style="stroke:#000000;stroke-width:0.8;" x="296.043333" xlink:href="#m6176e40aab" y="335.972132"/>
      </g>
     </g>
    </g>
    <g id="xtick_3">
     <g id="line2d_3">
      <g>
       <use style="stroke:#000000;stroke-width:0.8;" x="429.896667" xlink:href="#m6176e40aab" y="335.972132"/>
      </g>
     </g>
    </g>
    <g id="xtick_4">
     <g id="line2d_4">
      <g>
       <use style="stroke:#000000;stroke-width:0.8;" x="563.75" xlink:href="#m6176e40aab" y="335.972132"/>
      </g>
     </g>
    </g>
    <g id="xtick_5">
     <g id="line2d_5">
      <g>
       <use style="stroke:#000000;stroke-width:0.8;" x="697.603333" xlink:href="#m6176e40aab" y="335.972132"/>
      </g>
     </g>
    </g>
    <g id="xtick_6">
     <g id="line2d_6">
      <g>
       <use style="stroke:#000000;stroke-width:0.8;" x="831.456667" xlink:href="#m6176e40aab" y="335.972132"/>
      </g>
     </g>
    </g>
    <g id="xtick_7">
     <g id="line2d_7">
      <g>
       <use style="stroke:#000000;stroke-width:0.8;" x="965.31" xlink:href="#m6176e40aab" y="335.972132"/>
      </g>
     </g>
    </g>
    <g id="text_1">
     <!-- Time (ms) -->
     <defs>
      <path d="M -0.296875 72.90625 
L 61.375 72.90625 
L 61.375 64.59375 
L 35.5 64.59375 
L 35.5 0 
L 25.59375 0 
L 25.59375 64.59375 
L -0.296875 64.59375 
z
" id="DejaVuSans-54"/>
      <path d="M 9.421875 54.6875 
L 18.40625 54.6875 
L 18.40625 0 
L 9.421875 0 
z
M 9.421875 75.984375 
L 18.40625 75.984375 
L 18.40625 64.59375 
L 9.421875 64.59375 
z
" id="DejaVuSans-69"/>
      <path d="M 52 44.1875 
Q 55.375 50.25 60.0625 53.125 
Q 64.75 56 71.09375 56 
Q 79.640625 56 84.28125 50.015625 
Q 88.921875 44.046875 88.921875 33.015625 
L 88.921875 0 
L 79.890625 0 
L 79.890625 32.71875 
Q 79.890625 40.578125 77.09375 44.375 
Q 74.3125 48.1875 68.609375 48.1875 
Q 61.625 48.1875 57.5625 43.546875 
Q 53.515625 38.921875 53.515625 30.90625 
L 53.515625 0 
L 44.484375 0 
L 44.484375 32.71875 
Q 44.484375 40.625 41.703125 44.40625 
Q 38.921875 48.1875 33.109375 48.1875 
Q 26.21875 48.1875 22.15625 43.53125 
Q 18.109375 38.875 18.109375 30.90625 
L 18.109375 0 
L 9.078125 0 
L 9.078125 54.6875 
L 18.109375 54.6875 
L 18.109375 46.1875 
Q 21.1875 51.21875 25.484375 53.609375 
Q 29.78125 56 35.6875 56 
Q 41.65625 56 45.828125 52.96875 
Q 50 49.953125 52 44.1875 
z
" id="DejaVuSans-6d"/>
      <path d="M 56.203125 29.59375 
L 56.203125 25.203125 
L 14.890625 25.203125 
Q 15.484375 15.921875 20.484375 11.0625 
Q 25.484375 6.203125 34.421875 6.203125 
Q 39.59375 6.203125 44.453125 7.46875 
Q 49.3125 8.734375 54.109375 11.28125 
L 54.109375 2.78125 
Q 49.265625 0.734375 44.1875 -0.34375 
Q 39.109375 -1.421875 33.890625 -1.421875 
Q 20.796875 -1.421875 13.15625 6.1875 
Q 5.515625 13.8125 5.515625 26.8125 
Q 5.515625 40.234375 12.765625 48.109375 
Q 20.015625 56 32.328125 56 
Q 43.359375 56 49.78125 48.890625 
Q 56.203125 41.796875 56.203125 29.59375 
z
M 47.21875 32.234375 
Q 47.125 39.59375 43.09375 43.984375 
Q 39.0625 48.390625 32.421875 48.390625 
Q 24.90625 48.390625 20.390625 44.140625 
Q 15.875 39.890625 15.1875 32.171875 
z
" id="DejaVuSans-65"/>
      <path id="DejaVuSans-20"/>
      <path d="M 31 75.875 
Q 24.46875 64.65625 21.28125 53.65625 
Q 18.109375 42.671875 18.109375 31.390625 
Q 18.109375 20.125 21.3125 9.0625 
Q 24.515625 -2 31 -13.1875 
L 23.1875 -13.1875 
Q 15.875 -1.703125 12.234375 9.375 
Q 8.59375 20.453125 8.59375 31.390625 
Q 8.59375 42.28125 12.203125 53.3125 
Q 15.828125 64.359375 23.1875 75.875 
z
" id="DejaVuSans-28"/>
      <path d="M 44.28125 53.078125 
L 44.28125 44.578125 
Q 40.484375 46.53125 36.375 47.5 
Q 32.28125 48.484375 27.875 48.484375 
Q 21.1875 48.484375 17.84375 46.4375 
Q 14.5 44.390625 14.5 40.28125 
Q 14.5 37.15625 16.890625 35.375 
Q 19.28125 33.59375 26.515625 31.984375 
L 29.59375 31.296875 
Q 39.15625 29.25 43.1875 25.515625 
Q 47.21875 21.78125 47.21875 15.09375 
Q 47.21875 7.46875 41.1875 3.015625 
Q 35.15625 -1.421875 24.609375 -1.421875 
Q 20.21875 -1.421875 15.453125 -0.5625 
Q 10.6875 0.296875 5.421875 2 
L 5.421875 11.28125 
Q 10.40625 8.6875 15.234375 7.390625 
Q 20.0625 6.109375 24.8125 6.109375 
Q 31.15625 6.109375 34.5625 8.28125 
Q 37.984375 10.453125 37.984375 14.40625 
Q 37.984375 18.0625 35.515625 20.015625 
Q 33.0625 21.96875 24.703125 23.78125 
L 21.578125 24.515625 
Q 13.234375 26.265625 9.515625 29.90625 
Q 5.8125 33.546875 5.8125 39.890625 
Q 5.8125 47.609375 11.28125 51.796875 
Q 16.75 56 26.8125 56 
Q 31.78125 56 36.171875 55.265625 
Q 40.578125 54.546875 44.28125 53.078125 
z
" id="DejaVuSans-73"/>
      <path d="M 8.015625 75.875 
L 15.828125 75.875 
Q 23.140625 64.359375 26.78125 53.3125 
Q 30.421875 42.28125 30.421875 31.390625 
Q 30.421875 20.453125 26.78125 9.375 
Q 23.140625 -1.703125 15.828125 -13.1875 
L 8.015625 -13.1875 
Q 14.5 -2 17.703125 9.0625 
Q 20.90625 20.125 20.90625 31.390625 
Q 20.90625 42.671875 17.703125 53.65625 
Q 14.5 64.65625 8.015625 75.875 
z
" id="DejaVuSans-29"/>
     </defs>
     <g transform="translate(513.04375 362.169007)scale(0.2 -0.2)">
      <use xlink:href="#DejaVuSans-54"/>
      <use x="61.037109" xlink:href="#DejaVuSans-69"/>
      <use x="88.820312" xlink:href="#DejaVuSans-6d"/>
      <use x="186.232422" xlink:href="#DejaVuSans-65"/>
      <use x="247.755859" xlink:href="#DejaVuSans-20"/>
      <use x="279.542969" xlink:href="#DejaVuSans-28"/>
      <use x="318.556641" xlink:href="#DejaVuSans-6d"/>
      <use x="415.96875" xlink:href="#DejaVuSans-73"/>
      <use x="468.068359" xlink:href="#DejaVuSans-29"/>
     </g>
    </g>
   </g>
   <g id="matplotlib.axis_2">
    <g id="ytick_1">
     <g id="line2d_8">
      <defs>
       <path d="M 0 0 
L -3.5 0 
" id="m0440d12d5a" style="stroke:#000000;stroke-width:0.8;"/>
      </defs>
      <g>
       <use style="stroke:#000000;stroke-width:0.8;" x="61.8" xlink:href="#m0440d12d5a" y="302.214832"/>
      </g>
     </g>
     <g id="text_2">
      <!-- −30 -->
      <defs>
       <path d="M 10.59375 35.5 
L 73.1875 35.5 
L 73.1875 27.203125 
L 10.59375 27.203125 
z
" id="DejaVuSans-2212"/>
       <path d="M 40.578125 39.3125 
Q 47.65625 37.796875 51.625 33 
Q 55.609375 28.21875 55.609375 21.1875 
Q 55.609375 10.40625 48.1875 4.484375 
Q 40.765625 -1.421875 27.09375 -1.421875 
Q 22.515625 -1.421875 17.65625 -0.515625 
Q 12.796875 0.390625 7.625 2.203125 
L 7.625 11.71875 
Q 11.71875 9.328125 16.59375 8.109375 
Q 21.484375 6.890625 26.8125 6.890625 
Q 36.078125 6.890625 40.9375 10.546875 
Q 45.796875 14.203125 45.796875 21.1875 
Q 45.796875 27.640625 41.28125 31.265625 
Q 36.765625 34.90625 28.71875 34.90625 
L 20.21875 34.90625 
L 20.21875 43.015625 
L 29.109375 43.015625 
Q 36.375 43.015625 40.234375 45.921875 
Q 44.09375 48.828125 44.09375 54.296875 
Q 44.09375 59.90625 40.109375 62.90625 
Q 36.140625 65.921875 28.71875 65.921875 
Q 24.65625 65.921875 20.015625 65.03125 
Q 15.375 64.15625 9.8125 62.3125 
L 9.8125 71.09375 
Q 15.4375 72.65625 20.34375 73.4375 
Q 25.25 74.21875 29.59375 74.21875 
Q 40.828125 74.21875 47.359375 69.109375 
Q 53.90625 64.015625 53.90625 55.328125 
Q 53.90625 49.265625 50.4375 45.09375 
Q 46.96875 40.921875 40.578125 39.3125 
z
" id="DejaVuSans-33"/>
       <path d="M 31.78125 66.40625 
Q 24.171875 66.40625 20.328125 58.90625 
Q 16.5 51.421875 16.5 36.375 
Q 16.5 21.390625 20.328125 13.890625 
Q 24.171875 6.390625 31.78125 6.390625 
Q 39.453125 6.390625 43.28125 13.890625 
Q 47.125 21.390625 47.125 36.375 
Q 47.125 51.421875 43.28125 58.90625 
Q 39.453125 66.40625 31.78125 66.40625 
z
M 31.78125 74.21875 
Q 44.046875 74.21875 50.515625 64.515625 
Q 56.984375 54.828125 56.984375 36.375 
Q 56.984375 17.96875 50.515625 8.265625 
Q 44.046875 -1.421875 31.78125 -1.421875 
Q 19.53125 -1.421875 13.0625 8.265625 
Q 6.59375 17.96875 6.59375 36.375 
Q 6.59375 54.828125 13.0625 64.515625 
Q 19.53125 74.21875 31.78125 74.21875 
z
" id="DejaVuSans-30"/>
      </defs>
      <g transform="translate(33.695312 306.014051)scale(0.1 -0.1)">
       <use xlink:href="#DejaVuSans-2212"/>
       <use x="83.789062" xlink:href="#DejaVuSans-33"/>
       <use x="147.412109" xlink:href="#DejaVuSans-30"/>
      </g>
     </g>
    </g>
    <g id="ytick_2">
     <g id="line2d_9">
      <g>
       <use style="stroke:#000000;stroke-width:0.8;" x="61.8" xlink:href="#m0440d12d5a" y="266.680832"/>
      </g>
     </g>
     <g id="text_3">
      <!-- −20 -->
      <defs>
       <path d="M 19.1875 8.296875 
L 53.609375 8.296875 
L 53.609375 0 
L 7.328125 0 
L 7.328125 8.296875 
Q 12.9375 14.109375 22.625 23.890625 
Q 32.328125 33.6875 34.8125 36.53125 
Q 39.546875 41.84375 41.421875 45.53125 
Q 43.3125 49.21875 43.3125 52.78125 
Q 43.3125 58.59375 39.234375 62.25 
Q 35.15625 65.921875 28.609375 65.921875 
Q 23.96875 65.921875 18.8125 64.3125 
Q 13.671875 62.703125 7.8125 59.421875 
L 7.8125 69.390625 
Q 13.765625 71.78125 18.9375 73 
Q 24.125 74.21875 28.421875 74.21875 
Q 39.75 74.21875 46.484375 68.546875 
Q 53.21875 62.890625 53.21875 53.421875 
Q 53.21875 48.921875 51.53125 44.890625 
Q 49.859375 40.875 45.40625 35.40625 
Q 44.1875 33.984375 37.640625 27.21875 
Q 31.109375 20.453125 19.1875 8.296875 
z
" id="DejaVuSans-32"/>
      </defs>
      <g transform="translate(33.695312 270.480051)scale(0.1 -0.1)">
       <use xlink:href="#DejaVuSans-2212"/>
       <use x="83.789062" xlink:href="#DejaVuSans-32"/>
       <use x="147.412109" xlink:href="#DejaVuSans-30"/>
      </g>
     </g>
    </g>
    <g id="ytick_3">
     <g id="line2d_10">
      <g>
       <use style="stroke:#000000;stroke-width:0.8;" x="61.8" xlink:href="#m0440d12d5a" y="231.146833"/>
      </g>
     </g>
     <g id="text_4">
      <!-- −10 -->
      <defs>
       <path d="M 12.40625 8.296875 
L 28.515625 8.296875 
L 28.515625 63.921875 
L 10.984375 60.40625 
L 10.984375 69.390625 
L 28.421875 72.90625 
L 38.28125 72.90625 
L 38.28125 8.296875 
L 54.390625 8.296875 
L 54.390625 0 
L 12.40625 0 
z
" id="DejaVuSans-31"/>
      </defs>
      <g transform="translate(33.695312 234.946051)scale(0.1 -0.1)">
       <use xlink:href="#DejaVuSans-2212"/>
       <use x="83.789062" xlink:href="#DejaVuSans-31"/>
       <use x="147.412109" xlink:href="#DejaVuSans-30"/>
      </g>
     </g>
    </g>
    <g id="ytick_4">
     <g id="line2d_11">
      <g>
       <use style="stroke:#000000;stroke-width:0.8;" x="61.8" xlink:href="#m0440d12d5a" y="195.612833"/>
      </g>
     </g>
     <g id="text_5">
      <!-- 0 -->
      <g transform="translate(48.4375 199.412052)scale(0.1 -0.1)">
       <use xlink:href="#DejaVuSans-30"/>
      </g>
     </g>
    </g>
    <g id="ytick_5">
     <g id="line2d_12">
      <g>
       <use style="stroke:#000000;stroke-width:0.8;" x="61.8" xlink:href="#m0440d12d5a" y="160.078833"/>
      </g>
     </g>
     <g id="text_6">
      <!-- 10 -->
      <g transform="translate(42.075 163.878052)scale(0.1 -0.1)">
       <use xlink:href="#DejaVuSans-31"/>
       <use x="63.623047" xlink:href="#DejaVuSans-30"/>
      </g>
     </g>
    </g>
    <g id="ytick_6">
     <g id="line2d_13">
      <g>
       <use style="stroke:#000000;stroke-width:0.8;" x="61.8" xlink:href="#m0440d12d5a" y="124.544834"/>
      </g>
     </g>
     <g id="text_7">
      <!-- 20 -->
      <g transform="translate(42.075 128.344052)scale(0.1 -0.1)">
       <use xlink:href="#DejaVuSans-32"/>
       <use x="63.623047" xlink:href="#DejaVuSans-30"/>
      </g>
     </g>
    </g>
    <g id="ytick_7">
     <g id="line2d_14">
      <g>
       <use style="stroke:#000000;stroke-width:0.8;" x="61.8" xlink:href="#m0440d12d5a" y="89.010834"/>
      </g>
     </g>
     <g id="text_8">
      <!-- 30 -->
      <g transform="translate(42.075 92.810053)scale(0.1 -0.1)">
       <use xlink:href="#DejaVuSans-33"/>
       <use x="63.623047" xlink:href="#DejaVuSans-30"/>
      </g>
     </g>
    </g>
    <g id="text_9">
     <!-- Velocity (°/s) -->
     <defs>
      <path d="M 28.609375 0 
L 0.78125 72.90625 
L 11.078125 72.90625 
L 34.1875 11.53125 
L 57.328125 72.90625 
L 67.578125 72.90625 
L 39.796875 0 
z
" id="DejaVuSans-56"/>
      <path d="M 9.421875 75.984375 
L 18.40625 75.984375 
L 18.40625 0 
L 9.421875 0 
z
" id="DejaVuSans-6c"/>
      <path d="M 30.609375 48.390625 
Q 23.390625 48.390625 19.1875 42.75 
Q 14.984375 37.109375 14.984375 27.296875 
Q 14.984375 17.484375 19.15625 11.84375 
Q 23.34375 6.203125 30.609375 6.203125 
Q 37.796875 6.203125 41.984375 11.859375 
Q 46.1875 17.53125 46.1875 27.296875 
Q 46.1875 37.015625 41.984375 42.703125 
Q 37.796875 48.390625 30.609375 48.390625 
z
M 30.609375 56 
Q 42.328125 56 49.015625 48.375 
Q 55.71875 40.765625 55.71875 27.296875 
Q 55.71875 13.875 49.015625 6.21875 
Q 42.328125 -1.421875 30.609375 -1.421875 
Q 18.84375 -1.421875 12.171875 6.21875 
Q 5.515625 13.875 5.515625 27.296875 
Q 5.515625 40.765625 12.171875 48.375 
Q 18.84375 56 30.609375 56 
z
" id="DejaVuSans-6f"/>
      <path d="M 48.78125 52.59375 
L 48.78125 44.1875 
Q 44.96875 46.296875 41.140625 47.34375 
Q 37.3125 48.390625 33.40625 48.390625 
Q 24.65625 48.390625 19.8125 42.84375 
Q 14.984375 37.3125 14.984375 27.296875 
Q 14.984375 17.28125 19.8125 11.734375 
Q 24.65625 6.203125 33.40625 6.203125 
Q 37.3125 6.203125 41.140625 7.25 
Q 44.96875 8.296875 48.78125 10.40625 
L 48.78125 2.09375 
Q 45.015625 0.34375 40.984375 -0.53125 
Q 36.96875 -1.421875 32.421875 -1.421875 
Q 20.0625 -1.421875 12.78125 6.34375 
Q 5.515625 14.109375 5.515625 27.296875 
Q 5.515625 40.671875 12.859375 48.328125 
Q 20.21875 56 33.015625 56 
Q 37.15625 56 41.109375 55.140625 
Q 45.0625 54.296875 48.78125 52.59375 
z
" id="DejaVuSans-63"/>
      <path d="M 18.3125 70.21875 
L 18.3125 54.6875 
L 36.8125 54.6875 
L 36.8125 47.703125 
L 18.3125 47.703125 
L 18.3125 18.015625 
Q 18.3125 11.328125 20.140625 9.421875 
Q 21.96875 7.515625 27.59375 7.515625 
L 36.8125 7.515625 
L 36.8125 0 
L 27.59375 0 
Q 17.1875 0 13.234375 3.875 
Q 9.28125 7.765625 9.28125 18.015625 
L 9.28125 47.703125 
L 2.6875 47.703125 
L 2.6875 54.6875 
L 9.28125 54.6875 
L 9.28125 70.21875 
z
" id="DejaVuSans-74"/>
      <path d="M 32.171875 -5.078125 
Q 28.375 -14.84375 24.75 -17.8125 
Q 21.140625 -20.796875 15.09375 -20.796875 
L 7.90625 -20.796875 
L 7.90625 -13.28125 
L 13.1875 -13.28125 
Q 16.890625 -13.28125 18.9375 -11.515625 
Q 21 -9.765625 23.484375 -3.21875 
L 25.09375 0.875 
L 2.984375 54.6875 
L 12.5 54.6875 
L 29.59375 11.921875 
L 46.6875 54.6875 
L 56.203125 54.6875 
z
" id="DejaVuSans-79"/>
      <path d="M 25 67.921875 
Q 21.09375 67.921875 18.40625 65.203125 
Q 15.71875 62.5 15.71875 58.59375 
Q 15.71875 54.734375 18.40625 52.078125 
Q 21.09375 49.421875 25 49.421875 
Q 28.90625 49.421875 31.59375 52.078125 
Q 34.28125 54.734375 34.28125 58.59375 
Q 34.28125 62.453125 31.5625 65.1875 
Q 28.859375 67.921875 25 67.921875 
z
M 25 74.21875 
Q 28.125 74.21875 31 73.015625 
Q 33.890625 71.828125 35.984375 69.578125 
Q 38.234375 67.390625 39.359375 64.59375 
Q 40.484375 61.8125 40.484375 58.59375 
Q 40.484375 52.15625 35.96875 47.6875 
Q 31.453125 43.21875 24.90625 43.21875 
Q 18.3125 43.21875 13.90625 47.609375 
Q 9.515625 52 9.515625 58.59375 
Q 9.515625 65.140625 14 69.671875 
Q 18.5 74.21875 25 74.21875 
z
" id="DejaVuSans-b0"/>
      <path d="M 25.390625 72.90625 
L 33.6875 72.90625 
L 8.296875 -9.28125 
L 0 -9.28125 
z
" id="DejaVuSans-2f"/>
     </defs>
     <g transform="translate(25.535937 260.16752)rotate(-90)scale(0.2 -0.2)">
      <use xlink:href="#DejaVuSans-56"/>
      <use x="68.298828" xlink:href="#DejaVuSans-65"/>
      <use x="129.822266" xlink:href="#DejaVuSans-6c"/>
      <use x="157.605469" xlink:href="#DejaVuSans-6f"/>
      <use x="218.787109" xlink:href="#DejaVuSans-63"/>
      <use x="273.767578" xlink:href="#DejaVuSans-69"/>
      <use x="301.550781" xlink:href="#DejaVuSans-74"/>
      <use x="340.759766" xlink:href="#DejaVuSans-79"/>
      <use x="399.939453" xlink:href="#DejaVuSans-20"/>
      <use x="431.726562" xlink:href="#DejaVuSans-28"/>
      <use x="470.740234" xlink:href="#DejaVuSans-b0"/>
      <use x="520.740234" xlink:href="#DejaVuSans-2f"/>
      <use x="554.431641" xlink:href="#DejaVuSans-73"/>
      <use x="606.53125" xlink:href="#DejaVuSans-29"/>
     </g>
    </g>
   </g>
   <g id="line2d_15">
    <path clip-path="url(#p115887b87f)" d="M 61.130733 190.747571 
L 61.8 185.882309 
L 62.469267 185.882309 
L 63.8078 195.612833 
L 64.477067 205.343357 
L 65.146333 219.939143 
L 65.8156 219.939143 
L 66.484867 195.612833 
L 67.154133 176.151785 
L 67.8234 181.017047 
L 68.492667 195.612833 
L 69.161933 205.343357 
L 71.169733 190.747571 
L 71.839 190.747571 
L 73.8468 205.343357 
L 74.516067 205.343357 
L 75.185333 200.478095 
L 75.8546 200.478095 
L 76.523867 205.343357 
L 77.193133 205.343357 
L 77.8624 200.478095 
L 78.531667 190.747571 
L 79.200933 185.882309 
L 79.8702 185.882309 
L 81.208733 205.343357 
L 81.878 195.612833 
L 82.547267 181.017047 
L 83.216533 176.151785 
L 83.8858 185.882309 
L 84.555067 190.747571 
L 85.224333 185.882309 
L 87.232133 185.882309 
L 87.9014 195.612833 
L 88.570667 215.073881 
L 89.239933 224.804405 
L 89.9092 219.939143 
L 90.578467 195.612833 
L 91.247733 176.151785 
L 91.917 181.017047 
L 92.586267 190.747571 
L 93.255533 190.747571 
L 94.594067 181.017047 
L 96.601867 181.017047 
L 97.271133 185.882309 
L 97.9404 185.882309 
L 99.278933 195.612833 
L 99.9482 195.612833 
L 100.617467 205.343357 
L 101.286733 219.939143 
L 101.956 215.073881 
L 103.294533 176.151785 
L 103.9638 171.286523 
L 104.633067 176.151785 
L 105.302333 176.151785 
L 105.9716 171.286523 
L 106.640867 171.286523 
L 107.310133 181.017047 
L 108.648667 190.747571 
L 109.9872 210.208619 
L 110.656467 210.208619 
L 111.995 190.747571 
L 112.664267 190.747571 
L 113.333533 195.612833 
L 114.0028 190.747571 
L 114.672067 176.151785 
L 115.341333 166.421261 
L 116.0106 166.421261 
L 116.679867 181.017047 
L 117.349133 190.747571 
L 119.356933 190.747571 
L 120.0262 195.612833 
L 121.364733 195.612833 
L 122.034 200.478095 
L 122.703267 190.747571 
L 123.372533 171.286523 
L 124.0418 171.286523 
L 124.711067 190.747571 
L 125.380333 205.343357 
L 126.718867 195.612833 
L 127.388133 195.612833 
L 128.726667 185.882309 
L 130.0652 195.612833 
L 135.419333 195.612833 
L 136.0886 190.747571 
L 137.427133 200.478095 
L 138.765667 190.747571 
L 139.434933 190.747571 
L 140.773467 210.208619 
L 141.442733 210.208619 
L 142.112 200.478095 
L 142.781267 195.612833 
L 144.1198 195.612833 
L 145.458333 185.882309 
L 147.466133 200.478095 
L 149.473933 200.478095 
L 150.1432 205.343357 
L 150.812467 205.343357 
L 151.481733 200.478095 
L 152.151 200.478095 
L 152.820267 195.612833 
L 154.828067 195.612833 
L 156.1666 215.073881 
L 156.835867 215.073881 
L 158.1744 185.882309 
L 158.843667 185.882309 
L 159.512933 181.017047 
L 160.1822 181.017047 
L 161.520733 200.478095 
L 162.19 195.612833 
L 162.859267 185.882309 
L 163.528533 190.747571 
L 164.867067 219.939143 
L 165.536333 215.073881 
L 166.2056 200.478095 
L 166.874867 200.478095 
L 167.544133 205.343357 
L 168.2134 200.478095 
L 168.882667 185.882309 
L 169.551933 181.017047 
L 170.890467 190.747571 
L 171.559733 200.478095 
L 172.229 205.343357 
L 172.898267 205.343357 
L 173.567533 200.478095 
L 174.2368 190.747571 
L 174.906067 190.747571 
L 175.575333 195.612833 
L 176.2446 195.612833 
L 176.913867 185.882309 
L 177.583133 181.017047 
L 178.2524 190.747571 
L 179.590933 200.478095 
L 180.2602 200.478095 
L 180.929467 195.612833 
L 181.598733 205.343357 
L 182.268 200.478095 
L 182.937267 185.882309 
L 183.606533 176.151785 
L 184.2758 176.151785 
L 184.945067 190.747571 
L 186.2836 190.747571 
L 188.2914 219.939143 
L 188.960667 210.208619 
L 189.629933 195.612833 
L 190.2992 195.612833 
L 190.968467 200.478095 
L 191.637733 200.478095 
L 192.307 185.882309 
L 192.976267 181.017047 
L 194.3148 200.478095 
L 194.984067 205.343357 
L 195.653333 190.747571 
L 196.3226 171.286523 
L 196.991867 171.286523 
L 198.3304 200.478095 
L 199.668933 190.747571 
L 200.3382 195.612833 
L 201.007467 185.882309 
L 201.676733 181.017047 
L 202.346 190.747571 
L 203.015267 195.612833 
L 203.684533 185.882309 
L 204.3538 171.286523 
L 205.023067 171.286523 
L 206.3616 210.208619 
L 207.030867 215.073881 
L 207.700133 215.073881 
L 208.3694 195.612833 
L 209.038667 181.017047 
L 209.707933 181.017047 
L 211.046467 190.747571 
L 211.715733 190.747571 
L 213.054267 200.478095 
L 214.3928 219.939143 
L 215.062067 219.939143 
L 215.731333 210.208619 
L 217.069867 181.017047 
L 217.739133 176.151785 
L 219.077667 205.343357 
L 219.746933 190.747571 
L 220.4162 171.286523 
L 221.085467 166.421261 
L 221.754733 176.151785 
L 222.424 190.747571 
L 223.762533 239.400191 
L 224.4318 224.804405 
L 225.101067 185.882309 
L 225.770333 161.555999 
L 226.4396 181.017047 
L 227.108867 210.208619 
L 227.778133 215.073881 
L 228.4474 210.208619 
L 229.116667 210.208619 
L 229.785933 205.343357 
L 231.124467 166.421261 
L 231.793733 161.555999 
L 233.132267 200.478095 
L 233.801533 200.478095 
L 234.4708 195.612833 
L 235.140067 195.612833 
L 235.809333 205.343357 
L 236.4786 219.939143 
L 237.147867 224.804405 
L 237.817133 205.343357 
L 238.4864 176.151785 
L 239.155667 171.286523 
L 239.824933 185.882309 
L 240.4942 195.612833 
L 241.163467 200.478095 
L 241.832733 200.478095 
L 242.502 195.612833 
L 245.179067 195.612833 
L 245.848333 190.747571 
L 247.856133 161.555999 
L 248.5254 166.421261 
L 249.194667 181.017047 
L 249.863933 185.882309 
L 250.5332 195.612833 
L 251.202467 210.208619 
L 251.871733 219.939143 
L 252.541 210.208619 
L 253.210267 190.747571 
L 253.879533 190.747571 
L 254.5488 195.612833 
L 255.887333 195.612833 
L 256.5566 190.747571 
L 259.233667 190.747571 
L 259.902933 185.882309 
L 261.241467 185.882309 
L 263.249267 200.478095 
L 263.918533 200.478095 
L 264.5878 190.747571 
L 265.257067 190.747571 
L 267.264867 205.343357 
L 267.934133 200.478095 
L 269.272667 171.286523 
L 269.941933 181.017047 
L 270.6112 200.478095 
L 271.280467 210.208619 
L 271.949733 205.343357 
L 272.619 185.882309 
L 273.288267 176.151785 
L 273.957533 176.151785 
L 275.296067 195.612833 
L 275.965333 195.612833 
L 277.303867 205.343357 
L 277.973133 205.343357 
L 278.6424 200.478095 
L 279.311667 185.882309 
L 279.980933 181.017047 
L 280.6502 190.747571 
L 281.319467 205.343357 
L 281.988733 215.073881 
L 282.658 195.612833 
L 283.327267 181.017047 
L 283.996533 181.017047 
L 284.6658 185.882309 
L 285.335067 195.612833 
L 287.342867 195.612833 
L 288.012133 190.747571 
L 288.6814 190.747571 
L 289.350667 195.612833 
L 290.6892 176.151785 
L 291.358467 190.747571 
L 292.027733 215.073881 
L 292.697 219.939143 
L 293.366267 195.612833 
L 294.035533 181.017047 
L 294.7048 190.747571 
L 295.374067 195.612833 
L 296.043333 195.612833 
L 296.7126 190.747571 
L 297.381867 181.017047 
L 298.051133 176.151785 
L 298.7204 195.612833 
L 299.389667 210.208619 
L 300.058933 205.343357 
L 300.7282 205.343357 
L 302.066733 195.612833 
L 302.736 200.478095 
L 303.405267 210.208619 
L 304.074533 210.208619 
L 305.413067 190.747571 
L 306.082333 185.882309 
L 308.090133 200.478095 
L 309.428667 200.478095 
L 310.097933 205.343357 
L 310.7672 195.612833 
L 311.436467 181.017047 
L 312.105733 176.151785 
L 313.444267 176.151785 
L 314.113533 195.612833 
L 314.7828 219.939143 
L 315.452067 219.939143 
L 316.121333 200.478095 
L 316.7906 190.747571 
L 317.459867 205.343357 
L 318.129133 210.208619 
L 319.467667 190.747571 
L 320.136933 185.882309 
L 321.475467 205.343357 
L 322.144733 200.478095 
L 322.814 181.017047 
L 323.483267 171.286523 
L 324.152533 176.151785 
L 324.8218 185.882309 
L 325.491067 190.747571 
L 326.160333 190.747571 
L 327.498867 200.478095 
L 328.168133 200.478095 
L 328.8374 195.612833 
L 329.506667 200.478095 
L 331.514467 200.478095 
L 332.183733 195.612833 
L 334.8608 195.612833 
L 335.530067 190.747571 
L 336.199333 190.747571 
L 337.537867 181.017047 
L 338.8764 210.208619 
L 339.545667 215.073881 
L 340.8842 195.612833 
L 344.230533 195.612833 
L 344.8998 190.747571 
L 345.569067 190.747571 
L 346.9076 200.478095 
L 347.576867 195.612833 
L 348.246133 185.882309 
L 348.9154 181.017047 
L 349.584667 185.882309 
L 350.253933 200.478095 
L 351.592467 210.208619 
L 352.261733 205.343357 
L 352.931 195.612833 
L 356.277333 195.612833 
L 356.9466 190.747571 
L 358.285133 200.478095 
L 358.9544 190.747571 
L 360.292933 181.017047 
L 360.9622 185.882309 
L 361.631467 195.612833 
L 363.639267 195.612833 
L 364.308533 176.151785 
L 364.9778 161.555999 
L 365.647067 171.286523 
L 366.316333 190.747571 
L 366.9856 215.073881 
L 367.654867 219.939143 
L 368.9934 200.478095 
L 369.662667 200.478095 
L 370.331933 195.612833 
L 371.0012 185.882309 
L 371.670467 181.017047 
L 372.339733 181.017047 
L 375.686067 205.343357 
L 376.355333 205.343357 
L 377.0246 195.612833 
L 377.693867 176.151785 
L 378.363133 166.421261 
L 379.0324 176.151785 
L 379.701667 190.747571 
L 380.370933 195.612833 
L 383.048 195.612833 
L 383.717267 190.747571 
L 384.386533 181.017047 
L 385.0558 181.017047 
L 385.725067 185.882309 
L 387.0636 205.343357 
L 388.402133 185.882309 
L 389.740667 176.151785 
L 390.409933 181.017047 
L 391.0792 190.747571 
L 391.748467 190.747571 
L 392.417733 185.882309 
L 393.087 190.747571 
L 393.756267 190.747571 
L 394.425533 185.882309 
L 395.0948 185.882309 
L 395.764067 195.612833 
L 396.433333 200.478095 
L 397.1026 200.478095 
L 397.771867 205.343357 
L 398.441133 205.343357 
L 399.1104 195.612833 
L 399.779667 190.747571 
L 400.448933 195.612833 
L 401.787467 185.882309 
L 403.126 205.343357 
L 403.795267 205.343357 
L 404.464533 195.612833 
L 405.1338 190.747571 
L 407.1416 205.343357 
L 408.480133 195.612833 
L 409.1494 176.151785 
L 409.818667 161.555999 
L 410.487933 161.555999 
L 411.1572 176.151785 
L 411.826467 195.612833 
L 413.165 224.804405 
L 413.834267 219.939143 
L 415.1728 200.478095 
L 415.842067 185.882309 
L 416.511333 181.017047 
L 417.1806 181.017047 
L 417.849867 190.747571 
L 418.519133 205.343357 
L 419.1884 195.612833 
L 420.526933 185.882309 
L 421.1962 166.421261 
L 421.865467 161.555999 
L 422.534733 176.151785 
L 423.204 205.343357 
L 423.873267 219.939143 
L 424.542533 205.343357 
L 425.2118 200.478095 
L 425.881067 205.343357 
L 426.550333 195.612833 
L 427.2196 181.017047 
L 427.888867 176.151785 
L 428.558133 176.151785 
L 429.2274 185.882309 
L 429.896667 200.478095 
L 430.565933 210.208619 
L 431.2352 215.073881 
L 431.904467 210.208619 
L 433.243 190.747571 
L 433.912267 185.882309 
L 434.581533 185.882309 
L 435.2508 190.747571 
L 435.920067 200.478095 
L 436.589333 200.478095 
L 437.927867 190.747571 
L 439.2664 190.747571 
L 439.935667 185.882309 
L 440.604933 200.478095 
L 441.2742 210.208619 
L 441.943467 205.343357 
L 442.612733 195.612833 
L 443.282 190.747571 
L 443.951267 195.612833 
L 444.620533 195.612833 
L 445.2898 190.747571 
L 445.959067 190.747571 
L 446.628333 195.612833 
L 447.966867 195.612833 
L 449.3054 215.073881 
L 449.974667 215.073881 
L 451.3132 176.151785 
L 451.982467 176.151785 
L 452.651733 185.882309 
L 453.321 200.478095 
L 453.990267 200.478095 
L 454.659533 195.612833 
L 455.3288 185.882309 
L 455.998067 171.286523 
L 456.667333 176.151785 
L 458.005867 205.343357 
L 458.675133 210.208619 
L 459.3444 210.208619 
L 460.682933 200.478095 
L 461.3522 210.208619 
L 462.021467 205.343357 
L 462.690733 205.343357 
L 463.36 215.073881 
L 464.029267 215.073881 
L 464.698533 205.343357 
L 465.3678 200.478095 
L 466.037067 210.208619 
L 466.706333 215.073881 
L 468.044867 195.612833 
L 469.3834 195.612833 
L 470.052667 200.478095 
L 470.721933 200.478095 
L 471.3912 195.612833 
L 472.060467 200.478095 
L 472.729733 200.478095 
L 473.399 205.343357 
L 474.068267 205.343357 
L 474.737533 190.747571 
L 476.076067 171.286523 
L 476.745333 181.017047 
L 477.4146 195.612833 
L 478.083867 190.747571 
L 478.753133 190.747571 
L 480.760933 205.343357 
L 481.4302 205.343357 
L 482.099467 200.478095 
L 482.768733 185.882309 
L 483.438 181.017047 
L 485.4458 210.208619 
L 486.115067 210.208619 
L 486.784333 200.478095 
L 487.4536 195.612833 
L 488.792133 195.612833 
L 490.130667 185.882309 
L 490.799933 185.882309 
L 491.4692 195.612833 
L 492.138467 190.747571 
L 492.807733 171.286523 
L 493.477 166.421261 
L 494.146267 181.017047 
L 494.815533 200.478095 
L 495.4848 200.478095 
L 496.154067 195.612833 
L 496.823333 200.478095 
L 497.4926 200.478095 
L 498.161867 185.882309 
L 498.831133 176.151785 
L 499.5004 181.017047 
L 500.169667 195.612833 
L 500.838933 205.343357 
L 501.5082 200.478095 
L 502.177467 185.882309 
L 502.846733 176.151785 
L 503.516 181.017047 
L 504.185267 181.017047 
L 504.854533 176.151785 
L 506.862333 176.151785 
L 507.5316 200.478095 
L 508.200867 219.939143 
L 508.870133 215.073881 
L 510.208667 195.612833 
L 510.877933 195.612833 
L 511.5472 190.747571 
L 512.885733 190.747571 
L 513.555 181.017047 
L 514.224267 176.151785 
L 514.893533 181.017047 
L 515.5628 190.747571 
L 516.232067 195.612833 
L 518.909133 195.612833 
L 519.5784 200.478095 
L 520.247667 210.208619 
L 520.916933 215.073881 
L 521.5862 215.073881 
L 522.255467 200.478095 
L 522.924733 181.017047 
L 523.594 176.151785 
L 524.932533 195.612833 
L 525.6018 195.612833 
L 526.271067 200.478095 
L 526.940333 195.612833 
L 527.6096 185.882309 
L 528.948133 185.882309 
L 530.286667 205.343357 
L 530.955933 210.208619 
L 532.294467 200.478095 
L 532.963733 205.343357 
L 533.633 200.478095 
L 534.302267 190.747571 
L 534.971533 190.747571 
L 535.6408 195.612833 
L 536.310067 195.612833 
L 537.6486 176.151785 
L 538.317867 181.017047 
L 538.987133 195.612833 
L 539.6564 195.612833 
L 540.325667 190.747571 
L 540.994933 190.747571 
L 541.6642 185.882309 
L 542.333467 190.747571 
L 543.002733 200.478095 
L 544.341267 210.208619 
L 545.010533 205.343357 
L 546.349067 176.151785 
L 547.018333 171.286523 
L 547.6876 176.151785 
L 548.356867 190.747571 
L 549.026133 200.478095 
L 549.6954 195.612833 
L 550.364667 195.612833 
L 551.033933 185.882309 
L 551.7032 181.017047 
L 553.041733 190.747571 
L 553.711 200.478095 
L 554.380267 200.478095 
L 555.049533 195.612833 
L 555.7188 195.612833 
L 556.388067 200.478095 
L 557.057333 195.612833 
L 557.7266 185.882309 
L 558.395867 185.882309 
L 559.065133 190.747571 
L 559.7344 200.478095 
L 561.072933 200.478095 
L 561.7422 190.747571 
L 562.411467 171.286523 
L 563.080733 171.286523 
L 563.75 185.882309 
L 564.419267 195.612833 
L 565.7578 205.343357 
L 567.096333 205.343357 
L 568.434867 195.612833 
L 569.104133 195.612833 
L 570.442667 205.343357 
L 571.111933 185.882309 
L 571.7812 161.555999 
L 572.450467 156.690737 
L 573.119733 171.286523 
L 573.789 190.747571 
L 574.458267 200.478095 
L 575.127533 200.478095 
L 576.466067 181.017047 
L 578.473867 195.612833 
L 579.143133 195.612833 
L 579.8124 190.747571 
L 580.481667 195.612833 
L 581.150933 205.343357 
L 581.8202 210.208619 
L 583.158733 171.286523 
L 583.828 171.286523 
L 584.497267 190.747571 
L 585.166533 200.478095 
L 585.8358 195.612833 
L 586.505067 200.478095 
L 587.8436 181.017047 
L 588.512867 181.017047 
L 589.182133 190.747571 
L 589.8514 205.343357 
L 591.189933 195.612833 
L 591.8592 195.612833 
L 593.197733 185.882309 
L 593.867 185.882309 
L 594.536267 190.747571 
L 595.8748 210.208619 
L 596.544067 200.478095 
L 597.213333 181.017047 
L 597.8826 171.286523 
L 598.551867 181.017047 
L 599.221133 205.343357 
L 599.8904 210.208619 
L 601.8982 181.017047 
L 602.567467 181.017047 
L 603.236733 190.747571 
L 603.906 190.747571 
L 604.575267 185.882309 
L 605.244533 185.882309 
L 606.583067 195.612833 
L 607.252333 195.612833 
L 607.9216 190.747571 
L 608.590867 190.747571 
L 609.260133 195.612833 
L 609.9294 195.612833 
L 611.267933 185.882309 
L 611.9372 185.882309 
L 612.606467 190.747571 
L 613.945 190.747571 
L 614.614267 205.343357 
L 615.283533 215.073881 
L 615.9528 215.073881 
L 616.622067 205.343357 
L 617.291333 190.747571 
L 617.9606 185.882309 
L 619.9684 200.478095 
L 620.637667 210.208619 
L 621.306933 195.612833 
L 621.9762 176.151785 
L 622.645467 171.286523 
L 623.984 190.747571 
L 624.653267 190.747571 
L 626.661067 205.343357 
L 627.330333 200.478095 
L 627.9996 190.747571 
L 628.668867 185.882309 
L 629.338133 185.882309 
L 630.0074 190.747571 
L 631.345933 210.208619 
L 632.0152 215.073881 
L 632.684467 205.343357 
L 633.353733 200.478095 
L 634.023 200.478095 
L 635.361533 210.208619 
L 637.369333 166.421261 
L 638.0386 161.555999 
L 639.377133 190.747571 
L 640.0464 195.612833 
L 641.384933 195.612833 
L 642.0542 200.478095 
L 643.392733 200.478095 
L 644.062 195.612833 
L 644.731267 185.882309 
L 645.400533 185.882309 
L 646.0698 200.478095 
L 646.739067 219.939143 
L 647.408333 219.939143 
L 648.746867 171.286523 
L 649.416133 176.151785 
L 650.0854 190.747571 
L 650.754667 200.478095 
L 651.423933 200.478095 
L 652.762467 210.208619 
L 653.431733 200.478095 
L 654.101 195.612833 
L 654.770267 200.478095 
L 655.439533 195.612833 
L 656.1088 166.421261 
L 656.778067 146.960212 
L 657.447333 151.825475 
L 658.785867 190.747571 
L 660.1244 200.478095 
L 660.793667 200.478095 
L 662.801467 185.882309 
L 663.470733 190.747571 
L 664.14 200.478095 
L 664.809267 205.343357 
L 665.478533 190.747571 
L 666.1478 171.286523 
L 666.817067 166.421261 
L 667.486333 176.151785 
L 668.1556 190.747571 
L 668.824867 200.478095 
L 669.494133 205.343357 
L 670.1634 200.478095 
L 671.501933 200.478095 
L 672.1712 190.747571 
L 672.840467 190.747571 
L 673.509733 195.612833 
L 674.848267 195.612833 
L 675.517533 190.747571 
L 676.1868 190.747571 
L 676.856067 195.612833 
L 678.863867 195.612833 
L 680.2024 205.343357 
L 680.871667 200.478095 
L 681.540933 205.343357 
L 682.879467 224.804405 
L 683.548733 224.804405 
L 684.887267 176.151785 
L 685.556533 171.286523 
L 686.895067 190.747571 
L 687.564333 195.612833 
L 688.902867 195.612833 
M 725.712533 239.400191 
L 726.3818 224.804405 
L 727.051067 205.343357 
L 727.720333 224.804405 
L 728.3896 249.130715 
L 729.058867 258.861239 
L 729.728133 239.400191 
L 730.3974 215.073881 
L 731.066667 224.804405 
L 731.735933 244.265453 
L 732.4052 249.130715 
L 733.074467 239.400191 
L 733.743733 234.534929 
L 734.413 234.534929 
L 735.751533 224.804405 
L 736.4208 234.534929 
L 737.090067 253.995977 
L 737.759333 253.995977 
L 738.4286 234.534929 
L 739.097867 229.669667 
L 739.767133 263.726501 
L 740.4364 283.18755 
L 741.105667 273.457026 
L 741.774933 253.995977 
L 742.4442 249.130715 
L 743.113467 253.995977 
L 743.782733 234.534929 
L 744.452 229.669667 
L 745.121267 244.265453 
L 745.790533 249.130715 
L 746.4598 249.130715 
L 747.129067 263.726501 
L 747.798333 268.591764 
L 748.4676 263.726501 
L 751.144667 224.804405 
L 751.813933 224.804405 
L 752.4832 229.669667 
L 753.152467 239.400191 
L 753.821733 258.861239 
L 754.491 258.861239 
L 755.160267 244.265453 
L 755.829533 224.804405 
L 756.4988 215.073881 
L 757.168067 219.939143 
L 759.175867 219.939143 
L 759.845133 239.400191 
L 760.5144 268.591764 
L 761.183667 268.591764 
L 761.852933 239.400191 
L 762.5222 205.343357 
L 763.191467 205.343357 
L 763.860733 234.534929 
L 764.53 239.400191 
L 765.199267 215.073881 
L 765.868533 210.208619 
L 766.5378 224.804405 
L 767.207067 229.669667 
L 767.876333 229.669667 
L 768.5456 224.804405 
L 769.884133 224.804405 
L 770.5534 239.400191 
L 771.222667 273.457026 
L 771.891933 283.18755 
L 772.5612 268.591764 
L 773.230467 244.265453 
L 773.899733 215.073881 
L 774.569 215.073881 
L 775.907533 224.804405 
L 776.5768 224.804405 
L 777.246067 229.669667 
L 777.915333 229.669667 
L 778.5846 234.534929 
L 779.253867 258.861239 
L 779.923133 263.726501 
L 780.5924 244.265453 
L 781.261667 229.669667 
L 781.930933 229.669667 
L 782.6002 244.265453 
M 811.378667 288.052812 
L 812.047933 278.322288 
L 812.7172 273.457026 
L 813.386467 263.726501 
L 814.055733 234.534929 
L 814.725 215.073881 
L 815.394267 210.208619 
L 816.063533 239.400191 
L 816.7328 253.995977 
L 817.402067 263.726501 
L 818.071333 253.995977 
L 819.409867 224.804405 
L 820.079133 234.534929 
L 821.417667 317.244384 
L 822.086933 307.51386 
L 823.425467 244.265453 
L 824.094733 229.669667 
L 824.764 249.130715 
L 825.433267 253.995977 
L 826.102533 263.726501 
L 827.441067 263.726501 
L 828.110333 244.265453 
L 828.7796 229.669667 
L 829.448867 234.534929 
L 830.118133 253.995977 
L 830.7874 278.322288 
L 831.456667 278.322288 
L 832.125933 258.861239 
L 832.7952 249.130715 
L 833.464467 283.18755 
L 834.133733 307.51386 
L 834.803 307.51386 
L 835.472267 288.052812 
L 836.141533 278.322288 
L 836.8108 263.726501 
L 837.480067 244.265453 
L 838.149333 239.400191 
L 838.8186 244.265453 
L 839.487867 258.861239 
L 840.157133 268.591764 
L 841.495667 239.400191 
L 842.8342 278.322288 
L 843.503467 263.726501 
L 844.172733 234.534929 
L 844.842 234.534929 
L 845.511267 268.591764 
L 846.180533 278.322288 
L 846.8498 258.861239 
L 847.519067 249.130715 
L 848.8576 239.400191 
L 849.526867 239.400191 
L 850.196133 244.265453 
L 850.8654 253.995977 
L 851.534667 244.265453 
L 852.203933 215.073881 
L 852.8732 205.343357 
L 853.542467 215.073881 
L 854.211733 234.534929 
L 854.881 239.400191 
L 855.550267 224.804405 
L 856.219533 205.343357 
L 856.8888 229.669667 
L 857.558067 258.861239 
L 858.227333 273.457026 
L 858.8966 253.995977 
L 859.565867 224.804405 
L 860.235133 244.265453 
L 860.9044 253.995977 
L 861.573667 268.591764 
L 862.242933 263.726501 
L 862.9122 253.995977 
L 864.250733 253.995977 
L 864.92 268.591764 
L 865.589267 263.726501 
L 866.258533 249.130715 
L 866.9278 229.669667 
L 867.597067 229.669667 
L 868.266333 224.804405 
L 868.9356 205.343357 
L 869.604867 215.073881 
L 870.274133 229.669667 
L 870.9434 249.130715 
L 871.612667 253.995977 
L 872.281933 239.400191 
L 872.9512 239.400191 
L 873.620467 234.534929 
L 874.289733 239.400191 
L 874.959 249.130715 
L 875.628267 249.130715 
L 876.297533 239.400191 
L 876.9668 234.534929 
L 877.636067 239.400191 
L 878.305333 239.400191 
L 878.9746 253.995977 
L 879.643867 278.322288 
L 880.313133 283.18755 
L 881.651667 273.457026 
L 882.320933 258.861239 
L 882.9902 249.130715 
L 883.659467 253.995977 
L 884.328733 263.726501 
L 884.998 263.726501 
L 885.667267 258.861239 
L 886.336533 263.726501 
L 887.0058 278.322288 
L 887.675067 283.18755 
L 888.344333 268.591764 
L 889.0136 249.130715 
L 889.682867 258.861239 
L 890.352133 273.457026 
L 891.0214 283.18755 
L 891.690667 283.18755 
L 892.359933 268.591764 
L 893.0292 249.130715 
L 893.698467 244.265453 
L 894.367733 268.591764 
M 921.807667 253.995977 
L 922.476933 244.265453 
L 923.1462 253.995977 
L 923.815467 268.591764 
L 924.484733 253.995977 
L 925.154 219.939143 
L 925.823267 205.343357 
L 926.492533 229.669667 
L 927.1618 239.400191 
L 928.500333 219.939143 
L 929.1696 234.534929 
L 929.838867 244.265453 
L 930.508133 234.534929 
L 931.1774 219.939143 
L 931.846667 224.804405 
L 932.515933 273.457026 
L 933.1852 297.783336 
L 933.854467 283.18755 
L 934.523733 244.265453 
L 935.193 229.669667 
L 935.862267 239.400191 
L 936.531533 239.400191 
L 937.2008 263.726501 
L 937.870067 283.18755 
L 938.539333 288.052812 
L 939.877867 258.861239 
L 940.547133 278.322288 
L 941.2164 283.18755 
L 942.554933 263.726501 
L 943.2242 263.726501 
L 943.893467 283.18755 
L 944.562733 297.783336 
L 945.232 297.783336 
L 946.570533 258.861239 
L 947.909067 249.130715 
L 948.578333 268.591764 
L 949.2476 283.18755 
L 949.916867 273.457026 
L 950.586133 253.995977 
L 951.2554 239.400191 
L 951.924667 244.265453 
L 952.593933 253.995977 
L 953.2632 268.591764 
L 953.932467 253.995977 
L 954.601733 249.130715 
L 955.271 249.130715 
L 955.940267 253.995977 
L 956.609533 263.726501 
L 957.2788 258.861239 
L 957.948067 244.265453 
L 958.617333 215.073881 
L 959.2866 224.804405 
L 959.955867 249.130715 
L 960.625133 258.861239 
L 961.2944 244.265453 
L 961.963667 234.534929 
L 962.632933 239.400191 
L 963.3022 239.400191 
L 963.971467 234.534929 
L 964.640733 219.939143 
L 965.31 219.939143 
L 965.979267 229.669667 
L 966.648533 244.265453 
L 967.3178 249.130715 
L 967.987067 249.130715 
L 968.656333 244.265453 
L 969.3256 263.726501 
L 969.994867 292.918074 
L 970.664133 288.052812 
L 971.3334 249.130715 
L 972.002667 219.939143 
L 972.671933 224.804405 
L 973.3412 239.400191 
L 974.010467 234.534929 
L 974.679733 219.939143 
L 975.349 244.265453 
L 976.018267 273.457026 
L 976.687533 288.052812 
L 977.3568 258.861239 
L 978.026067 215.073881 
L 978.695333 219.939143 
L 980.033867 239.400191 
L 980.703133 244.265453 
L 981.3724 253.995977 
L 982.041667 253.995977 
L 982.710933 244.265453 
L 983.3802 244.265453 
L 984.049467 239.400191 
L 984.718733 244.265453 
L 986.057267 244.265453 
L 986.726533 234.534929 
L 987.3958 215.073881 
L 988.065067 219.939143 
L 988.734333 244.265453 
L 989.4036 263.726501 
L 990.072867 263.726501 
L 990.742133 239.400191 
L 991.4114 229.669667 
L 992.080667 224.804405 
L 992.749933 210.208619 
L 993.4192 210.208619 
L 994.088467 219.939143 
L 994.757733 253.995977 
L 995.427 278.322288 
L 996.096267 283.18755 
L 996.765533 263.726501 
L 997.4348 224.804405 
L 998.104067 210.208619 
L 998.773333 229.669667 
L 999.4426 258.861239 
L 1000.111867 273.457026 
L 1000.781133 258.861239 
L 1001.4504 234.534929 
L 1002.119667 229.669667 
L 1002.788933 229.669667 
L 1003.4582 244.265453 
L 1004.127467 244.265453 
L 1004.796733 224.804405 
L 1005.466 219.939143 
L 1006.135267 224.804405 
L 1006.804533 249.130715 
L 1007.4738 283.18755 
L 1008.143067 288.052812 
L 1008.812333 278.322288 
L 1009.4816 273.457026 
L 1010.150867 297.783336 
L 1010.820133 297.783336 
L 1013.4972 239.400191 
L 1014.166467 249.130715 
L 1014.835733 278.322288 
L 1015.505 288.052812 
L 1016.174267 278.322288 
L 1016.843533 244.265453 
L 1017.5128 234.534929 
L 1018.182067 244.265453 
L 1018.851333 258.861239 
L 1019.5206 244.265453 
L 1020.189867 219.939143 
L 1020.859133 215.073881 
L 1021.5284 229.669667 
L 1022.197667 258.861239 
L 1022.866933 268.591764 
L 1023.5362 263.726501 
L 1024.205467 253.995977 
L 1024.874733 234.534929 
L 1025.544 219.939143 
L 1026.213267 210.208619 
L 1026.882533 210.208619 
L 1028.221067 249.130715 
L 1028.890333 253.995977 
L 1029.5596 249.130715 
L 1030.228867 253.995977 
L 1030.898133 273.457026 
L 1031.5674 268.591764 
L 1032.905933 219.939143 
L 1033.5752 210.208619 
L 1034.244467 224.804405 
L 1034.913733 229.669667 
L 1035.583 215.073881 
L 1036.252267 229.669667 
L 1036.921533 278.322288 
L 1037.5908 302.648598 
L 1038.260067 278.322288 
L 1038.929333 234.534929 
L 1039.5986 239.400191 
L 1040.267867 253.995977 
L 1040.937133 263.726501 
L 1041.6064 263.726501 
L 1042.275667 249.130715 
L 1042.944933 244.265453 
L 1043.6142 249.130715 
L 1044.283467 263.726501 
L 1044.952733 244.265453 
L 1045.622 210.208619 
L 1046.291267 215.073881 
L 1046.960533 249.130715 
L 1047.6298 268.591764 
L 1048.299067 273.457026 
L 1048.968333 258.861239 
L 1050.306867 249.130715 
L 1051.6454 258.861239 
L 1052.983933 249.130715 
L 1053.6532 234.534929 
L 1054.322467 249.130715 
L 1054.991733 268.591764 
L 1055.661 268.591764 
L 1056.330267 239.400191 
L 1056.999533 215.073881 
L 1057.6688 224.804405 
L 1058.338067 249.130715 
L 1059.007333 253.995977 
L 1059.6766 249.130715 
L 1060.345867 234.534929 
L 1061.015133 234.534929 
L 1061.6844 253.995977 
L 1062.353667 288.052812 
L 1063.022933 307.51386 
L 1063.6922 288.052812 
L 1064.361467 253.995977 
L 1065.030733 229.669667 
L 1065.7 249.130715 
L 1066.369267 258.861239 
L 1066.369267 258.861239 
" style="fill:none;opacity:0.4;stroke:#000000;stroke-linecap:square;stroke-width:1.5;"/>
   </g>
   <g id="patch_9">
    <path d="M 61.8 335.972132 
L 61.8 55.253534 
" style="fill:none;stroke:#000000;stroke-linecap:square;stroke-linejoin:miter;stroke-width:0.8;"/>
   </g>
   <g id="patch_10">
    <path d="M 1065.7 335.972132 
L 1065.7 55.253534 
" style="fill:none;stroke:#000000;stroke-linecap:square;stroke-linejoin:miter;stroke-width:0.8;"/>
   </g>
   <g id="patch_11">
    <path d="M 61.8 335.972132 
L 1065.7 335.972132 
" style="fill:none;stroke:#000000;stroke-linecap:square;stroke-linejoin:miter;stroke-width:0.8;"/>
   </g>
   <g id="patch_12">
    <path d="M 61.8 55.253534 
L 1065.7 55.253534 
" style="fill:none;stroke:#000000;stroke-linecap:square;stroke-linejoin:miter;stroke-width:0.8;"/>
   </g>
   <g id="text_10">
    <!-- Eye Movement -->
    <defs>
     <path d="M 9.8125 72.90625 
L 55.90625 72.90625 
L 55.90625 64.59375 
L 19.671875 64.59375 
L 19.671875 43.015625 
L 54.390625 43.015625 
L 54.390625 34.71875 
L 19.671875 34.71875 
L 19.671875 8.296875 
L 56.78125 8.296875 
L 56.78125 0 
L 9.8125 0 
z
" id="DejaVuSans-45"/>
     <path d="M 9.8125 72.90625 
L 24.515625 72.90625 
L 43.109375 23.296875 
L 61.8125 72.90625 
L 76.515625 72.90625 
L 76.515625 0 
L 66.890625 0 
L 66.890625 64.015625 
L 48.09375 14.015625 
L 38.1875 14.015625 
L 19.390625 64.015625 
L 19.390625 0 
L 9.8125 0 
z
" id="DejaVuSans-4d"/>
     <path d="M 2.984375 54.6875 
L 12.5 54.6875 
L 29.59375 8.796875 
L 46.6875 54.6875 
L 56.203125 54.6875 
L 35.6875 0 
L 23.484375 0 
z
" id="DejaVuSans-76"/>
     <path d="M 54.890625 33.015625 
L 54.890625 0 
L 45.90625 0 
L 45.90625 32.71875 
Q 45.90625 40.484375 42.875 44.328125 
Q 39.84375 48.1875 33.796875 48.1875 
Q 26.515625 48.1875 22.3125 43.546875 
Q 18.109375 38.921875 18.109375 30.90625 
L 18.109375 0 
L 9.078125 0 
L 9.078125 54.6875 
L 18.109375 54.6875 
L 18.109375 46.1875 
Q 21.34375 51.125 25.703125 53.5625 
Q 30.078125 56 35.796875 56 
Q 45.21875 56 50.046875 50.171875 
Q 54.890625 44.34375 54.890625 33.015625 
z
" id="DejaVuSans-6e"/>
    </defs>
    <g transform="translate(433.306641 35.217604)scale(0.35 -0.35)">
     <use xlink:href="#DejaVuSans-45"/>
     <use x="63.183594" xlink:href="#DejaVuSans-79"/>
     <use x="122.363281" xlink:href="#DejaVuSans-65"/>
     <use x="183.886719" xlink:href="#DejaVuSans-20"/>
     <use x="215.673828" xlink:href="#DejaVuSans-4d"/>
     <use x="301.953125" xlink:href="#DejaVuSans-6f"/>
     <use x="363.134766" xlink:href="#DejaVuSans-76"/>
     <use x="422.314453" xlink:href="#DejaVuSans-65"/>
     <use x="483.837891" xlink:href="#DejaVuSans-6d"/>
     <use x="581.25" xlink:href="#DejaVuSans-65"/>
     <use x="642.773438" xlink:href="#DejaVuSans-6e"/>
     <use x="706.152344" xlink:href="#DejaVuSans-74"/>
    </g>
   </g>
  </g>
  <g id="axes_2">
   <g id="patch_13">
    <path d="M 61.8 616.690729 
L 1065.7 616.690729 
L 1065.7 335.972132 
L 61.8 335.972132 
z
" style="fill:#ffffff;"/>
   </g>
   <g id="patch_14">
    <path clip-path="url(#pa766f974e3)" d="M -27.881733 616.690729 
L -27.881733 335.972132 
L 362.300733 335.972132 
L 362.300733 616.690729 
z
" style="opacity:0.2;stroke:#000000;stroke-linejoin:miter;"/>
   </g>
   <g id="patch_15">
    <path clip-path="url(#pa766f974e3)" d="M 362.300733 616.690729 
L 362.300733 335.972132 
L 563.75 335.972132 
L 563.75 616.690729 
z
" style="fill:#ff0000;opacity:0.2;stroke:#ff0000;stroke-linejoin:miter;"/>
   </g>
   <g id="patch_16">
    <path clip-path="url(#pa766f974e3)" d="M 563.75 616.690729 
L 563.75 335.972132 
L 1087.7858 335.972132 
L 1087.7858 616.690729 
z
" style="opacity:0.15;stroke:#000000;stroke-linejoin:miter;"/>
   </g>
   <g id="patch_17">
    <path clip-path="url(#pa766f974e3)" d="M 702.2882 616.690729 
L 702.2882 335.972132 
L 725.043267 335.972132 
L 725.043267 616.690729 
z
" style="opacity:0.15;stroke:#000000;stroke-linejoin:miter;"/>
   </g>
   <g id="patch_18">
    <path clip-path="url(#pa766f974e3)" d="M 810.040133 616.690729 
L 810.040133 335.972132 
L 824.094733 335.972132 
L 824.094733 616.690729 
z
" style="opacity:0.15;stroke:#000000;stroke-linejoin:miter;"/>
   </g>
   <g id="matplotlib.axis_3">
    <g id="xtick_8">
     <g id="line2d_16">
      <g>
       <use style="stroke:#000000;stroke-width:0.8;" x="162.19" xlink:href="#m6176e40aab" y="616.690729"/>
      </g>
     </g>
     <g id="text_11">
      <!-- −600 -->
      <defs>
       <path d="M 33.015625 40.375 
Q 26.375 40.375 22.484375 35.828125 
Q 18.609375 31.296875 18.609375 23.390625 
Q 18.609375 15.53125 22.484375 10.953125 
Q 26.375 6.390625 33.015625 6.390625 
Q 39.65625 6.390625 43.53125 10.953125 
Q 47.40625 15.53125 47.40625 23.390625 
Q 47.40625 31.296875 43.53125 35.828125 
Q 39.65625 40.375 33.015625 40.375 
z
M 52.59375 71.296875 
L 52.59375 62.3125 
Q 48.875 64.0625 45.09375 64.984375 
Q 41.3125 65.921875 37.59375 65.921875 
Q 27.828125 65.921875 22.671875 59.328125 
Q 17.53125 52.734375 16.796875 39.40625 
Q 19.671875 43.65625 24.015625 45.921875 
Q 28.375 48.1875 33.59375 48.1875 
Q 44.578125 48.1875 50.953125 41.515625 
Q 57.328125 34.859375 57.328125 23.390625 
Q 57.328125 12.15625 50.6875 5.359375 
Q 44.046875 -1.421875 33.015625 -1.421875 
Q 20.359375 -1.421875 13.671875 8.265625 
Q 6.984375 17.96875 6.984375 36.375 
Q 6.984375 53.65625 15.1875 63.9375 
Q 23.390625 74.21875 37.203125 74.21875 
Q 40.921875 74.21875 44.703125 73.484375 
Q 48.484375 72.75 52.59375 71.296875 
z
" id="DejaVuSans-36"/>
      </defs>
      <g transform="translate(148.456406 631.289167)scale(0.1 -0.1)">
       <use xlink:href="#DejaVuSans-2212"/>
       <use x="83.789062" xlink:href="#DejaVuSans-36"/>
       <use x="147.412109" xlink:href="#DejaVuSans-30"/>
       <use x="211.035156" xlink:href="#DejaVuSans-30"/>
      </g>
     </g>
    </g>
    <g id="xtick_9">
     <g id="line2d_17">
      <g>
       <use style="stroke:#000000;stroke-width:0.8;" x="296.043333" xlink:href="#m6176e40aab" y="616.690729"/>
      </g>
     </g>
     <g id="text_12">
      <!-- −400 -->
      <defs>
       <path d="M 37.796875 64.3125 
L 12.890625 25.390625 
L 37.796875 25.390625 
z
M 35.203125 72.90625 
L 47.609375 72.90625 
L 47.609375 25.390625 
L 58.015625 25.390625 
L 58.015625 17.1875 
L 47.609375 17.1875 
L 47.609375 0 
L 37.796875 0 
L 37.796875 17.1875 
L 4.890625 17.1875 
L 4.890625 26.703125 
z
" id="DejaVuSans-34"/>
      </defs>
      <g transform="translate(282.30974 631.289167)scale(0.1 -0.1)">
       <use xlink:href="#DejaVuSans-2212"/>
       <use x="83.789062" xlink:href="#DejaVuSans-34"/>
       <use x="147.412109" xlink:href="#DejaVuSans-30"/>
       <use x="211.035156" xlink:href="#DejaVuSans-30"/>
      </g>
     </g>
    </g>
    <g id="xtick_10">
     <g id="line2d_18">
      <g>
       <use style="stroke:#000000;stroke-width:0.8;" x="429.896667" xlink:href="#m6176e40aab" y="616.690729"/>
      </g>
     </g>
     <g id="text_13">
      <!-- −200 -->
      <g transform="translate(416.163073 631.289167)scale(0.1 -0.1)">
       <use xlink:href="#DejaVuSans-2212"/>
       <use x="83.789062" xlink:href="#DejaVuSans-32"/>
       <use x="147.412109" xlink:href="#DejaVuSans-30"/>
       <use x="211.035156" xlink:href="#DejaVuSans-30"/>
      </g>
     </g>
    </g>
    <g id="xtick_11">
     <g id="line2d_19">
      <g>
       <use style="stroke:#000000;stroke-width:0.8;" x="563.75" xlink:href="#m6176e40aab" y="616.690729"/>
      </g>
     </g>
     <g id="text_14">
      <!-- 0 -->
      <g transform="translate(560.56875 631.289167)scale(0.1 -0.1)">
       <use xlink:href="#DejaVuSans-30"/>
      </g>
     </g>
    </g>
    <g id="xtick_12">
     <g id="line2d_20">
      <g>
       <use style="stroke:#000000;stroke-width:0.8;" x="697.603333" xlink:href="#m6176e40aab" y="616.690729"/>
      </g>
     </g>
     <g id="text_15">
      <!-- 200 -->
      <g transform="translate(688.059583 631.289167)scale(0.1 -0.1)">
       <use xlink:href="#DejaVuSans-32"/>
       <use x="63.623047" xlink:href="#DejaVuSans-30"/>
       <use x="127.246094" xlink:href="#DejaVuSans-30"/>
      </g>
     </g>
    </g>
    <g id="xtick_13">
     <g id="line2d_21">
      <g>
       <use style="stroke:#000000;stroke-width:0.8;" x="831.456667" xlink:href="#m6176e40aab" y="616.690729"/>
      </g>
     </g>
     <g id="text_16">
      <!-- 400 -->
      <g transform="translate(821.912917 631.289167)scale(0.1 -0.1)">
       <use xlink:href="#DejaVuSans-34"/>
       <use x="63.623047" xlink:href="#DejaVuSans-30"/>
       <use x="127.246094" xlink:href="#DejaVuSans-30"/>
      </g>
     </g>
    </g>
    <g id="xtick_14">
     <g id="line2d_22">
      <g>
       <use style="stroke:#000000;stroke-width:0.8;" x="965.31" xlink:href="#m6176e40aab" y="616.690729"/>
      </g>
     </g>
     <g id="text_17">
      <!-- 600 -->
      <g transform="translate(955.76625 631.289167)scale(0.1 -0.1)">
       <use xlink:href="#DejaVuSans-36"/>
       <use x="63.623047" xlink:href="#DejaVuSans-30"/>
       <use x="127.246094" xlink:href="#DejaVuSans-30"/>
      </g>
     </g>
    </g>
    <g id="text_18">
     <!-- Time (ms) -->
     <g transform="translate(513.04375 652.565729)scale(0.2 -0.2)">
      <use xlink:href="#DejaVuSans-54"/>
      <use x="61.037109" xlink:href="#DejaVuSans-69"/>
      <use x="88.820312" xlink:href="#DejaVuSans-6d"/>
      <use x="186.232422" xlink:href="#DejaVuSans-65"/>
      <use x="247.755859" xlink:href="#DejaVuSans-20"/>
      <use x="279.542969" xlink:href="#DejaVuSans-28"/>
      <use x="318.556641" xlink:href="#DejaVuSans-6d"/>
      <use x="415.96875" xlink:href="#DejaVuSans-73"/>
      <use x="468.068359" xlink:href="#DejaVuSans-29"/>
     </g>
    </g>
   </g>
   <g id="matplotlib.axis_4">
    <g id="ytick_8">
     <g id="line2d_23">
      <g>
       <use style="stroke:#000000;stroke-width:0.8;" x="61.8" xlink:href="#m0440d12d5a" y="582.93343"/>
      </g>
     </g>
     <g id="text_19">
      <!-- −30 -->
      <g transform="translate(33.695312 586.732648)scale(0.1 -0.1)">
       <use xlink:href="#DejaVuSans-2212"/>
       <use x="83.789062" xlink:href="#DejaVuSans-33"/>
       <use x="147.412109" xlink:href="#DejaVuSans-30"/>
      </g>
     </g>
    </g>
    <g id="ytick_9">
     <g id="line2d_24">
      <g>
       <use style="stroke:#000000;stroke-width:0.8;" x="61.8" xlink:href="#m0440d12d5a" y="547.39943"/>
      </g>
     </g>
     <g id="text_20">
      <!-- −20 -->
      <g transform="translate(33.695312 551.198649)scale(0.1 -0.1)">
       <use xlink:href="#DejaVuSans-2212"/>
       <use x="83.789062" xlink:href="#DejaVuSans-32"/>
       <use x="147.412109" xlink:href="#DejaVuSans-30"/>
      </g>
     </g>
    </g>
    <g id="ytick_10">
     <g id="line2d_25">
      <g>
       <use style="stroke:#000000;stroke-width:0.8;" x="61.8" xlink:href="#m0440d12d5a" y="511.86543"/>
      </g>
     </g>
     <g id="text_21">
      <!-- −10 -->
      <g transform="translate(33.695312 515.664649)scale(0.1 -0.1)">
       <use xlink:href="#DejaVuSans-2212"/>
       <use x="83.789062" xlink:href="#DejaVuSans-31"/>
       <use x="147.412109" xlink:href="#DejaVuSans-30"/>
      </g>
     </g>
    </g>
    <g id="ytick_11">
     <g id="line2d_26">
      <g>
       <use style="stroke:#000000;stroke-width:0.8;" x="61.8" xlink:href="#m0440d12d5a" y="476.33143"/>
      </g>
     </g>
     <g id="text_22">
      <!-- 0 -->
      <g transform="translate(48.4375 480.130649)scale(0.1 -0.1)">
       <use xlink:href="#DejaVuSans-30"/>
      </g>
     </g>
    </g>
    <g id="ytick_12">
     <g id="line2d_27">
      <g>
       <use style="stroke:#000000;stroke-width:0.8;" x="61.8" xlink:href="#m0440d12d5a" y="440.797431"/>
      </g>
     </g>
     <g id="text_23">
      <!-- 10 -->
      <g transform="translate(42.075 444.59665)scale(0.1 -0.1)">
       <use xlink:href="#DejaVuSans-31"/>
       <use x="63.623047" xlink:href="#DejaVuSans-30"/>
      </g>
     </g>
    </g>
    <g id="ytick_13">
     <g id="line2d_28">
      <g>
       <use style="stroke:#000000;stroke-width:0.8;" x="61.8" xlink:href="#m0440d12d5a" y="405.263431"/>
      </g>
     </g>
     <g id="text_24">
      <!-- 20 -->
      <g transform="translate(42.075 409.06265)scale(0.1 -0.1)">
       <use xlink:href="#DejaVuSans-32"/>
       <use x="63.623047" xlink:href="#DejaVuSans-30"/>
      </g>
     </g>
    </g>
    <g id="ytick_14">
     <g id="line2d_29">
      <g>
       <use style="stroke:#000000;stroke-width:0.8;" x="61.8" xlink:href="#m0440d12d5a" y="369.729431"/>
      </g>
     </g>
     <g id="text_25">
      <!-- 30 -->
      <g transform="translate(42.075 373.52865)scale(0.1 -0.1)">
       <use xlink:href="#DejaVuSans-33"/>
       <use x="63.623047" xlink:href="#DejaVuSans-30"/>
      </g>
     </g>
    </g>
   </g>
   <g id="line2d_30">
    <path clip-path="url(#pa766f974e3)" d="M 61.130733 476.33143 
L 61.8 466.600906 
L 62.469267 476.33143 
L 63.138533 495.792479 
L 63.8078 505.523003 
L 64.477067 500.657741 
L 65.8156 461.735644 
L 66.484867 456.870382 
L 67.154133 466.600906 
L 67.8234 471.466168 
L 69.161933 471.466168 
L 69.8312 466.600906 
L 71.839 495.792479 
L 72.508267 495.792479 
L 73.177533 490.927217 
L 73.8468 481.196693 
L 74.516067 461.735644 
L 75.185333 456.870382 
L 76.523867 476.33143 
L 77.193133 476.33143 
L 77.8624 471.466168 
L 78.531667 461.735644 
L 79.8702 471.466168 
L 81.208733 461.735644 
L 82.547267 500.657741 
L 83.216533 500.657741 
L 83.8858 490.927217 
L 84.555067 476.33143 
L 85.8936 466.600906 
L 86.562867 466.600906 
L 88.570667 481.196693 
L 89.239933 471.466168 
L 89.9092 452.00512 
L 90.578467 452.00512 
L 91.247733 466.600906 
L 91.917 476.33143 
L 92.586267 481.196693 
L 94.594067 481.196693 
L 95.263333 476.33143 
L 96.601867 476.33143 
L 97.9404 447.139858 
L 98.609667 461.735644 
L 99.278933 490.927217 
L 99.9482 500.657741 
L 101.286733 461.735644 
L 101.956 461.735644 
L 103.294533 481.196693 
L 103.9638 481.196693 
L 105.302333 471.466168 
L 105.9716 471.466168 
L 107.9794 486.061955 
L 108.648667 476.33143 
L 109.317933 461.735644 
L 109.9872 456.870382 
L 110.656467 466.600906 
L 111.325733 486.061955 
L 111.995 490.927217 
L 113.333533 471.466168 
L 114.0028 466.600906 
L 115.341333 476.33143 
L 116.0106 466.600906 
L 116.679867 461.735644 
L 117.349133 461.735644 
L 118.0184 471.466168 
L 118.687667 490.927217 
L 119.356933 495.792479 
L 120.695467 476.33143 
L 122.034 466.600906 
L 122.703267 486.061955 
L 123.372533 500.657741 
L 124.0418 500.657741 
L 124.711067 495.792479 
L 125.380333 486.061955 
L 127.388133 471.466168 
L 128.726667 471.466168 
L 130.0652 461.735644 
L 131.403733 490.927217 
L 132.073 476.33143 
L 132.742267 452.00512 
L 133.411533 437.409334 
L 134.0808 452.00512 
L 135.419333 490.927217 
L 136.0886 500.657741 
L 136.757867 486.061955 
L 137.427133 476.33143 
L 138.0964 471.466168 
L 138.765667 471.466168 
L 139.434933 481.196693 
L 140.1042 486.061955 
L 141.442733 486.061955 
L 142.781267 476.33143 
L 144.1198 476.33143 
L 146.1276 461.735644 
L 146.796867 466.600906 
L 147.466133 476.33143 
L 148.1354 476.33143 
L 149.473933 486.061955 
L 150.1432 481.196693 
L 150.812467 486.061955 
L 151.481733 495.792479 
L 152.151 490.927217 
L 153.489533 452.00512 
L 154.1588 456.870382 
L 154.828067 481.196693 
L 155.497333 490.927217 
L 156.1666 486.061955 
L 156.835867 486.061955 
L 157.505133 466.600906 
L 158.1744 452.00512 
L 158.843667 452.00512 
L 160.1822 481.196693 
L 160.851467 481.196693 
L 162.859267 495.792479 
L 164.1978 486.061955 
L 165.536333 486.061955 
L 166.2056 481.196693 
L 166.874867 466.600906 
L 167.544133 456.870382 
L 168.2134 461.735644 
L 168.882667 471.466168 
L 169.551933 471.466168 
L 170.2212 461.735644 
L 170.890467 456.870382 
L 171.559733 456.870382 
L 172.229 476.33143 
L 172.898267 505.523003 
L 173.567533 510.388265 
L 174.2368 500.657741 
L 175.575333 471.466168 
L 176.2446 471.466168 
L 176.913867 476.33143 
L 179.590933 456.870382 
L 180.929467 466.600906 
L 181.598733 476.33143 
L 182.268 481.196693 
L 183.606533 471.466168 
L 184.2758 471.466168 
L 184.945067 486.061955 
L 185.614333 495.792479 
L 186.2836 495.792479 
L 186.952867 490.927217 
L 187.622133 490.927217 
L 188.2914 486.061955 
L 188.960667 466.600906 
L 189.629933 452.00512 
L 190.968467 471.466168 
L 191.637733 471.466168 
L 192.307 481.196693 
L 195.653333 481.196693 
L 197.661133 466.600906 
L 198.3304 466.600906 
L 198.999667 476.33143 
L 199.668933 490.927217 
L 200.3382 495.792479 
L 201.676733 476.33143 
L 202.346 471.466168 
L 204.3538 471.466168 
L 205.023067 476.33143 
L 205.692333 471.466168 
L 207.030867 471.466168 
L 207.700133 466.600906 
L 208.3694 466.600906 
L 209.038667 471.466168 
L 209.707933 490.927217 
L 210.3772 500.657741 
L 211.046467 495.792479 
L 211.715733 476.33143 
L 212.385 447.139858 
L 213.054267 437.409334 
L 213.723533 447.139858 
L 214.3928 466.600906 
L 215.062067 481.196693 
L 215.731333 481.196693 
L 216.4006 486.061955 
L 217.069867 495.792479 
L 217.739133 495.792479 
L 218.4084 481.196693 
L 219.077667 471.466168 
L 221.085467 486.061955 
L 221.754733 481.196693 
L 222.424 466.600906 
L 223.093267 461.735644 
L 223.762533 461.735644 
L 225.101067 481.196693 
L 225.770333 476.33143 
L 226.4396 481.196693 
L 227.108867 490.927217 
L 227.778133 495.792479 
L 228.4474 481.196693 
L 229.116667 471.466168 
L 229.785933 471.466168 
L 231.124467 481.196693 
L 231.793733 471.466168 
L 233.132267 461.735644 
L 233.801533 461.735644 
L 234.4708 466.600906 
L 235.140067 466.600906 
L 235.809333 476.33143 
L 236.4786 481.196693 
L 237.147867 476.33143 
L 237.817133 476.33143 
L 238.4864 481.196693 
L 239.155667 481.196693 
L 240.4942 471.466168 
L 241.832733 471.466168 
L 242.502 466.600906 
L 243.171267 471.466168 
L 243.840533 481.196693 
L 244.5098 481.196693 
L 245.179067 476.33143 
L 247.186867 476.33143 
L 247.856133 466.600906 
L 248.5254 461.735644 
L 249.194667 476.33143 
L 249.863933 495.792479 
L 250.5332 500.657741 
L 251.202467 471.466168 
L 251.871733 447.139858 
L 252.541 452.00512 
L 253.210267 476.33143 
L 253.879533 490.927217 
L 255.218067 481.196693 
L 255.887333 466.600906 
L 256.5566 456.870382 
L 257.225867 456.870382 
L 257.895133 461.735644 
L 258.5644 481.196693 
L 259.233667 495.792479 
L 259.902933 490.927217 
L 260.5722 471.466168 
L 261.241467 456.870382 
L 261.910733 461.735644 
L 262.58 476.33143 
L 263.249267 481.196693 
L 263.918533 481.196693 
L 265.257067 461.735644 
L 265.926333 466.600906 
L 266.5956 476.33143 
L 267.264867 481.196693 
L 267.934133 466.600906 
L 268.6034 466.600906 
L 269.272667 481.196693 
L 269.941933 476.33143 
L 270.6112 461.735644 
L 271.280467 456.870382 
L 271.949733 466.600906 
L 272.619 481.196693 
L 273.288267 486.061955 
L 274.6268 466.600906 
L 275.296067 486.061955 
L 275.965333 510.388265 
L 276.6346 515.253527 
L 277.973133 476.33143 
L 278.6424 471.466168 
L 279.311667 471.466168 
L 279.980933 461.735644 
L 280.6502 447.139858 
L 281.319467 442.274596 
L 281.988733 456.870382 
L 282.658 490.927217 
L 283.327267 510.388265 
L 283.996533 505.523003 
L 284.6658 481.196693 
L 285.335067 466.600906 
L 287.342867 481.196693 
L 288.012133 476.33143 
L 288.6814 461.735644 
L 289.350667 456.870382 
L 290.019933 461.735644 
L 290.6892 471.466168 
L 291.358467 476.33143 
L 292.697 456.870382 
L 293.366267 461.735644 
L 294.035533 471.466168 
L 294.7048 476.33143 
L 296.7126 476.33143 
L 298.051133 495.792479 
L 298.7204 495.792479 
L 300.058933 486.061955 
L 300.7282 486.061955 
L 301.397467 476.33143 
L 302.066733 471.466168 
L 304.7438 471.466168 
L 305.413067 481.196693 
L 306.7516 490.927217 
L 308.090133 481.196693 
L 308.7594 481.196693 
L 309.428667 476.33143 
L 312.775 476.33143 
L 313.444267 456.870382 
L 314.113533 442.274596 
L 314.7828 437.409334 
L 315.452067 442.274596 
L 316.121333 461.735644 
L 316.7906 476.33143 
L 318.7984 490.927217 
L 319.467667 490.927217 
L 320.8062 471.466168 
L 321.475467 486.061955 
L 322.144733 495.792479 
L 322.814 490.927217 
L 323.483267 471.466168 
L 324.152533 461.735644 
L 324.8218 476.33143 
L 325.491067 486.061955 
L 326.8296 495.792479 
L 327.498867 490.927217 
L 328.168133 476.33143 
L 328.8374 456.870382 
L 329.506667 452.00512 
L 330.175933 466.600906 
L 330.8452 476.33143 
L 331.514467 476.33143 
L 332.183733 481.196693 
L 332.853 481.196693 
L 333.522267 476.33143 
L 335.530067 476.33143 
L 336.199333 466.600906 
L 336.8686 461.735644 
L 338.8764 490.927217 
L 340.214933 481.196693 
L 340.8842 481.196693 
L 342.222733 461.735644 
L 343.561267 471.466168 
L 344.230533 466.600906 
L 345.569067 476.33143 
L 346.238333 476.33143 
L 347.576867 486.061955 
L 348.9154 456.870382 
L 349.584667 456.870382 
L 350.253933 461.735644 
L 350.9232 476.33143 
L 351.592467 481.196693 
L 352.261733 481.196693 
L 353.600267 510.388265 
L 354.269533 505.523003 
L 354.9388 481.196693 
L 355.608067 466.600906 
L 356.277333 466.600906 
L 356.9466 461.735644 
L 357.615867 466.600906 
L 358.285133 476.33143 
L 358.9544 471.466168 
L 359.623667 471.466168 
L 360.9622 490.927217 
L 361.631467 495.792479 
L 362.97 466.600906 
L 363.639267 466.600906 
L 364.9778 486.061955 
L 365.647067 486.061955 
L 366.9856 476.33143 
L 367.654867 476.33143 
L 368.324133 486.061955 
L 368.9934 505.523003 
L 369.662667 505.523003 
L 371.0012 466.600906 
L 371.670467 452.00512 
L 372.339733 456.870382 
L 373.009 471.466168 
L 374.347533 481.196693 
L 375.0168 481.196693 
L 376.355333 471.466168 
L 377.0246 476.33143 
L 377.693867 490.927217 
L 378.363133 495.792479 
L 379.0324 495.792479 
L 379.701667 486.061955 
L 380.370933 471.466168 
L 381.0402 476.33143 
L 381.709467 490.927217 
L 382.378733 490.927217 
L 383.048 481.196693 
L 383.717267 481.196693 
L 384.386533 490.927217 
L 385.0558 495.792479 
L 385.725067 490.927217 
L 386.394333 476.33143 
L 387.0636 471.466168 
L 388.402133 471.466168 
L 389.740667 461.735644 
L 390.409933 466.600906 
L 391.748467 486.061955 
L 392.417733 486.061955 
L 393.087 481.196693 
L 393.756267 481.196693 
L 394.425533 495.792479 
L 395.0948 505.523003 
L 395.764067 500.657741 
L 397.1026 481.196693 
L 399.1104 466.600906 
L 400.448933 466.600906 
L 401.787467 447.139858 
L 402.456733 466.600906 
L 403.126 490.927217 
L 403.795267 495.792479 
L 404.464533 490.927217 
L 405.1338 481.196693 
L 405.803067 476.33143 
L 407.1416 476.33143 
L 407.810867 481.196693 
L 408.480133 476.33143 
L 409.1494 466.600906 
L 411.1572 466.600906 
L 412.495733 476.33143 
L 413.834267 466.600906 
L 415.1728 476.33143 
L 417.849867 476.33143 
L 418.519133 461.735644 
L 419.1884 452.00512 
L 419.857667 456.870382 
L 421.1962 495.792479 
L 421.865467 495.792479 
L 422.534733 476.33143 
L 423.204 452.00512 
L 423.873267 447.139858 
L 425.2118 486.061955 
L 426.550333 486.061955 
L 428.558133 471.466168 
L 429.896667 471.466168 
L 430.565933 466.600906 
L 431.904467 476.33143 
L 434.581533 476.33143 
L 435.2508 471.466168 
L 435.920067 456.870382 
L 436.589333 452.00512 
L 437.2586 466.600906 
L 437.927867 476.33143 
L 439.2664 486.061955 
L 439.935667 471.466168 
L 440.604933 461.735644 
L 441.2742 461.735644 
L 441.943467 466.600906 
L 442.612733 481.196693 
L 443.282 481.196693 
L 443.951267 471.466168 
L 444.620533 471.466168 
L 445.2898 481.196693 
L 446.628333 481.196693 
L 447.966867 490.927217 
L 448.636133 486.061955 
L 449.3054 471.466168 
L 449.974667 466.600906 
L 450.643933 466.600906 
L 451.3132 461.735644 
L 451.982467 461.735644 
L 452.651733 471.466168 
L 453.321 471.466168 
L 453.990267 466.600906 
L 454.659533 466.600906 
L 455.3288 476.33143 
L 456.667333 486.061955 
L 457.3366 495.792479 
L 458.005867 495.792479 
L 458.675133 486.061955 
L 459.3444 471.466168 
L 460.013667 461.735644 
L 460.682933 456.870382 
L 461.3522 466.600906 
L 462.021467 486.061955 
L 462.690733 490.927217 
L 463.36 481.196693 
L 464.029267 476.33143 
L 465.3678 486.061955 
L 466.037067 481.196693 
L 467.3756 452.00512 
L 468.044867 447.139858 
L 468.714133 461.735644 
L 469.3834 481.196693 
L 470.052667 481.196693 
L 470.721933 476.33143 
L 471.3912 481.196693 
L 472.060467 481.196693 
L 472.729733 476.33143 
L 473.399 486.061955 
L 474.068267 490.927217 
L 474.737533 486.061955 
L 476.745333 486.061955 
L 478.083867 476.33143 
L 478.753133 476.33143 
L 479.4224 481.196693 
L 480.091667 490.927217 
L 480.760933 490.927217 
L 481.4302 481.196693 
L 482.099467 466.600906 
L 482.768733 461.735644 
L 483.438 481.196693 
L 484.107267 495.792479 
L 484.776533 500.657741 
L 485.4458 490.927217 
L 486.115067 471.466168 
L 486.784333 466.600906 
L 488.122867 466.600906 
L 488.792133 471.466168 
L 490.130667 490.927217 
L 490.799933 481.196693 
L 491.4692 452.00512 
L 492.138467 447.139858 
L 492.807733 476.33143 
L 493.477 490.927217 
L 494.146267 481.196693 
L 494.815533 476.33143 
L 495.4848 466.600906 
L 496.154067 461.735644 
L 497.4926 471.466168 
L 498.161867 481.196693 
L 498.831133 486.061955 
L 499.5004 486.061955 
L 500.838933 476.33143 
L 501.5082 476.33143 
L 502.177467 481.196693 
L 502.846733 481.196693 
L 503.516 476.33143 
L 504.185267 466.600906 
L 504.854533 447.139858 
L 505.5238 447.139858 
L 507.5316 476.33143 
L 508.200867 490.927217 
L 508.870133 500.657741 
L 509.5394 490.927217 
L 510.208667 476.33143 
L 510.877933 471.466168 
L 511.5472 486.061955 
L 512.216467 490.927217 
L 512.885733 481.196693 
L 513.555 466.600906 
L 514.224267 461.735644 
L 514.893533 471.466168 
L 515.5628 486.061955 
L 516.232067 495.792479 
L 516.901333 490.927217 
L 517.5706 476.33143 
L 518.239867 466.600906 
L 518.909133 466.600906 
L 519.5784 481.196693 
L 520.247667 490.927217 
L 520.916933 481.196693 
L 522.924733 466.600906 
L 523.594 466.600906 
L 524.263267 471.466168 
L 524.932533 471.466168 
L 526.271067 452.00512 
L 526.940333 456.870382 
L 527.6096 481.196693 
L 528.278867 490.927217 
L 529.6174 461.735644 
L 530.286667 456.870382 
L 530.955933 461.735644 
L 532.294467 481.196693 
L 532.963733 495.792479 
L 533.633 500.657741 
L 534.971533 452.00512 
L 535.6408 452.00512 
L 536.310067 471.466168 
L 536.979333 486.061955 
L 537.6486 490.927217 
L 538.317867 490.927217 
L 538.987133 481.196693 
L 539.6564 466.600906 
L 540.325667 471.466168 
L 540.994933 495.792479 
L 541.6642 495.792479 
L 542.333467 471.466168 
L 543.002733 456.870382 
L 543.672 466.600906 
L 544.341267 481.196693 
L 545.010533 490.927217 
L 545.6798 490.927217 
L 546.349067 486.061955 
L 547.018333 476.33143 
L 547.6876 471.466168 
L 548.356867 476.33143 
L 549.026133 476.33143 
L 550.364667 466.600906 
L 551.033933 471.466168 
L 551.7032 481.196693 
L 552.372467 481.196693 
L 553.041733 476.33143 
L 553.711 476.33143 
L 554.380267 471.466168 
L 555.049533 461.735644 
L 555.7188 456.870382 
L 556.388067 461.735644 
L 557.057333 471.466168 
L 558.395867 481.196693 
L 559.065133 481.196693 
L 560.403667 471.466168 
L 561.072933 471.466168 
L 561.7422 476.33143 
L 563.75 476.33143 
L 564.419267 471.466168 
L 565.088533 461.735644 
L 565.7578 466.600906 
L 566.427067 486.061955 
L 567.096333 495.792479 
L 569.104133 481.196693 
L 569.7734 471.466168 
L 570.442667 456.870382 
L 571.111933 471.466168 
L 571.7812 500.657741 
L 572.450467 505.523003 
L 573.789 476.33143 
L 575.7968 476.33143 
L 576.466067 471.466168 
L 577.135333 456.870382 
L 577.8046 447.139858 
L 578.473867 456.870382 
L 579.143133 476.33143 
L 579.8124 486.061955 
L 580.481667 481.196693 
L 581.8202 461.735644 
L 582.489467 456.870382 
L 583.158733 456.870382 
L 583.828 466.600906 
L 584.497267 481.196693 
L 585.166533 486.061955 
L 585.8358 471.466168 
L 586.505067 466.600906 
L 587.174333 476.33143 
L 587.8436 481.196693 
L 588.512867 490.927217 
L 589.8514 500.657741 
L 590.520667 486.061955 
L 591.189933 466.600906 
L 591.8592 466.600906 
L 592.528467 476.33143 
L 593.197733 476.33143 
L 593.867 456.870382 
L 594.536267 452.00512 
L 595.8748 481.196693 
L 596.544067 490.927217 
L 597.213333 490.927217 
L 598.551867 500.657741 
L 599.221133 495.792479 
L 599.8904 481.196693 
L 600.559667 471.466168 
L 601.8982 481.196693 
L 602.567467 476.33143 
L 603.236733 476.33143 
L 603.906 481.196693 
L 604.575267 476.33143 
L 605.9138 476.33143 
L 607.252333 466.600906 
L 608.590867 466.600906 
L 610.598667 481.196693 
L 611.9372 481.196693 
L 613.275733 471.466168 
L 613.945 471.466168 
L 614.614267 476.33143 
L 615.283533 486.061955 
L 615.9528 490.927217 
L 619.299133 490.927217 
L 619.9684 505.523003 
L 620.637667 515.253527 
L 621.306933 505.523003 
L 621.9762 486.061955 
L 622.645467 461.735644 
L 623.314733 456.870382 
L 623.984 456.870382 
L 625.322533 476.33143 
L 626.661067 486.061955 
L 627.330333 481.196693 
L 627.9996 481.196693 
L 628.668867 495.792479 
L 629.338133 500.657741 
L 630.0074 495.792479 
L 631.345933 476.33143 
L 632.0152 476.33143 
L 634.023 490.927217 
L 635.361533 481.196693 
L 636.0308 481.196693 
L 636.700067 476.33143 
L 638.0386 486.061955 
L 639.377133 476.33143 
L 640.715667 486.061955 
L 641.384933 481.196693 
L 642.0542 471.466168 
L 642.723467 466.600906 
L 643.392733 471.466168 
L 644.062 490.927217 
L 644.731267 500.657741 
L 645.400533 495.792479 
L 646.739067 476.33143 
L 648.0776 476.33143 
L 649.416133 466.600906 
L 650.0854 471.466168 
L 650.754667 481.196693 
L 652.0932 481.196693 
L 652.762467 486.061955 
L 653.431733 481.196693 
L 655.439533 481.196693 
L 656.1088 490.927217 
L 656.778067 495.792479 
L 657.447333 490.927217 
L 658.1166 481.196693 
L 658.785867 481.196693 
L 660.1244 461.735644 
L 660.793667 466.600906 
L 662.1322 505.523003 
L 662.801467 495.792479 
L 663.470733 490.927217 
L 664.14 490.927217 
L 664.809267 486.061955 
L 666.1478 486.061955 
L 666.817067 476.33143 
L 667.486333 456.870382 
L 668.1556 461.735644 
L 668.824867 486.061955 
L 669.494133 495.792479 
L 670.1634 486.061955 
L 670.832667 481.196693 
L 671.501933 486.061955 
L 672.840467 505.523003 
L 673.509733 505.523003 
L 674.179 490.927217 
L 674.848267 481.196693 
L 675.517533 490.927217 
L 676.1868 490.927217 
L 676.856067 481.196693 
L 678.1946 471.466168 
L 678.863867 471.466168 
L 679.533133 476.33143 
L 680.2024 486.061955 
L 680.871667 500.657741 
L 682.2102 510.388265 
L 683.548733 510.388265 
L 684.218 495.792479 
L 684.887267 490.927217 
L 685.556533 505.523003 
L 686.2258 505.523003 
L 687.564333 486.061955 
L 688.2336 481.196693 
L 688.902867 490.927217 
L 689.572133 524.984051 
L 690.2414 539.579837 
L 690.910667 524.984051 
L 691.579933 515.253527 
L 692.2492 515.253527 
L 692.918467 539.579837 
L 693.587733 534.714575 
L 694.257 515.253527 
L 694.926267 500.657741 
L 695.595533 481.196693 
L 696.2648 486.061955 
L 696.934067 486.061955 
L 697.603333 500.657741 
L 698.2726 510.388265 
M 735.082267 524.984051 
L 735.751533 505.523003 
L 736.4208 524.984051 
L 737.090067 554.175623 
L 737.759333 554.175623 
L 738.4286 539.579837 
L 739.097867 534.714575 
L 739.767133 559.040885 
L 740.4364 554.175623 
L 741.105667 534.714575 
L 741.774933 529.849313 
L 742.4442 529.849313 
L 743.113467 524.984051 
L 743.782733 510.388265 
L 744.452 520.118789 
L 745.121267 534.714575 
L 745.790533 534.714575 
L 746.4598 529.849313 
L 747.129067 515.253527 
L 747.798333 510.388265 
L 748.4676 529.849313 
L 749.806133 559.040885 
L 750.4754 539.579837 
L 751.144667 524.984051 
L 751.813933 554.175623 
L 752.4832 573.636671 
L 753.152467 568.771409 
L 754.491 486.061955 
L 755.160267 476.33143 
L 757.168067 549.310361 
L 757.837333 554.175623 
L 758.5066 529.849313 
L 759.175867 520.118789 
L 759.845133 515.253527 
L 760.5144 520.118789 
L 761.183667 510.388265 
L 761.852933 515.253527 
L 762.5222 529.849313 
L 763.191467 520.118789 
L 763.860733 520.118789 
L 764.53 534.714575 
L 765.199267 559.040885 
L 765.868533 568.771409 
L 766.5378 554.175623 
L 767.207067 534.714575 
L 767.876333 529.849313 
L 768.5456 534.714575 
L 769.884133 524.984051 
L 770.5534 539.579837 
L 771.222667 544.445099 
L 771.891933 529.849313 
L 772.5612 520.118789 
L 773.230467 520.118789 
L 774.569 529.849313 
L 775.238267 524.984051 
L 775.907533 500.657741 
L 776.5768 490.927217 
L 777.915333 500.657741 
L 778.5846 495.792479 
L 779.253867 505.523003 
L 779.923133 524.984051 
L 780.5924 524.984051 
L 781.930933 534.714575 
L 782.6002 549.310361 
L 783.269467 554.175623 
L 783.938733 539.579837 
L 784.608 515.253527 
L 785.277267 515.253527 
L 785.946533 534.714575 
L 786.6158 539.579837 
L 787.954333 500.657741 
L 788.6236 520.118789 
L 789.292867 554.175623 
L 789.962133 563.906147 
L 790.6314 554.175623 
L 791.300667 529.849313 
L 791.969933 515.253527 
L 792.6392 515.253527 
L 793.308467 524.984051 
L 793.977733 539.579837 
L 794.647 534.714575 
L 795.316267 520.118789 
L 795.985533 510.388265 
L 797.324067 529.849313 
L 798.6626 510.388265 
L 800.6704 510.388265 
L 801.339667 515.253527 
L 802.008933 534.714575 
L 802.6782 539.579837 
L 803.347467 539.579837 
L 804.016733 549.310361 
L 804.686 563.906147 
L 805.355267 554.175623 
L 806.024533 524.984051 
M 834.133733 578.501933 
L 834.803 559.040885 
L 836.141533 559.040885 
L 836.8108 544.445099 
L 838.149333 505.523003 
L 838.8186 515.253527 
L 839.487867 544.445099 
L 840.157133 549.310361 
L 841.495667 520.118789 
L 842.164933 534.714575 
L 842.8342 539.579837 
L 843.503467 549.310361 
L 844.172733 563.906147 
L 844.842 554.175623 
L 845.511267 554.175623 
L 846.180533 539.579837 
L 847.519067 529.849313 
L 848.188333 515.253527 
L 848.8576 534.714575 
L 849.526867 549.310361 
L 850.196133 554.175623 
L 851.534667 544.445099 
L 852.203933 549.310361 
L 852.8732 544.445099 
L 853.542467 529.849313 
L 854.211733 510.388265 
L 854.881 529.849313 
L 855.550267 563.906147 
L 856.219533 573.636671 
L 856.8888 554.175623 
L 857.558067 524.984051 
L 858.227333 520.118789 
L 858.8966 510.388265 
L 859.565867 515.253527 
L 860.235133 539.579837 
L 860.9044 544.445099 
L 861.573667 554.175623 
L 862.242933 568.771409 
L 862.9122 573.636671 
L 863.581467 554.175623 
L 864.250733 515.253527 
L 864.92 515.253527 
L 865.589267 539.579837 
L 866.258533 544.445099 
L 866.9278 529.849313 
L 867.597067 505.523003 
L 868.266333 490.927217 
L 868.9356 500.657741 
L 869.604867 534.714575 
L 870.274133 549.310361 
L 870.9434 539.579837 
L 871.612667 544.445099 
L 872.281933 563.906147 
L 872.9512 568.771409 
L 873.620467 549.310361 
L 874.289733 520.118789 
L 874.959 515.253527 
L 875.628267 529.849313 
L 876.297533 549.310361 
L 876.9668 549.310361 
L 877.636067 524.984051 
L 878.305333 524.984051 
L 878.9746 539.579837 
L 879.643867 549.310361 
L 881.651667 549.310361 
L 882.9902 520.118789 
L 883.659467 515.253527 
L 884.328733 515.253527 
L 884.998 520.118789 
L 885.667267 529.849313 
L 886.336533 544.445099 
L 887.0058 534.714575 
L 887.675067 520.118789 
L 888.344333 524.984051 
L 889.682867 524.984051 
L 890.352133 520.118789 
L 891.0214 534.714575 
L 891.690667 554.175623 
L 892.359933 539.579837 
L 893.0292 515.253527 
L 893.698467 505.523003 
L 894.367733 505.523003 
L 895.706267 515.253527 
L 896.375533 510.388265 
L 897.0448 524.984051 
L 897.714067 554.175623 
L 898.383333 563.906147 
L 899.0526 544.445099 
L 899.721867 515.253527 
L 901.0604 524.984051 
L 902.398933 505.523003 
L 903.0682 510.388265 
L 903.737467 534.714575 
L 904.406733 539.579837 
L 905.076 539.579837 
L 905.745267 529.849313 
L 906.414533 510.388265 
L 907.0838 486.061955 
L 907.753067 486.061955 
L 908.422333 515.253527 
L 909.0916 524.984051 
L 910.430133 486.061955 
L 911.0994 490.927217 
L 911.768667 505.523003 
L 912.437933 510.388265 
L 913.1072 529.849313 
L 913.776467 554.175623 
L 914.445733 549.310361 
L 915.115 515.253527 
L 915.784267 520.118789 
L 916.453533 568.771409 
L 917.1228 583.367195 
L 917.792067 568.771409 
L 918.461333 549.310361 
L 919.799867 559.040885 
L 920.469133 549.310361 
L 921.1384 534.714575 
L 921.807667 544.445099 
L 922.476933 568.771409 
L 923.1462 568.771409 
L 924.484733 520.118789 
L 925.823267 520.118789 
L 926.492533 524.984051 
L 927.1618 539.579837 
L 927.831067 573.636671 
L 928.500333 583.367195 
L 929.1696 554.175623 
L 929.838867 510.388265 
L 930.508133 486.061955 
L 931.1774 495.792479 
L 931.846667 510.388265 
L 932.515933 515.253527 
L 933.854467 495.792479 
L 934.523733 481.196693 
L 935.193 490.927217 
L 935.862267 524.984051 
L 936.531533 544.445099 
L 937.2008 549.310361 
L 937.870067 534.714575 
L 938.539333 539.579837 
L 939.2086 554.175623 
L 939.877867 539.579837 
L 940.547133 534.714575 
L 941.2164 524.984051 
L 941.885667 520.118789 
L 942.554933 505.523003 
L 943.2242 510.388265 
L 943.893467 529.849313 
L 944.562733 524.984051 
L 945.232 529.849313 
L 945.901267 529.849313 
L 946.570533 544.445099 
L 947.909067 554.175623 
L 948.578333 554.175623 
L 949.2476 524.984051 
L 949.916867 500.657741 
L 950.586133 486.061955 
L 951.2554 495.792479 
L 953.2632 510.388265 
L 953.932467 505.523003 
L 954.601733 510.388265 
L 955.940267 529.849313 
L 956.609533 524.984051 
L 957.2788 510.388265 
L 957.948067 539.579837 
L 958.617333 563.906147 
L 959.2866 554.175623 
L 959.955867 520.118789 
L 960.625133 520.118789 
L 961.2944 554.175623 
L 961.963667 544.445099 
L 962.632933 500.657741 
L 963.3022 481.196693 
L 964.640733 578.501933 
L 965.31 578.501933 
L 966.648533 529.849313 
L 967.3178 524.984051 
L 967.987067 549.310361 
L 968.656333 554.175623 
L 969.3256 554.175623 
L 971.3334 539.579837 
L 972.002667 524.984051 
L 972.671933 520.118789 
L 973.3412 510.388265 
L 974.679733 510.388265 
L 975.349 520.118789 
L 976.018267 534.714575 
L 977.3568 534.714575 
L 978.026067 524.984051 
L 978.695333 520.118789 
L 979.3646 520.118789 
L 980.033867 510.388265 
L 980.703133 520.118789 
L 981.3724 534.714575 
L 982.041667 539.579837 
L 982.710933 520.118789 
L 983.3802 486.061955 
L 984.049467 476.33143 
L 985.388 524.984051 
L 986.726533 524.984051 
L 987.3958 539.579837 
L 988.065067 559.040885 
L 988.734333 539.579837 
L 989.4036 505.523003 
L 990.072867 495.792479 
L 990.742133 505.523003 
L 991.4114 510.388265 
L 992.080667 524.984051 
L 992.749933 524.984051 
L 993.4192 534.714575 
L 994.088467 554.175623 
L 994.757733 544.445099 
L 995.427 524.984051 
L 996.096267 500.657741 
L 996.765533 515.253527 
L 997.4348 544.445099 
L 998.104067 549.310361 
L 998.773333 534.714575 
L 999.4426 529.849313 
L 1000.111867 544.445099 
L 1000.781133 539.579837 
L 1001.4504 529.849313 
L 1002.119667 544.445099 
L 1002.788933 573.636671 
L 1003.4582 568.771409 
L 1004.127467 524.984051 
L 1004.796733 500.657741 
L 1005.466 505.523003 
L 1006.135267 515.253527 
L 1006.804533 520.118789 
L 1008.143067 549.310361 
L 1008.812333 544.445099 
L 1009.4816 510.388265 
L 1010.150867 486.061955 
L 1010.820133 486.061955 
L 1011.4894 510.388265 
L 1012.158667 539.579837 
L 1012.827933 544.445099 
L 1014.166467 515.253527 
L 1014.835733 520.118789 
L 1016.174267 520.118789 
L 1016.843533 529.849313 
L 1017.5128 554.175623 
L 1018.182067 568.771409 
L 1018.851333 549.310361 
L 1020.189867 490.927217 
L 1020.859133 486.061955 
L 1022.197667 559.040885 
L 1022.866933 563.906147 
L 1023.5362 539.579837 
L 1024.205467 529.849313 
L 1024.874733 539.579837 
L 1025.544 539.579837 
L 1026.213267 544.445099 
L 1026.882533 539.579837 
L 1027.5518 549.310361 
L 1029.5596 549.310361 
L 1030.228867 534.714575 
L 1030.898133 529.849313 
L 1031.5674 544.445099 
L 1032.236667 554.175623 
L 1032.905933 549.310361 
L 1033.5752 524.984051 
L 1034.244467 495.792479 
L 1034.913733 520.118789 
L 1035.583 549.310361 
L 1036.252267 554.175623 
L 1036.921533 524.984051 
L 1037.5908 505.523003 
L 1038.260067 510.388265 
L 1038.929333 510.388265 
L 1039.5986 515.253527 
L 1040.267867 515.253527 
L 1040.937133 505.523003 
L 1041.6064 520.118789 
L 1042.275667 539.579837 
L 1042.944933 529.849313 
L 1044.283467 466.600906 
L 1045.622 505.523003 
L 1046.291267 539.579837 
L 1046.960533 549.310361 
L 1047.6298 534.714575 
L 1048.299067 515.253527 
L 1048.968333 500.657741 
L 1049.6376 524.984051 
L 1050.306867 539.579837 
L 1050.976133 520.118789 
L 1051.6454 486.061955 
L 1052.314667 490.927217 
L 1052.983933 524.984051 
L 1053.6532 539.579837 
L 1054.322467 534.714575 
L 1054.991733 520.118789 
L 1056.330267 529.849313 
L 1056.999533 510.388265 
L 1057.6688 500.657741 
L 1058.338067 495.792479 
L 1059.007333 495.792479 
L 1059.6766 500.657741 
L 1061.015133 500.657741 
L 1061.6844 490.927217 
L 1062.353667 471.466168 
L 1063.022933 486.061955 
L 1064.361467 524.984051 
L 1065.030733 534.714575 
L 1065.7 524.984051 
L 1066.369267 510.388265 
L 1066.369267 510.388265 
" style="fill:none;opacity:0.4;stroke:#000000;stroke-linecap:square;stroke-width:1.5;"/>
   </g>
   <g id="patch_19">
    <path d="M 61.8 616.690729 
L 61.8 335.972132 
" style="fill:none;stroke:#000000;stroke-linecap:square;stroke-linejoin:miter;stroke-width:0.8;"/>
   </g>
   <g id="patch_20">
    <path d="M 1065.7 616.690729 
L 1065.7 335.972132 
" style="fill:none;stroke:#000000;stroke-linecap:square;stroke-linejoin:miter;stroke-width:0.8;"/>
   </g>
   <g id="patch_21">
    <path d="M 61.8 616.690729 
L 1065.7 616.690729 
" style="fill:none;stroke:#000000;stroke-linecap:square;stroke-linejoin:miter;stroke-width:0.8;"/>
   </g>
   <g id="patch_22">
    <path d="M 61.8 335.972132 
L 1065.7 335.972132 
" style="fill:none;stroke:#000000;stroke-linecap:square;stroke-linejoin:miter;stroke-width:0.8;"/>
   </g>
  </g>
 </g>
 <defs>
  <clipPath id="p115887b87f">
   <rect height="280.718598" width="1003.9" x="61.8" y="55.253534"/>
  </clipPath>
  <clipPath id="pa766f974e3">
   <rect height="280.718598" width="1003.9" x="61.8" y="335.972132"/>
  </clipPath>
 </defs>
</svg>
