<?xml version="1.0" encoding="utf-8" standalone="no"?>
<!DOCTYPE svg PUBLIC "-//W3C//DTD SVG 1.1//EN"
  "http://www.w3.org/Graphics/SVG/1.1/DTD/svg11.dtd">
<!-- Created with matplotlib (http://matplotlib.org/) -->
<svg height="667.490729pt" version="1.1" viewBox="0 0 1080 667.490729" width="1080pt" xmlns="http://www.w3.org/2000/svg" xmlns:xlink="http://www.w3.org/1999/xlink">
 <defs>
  <style type="text/css">
*{stroke-linecap:butt;stroke-linejoin:round;}
  </style>
 </defs>
 <g id="figure_1">
  <g id="patch_1">
   <path d="M 0 667.490729 
L 1080 667.490729 
L 1080 0 
L 0 0 
z
" style="fill:#ffffff;"/>
  </g>
  <g id="axes_1">
   <g id="patch_2">
    <path d="M 61.8 335.972132 
L 1065.7 335.972132 
L 1065.7 55.253534 
L 61.8 55.253534 
z
" style="fill:#ffffff;"/>
   </g>
   <g id="patch_3">
    <path clip-path="url(#p2f4d6f5d7a)" d="M 45.068333 335.972132 
L 45.068333 55.253534 
L 362.97 55.253534 
L 362.97 335.972132 
z
" style="opacity:0.2;stroke:#000000;stroke-linejoin:miter;"/>
   </g>
   <g id="patch_4">
    <path clip-path="url(#p2f4d6f5d7a)" d="M 362.97 335.972132 
L 362.97 55.253534 
L 563.75 55.253534 
L 563.75 335.972132 
z
" style="fill:#ff0000;opacity:0.2;stroke:#ff0000;stroke-linejoin:miter;"/>
   </g>
   <g id="patch_5">
    <path clip-path="url(#p2f4d6f5d7a)" d="M 563.75 335.972132 
L 563.75 55.253534 
L 1087.116533 55.253534 
L 1087.116533 335.972132 
z
" style="opacity:0.15;stroke:#000000;stroke-linejoin:miter;"/>
   </g>
   <g id="patch_6">
    <path clip-path="url(#p2f4d6f5d7a)" d="M 128.0574 335.972132 
L 128.0574 55.253534 
L 138.765667 55.253534 
L 138.765667 335.972132 
z
" style="opacity:0.15;stroke:#000000;stroke-linejoin:miter;"/>
   </g>
   <g id="patch_7">
    <path clip-path="url(#p2f4d6f5d7a)" d="M 715.673533 335.972132 
L 715.673533 55.253534 
L 734.413 55.253534 
L 734.413 335.972132 
z
" style="opacity:0.15;stroke:#000000;stroke-linejoin:miter;"/>
   </g>
   <g id="patch_8">
    <path clip-path="url(#p2f4d6f5d7a)" d="M 830.118133 335.972132 
L 830.118133 55.253534 
L 844.172733 55.253534 
L 844.172733 335.972132 
z
" style="opacity:0.15;stroke:#000000;stroke-linejoin:miter;"/>
   </g>
   <g id="matplotlib.axis_1">
    <g id="xtick_1">
     <g id="line2d_1">
      <defs>
       <path d="M 0 0 
L 0 3.5 
" id="m0de7579c92" style="stroke:#000000;stroke-width:0.8;"/>
      </defs>
      <g>
       <use style="stroke:#000000;stroke-width:0.8;" x="162.19" xlink:href="#m0de7579c92" y="335.972132"/>
      </g>
     </g>
    </g>
    <g id="xtick_2">
     <g id="line2d_2">
      <g>
       <use style="stroke:#000000;stroke-width:0.8;" x="296.043333" xlink:href="#m0de7579c92" y="335.972132"/>
      </g>
     </g>
    </g>
    <g id="xtick_3">
     <g id="line2d_3">
      <g>
       <use style="stroke:#000000;stroke-width:0.8;" x="429.896667" xlink:href="#m0de7579c92" y="335.972132"/>
      </g>
     </g>
    </g>
    <g id="xtick_4">
     <g id="line2d_4">
      <g>
       <use style="stroke:#000000;stroke-width:0.8;" x="563.75" xlink:href="#m0de7579c92" y="335.972132"/>
      </g>
     </g>
    </g>
    <g id="xtick_5">
     <g id="line2d_5">
      <g>
       <use style="stroke:#000000;stroke-width:0.8;" x="697.603333" xlink:href="#m0de7579c92" y="335.972132"/>
      </g>
     </g>
    </g>
    <g id="xtick_6">
     <g id="line2d_6">
      <g>
       <use style="stroke:#000000;stroke-width:0.8;" x="831.456667" xlink:href="#m0de7579c92" y="335.972132"/>
      </g>
     </g>
    </g>
    <g id="xtick_7">
     <g id="line2d_7">
      <g>
       <use style="stroke:#000000;stroke-width:0.8;" x="965.31" xlink:href="#m0de7579c92" y="335.972132"/>
      </g>
     </g>
    </g>
    <g id="text_1">
     <!-- Time (ms) -->
     <defs>
      <path d="M -0.296875 72.90625 
L 61.375 72.90625 
L 61.375 64.59375 
L 35.5 64.59375 
L 35.5 0 
L 25.59375 0 
L 25.59375 64.59375 
L -0.296875 64.59375 
z
" id="DejaVuSans-54"/>
      <path d="M 9.421875 54.6875 
L 18.40625 54.6875 
L 18.40625 0 
L 9.421875 0 
z
M 9.421875 75.984375 
L 18.40625 75.984375 
L 18.40625 64.59375 
L 9.421875 64.59375 
z
" id="DejaVuSans-69"/>
      <path d="M 52 44.1875 
Q 55.375 50.25 60.0625 53.125 
Q 64.75 56 71.09375 56 
Q 79.640625 56 84.28125 50.015625 
Q 88.921875 44.046875 88.921875 33.015625 
L 88.921875 0 
L 79.890625 0 
L 79.890625 32.71875 
Q 79.890625 40.578125 77.09375 44.375 
Q 74.3125 48.1875 68.609375 48.1875 
Q 61.625 48.1875 57.5625 43.546875 
Q 53.515625 38.921875 53.515625 30.90625 
L 53.515625 0 
L 44.484375 0 
L 44.484375 32.71875 
Q 44.484375 40.625 41.703125 44.40625 
Q 38.921875 48.1875 33.109375 48.1875 
Q 26.21875 48.1875 22.15625 43.53125 
Q 18.109375 38.875 18.109375 30.90625 
L 18.109375 0 
L 9.078125 0 
L 9.078125 54.6875 
L 18.109375 54.6875 
L 18.109375 46.1875 
Q 21.1875 51.21875 25.484375 53.609375 
Q 29.78125 56 35.6875 56 
Q 41.65625 56 45.828125 52.96875 
Q 50 49.953125 52 44.1875 
z
" id="DejaVuSans-6d"/>
      <path d="M 56.203125 29.59375 
L 56.203125 25.203125 
L 14.890625 25.203125 
Q 15.484375 15.921875 20.484375 11.0625 
Q 25.484375 6.203125 34.421875 6.203125 
Q 39.59375 6.203125 44.453125 7.46875 
Q 49.3125 8.734375 54.109375 11.28125 
L 54.109375 2.78125 
Q 49.265625 0.734375 44.1875 -0.34375 
Q 39.109375 -1.421875 33.890625 -1.421875 
Q 20.796875 -1.421875 13.15625 6.1875 
Q 5.515625 13.8125 5.515625 26.8125 
Q 5.515625 40.234375 12.765625 48.109375 
Q 20.015625 56 32.328125 56 
Q 43.359375 56 49.78125 48.890625 
Q 56.203125 41.796875 56.203125 29.59375 
z
M 47.21875 32.234375 
Q 47.125 39.59375 43.09375 43.984375 
Q 39.0625 48.390625 32.421875 48.390625 
Q 24.90625 48.390625 20.390625 44.140625 
Q 15.875 39.890625 15.1875 32.171875 
z
" id="DejaVuSans-65"/>
      <path id="DejaVuSans-20"/>
      <path d="M 31 75.875 
Q 24.46875 64.65625 21.28125 53.65625 
Q 18.109375 42.671875 18.109375 31.390625 
Q 18.109375 20.125 21.3125 9.0625 
Q 24.515625 -2 31 -13.1875 
L 23.1875 -13.1875 
Q 15.875 -1.703125 12.234375 9.375 
Q 8.59375 20.453125 8.59375 31.390625 
Q 8.59375 42.28125 12.203125 53.3125 
Q 15.828125 64.359375 23.1875 75.875 
z
" id="DejaVuSans-28"/>
      <path d="M 44.28125 53.078125 
L 44.28125 44.578125 
Q 40.484375 46.53125 36.375 47.5 
Q 32.28125 48.484375 27.875 48.484375 
Q 21.1875 48.484375 17.84375 46.4375 
Q 14.5 44.390625 14.5 40.28125 
Q 14.5 37.15625 16.890625 35.375 
Q 19.28125 33.59375 26.515625 31.984375 
L 29.59375 31.296875 
Q 39.15625 29.25 43.1875 25.515625 
Q 47.21875 21.78125 47.21875 15.09375 
Q 47.21875 7.46875 41.1875 3.015625 
Q 35.15625 -1.421875 24.609375 -1.421875 
Q 20.21875 -1.421875 15.453125 -0.5625 
Q 10.6875 0.296875 5.421875 2 
L 5.421875 11.28125 
Q 10.40625 8.6875 15.234375 7.390625 
Q 20.0625 6.109375 24.8125 6.109375 
Q 31.15625 6.109375 34.5625 8.28125 
Q 37.984375 10.453125 37.984375 14.40625 
Q 37.984375 18.0625 35.515625 20.015625 
Q 33.0625 21.96875 24.703125 23.78125 
L 21.578125 24.515625 
Q 13.234375 26.265625 9.515625 29.90625 
Q 5.8125 33.546875 5.8125 39.890625 
Q 5.8125 47.609375 11.28125 51.796875 
Q 16.75 56 26.8125 56 
Q 31.78125 56 36.171875 55.265625 
Q 40.578125 54.546875 44.28125 53.078125 
z
" id="DejaVuSans-73"/>
      <path d="M 8.015625 75.875 
L 15.828125 75.875 
Q 23.140625 64.359375 26.78125 53.3125 
Q 30.421875 42.28125 30.421875 31.390625 
Q 30.421875 20.453125 26.78125 9.375 
Q 23.140625 -1.703125 15.828125 -13.1875 
L 8.015625 -13.1875 
Q 14.5 -2 17.703125 9.0625 
Q 20.90625 20.125 20.90625 31.390625 
Q 20.90625 42.671875 17.703125 53.65625 
Q 14.5 64.65625 8.015625 75.875 
z
" id="DejaVuSans-29"/>
     </defs>
     <g transform="translate(513.04375 362.169007)scale(0.2 -0.2)">
      <use xlink:href="#DejaVuSans-54"/>
      <use x="61.037109" xlink:href="#DejaVuSans-69"/>
      <use x="88.820312" xlink:href="#DejaVuSans-6d"/>
      <use x="186.232422" xlink:href="#DejaVuSans-65"/>
      <use x="247.755859" xlink:href="#DejaVuSans-20"/>
      <use x="279.542969" xlink:href="#DejaVuSans-28"/>
      <use x="318.556641" xlink:href="#DejaVuSans-6d"/>
      <use x="415.96875" xlink:href="#DejaVuSans-73"/>
      <use x="468.068359" xlink:href="#DejaVuSans-29"/>
     </g>
    </g>
   </g>
   <g id="matplotlib.axis_2">
    <g id="ytick_1">
     <g id="line2d_8">
      <defs>
       <path d="M 0 0 
L -3.5 0 
" id="m3caef43a12" style="stroke:#000000;stroke-width:0.8;"/>
      </defs>
      <g>
       <use style="stroke:#000000;stroke-width:0.8;" x="61.8" xlink:href="#m3caef43a12" y="302.214832"/>
      </g>
     </g>
     <g id="text_2">
      <!-- −30 -->
      <defs>
       <path d="M 10.59375 35.5 
L 73.1875 35.5 
L 73.1875 27.203125 
L 10.59375 27.203125 
z
" id="DejaVuSans-2212"/>
       <path d="M 40.578125 39.3125 
Q 47.65625 37.796875 51.625 33 
Q 55.609375 28.21875 55.609375 21.1875 
Q 55.609375 10.40625 48.1875 4.484375 
Q 40.765625 -1.421875 27.09375 -1.421875 
Q 22.515625 -1.421875 17.65625 -0.515625 
Q 12.796875 0.390625 7.625 2.203125 
L 7.625 11.71875 
Q 11.71875 9.328125 16.59375 8.109375 
Q 21.484375 6.890625 26.8125 6.890625 
Q 36.078125 6.890625 40.9375 10.546875 
Q 45.796875 14.203125 45.796875 21.1875 
Q 45.796875 27.640625 41.28125 31.265625 
Q 36.765625 34.90625 28.71875 34.90625 
L 20.21875 34.90625 
L 20.21875 43.015625 
L 29.109375 43.015625 
Q 36.375 43.015625 40.234375 45.921875 
Q 44.09375 48.828125 44.09375 54.296875 
Q 44.09375 59.90625 40.109375 62.90625 
Q 36.140625 65.921875 28.71875 65.921875 
Q 24.65625 65.921875 20.015625 65.03125 
Q 15.375 64.15625 9.8125 62.3125 
L 9.8125 71.09375 
Q 15.4375 72.65625 20.34375 73.4375 
Q 25.25 74.21875 29.59375 74.21875 
Q 40.828125 74.21875 47.359375 69.109375 
Q 53.90625 64.015625 53.90625 55.328125 
Q 53.90625 49.265625 50.4375 45.09375 
Q 46.96875 40.921875 40.578125 39.3125 
z
" id="DejaVuSans-33"/>
       <path d="M 31.78125 66.40625 
Q 24.171875 66.40625 20.328125 58.90625 
Q 16.5 51.421875 16.5 36.375 
Q 16.5 21.390625 20.328125 13.890625 
Q 24.171875 6.390625 31.78125 6.390625 
Q 39.453125 6.390625 43.28125 13.890625 
Q 47.125 21.390625 47.125 36.375 
Q 47.125 51.421875 43.28125 58.90625 
Q 39.453125 66.40625 31.78125 66.40625 
z
M 31.78125 74.21875 
Q 44.046875 74.21875 50.515625 64.515625 
Q 56.984375 54.828125 56.984375 36.375 
Q 56.984375 17.96875 50.515625 8.265625 
Q 44.046875 -1.421875 31.78125 -1.421875 
Q 19.53125 -1.421875 13.0625 8.265625 
Q 6.59375 17.96875 6.59375 36.375 
Q 6.59375 54.828125 13.0625 64.515625 
Q 19.53125 74.21875 31.78125 74.21875 
z
" id="DejaVuSans-30"/>
      </defs>
      <g transform="translate(33.695312 306.014051)scale(0.1 -0.1)">
       <use xlink:href="#DejaVuSans-2212"/>
       <use x="83.789062" xlink:href="#DejaVuSans-33"/>
       <use x="147.412109" xlink:href="#DejaVuSans-30"/>
      </g>
     </g>
    </g>
    <g id="ytick_2">
     <g id="line2d_9">
      <g>
       <use style="stroke:#000000;stroke-width:0.8;" x="61.8" xlink:href="#m3caef43a12" y="266.680832"/>
      </g>
     </g>
     <g id="text_3">
      <!-- −20 -->
      <defs>
       <path d="M 19.1875 8.296875 
L 53.609375 8.296875 
L 53.609375 0 
L 7.328125 0 
L 7.328125 8.296875 
Q 12.9375 14.109375 22.625 23.890625 
Q 32.328125 33.6875 34.8125 36.53125 
Q 39.546875 41.84375 41.421875 45.53125 
Q 43.3125 49.21875 43.3125 52.78125 
Q 43.3125 58.59375 39.234375 62.25 
Q 35.15625 65.921875 28.609375 65.921875 
Q 23.96875 65.921875 18.8125 64.3125 
Q 13.671875 62.703125 7.8125 59.421875 
L 7.8125 69.390625 
Q 13.765625 71.78125 18.9375 73 
Q 24.125 74.21875 28.421875 74.21875 
Q 39.75 74.21875 46.484375 68.546875 
Q 53.21875 62.890625 53.21875 53.421875 
Q 53.21875 48.921875 51.53125 44.890625 
Q 49.859375 40.875 45.40625 35.40625 
Q 44.1875 33.984375 37.640625 27.21875 
Q 31.109375 20.453125 19.1875 8.296875 
z
" id="DejaVuSans-32"/>
      </defs>
      <g transform="translate(33.695312 270.480051)scale(0.1 -0.1)">
       <use xlink:href="#DejaVuSans-2212"/>
       <use x="83.789062" xlink:href="#DejaVuSans-32"/>
       <use x="147.412109" xlink:href="#DejaVuSans-30"/>
      </g>
     </g>
    </g>
    <g id="ytick_3">
     <g id="line2d_10">
      <g>
       <use style="stroke:#000000;stroke-width:0.8;" x="61.8" xlink:href="#m3caef43a12" y="231.146833"/>
      </g>
     </g>
     <g id="text_4">
      <!-- −10 -->
      <defs>
       <path d="M 12.40625 8.296875 
L 28.515625 8.296875 
L 28.515625 63.921875 
L 10.984375 60.40625 
L 10.984375 69.390625 
L 28.421875 72.90625 
L 38.28125 72.90625 
L 38.28125 8.296875 
L 54.390625 8.296875 
L 54.390625 0 
L 12.40625 0 
z
" id="DejaVuSans-31"/>
      </defs>
      <g transform="translate(33.695312 234.946051)scale(0.1 -0.1)">
       <use xlink:href="#DejaVuSans-2212"/>
       <use x="83.789062" xlink:href="#DejaVuSans-31"/>
       <use x="147.412109" xlink:href="#DejaVuSans-30"/>
      </g>
     </g>
    </g>
    <g id="ytick_4">
     <g id="line2d_11">
      <g>
       <use style="stroke:#000000;stroke-width:0.8;" x="61.8" xlink:href="#m3caef43a12" y="195.612833"/>
      </g>
     </g>
     <g id="text_5">
      <!-- 0 -->
      <g transform="translate(48.4375 199.412052)scale(0.1 -0.1)">
       <use xlink:href="#DejaVuSans-30"/>
      </g>
     </g>
    </g>
    <g id="ytick_5">
     <g id="line2d_12">
      <g>
       <use style="stroke:#000000;stroke-width:0.8;" x="61.8" xlink:href="#m3caef43a12" y="160.078833"/>
      </g>
     </g>
     <g id="text_6">
      <!-- 10 -->
      <g transform="translate(42.075 163.878052)scale(0.1 -0.1)">
       <use xlink:href="#DejaVuSans-31"/>
       <use x="63.623047" xlink:href="#DejaVuSans-30"/>
      </g>
     </g>
    </g>
    <g id="ytick_6">
     <g id="line2d_13">
      <g>
       <use style="stroke:#000000;stroke-width:0.8;" x="61.8" xlink:href="#m3caef43a12" y="124.544834"/>
      </g>
     </g>
     <g id="text_7">
      <!-- 20 -->
      <g transform="translate(42.075 128.344052)scale(0.1 -0.1)">
       <use xlink:href="#DejaVuSans-32"/>
       <use x="63.623047" xlink:href="#DejaVuSans-30"/>
      </g>
     </g>
    </g>
    <g id="ytick_7">
     <g id="line2d_14">
      <g>
       <use style="stroke:#000000;stroke-width:0.8;" x="61.8" xlink:href="#m3caef43a12" y="89.010834"/>
      </g>
     </g>
     <g id="text_8">
      <!-- 30 -->
      <g transform="translate(42.075 92.810053)scale(0.1 -0.1)">
       <use xlink:href="#DejaVuSans-33"/>
       <use x="63.623047" xlink:href="#DejaVuSans-30"/>
      </g>
     </g>
    </g>
    <g id="text_9">
     <!-- Velocity (°/s) -->
     <defs>
      <path d="M 28.609375 0 
L 0.78125 72.90625 
L 11.078125 72.90625 
L 34.1875 11.53125 
L 57.328125 72.90625 
L 67.578125 72.90625 
L 39.796875 0 
z
" id="DejaVuSans-56"/>
      <path d="M 9.421875 75.984375 
L 18.40625 75.984375 
L 18.40625 0 
L 9.421875 0 
z
" id="DejaVuSans-6c"/>
      <path d="M 30.609375 48.390625 
Q 23.390625 48.390625 19.1875 42.75 
Q 14.984375 37.109375 14.984375 27.296875 
Q 14.984375 17.484375 19.15625 11.84375 
Q 23.34375 6.203125 30.609375 6.203125 
Q 37.796875 6.203125 41.984375 11.859375 
Q 46.1875 17.53125 46.1875 27.296875 
Q 46.1875 37.015625 41.984375 42.703125 
Q 37.796875 48.390625 30.609375 48.390625 
z
M 30.609375 56 
Q 42.328125 56 49.015625 48.375 
Q 55.71875 40.765625 55.71875 27.296875 
Q 55.71875 13.875 49.015625 6.21875 
Q 42.328125 -1.421875 30.609375 -1.421875 
Q 18.84375 -1.421875 12.171875 6.21875 
Q 5.515625 13.875 5.515625 27.296875 
Q 5.515625 40.765625 12.171875 48.375 
Q 18.84375 56 30.609375 56 
z
" id="DejaVuSans-6f"/>
      <path d="M 48.78125 52.59375 
L 48.78125 44.1875 
Q 44.96875 46.296875 41.140625 47.34375 
Q 37.3125 48.390625 33.40625 48.390625 
Q 24.65625 48.390625 19.8125 42.84375 
Q 14.984375 37.3125 14.984375 27.296875 
Q 14.984375 17.28125 19.8125 11.734375 
Q 24.65625 6.203125 33.40625 6.203125 
Q 37.3125 6.203125 41.140625 7.25 
Q 44.96875 8.296875 48.78125 10.40625 
L 48.78125 2.09375 
Q 45.015625 0.34375 40.984375 -0.53125 
Q 36.96875 -1.421875 32.421875 -1.421875 
Q 20.0625 -1.421875 12.78125 6.34375 
Q 5.515625 14.109375 5.515625 27.296875 
Q 5.515625 40.671875 12.859375 48.328125 
Q 20.21875 56 33.015625 56 
Q 37.15625 56 41.109375 55.140625 
Q 45.0625 54.296875 48.78125 52.59375 
z
" id="DejaVuSans-63"/>
      <path d="M 18.3125 70.21875 
L 18.3125 54.6875 
L 36.8125 54.6875 
L 36.8125 47.703125 
L 18.3125 47.703125 
L 18.3125 18.015625 
Q 18.3125 11.328125 20.140625 9.421875 
Q 21.96875 7.515625 27.59375 7.515625 
L 36.8125 7.515625 
L 36.8125 0 
L 27.59375 0 
Q 17.1875 0 13.234375 3.875 
Q 9.28125 7.765625 9.28125 18.015625 
L 9.28125 47.703125 
L 2.6875 47.703125 
L 2.6875 54.6875 
L 9.28125 54.6875 
L 9.28125 70.21875 
z
" id="DejaVuSans-74"/>
      <path d="M 32.171875 -5.078125 
Q 28.375 -14.84375 24.75 -17.8125 
Q 21.140625 -20.796875 15.09375 -20.796875 
L 7.90625 -20.796875 
L 7.90625 -13.28125 
L 13.1875 -13.28125 
Q 16.890625 -13.28125 18.9375 -11.515625 
Q 21 -9.765625 23.484375 -3.21875 
L 25.09375 0.875 
L 2.984375 54.6875 
L 12.5 54.6875 
L 29.59375 11.921875 
L 46.6875 54.6875 
L 56.203125 54.6875 
z
" id="DejaVuSans-79"/>
      <path d="M 25 67.921875 
Q 21.09375 67.921875 18.40625 65.203125 
Q 15.71875 62.5 15.71875 58.59375 
Q 15.71875 54.734375 18.40625 52.078125 
Q 21.09375 49.421875 25 49.421875 
Q 28.90625 49.421875 31.59375 52.078125 
Q 34.28125 54.734375 34.28125 58.59375 
Q 34.28125 62.453125 31.5625 65.1875 
Q 28.859375 67.921875 25 67.921875 
z
M 25 74.21875 
Q 28.125 74.21875 31 73.015625 
Q 33.890625 71.828125 35.984375 69.578125 
Q 38.234375 67.390625 39.359375 64.59375 
Q 40.484375 61.8125 40.484375 58.59375 
Q 40.484375 52.15625 35.96875 47.6875 
Q 31.453125 43.21875 24.90625 43.21875 
Q 18.3125 43.21875 13.90625 47.609375 
Q 9.515625 52 9.515625 58.59375 
Q 9.515625 65.140625 14 69.671875 
Q 18.5 74.21875 25 74.21875 
z
" id="DejaVuSans-b0"/>
      <path d="M 25.390625 72.90625 
L 33.6875 72.90625 
L 8.296875 -9.28125 
L 0 -9.28125 
z
" id="DejaVuSans-2f"/>
     </defs>
     <g transform="translate(25.535937 260.16752)rotate(-90)scale(0.2 -0.2)">
      <use xlink:href="#DejaVuSans-56"/>
      <use x="68.298828" xlink:href="#DejaVuSans-65"/>
      <use x="129.822266" xlink:href="#DejaVuSans-6c"/>
      <use x="157.605469" xlink:href="#DejaVuSans-6f"/>
      <use x="218.787109" xlink:href="#DejaVuSans-63"/>
      <use x="273.767578" xlink:href="#DejaVuSans-69"/>
      <use x="301.550781" xlink:href="#DejaVuSans-74"/>
      <use x="340.759766" xlink:href="#DejaVuSans-79"/>
      <use x="399.939453" xlink:href="#DejaVuSans-20"/>
      <use x="431.726562" xlink:href="#DejaVuSans-28"/>
      <use x="470.740234" xlink:href="#DejaVuSans-b0"/>
      <use x="520.740234" xlink:href="#DejaVuSans-2f"/>
      <use x="554.431641" xlink:href="#DejaVuSans-73"/>
      <use x="606.53125" xlink:href="#DejaVuSans-29"/>
     </g>
    </g>
   </g>
   <g id="line2d_15">
    <path clip-path="url(#p2f4d6f5d7a)" d="M 61.130733 178.756359 
L 61.8 184.375184 
L 62.469267 201.231657 
L 63.138533 206.850482 
L 65.146333 206.850482 
L 66.484867 195.612833 
L 67.154133 201.231657 
L 68.492667 178.756359 
L 69.8312 178.756359 
L 70.500467 189.994008 
L 71.839 189.994008 
L 72.508267 206.850482 
L 73.177533 218.088131 
L 73.8468 218.088131 
L 75.185333 206.850482 
L 75.8546 206.850482 
L 76.523867 184.375184 
L 77.193133 150.662237 
L 77.8624 139.424588 
L 78.531667 161.899886 
L 79.200933 189.994008 
L 79.8702 195.612833 
L 82.547267 195.612833 
L 83.8858 161.899886 
L 84.555067 167.51871 
L 85.224333 195.612833 
L 85.8936 212.469306 
L 86.562867 201.231657 
L 89.239933 201.231657 
L 89.9092 206.850482 
L 90.578467 223.706956 
L 91.247733 229.32578 
L 91.917 212.469306 
L 92.586267 201.231657 
L 93.255533 201.231657 
L 93.9248 195.612833 
L 94.594067 195.612833 
L 95.9326 173.137535 
L 97.271133 184.375184 
L 97.9404 184.375184 
L 98.609667 189.994008 
L 100.617467 189.994008 
L 101.286733 184.375184 
L 101.956 195.612833 
L 102.625267 201.231657 
L 103.294533 195.612833 
L 103.9638 201.231657 
L 105.302333 201.231657 
L 105.9716 206.850482 
L 106.640867 206.850482 
L 107.310133 201.231657 
L 107.9794 189.994008 
L 108.648667 173.137535 
L 109.317933 161.899886 
L 109.9872 173.137535 
L 110.656467 195.612833 
L 111.325733 201.231657 
L 113.333533 167.51871 
L 114.0028 167.51871 
L 115.341333 178.756359 
L 116.0106 189.994008 
L 117.349133 201.231657 
L 118.0184 212.469306 
L 118.687667 218.088131 
L 119.356933 218.088131 
L 120.0262 212.469306 
L 120.695467 212.469306 
L 121.364733 218.088131 
L 122.034 212.469306 
L 122.703267 195.612833 
L 123.372533 189.994008 
L 124.0418 195.612833 
M 148.804667 94.473991 
L 150.1432 161.899886 
L 150.812467 161.899886 
L 151.481733 167.51871 
L 152.151 178.756359 
L 153.489533 145.043412 
L 154.1588 150.662237 
L 154.828067 173.137535 
L 155.497333 189.994008 
L 156.1666 189.994008 
L 156.835867 195.612833 
L 158.843667 178.756359 
L 159.512933 178.756359 
L 160.1822 189.994008 
L 160.851467 206.850482 
L 161.520733 206.850482 
L 162.19 189.994008 
L 162.859267 189.994008 
L 163.528533 206.850482 
L 164.1978 212.469306 
L 164.867067 201.231657 
L 165.536333 201.231657 
L 166.2056 218.088131 
L 166.874867 223.706956 
L 168.2134 189.994008 
L 169.551933 189.994008 
L 170.2212 195.612833 
L 170.890467 212.469306 
L 171.559733 206.850482 
L 172.229 189.994008 
L 172.898267 189.994008 
L 173.567533 201.231657 
L 174.2368 206.850482 
L 174.906067 206.850482 
L 176.2446 184.375184 
L 176.913867 184.375184 
L 177.583133 178.756359 
L 178.2524 178.756359 
L 178.921667 189.994008 
L 179.590933 195.612833 
L 180.2602 189.994008 
L 181.598733 156.281061 
L 182.268 173.137535 
L 182.937267 212.469306 
L 183.606533 223.706956 
L 184.2758 206.850482 
L 184.945067 195.612833 
L 186.2836 195.612833 
L 188.2914 212.469306 
L 189.629933 212.469306 
L 190.2992 206.850482 
L 190.968467 195.612833 
L 191.637733 195.612833 
L 192.307 201.231657 
L 192.976267 223.706956 
L 193.645533 234.944605 
L 194.3148 229.32578 
L 195.653333 206.850482 
L 196.3226 218.088131 
L 196.991867 212.469306 
L 197.661133 201.231657 
L 198.3304 201.231657 
L 198.999667 195.612833 
L 199.668933 201.231657 
L 200.3382 201.231657 
L 201.007467 184.375184 
L 201.676733 184.375184 
L 202.346 201.231657 
L 203.015267 212.469306 
L 203.684533 218.088131 
L 204.3538 206.850482 
L 205.023067 189.994008 
L 207.030867 173.137535 
L 207.700133 178.756359 
L 209.038667 178.756359 
L 209.707933 173.137535 
L 210.3772 161.899886 
L 211.046467 195.612833 
L 211.715733 240.563429 
L 212.385 251.801078 
L 213.723533 195.612833 
L 214.3928 184.375184 
L 215.731333 173.137535 
L 216.4006 173.137535 
L 217.069867 189.994008 
L 217.739133 189.994008 
L 218.4084 184.375184 
L 219.077667 189.994008 
L 219.746933 201.231657 
L 220.4162 206.850482 
L 221.754733 206.850482 
L 222.424 212.469306 
L 223.093267 212.469306 
L 224.4318 189.994008 
L 225.101067 184.375184 
L 225.770333 184.375184 
L 226.4396 189.994008 
L 227.108867 189.994008 
L 227.778133 178.756359 
L 228.4474 184.375184 
L 229.116667 212.469306 
L 229.785933 234.944605 
L 230.4552 223.706956 
L 231.124467 201.231657 
L 231.793733 195.612833 
L 233.132267 195.612833 
L 233.801533 201.231657 
L 235.140067 223.706956 
L 235.809333 218.088131 
L 236.4786 206.850482 
L 237.817133 229.32578 
L 238.4864 229.32578 
L 239.824933 195.612833 
L 240.4942 201.231657 
L 241.163467 201.231657 
L 241.832733 189.994008 
L 242.502 184.375184 
L 243.840533 206.850482 
L 244.5098 206.850482 
L 245.179067 218.088131 
L 245.848333 218.088131 
L 247.856133 201.231657 
L 248.5254 201.231657 
L 249.194667 195.612833 
L 249.863933 178.756359 
L 251.202467 133.805763 
L 251.871733 133.805763 
L 252.541 156.281061 
L 253.210267 173.137535 
L 253.879533 184.375184 
L 254.5488 178.756359 
L 255.218067 161.899886 
L 255.887333 150.662237 
L 256.5566 156.281061 
L 257.225867 178.756359 
L 257.895133 178.756359 
L 258.5644 161.899886 
L 259.233667 167.51871 
L 259.902933 189.994008 
L 260.5722 195.612833 
L 261.241467 178.756359 
L 261.910733 173.137535 
L 262.58 173.137535 
L 263.249267 184.375184 
L 263.918533 201.231657 
L 264.5878 206.850482 
L 265.257067 234.944605 
L 265.926333 257.419903 
L 266.5956 268.657552 
L 267.264867 257.419903 
L 267.934133 229.32578 
L 269.272667 195.612833 
L 269.941933 189.994008 
L 270.6112 189.994008 
L 271.280467 201.231657 
L 271.949733 195.612833 
L 272.619 178.756359 
L 273.288267 173.137535 
L 274.6268 195.612833 
L 275.296067 201.231657 
L 275.965333 212.469306 
L 276.6346 206.850482 
L 277.303867 189.994008 
L 277.973133 189.994008 
L 278.6424 201.231657 
L 279.311667 201.231657 
L 279.980933 189.994008 
L 280.6502 184.375184 
L 281.319467 201.231657 
L 281.988733 223.706956 
L 282.658 234.944605 
L 283.327267 234.944605 
L 283.996533 223.706956 
L 285.335067 189.994008 
L 286.004333 184.375184 
L 286.6736 189.994008 
L 287.342867 201.231657 
L 288.012133 206.850482 
L 288.6814 206.850482 
L 290.019933 195.612833 
L 290.6892 184.375184 
L 291.358467 167.51871 
L 292.027733 173.137535 
L 292.697 161.899886 
L 293.366267 145.043412 
L 294.035533 145.043412 
L 294.7048 156.281061 
L 295.374067 184.375184 
L 296.043333 195.612833 
L 297.381867 195.612833 
L 298.051133 189.994008 
L 300.058933 206.850482 
L 300.7282 218.088131 
L 301.397467 223.706956 
L 302.066733 218.088131 
L 303.405267 145.043412 
L 304.074533 150.662237 
L 304.7438 184.375184 
L 305.413067 212.469306 
L 306.082333 212.469306 
L 306.7516 201.231657 
L 307.420867 201.231657 
L 308.090133 212.469306 
L 308.7594 212.469306 
L 309.428667 201.231657 
L 310.097933 195.612833 
L 310.7672 195.612833 
L 312.105733 206.850482 
L 312.775 206.850482 
L 314.7828 223.706956 
L 315.452067 218.088131 
L 316.121333 201.231657 
L 316.7906 201.231657 
L 318.129133 212.469306 
L 318.7984 212.469306 
L 320.136933 189.994008 
L 320.8062 189.994008 
L 322.144733 178.756359 
L 322.814 184.375184 
L 323.483267 195.612833 
L 324.152533 201.231657 
L 324.8218 195.612833 
L 325.491067 195.612833 
L 326.160333 201.231657 
L 327.498867 201.231657 
L 328.168133 206.850482 
L 328.8374 201.231657 
L 329.506667 189.994008 
L 330.175933 184.375184 
L 330.8452 173.137535 
L 331.514467 167.51871 
L 332.183733 173.137535 
L 332.853 189.994008 
L 333.522267 201.231657 
L 334.191533 189.994008 
L 335.530067 223.706956 
L 336.199333 218.088131 
L 337.537867 184.375184 
L 339.545667 201.231657 
L 340.214933 201.231657 
L 340.8842 189.994008 
L 341.553467 195.612833 
L 342.222733 206.850482 
L 342.892 206.850482 
L 343.561267 201.231657 
L 344.230533 189.994008 
L 344.8998 184.375184 
L 345.569067 184.375184 
L 346.238333 178.756359 
L 346.9076 184.375184 
L 347.576867 195.612833 
L 348.246133 195.612833 
L 349.584667 206.850482 
L 350.253933 206.850482 
L 350.9232 195.612833 
L 351.592467 189.994008 
L 352.931 201.231657 
L 353.600267 201.231657 
L 354.9388 178.756359 
L 355.608067 173.137535 
L 358.285133 195.612833 
L 359.623667 195.612833 
L 360.292933 189.994008 
L 361.631467 167.51871 
L 362.300733 167.51871 
L 362.97 189.994008 
L 363.639267 201.231657 
L 365.647067 184.375184 
L 366.316333 184.375184 
L 366.9856 189.994008 
L 367.654867 212.469306 
L 368.324133 240.563429 
L 368.9934 251.801078 
L 369.662667 234.944605 
L 370.331933 212.469306 
L 371.0012 212.469306 
L 371.670467 218.088131 
L 372.339733 218.088131 
L 373.009 206.850482 
L 373.678267 201.231657 
L 375.0168 201.231657 
L 375.686067 206.850482 
L 376.355333 206.850482 
L 377.0246 195.612833 
L 377.693867 167.51871 
L 378.363133 145.043412 
L 379.0324 150.662237 
L 379.701667 161.899886 
L 380.370933 161.899886 
L 381.0402 173.137535 
L 381.709467 195.612833 
L 382.378733 201.231657 
L 383.048 195.612833 
L 383.717267 195.612833 
L 384.386533 201.231657 
L 385.0558 218.088131 
L 385.725067 229.32578 
L 386.394333 218.088131 
L 387.0636 223.706956 
L 387.732867 240.563429 
L 388.402133 240.563429 
L 389.740667 173.137535 
L 390.409933 173.137535 
L 391.0792 189.994008 
L 391.748467 201.231657 
L 392.417733 189.994008 
L 394.425533 173.137535 
L 395.0948 178.756359 
L 395.764067 189.994008 
L 396.433333 195.612833 
L 397.1026 184.375184 
L 397.771867 178.756359 
L 399.779667 195.612833 
L 400.448933 184.375184 
L 401.1182 178.756359 
L 402.456733 201.231657 
L 403.126 201.231657 
L 404.464533 178.756359 
L 405.1338 173.137535 
L 405.803067 173.137535 
L 407.1416 218.088131 
L 407.810867 212.469306 
L 408.480133 195.612833 
L 409.1494 184.375184 
L 410.487933 218.088131 
L 412.495733 218.088131 
L 413.165 206.850482 
L 413.834267 189.994008 
L 415.1728 178.756359 
L 415.842067 184.375184 
L 416.511333 195.612833 
L 418.519133 195.612833 
L 419.857667 184.375184 
L 421.1962 195.612833 
L 422.534733 173.137535 
L 423.204 173.137535 
L 423.873267 178.756359 
L 424.542533 178.756359 
L 425.2118 173.137535 
L 425.881067 184.375184 
L 426.550333 189.994008 
L 427.2196 189.994008 
L 427.888867 195.612833 
L 428.558133 189.994008 
L 429.2274 189.994008 
L 429.896667 201.231657 
L 431.2352 201.231657 
L 431.904467 189.994008 
L 432.573733 173.137535 
L 433.243 178.756359 
L 433.912267 195.612833 
L 434.581533 206.850482 
L 435.920067 184.375184 
L 437.927867 201.231657 
L 438.597133 218.088131 
L 439.2664 223.706956 
L 439.935667 223.706956 
L 440.604933 212.469306 
L 441.2742 184.375184 
L 441.943467 173.137535 
L 442.612733 173.137535 
L 443.951267 206.850482 
L 445.2898 206.850482 
L 445.959067 201.231657 
L 446.628333 189.994008 
L 447.2976 184.375184 
L 447.966867 189.994008 
L 448.636133 201.231657 
L 449.3054 206.850482 
L 449.974667 201.231657 
L 450.643933 189.994008 
L 451.3132 184.375184 
L 452.651733 206.850482 
L 453.990267 195.612833 
L 455.3288 206.850482 
L 455.998067 218.088131 
L 456.667333 234.944605 
L 457.3366 234.944605 
L 458.005867 229.32578 
L 458.675133 218.088131 
L 459.3444 201.231657 
L 460.013667 189.994008 
L 460.682933 189.994008 
L 461.3522 206.850482 
L 462.021467 206.850482 
L 462.690733 184.375184 
L 463.36 195.612833 
L 464.029267 223.706956 
L 464.698533 234.944605 
L 466.706333 201.231657 
L 468.044867 156.281061 
L 468.714133 150.662237 
L 469.3834 156.281061 
L 470.052667 173.137535 
L 470.721933 201.231657 
L 472.060467 189.994008 
L 472.729733 195.612833 
L 473.399 189.994008 
L 474.068267 178.756359 
L 474.737533 178.756359 
L 475.4068 189.994008 
L 476.076067 195.612833 
L 476.745333 189.994008 
L 478.083867 189.994008 
L 478.753133 184.375184 
L 479.4224 189.994008 
L 480.091667 201.231657 
L 482.099467 201.231657 
L 482.768733 189.994008 
L 483.438 184.375184 
L 484.107267 184.375184 
L 484.776533 178.756359 
L 485.4458 178.756359 
L 486.784333 189.994008 
L 488.122867 189.994008 
L 488.792133 195.612833 
L 490.799933 195.612833 
L 492.138467 206.850482 
L 492.807733 206.850482 
L 494.146267 195.612833 
L 494.815533 195.612833 
L 496.154067 206.850482 
L 496.823333 206.850482 
L 498.161867 195.612833 
L 498.831133 195.612833 
L 499.5004 189.994008 
L 500.169667 189.994008 
L 500.838933 195.612833 
L 502.177467 184.375184 
L 502.846733 189.994008 
L 503.516 201.231657 
L 504.185267 206.850482 
L 504.854533 201.231657 
L 505.5238 184.375184 
L 506.193067 173.137535 
L 506.862333 178.756359 
L 507.5316 195.612833 
L 508.200867 206.850482 
L 508.870133 206.850482 
L 509.5394 201.231657 
L 510.208667 189.994008 
L 511.5472 178.756359 
L 512.885733 201.231657 
L 514.224267 212.469306 
L 516.232067 195.612833 
L 517.5706 195.612833 
L 518.239867 189.994008 
L 518.909133 195.612833 
L 519.5784 212.469306 
L 520.247667 212.469306 
L 520.916933 195.612833 
L 521.5862 189.994008 
L 522.924733 189.994008 
L 524.263267 201.231657 
L 524.932533 201.231657 
L 525.6018 195.612833 
L 526.940333 240.563429 
L 527.6096 234.944605 
L 528.278867 206.850482 
L 528.948133 189.994008 
L 529.6174 195.612833 
L 530.955933 184.375184 
L 532.294467 184.375184 
L 532.963733 206.850482 
L 533.633 223.706956 
L 534.302267 218.088131 
L 535.6408 218.088131 
L 536.310067 206.850482 
L 537.6486 161.899886 
L 538.317867 145.043412 
L 538.987133 139.424588 
L 539.6564 150.662237 
L 540.325667 178.756359 
L 540.994933 178.756359 
L 541.6642 156.281061 
L 542.333467 150.662237 
L 544.341267 167.51871 
L 545.6798 189.994008 
L 547.018333 189.994008 
L 547.6876 195.612833 
L 548.356867 212.469306 
L 549.026133 223.706956 
L 550.364667 212.469306 
L 551.033933 201.231657 
L 552.372467 201.231657 
L 553.041733 189.994008 
L 553.711 184.375184 
L 555.049533 161.899886 
L 555.7188 184.375184 
L 557.057333 240.563429 
L 557.7266 246.182254 
L 559.7344 195.612833 
L 561.072933 173.137535 
L 561.7422 173.137535 
L 562.411467 184.375184 
L 563.080733 184.375184 
L 563.75 173.137535 
L 565.088533 195.612833 
L 566.427067 206.850482 
L 567.096333 223.706956 
L 567.7656 229.32578 
L 568.434867 223.706956 
L 569.104133 212.469306 
L 569.7734 178.756359 
L 570.442667 167.51871 
L 571.111933 173.137535 
L 571.7812 184.375184 
L 572.450467 178.756359 
L 573.119733 167.51871 
L 573.789 173.137535 
L 574.458267 184.375184 
L 575.7968 184.375184 
L 576.466067 195.612833 
L 577.135333 195.612833 
L 578.473867 206.850482 
L 579.143133 206.850482 
L 579.8124 189.994008 
L 580.481667 178.756359 
L 581.150933 178.756359 
L 582.489467 189.994008 
L 583.828 178.756359 
L 584.497267 178.756359 
L 586.505067 195.612833 
L 588.512867 195.612833 
L 589.8514 184.375184 
L 591.189933 195.612833 
L 591.8592 195.612833 
L 593.197733 184.375184 
L 594.536267 184.375184 
L 595.8748 195.612833 
L 597.213333 161.899886 
L 597.8826 189.994008 
L 598.551867 234.944605 
L 599.221133 240.563429 
L 599.8904 201.231657 
L 600.559667 173.137535 
L 601.228933 167.51871 
L 603.236733 184.375184 
L 603.906 195.612833 
L 604.575267 189.994008 
L 605.244533 189.994008 
L 605.9138 201.231657 
L 606.583067 201.231657 
L 607.9216 189.994008 
L 608.590867 189.994008 
L 609.260133 195.612833 
L 609.9294 189.994008 
L 610.598667 189.994008 
L 611.267933 201.231657 
L 611.9372 189.994008 
L 612.606467 167.51871 
L 613.275733 167.51871 
L 613.945 184.375184 
L 614.614267 189.994008 
L 615.283533 184.375184 
L 615.9528 184.375184 
L 617.291333 206.850482 
L 618.629867 184.375184 
L 619.9684 184.375184 
L 620.637667 178.756359 
L 622.645467 178.756359 
L 623.314733 206.850482 
L 623.984 229.32578 
L 624.653267 223.706956 
L 625.322533 206.850482 
L 625.9918 195.612833 
L 627.9996 195.612833 
L 629.338133 206.850482 
L 630.0074 195.612833 
L 630.676667 178.756359 
L 631.345933 173.137535 
L 632.0152 184.375184 
L 632.684467 189.994008 
L 633.353733 184.375184 
L 634.692267 184.375184 
L 635.361533 189.994008 
L 636.700067 189.994008 
L 637.369333 206.850482 
L 638.0386 212.469306 
L 638.707867 206.850482 
L 639.377133 206.850482 
L 640.0464 201.231657 
L 640.715667 201.231657 
L 641.384933 206.850482 
L 642.0542 206.850482 
L 642.723467 195.612833 
L 643.392733 178.756359 
L 644.062 173.137535 
L 645.400533 229.32578 
L 646.0698 229.32578 
L 646.739067 212.469306 
L 647.408333 206.850482 
L 648.0776 218.088131 
L 648.746867 218.088131 
L 649.416133 206.850482 
L 650.0854 184.375184 
L 650.754667 178.756359 
L 651.423933 178.756359 
L 652.0932 167.51871 
L 652.762467 167.51871 
L 653.431733 189.994008 
L 654.101 206.850482 
L 655.439533 195.612833 
L 659.455133 195.612833 
L 660.1244 189.994008 
L 660.793667 189.994008 
L 661.462933 201.231657 
L 662.801467 189.994008 
L 663.470733 195.612833 
L 664.809267 195.612833 
L 665.478533 189.994008 
L 666.1478 189.994008 
L 666.817067 195.612833 
L 668.1556 195.612833 
L 669.494133 229.32578 
L 670.1634 234.944605 
L 672.1712 201.231657 
L 672.840467 184.375184 
L 673.509733 178.756359 
L 674.179 178.756359 
L 674.848267 189.994008 
L 675.517533 206.850482 
L 676.1868 218.088131 
L 676.856067 206.850482 
L 678.863867 189.994008 
L 679.533133 195.612833 
L 680.871667 195.612833 
L 681.540933 201.231657 
L 682.879467 201.231657 
L 684.218 223.706956 
L 684.887267 218.088131 
L 685.556533 206.850482 
L 686.895067 206.850482 
L 688.2336 195.612833 
L 688.902867 201.231657 
L 689.572133 201.231657 
L 690.2414 189.994008 
L 690.910667 189.994008 
L 691.579933 218.088131 
L 692.2492 234.944605 
L 692.918467 229.32578 
L 693.587733 212.469306 
L 694.257 201.231657 
L 695.595533 212.469306 
L 696.2648 206.850482 
L 696.934067 189.994008 
L 697.603333 178.756359 
L 698.2726 184.375184 
L 698.941867 195.612833 
L 699.611133 195.612833 
L 700.2804 189.994008 
L 700.949667 189.994008 
L 701.618933 195.612833 
L 702.2882 195.612833 
L 702.957467 201.231657 
L 704.965267 201.231657 
L 705.634533 223.706956 
L 706.3038 251.801078 
L 706.973067 263.038727 
L 707.642333 246.182254 
L 708.3116 201.231657 
L 708.980867 178.756359 
L 709.650133 167.51871 
L 710.3194 178.756359 
L 710.988667 195.612833 
L 711.657933 206.850482 
M 744.452 218.088131 
L 745.121267 212.469306 
L 745.790533 218.088131 
L 746.4598 240.563429 
L 747.129067 251.801078 
L 747.798333 240.563429 
L 748.4676 212.469306 
L 749.136867 195.612833 
L 749.806133 212.469306 
L 750.4754 234.944605 
L 751.144667 234.944605 
L 751.813933 218.088131 
L 752.4832 206.850482 
L 753.152467 223.706956 
L 753.821733 246.182254 
L 754.491 251.801078 
L 755.160267 246.182254 
L 755.829533 251.801078 
L 757.837333 285.514025 
L 758.5066 291.13285 
L 759.845133 257.419903 
L 760.5144 251.801078 
L 761.852933 263.038727 
L 762.5222 263.038727 
L 763.191467 291.13285 
L 763.860733 307.989323 
L 764.53 307.989323 
L 765.199267 285.514025 
L 766.5378 212.469306 
L 767.207067 195.612833 
L 768.5456 218.088131 
L 769.214867 246.182254 
L 769.884133 257.419903 
L 771.222667 234.944605 
L 771.891933 246.182254 
L 772.5612 296.751674 
L 773.230467 313.608148 
L 773.899733 307.989323 
L 775.238267 274.276376 
L 775.907533 251.801078 
L 776.5768 251.801078 
L 777.246067 279.895201 
L 777.915333 291.13285 
L 779.253867 257.419903 
L 779.923133 285.514025 
L 780.5924 307.989323 
L 781.261667 296.751674 
L 782.6002 240.563429 
L 783.269467 234.944605 
L 783.938733 240.563429 
L 784.608 251.801078 
L 785.277267 257.419903 
L 785.946533 279.895201 
L 786.6158 296.751674 
L 787.285067 302.370499 
L 787.954333 291.13285 
L 788.6236 268.657552 
L 789.292867 274.276376 
L 789.962133 268.657552 
L 790.6314 251.801078 
L 791.300667 229.32578 
L 791.969933 240.563429 
L 792.6392 268.657552 
L 793.308467 279.895201 
L 794.647 268.657552 
L 795.316267 257.419903 
L 795.985533 234.944605 
L 796.6548 246.182254 
L 797.324067 285.514025 
L 797.993333 296.751674 
L 798.6626 268.657552 
L 799.331867 251.801078 
L 800.001133 263.038727 
L 800.6704 268.657552 
L 801.339667 246.182254 
L 802.008933 229.32578 
L 802.6782 229.32578 
L 803.347467 234.944605 
L 804.016733 229.32578 
L 804.686 218.088131 
L 806.024533 296.751674 
L 806.6938 296.751674 
L 807.363067 257.419903 
L 808.032333 229.32578 
L 808.7016 240.563429 
L 809.370867 246.182254 
L 810.040133 246.182254 
L 811.378667 257.419903 
L 812.047933 246.182254 
L 812.7172 246.182254 
L 813.386467 263.038727 
L 814.055733 274.276376 
L 814.725 268.657552 
L 816.063533 291.13285 
L 816.7328 285.514025 
L 817.402067 263.038727 
L 818.071333 263.038727 
L 818.7406 274.276376 
L 820.079133 274.276376 
L 820.7484 268.657552 
L 822.7562 268.657552 
L 823.425467 263.038727 
L 824.094733 263.038727 
L 824.764 285.514025 
L 825.433267 313.608148 
L 826.102533 296.751674 
M 854.211733 234.944605 
L 854.881 234.944605 
L 855.550267 251.801078 
L 856.219533 285.514025 
L 856.8888 330.464622 
L 857.558067 336.083446 
L 858.227333 302.370499 
L 858.8966 279.895201 
L 860.235133 246.182254 
L 860.9044 223.706956 
L 861.573667 206.850482 
L 862.242933 212.469306 
L 862.9122 234.944605 
L 863.581467 246.182254 
L 864.250733 246.182254 
L 864.92 229.32578 
L 865.589267 240.563429 
L 866.258533 274.276376 
L 866.9278 279.895201 
L 867.597067 240.563429 
L 868.266333 229.32578 
L 868.9356 263.038727 
L 869.604867 268.657552 
L 870.9434 223.706956 
L 872.281933 268.657552 
L 872.9512 263.038727 
L 873.620467 251.801078 
L 874.289733 268.657552 
L 874.959 291.13285 
L 877.636067 246.182254 
L 878.305333 246.182254 
L 878.9746 240.563429 
L 879.643867 251.801078 
L 880.9824 263.038727 
L 881.651667 279.895201 
L 882.320933 291.13285 
L 882.9902 296.751674 
L 883.659467 279.895201 
L 884.328733 246.182254 
L 884.998 223.706956 
L 885.667267 234.944605 
L 886.336533 268.657552 
L 887.0058 285.514025 
L 887.675067 263.038727 
L 888.344333 229.32578 
L 889.0136 229.32578 
L 889.682867 240.563429 
L 890.352133 246.182254 
L 891.690667 291.13285 
L 892.359933 291.13285 
L 893.0292 251.801078 
L 893.698467 240.563429 
L 894.367733 257.419903 
L 895.706267 257.419903 
L 896.375533 246.182254 
L 897.0448 240.563429 
L 898.383333 218.088131 
L 899.0526 212.469306 
L 899.721867 201.231657 
L 900.391133 218.088131 
L 901.0604 251.801078 
L 901.729667 274.276376 
L 902.398933 279.895201 
L 903.737467 234.944605 
L 904.406733 218.088131 
L 905.076 206.850482 
L 905.745267 201.231657 
L 906.414533 223.706956 
L 907.0838 279.895201 
L 907.753067 307.989323 
L 908.422333 291.13285 
L 909.0916 279.895201 
L 909.760867 291.13285 
L 910.430133 307.989323 
L 911.0994 274.276376 
L 911.768667 257.419903 
L 912.437933 274.276376 
L 913.776467 251.801078 
L 914.445733 257.419903 
L 915.115 268.657552 
L 915.784267 251.801078 
L 916.453533 229.32578 
L 917.1228 218.088131 
L 917.792067 240.563429 
L 918.461333 268.657552 
L 919.1306 279.895201 
L 919.799867 263.038727 
L 920.469133 251.801078 
L 921.1384 257.419903 
L 922.476933 279.895201 
L 923.1462 274.276376 
L 923.815467 263.038727 
L 924.484733 263.038727 
L 925.154 257.419903 
L 925.823267 263.038727 
L 926.492533 263.038727 
L 927.1618 257.419903 
L 927.831067 268.657552 
L 928.500333 263.038727 
L 929.1696 263.038727 
L 929.838867 268.657552 
L 930.508133 285.514025 
L 931.1774 296.751674 
L 931.846667 268.657552 
L 932.515933 263.038727 
L 933.1852 274.276376 
L 934.523733 251.801078 
L 935.193 246.182254 
L 935.862267 246.182254 
L 936.531533 212.469306 
L 937.2008 218.088131 
L 937.870067 257.419903 
L 938.539333 274.276376 
L 939.2086 257.419903 
L 939.877867 246.182254 
L 940.547133 263.038727 
L 941.2164 263.038727 
L 941.885667 251.801078 
L 942.554933 251.801078 
L 943.2242 257.419903 
L 943.893467 240.563429 
L 944.562733 240.563429 
L 945.232 263.038727 
L 945.901267 268.657552 
L 946.570533 257.419903 
L 947.2398 263.038727 
L 947.909067 274.276376 
L 949.2476 274.276376 
L 949.916867 302.370499 
L 950.586133 313.608148 
L 951.2554 274.276376 
L 951.924667 257.419903 
L 952.593933 263.038727 
L 953.2632 291.13285 
L 953.932467 296.751674 
L 954.601733 285.514025 
L 955.271 268.657552 
L 955.940267 229.32578 
L 956.609533 212.469306 
L 957.2788 223.706956 
L 957.948067 257.419903 
L 958.617333 285.514025 
L 959.2866 279.895201 
L 959.955867 279.895201 
L 960.625133 285.514025 
L 961.2944 263.038727 
L 961.963667 229.32578 
L 962.632933 223.706956 
L 963.971467 246.182254 
L 964.640733 240.563429 
L 965.31 240.563429 
L 965.979267 257.419903 
L 966.648533 251.801078 
L 967.3178 240.563429 
L 967.987067 246.182254 
L 968.656333 257.419903 
L 969.3256 251.801078 
L 970.664133 251.801078 
L 971.3334 263.038727 
L 972.002667 257.419903 
L 972.671933 246.182254 
L 973.3412 246.182254 
L 974.010467 251.801078 
L 974.679733 274.276376 
L 975.349 279.895201 
L 976.687533 234.944605 
L 977.3568 223.706956 
L 978.026067 240.563429 
L 978.695333 263.038727 
L 979.3646 279.895201 
L 980.033867 263.038727 
L 980.703133 268.657552 
L 981.3724 296.751674 
L 982.041667 279.895201 
L 982.710933 240.563429 
L 983.3802 234.944605 
L 984.049467 263.038727 
L 984.718733 263.038727 
L 985.388 279.895201 
L 986.057267 291.13285 
L 986.726533 285.514025 
L 987.3958 263.038727 
L 988.065067 251.801078 
L 988.734333 263.038727 
L 989.4036 268.657552 
L 990.742133 246.182254 
L 991.4114 257.419903 
L 992.749933 302.370499 
L 993.4192 274.276376 
L 994.088467 234.944605 
L 994.757733 229.32578 
L 995.427 234.944605 
L 996.096267 251.801078 
L 996.765533 274.276376 
L 997.4348 279.895201 
L 998.104067 268.657552 
L 998.773333 263.038727 
L 999.4426 263.038727 
L 1000.111867 246.182254 
L 1000.781133 218.088131 
L 1001.4504 240.563429 
L 1002.119667 274.276376 
L 1002.788933 279.895201 
L 1003.4582 302.370499 
L 1004.127467 319.226972 
L 1004.796733 319.226972 
L 1005.466 268.657552 
L 1006.135267 234.944605 
L 1006.804533 263.038727 
L 1007.4738 263.038727 
L 1008.812333 240.563429 
L 1010.150867 240.563429 
L 1010.820133 246.182254 
L 1011.4894 257.419903 
L 1012.158667 263.038727 
L 1012.827933 263.038727 
L 1013.4972 268.657552 
L 1014.166467 279.895201 
L 1015.505 279.895201 
L 1017.5128 246.182254 
L 1018.182067 263.038727 
L 1018.851333 285.514025 
L 1019.5206 274.276376 
L 1020.859133 229.32578 
L 1021.5284 246.182254 
L 1022.197667 268.657552 
L 1022.866933 257.419903 
L 1023.5362 240.563429 
L 1024.205467 240.563429 
L 1024.874733 274.276376 
L 1025.544 285.514025 
L 1026.213267 274.276376 
L 1026.882533 257.419903 
L 1027.5518 246.182254 
L 1028.221067 268.657552 
L 1028.890333 268.657552 
L 1029.5596 251.801078 
L 1030.228867 223.706956 
L 1030.898133 223.706956 
L 1032.236667 268.657552 
L 1032.905933 279.895201 
L 1034.244467 246.182254 
L 1034.913733 257.419903 
L 1035.583 291.13285 
L 1036.252267 285.514025 
L 1036.921533 257.419903 
L 1037.5908 251.801078 
L 1038.260067 263.038727 
L 1038.929333 246.182254 
L 1039.5986 240.563429 
L 1040.267867 251.801078 
L 1040.937133 274.276376 
L 1041.6064 302.370499 
L 1042.275667 296.751674 
L 1042.944933 263.038727 
L 1043.6142 218.088131 
L 1044.283467 212.469306 
L 1044.952733 246.182254 
L 1045.622 291.13285 
L 1046.291267 291.13285 
L 1046.960533 263.038727 
L 1047.6298 229.32578 
L 1048.299067 223.706956 
L 1048.968333 251.801078 
L 1049.6376 274.276376 
L 1050.306867 274.276376 
L 1050.976133 251.801078 
L 1051.6454 251.801078 
L 1052.983933 263.038727 
L 1054.322467 195.612833 
L 1055.661 268.657552 
L 1056.330267 274.276376 
L 1057.6688 240.563429 
L 1058.338067 246.182254 
L 1059.007333 263.038727 
L 1060.345867 274.276376 
L 1061.015133 268.657552 
L 1061.6844 257.419903 
L 1062.353667 257.419903 
L 1063.022933 240.563429 
L 1063.6922 234.944605 
L 1064.361467 251.801078 
L 1065.030733 285.514025 
L 1065.7 279.895201 
L 1066.369267 251.801078 
L 1066.369267 251.801078 
" style="fill:none;opacity:0.4;stroke:#000000;stroke-linecap:square;stroke-width:1.5;"/>
   </g>
   <g id="patch_9">
    <path d="M 61.8 335.972132 
L 61.8 55.253534 
" style="fill:none;stroke:#000000;stroke-linecap:square;stroke-linejoin:miter;stroke-width:0.8;"/>
   </g>
   <g id="patch_10">
    <path d="M 1065.7 335.972132 
L 1065.7 55.253534 
" style="fill:none;stroke:#000000;stroke-linecap:square;stroke-linejoin:miter;stroke-width:0.8;"/>
   </g>
   <g id="patch_11">
    <path d="M 61.8 335.972132 
L 1065.7 335.972132 
" style="fill:none;stroke:#000000;stroke-linecap:square;stroke-linejoin:miter;stroke-width:0.8;"/>
   </g>
   <g id="patch_12">
    <path d="M 61.8 55.253534 
L 1065.7 55.253534 
" style="fill:none;stroke:#000000;stroke-linecap:square;stroke-linejoin:miter;stroke-width:0.8;"/>
   </g>
   <g id="text_10">
    <!-- Eye Movement -->
    <defs>
     <path d="M 9.8125 72.90625 
L 55.90625 72.90625 
L 55.90625 64.59375 
L 19.671875 64.59375 
L 19.671875 43.015625 
L 54.390625 43.015625 
L 54.390625 34.71875 
L 19.671875 34.71875 
L 19.671875 8.296875 
L 56.78125 8.296875 
L 56.78125 0 
L 9.8125 0 
z
" id="DejaVuSans-45"/>
     <path d="M 9.8125 72.90625 
L 24.515625 72.90625 
L 43.109375 23.296875 
L 61.8125 72.90625 
L 76.515625 72.90625 
L 76.515625 0 
L 66.890625 0 
L 66.890625 64.015625 
L 48.09375 14.015625 
L 38.1875 14.015625 
L 19.390625 64.015625 
L 19.390625 0 
L 9.8125 0 
z
" id="DejaVuSans-4d"/>
     <path d="M 2.984375 54.6875 
L 12.5 54.6875 
L 29.59375 8.796875 
L 46.6875 54.6875 
L 56.203125 54.6875 
L 35.6875 0 
L 23.484375 0 
z
" id="DejaVuSans-76"/>
     <path d="M 54.890625 33.015625 
L 54.890625 0 
L 45.90625 0 
L 45.90625 32.71875 
Q 45.90625 40.484375 42.875 44.328125 
Q 39.84375 48.1875 33.796875 48.1875 
Q 26.515625 48.1875 22.3125 43.546875 
Q 18.109375 38.921875 18.109375 30.90625 
L 18.109375 0 
L 9.078125 0 
L 9.078125 54.6875 
L 18.109375 54.6875 
L 18.109375 46.1875 
Q 21.34375 51.125 25.703125 53.5625 
Q 30.078125 56 35.796875 56 
Q 45.21875 56 50.046875 50.171875 
Q 54.890625 44.34375 54.890625 33.015625 
z
" id="DejaVuSans-6e"/>
    </defs>
    <g transform="translate(433.306641 35.217604)scale(0.35 -0.35)">
     <use xlink:href="#DejaVuSans-45"/>
     <use x="63.183594" xlink:href="#DejaVuSans-79"/>
     <use x="122.363281" xlink:href="#DejaVuSans-65"/>
     <use x="183.886719" xlink:href="#DejaVuSans-20"/>
     <use x="215.673828" xlink:href="#DejaVuSans-4d"/>
     <use x="301.953125" xlink:href="#DejaVuSans-6f"/>
     <use x="363.134766" xlink:href="#DejaVuSans-76"/>
     <use x="422.314453" xlink:href="#DejaVuSans-65"/>
     <use x="483.837891" xlink:href="#DejaVuSans-6d"/>
     <use x="581.25" xlink:href="#DejaVuSans-65"/>
     <use x="642.773438" xlink:href="#DejaVuSans-6e"/>
     <use x="706.152344" xlink:href="#DejaVuSans-74"/>
    </g>
   </g>
  </g>
  <g id="axes_2">
   <g id="patch_13">
    <path d="M 61.8 616.690729 
L 1065.7 616.690729 
L 1065.7 335.972132 
L 61.8 335.972132 
z
" style="fill:#ffffff;"/>
   </g>
   <g id="patch_14">
    <path clip-path="url(#p6a5c714f41)" d="M -357.8302 616.690729 
L -357.8302 335.972132 
L 362.300733 335.972132 
L 362.300733 616.690729 
z
" style="opacity:0.2;stroke:#000000;stroke-linejoin:miter;"/>
   </g>
   <g id="patch_15">
    <path clip-path="url(#p6a5c714f41)" d="M 362.300733 616.690729 
L 362.300733 335.972132 
L 563.75 335.972132 
L 563.75 616.690729 
z
" style="fill:#ff0000;opacity:0.2;stroke:#ff0000;stroke-linejoin:miter;"/>
   </g>
   <g id="patch_16">
    <path clip-path="url(#p6a5c714f41)" d="M 563.75 616.690729 
L 563.75 335.972132 
L 1086.447267 335.972132 
L 1086.447267 616.690729 
z
" style="opacity:0.15;stroke:#000000;stroke-linejoin:miter;"/>
   </g>
   <g id="patch_17">
    <path clip-path="url(#p6a5c714f41)" d="M -281.5338 616.690729 
L -281.5338 335.972132 
L -274.841133 335.972132 
L -274.841133 616.690729 
z
" style="opacity:0.15;stroke:#000000;stroke-linejoin:miter;"/>
   </g>
   <g id="patch_18">
    <path clip-path="url(#p6a5c714f41)" d="M -147.680467 616.690729 
L -147.680467 335.972132 
L -28.551 335.972132 
L -28.551 616.690729 
z
" style="opacity:0.15;stroke:#000000;stroke-linejoin:miter;"/>
   </g>
   <g id="patch_19">
    <path clip-path="url(#p6a5c714f41)" d="M 651.423933 616.690729 
L 651.423933 335.972132 
L 654.770267 335.972132 
L 654.770267 616.690729 
z
" style="opacity:0.15;stroke:#000000;stroke-linejoin:miter;"/>
   </g>
   <g id="patch_20">
    <path clip-path="url(#p6a5c714f41)" d="M 747.798333 616.690729 
L 747.798333 335.972132 
L 766.5378 335.972132 
L 766.5378 616.690729 
z
" style="opacity:0.15;stroke:#000000;stroke-linejoin:miter;"/>
   </g>
   <g id="patch_21">
    <path clip-path="url(#p6a5c714f41)" d="M 1139.319333 616.690729 
L 1139.319333 335.972132 
L 1156.720267 335.972132 
L 1156.720267 616.690729 
z
" style="opacity:0.15;stroke:#000000;stroke-linejoin:miter;"/>
   </g>
   <g id="matplotlib.axis_3">
    <g id="xtick_8">
     <g id="line2d_16">
      <g>
       <use style="stroke:#000000;stroke-width:0.8;" x="162.19" xlink:href="#m0de7579c92" y="616.690729"/>
      </g>
     </g>
     <g id="text_11">
      <!-- −600 -->
      <defs>
       <path d="M 33.015625 40.375 
Q 26.375 40.375 22.484375 35.828125 
Q 18.609375 31.296875 18.609375 23.390625 
Q 18.609375 15.53125 22.484375 10.953125 
Q 26.375 6.390625 33.015625 6.390625 
Q 39.65625 6.390625 43.53125 10.953125 
Q 47.40625 15.53125 47.40625 23.390625 
Q 47.40625 31.296875 43.53125 35.828125 
Q 39.65625 40.375 33.015625 40.375 
z
M 52.59375 71.296875 
L 52.59375 62.3125 
Q 48.875 64.0625 45.09375 64.984375 
Q 41.3125 65.921875 37.59375 65.921875 
Q 27.828125 65.921875 22.671875 59.328125 
Q 17.53125 52.734375 16.796875 39.40625 
Q 19.671875 43.65625 24.015625 45.921875 
Q 28.375 48.1875 33.59375 48.1875 
Q 44.578125 48.1875 50.953125 41.515625 
Q 57.328125 34.859375 57.328125 23.390625 
Q 57.328125 12.15625 50.6875 5.359375 
Q 44.046875 -1.421875 33.015625 -1.421875 
Q 20.359375 -1.421875 13.671875 8.265625 
Q 6.984375 17.96875 6.984375 36.375 
Q 6.984375 53.65625 15.1875 63.9375 
Q 23.390625 74.21875 37.203125 74.21875 
Q 40.921875 74.21875 44.703125 73.484375 
Q 48.484375 72.75 52.59375 71.296875 
z
" id="DejaVuSans-36"/>
      </defs>
      <g transform="translate(148.456406 631.289167)scale(0.1 -0.1)">
       <use xlink:href="#DejaVuSans-2212"/>
       <use x="83.789062" xlink:href="#DejaVuSans-36"/>
       <use x="147.412109" xlink:href="#DejaVuSans-30"/>
       <use x="211.035156" xlink:href="#DejaVuSans-30"/>
      </g>
     </g>
    </g>
    <g id="xtick_9">
     <g id="line2d_17">
      <g>
       <use style="stroke:#000000;stroke-width:0.8;" x="296.043333" xlink:href="#m0de7579c92" y="616.690729"/>
      </g>
     </g>
     <g id="text_12">
      <!-- −400 -->
      <defs>
       <path d="M 37.796875 64.3125 
L 12.890625 25.390625 
L 37.796875 25.390625 
z
M 35.203125 72.90625 
L 47.609375 72.90625 
L 47.609375 25.390625 
L 58.015625 25.390625 
L 58.015625 17.1875 
L 47.609375 17.1875 
L 47.609375 0 
L 37.796875 0 
L 37.796875 17.1875 
L 4.890625 17.1875 
L 4.890625 26.703125 
z
" id="DejaVuSans-34"/>
      </defs>
      <g transform="translate(282.30974 631.289167)scale(0.1 -0.1)">
       <use xlink:href="#DejaVuSans-2212"/>
       <use x="83.789062" xlink:href="#DejaVuSans-34"/>
       <use x="147.412109" xlink:href="#DejaVuSans-30"/>
       <use x="211.035156" xlink:href="#DejaVuSans-30"/>
      </g>
     </g>
    </g>
    <g id="xtick_10">
     <g id="line2d_18">
      <g>
       <use style="stroke:#000000;stroke-width:0.8;" x="429.896667" xlink:href="#m0de7579c92" y="616.690729"/>
      </g>
     </g>
     <g id="text_13">
      <!-- −200 -->
      <g transform="translate(416.163073 631.289167)scale(0.1 -0.1)">
       <use xlink:href="#DejaVuSans-2212"/>
       <use x="83.789062" xlink:href="#DejaVuSans-32"/>
       <use x="147.412109" xlink:href="#DejaVuSans-30"/>
       <use x="211.035156" xlink:href="#DejaVuSans-30"/>
      </g>
     </g>
    </g>
    <g id="xtick_11">
     <g id="line2d_19">
      <g>
       <use style="stroke:#000000;stroke-width:0.8;" x="563.75" xlink:href="#m0de7579c92" y="616.690729"/>
      </g>
     </g>
     <g id="text_14">
      <!-- 0 -->
      <g transform="translate(560.56875 631.289167)scale(0.1 -0.1)">
       <use xlink:href="#DejaVuSans-30"/>
      </g>
     </g>
    </g>
    <g id="xtick_12">
     <g id="line2d_20">
      <g>
       <use style="stroke:#000000;stroke-width:0.8;" x="697.603333" xlink:href="#m0de7579c92" y="616.690729"/>
      </g>
     </g>
     <g id="text_15">
      <!-- 200 -->
      <g transform="translate(688.059583 631.289167)scale(0.1 -0.1)">
       <use xlink:href="#DejaVuSans-32"/>
       <use x="63.623047" xlink:href="#DejaVuSans-30"/>
       <use x="127.246094" xlink:href="#DejaVuSans-30"/>
      </g>
     </g>
    </g>
    <g id="xtick_13">
     <g id="line2d_21">
      <g>
       <use style="stroke:#000000;stroke-width:0.8;" x="831.456667" xlink:href="#m0de7579c92" y="616.690729"/>
      </g>
     </g>
     <g id="text_16">
      <!-- 400 -->
      <g transform="translate(821.912917 631.289167)scale(0.1 -0.1)">
       <use xlink:href="#DejaVuSans-34"/>
       <use x="63.623047" xlink:href="#DejaVuSans-30"/>
       <use x="127.246094" xlink:href="#DejaVuSans-30"/>
      </g>
     </g>
    </g>
    <g id="xtick_14">
     <g id="line2d_22">
      <g>
       <use style="stroke:#000000;stroke-width:0.8;" x="965.31" xlink:href="#m0de7579c92" y="616.690729"/>
      </g>
     </g>
     <g id="text_17">
      <!-- 600 -->
      <g transform="translate(955.76625 631.289167)scale(0.1 -0.1)">
       <use xlink:href="#DejaVuSans-36"/>
       <use x="63.623047" xlink:href="#DejaVuSans-30"/>
       <use x="127.246094" xlink:href="#DejaVuSans-30"/>
      </g>
     </g>
    </g>
    <g id="text_18">
     <!-- Time (ms) -->
     <g transform="translate(513.04375 652.565729)scale(0.2 -0.2)">
      <use xlink:href="#DejaVuSans-54"/>
      <use x="61.037109" xlink:href="#DejaVuSans-69"/>
      <use x="88.820312" xlink:href="#DejaVuSans-6d"/>
      <use x="186.232422" xlink:href="#DejaVuSans-65"/>
      <use x="247.755859" xlink:href="#DejaVuSans-20"/>
      <use x="279.542969" xlink:href="#DejaVuSans-28"/>
      <use x="318.556641" xlink:href="#DejaVuSans-6d"/>
      <use x="415.96875" xlink:href="#DejaVuSans-73"/>
      <use x="468.068359" xlink:href="#DejaVuSans-29"/>
     </g>
    </g>
   </g>
   <g id="matplotlib.axis_4">
    <g id="ytick_8">
     <g id="line2d_23">
      <g>
       <use style="stroke:#000000;stroke-width:0.8;" x="61.8" xlink:href="#m3caef43a12" y="582.93343"/>
      </g>
     </g>
     <g id="text_19">
      <!-- −30 -->
      <g transform="translate(33.695312 586.732648)scale(0.1 -0.1)">
       <use xlink:href="#DejaVuSans-2212"/>
       <use x="83.789062" xlink:href="#DejaVuSans-33"/>
       <use x="147.412109" xlink:href="#DejaVuSans-30"/>
      </g>
     </g>
    </g>
    <g id="ytick_9">
     <g id="line2d_24">
      <g>
       <use style="stroke:#000000;stroke-width:0.8;" x="61.8" xlink:href="#m3caef43a12" y="547.39943"/>
      </g>
     </g>
     <g id="text_20">
      <!-- −20 -->
      <g transform="translate(33.695312 551.198649)scale(0.1 -0.1)">
       <use xlink:href="#DejaVuSans-2212"/>
       <use x="83.789062" xlink:href="#DejaVuSans-32"/>
       <use x="147.412109" xlink:href="#DejaVuSans-30"/>
      </g>
     </g>
    </g>
    <g id="ytick_10">
     <g id="line2d_25">
      <g>
       <use style="stroke:#000000;stroke-width:0.8;" x="61.8" xlink:href="#m3caef43a12" y="511.86543"/>
      </g>
     </g>
     <g id="text_21">
      <!-- −10 -->
      <g transform="translate(33.695312 515.664649)scale(0.1 -0.1)">
       <use xlink:href="#DejaVuSans-2212"/>
       <use x="83.789062" xlink:href="#DejaVuSans-31"/>
       <use x="147.412109" xlink:href="#DejaVuSans-30"/>
      </g>
     </g>
    </g>
    <g id="ytick_11">
     <g id="line2d_26">
      <g>
       <use style="stroke:#000000;stroke-width:0.8;" x="61.8" xlink:href="#m3caef43a12" y="476.33143"/>
      </g>
     </g>
     <g id="text_22">
      <!-- 0 -->
      <g transform="translate(48.4375 480.130649)scale(0.1 -0.1)">
       <use xlink:href="#DejaVuSans-30"/>
      </g>
     </g>
    </g>
    <g id="ytick_12">
     <g id="line2d_27">
      <g>
       <use style="stroke:#000000;stroke-width:0.8;" x="61.8" xlink:href="#m3caef43a12" y="440.797431"/>
      </g>
     </g>
     <g id="text_23">
      <!-- 10 -->
      <g transform="translate(42.075 444.59665)scale(0.1 -0.1)">
       <use xlink:href="#DejaVuSans-31"/>
       <use x="63.623047" xlink:href="#DejaVuSans-30"/>
      </g>
     </g>
    </g>
    <g id="ytick_13">
     <g id="line2d_28">
      <g>
       <use style="stroke:#000000;stroke-width:0.8;" x="61.8" xlink:href="#m3caef43a12" y="405.263431"/>
      </g>
     </g>
     <g id="text_24">
      <!-- 20 -->
      <g transform="translate(42.075 409.06265)scale(0.1 -0.1)">
       <use xlink:href="#DejaVuSans-32"/>
       <use x="63.623047" xlink:href="#DejaVuSans-30"/>
      </g>
     </g>
    </g>
    <g id="ytick_14">
     <g id="line2d_29">
      <g>
       <use style="stroke:#000000;stroke-width:0.8;" x="61.8" xlink:href="#m3caef43a12" y="369.729431"/>
      </g>
     </g>
     <g id="text_25">
      <!-- 30 -->
      <g transform="translate(42.075 373.52865)scale(0.1 -0.1)">
       <use xlink:href="#DejaVuSans-33"/>
       <use x="63.623047" xlink:href="#DejaVuSans-30"/>
      </g>
     </g>
    </g>
   </g>
   <g id="line2d_30">
    <path clip-path="url(#p6a5c714f41)" d="M 61.130733 481.950255 
L 61.8 510.044378 
L 62.469267 526.900851 
L 63.138533 510.044378 
L 63.8078 476.33143 
L 64.477067 459.474957 
L 65.8156 470.712606 
L 66.484867 481.950255 
L 67.154133 487.56908 
L 67.8234 487.56908 
L 68.492667 481.950255 
L 69.8312 459.474957 
L 70.500467 459.474957 
L 71.839 481.950255 
L 72.508267 487.56908 
L 73.177533 487.56908 
L 73.8468 481.950255 
L 74.516067 470.712606 
L 75.185333 465.093781 
L 75.8546 465.093781 
L 76.523867 470.712606 
L 77.193133 487.56908 
L 77.8624 493.187904 
L 78.531667 481.950255 
L 79.200933 465.093781 
L 79.8702 465.093781 
L 80.539467 487.56908 
L 81.208733 493.187904 
L 82.547267 470.712606 
L 83.216533 465.093781 
L 84.555067 476.33143 
L 85.224333 487.56908 
L 85.8936 493.187904 
L 86.562867 493.187904 
L 87.232133 487.56908 
L 87.9014 476.33143 
L 88.570667 481.950255 
L 90.578467 481.950255 
L 91.917 470.712606 
L 93.9248 470.712606 
L 95.263333 459.474957 
L 95.9326 459.474957 
L 96.601867 465.093781 
L 98.609667 498.806729 
L 99.278933 493.187904 
L 99.9482 481.950255 
L 100.617467 481.950255 
L 101.286733 487.56908 
L 101.956 481.950255 
L 102.625267 470.712606 
L 103.9638 470.712606 
L 104.633067 459.474957 
L 105.302333 453.856132 
L 106.640867 498.806729 
L 107.310133 493.187904 
L 107.9794 470.712606 
L 108.648667 459.474957 
L 109.317933 470.712606 
L 110.656467 481.950255 
L 111.325733 493.187904 
L 112.664267 493.187904 
L 113.333533 498.806729 
L 114.0028 487.56908 
L 114.672067 470.712606 
L 115.341333 465.093781 
L 116.0106 465.093781 
L 116.679867 459.474957 
L 117.349133 459.474957 
L 118.0184 476.33143 
L 118.687667 487.56908 
L 120.0262 487.56908 
L 121.364733 476.33143 
L 122.703267 453.856132 
L 123.372533 448.237308 
L 124.0418 459.474957 
L 124.711067 487.56908 
L 125.380333 498.806729 
L 126.0496 504.425553 
L 126.718867 498.806729 
L 127.388133 487.56908 
L 128.0574 493.187904 
L 128.726667 487.56908 
L 129.395933 470.712606 
L 130.0652 465.093781 
L 130.734467 470.712606 
L 131.403733 487.56908 
L 132.073 481.950255 
L 132.742267 448.237308 
L 133.411533 436.999659 
L 134.0808 453.856132 
L 134.750067 465.093781 
L 135.419333 459.474957 
L 136.0886 476.33143 
L 136.757867 504.425553 
L 137.427133 504.425553 
L 138.0964 481.950255 
L 138.765667 465.093781 
L 140.1042 510.044378 
L 140.773467 498.806729 
L 141.442733 470.712606 
L 142.112 453.856132 
L 142.781267 453.856132 
L 144.1198 442.618483 
L 144.789067 465.093781 
L 145.458333 481.950255 
L 146.1276 476.33143 
L 146.796867 481.950255 
L 147.466133 481.950255 
L 148.1354 470.712606 
L 148.804667 470.712606 
L 150.1432 543.757325 
L 150.812467 543.757325 
L 151.481733 498.806729 
L 152.151 436.999659 
L 152.820267 425.76201 
L 153.489533 436.999659 
L 154.1588 476.33143 
L 154.828067 504.425553 
L 155.497333 498.806729 
L 156.835867 465.093781 
L 158.1744 476.33143 
L 158.843667 470.712606 
L 159.512933 470.712606 
L 160.1822 476.33143 
L 160.851467 476.33143 
L 162.19 498.806729 
L 162.859267 493.187904 
L 163.528533 481.950255 
L 164.1978 481.950255 
L 164.867067 487.56908 
L 165.536333 487.56908 
L 166.2056 470.712606 
L 166.874867 459.474957 
L 168.2134 470.712606 
L 168.882667 470.712606 
L 169.551933 465.093781 
L 170.890467 476.33143 
L 172.229 476.33143 
L 174.2368 493.187904 
L 174.906067 493.187904 
L 175.575333 481.950255 
L 176.913867 470.712606 
L 178.2524 470.712606 
L 178.921667 465.093781 
L 179.590933 465.093781 
L 180.2602 470.712606 
L 180.929467 470.712606 
L 181.598733 476.33143 
L 182.268 487.56908 
L 182.937267 487.56908 
L 183.606533 476.33143 
L 184.2758 459.474957 
L 184.945067 465.093781 
L 185.614333 481.950255 
L 186.2836 493.187904 
L 186.952867 498.806729 
L 187.622133 487.56908 
L 188.2914 481.950255 
L 190.2992 481.950255 
L 190.968467 453.856132 
L 191.637733 431.380834 
L 192.307 442.618483 
L 192.976267 476.33143 
L 193.645533 504.425553 
L 194.3148 498.806729 
L 195.653333 453.856132 
L 196.3226 442.618483 
L 196.991867 459.474957 
L 197.661133 470.712606 
L 198.999667 459.474957 
L 199.668933 465.093781 
L 200.3382 481.950255 
L 201.007467 470.712606 
L 201.676733 436.999659 
L 202.346 420.143185 
L 203.015267 408.905536 
L 203.684533 408.905536 
L 205.023067 420.143185 
L 205.692333 436.999659 
L 206.3616 442.618483 
L 207.030867 465.093781 
L 207.700133 481.950255 
L 208.3694 481.950255 
L 209.707933 504.425553 
L 210.3772 504.425553 
L 211.046467 481.950255 
L 211.715733 476.33143 
L 213.054267 498.806729 
L 213.723533 498.806729 
L 215.062067 476.33143 
L 215.731333 459.474957 
L 216.4006 459.474957 
L 217.069867 470.712606 
L 217.739133 493.187904 
L 218.4084 504.425553 
L 219.077667 498.806729 
L 220.4162 465.093781 
L 221.085467 465.093781 
L 222.424 442.618483 
L 223.093267 448.237308 
L 223.762533 459.474957 
L 225.770333 476.33143 
L 226.4396 487.56908 
L 227.108867 493.187904 
L 227.778133 481.950255 
L 229.116667 470.712606 
L 229.785933 459.474957 
L 230.4552 453.856132 
L 231.793733 453.856132 
L 232.463 448.237308 
L 233.132267 459.474957 
L 233.801533 481.950255 
L 234.4708 481.950255 
L 235.809333 459.474957 
L 236.4786 465.093781 
L 237.147867 481.950255 
L 237.817133 476.33143 
L 238.4864 465.093781 
L 239.155667 465.093781 
L 239.824933 470.712606 
L 240.4942 481.950255 
L 242.502 481.950255 
L 243.171267 476.33143 
L 245.179067 476.33143 
L 245.848333 465.093781 
L 246.5176 465.093781 
L 247.186867 476.33143 
L 247.856133 493.187904 
L 248.5254 504.425553 
L 249.194667 493.187904 
L 249.863933 476.33143 
L 250.5332 481.950255 
L 251.202467 498.806729 
L 251.871733 487.56908 
L 252.541 470.712606 
L 253.210267 459.474957 
L 253.879533 465.093781 
L 254.5488 476.33143 
L 255.218067 470.712606 
L 256.5566 470.712606 
L 257.225867 476.33143 
L 257.895133 487.56908 
L 258.5644 493.187904 
L 259.233667 487.56908 
L 259.902933 470.712606 
L 260.5722 465.093781 
L 261.241467 476.33143 
L 261.910733 476.33143 
L 262.58 470.712606 
L 263.249267 476.33143 
L 264.5878 476.33143 
L 265.257067 481.950255 
L 268.6034 481.950255 
L 269.272667 476.33143 
L 270.6112 453.856132 
L 271.280467 470.712606 
L 271.949733 498.806729 
L 272.619 504.425553 
L 273.288267 487.56908 
L 273.957533 476.33143 
L 274.6268 476.33143 
L 276.6346 459.474957 
L 277.973133 459.474957 
L 278.6424 465.093781 
L 279.311667 487.56908 
L 280.6502 521.282027 
L 281.319467 521.282027 
L 281.988733 493.187904 
L 282.658 476.33143 
L 283.327267 470.712606 
L 283.996533 476.33143 
L 284.6658 476.33143 
L 285.335067 459.474957 
L 286.004333 459.474957 
L 287.342867 470.712606 
L 288.012133 487.56908 
L 288.6814 493.187904 
L 289.350667 493.187904 
L 290.019933 487.56908 
L 290.6892 476.33143 
L 292.697 476.33143 
L 293.366267 481.950255 
L 295.374067 481.950255 
L 296.043333 470.712606 
L 296.7126 465.093781 
L 297.381867 465.093781 
L 298.7204 487.56908 
L 299.389667 481.950255 
L 300.058933 481.950255 
L 300.7282 487.56908 
L 302.736 470.712606 
L 303.405267 470.712606 
L 304.7438 504.425553 
L 305.413067 510.044378 
L 306.082333 493.187904 
L 306.7516 470.712606 
L 308.090133 448.237308 
L 308.7594 453.856132 
L 309.428667 465.093781 
L 310.097933 470.712606 
L 311.436467 504.425553 
L 312.105733 504.425553 
L 312.775 493.187904 
L 314.7828 476.33143 
L 315.452067 481.950255 
L 316.7906 448.237308 
L 317.459867 453.856132 
L 318.129133 465.093781 
L 318.7984 470.712606 
L 319.467667 465.093781 
L 320.8062 476.33143 
L 321.475467 487.56908 
L 322.144733 493.187904 
L 322.814 493.187904 
L 323.483267 487.56908 
L 324.152533 476.33143 
L 326.160333 476.33143 
L 327.498867 498.806729 
L 328.8374 476.33143 
L 329.506667 470.712606 
L 330.175933 476.33143 
L 330.8452 487.56908 
L 332.183733 442.618483 
L 332.853 442.618483 
L 334.191533 476.33143 
L 337.537867 476.33143 
L 338.207133 481.950255 
L 338.8764 493.187904 
L 339.545667 493.187904 
L 340.214933 481.950255 
L 340.8842 476.33143 
L 341.553467 465.093781 
L 342.222733 459.474957 
L 343.561267 481.950255 
L 344.230533 481.950255 
L 344.8998 470.712606 
L 345.569067 465.093781 
L 346.238333 470.712606 
L 346.9076 470.712606 
L 348.246133 459.474957 
L 348.9154 465.093781 
L 349.584667 476.33143 
L 350.253933 481.950255 
L 350.9232 481.950255 
L 351.592467 476.33143 
L 352.931 476.33143 
L 353.600267 470.712606 
L 354.269533 470.712606 
L 354.9388 476.33143 
L 356.277333 498.806729 
L 356.9466 498.806729 
L 357.615867 481.950255 
L 358.285133 459.474957 
L 358.9544 459.474957 
L 359.623667 453.856132 
L 360.292933 442.618483 
L 360.9622 436.999659 
L 361.631467 448.237308 
L 362.300733 470.712606 
L 362.97 476.33143 
L 364.308533 510.044378 
L 364.9778 504.425553 
L 366.316333 459.474957 
L 366.9856 465.093781 
L 367.654867 476.33143 
L 368.324133 476.33143 
L 369.662667 453.856132 
L 370.331933 459.474957 
L 371.0012 470.712606 
L 371.670467 476.33143 
L 372.339733 470.712606 
L 373.009 470.712606 
L 373.678267 487.56908 
L 374.347533 498.806729 
L 375.0168 498.806729 
L 376.355333 476.33143 
L 377.693867 465.093781 
L 378.363133 465.093781 
L 379.0324 470.712606 
L 381.709467 470.712606 
L 382.378733 481.950255 
L 383.717267 470.712606 
L 385.0558 470.712606 
L 386.394333 493.187904 
L 387.0636 498.806729 
L 388.402133 476.33143 
L 389.740667 476.33143 
L 391.0792 465.093781 
L 391.748467 476.33143 
L 392.417733 493.187904 
L 393.087 493.187904 
L 393.756267 487.56908 
L 395.0948 487.56908 
L 395.764067 470.712606 
L 396.433333 459.474957 
L 397.1026 476.33143 
L 397.771867 504.425553 
L 398.441133 515.663202 
L 399.1104 493.187904 
L 399.779667 459.474957 
L 400.448933 442.618483 
L 401.1182 453.856132 
L 401.787467 476.33143 
L 402.456733 487.56908 
L 403.126 476.33143 
L 403.795267 476.33143 
L 405.1338 498.806729 
L 405.803067 498.806729 
L 406.472333 487.56908 
L 407.1416 470.712606 
L 407.810867 465.093781 
L 408.480133 470.712606 
L 409.1494 470.712606 
L 409.818667 476.33143 
L 410.487933 459.474957 
L 411.1572 448.237308 
L 412.495733 459.474957 
L 413.165 470.712606 
L 413.834267 476.33143 
L 414.503533 476.33143 
L 415.1728 481.950255 
L 415.842067 481.950255 
L 416.511333 493.187904 
L 417.1806 510.044378 
L 417.849867 510.044378 
L 418.519133 487.56908 
L 419.1884 470.712606 
L 419.857667 476.33143 
L 421.865467 476.33143 
L 423.204 465.093781 
L 423.873267 470.712606 
L 424.542533 470.712606 
L 425.2118 465.093781 
L 425.881067 476.33143 
L 426.550333 504.425553 
L 427.2196 515.663202 
L 427.888867 510.044378 
L 428.558133 493.187904 
L 429.2274 481.950255 
L 429.896667 487.56908 
L 430.565933 487.56908 
L 431.904467 498.806729 
L 432.573733 487.56908 
L 433.243 465.093781 
L 433.912267 459.474957 
L 434.581533 459.474957 
L 435.920067 470.712606 
L 436.589333 470.712606 
L 437.2586 476.33143 
L 438.597133 510.044378 
L 439.2664 504.425553 
L 439.935667 481.950255 
L 440.604933 465.093781 
L 442.612733 481.950255 
L 443.282 493.187904 
L 443.951267 498.806729 
L 445.2898 487.56908 
L 445.959067 476.33143 
L 446.628333 493.187904 
L 447.2976 515.663202 
L 447.966867 515.663202 
L 448.636133 504.425553 
L 449.3054 470.712606 
L 449.974667 453.856132 
L 450.643933 453.856132 
L 453.321 498.806729 
L 453.990267 504.425553 
L 454.659533 498.806729 
L 455.3288 481.950255 
L 456.667333 481.950255 
L 458.005867 448.237308 
L 458.675133 448.237308 
L 459.3444 476.33143 
L 460.013667 510.044378 
L 460.682933 521.282027 
L 461.3522 510.044378 
L 462.021467 493.187904 
L 462.690733 481.950255 
L 465.3678 481.950255 
L 466.706333 470.712606 
L 467.3756 470.712606 
L 468.044867 476.33143 
L 468.714133 476.33143 
L 469.3834 498.806729 
L 470.052667 515.663202 
L 470.721933 504.425553 
L 471.3912 487.56908 
L 472.060467 476.33143 
L 473.399 476.33143 
L 474.068267 481.950255 
L 476.076067 481.950255 
L 476.745333 476.33143 
L 477.4146 476.33143 
L 478.753133 487.56908 
L 480.760933 487.56908 
L 483.438 465.093781 
L 485.4458 465.093781 
L 486.115067 470.712606 
L 487.4536 504.425553 
L 488.122867 493.187904 
L 488.792133 476.33143 
L 489.4614 470.712606 
L 490.130667 470.712606 
L 490.799933 476.33143 
L 492.138467 476.33143 
L 492.807733 481.950255 
L 494.146267 481.950255 
L 494.815533 504.425553 
L 495.4848 515.663202 
L 496.154067 504.425553 
L 497.4926 459.474957 
L 498.161867 459.474957 
L 498.831133 465.093781 
L 499.5004 459.474957 
L 500.169667 448.237308 
L 500.838933 476.33143 
L 501.5082 515.663202 
L 502.177467 521.282027 
L 502.846733 504.425553 
L 503.516 470.712606 
L 504.185267 453.856132 
L 504.854533 453.856132 
L 505.5238 470.712606 
L 506.193067 481.950255 
L 506.862333 476.33143 
L 508.200867 476.33143 
L 508.870133 481.950255 
L 509.5394 481.950255 
L 510.877933 470.712606 
L 512.216467 481.950255 
L 513.555 481.950255 
L 514.224267 498.806729 
L 514.893533 521.282027 
L 515.5628 498.806729 
L 516.232067 465.093781 
L 516.901333 448.237308 
L 517.5706 453.856132 
L 518.239867 465.093781 
L 518.909133 470.712606 
L 519.5784 481.950255 
L 520.247667 487.56908 
L 520.916933 498.806729 
L 521.5862 498.806729 
L 522.255467 481.950255 
L 522.924733 476.33143 
L 523.594 476.33143 
L 524.932533 498.806729 
L 525.6018 504.425553 
L 526.271067 498.806729 
L 527.6096 476.33143 
L 528.278867 470.712606 
L 529.6174 470.712606 
L 530.955933 481.950255 
L 531.6252 493.187904 
L 532.294467 487.56908 
L 532.963733 487.56908 
L 533.633 493.187904 
L 534.971533 481.950255 
L 536.310067 481.950255 
L 537.6486 470.712606 
L 538.317867 459.474957 
L 538.987133 459.474957 
L 539.6564 487.56908 
L 540.325667 498.806729 
L 541.6642 476.33143 
L 542.333467 470.712606 
L 544.341267 487.56908 
L 545.010533 487.56908 
L 545.6798 476.33143 
L 546.349067 470.712606 
L 547.018333 487.56908 
L 547.6876 498.806729 
L 548.356867 498.806729 
L 549.6954 476.33143 
L 550.364667 481.950255 
L 551.033933 481.950255 
L 551.7032 470.712606 
L 552.372467 465.093781 
L 553.041733 470.712606 
L 554.380267 493.187904 
L 555.049533 487.56908 
L 555.7188 470.712606 
L 556.388067 465.093781 
L 557.057333 476.33143 
L 557.7266 510.044378 
L 558.395867 526.900851 
L 559.065133 521.282027 
L 560.403667 476.33143 
L 561.7422 487.56908 
L 562.411467 498.806729 
L 563.080733 504.425553 
L 563.75 493.187904 
L 564.419267 476.33143 
L 565.088533 481.950255 
L 565.7578 498.806729 
L 566.427067 498.806729 
L 567.7656 465.093781 
L 569.104133 487.56908 
L 569.7734 481.950255 
L 570.442667 481.950255 
L 571.111933 493.187904 
L 572.450467 504.425553 
L 573.119733 504.425553 
L 573.789 515.663202 
L 574.458267 515.663202 
L 575.127533 498.806729 
L 575.7968 493.187904 
L 576.466067 481.950255 
L 577.8046 470.712606 
L 578.473867 476.33143 
L 579.143133 493.187904 
L 579.8124 504.425553 
L 581.150933 481.950255 
L 581.8202 481.950255 
L 582.489467 470.712606 
L 583.158733 487.56908 
L 583.828 510.044378 
L 584.497267 515.663202 
L 585.8358 481.950255 
L 586.505067 481.950255 
L 587.174333 476.33143 
L 587.8436 476.33143 
L 588.512867 481.950255 
L 589.8514 504.425553 
L 590.520667 504.425553 
L 591.189933 498.806729 
L 591.8592 487.56908 
L 592.528467 470.712606 
L 593.197733 470.712606 
L 593.867 487.56908 
L 595.205533 510.044378 
L 595.8748 510.044378 
L 597.8826 476.33143 
L 599.8904 476.33143 
L 601.228933 498.806729 
L 601.8982 498.806729 
L 603.236733 487.56908 
L 603.906 487.56908 
L 604.575267 481.950255 
L 605.9138 515.663202 
L 606.583067 515.663202 
L 607.252333 504.425553 
L 607.9216 481.950255 
L 608.590867 476.33143 
L 609.260133 481.950255 
L 609.9294 493.187904 
L 610.598667 493.187904 
L 611.9372 470.712606 
L 613.275733 459.474957 
L 613.945 465.093781 
L 614.614267 476.33143 
L 615.283533 481.950255 
L 615.9528 504.425553 
L 616.622067 521.282027 
L 617.291333 521.282027 
L 618.629867 476.33143 
L 620.637667 476.33143 
L 621.306933 470.712606 
L 621.9762 470.712606 
L 622.645467 476.33143 
L 623.314733 476.33143 
L 623.984 481.950255 
L 624.653267 481.950255 
L 625.9918 504.425553 
L 627.330333 481.950255 
L 627.9996 487.56908 
L 628.668867 504.425553 
L 629.338133 510.044378 
L 630.0074 481.950255 
L 630.676667 448.237308 
L 631.345933 448.237308 
L 632.0152 459.474957 
L 633.353733 470.712606 
L 634.023 487.56908 
L 634.692267 498.806729 
L 635.361533 498.806729 
L 636.700067 476.33143 
L 637.369333 481.950255 
L 638.0386 493.187904 
L 640.0464 493.187904 
L 641.384933 470.712606 
L 642.0542 465.093781 
L 642.723467 470.712606 
L 643.392733 493.187904 
L 644.062 510.044378 
L 644.731267 521.282027 
L 645.400533 521.282027 
L 646.0698 498.806729 
L 646.739067 481.950255 
L 647.408333 476.33143 
M 664.809267 526.900851 
L 665.478533 549.376149 
L 666.817067 538.1385 
L 667.486333 526.900851 
L 668.1556 521.282027 
L 668.824867 538.1385 
L 669.494133 560.613798 
L 670.1634 560.613798 
L 670.832667 532.519676 
L 671.501933 487.56908 
L 672.1712 470.712606 
L 672.840467 470.712606 
L 673.509733 487.56908 
L 674.179 487.56908 
L 674.848267 465.093781 
L 675.517533 453.856132 
L 676.856067 510.044378 
L 677.525333 510.044378 
L 678.1946 498.806729 
L 678.863867 493.187904 
L 679.533133 493.187904 
L 680.871667 470.712606 
L 681.540933 470.712606 
L 682.2102 476.33143 
L 683.548733 465.093781 
L 684.218 470.712606 
L 684.887267 487.56908 
L 685.556533 498.806729 
L 686.2258 498.806729 
L 687.564333 510.044378 
L 688.2336 510.044378 
L 688.902867 498.806729 
L 689.572133 481.950255 
L 690.2414 498.806729 
L 690.910667 526.900851 
L 691.579933 526.900851 
L 692.2492 510.044378 
L 693.587733 498.806729 
L 694.257 476.33143 
L 694.926267 476.33143 
L 695.595533 493.187904 
L 696.2648 504.425553 
L 696.934067 510.044378 
L 697.603333 510.044378 
L 698.2726 515.663202 
L 698.941867 504.425553 
L 699.611133 481.950255 
L 700.2804 476.33143 
L 700.949667 498.806729 
L 701.618933 515.663202 
L 702.2882 538.1385 
L 702.957467 543.757325 
L 704.296 521.282027 
L 704.965267 504.425553 
L 705.634533 521.282027 
L 706.3038 532.519676 
L 706.973067 538.1385 
L 707.642333 515.663202 
L 708.3116 498.806729 
L 710.3194 515.663202 
L 710.988667 515.663202 
L 711.657933 510.044378 
L 712.3272 493.187904 
L 712.996467 498.806729 
L 713.665733 510.044378 
L 714.335 510.044378 
L 715.004267 498.806729 
L 715.673533 498.806729 
L 716.3428 521.282027 
L 717.012067 538.1385 
L 717.681333 532.519676 
L 718.3506 510.044378 
L 719.019867 493.187904 
L 720.3584 515.663202 
L 721.027667 515.663202 
L 721.696933 493.187904 
L 722.3662 476.33143 
L 723.704733 498.806729 
L 724.374 504.425553 
L 726.3818 487.56908 
L 727.051067 504.425553 
L 727.720333 526.900851 
L 728.3896 526.900851 
L 729.058867 504.425553 
L 729.728133 487.56908 
L 730.3974 498.806729 
L 731.066667 521.282027 
L 731.735933 521.282027 
L 732.4052 504.425553 
L 733.074467 498.806729 
L 733.743733 498.806729 
L 734.413 504.425553 
L 735.082267 504.425553 
L 735.751533 515.663202 
L 736.4208 538.1385 
L 737.090067 543.757325 
L 737.759333 521.282027 
L 738.4286 487.56908 
L 739.097867 476.33143 
L 739.767133 498.806729 
L 740.4364 532.519676 
L 741.105667 538.1385 
L 741.774933 521.282027 
L 742.4442 493.187904 
L 743.113467 476.33143 
L 743.782733 487.56908 
M 776.5768 554.994974 
L 777.246067 566.232623 
L 777.915333 549.376149 
L 778.5846 543.757325 
L 779.253867 560.613798 
L 779.923133 560.613798 
L 780.5924 583.089096 
L 781.261667 611.183219 
L 781.930933 616.802044 
L 783.269467 605.564395 
L 783.938733 605.564395 
L 785.277267 594.326746 
L 785.946533 599.94557 
L 786.6158 588.707921 
L 787.285067 571.851447 
L 787.954333 577.470272 
L 788.6236 571.851447 
L 789.292867 554.994974 
L 789.962133 543.757325 
L 790.6314 543.757325 
L 791.300667 549.376149 
L 791.969933 538.1385 
L 792.6392 515.663202 
L 793.308467 526.900851 
L 793.977733 554.994974 
L 794.647 571.851447 
L 796.6548 538.1385 
L 797.324067 532.519676 
L 797.993333 521.282027 
L 798.6626 515.663202 
L 799.331867 521.282027 
L 800.6704 521.282027 
L 801.339667 532.519676 
L 802.008933 549.376149 
L 802.6782 549.376149 
L 803.347467 532.519676 
L 804.016733 526.900851 
L 805.355267 538.1385 
L 806.024533 554.994974 
L 807.363067 554.994974 
L 808.032333 566.232623 
L 808.7016 571.851447 
L 809.370867 566.232623 
L 810.7094 532.519676 
L 812.047933 543.757325 
L 812.7172 571.851447 
L 813.386467 583.089096 
L 814.055733 583.089096 
L 814.725 571.851447 
L 815.394267 538.1385 
L 816.063533 526.900851 
L 816.7328 532.519676 
L 817.402067 566.232623 
L 818.071333 583.089096 
L 818.7406 571.851447 
L 819.409867 538.1385 
L 820.079133 526.900851 
L 820.7484 549.376149 
L 821.417667 566.232623 
L 822.086933 532.519676 
L 822.7562 526.900851 
L 824.094733 599.94557 
L 824.764 594.326746 
L 825.433267 577.470272 
L 826.102533 566.232623 
L 826.7718 560.613798 
L 827.441067 566.232623 
L 828.7796 532.519676 
L 829.448867 532.519676 
L 830.7874 566.232623 
L 831.456667 571.851447 
L 832.125933 560.613798 
L 832.7952 560.613798 
L 833.464467 543.757325 
L 834.803 543.757325 
L 836.141533 577.470272 
L 836.8108 566.232623 
L 837.480067 566.232623 
L 838.149333 554.994974 
L 838.8186 538.1385 
L 839.487867 532.519676 
L 840.157133 549.376149 
L 840.8264 571.851447 
L 841.495667 560.613798 
L 842.164933 543.757325 
L 842.8342 543.757325 
L 843.503467 554.994974 
L 844.172733 554.994974 
L 844.842 549.376149 
L 845.511267 532.519676 
L 846.180533 498.806729 
L 846.8498 504.425553 
L 847.519067 515.663202 
L 848.188333 532.519676 
L 848.8576 538.1385 
L 849.526867 526.900851 
L 850.196133 510.044378 
L 850.8654 515.663202 
L 851.534667 538.1385 
L 852.8732 515.663202 
L 853.542467 510.044378 
L 854.211733 526.900851 
L 854.881 560.613798 
L 855.550267 566.232623 
L 856.219533 554.994974 
L 856.8888 538.1385 
L 857.558067 532.519676 
L 858.227333 538.1385 
L 858.8966 538.1385 
L 859.565867 554.994974 
L 860.235133 566.232623 
L 860.9044 560.613798 
L 862.242933 504.425553 
L 863.581467 504.425553 
L 864.250733 526.900851 
L 864.92 560.613798 
L 865.589267 554.994974 
L 866.9278 510.044378 
L 867.597067 515.663202 
L 868.266333 526.900851 
L 868.9356 543.757325 
L 869.604867 566.232623 
L 870.274133 566.232623 
L 870.9434 538.1385 
L 871.612667 521.282027 
L 872.281933 538.1385 
L 872.9512 543.757325 
L 873.620467 521.282027 
L 874.289733 521.282027 
L 874.959 543.757325 
L 875.628267 538.1385 
L 876.297533 510.044378 
L 876.9668 493.187904 
L 878.305333 526.900851 
L 878.9746 549.376149 
L 879.643867 554.994974 
L 880.313133 532.519676 
L 880.9824 504.425553 
L 881.651667 510.044378 
L 882.320933 543.757325 
L 882.9902 566.232623 
L 883.659467 566.232623 
L 884.328733 549.376149 
L 884.998 543.757325 
L 885.667267 521.282027 
L 886.336533 526.900851 
L 887.0058 543.757325 
L 887.675067 526.900851 
L 888.344333 504.425553 
L 889.0136 510.044378 
L 889.682867 532.519676 
L 890.352133 560.613798 
L 891.0214 566.232623 
L 891.690667 583.089096 
L 892.359933 588.707921 
L 893.0292 549.376149 
L 893.698467 554.994974 
L 895.037 577.470272 
L 895.706267 549.376149 
L 896.375533 515.663202 
L 897.0448 538.1385 
L 897.714067 549.376149 
L 898.383333 543.757325 
L 899.721867 543.757325 
L 900.391133 538.1385 
L 901.0604 526.900851 
L 901.729667 549.376149 
L 902.398933 554.994974 
L 903.737467 521.282027 
L 904.406733 510.044378 
L 905.745267 543.757325 
L 907.0838 566.232623 
L 907.753067 566.232623 
L 908.422333 554.994974 
L 909.760867 543.757325 
L 910.430133 543.757325 
L 911.0994 538.1385 
L 911.768667 526.900851 
L 913.1072 526.900851 
L 913.776467 554.994974 
L 914.445733 560.613798 
L 915.115 532.519676 
L 915.784267 521.282027 
L 916.453533 515.663202 
L 917.1228 526.900851 
L 917.792067 521.282027 
L 918.461333 532.519676 
L 919.1306 554.994974 
L 919.799867 549.376149 
L 920.469133 521.282027 
L 921.1384 515.663202 
L 921.807667 554.994974 
L 922.476933 577.470272 
L 923.1462 566.232623 
L 923.815467 532.519676 
L 924.484733 510.044378 
L 925.154 515.663202 
L 925.823267 543.757325 
L 926.492533 566.232623 
L 927.1618 549.376149 
L 927.831067 521.282027 
L 928.500333 526.900851 
L 929.1696 560.613798 
L 929.838867 566.232623 
L 930.508133 543.757325 
L 931.1774 526.900851 
L 931.846667 526.900851 
L 932.515933 549.376149 
L 933.854467 605.564395 
L 934.523733 594.326746 
L 935.862267 521.282027 
L 936.531533 532.519676 
L 937.2008 560.613798 
L 937.870067 566.232623 
L 938.539333 549.376149 
L 939.2086 538.1385 
L 939.877867 566.232623 
L 940.547133 571.851447 
L 941.2164 566.232623 
L 941.885667 543.757325 
L 942.554933 526.900851 
L 943.2242 549.376149 
L 943.893467 566.232623 
L 944.562733 566.232623 
L 945.232 543.757325 
L 945.901267 532.519676 
L 946.570533 532.519676 
L 947.2398 526.900851 
L 947.909067 526.900851 
L 948.578333 538.1385 
L 949.2476 560.613798 
L 949.916867 566.232623 
L 950.586133 554.994974 
L 951.2554 532.519676 
L 951.924667 515.663202 
L 952.593933 510.044378 
L 953.2632 498.806729 
L 953.932467 504.425553 
L 954.601733 538.1385 
L 955.271 543.757325 
L 955.940267 521.282027 
L 956.609533 515.663202 
L 957.2788 521.282027 
L 957.948067 521.282027 
L 958.617333 504.425553 
L 959.2866 481.950255 
L 959.955867 481.950255 
L 960.625133 487.56908 
L 961.2944 510.044378 
L 961.963667 554.994974 
L 962.632933 566.232623 
L 963.3022 538.1385 
L 963.971467 515.663202 
L 964.640733 532.519676 
L 965.31 554.994974 
L 965.979267 549.376149 
L 966.648533 532.519676 
L 967.3178 526.900851 
L 967.987067 532.519676 
L 968.656333 549.376149 
L 969.3256 560.613798 
L 969.994867 566.232623 
L 970.664133 532.519676 
L 971.3334 493.187904 
L 972.002667 510.044378 
L 972.671933 521.282027 
L 973.3412 526.900851 
L 974.010467 510.044378 
L 974.679733 515.663202 
L 975.349 543.757325 
L 976.018267 566.232623 
L 976.687533 583.089096 
L 977.3568 577.470272 
L 978.695333 521.282027 
L 979.3646 543.757325 
L 980.033867 571.851447 
L 980.703133 566.232623 
L 981.3724 538.1385 
L 982.041667 521.282027 
L 982.710933 526.900851 
L 983.3802 521.282027 
L 984.049467 510.044378 
L 984.718733 521.282027 
L 985.388 543.757325 
L 986.057267 571.851447 
L 986.726533 566.232623 
L 987.3958 543.757325 
L 989.4036 526.900851 
L 990.072867 510.044378 
L 990.742133 498.806729 
L 991.4114 526.900851 
L 992.080667 566.232623 
L 992.749933 571.851447 
L 993.4192 560.613798 
L 994.088467 538.1385 
L 995.427 515.663202 
L 996.096267 532.519676 
L 996.765533 571.851447 
L 997.4348 566.232623 
L 998.104067 538.1385 
L 998.773333 526.900851 
L 999.4426 538.1385 
L 1000.111867 532.519676 
L 1000.781133 510.044378 
L 1001.4504 498.806729 
L 1002.119667 515.663202 
L 1002.788933 538.1385 
L 1003.4582 554.994974 
L 1004.127467 549.376149 
L 1004.796733 526.900851 
L 1005.466 515.663202 
L 1006.135267 493.187904 
L 1006.804533 493.187904 
L 1007.4738 538.1385 
L 1008.143067 560.613798 
L 1010.150867 560.613798 
L 1010.820133 566.232623 
L 1011.4894 554.994974 
L 1012.158667 538.1385 
L 1013.4972 560.613798 
L 1014.166467 554.994974 
L 1014.835733 538.1385 
L 1015.505 510.044378 
L 1016.174267 498.806729 
L 1017.5128 521.282027 
L 1018.182067 538.1385 
L 1018.851333 560.613798 
L 1019.5206 571.851447 
L 1020.189867 577.470272 
L 1020.859133 549.376149 
L 1021.5284 532.519676 
L 1022.197667 526.900851 
L 1022.866933 515.663202 
L 1023.5362 510.044378 
L 1024.205467 521.282027 
L 1024.874733 543.757325 
L 1025.544 549.376149 
L 1026.213267 538.1385 
L 1026.882533 538.1385 
L 1027.5518 543.757325 
L 1028.890333 577.470272 
L 1029.5596 566.232623 
L 1030.228867 538.1385 
L 1030.898133 532.519676 
L 1031.5674 560.613798 
L 1032.236667 583.089096 
L 1032.905933 583.089096 
L 1033.5752 566.232623 
L 1034.244467 554.994974 
L 1034.913733 521.282027 
L 1035.583 504.425553 
L 1036.252267 498.806729 
L 1036.921533 498.806729 
L 1038.260067 521.282027 
L 1038.929333 526.900851 
L 1039.5986 526.900851 
L 1040.267867 566.232623 
L 1040.937133 588.707921 
L 1041.6064 571.851447 
L 1042.275667 543.757325 
L 1042.944933 521.282027 
L 1043.6142 538.1385 
L 1044.283467 532.519676 
L 1046.291267 549.376149 
L 1046.960533 549.376149 
L 1047.6298 515.663202 
L 1048.299067 526.900851 
L 1048.968333 549.376149 
L 1049.6376 560.613798 
L 1050.976133 538.1385 
L 1052.314667 538.1385 
L 1052.983933 566.232623 
L 1053.6532 577.470272 
L 1054.322467 560.613798 
L 1054.991733 526.900851 
L 1055.661 510.044378 
L 1056.330267 521.282027 
L 1056.999533 521.282027 
L 1057.6688 498.806729 
L 1058.338067 498.806729 
L 1059.007333 532.519676 
L 1059.6766 538.1385 
L 1060.345867 510.044378 
L 1061.015133 487.56908 
L 1062.353667 510.044378 
L 1063.022933 510.044378 
L 1063.6922 498.806729 
L 1064.361467 504.425553 
L 1065.7 549.376149 
L 1066.369267 560.613798 
L 1066.369267 560.613798 
" style="fill:none;opacity:0.4;stroke:#000000;stroke-linecap:square;stroke-width:1.5;"/>
   </g>
   <g id="patch_22">
    <path d="M 61.8 616.690729 
L 61.8 335.972132 
" style="fill:none;stroke:#000000;stroke-linecap:square;stroke-linejoin:miter;stroke-width:0.8;"/>
   </g>
   <g id="patch_23">
    <path d="M 1065.7 616.690729 
L 1065.7 335.972132 
" style="fill:none;stroke:#000000;stroke-linecap:square;stroke-linejoin:miter;stroke-width:0.8;"/>
   </g>
   <g id="patch_24">
    <path d="M 61.8 616.690729 
L 1065.7 616.690729 
" style="fill:none;stroke:#000000;stroke-linecap:square;stroke-linejoin:miter;stroke-width:0.8;"/>
   </g>
   <g id="patch_25">
    <path d="M 61.8 335.972132 
L 1065.7 335.972132 
" style="fill:none;stroke:#000000;stroke-linecap:square;stroke-linejoin:miter;stroke-width:0.8;"/>
   </g>
  </g>
 </g>
 <defs>
  <clipPath id="p2f4d6f5d7a">
   <rect height="280.718598" width="1003.9" x="61.8" y="55.253534"/>
  </clipPath>
  <clipPath id="p6a5c714f41">
   <rect height="280.718598" width="1003.9" x="61.8" y="335.972132"/>
  </clipPath>
 </defs>
</svg>
