<?xml version="1.0" encoding="utf-8" standalone="no"?>
<!DOCTYPE svg PUBLIC "-//W3C//DTD SVG 1.1//EN"
  "http://www.w3.org/Graphics/SVG/1.1/DTD/svg11.dtd">
<!-- Created with matplotlib (http://matplotlib.org/) -->
<svg height="667.490729pt" version="1.1" viewBox="0 0 1080 667.490729" width="1080pt" xmlns="http://www.w3.org/2000/svg" xmlns:xlink="http://www.w3.org/1999/xlink">
 <defs>
  <style type="text/css">
*{stroke-linecap:butt;stroke-linejoin:round;}
  </style>
 </defs>
 <g id="figure_1">
  <g id="patch_1">
   <path d="M 0 667.490729 
L 1080 667.490729 
L 1080 0 
L 0 0 
z
" style="fill:#ffffff;"/>
  </g>
  <g id="axes_1">
   <g id="patch_2">
    <path d="M 61.8 335.972132 
L 1065.7 335.972132 
L 1065.7 55.253534 
L 61.8 55.253534 
z
" style="fill:#ffffff;"/>
   </g>
   <g id="patch_3">
    <path clip-path="url(#pc03e639581)" d="M 154.828067 335.972132 
L 154.828067 55.253534 
L 167.544133 55.253534 
L 167.544133 335.972132 
z
" style="opacity:0.15;stroke:#000000;stroke-linejoin:miter;"/>
   </g>
   <g id="patch_4">
    <path clip-path="url(#pc03e639581)" d="M 758.5066 335.972132 
L 758.5066 55.253534 
L 777.915333 55.253534 
L 777.915333 335.972132 
z
" style="opacity:0.15;stroke:#000000;stroke-linejoin:miter;"/>
   </g>
   <g id="patch_5">
    <path clip-path="url(#pc03e639581)" d="M 1010.820133 335.972132 
L 1010.820133 55.253534 
L 1028.221067 55.253534 
L 1028.221067 335.972132 
z
" style="opacity:0.15;stroke:#000000;stroke-linejoin:miter;"/>
   </g>
   <g id="patch_6">
    <path clip-path="url(#pc03e639581)" d="M 155.497333 335.972132 
L 155.497333 55.253534 
L 176.913867 55.253534 
L 176.913867 335.972132 
z
" style="opacity:0.15;stroke:#000000;stroke-linejoin:miter;"/>
   </g>
   <g id="patch_7">
    <path clip-path="url(#pc03e639581)" d="M 49.083933 335.972132 
L 49.083933 55.253534 
L 362.97 55.253534 
L 362.97 335.972132 
z
" style="opacity:0.2;stroke:#000000;stroke-linejoin:miter;"/>
   </g>
   <g id="patch_8">
    <path clip-path="url(#pc03e639581)" d="M 362.97 335.972132 
L 362.97 55.253534 
L 563.75 55.253534 
L 563.75 335.972132 
z
" style="fill:#ff0000;opacity:0.2;stroke:#ff0000;stroke-linejoin:miter;"/>
   </g>
   <g id="patch_9">
    <path clip-path="url(#pc03e639581)" d="M 563.75 335.972132 
L 563.75 55.253534 
L 1087.116533 55.253534 
L 1087.116533 335.972132 
z
" style="opacity:0.15;stroke:#000000;stroke-linejoin:miter;"/>
   </g>
   <g id="matplotlib.axis_1">
    <g id="xtick_1">
     <g id="line2d_1">
      <defs>
       <path d="M 0 0 
L 0 3.5 
" id="m532eb4f772" style="stroke:#000000;stroke-width:0.8;"/>
      </defs>
      <g>
       <use style="stroke:#000000;stroke-width:0.8;" x="162.19" xlink:href="#m532eb4f772" y="335.972132"/>
      </g>
     </g>
    </g>
    <g id="xtick_2">
     <g id="line2d_2">
      <g>
       <use style="stroke:#000000;stroke-width:0.8;" x="296.043333" xlink:href="#m532eb4f772" y="335.972132"/>
      </g>
     </g>
    </g>
    <g id="xtick_3">
     <g id="line2d_3">
      <g>
       <use style="stroke:#000000;stroke-width:0.8;" x="429.896667" xlink:href="#m532eb4f772" y="335.972132"/>
      </g>
     </g>
    </g>
    <g id="xtick_4">
     <g id="line2d_4">
      <g>
       <use style="stroke:#000000;stroke-width:0.8;" x="563.75" xlink:href="#m532eb4f772" y="335.972132"/>
      </g>
     </g>
    </g>
    <g id="xtick_5">
     <g id="line2d_5">
      <g>
       <use style="stroke:#000000;stroke-width:0.8;" x="697.603333" xlink:href="#m532eb4f772" y="335.972132"/>
      </g>
     </g>
    </g>
    <g id="xtick_6">
     <g id="line2d_6">
      <g>
       <use style="stroke:#000000;stroke-width:0.8;" x="831.456667" xlink:href="#m532eb4f772" y="335.972132"/>
      </g>
     </g>
    </g>
    <g id="xtick_7">
     <g id="line2d_7">
      <g>
       <use style="stroke:#000000;stroke-width:0.8;" x="965.31" xlink:href="#m532eb4f772" y="335.972132"/>
      </g>
     </g>
    </g>
    <g id="text_1">
     <!-- Time (ms) -->
     <defs>
      <path d="M -0.296875 72.90625 
L 61.375 72.90625 
L 61.375 64.59375 
L 35.5 64.59375 
L 35.5 0 
L 25.59375 0 
L 25.59375 64.59375 
L -0.296875 64.59375 
z
" id="DejaVuSans-54"/>
      <path d="M 9.421875 54.6875 
L 18.40625 54.6875 
L 18.40625 0 
L 9.421875 0 
z
M 9.421875 75.984375 
L 18.40625 75.984375 
L 18.40625 64.59375 
L 9.421875 64.59375 
z
" id="DejaVuSans-69"/>
      <path d="M 52 44.1875 
Q 55.375 50.25 60.0625 53.125 
Q 64.75 56 71.09375 56 
Q 79.640625 56 84.28125 50.015625 
Q 88.921875 44.046875 88.921875 33.015625 
L 88.921875 0 
L 79.890625 0 
L 79.890625 32.71875 
Q 79.890625 40.578125 77.09375 44.375 
Q 74.3125 48.1875 68.609375 48.1875 
Q 61.625 48.1875 57.5625 43.546875 
Q 53.515625 38.921875 53.515625 30.90625 
L 53.515625 0 
L 44.484375 0 
L 44.484375 32.71875 
Q 44.484375 40.625 41.703125 44.40625 
Q 38.921875 48.1875 33.109375 48.1875 
Q 26.21875 48.1875 22.15625 43.53125 
Q 18.109375 38.875 18.109375 30.90625 
L 18.109375 0 
L 9.078125 0 
L 9.078125 54.6875 
L 18.109375 54.6875 
L 18.109375 46.1875 
Q 21.1875 51.21875 25.484375 53.609375 
Q 29.78125 56 35.6875 56 
Q 41.65625 56 45.828125 52.96875 
Q 50 49.953125 52 44.1875 
z
" id="DejaVuSans-6d"/>
      <path d="M 56.203125 29.59375 
L 56.203125 25.203125 
L 14.890625 25.203125 
Q 15.484375 15.921875 20.484375 11.0625 
Q 25.484375 6.203125 34.421875 6.203125 
Q 39.59375 6.203125 44.453125 7.46875 
Q 49.3125 8.734375 54.109375 11.28125 
L 54.109375 2.78125 
Q 49.265625 0.734375 44.1875 -0.34375 
Q 39.109375 -1.421875 33.890625 -1.421875 
Q 20.796875 -1.421875 13.15625 6.1875 
Q 5.515625 13.8125 5.515625 26.8125 
Q 5.515625 40.234375 12.765625 48.109375 
Q 20.015625 56 32.328125 56 
Q 43.359375 56 49.78125 48.890625 
Q 56.203125 41.796875 56.203125 29.59375 
z
M 47.21875 32.234375 
Q 47.125 39.59375 43.09375 43.984375 
Q 39.0625 48.390625 32.421875 48.390625 
Q 24.90625 48.390625 20.390625 44.140625 
Q 15.875 39.890625 15.1875 32.171875 
z
" id="DejaVuSans-65"/>
      <path id="DejaVuSans-20"/>
      <path d="M 31 75.875 
Q 24.46875 64.65625 21.28125 53.65625 
Q 18.109375 42.671875 18.109375 31.390625 
Q 18.109375 20.125 21.3125 9.0625 
Q 24.515625 -2 31 -13.1875 
L 23.1875 -13.1875 
Q 15.875 -1.703125 12.234375 9.375 
Q 8.59375 20.453125 8.59375 31.390625 
Q 8.59375 42.28125 12.203125 53.3125 
Q 15.828125 64.359375 23.1875 75.875 
z
" id="DejaVuSans-28"/>
      <path d="M 44.28125 53.078125 
L 44.28125 44.578125 
Q 40.484375 46.53125 36.375 47.5 
Q 32.28125 48.484375 27.875 48.484375 
Q 21.1875 48.484375 17.84375 46.4375 
Q 14.5 44.390625 14.5 40.28125 
Q 14.5 37.15625 16.890625 35.375 
Q 19.28125 33.59375 26.515625 31.984375 
L 29.59375 31.296875 
Q 39.15625 29.25 43.1875 25.515625 
Q 47.21875 21.78125 47.21875 15.09375 
Q 47.21875 7.46875 41.1875 3.015625 
Q 35.15625 -1.421875 24.609375 -1.421875 
Q 20.21875 -1.421875 15.453125 -0.5625 
Q 10.6875 0.296875 5.421875 2 
L 5.421875 11.28125 
Q 10.40625 8.6875 15.234375 7.390625 
Q 20.0625 6.109375 24.8125 6.109375 
Q 31.15625 6.109375 34.5625 8.28125 
Q 37.984375 10.453125 37.984375 14.40625 
Q 37.984375 18.0625 35.515625 20.015625 
Q 33.0625 21.96875 24.703125 23.78125 
L 21.578125 24.515625 
Q 13.234375 26.265625 9.515625 29.90625 
Q 5.8125 33.546875 5.8125 39.890625 
Q 5.8125 47.609375 11.28125 51.796875 
Q 16.75 56 26.8125 56 
Q 31.78125 56 36.171875 55.265625 
Q 40.578125 54.546875 44.28125 53.078125 
z
" id="DejaVuSans-73"/>
      <path d="M 8.015625 75.875 
L 15.828125 75.875 
Q 23.140625 64.359375 26.78125 53.3125 
Q 30.421875 42.28125 30.421875 31.390625 
Q 30.421875 20.453125 26.78125 9.375 
Q 23.140625 -1.703125 15.828125 -13.1875 
L 8.015625 -13.1875 
Q 14.5 -2 17.703125 9.0625 
Q 20.90625 20.125 20.90625 31.390625 
Q 20.90625 42.671875 17.703125 53.65625 
Q 14.5 64.65625 8.015625 75.875 
z
" id="DejaVuSans-29"/>
     </defs>
     <g transform="translate(513.04375 362.169007)scale(0.2 -0.2)">
      <use xlink:href="#DejaVuSans-54"/>
      <use x="61.037109" xlink:href="#DejaVuSans-69"/>
      <use x="88.820312" xlink:href="#DejaVuSans-6d"/>
      <use x="186.232422" xlink:href="#DejaVuSans-65"/>
      <use x="247.755859" xlink:href="#DejaVuSans-20"/>
      <use x="279.542969" xlink:href="#DejaVuSans-28"/>
      <use x="318.556641" xlink:href="#DejaVuSans-6d"/>
      <use x="415.96875" xlink:href="#DejaVuSans-73"/>
      <use x="468.068359" xlink:href="#DejaVuSans-29"/>
     </g>
    </g>
   </g>
   <g id="matplotlib.axis_2">
    <g id="ytick_1">
     <g id="line2d_8">
      <defs>
       <path d="M 0 0 
L -3.5 0 
" id="m54c2986c2a" style="stroke:#000000;stroke-width:0.8;"/>
      </defs>
      <g>
       <use style="stroke:#000000;stroke-width:0.8;" x="61.8" xlink:href="#m54c2986c2a" y="302.214832"/>
      </g>
     </g>
     <g id="text_2">
      <!-- −30 -->
      <defs>
       <path d="M 10.59375 35.5 
L 73.1875 35.5 
L 73.1875 27.203125 
L 10.59375 27.203125 
z
" id="DejaVuSans-2212"/>
       <path d="M 40.578125 39.3125 
Q 47.65625 37.796875 51.625 33 
Q 55.609375 28.21875 55.609375 21.1875 
Q 55.609375 10.40625 48.1875 4.484375 
Q 40.765625 -1.421875 27.09375 -1.421875 
Q 22.515625 -1.421875 17.65625 -0.515625 
Q 12.796875 0.390625 7.625 2.203125 
L 7.625 11.71875 
Q 11.71875 9.328125 16.59375 8.109375 
Q 21.484375 6.890625 26.8125 6.890625 
Q 36.078125 6.890625 40.9375 10.546875 
Q 45.796875 14.203125 45.796875 21.1875 
Q 45.796875 27.640625 41.28125 31.265625 
Q 36.765625 34.90625 28.71875 34.90625 
L 20.21875 34.90625 
L 20.21875 43.015625 
L 29.109375 43.015625 
Q 36.375 43.015625 40.234375 45.921875 
Q 44.09375 48.828125 44.09375 54.296875 
Q 44.09375 59.90625 40.109375 62.90625 
Q 36.140625 65.921875 28.71875 65.921875 
Q 24.65625 65.921875 20.015625 65.03125 
Q 15.375 64.15625 9.8125 62.3125 
L 9.8125 71.09375 
Q 15.4375 72.65625 20.34375 73.4375 
Q 25.25 74.21875 29.59375 74.21875 
Q 40.828125 74.21875 47.359375 69.109375 
Q 53.90625 64.015625 53.90625 55.328125 
Q 53.90625 49.265625 50.4375 45.09375 
Q 46.96875 40.921875 40.578125 39.3125 
z
" id="DejaVuSans-33"/>
       <path d="M 31.78125 66.40625 
Q 24.171875 66.40625 20.328125 58.90625 
Q 16.5 51.421875 16.5 36.375 
Q 16.5 21.390625 20.328125 13.890625 
Q 24.171875 6.390625 31.78125 6.390625 
Q 39.453125 6.390625 43.28125 13.890625 
Q 47.125 21.390625 47.125 36.375 
Q 47.125 51.421875 43.28125 58.90625 
Q 39.453125 66.40625 31.78125 66.40625 
z
M 31.78125 74.21875 
Q 44.046875 74.21875 50.515625 64.515625 
Q 56.984375 54.828125 56.984375 36.375 
Q 56.984375 17.96875 50.515625 8.265625 
Q 44.046875 -1.421875 31.78125 -1.421875 
Q 19.53125 -1.421875 13.0625 8.265625 
Q 6.59375 17.96875 6.59375 36.375 
Q 6.59375 54.828125 13.0625 64.515625 
Q 19.53125 74.21875 31.78125 74.21875 
z
" id="DejaVuSans-30"/>
      </defs>
      <g transform="translate(33.695312 306.014051)scale(0.1 -0.1)">
       <use xlink:href="#DejaVuSans-2212"/>
       <use x="83.789062" xlink:href="#DejaVuSans-33"/>
       <use x="147.412109" xlink:href="#DejaVuSans-30"/>
      </g>
     </g>
    </g>
    <g id="ytick_2">
     <g id="line2d_9">
      <g>
       <use style="stroke:#000000;stroke-width:0.8;" x="61.8" xlink:href="#m54c2986c2a" y="266.680832"/>
      </g>
     </g>
     <g id="text_3">
      <!-- −20 -->
      <defs>
       <path d="M 19.1875 8.296875 
L 53.609375 8.296875 
L 53.609375 0 
L 7.328125 0 
L 7.328125 8.296875 
Q 12.9375 14.109375 22.625 23.890625 
Q 32.328125 33.6875 34.8125 36.53125 
Q 39.546875 41.84375 41.421875 45.53125 
Q 43.3125 49.21875 43.3125 52.78125 
Q 43.3125 58.59375 39.234375 62.25 
Q 35.15625 65.921875 28.609375 65.921875 
Q 23.96875 65.921875 18.8125 64.3125 
Q 13.671875 62.703125 7.8125 59.421875 
L 7.8125 69.390625 
Q 13.765625 71.78125 18.9375 73 
Q 24.125 74.21875 28.421875 74.21875 
Q 39.75 74.21875 46.484375 68.546875 
Q 53.21875 62.890625 53.21875 53.421875 
Q 53.21875 48.921875 51.53125 44.890625 
Q 49.859375 40.875 45.40625 35.40625 
Q 44.1875 33.984375 37.640625 27.21875 
Q 31.109375 20.453125 19.1875 8.296875 
z
" id="DejaVuSans-32"/>
      </defs>
      <g transform="translate(33.695312 270.480051)scale(0.1 -0.1)">
       <use xlink:href="#DejaVuSans-2212"/>
       <use x="83.789062" xlink:href="#DejaVuSans-32"/>
       <use x="147.412109" xlink:href="#DejaVuSans-30"/>
      </g>
     </g>
    </g>
    <g id="ytick_3">
     <g id="line2d_10">
      <g>
       <use style="stroke:#000000;stroke-width:0.8;" x="61.8" xlink:href="#m54c2986c2a" y="231.146833"/>
      </g>
     </g>
     <g id="text_4">
      <!-- −10 -->
      <defs>
       <path d="M 12.40625 8.296875 
L 28.515625 8.296875 
L 28.515625 63.921875 
L 10.984375 60.40625 
L 10.984375 69.390625 
L 28.421875 72.90625 
L 38.28125 72.90625 
L 38.28125 8.296875 
L 54.390625 8.296875 
L 54.390625 0 
L 12.40625 0 
z
" id="DejaVuSans-31"/>
      </defs>
      <g transform="translate(33.695312 234.946051)scale(0.1 -0.1)">
       <use xlink:href="#DejaVuSans-2212"/>
       <use x="83.789062" xlink:href="#DejaVuSans-31"/>
       <use x="147.412109" xlink:href="#DejaVuSans-30"/>
      </g>
     </g>
    </g>
    <g id="ytick_4">
     <g id="line2d_11">
      <g>
       <use style="stroke:#000000;stroke-width:0.8;" x="61.8" xlink:href="#m54c2986c2a" y="195.612833"/>
      </g>
     </g>
     <g id="text_5">
      <!-- 0 -->
      <g transform="translate(48.4375 199.412052)scale(0.1 -0.1)">
       <use xlink:href="#DejaVuSans-30"/>
      </g>
     </g>
    </g>
    <g id="ytick_5">
     <g id="line2d_12">
      <g>
       <use style="stroke:#000000;stroke-width:0.8;" x="61.8" xlink:href="#m54c2986c2a" y="160.078833"/>
      </g>
     </g>
     <g id="text_6">
      <!-- 10 -->
      <g transform="translate(42.075 163.878052)scale(0.1 -0.1)">
       <use xlink:href="#DejaVuSans-31"/>
       <use x="63.623047" xlink:href="#DejaVuSans-30"/>
      </g>
     </g>
    </g>
    <g id="ytick_6">
     <g id="line2d_13">
      <g>
       <use style="stroke:#000000;stroke-width:0.8;" x="61.8" xlink:href="#m54c2986c2a" y="124.544834"/>
      </g>
     </g>
     <g id="text_7">
      <!-- 20 -->
      <g transform="translate(42.075 128.344052)scale(0.1 -0.1)">
       <use xlink:href="#DejaVuSans-32"/>
       <use x="63.623047" xlink:href="#DejaVuSans-30"/>
      </g>
     </g>
    </g>
    <g id="ytick_7">
     <g id="line2d_14">
      <g>
       <use style="stroke:#000000;stroke-width:0.8;" x="61.8" xlink:href="#m54c2986c2a" y="89.010834"/>
      </g>
     </g>
     <g id="text_8">
      <!-- 30 -->
      <g transform="translate(42.075 92.810053)scale(0.1 -0.1)">
       <use xlink:href="#DejaVuSans-33"/>
       <use x="63.623047" xlink:href="#DejaVuSans-30"/>
      </g>
     </g>
    </g>
    <g id="text_9">
     <!-- Velocity (°/s) -->
     <defs>
      <path d="M 28.609375 0 
L 0.78125 72.90625 
L 11.078125 72.90625 
L 34.1875 11.53125 
L 57.328125 72.90625 
L 67.578125 72.90625 
L 39.796875 0 
z
" id="DejaVuSans-56"/>
      <path d="M 9.421875 75.984375 
L 18.40625 75.984375 
L 18.40625 0 
L 9.421875 0 
z
" id="DejaVuSans-6c"/>
      <path d="M 30.609375 48.390625 
Q 23.390625 48.390625 19.1875 42.75 
Q 14.984375 37.109375 14.984375 27.296875 
Q 14.984375 17.484375 19.15625 11.84375 
Q 23.34375 6.203125 30.609375 6.203125 
Q 37.796875 6.203125 41.984375 11.859375 
Q 46.1875 17.53125 46.1875 27.296875 
Q 46.1875 37.015625 41.984375 42.703125 
Q 37.796875 48.390625 30.609375 48.390625 
z
M 30.609375 56 
Q 42.328125 56 49.015625 48.375 
Q 55.71875 40.765625 55.71875 27.296875 
Q 55.71875 13.875 49.015625 6.21875 
Q 42.328125 -1.421875 30.609375 -1.421875 
Q 18.84375 -1.421875 12.171875 6.21875 
Q 5.515625 13.875 5.515625 27.296875 
Q 5.515625 40.765625 12.171875 48.375 
Q 18.84375 56 30.609375 56 
z
" id="DejaVuSans-6f"/>
      <path d="M 48.78125 52.59375 
L 48.78125 44.1875 
Q 44.96875 46.296875 41.140625 47.34375 
Q 37.3125 48.390625 33.40625 48.390625 
Q 24.65625 48.390625 19.8125 42.84375 
Q 14.984375 37.3125 14.984375 27.296875 
Q 14.984375 17.28125 19.8125 11.734375 
Q 24.65625 6.203125 33.40625 6.203125 
Q 37.3125 6.203125 41.140625 7.25 
Q 44.96875 8.296875 48.78125 10.40625 
L 48.78125 2.09375 
Q 45.015625 0.34375 40.984375 -0.53125 
Q 36.96875 -1.421875 32.421875 -1.421875 
Q 20.0625 -1.421875 12.78125 6.34375 
Q 5.515625 14.109375 5.515625 27.296875 
Q 5.515625 40.671875 12.859375 48.328125 
Q 20.21875 56 33.015625 56 
Q 37.15625 56 41.109375 55.140625 
Q 45.0625 54.296875 48.78125 52.59375 
z
" id="DejaVuSans-63"/>
      <path d="M 18.3125 70.21875 
L 18.3125 54.6875 
L 36.8125 54.6875 
L 36.8125 47.703125 
L 18.3125 47.703125 
L 18.3125 18.015625 
Q 18.3125 11.328125 20.140625 9.421875 
Q 21.96875 7.515625 27.59375 7.515625 
L 36.8125 7.515625 
L 36.8125 0 
L 27.59375 0 
Q 17.1875 0 13.234375 3.875 
Q 9.28125 7.765625 9.28125 18.015625 
L 9.28125 47.703125 
L 2.6875 47.703125 
L 2.6875 54.6875 
L 9.28125 54.6875 
L 9.28125 70.21875 
z
" id="DejaVuSans-74"/>
      <path d="M 32.171875 -5.078125 
Q 28.375 -14.84375 24.75 -17.8125 
Q 21.140625 -20.796875 15.09375 -20.796875 
L 7.90625 -20.796875 
L 7.90625 -13.28125 
L 13.1875 -13.28125 
Q 16.890625 -13.28125 18.9375 -11.515625 
Q 21 -9.765625 23.484375 -3.21875 
L 25.09375 0.875 
L 2.984375 54.6875 
L 12.5 54.6875 
L 29.59375 11.921875 
L 46.6875 54.6875 
L 56.203125 54.6875 
z
" id="DejaVuSans-79"/>
      <path d="M 25 67.921875 
Q 21.09375 67.921875 18.40625 65.203125 
Q 15.71875 62.5 15.71875 58.59375 
Q 15.71875 54.734375 18.40625 52.078125 
Q 21.09375 49.421875 25 49.421875 
Q 28.90625 49.421875 31.59375 52.078125 
Q 34.28125 54.734375 34.28125 58.59375 
Q 34.28125 62.453125 31.5625 65.1875 
Q 28.859375 67.921875 25 67.921875 
z
M 25 74.21875 
Q 28.125 74.21875 31 73.015625 
Q 33.890625 71.828125 35.984375 69.578125 
Q 38.234375 67.390625 39.359375 64.59375 
Q 40.484375 61.8125 40.484375 58.59375 
Q 40.484375 52.15625 35.96875 47.6875 
Q 31.453125 43.21875 24.90625 43.21875 
Q 18.3125 43.21875 13.90625 47.609375 
Q 9.515625 52 9.515625 58.59375 
Q 9.515625 65.140625 14 69.671875 
Q 18.5 74.21875 25 74.21875 
z
" id="DejaVuSans-b0"/>
      <path d="M 25.390625 72.90625 
L 33.6875 72.90625 
L 8.296875 -9.28125 
L 0 -9.28125 
z
" id="DejaVuSans-2f"/>
     </defs>
     <g transform="translate(25.535937 260.16752)rotate(-90)scale(0.2 -0.2)">
      <use xlink:href="#DejaVuSans-56"/>
      <use x="68.298828" xlink:href="#DejaVuSans-65"/>
      <use x="129.822266" xlink:href="#DejaVuSans-6c"/>
      <use x="157.605469" xlink:href="#DejaVuSans-6f"/>
      <use x="218.787109" xlink:href="#DejaVuSans-63"/>
      <use x="273.767578" xlink:href="#DejaVuSans-69"/>
      <use x="301.550781" xlink:href="#DejaVuSans-74"/>
      <use x="340.759766" xlink:href="#DejaVuSans-79"/>
      <use x="399.939453" xlink:href="#DejaVuSans-20"/>
      <use x="431.726562" xlink:href="#DejaVuSans-28"/>
      <use x="470.740234" xlink:href="#DejaVuSans-b0"/>
      <use x="520.740234" xlink:href="#DejaVuSans-2f"/>
      <use x="554.431641" xlink:href="#DejaVuSans-73"/>
      <use x="606.53125" xlink:href="#DejaVuSans-29"/>
     </g>
    </g>
   </g>
   <g id="line2d_15">
    <path clip-path="url(#pc03e639581)" d="M 61.130733 215.073881 
L 61.8 210.208619 
L 62.469267 215.073881 
L 63.138533 215.073881 
L 63.8078 205.343357 
L 64.477067 181.017047 
L 65.146333 171.286523 
L 65.8156 171.286523 
L 67.154133 239.400191 
L 67.8234 219.939143 
L 68.492667 185.882309 
L 69.161933 161.555999 
L 69.8312 176.151785 
L 70.500467 205.343357 
L 71.169733 210.208619 
L 71.839 190.747571 
L 72.508267 166.421261 
L 73.177533 161.555999 
L 73.8468 200.478095 
L 74.516067 253.995977 
L 75.185333 278.322288 
L 75.8546 234.534929 
L 76.523867 166.421261 
L 77.193133 142.09495 
L 78.531667 190.747571 
L 79.200933 185.882309 
L 79.8702 190.747571 
L 81.208733 190.747571 
L 81.878 195.612833 
L 83.8858 195.612833 
L 84.555067 210.208619 
L 85.224333 219.939143 
L 85.8936 215.073881 
L 86.562867 200.478095 
L 87.232133 190.747571 
L 87.9014 200.478095 
L 88.570667 205.343357 
L 89.239933 205.343357 
L 90.578467 195.612833 
L 91.247733 200.478095 
L 92.586267 171.286523 
L 93.255533 181.017047 
L 93.9248 195.612833 
L 94.594067 190.747571 
L 95.263333 171.286523 
L 95.9326 161.555999 
L 96.601867 181.017047 
L 97.271133 205.343357 
L 97.9404 210.208619 
L 98.609667 219.939143 
L 99.9482 219.939143 
L 100.617467 224.804405 
L 101.286733 219.939143 
L 101.956 190.747571 
L 102.625267 166.421261 
L 103.294533 166.421261 
L 103.9638 176.151785 
L 104.633067 181.017047 
L 105.302333 181.017047 
L 105.9716 190.747571 
L 107.9794 190.747571 
L 108.648667 195.612833 
L 109.317933 219.939143 
L 109.9872 234.534929 
L 110.656467 224.804405 
L 111.325733 200.478095 
L 111.995 185.882309 
L 112.664267 185.882309 
L 113.333533 195.612833 
L 114.0028 200.478095 
L 116.0106 185.882309 
L 116.679867 195.612833 
L 117.349133 215.073881 
L 118.0184 219.939143 
L 118.687667 200.478095 
L 119.356933 190.747571 
L 122.703267 190.747571 
L 123.372533 181.017047 
L 124.0418 181.017047 
L 124.711067 190.747571 
L 126.0496 239.400191 
L 126.718867 239.400191 
L 127.388133 219.939143 
L 128.0574 190.747571 
L 128.726667 176.151785 
L 129.395933 176.151785 
L 130.0652 185.882309 
L 131.403733 195.612833 
L 132.073 205.343357 
L 132.742267 205.343357 
L 133.411533 195.612833 
L 134.0808 190.747571 
L 134.750067 195.612833 
L 136.0886 195.612833 
L 136.757867 190.747571 
L 137.427133 181.017047 
L 138.0964 181.017047 
L 139.434933 210.208619 
L 140.1042 215.073881 
L 140.773467 200.478095 
L 141.442733 190.747571 
L 142.112 166.421261 
L 142.781267 137.229688 
L 143.450533 137.229688 
L 144.1198 166.421261 
L 144.789067 200.478095 
L 145.458333 205.343357 
L 146.1276 205.343357 
L 146.796867 215.073881 
L 147.466133 219.939143 
L 148.1354 229.669667 
L 148.804667 224.804405 
L 149.473933 190.747571 
L 150.1432 166.421261 
L 150.812467 166.421261 
M 186.952867 229.669667 
L 187.622133 219.939143 
L 188.2914 205.343357 
L 189.629933 205.343357 
L 190.2992 210.208619 
L 191.637733 210.208619 
L 192.976267 190.747571 
L 193.645533 200.478095 
L 194.984067 210.208619 
L 195.653333 210.208619 
L 197.661133 181.017047 
L 198.3304 181.017047 
L 198.999667 190.747571 
L 199.668933 195.612833 
L 200.3382 195.612833 
L 201.007467 190.747571 
L 201.676733 190.747571 
L 202.346 195.612833 
L 203.015267 195.612833 
L 203.684533 185.882309 
L 204.3538 171.286523 
L 205.023067 171.286523 
L 205.692333 195.612833 
L 206.3616 205.343357 
L 207.030867 185.882309 
L 207.700133 176.151785 
L 209.038667 195.612833 
L 211.715733 195.612833 
L 213.054267 176.151785 
L 213.723533 171.286523 
L 215.062067 200.478095 
L 215.731333 200.478095 
L 216.4006 195.612833 
L 217.069867 185.882309 
L 219.077667 200.478095 
L 219.746933 195.612833 
L 220.4162 185.882309 
L 221.085467 190.747571 
L 221.754733 190.747571 
L 222.424 185.882309 
L 223.762533 195.612833 
L 225.101067 195.612833 
L 225.770333 200.478095 
L 226.4396 200.478095 
L 227.108867 190.747571 
L 227.778133 185.882309 
L 228.4474 190.747571 
L 229.116667 200.478095 
L 229.785933 200.478095 
L 230.4552 195.612833 
L 231.124467 200.478095 
L 232.463 181.017047 
L 234.4708 195.612833 
L 235.140067 190.747571 
L 235.809333 190.747571 
L 236.4786 205.343357 
L 237.147867 210.208619 
L 238.4864 190.747571 
L 239.155667 185.882309 
L 239.824933 176.151785 
L 240.4942 171.286523 
L 241.163467 176.151785 
L 242.502 215.073881 
L 243.171267 219.939143 
L 243.840533 210.208619 
L 244.5098 190.747571 
L 245.179067 181.017047 
L 245.848333 166.421261 
L 246.5176 161.555999 
L 247.856133 200.478095 
L 248.5254 195.612833 
L 249.194667 185.882309 
L 249.863933 181.017047 
L 250.5332 185.882309 
L 251.202467 200.478095 
L 253.210267 200.478095 
L 254.5488 210.208619 
L 255.887333 200.478095 
L 256.5566 190.747571 
L 257.225867 185.882309 
L 257.895133 185.882309 
L 259.233667 166.421261 
L 259.902933 171.286523 
L 260.5722 181.017047 
L 261.910733 190.747571 
L 263.918533 219.939143 
L 264.5878 215.073881 
L 265.257067 200.478095 
L 265.926333 195.612833 
L 266.5956 195.612833 
L 267.934133 176.151785 
L 268.6034 176.151785 
L 269.272667 185.882309 
L 269.941933 190.747571 
L 270.6112 190.747571 
L 271.280467 195.612833 
L 273.957533 195.612833 
L 274.6268 200.478095 
L 275.296067 200.478095 
L 275.965333 190.747571 
L 277.303867 181.017047 
L 278.6424 200.478095 
L 279.980933 181.017047 
L 280.6502 176.151785 
L 281.988733 176.151785 
L 282.658 185.882309 
L 283.996533 215.073881 
L 284.6658 219.939143 
L 285.335067 210.208619 
L 286.004333 195.612833 
L 286.6736 185.882309 
L 287.342867 181.017047 
L 288.012133 181.017047 
L 288.6814 185.882309 
L 289.350667 185.882309 
L 290.019933 195.612833 
L 290.6892 200.478095 
L 291.358467 195.612833 
L 292.027733 195.612833 
L 293.366267 185.882309 
L 295.374067 185.882309 
L 296.043333 190.747571 
L 296.7126 200.478095 
L 297.381867 205.343357 
L 298.7204 205.343357 
L 300.058933 195.612833 
L 300.7282 195.612833 
L 301.397467 190.747571 
L 302.066733 190.747571 
L 302.736 195.612833 
L 304.7438 195.612833 
L 305.413067 200.478095 
L 306.082333 200.478095 
L 306.7516 185.882309 
L 307.420867 176.151785 
L 308.090133 190.747571 
L 308.7594 215.073881 
L 309.428667 224.804405 
L 310.097933 210.208619 
L 310.7672 200.478095 
L 311.436467 205.343357 
L 312.775 176.151785 
L 313.444267 176.151785 
L 314.113533 181.017047 
L 316.121333 210.208619 
L 316.7906 205.343357 
L 317.459867 195.612833 
L 318.7984 195.612833 
L 319.467667 200.478095 
L 320.136933 190.747571 
L 320.8062 176.151785 
L 321.475467 176.151785 
L 322.144733 190.747571 
L 322.814 195.612833 
L 323.483267 181.017047 
L 324.152533 185.882309 
L 324.8218 200.478095 
L 325.491067 200.478095 
L 327.498867 185.882309 
L 328.168133 190.747571 
L 328.8374 200.478095 
L 329.506667 200.478095 
L 330.175933 190.747571 
L 330.8452 166.421261 
L 331.514467 146.960212 
L 332.183733 151.825475 
L 332.853 176.151785 
L 333.522267 190.747571 
L 334.191533 185.882309 
L 334.8608 190.747571 
L 335.530067 200.478095 
L 336.199333 205.343357 
L 337.537867 205.343357 
L 338.8764 185.882309 
L 339.545667 185.882309 
L 340.214933 190.747571 
L 340.8842 200.478095 
L 341.553467 200.478095 
L 342.222733 195.612833 
L 342.892 195.612833 
L 344.230533 185.882309 
L 344.8998 190.747571 
L 346.238333 190.747571 
L 346.9076 195.612833 
L 347.576867 195.612833 
L 348.9154 205.343357 
L 350.253933 185.882309 
L 350.9232 181.017047 
L 351.592467 195.612833 
L 352.261733 215.073881 
L 354.9388 215.073881 
L 356.277333 166.421261 
L 356.9466 171.286523 
L 357.615867 195.612833 
L 358.285133 210.208619 
L 358.9544 200.478095 
L 359.623667 195.612833 
L 360.9622 195.612833 
L 361.631467 200.478095 
L 362.300733 215.073881 
L 362.97 219.939143 
L 364.9778 205.343357 
L 365.647067 205.343357 
L 366.9856 185.882309 
L 367.654867 185.882309 
L 368.9934 195.612833 
L 370.331933 195.612833 
L 371.0012 200.478095 
L 371.670467 210.208619 
L 372.339733 215.073881 
L 373.009 200.478095 
L 373.678267 181.017047 
L 374.347533 181.017047 
L 376.355333 195.612833 
L 377.0246 195.612833 
L 377.693867 200.478095 
L 378.363133 210.208619 
L 379.0324 210.208619 
L 379.701667 205.343357 
L 380.370933 210.208619 
L 381.0402 205.343357 
L 381.709467 205.343357 
L 382.378733 210.208619 
L 383.048 200.478095 
L 383.717267 200.478095 
L 384.386533 205.343357 
L 385.0558 200.478095 
L 385.725067 185.882309 
L 386.394333 176.151785 
L 387.732867 176.151785 
L 388.402133 181.017047 
L 389.0714 195.612833 
L 389.740667 205.343357 
L 390.409933 205.343357 
L 391.748467 195.612833 
L 393.087 195.612833 
L 394.425533 185.882309 
L 395.0948 195.612833 
L 395.764067 200.478095 
L 396.433333 200.478095 
L 397.1026 210.208619 
L 397.771867 215.073881 
L 398.441133 205.343357 
L 399.1104 185.882309 
L 399.779667 176.151785 
L 400.448933 181.017047 
L 401.787467 200.478095 
L 402.456733 200.478095 
L 403.126 195.612833 
L 403.795267 195.612833 
L 405.1338 176.151785 
L 405.803067 176.151785 
L 407.1416 195.612833 
L 407.810867 200.478095 
L 408.480133 200.478095 
L 409.1494 190.747571 
L 409.818667 200.478095 
L 410.487933 219.939143 
L 411.1572 219.939143 
L 411.826467 195.612833 
L 412.495733 166.421261 
L 413.165 156.690737 
L 413.834267 171.286523 
L 414.503533 190.747571 
L 415.842067 219.939143 
L 416.511333 224.804405 
L 417.1806 210.208619 
L 417.849867 200.478095 
L 418.519133 200.478095 
L 419.1884 185.882309 
L 419.857667 176.151785 
L 420.526933 185.882309 
L 421.1962 200.478095 
L 421.865467 210.208619 
L 422.534733 205.343357 
L 423.204 195.612833 
L 424.542533 195.612833 
L 425.2118 185.882309 
L 425.881067 171.286523 
L 426.550333 176.151785 
L 427.2196 200.478095 
L 427.888867 215.073881 
L 428.558133 210.208619 
L 429.2274 200.478095 
L 429.896667 195.612833 
L 431.2352 176.151785 
L 431.904467 190.747571 
L 432.573733 210.208619 
L 433.243 219.939143 
L 433.912267 205.343357 
L 434.581533 185.882309 
L 436.589333 200.478095 
L 437.2586 200.478095 
L 437.927867 195.612833 
L 439.2664 205.343357 
L 439.935667 200.478095 
L 440.604933 190.747571 
L 441.2742 190.747571 
L 441.943467 205.343357 
L 442.612733 215.073881 
L 443.282 210.208619 
L 444.620533 171.286523 
L 445.2898 176.151785 
L 445.959067 190.747571 
L 446.628333 195.612833 
L 447.2976 195.612833 
L 447.966867 200.478095 
L 448.636133 200.478095 
L 449.974667 190.747571 
L 451.982467 190.747571 
L 453.321 210.208619 
L 453.990267 215.073881 
L 454.659533 215.073881 
L 455.998067 195.612833 
L 456.667333 195.612833 
L 458.005867 166.421261 
L 458.675133 171.286523 
L 459.3444 200.478095 
L 460.013667 224.804405 
L 460.682933 219.939143 
L 461.3522 200.478095 
L 462.021467 190.747571 
L 462.690733 195.612833 
L 463.36 185.882309 
L 464.029267 171.286523 
L 464.698533 166.421261 
L 465.3678 185.882309 
L 466.037067 210.208619 
L 466.706333 215.073881 
L 467.3756 200.478095 
L 468.044867 190.747571 
L 468.714133 195.612833 
L 470.721933 195.612833 
L 472.060467 205.343357 
L 473.399 195.612833 
L 474.068267 195.612833 
L 475.4068 205.343357 
L 476.076067 205.343357 
L 478.083867 190.747571 
L 479.4224 190.747571 
L 480.760933 210.208619 
L 481.4302 215.073881 
L 482.099467 215.073881 
L 482.768733 205.343357 
L 484.107267 195.612833 
L 486.115067 195.612833 
L 486.784333 190.747571 
L 487.4536 190.747571 
L 488.122867 195.612833 
L 488.792133 190.747571 
L 489.4614 181.017047 
L 490.130667 181.017047 
L 490.799933 200.478095 
L 491.4692 210.208619 
L 492.138467 210.208619 
L 492.807733 205.343357 
L 493.477 190.747571 
L 494.146267 190.747571 
L 494.815533 195.612833 
L 496.154067 215.073881 
L 496.823333 205.343357 
L 497.4926 190.747571 
L 498.161867 185.882309 
L 499.5004 195.612833 
L 500.169667 190.747571 
L 500.838933 195.612833 
L 501.5082 205.343357 
L 502.177467 205.343357 
L 502.846733 195.612833 
L 503.516 190.747571 
L 504.185267 195.612833 
L 506.193067 195.612833 
L 506.862333 190.747571 
L 507.5316 195.612833 
L 508.200867 205.343357 
L 508.870133 210.208619 
L 509.5394 205.343357 
L 510.208667 190.747571 
L 510.877933 190.747571 
L 512.216467 181.017047 
L 512.885733 190.747571 
L 513.555 205.343357 
L 514.224267 215.073881 
L 514.893533 210.208619 
L 515.5628 200.478095 
L 516.232067 195.612833 
L 516.901333 195.612833 
L 517.5706 200.478095 
L 518.909133 200.478095 
L 520.247667 190.747571 
L 521.5862 200.478095 
L 522.255467 200.478095 
L 522.924733 195.612833 
L 523.594 195.612833 
L 524.263267 190.747571 
L 525.6018 200.478095 
L 526.940333 200.478095 
L 527.6096 195.612833 
L 528.278867 200.478095 
L 529.6174 190.747571 
L 530.286667 195.612833 
L 530.955933 185.882309 
L 531.6252 181.017047 
L 532.963733 190.747571 
L 534.302267 210.208619 
L 535.6408 219.939143 
L 536.310067 210.208619 
L 536.979333 190.747571 
L 538.317867 171.286523 
L 538.987133 166.421261 
L 540.994933 181.017047 
L 541.6642 200.478095 
L 542.333467 215.073881 
L 543.002733 215.073881 
L 544.341267 205.343357 
L 545.010533 210.208619 
L 545.6798 205.343357 
L 546.349067 195.612833 
L 547.6876 185.882309 
L 548.356867 190.747571 
L 549.026133 190.747571 
L 549.6954 185.882309 
L 550.364667 185.882309 
L 551.033933 190.747571 
L 552.372467 219.939143 
L 553.041733 219.939143 
L 553.711 195.612833 
L 554.380267 176.151785 
L 555.049533 176.151785 
L 555.7188 181.017047 
L 556.388067 190.747571 
L 557.057333 185.882309 
L 557.7266 185.882309 
L 559.7344 200.478095 
L 560.403667 200.478095 
L 561.072933 210.208619 
L 561.7422 210.208619 
L 562.411467 200.478095 
L 563.080733 200.478095 
L 563.75 210.208619 
L 564.419267 210.208619 
L 565.7578 190.747571 
L 566.427067 190.747571 
L 567.096333 195.612833 
L 570.442667 195.612833 
L 571.7812 176.151785 
L 572.450467 176.151785 
L 573.119733 185.882309 
L 573.789 200.478095 
L 575.127533 200.478095 
L 575.7968 205.343357 
L 577.135333 195.612833 
L 577.8046 200.478095 
L 578.473867 200.478095 
L 579.143133 195.612833 
L 579.8124 195.612833 
L 581.150933 185.882309 
L 582.489467 195.612833 
L 583.828 215.073881 
L 584.497267 215.073881 
L 585.166533 210.208619 
L 585.8358 200.478095 
L 586.505067 200.478095 
L 587.8436 190.747571 
L 588.512867 195.612833 
L 589.8514 195.612833 
L 590.520667 200.478095 
L 591.189933 200.478095 
L 591.8592 190.747571 
L 592.528467 195.612833 
L 593.197733 195.612833 
L 593.867 190.747571 
L 595.205533 190.747571 
L 595.8748 215.073881 
L 596.544067 229.669667 
L 597.213333 229.669667 
L 597.8826 215.073881 
L 598.551867 195.612833 
L 599.8904 185.882309 
L 600.559667 185.882309 
L 601.228933 195.612833 
L 601.8982 200.478095 
L 602.567467 190.747571 
L 603.906 181.017047 
L 604.575267 181.017047 
L 605.244533 190.747571 
L 605.9138 195.612833 
L 606.583067 205.343357 
L 607.252333 210.208619 
L 607.9216 205.343357 
L 608.590867 195.612833 
L 609.260133 195.612833 
L 609.9294 200.478095 
L 610.598667 200.478095 
L 611.267933 195.612833 
L 613.275733 166.421261 
L 613.945 171.286523 
L 614.614267 190.747571 
L 615.283533 205.343357 
L 615.9528 200.478095 
L 619.9684 200.478095 
L 620.637667 190.747571 
L 621.9762 181.017047 
L 622.645467 185.882309 
L 623.314733 200.478095 
L 624.653267 200.478095 
L 625.322533 205.343357 
L 625.9918 195.612833 
L 626.661067 181.017047 
L 627.330333 171.286523 
L 627.9996 181.017047 
L 628.668867 185.882309 
L 629.338133 181.017047 
L 630.0074 185.882309 
L 631.345933 205.343357 
L 632.0152 205.343357 
L 632.684467 200.478095 
L 633.353733 200.478095 
L 634.692267 190.747571 
L 635.361533 195.612833 
L 637.369333 195.612833 
L 638.0386 200.478095 
L 638.707867 200.478095 
L 639.377133 185.882309 
L 640.0464 176.151785 
L 640.715667 185.882309 
L 641.384933 215.073881 
L 642.0542 234.534929 
L 642.723467 224.804405 
L 643.392733 195.612833 
L 644.062 171.286523 
L 644.731267 156.690737 
L 645.400533 161.555999 
L 646.0698 176.151785 
L 647.408333 176.151785 
L 648.0776 185.882309 
L 648.746867 200.478095 
L 649.416133 224.804405 
L 650.0854 239.400191 
L 650.754667 234.534929 
L 652.762467 234.534929 
L 654.101 224.804405 
L 654.770267 224.804405 
L 656.1088 205.343357 
L 656.778067 190.747571 
L 657.447333 181.017047 
L 658.1166 176.151785 
L 658.785867 176.151785 
L 659.455133 185.882309 
L 660.793667 195.612833 
L 662.1322 195.612833 
L 662.801467 200.478095 
L 663.470733 200.478095 
L 664.14 195.612833 
L 666.817067 195.612833 
L 667.486333 215.073881 
L 668.1556 229.669667 
L 668.824867 210.208619 
L 669.494133 181.017047 
L 670.1634 171.286523 
L 672.1712 200.478095 
L 672.840467 205.343357 
L 674.848267 205.343357 
L 676.856067 190.747571 
L 677.525333 176.151785 
L 678.1946 171.286523 
L 678.863867 190.747571 
L 679.533133 219.939143 
L 680.2024 224.804405 
L 680.871667 195.612833 
L 681.540933 176.151785 
L 682.879467 195.612833 
L 683.548733 181.017047 
L 684.218 171.286523 
L 684.887267 171.286523 
L 685.556533 181.017047 
L 686.2258 195.612833 
L 686.895067 205.343357 
L 687.564333 219.939143 
L 688.2336 219.939143 
L 689.572133 190.747571 
L 690.2414 200.478095 
L 690.910667 219.939143 
L 691.579933 219.939143 
L 692.918467 190.747571 
L 694.257 190.747571 
L 694.926267 185.882309 
L 696.2648 185.882309 
L 696.934067 195.612833 
L 698.2726 205.343357 
L 698.941867 219.939143 
L 699.611133 219.939143 
L 700.2804 205.343357 
L 700.949667 200.478095 
L 701.618933 205.343357 
L 702.2882 200.478095 
L 702.957467 181.017047 
L 703.626733 171.286523 
L 704.965267 190.747571 
L 705.634533 205.343357 
L 706.3038 210.208619 
L 706.973067 210.208619 
L 707.642333 200.478095 
L 708.3116 185.882309 
L 708.980867 185.882309 
L 710.3194 205.343357 
L 710.988667 210.208619 
L 711.657933 210.208619 
L 712.3272 195.612833 
L 712.996467 205.343357 
L 713.665733 229.669667 
L 714.335 229.669667 
L 715.004267 210.208619 
L 715.673533 195.612833 
L 716.3428 200.478095 
L 717.681333 229.669667 
L 718.3506 234.534929 
L 719.019867 229.669667 
L 719.689133 205.343357 
L 720.3584 185.882309 
L 722.3662 185.882309 
L 723.035467 200.478095 
L 723.704733 219.939143 
L 724.374 224.804405 
L 725.043267 219.939143 
L 726.3818 200.478095 
L 727.051067 195.612833 
L 728.3896 205.343357 
L 729.058867 219.939143 
L 729.728133 229.669667 
L 731.066667 210.208619 
L 731.735933 215.073881 
L 732.4052 229.669667 
L 733.074467 229.669667 
L 734.413 190.747571 
L 735.751533 200.478095 
L 736.4208 200.478095 
L 737.090067 210.208619 
L 737.759333 215.073881 
L 738.4286 210.208619 
L 739.097867 210.208619 
L 739.767133 215.073881 
L 740.4364 210.208619 
L 741.105667 200.478095 
L 742.4442 200.478095 
L 743.113467 195.612833 
L 743.782733 195.612833 
L 744.452 200.478095 
L 745.790533 219.939143 
L 746.4598 219.939143 
L 747.798333 210.208619 
L 748.4676 200.478095 
L 749.136867 195.612833 
L 750.4754 195.612833 
L 751.813933 205.343357 
L 752.4832 200.478095 
L 753.821733 200.478095 
L 754.491 215.073881 
M 787.954333 244.265453 
L 788.6236 263.726501 
L 789.292867 249.130715 
L 789.962133 215.073881 
L 790.6314 219.939143 
L 791.300667 234.534929 
L 791.969933 239.400191 
L 793.308467 239.400191 
L 793.977733 253.995977 
L 794.647 244.265453 
L 795.316267 229.669667 
L 796.6548 229.669667 
L 797.993333 219.939143 
L 798.6626 229.669667 
L 799.331867 249.130715 
L 800.001133 263.726501 
L 800.6704 249.130715 
L 801.339667 244.265453 
L 802.008933 258.861239 
L 802.6782 263.726501 
L 803.347467 244.265453 
L 804.016733 210.208619 
L 804.686 195.612833 
L 805.355267 215.073881 
L 806.024533 229.669667 
L 806.6938 224.804405 
L 808.032333 205.343357 
L 808.7016 215.073881 
L 809.370867 219.939143 
L 810.040133 215.073881 
L 810.7094 205.343357 
L 811.378667 200.478095 
L 812.047933 205.343357 
L 812.7172 215.073881 
L 813.386467 229.669667 
L 814.055733 234.534929 
L 814.725 229.669667 
L 815.394267 229.669667 
L 816.063533 239.400191 
L 816.7328 244.265453 
L 818.071333 205.343357 
L 819.409867 253.995977 
L 820.079133 253.995977 
L 821.417667 224.804405 
L 822.086933 229.669667 
L 822.7562 239.400191 
L 823.425467 253.995977 
L 824.094733 253.995977 
L 824.764 229.669667 
L 825.433267 215.073881 
L 826.7718 244.265453 
L 827.441067 244.265453 
L 828.110333 239.400191 
L 828.7796 224.804405 
L 829.448867 219.939143 
L 830.7874 239.400191 
L 831.456667 258.861239 
L 832.125933 263.726501 
L 832.7952 258.861239 
L 833.464467 249.130715 
L 834.133733 263.726501 
L 834.803 273.457026 
L 835.472267 258.861239 
L 836.8108 195.612833 
L 837.480067 219.939143 
L 838.149333 239.400191 
L 839.487867 249.130715 
L 840.8264 239.400191 
L 841.495667 244.265453 
L 842.8342 273.457026 
L 843.503467 263.726501 
L 844.172733 239.400191 
L 844.842 229.669667 
L 846.180533 249.130715 
L 846.8498 239.400191 
L 848.188333 210.208619 
L 848.8576 219.939143 
L 849.526867 239.400191 
L 850.196133 239.400191 
L 851.534667 219.939143 
L 852.8732 239.400191 
L 853.542467 244.265453 
L 854.211733 253.995977 
L 854.881 268.591764 
L 855.550267 263.726501 
L 856.219533 244.265453 
L 856.8888 234.534929 
L 859.565867 215.073881 
L 860.235133 205.343357 
L 860.9044 210.208619 
L 861.573667 234.534929 
L 862.9122 273.457026 
L 863.581467 273.457026 
L 864.250733 249.130715 
L 864.92 234.534929 
L 865.589267 234.534929 
L 866.258533 244.265453 
L 866.9278 239.400191 
L 867.597067 224.804405 
L 868.266333 215.073881 
L 868.9356 210.208619 
L 869.604867 219.939143 
L 870.274133 239.400191 
L 870.9434 253.995977 
L 872.281933 253.995977 
L 872.9512 249.130715 
L 873.620467 253.995977 
L 874.289733 253.995977 
L 874.959 234.534929 
L 875.628267 229.669667 
L 876.9668 239.400191 
L 878.305333 229.669667 
L 878.9746 234.534929 
L 879.643867 229.669667 
L 880.313133 229.669667 
L 880.9824 224.804405 
L 881.651667 224.804405 
L 882.320933 239.400191 
L 882.9902 239.400191 
L 884.998 224.804405 
L 885.667267 234.534929 
L 886.336533 258.861239 
L 887.0058 268.591764 
L 887.675067 253.995977 
L 888.344333 234.534929 
L 889.0136 239.400191 
L 889.682867 249.130715 
L 890.352133 239.400191 
L 891.0214 219.939143 
L 891.690667 219.939143 
L 892.359933 234.534929 
L 893.0292 244.265453 
L 894.367733 224.804405 
L 895.037 234.534929 
L 895.706267 234.534929 
L 896.375533 229.669667 
L 897.0448 215.073881 
L 897.714067 224.804405 
L 898.383333 253.995977 
L 899.0526 263.726501 
L 899.721867 258.861239 
L 901.0604 219.939143 
L 901.729667 215.073881 
L 903.0682 244.265453 
L 903.737467 253.995977 
L 904.406733 244.265453 
L 905.076 224.804405 
L 905.745267 229.669667 
L 906.414533 229.669667 
L 907.0838 244.265453 
L 907.753067 244.265453 
L 908.422333 229.669667 
L 909.0916 239.400191 
L 910.430133 249.130715 
L 911.0994 239.400191 
L 911.768667 224.804405 
L 913.1072 253.995977 
L 913.776467 244.265453 
L 914.445733 224.804405 
L 915.115 215.073881 
L 915.784267 229.669667 
L 916.453533 239.400191 
L 917.1228 234.534929 
L 917.792067 234.534929 
L 918.461333 229.669667 
L 919.799867 229.669667 
L 920.469133 224.804405 
L 921.1384 210.208619 
L 921.807667 200.478095 
L 923.1462 229.669667 
L 923.815467 234.534929 
L 924.484733 224.804405 
L 925.154 219.939143 
L 926.492533 229.669667 
L 927.1618 239.400191 
L 927.831067 239.400191 
L 928.500333 219.939143 
L 929.1696 215.073881 
L 930.508133 244.265453 
L 931.1774 249.130715 
L 931.846667 239.400191 
L 933.1852 210.208619 
L 933.854467 200.478095 
L 934.523733 200.478095 
L 935.193 229.669667 
L 935.862267 249.130715 
L 936.531533 239.400191 
L 937.2008 215.073881 
L 937.870067 205.343357 
L 938.539333 229.669667 
L 939.2086 239.400191 
L 939.877867 234.534929 
L 940.547133 234.534929 
L 941.885667 263.726501 
L 942.554933 253.995977 
L 943.2242 239.400191 
L 943.893467 253.995977 
L 944.562733 263.726501 
L 945.232 244.265453 
L 945.901267 229.669667 
L 946.570533 224.804405 
L 947.2398 234.534929 
L 947.909067 234.534929 
L 948.578333 239.400191 
L 949.2476 249.130715 
L 950.586133 229.669667 
L 951.2554 229.669667 
L 951.924667 239.400191 
L 952.593933 244.265453 
L 953.2632 244.265453 
L 953.932467 229.669667 
L 954.601733 229.669667 
L 955.271 244.265453 
L 955.940267 249.130715 
L 956.609533 234.534929 
L 957.2788 215.073881 
L 957.948067 210.208619 
L 958.617333 210.208619 
L 959.2866 205.343357 
L 959.955867 205.343357 
L 960.625133 229.669667 
L 961.2944 244.265453 
L 961.963667 234.534929 
L 962.632933 210.208619 
L 963.3022 200.478095 
L 963.971467 210.208619 
L 964.640733 229.669667 
L 965.31 234.534929 
L 966.648533 205.343357 
L 967.3178 210.208619 
L 967.987067 229.669667 
L 969.3256 249.130715 
L 970.664133 249.130715 
L 971.3334 244.265453 
L 972.002667 244.265453 
L 972.671933 249.130715 
L 973.3412 239.400191 
L 974.010467 244.265453 
L 974.679733 244.265453 
L 975.349 239.400191 
L 976.018267 224.804405 
L 976.687533 219.939143 
L 977.3568 244.265453 
L 978.026067 249.130715 
L 978.695333 234.534929 
L 979.3646 210.208619 
L 980.033867 200.478095 
L 980.703133 234.534929 
L 981.3724 258.861239 
L 982.041667 268.591764 
L 982.710933 253.995977 
L 983.3802 244.265453 
L 984.049467 249.130715 
L 984.718733 234.534929 
L 985.388 239.400191 
L 986.057267 234.534929 
L 988.065067 234.534929 
L 988.734333 249.130715 
L 989.4036 249.130715 
L 990.742133 239.400191 
L 991.4114 239.400191 
L 992.080667 229.669667 
L 992.749933 210.208619 
L 993.4192 215.073881 
L 994.088467 224.804405 
L 994.757733 224.804405 
L 995.427 215.073881 
L 996.096267 210.208619 
L 996.765533 229.669667 
L 997.4348 239.400191 
L 998.104067 234.534929 
L 998.773333 224.804405 
L 999.4426 210.208619 
L 1000.111867 210.208619 
L 1000.781133 219.939143 
L 1001.4504 224.804405 
L 1002.788933 224.804405 
L 1003.4582 219.939143 
L 1005.466 219.939143 
L 1006.135267 224.804405 
L 1006.804533 219.939143 
M 1038.260067 215.073881 
L 1038.929333 229.669667 
L 1039.5986 234.534929 
L 1040.267867 224.804405 
L 1040.937133 219.939143 
L 1041.6064 229.669667 
L 1042.275667 234.534929 
L 1042.944933 224.804405 
L 1043.6142 205.343357 
L 1044.283467 190.747571 
L 1044.952733 185.882309 
L 1045.622 185.882309 
L 1046.960533 215.073881 
L 1047.6298 224.804405 
L 1048.299067 224.804405 
L 1048.968333 219.939143 
L 1049.6376 224.804405 
L 1050.306867 239.400191 
L 1050.976133 258.861239 
L 1051.6454 258.861239 
L 1052.314667 239.400191 
L 1052.983933 215.073881 
L 1054.322467 224.804405 
L 1056.330267 195.612833 
L 1057.6688 205.343357 
L 1060.345867 205.343357 
L 1063.022933 224.804405 
L 1064.361467 224.804405 
L 1066.369267 195.612833 
L 1066.369267 195.612833 
" style="fill:none;opacity:0.4;stroke:#000000;stroke-linecap:square;stroke-width:1.5;"/>
   </g>
   <g id="patch_10">
    <path d="M 61.8 335.972132 
L 61.8 55.253534 
" style="fill:none;stroke:#000000;stroke-linecap:square;stroke-linejoin:miter;stroke-width:0.8;"/>
   </g>
   <g id="patch_11">
    <path d="M 1065.7 335.972132 
L 1065.7 55.253534 
" style="fill:none;stroke:#000000;stroke-linecap:square;stroke-linejoin:miter;stroke-width:0.8;"/>
   </g>
   <g id="patch_12">
    <path d="M 61.8 335.972132 
L 1065.7 335.972132 
" style="fill:none;stroke:#000000;stroke-linecap:square;stroke-linejoin:miter;stroke-width:0.8;"/>
   </g>
   <g id="patch_13">
    <path d="M 61.8 55.253534 
L 1065.7 55.253534 
" style="fill:none;stroke:#000000;stroke-linecap:square;stroke-linejoin:miter;stroke-width:0.8;"/>
   </g>
   <g id="text_10">
    <!-- Eye Movement -->
    <defs>
     <path d="M 9.8125 72.90625 
L 55.90625 72.90625 
L 55.90625 64.59375 
L 19.671875 64.59375 
L 19.671875 43.015625 
L 54.390625 43.015625 
L 54.390625 34.71875 
L 19.671875 34.71875 
L 19.671875 8.296875 
L 56.78125 8.296875 
L 56.78125 0 
L 9.8125 0 
z
" id="DejaVuSans-45"/>
     <path d="M 9.8125 72.90625 
L 24.515625 72.90625 
L 43.109375 23.296875 
L 61.8125 72.90625 
L 76.515625 72.90625 
L 76.515625 0 
L 66.890625 0 
L 66.890625 64.015625 
L 48.09375 14.015625 
L 38.1875 14.015625 
L 19.390625 64.015625 
L 19.390625 0 
L 9.8125 0 
z
" id="DejaVuSans-4d"/>
     <path d="M 2.984375 54.6875 
L 12.5 54.6875 
L 29.59375 8.796875 
L 46.6875 54.6875 
L 56.203125 54.6875 
L 35.6875 0 
L 23.484375 0 
z
" id="DejaVuSans-76"/>
     <path d="M 54.890625 33.015625 
L 54.890625 0 
L 45.90625 0 
L 45.90625 32.71875 
Q 45.90625 40.484375 42.875 44.328125 
Q 39.84375 48.1875 33.796875 48.1875 
Q 26.515625 48.1875 22.3125 43.546875 
Q 18.109375 38.921875 18.109375 30.90625 
L 18.109375 0 
L 9.078125 0 
L 9.078125 54.6875 
L 18.109375 54.6875 
L 18.109375 46.1875 
Q 21.34375 51.125 25.703125 53.5625 
Q 30.078125 56 35.796875 56 
Q 45.21875 56 50.046875 50.171875 
Q 54.890625 44.34375 54.890625 33.015625 
z
" id="DejaVuSans-6e"/>
    </defs>
    <g transform="translate(433.306641 35.217604)scale(0.35 -0.35)">
     <use xlink:href="#DejaVuSans-45"/>
     <use x="63.183594" xlink:href="#DejaVuSans-79"/>
     <use x="122.363281" xlink:href="#DejaVuSans-65"/>
     <use x="183.886719" xlink:href="#DejaVuSans-20"/>
     <use x="215.673828" xlink:href="#DejaVuSans-4d"/>
     <use x="301.953125" xlink:href="#DejaVuSans-6f"/>
     <use x="363.134766" xlink:href="#DejaVuSans-76"/>
     <use x="422.314453" xlink:href="#DejaVuSans-65"/>
     <use x="483.837891" xlink:href="#DejaVuSans-6d"/>
     <use x="581.25" xlink:href="#DejaVuSans-65"/>
     <use x="642.773438" xlink:href="#DejaVuSans-6e"/>
     <use x="706.152344" xlink:href="#DejaVuSans-74"/>
    </g>
   </g>
  </g>
  <g id="axes_2">
   <g id="patch_14">
    <path d="M 61.8 616.690729 
L 1065.7 616.690729 
L 1065.7 335.972132 
L 61.8 335.972132 
z
" style="fill:#ffffff;"/>
   </g>
   <g id="patch_15">
    <path clip-path="url(#pcb7bbd5ba0)" d="M -173.781867 616.690729 
L -173.781867 335.972132 
L -163.742867 335.972132 
L -163.742867 616.690729 
z
" style="opacity:0.15;stroke:#000000;stroke-linejoin:miter;"/>
   </g>
   <g id="patch_16">
    <path clip-path="url(#pcb7bbd5ba0)" d="M -52.6446 616.690729 
L -52.6446 335.972132 
L -28.551 335.972132 
L -28.551 616.690729 
z
" style="opacity:0.15;stroke:#000000;stroke-linejoin:miter;"/>
   </g>
   <g id="patch_17">
    <path clip-path="url(#pcb7bbd5ba0)" d="M 249.863933 616.690729 
L 249.863933 335.972132 
L 275.296067 335.972132 
L 275.296067 616.690729 
z
" style="opacity:0.15;stroke:#000000;stroke-linejoin:miter;"/>
   </g>
   <g id="patch_18">
    <path clip-path="url(#pcb7bbd5ba0)" d="M 401.787467 616.690729 
L 401.787467 335.972132 
L 411.826467 335.972132 
L 411.826467 616.690729 
z
" style="opacity:0.15;stroke:#000000;stroke-linejoin:miter;"/>
   </g>
   <g id="patch_19">
    <path clip-path="url(#pcb7bbd5ba0)" d="M 632.684467 616.690729 
L 632.684467 335.972132 
L 658.785867 335.972132 
L 658.785867 616.690729 
z
" style="opacity:0.15;stroke:#000000;stroke-linejoin:miter;"/>
   </g>
   <g id="patch_20">
    <path clip-path="url(#pcb7bbd5ba0)" d="M 833.464467 616.690729 
L 833.464467 335.972132 
L 848.188333 335.972132 
L 848.188333 616.690729 
z
" style="opacity:0.15;stroke:#000000;stroke-linejoin:miter;"/>
   </g>
   <g id="patch_21">
    <path clip-path="url(#pcb7bbd5ba0)" d="M 1009.4816 616.690729 
L 1009.4816 335.972132 
L 1024.874733 335.972132 
L 1024.874733 616.690729 
z
" style="opacity:0.15;stroke:#000000;stroke-linejoin:miter;"/>
   </g>
   <g id="patch_22">
    <path clip-path="url(#pcb7bbd5ba0)" d="M -174.451133 616.690729 
L -174.451133 335.972132 
L -147.680467 335.972132 
L -147.680467 616.690729 
z
" style="opacity:0.15;stroke:#000000;stroke-linejoin:miter;"/>
   </g>
   <g id="patch_23">
    <path clip-path="url(#pcb7bbd5ba0)" d="M -50.6368 616.690729 
L -50.6368 335.972132 
L -21.858333 335.972132 
L -21.858333 616.690729 
z
" style="opacity:0.15;stroke:#000000;stroke-linejoin:miter;"/>
   </g>
   <g id="patch_24">
    <path clip-path="url(#pcb7bbd5ba0)" d="M 251.202467 616.690729 
L 251.202467 335.972132 
L 288.012133 335.972132 
L 288.012133 616.690729 
z
" style="opacity:0.15;stroke:#000000;stroke-linejoin:miter;"/>
   </g>
   <g id="patch_25">
    <path clip-path="url(#pcb7bbd5ba0)" d="M -196.536933 616.690729 
L -196.536933 335.972132 
L 362.97 335.972132 
L 362.97 616.690729 
z
" style="opacity:0.2;stroke:#000000;stroke-linejoin:miter;"/>
   </g>
   <g id="patch_26">
    <path clip-path="url(#pcb7bbd5ba0)" d="M 362.97 616.690729 
L 362.97 335.972132 
L 563.75 335.972132 
L 563.75 616.690729 
z
" style="fill:#ff0000;opacity:0.2;stroke:#ff0000;stroke-linejoin:miter;"/>
   </g>
   <g id="patch_27">
    <path clip-path="url(#pcb7bbd5ba0)" d="M 563.75 616.690729 
L 563.75 335.972132 
L 1087.116533 335.972132 
L 1087.116533 616.690729 
z
" style="opacity:0.15;stroke:#000000;stroke-linejoin:miter;"/>
   </g>
   <g id="matplotlib.axis_3">
    <g id="xtick_8">
     <g id="line2d_16">
      <g>
       <use style="stroke:#000000;stroke-width:0.8;" x="162.19" xlink:href="#m532eb4f772" y="616.690729"/>
      </g>
     </g>
     <g id="text_11">
      <!-- −600 -->
      <defs>
       <path d="M 33.015625 40.375 
Q 26.375 40.375 22.484375 35.828125 
Q 18.609375 31.296875 18.609375 23.390625 
Q 18.609375 15.53125 22.484375 10.953125 
Q 26.375 6.390625 33.015625 6.390625 
Q 39.65625 6.390625 43.53125 10.953125 
Q 47.40625 15.53125 47.40625 23.390625 
Q 47.40625 31.296875 43.53125 35.828125 
Q 39.65625 40.375 33.015625 40.375 
z
M 52.59375 71.296875 
L 52.59375 62.3125 
Q 48.875 64.0625 45.09375 64.984375 
Q 41.3125 65.921875 37.59375 65.921875 
Q 27.828125 65.921875 22.671875 59.328125 
Q 17.53125 52.734375 16.796875 39.40625 
Q 19.671875 43.65625 24.015625 45.921875 
Q 28.375 48.1875 33.59375 48.1875 
Q 44.578125 48.1875 50.953125 41.515625 
Q 57.328125 34.859375 57.328125 23.390625 
Q 57.328125 12.15625 50.6875 5.359375 
Q 44.046875 -1.421875 33.015625 -1.421875 
Q 20.359375 -1.421875 13.671875 8.265625 
Q 6.984375 17.96875 6.984375 36.375 
Q 6.984375 53.65625 15.1875 63.9375 
Q 23.390625 74.21875 37.203125 74.21875 
Q 40.921875 74.21875 44.703125 73.484375 
Q 48.484375 72.75 52.59375 71.296875 
z
" id="DejaVuSans-36"/>
      </defs>
      <g transform="translate(148.456406 631.289167)scale(0.1 -0.1)">
       <use xlink:href="#DejaVuSans-2212"/>
       <use x="83.789062" xlink:href="#DejaVuSans-36"/>
       <use x="147.412109" xlink:href="#DejaVuSans-30"/>
       <use x="211.035156" xlink:href="#DejaVuSans-30"/>
      </g>
     </g>
    </g>
    <g id="xtick_9">
     <g id="line2d_17">
      <g>
       <use style="stroke:#000000;stroke-width:0.8;" x="296.043333" xlink:href="#m532eb4f772" y="616.690729"/>
      </g>
     </g>
     <g id="text_12">
      <!-- −400 -->
      <defs>
       <path d="M 37.796875 64.3125 
L 12.890625 25.390625 
L 37.796875 25.390625 
z
M 35.203125 72.90625 
L 47.609375 72.90625 
L 47.609375 25.390625 
L 58.015625 25.390625 
L 58.015625 17.1875 
L 47.609375 17.1875 
L 47.609375 0 
L 37.796875 0 
L 37.796875 17.1875 
L 4.890625 17.1875 
L 4.890625 26.703125 
z
" id="DejaVuSans-34"/>
      </defs>
      <g transform="translate(282.30974 631.289167)scale(0.1 -0.1)">
       <use xlink:href="#DejaVuSans-2212"/>
       <use x="83.789062" xlink:href="#DejaVuSans-34"/>
       <use x="147.412109" xlink:href="#DejaVuSans-30"/>
       <use x="211.035156" xlink:href="#DejaVuSans-30"/>
      </g>
     </g>
    </g>
    <g id="xtick_10">
     <g id="line2d_18">
      <g>
       <use style="stroke:#000000;stroke-width:0.8;" x="429.896667" xlink:href="#m532eb4f772" y="616.690729"/>
      </g>
     </g>
     <g id="text_13">
      <!-- −200 -->
      <g transform="translate(416.163073 631.289167)scale(0.1 -0.1)">
       <use xlink:href="#DejaVuSans-2212"/>
       <use x="83.789062" xlink:href="#DejaVuSans-32"/>
       <use x="147.412109" xlink:href="#DejaVuSans-30"/>
       <use x="211.035156" xlink:href="#DejaVuSans-30"/>
      </g>
     </g>
    </g>
    <g id="xtick_11">
     <g id="line2d_19">
      <g>
       <use style="stroke:#000000;stroke-width:0.8;" x="563.75" xlink:href="#m532eb4f772" y="616.690729"/>
      </g>
     </g>
     <g id="text_14">
      <!-- 0 -->
      <g transform="translate(560.56875 631.289167)scale(0.1 -0.1)">
       <use xlink:href="#DejaVuSans-30"/>
      </g>
     </g>
    </g>
    <g id="xtick_12">
     <g id="line2d_20">
      <g>
       <use style="stroke:#000000;stroke-width:0.8;" x="697.603333" xlink:href="#m532eb4f772" y="616.690729"/>
      </g>
     </g>
     <g id="text_15">
      <!-- 200 -->
      <g transform="translate(688.059583 631.289167)scale(0.1 -0.1)">
       <use xlink:href="#DejaVuSans-32"/>
       <use x="63.623047" xlink:href="#DejaVuSans-30"/>
       <use x="127.246094" xlink:href="#DejaVuSans-30"/>
      </g>
     </g>
    </g>
    <g id="xtick_13">
     <g id="line2d_21">
      <g>
       <use style="stroke:#000000;stroke-width:0.8;" x="831.456667" xlink:href="#m532eb4f772" y="616.690729"/>
      </g>
     </g>
     <g id="text_16">
      <!-- 400 -->
      <g transform="translate(821.912917 631.289167)scale(0.1 -0.1)">
       <use xlink:href="#DejaVuSans-34"/>
       <use x="63.623047" xlink:href="#DejaVuSans-30"/>
       <use x="127.246094" xlink:href="#DejaVuSans-30"/>
      </g>
     </g>
    </g>
    <g id="xtick_14">
     <g id="line2d_22">
      <g>
       <use style="stroke:#000000;stroke-width:0.8;" x="965.31" xlink:href="#m532eb4f772" y="616.690729"/>
      </g>
     </g>
     <g id="text_17">
      <!-- 600 -->
      <g transform="translate(955.76625 631.289167)scale(0.1 -0.1)">
       <use xlink:href="#DejaVuSans-36"/>
       <use x="63.623047" xlink:href="#DejaVuSans-30"/>
       <use x="127.246094" xlink:href="#DejaVuSans-30"/>
      </g>
     </g>
    </g>
    <g id="text_18">
     <!-- Time (ms) -->
     <g transform="translate(513.04375 652.565729)scale(0.2 -0.2)">
      <use xlink:href="#DejaVuSans-54"/>
      <use x="61.037109" xlink:href="#DejaVuSans-69"/>
      <use x="88.820312" xlink:href="#DejaVuSans-6d"/>
      <use x="186.232422" xlink:href="#DejaVuSans-65"/>
      <use x="247.755859" xlink:href="#DejaVuSans-20"/>
      <use x="279.542969" xlink:href="#DejaVuSans-28"/>
      <use x="318.556641" xlink:href="#DejaVuSans-6d"/>
      <use x="415.96875" xlink:href="#DejaVuSans-73"/>
      <use x="468.068359" xlink:href="#DejaVuSans-29"/>
     </g>
    </g>
   </g>
   <g id="matplotlib.axis_4">
    <g id="ytick_8">
     <g id="line2d_23">
      <g>
       <use style="stroke:#000000;stroke-width:0.8;" x="61.8" xlink:href="#m54c2986c2a" y="582.93343"/>
      </g>
     </g>
     <g id="text_19">
      <!-- −30 -->
      <g transform="translate(33.695312 586.732648)scale(0.1 -0.1)">
       <use xlink:href="#DejaVuSans-2212"/>
       <use x="83.789062" xlink:href="#DejaVuSans-33"/>
       <use x="147.412109" xlink:href="#DejaVuSans-30"/>
      </g>
     </g>
    </g>
    <g id="ytick_9">
     <g id="line2d_24">
      <g>
       <use style="stroke:#000000;stroke-width:0.8;" x="61.8" xlink:href="#m54c2986c2a" y="547.39943"/>
      </g>
     </g>
     <g id="text_20">
      <!-- −20 -->
      <g transform="translate(33.695312 551.198649)scale(0.1 -0.1)">
       <use xlink:href="#DejaVuSans-2212"/>
       <use x="83.789062" xlink:href="#DejaVuSans-32"/>
       <use x="147.412109" xlink:href="#DejaVuSans-30"/>
      </g>
     </g>
    </g>
    <g id="ytick_10">
     <g id="line2d_25">
      <g>
       <use style="stroke:#000000;stroke-width:0.8;" x="61.8" xlink:href="#m54c2986c2a" y="511.86543"/>
      </g>
     </g>
     <g id="text_21">
      <!-- −10 -->
      <g transform="translate(33.695312 515.664649)scale(0.1 -0.1)">
       <use xlink:href="#DejaVuSans-2212"/>
       <use x="83.789062" xlink:href="#DejaVuSans-31"/>
       <use x="147.412109" xlink:href="#DejaVuSans-30"/>
      </g>
     </g>
    </g>
    <g id="ytick_11">
     <g id="line2d_26">
      <g>
       <use style="stroke:#000000;stroke-width:0.8;" x="61.8" xlink:href="#m54c2986c2a" y="476.33143"/>
      </g>
     </g>
     <g id="text_22">
      <!-- 0 -->
      <g transform="translate(48.4375 480.130649)scale(0.1 -0.1)">
       <use xlink:href="#DejaVuSans-30"/>
      </g>
     </g>
    </g>
    <g id="ytick_12">
     <g id="line2d_27">
      <g>
       <use style="stroke:#000000;stroke-width:0.8;" x="61.8" xlink:href="#m54c2986c2a" y="440.797431"/>
      </g>
     </g>
     <g id="text_23">
      <!-- 10 -->
      <g transform="translate(42.075 444.59665)scale(0.1 -0.1)">
       <use xlink:href="#DejaVuSans-31"/>
       <use x="63.623047" xlink:href="#DejaVuSans-30"/>
      </g>
     </g>
    </g>
    <g id="ytick_13">
     <g id="line2d_28">
      <g>
       <use style="stroke:#000000;stroke-width:0.8;" x="61.8" xlink:href="#m54c2986c2a" y="405.263431"/>
      </g>
     </g>
     <g id="text_24">
      <!-- 20 -->
      <g transform="translate(42.075 409.06265)scale(0.1 -0.1)">
       <use xlink:href="#DejaVuSans-32"/>
       <use x="63.623047" xlink:href="#DejaVuSans-30"/>
      </g>
     </g>
    </g>
    <g id="ytick_14">
     <g id="line2d_29">
      <g>
       <use style="stroke:#000000;stroke-width:0.8;" x="61.8" xlink:href="#m54c2986c2a" y="369.729431"/>
      </g>
     </g>
     <g id="text_25">
      <!-- 30 -->
      <g transform="translate(42.075 373.52865)scale(0.1 -0.1)">
       <use xlink:href="#DejaVuSans-33"/>
       <use x="63.623047" xlink:href="#DejaVuSans-30"/>
      </g>
     </g>
    </g>
   </g>
   <g id="line2d_30">
    <path clip-path="url(#pcb7bbd5ba0)" d="M 61.130733 471.466168 
L 61.8 486.061955 
L 63.138533 476.33143 
L 64.477067 495.792479 
L 65.146333 486.061955 
L 65.8156 471.466168 
L 66.484867 466.600906 
L 67.154133 471.466168 
L 67.8234 471.466168 
L 69.161933 461.735644 
L 70.500467 520.118789 
L 71.169733 515.253527 
L 71.839 486.061955 
L 72.508267 452.00512 
L 73.177533 452.00512 
L 74.516067 481.196693 
L 75.185333 486.061955 
L 76.523867 466.600906 
L 77.193133 471.466168 
L 77.8624 486.061955 
L 78.531667 495.792479 
L 79.200933 495.792479 
L 80.539467 486.061955 
L 81.878 456.870382 
L 82.547267 456.870382 
L 83.8858 476.33143 
L 84.555067 490.927217 
L 85.224333 500.657741 
L 85.8936 495.792479 
L 86.562867 486.061955 
L 87.232133 481.196693 
L 87.9014 481.196693 
L 88.570667 476.33143 
L 93.255533 476.33143 
L 94.594067 486.061955 
L 95.263333 486.061955 
L 95.9326 481.196693 
L 97.271133 481.196693 
L 97.9404 476.33143 
L 99.278933 476.33143 
L 99.9482 481.196693 
L 100.617467 481.196693 
L 101.286733 476.33143 
L 101.956 476.33143 
L 102.625267 471.466168 
L 105.302333 471.466168 
L 105.9716 466.600906 
L 107.310133 447.139858 
L 107.9794 456.870382 
L 108.648667 471.466168 
L 109.9872 471.466168 
L 110.656467 476.33143 
L 111.325733 486.061955 
L 111.995 490.927217 
L 112.664267 490.927217 
L 113.333533 486.061955 
L 114.0028 476.33143 
L 115.341333 447.139858 
L 116.0106 466.600906 
L 116.679867 490.927217 
L 117.349133 500.657741 
L 118.0184 490.927217 
L 118.687667 471.466168 
L 119.356933 466.600906 
L 120.0262 476.33143 
L 120.695467 490.927217 
L 121.364733 481.196693 
L 122.034 461.735644 
L 122.703267 456.870382 
L 124.0418 486.061955 
L 124.711067 481.196693 
L 125.380333 471.466168 
L 126.0496 466.600906 
L 126.718867 476.33143 
L 127.388133 481.196693 
L 128.0574 481.196693 
L 128.726667 486.061955 
L 129.395933 481.196693 
L 131.403733 481.196693 
L 132.073 486.061955 
L 132.742267 481.196693 
L 134.0808 481.196693 
L 136.757867 461.735644 
L 137.427133 461.735644 
L 139.434933 490.927217 
L 140.1042 490.927217 
L 143.450533 466.600906 
L 144.1198 471.466168 
L 144.789067 481.196693 
L 145.458333 481.196693 
L 146.796867 500.657741 
L 147.466133 486.061955 
L 148.1354 461.735644 
L 148.804667 447.139858 
L 149.473933 461.735644 
L 150.1432 486.061955 
L 150.812467 495.792479 
L 152.151 476.33143 
L 153.489533 476.33143 
L 154.1588 481.196693 
L 155.497333 481.196693 
L 156.835867 452.00512 
L 157.505133 456.870382 
L 158.1744 466.600906 
L 158.843667 471.466168 
L 159.512933 471.466168 
L 160.851467 490.927217 
L 161.520733 495.792479 
L 162.859267 486.061955 
L 164.1978 495.792479 
L 164.867067 490.927217 
L 165.536333 481.196693 
L 166.2056 481.196693 
L 166.874867 490.927217 
L 167.544133 495.792479 
L 168.2134 495.792479 
L 168.882667 490.927217 
L 170.2212 471.466168 
L 170.890467 471.466168 
L 171.559733 476.33143 
L 172.229 476.33143 
L 173.567533 456.870382 
L 174.2368 471.466168 
L 174.906067 490.927217 
L 175.575333 495.792479 
L 176.2446 486.061955 
L 176.913867 481.196693 
L 177.583133 481.196693 
L 178.2524 476.33143 
L 178.921667 476.33143 
L 179.590933 481.196693 
L 180.2602 481.196693 
L 180.929467 471.466168 
L 182.937267 456.870382 
L 184.2758 456.870382 
L 185.614333 466.600906 
L 186.2836 476.33143 
L 186.952867 490.927217 
L 187.622133 490.927217 
L 188.2914 481.196693 
L 188.960667 476.33143 
L 189.629933 476.33143 
L 192.307 456.870382 
L 194.3148 471.466168 
L 195.653333 471.466168 
L 196.991867 490.927217 
L 197.661133 495.792479 
L 198.3304 490.927217 
L 198.999667 481.196693 
L 199.668933 476.33143 
L 200.3382 476.33143 
L 201.676733 466.600906 
L 203.015267 476.33143 
L 204.3538 456.870382 
L 205.023067 456.870382 
L 206.3616 486.061955 
L 207.700133 486.061955 
L 208.3694 490.927217 
L 209.038667 490.927217 
L 209.707933 486.061955 
L 210.3772 490.927217 
L 211.046467 486.061955 
L 211.715733 476.33143 
L 213.054267 466.600906 
L 214.3928 466.600906 
L 215.062067 471.466168 
L 216.4006 461.735644 
L 217.069867 466.600906 
L 217.739133 476.33143 
L 218.4084 490.927217 
L 219.077667 486.061955 
L 219.746933 476.33143 
L 220.4162 476.33143 
L 221.085467 481.196693 
L 221.754733 495.792479 
L 222.424 500.657741 
L 223.093267 490.927217 
L 223.762533 476.33143 
L 224.4318 471.466168 
L 225.770333 481.196693 
L 226.4396 471.466168 
L 227.108867 456.870382 
L 227.778133 452.00512 
L 228.4474 466.600906 
L 229.116667 490.927217 
L 229.785933 490.927217 
L 231.793733 476.33143 
L 233.132267 486.061955 
L 233.801533 481.196693 
L 235.809333 481.196693 
L 237.147867 461.735644 
L 237.817133 461.735644 
L 238.4864 466.600906 
L 239.155667 481.196693 
L 240.4942 481.196693 
L 242.502 495.792479 
L 243.171267 490.927217 
L 244.5098 490.927217 
L 245.848333 471.466168 
M 298.051133 452.00512 
L 298.7204 447.139858 
L 299.389667 452.00512 
L 300.058933 471.466168 
L 300.7282 486.061955 
L 302.066733 486.061955 
L 302.736 490.927217 
L 304.074533 490.927217 
L 304.7438 486.061955 
L 305.413067 471.466168 
L 306.082333 471.466168 
L 306.7516 476.33143 
L 308.090133 466.600906 
L 308.7594 466.600906 
L 309.428667 471.466168 
L 310.097933 481.196693 
L 311.436467 481.196693 
L 312.105733 486.061955 
L 312.775 486.061955 
L 314.113533 476.33143 
L 314.7828 476.33143 
L 315.452067 471.466168 
L 316.121333 471.466168 
L 316.7906 476.33143 
L 318.129133 476.33143 
L 318.7984 481.196693 
L 319.467667 481.196693 
L 320.136933 466.600906 
L 320.8062 461.735644 
L 322.144733 481.196693 
L 322.814 481.196693 
L 323.483267 471.466168 
L 324.152533 466.600906 
L 325.491067 476.33143 
L 326.160333 476.33143 
L 328.8374 495.792479 
L 329.506667 490.927217 
L 330.175933 471.466168 
L 330.8452 456.870382 
L 331.514467 456.870382 
L 332.853 476.33143 
L 333.522267 476.33143 
L 334.191533 471.466168 
L 334.8608 471.466168 
L 335.530067 481.196693 
L 336.199333 486.061955 
L 337.537867 456.870382 
L 338.207133 461.735644 
L 338.8764 481.196693 
L 339.545667 495.792479 
L 340.8842 486.061955 
L 341.553467 486.061955 
L 342.222733 481.196693 
L 342.892 481.196693 
L 344.230533 490.927217 
L 344.8998 490.927217 
L 345.569067 481.196693 
L 346.9076 471.466168 
L 348.246133 481.196693 
L 348.9154 476.33143 
L 349.584667 481.196693 
L 350.9232 481.196693 
L 351.592467 486.061955 
L 352.261733 500.657741 
L 352.931 510.388265 
L 353.600267 505.523003 
L 354.269533 476.33143 
L 354.9388 442.274596 
L 355.608067 447.139858 
L 356.277333 481.196693 
L 356.9466 505.523003 
L 358.285133 476.33143 
L 362.300733 476.33143 
L 362.97 471.466168 
L 363.639267 481.196693 
L 364.308533 495.792479 
L 364.9778 495.792479 
L 365.647067 481.196693 
L 366.316333 471.466168 
L 367.654867 481.196693 
L 368.9934 481.196693 
L 369.662667 476.33143 
L 370.331933 466.600906 
L 371.0012 461.735644 
L 371.670467 466.600906 
L 372.339733 466.600906 
L 373.009 461.735644 
L 374.347533 510.388265 
L 375.0168 510.388265 
L 375.686067 481.196693 
L 376.355333 461.735644 
L 377.0246 466.600906 
L 377.693867 476.33143 
L 379.0324 476.33143 
L 379.701667 486.061955 
L 380.370933 481.196693 
L 381.0402 481.196693 
L 381.709467 486.061955 
L 383.048 476.33143 
L 385.0558 490.927217 
L 385.725067 490.927217 
L 386.394333 481.196693 
L 387.0636 476.33143 
L 387.732867 466.600906 
L 388.402133 461.735644 
L 389.0714 471.466168 
L 389.740667 471.466168 
L 390.409933 476.33143 
L 391.0792 486.061955 
L 391.748467 486.061955 
L 392.417733 481.196693 
L 393.087 471.466168 
L 393.756267 466.600906 
L 394.425533 471.466168 
L 395.764067 471.466168 
L 396.433333 490.927217 
L 397.1026 505.523003 
L 397.771867 505.523003 
M 421.865467 622.289292 
L 422.534733 646.615602 
L 423.204 641.75034 
L 423.873267 602.828244 
L 424.542533 583.367195 
L 425.2118 588.232457 
L 425.881067 559.040885 
L 426.550333 510.388265 
L 427.2196 476.33143 
L 427.888867 461.735644 
L 428.558133 461.735644 
L 429.2274 442.274596 
L 429.896667 408.217762 
L 430.565933 393.621976 
L 431.2352 408.217762 
L 431.904467 427.67881 
L 433.912267 442.274596 
L 435.2508 442.274596 
L 436.589333 505.523003 
L 437.2586 500.657741 
L 437.927867 476.33143 
L 438.597133 456.870382 
L 439.2664 471.466168 
L 439.935667 481.196693 
L 440.604933 476.33143 
L 442.612733 476.33143 
L 443.282 481.196693 
L 444.620533 500.657741 
L 445.959067 500.657741 
L 446.628333 505.523003 
L 447.2976 505.523003 
L 448.636133 476.33143 
L 449.974667 456.870382 
L 450.643933 461.735644 
L 451.3132 486.061955 
L 451.982467 500.657741 
L 453.321 481.196693 
L 454.659533 481.196693 
L 455.3288 476.33143 
L 456.667333 486.061955 
L 457.3366 486.061955 
L 458.005867 476.33143 
L 458.675133 471.466168 
L 459.3444 476.33143 
L 460.013667 486.061955 
L 460.682933 490.927217 
L 461.3522 481.196693 
L 462.021467 481.196693 
L 463.36 490.927217 
L 464.029267 490.927217 
L 464.698533 486.061955 
L 466.037067 486.061955 
L 466.706333 481.196693 
L 467.3756 471.466168 
L 469.3834 471.466168 
L 470.052667 476.33143 
L 470.721933 476.33143 
L 471.3912 471.466168 
L 473.399 471.466168 
L 474.737533 481.196693 
L 475.4068 481.196693 
L 477.4146 466.600906 
L 478.753133 466.600906 
L 479.4224 471.466168 
L 480.760933 471.466168 
L 481.4302 481.196693 
L 482.099467 481.196693 
L 482.768733 476.33143 
L 484.107267 486.061955 
L 484.776533 481.196693 
L 485.4458 490.927217 
L 486.115067 510.388265 
L 486.784333 515.253527 
L 487.4536 500.657741 
L 488.122867 476.33143 
L 488.792133 461.735644 
L 489.4614 461.735644 
L 490.130667 466.600906 
L 490.799933 466.600906 
L 491.4692 471.466168 
L 492.807733 461.735644 
L 493.477 461.735644 
L 494.146267 471.466168 
L 494.815533 490.927217 
L 495.4848 495.792479 
L 496.154067 495.792479 
L 496.823333 505.523003 
L 497.4926 510.388265 
L 498.161867 510.388265 
L 499.5004 490.927217 
L 501.5082 490.927217 
L 502.177467 486.061955 
L 503.516 466.600906 
L 504.185267 471.466168 
L 504.854533 505.523003 
L 505.5238 529.849313 
L 506.193067 529.849313 
L 506.862333 505.523003 
L 507.5316 476.33143 
L 508.200867 481.196693 
L 508.870133 481.196693 
L 509.5394 486.061955 
L 510.208667 495.792479 
L 511.5472 476.33143 
L 512.216467 481.196693 
L 512.885733 481.196693 
L 513.555 476.33143 
L 514.224267 481.196693 
L 514.893533 481.196693 
L 516.232067 452.00512 
L 516.901333 461.735644 
L 517.5706 481.196693 
L 518.239867 486.061955 
L 519.5784 476.33143 
L 520.247667 486.061955 
L 522.255467 500.657741 
L 524.932533 461.735644 
L 525.6018 456.870382 
L 526.271067 471.466168 
L 526.940333 481.196693 
L 527.6096 476.33143 
L 528.278867 476.33143 
L 529.6174 495.792479 
L 530.286667 500.657741 
L 530.955933 495.792479 
L 531.6252 481.196693 
L 532.294467 476.33143 
L 532.963733 481.196693 
L 533.633 481.196693 
L 534.302267 476.33143 
L 534.971533 481.196693 
L 535.6408 481.196693 
L 536.979333 471.466168 
L 537.6486 471.466168 
L 538.317867 476.33143 
L 538.987133 476.33143 
L 539.6564 471.466168 
L 540.994933 471.466168 
L 541.6642 476.33143 
L 542.333467 490.927217 
L 543.002733 490.927217 
L 544.341267 471.466168 
L 545.010533 471.466168 
L 545.6798 476.33143 
L 547.018333 476.33143 
L 548.356867 486.061955 
L 549.026133 476.33143 
L 549.6954 461.735644 
L 550.364667 456.870382 
L 551.7032 476.33143 
L 552.372467 476.33143 
L 553.711 456.870382 
L 555.049533 466.600906 
L 555.7188 466.600906 
L 557.057333 456.870382 
L 557.7266 456.870382 
L 558.395867 461.735644 
L 559.065133 471.466168 
L 559.7344 471.466168 
L 561.072933 481.196693 
L 561.7422 481.196693 
L 562.411467 490.927217 
L 563.080733 490.927217 
L 563.75 481.196693 
L 564.419267 476.33143 
L 565.088533 476.33143 
L 565.7578 471.466168 
L 566.427067 471.466168 
L 567.096333 476.33143 
L 567.7656 476.33143 
L 568.434867 471.466168 
L 569.104133 471.466168 
L 569.7734 476.33143 
L 570.442667 476.33143 
L 571.111933 481.196693 
L 571.7812 476.33143 
L 572.450467 466.600906 
L 573.119733 466.600906 
L 573.789 481.196693 
L 575.127533 500.657741 
L 575.7968 505.523003 
L 576.466067 486.061955 
L 577.8046 456.870382 
L 578.473867 452.00512 
L 579.143133 461.735644 
L 579.8124 481.196693 
L 580.481667 495.792479 
L 581.150933 481.196693 
L 581.8202 461.735644 
L 582.489467 461.735644 
L 584.497267 476.33143 
L 585.166533 486.061955 
L 585.8358 505.523003 
L 586.505067 510.388265 
L 587.8436 461.735644 
L 588.512867 452.00512 
L 589.182133 461.735644 
L 589.8514 490.927217 
L 590.520667 500.657741 
L 591.189933 490.927217 
L 591.8592 476.33143 
L 592.528467 466.600906 
L 593.197733 476.33143 
L 593.867 476.33143 
L 594.536267 461.735644 
L 595.205533 461.735644 
L 595.8748 471.466168 
L 597.213333 481.196693 
L 597.8826 490.927217 
L 598.551867 481.196693 
L 599.221133 461.735644 
L 599.8904 466.600906 
L 600.559667 486.061955 
L 601.228933 495.792479 
L 602.567467 476.33143 
L 603.906 486.061955 
L 604.575267 486.061955 
L 605.9138 466.600906 
L 607.252333 466.600906 
L 607.9216 461.735644 
L 608.590867 466.600906 
L 609.260133 486.061955 
L 609.9294 495.792479 
L 611.267933 476.33143 
L 611.9372 481.196693 
L 613.275733 500.657741 
L 613.945 495.792479 
L 614.614267 471.466168 
L 615.283533 461.735644 
L 615.9528 471.466168 
L 616.622067 495.792479 
L 617.291333 510.388265 
L 617.9606 505.523003 
L 619.299133 476.33143 
L 620.637667 476.33143 
L 621.306933 471.466168 
L 623.314733 471.466168 
L 623.984 481.196693 
L 624.653267 481.196693 
L 625.9918 490.927217 
L 626.661067 490.927217 
L 627.330333 486.061955 
L 627.9996 476.33143 
L 628.668867 471.466168 
M 668.824867 495.792479 
L 669.494133 490.927217 
L 670.1634 490.927217 
L 670.832667 486.061955 
L 671.501933 476.33143 
L 672.840467 466.600906 
L 673.509733 471.466168 
L 674.179 481.196693 
L 674.848267 486.061955 
L 677.525333 524.984051 
L 678.1946 539.579837 
L 678.863867 544.445099 
L 679.533133 524.984051 
L 680.2024 510.388265 
L 680.871667 500.657741 
L 681.540933 495.792479 
L 682.2102 495.792479 
L 682.879467 486.061955 
L 683.548733 495.792479 
L 684.218 515.253527 
L 684.887267 524.984051 
L 685.556533 515.253527 
L 686.2258 500.657741 
L 686.895067 495.792479 
L 687.564333 500.657741 
L 688.2336 510.388265 
L 688.902867 500.657741 
L 690.2414 471.466168 
L 691.579933 490.927217 
L 692.2492 490.927217 
L 692.918467 486.061955 
L 693.587733 476.33143 
L 694.257 486.061955 
L 694.926267 500.657741 
L 695.595533 520.118789 
L 696.2648 529.849313 
L 696.934067 515.253527 
L 697.603333 490.927217 
L 698.2726 476.33143 
L 699.611133 495.792479 
L 700.2804 495.792479 
L 700.949667 500.657741 
L 701.618933 500.657741 
L 702.2882 495.792479 
L 703.626733 495.792479 
L 704.296 490.927217 
L 705.634533 520.118789 
L 706.3038 520.118789 
L 706.973067 515.253527 
L 707.642333 505.523003 
L 710.3194 524.984051 
L 711.657933 495.792479 
L 712.3272 510.388265 
L 712.996467 510.388265 
L 713.665733 505.523003 
L 714.335 510.388265 
L 715.004267 500.657741 
L 716.3428 500.657741 
L 717.681333 510.388265 
L 718.3506 510.388265 
L 719.689133 520.118789 
L 720.3584 529.849313 
L 721.027667 524.984051 
L 721.696933 510.388265 
L 722.3662 505.523003 
L 723.035467 510.388265 
L 723.704733 505.523003 
L 724.374 510.388265 
L 725.043267 529.849313 
L 725.712533 539.579837 
L 727.051067 529.849313 
L 727.720333 520.118789 
L 728.3896 515.253527 
L 729.058867 515.253527 
L 729.728133 510.388265 
L 730.3974 510.388265 
L 731.066667 505.523003 
L 731.735933 495.792479 
L 732.4052 500.657741 
L 733.074467 534.714575 
L 733.743733 554.175623 
L 734.413 549.310361 
L 735.751533 510.388265 
L 736.4208 505.523003 
L 737.090067 520.118789 
L 737.759333 524.984051 
L 739.097867 486.061955 
L 739.767133 486.061955 
L 740.4364 515.253527 
L 741.105667 534.714575 
L 742.4442 495.792479 
L 743.113467 500.657741 
L 743.782733 515.253527 
L 745.790533 515.253527 
L 746.4598 510.388265 
L 747.129067 510.388265 
L 747.798333 515.253527 
L 749.136867 534.714575 
L 749.806133 520.118789 
L 750.4754 500.657741 
L 751.144667 500.657741 
L 751.813933 515.253527 
L 752.4832 524.984051 
L 753.152467 524.984051 
L 753.821733 534.714575 
L 754.491 534.714575 
L 755.160267 529.849313 
L 755.829533 520.118789 
L 756.4988 515.253527 
L 757.168067 520.118789 
L 757.837333 529.849313 
L 758.5066 534.714575 
L 759.175867 520.118789 
L 759.845133 495.792479 
L 760.5144 490.927217 
L 761.183667 505.523003 
L 761.852933 515.253527 
L 762.5222 505.523003 
L 763.191467 500.657741 
L 763.860733 505.523003 
L 764.53 520.118789 
L 765.199267 524.984051 
L 766.5378 505.523003 
L 767.207067 510.388265 
L 767.876333 534.714575 
L 768.5456 544.445099 
L 769.214867 524.984051 
L 769.884133 510.388265 
L 770.5534 534.714575 
L 771.222667 563.906147 
L 771.891933 554.175623 
L 772.5612 524.984051 
L 773.230467 505.523003 
L 773.899733 500.657741 
L 775.238267 510.388265 
L 775.907533 524.984051 
L 776.5768 529.849313 
L 777.246067 529.849313 
L 777.915333 539.579837 
L 778.5846 544.445099 
L 779.253867 534.714575 
L 779.923133 520.118789 
L 780.5924 520.118789 
L 781.930933 539.579837 
L 782.6002 524.984051 
L 783.269467 515.253527 
L 783.938733 510.388265 
L 784.608 500.657741 
L 785.946533 529.849313 
L 786.6158 539.579837 
L 787.285067 534.714575 
L 787.954333 510.388265 
L 788.6236 495.792479 
L 789.292867 505.523003 
L 790.6314 534.714575 
L 791.969933 544.445099 
L 794.647 524.984051 
L 795.985533 534.714575 
L 796.6548 534.714575 
L 797.324067 505.523003 
L 797.993333 495.792479 
L 798.6626 500.657741 
L 799.331867 515.253527 
L 800.001133 534.714575 
L 800.6704 539.579837 
L 801.339667 534.714575 
L 802.008933 524.984051 
L 802.6782 524.984051 
L 803.347467 534.714575 
L 804.016733 539.579837 
L 805.355267 529.849313 
L 806.024533 515.253527 
L 806.6938 505.523003 
L 807.363067 505.523003 
L 808.032333 510.388265 
L 808.7016 520.118789 
L 810.040133 510.388265 
L 810.7094 520.118789 
L 811.378667 524.984051 
L 812.047933 515.253527 
L 812.7172 510.388265 
L 814.725 510.388265 
L 816.063533 490.927217 
L 816.7328 490.927217 
L 818.071333 510.388265 
L 820.079133 524.984051 
L 820.7484 524.984051 
L 821.417667 505.523003 
L 822.086933 505.523003 
L 822.7562 520.118789 
L 823.425467 524.984051 
L 824.764 505.523003 
L 825.433267 505.523003 
L 826.102533 510.388265 
L 826.7718 534.714575 
L 827.441067 534.714575 
L 828.110333 520.118789 
L 828.7796 510.388265 
L 829.448867 505.523003 
M 858.227333 393.621976 
L 859.565867 432.544072 
L 860.9044 495.792479 
L 861.573667 520.118789 
L 862.242933 534.714575 
L 862.9122 524.984051 
L 863.581467 505.523003 
L 864.250733 520.118789 
L 864.92 539.579837 
L 865.589267 549.310361 
L 866.258533 534.714575 
L 866.9278 510.388265 
L 868.266333 500.657741 
L 868.9356 510.388265 
L 869.604867 505.523003 
L 870.274133 520.118789 
L 870.9434 544.445099 
L 871.612667 544.445099 
L 872.281933 539.579837 
L 872.9512 539.579837 
L 873.620467 554.175623 
L 874.289733 554.175623 
L 874.959 529.849313 
L 875.628267 515.253527 
L 876.297533 505.523003 
L 877.636067 544.445099 
L 878.305333 544.445099 
L 878.9746 539.579837 
L 879.643867 529.849313 
L 880.313133 539.579837 
L 880.9824 524.984051 
L 881.651667 505.523003 
L 882.320933 520.118789 
L 882.9902 544.445099 
L 883.659467 554.175623 
L 884.998 524.984051 
L 885.667267 520.118789 
L 886.336533 520.118789 
L 887.675067 510.388265 
L 888.344333 529.849313 
L 889.0136 539.579837 
L 889.682867 534.714575 
L 890.352133 524.984051 
L 891.0214 524.984051 
L 891.690667 544.445099 
L 892.359933 544.445099 
L 893.698467 515.253527 
L 894.367733 520.118789 
L 896.375533 520.118789 
L 897.0448 505.523003 
L 897.714067 500.657741 
L 898.383333 510.388265 
L 899.0526 524.984051 
L 899.721867 524.984051 
L 900.391133 510.388265 
L 901.0604 510.388265 
L 901.729667 515.253527 
L 902.398933 510.388265 
L 903.0682 510.388265 
L 903.737467 515.253527 
L 904.406733 524.984051 
L 905.076 529.849313 
L 905.745267 524.984051 
L 906.414533 515.253527 
L 907.0838 515.253527 
L 907.753067 505.523003 
L 908.422333 510.388265 
L 909.0916 520.118789 
L 909.760867 505.523003 
L 910.430133 486.061955 
L 911.0994 495.792479 
L 911.768667 524.984051 
L 912.437933 529.849313 
L 913.1072 505.523003 
L 913.776467 486.061955 
L 914.445733 500.657741 
L 915.115 529.849313 
L 915.784267 539.579837 
L 916.453533 534.714575 
L 917.1228 524.984051 
L 919.799867 505.523003 
L 920.469133 495.792479 
L 921.807667 505.523003 
L 922.476933 505.523003 
L 923.815467 476.33143 
L 924.484733 500.657741 
L 925.154 520.118789 
L 925.823267 520.118789 
L 927.1618 481.196693 
L 927.831067 505.523003 
L 928.500333 520.118789 
L 929.1696 520.118789 
L 929.838867 510.388265 
L 930.508133 490.927217 
L 931.1774 495.792479 
L 931.846667 515.253527 
L 932.515933 524.984051 
L 933.1852 520.118789 
L 933.854467 505.523003 
L 934.523733 510.388265 
L 935.193 529.849313 
L 935.862267 539.579837 
L 936.531533 529.849313 
L 937.2008 510.388265 
L 937.870067 505.523003 
L 938.539333 510.388265 
L 939.877867 529.849313 
L 940.547133 534.714575 
L 941.2164 534.714575 
L 941.885667 510.388265 
L 942.554933 481.196693 
L 943.893467 510.388265 
L 945.232 520.118789 
L 945.901267 520.118789 
L 946.570533 544.445099 
L 947.2398 549.310361 
L 947.909067 534.714575 
L 949.2476 515.253527 
L 950.586133 505.523003 
L 951.2554 505.523003 
L 951.924667 500.657741 
L 952.593933 505.523003 
L 953.2632 524.984051 
L 953.932467 539.579837 
L 954.601733 539.579837 
L 955.271 515.253527 
L 955.940267 510.388265 
L 956.609533 520.118789 
L 957.2788 520.118789 
L 957.948067 515.253527 
L 958.617333 520.118789 
L 959.2866 529.849313 
L 961.2944 500.657741 
L 961.963667 520.118789 
L 962.632933 529.849313 
L 963.3022 510.388265 
L 963.971467 495.792479 
L 964.640733 486.061955 
L 965.979267 515.253527 
L 966.648533 520.118789 
L 967.3178 529.849313 
L 967.987067 524.984051 
L 968.656333 524.984051 
L 969.3256 529.849313 
L 970.664133 529.849313 
L 971.3334 510.388265 
L 972.002667 510.388265 
L 972.671933 520.118789 
L 973.3412 520.118789 
L 974.010467 510.388265 
L 974.679733 490.927217 
L 976.018267 490.927217 
L 976.687533 486.061955 
L 977.3568 490.927217 
L 978.026067 486.061955 
L 978.695333 490.927217 
L 979.3646 505.523003 
L 980.033867 505.523003 
L 981.3724 524.984051 
L 982.041667 524.984051 
L 982.710933 520.118789 
L 983.3802 510.388265 
L 984.049467 505.523003 
L 984.718733 505.523003 
L 986.057267 524.984051 
L 986.726533 524.984051 
L 987.3958 515.253527 
L 988.065067 510.388265 
L 989.4036 510.388265 
L 990.072867 524.984051 
L 991.4114 524.984051 
L 992.080667 520.118789 
L 992.749933 500.657741 
L 994.088467 481.196693 
L 994.757733 495.792479 
L 995.427 529.849313 
L 996.096267 554.175623 
L 996.765533 549.310361 
L 997.4348 524.984051 
L 998.104067 505.523003 
L 998.773333 500.657741 
L 999.4426 500.657741 
L 1000.111867 524.984051 
L 1000.781133 544.445099 
L 1001.4504 539.579837 
L 1002.788933 500.657741 
L 1003.4582 510.388265 
L 1005.466 510.388265 
M 1034.913733 315.777783 
L 1035.583 330.373569 
L 1036.921533 398.487238 
L 1037.5908 422.813548 
L 1038.260067 456.870382 
L 1039.5986 505.523003 
L 1040.267867 534.714575 
L 1040.937133 559.040885 
L 1041.6064 559.040885 
L 1042.275667 544.445099 
L 1042.944933 539.579837 
L 1044.952733 481.196693 
L 1045.622 466.600906 
L 1046.960533 476.33143 
L 1047.6298 486.061955 
L 1048.299067 505.523003 
L 1048.968333 505.523003 
L 1049.6376 500.657741 
L 1050.976133 549.310361 
L 1051.6454 544.445099 
L 1052.314667 515.253527 
L 1052.983933 510.388265 
L 1053.6532 520.118789 
L 1054.322467 510.388265 
L 1054.991733 490.927217 
L 1055.661 476.33143 
L 1056.999533 476.33143 
L 1057.6688 490.927217 
L 1058.338067 510.388265 
L 1059.007333 510.388265 
L 1060.345867 490.927217 
L 1061.6844 481.196693 
L 1062.353667 486.061955 
L 1063.022933 505.523003 
L 1063.6922 515.253527 
L 1064.361467 510.388265 
L 1065.030733 500.657741 
L 1065.7 486.061955 
L 1066.369267 476.33143 
L 1066.369267 476.33143 
" style="fill:none;opacity:0.4;stroke:#000000;stroke-linecap:square;stroke-width:1.5;"/>
   </g>
   <g id="patch_28">
    <path d="M 61.8 616.690729 
L 61.8 335.972132 
" style="fill:none;stroke:#000000;stroke-linecap:square;stroke-linejoin:miter;stroke-width:0.8;"/>
   </g>
   <g id="patch_29">
    <path d="M 1065.7 616.690729 
L 1065.7 335.972132 
" style="fill:none;stroke:#000000;stroke-linecap:square;stroke-linejoin:miter;stroke-width:0.8;"/>
   </g>
   <g id="patch_30">
    <path d="M 61.8 616.690729 
L 1065.7 616.690729 
" style="fill:none;stroke:#000000;stroke-linecap:square;stroke-linejoin:miter;stroke-width:0.8;"/>
   </g>
   <g id="patch_31">
    <path d="M 61.8 335.972132 
L 1065.7 335.972132 
" style="fill:none;stroke:#000000;stroke-linecap:square;stroke-linejoin:miter;stroke-width:0.8;"/>
   </g>
  </g>
 </g>
 <defs>
  <clipPath id="pc03e639581">
   <rect height="280.718598" width="1003.9" x="61.8" y="55.253534"/>
  </clipPath>
  <clipPath id="pcb7bbd5ba0">
   <rect height="280.718598" width="1003.9" x="61.8" y="335.972132"/>
  </clipPath>
 </defs>
</svg>
